G04 Layer_Color=255*
%FSLAX44Y44*%
%MOMM*%
G71*
G01*
G75*
%ADD10R,1.3000X1.0000*%
%ADD11R,1.0000X1.3000*%
%ADD12R,1.0000X0.9000*%
%ADD13R,0.4000X1.1000*%
%ADD14R,0.6000X1.5500*%
%ADD16C,0.3500*%
%ADD17C,1.6510*%
%ADD18R,1.6510X1.6510*%
%ADD19C,1.2000*%
%ADD20R,1.2000X1.2000*%
D10*
X-97500Y52250D02*
D03*
Y32750D02*
D03*
Y-62750D02*
D03*
Y-82250D02*
D03*
X27500Y57750D02*
D03*
Y77250D02*
D03*
X50000Y57750D02*
D03*
Y77250D02*
D03*
X72500Y57750D02*
D03*
Y77250D02*
D03*
X95000Y57750D02*
D03*
Y77250D02*
D03*
X122500Y97250D02*
D03*
Y77750D02*
D03*
Y7250D02*
D03*
Y-12250D02*
D03*
X-7500Y10250D02*
D03*
Y29750D02*
D03*
X-50000Y-27750D02*
D03*
Y-47250D02*
D03*
X122500Y-77250D02*
D03*
Y-57750D02*
D03*
D11*
X-54750Y90000D02*
D03*
X-35250D02*
D03*
Y115000D02*
D03*
X-54750D02*
D03*
X10250D02*
D03*
X29750D02*
D03*
X17750Y10000D02*
D03*
X37250D02*
D03*
X74750Y-100000D02*
D03*
X55250D02*
D03*
X-34750Y-107500D02*
D03*
X-15250D02*
D03*
X-34750Y-85000D02*
D03*
X-15250D02*
D03*
X37250Y35000D02*
D03*
X17750D02*
D03*
D12*
X60500Y33000D02*
D03*
Y12000D02*
D03*
X79500D02*
D03*
Y33000D02*
D03*
D13*
X-29750Y-18500D02*
D03*
X-23250D02*
D03*
X-16750D02*
D03*
X-10250D02*
D03*
Y-56500D02*
D03*
X-16750D02*
D03*
X-23250D02*
D03*
X-29750D02*
D03*
D14*
X93100Y-15500D02*
D03*
X80400D02*
D03*
X67700D02*
D03*
X55000D02*
D03*
X42300D02*
D03*
X29600D02*
D03*
X16900D02*
D03*
X93100Y-69500D02*
D03*
X80400D02*
D03*
X67700D02*
D03*
X55000D02*
D03*
X42300D02*
D03*
X29600D02*
D03*
X16900D02*
D03*
D16*
X-372110Y193040D02*
X193040D01*
Y-193040D02*
Y193040D01*
X-383540Y-193040D02*
X193040D01*
X-383540D02*
Y181610D01*
X-372110Y193040D01*
D17*
X152400Y152400D02*
D03*
Y-152400D02*
D03*
X-152400D02*
D03*
X-177800Y177800D02*
D03*
Y152400D02*
D03*
Y127000D02*
D03*
Y101600D02*
D03*
Y76200D02*
D03*
Y50800D02*
D03*
Y25400D02*
D03*
Y-0D02*
D03*
Y-25400D02*
D03*
Y-50800D02*
D03*
Y-76200D02*
D03*
Y-101600D02*
D03*
Y-127000D02*
D03*
Y-152400D02*
D03*
Y-177800D02*
D03*
X-152400Y177800D02*
D03*
Y127000D02*
D03*
Y101600D02*
D03*
Y76200D02*
D03*
Y50800D02*
D03*
Y25400D02*
D03*
Y-0D02*
D03*
Y-25400D02*
D03*
Y-50800D02*
D03*
Y-76200D02*
D03*
Y-101600D02*
D03*
Y-127000D02*
D03*
Y-177800D02*
D03*
X-127000Y177800D02*
D03*
Y152400D02*
D03*
Y-152400D02*
D03*
Y-177800D02*
D03*
X-101600Y177800D02*
D03*
Y152400D02*
D03*
Y-152400D02*
D03*
Y-177800D02*
D03*
X-76200Y177800D02*
D03*
Y152400D02*
D03*
Y-152400D02*
D03*
Y-177800D02*
D03*
X-50800Y177800D02*
D03*
Y152400D02*
D03*
Y-152400D02*
D03*
Y-177800D02*
D03*
X-25400Y177800D02*
D03*
Y152400D02*
D03*
Y-152400D02*
D03*
Y-177800D02*
D03*
X-0Y177800D02*
D03*
Y152400D02*
D03*
Y-152400D02*
D03*
Y-177800D02*
D03*
X25400Y177800D02*
D03*
Y152400D02*
D03*
Y-152400D02*
D03*
Y-177800D02*
D03*
X50800Y177800D02*
D03*
Y152400D02*
D03*
Y-152400D02*
D03*
Y-177800D02*
D03*
X76200Y177800D02*
D03*
Y152400D02*
D03*
Y-152400D02*
D03*
Y-177800D02*
D03*
X101600Y177800D02*
D03*
Y152400D02*
D03*
Y-152400D02*
D03*
Y-177800D02*
D03*
X127000Y177800D02*
D03*
Y152400D02*
D03*
Y-152400D02*
D03*
Y-177800D02*
D03*
X152400Y177800D02*
D03*
Y127000D02*
D03*
Y101600D02*
D03*
Y76200D02*
D03*
Y50800D02*
D03*
Y25400D02*
D03*
Y-0D02*
D03*
Y-25400D02*
D03*
Y-50800D02*
D03*
Y-76200D02*
D03*
Y-101600D02*
D03*
Y-127000D02*
D03*
Y-177800D02*
D03*
X177800Y177800D02*
D03*
Y152400D02*
D03*
Y127000D02*
D03*
Y101600D02*
D03*
Y76200D02*
D03*
Y50800D02*
D03*
Y25400D02*
D03*
Y-0D02*
D03*
Y-25400D02*
D03*
Y-50800D02*
D03*
Y-76200D02*
D03*
Y-101600D02*
D03*
Y-127000D02*
D03*
Y-152400D02*
D03*
Y-177800D02*
D03*
D18*
X-152400Y152400D02*
D03*
D19*
X-300990Y-44450D02*
D03*
X-326390Y-19050D02*
D03*
Y-44450D02*
D03*
X-351790Y-19050D02*
D03*
X-326390Y6350D02*
D03*
X-351790D02*
D03*
X-326390Y31750D02*
D03*
X-351790D02*
D03*
X-326390Y82550D02*
D03*
X-351790D02*
D03*
X-326390Y107950D02*
D03*
X-300990Y82550D02*
D03*
Y107950D02*
D03*
X-275590Y82550D02*
D03*
Y107950D02*
D03*
X-250190Y82550D02*
D03*
Y107950D02*
D03*
X-224790Y82550D02*
D03*
X-250190Y31750D02*
D03*
X-224790D02*
D03*
X-250190Y6350D02*
D03*
X-224790D02*
D03*
X-250190Y-19050D02*
D03*
X-224790D02*
D03*
X-250190Y-44450D02*
D03*
X-275590Y-19050D02*
D03*
Y-44450D02*
D03*
X-224790Y57150D02*
D03*
X-250190D02*
D03*
X-351790D02*
D03*
X-326390D02*
D03*
D20*
X-300990Y-19050D02*
D03*
M02*
