G04 Layer_Physical_Order=4*
G04 Layer_Color=16711680*
%FSLAX44Y44*%
%MOMM*%
G71*
G01*
G75*
%ADD10R,1.3000X1.0000*%
%ADD15C,0.2000*%
%ADD16C,0.3500*%
%ADD17C,1.6510*%
%ADD18R,1.6510X1.6510*%
%ADD19C,1.2000*%
%ADD20R,1.2000X1.2000*%
%ADD21C,0.6000*%
%ADD22C,1.0000*%
%ADD23R,0.3000X1.5000*%
%ADD24R,1.5000X0.3000*%
G36*
X108511Y100000D02*
X106000D01*
Y93240D01*
X104778Y94178D01*
X103197Y94833D01*
X101500Y95056D01*
X99803Y94833D01*
X98222Y94178D01*
X96864Y93136D01*
X95822Y91778D01*
X95168Y90197D01*
X94944Y88500D01*
X95168Y86803D01*
X95822Y85222D01*
X96864Y83864D01*
X96912Y83828D01*
Y79588D01*
X76651D01*
X73994Y82244D01*
X72506Y83239D01*
X70750Y83588D01*
X53374D01*
X54386Y84364D01*
X55427Y85722D01*
X56083Y87303D01*
X56205Y88233D01*
X56500Y88194D01*
X58197Y88417D01*
X59778Y89072D01*
X61136Y90114D01*
X62178Y91472D01*
X62833Y93053D01*
X62959Y94015D01*
X63500Y93944D01*
X65197Y94167D01*
X66778Y94822D01*
X68136Y95864D01*
X69177Y97222D01*
X69833Y98803D01*
X70056Y100500D01*
X69833Y102197D01*
X69293Y103500D01*
X102500D01*
Y106011D01*
X108511Y100000D01*
D02*
G37*
G36*
X26168Y101947D02*
X25944Y100250D01*
X26168Y98553D01*
X26822Y96972D01*
X27864Y95614D01*
X27912Y95578D01*
Y95250D01*
X28261Y93494D01*
X29256Y92006D01*
X42673Y78588D01*
X10287D01*
X10583Y79303D01*
X10806Y81000D01*
X10583Y82697D01*
X9928Y84278D01*
X8886Y85636D01*
X7528Y86678D01*
X5947Y87333D01*
X4250Y87556D01*
X2553Y87333D01*
X972Y86678D01*
X-386Y85636D01*
X-422Y85588D01*
X-1599D01*
X-19511Y103500D01*
X-7088D01*
Y102056D01*
X-7636Y101636D01*
X-8678Y100278D01*
X-9333Y98697D01*
X-9556Y97000D01*
X-9333Y95303D01*
X-8678Y93722D01*
X-7636Y92364D01*
X-6278Y91322D01*
X-4697Y90667D01*
X-3000Y90444D01*
X-1303Y90667D01*
X278Y91322D01*
X1636Y92364D01*
X2678Y93722D01*
X2683Y93735D01*
X4053Y93167D01*
X5750Y92944D01*
X7447Y93167D01*
X9028Y93822D01*
X9252Y93994D01*
X9572Y93222D01*
X10614Y91864D01*
X11972Y90822D01*
X13553Y90167D01*
X15250Y89944D01*
X16947Y90167D01*
X18528Y90822D01*
X19886Y91864D01*
X20928Y93222D01*
X21583Y94803D01*
X21806Y96500D01*
X21583Y98197D01*
X20928Y99778D01*
X19886Y101136D01*
X18528Y102178D01*
X17088Y102774D01*
Y103500D01*
X26811D01*
X26168Y101947D01*
D02*
G37*
G36*
X-37088Y-116250D02*
X-36739Y-118006D01*
X-35744Y-119494D01*
X-33577Y-121662D01*
X-48578D01*
X-48614Y-121614D01*
X-49972Y-120572D01*
X-51553Y-119917D01*
X-53250Y-119694D01*
X-54947Y-119917D01*
X-56528Y-120572D01*
X-57886Y-121614D01*
X-58928Y-122972D01*
X-59583Y-124553D01*
X-59806Y-126250D01*
X-59593Y-127871D01*
X-59947Y-127917D01*
X-61528Y-128572D01*
X-62886Y-129614D01*
X-63928Y-130972D01*
X-64583Y-132553D01*
X-64806Y-134250D01*
X-64583Y-135947D01*
X-63928Y-137528D01*
X-62886Y-138886D01*
X-61528Y-139928D01*
X-59947Y-140583D01*
X-58250Y-140806D01*
X-56553Y-140583D01*
X-54972Y-139928D01*
X-53614Y-138886D01*
X-52572Y-137528D01*
X-51917Y-135947D01*
X-51694Y-134250D01*
X-51907Y-132629D01*
X-51553Y-132583D01*
X-49972Y-131928D01*
X-48614Y-130886D01*
X-48578Y-130838D01*
X-32150D01*
X-21835Y-141153D01*
X-22332Y-140948D01*
X-25400Y-140544D01*
X-28469Y-140948D01*
X-31328Y-142132D01*
X-33784Y-144016D01*
X-35668Y-146472D01*
X-36853Y-149332D01*
X-37257Y-152400D01*
X-36853Y-155469D01*
X-35668Y-158328D01*
X-33784Y-160784D01*
X-31328Y-162668D01*
X-28469Y-163853D01*
X-25400Y-164257D01*
X-22332Y-163853D01*
X-19472Y-162668D01*
X-17016Y-160784D01*
X-16813Y-160519D01*
X-15994Y-161744D01*
X-9494Y-168244D01*
X-8084Y-169186D01*
X-8384Y-169416D01*
X-10268Y-171872D01*
X-11453Y-174732D01*
X-11857Y-177800D01*
X-11453Y-180869D01*
X-10268Y-183728D01*
X-9292Y-185000D01*
X-16108D01*
X-15132Y-183728D01*
X-13948Y-180869D01*
X-13544Y-177800D01*
X-13948Y-174732D01*
X-15132Y-171872D01*
X-17016Y-169416D01*
X-19472Y-167532D01*
X-22332Y-166348D01*
X-25400Y-165944D01*
X-28469Y-166348D01*
X-31328Y-167532D01*
X-33784Y-169416D01*
X-35668Y-171872D01*
X-36853Y-174732D01*
X-37257Y-177800D01*
X-36853Y-180869D01*
X-35668Y-183728D01*
X-34692Y-185000D01*
X-41508D01*
X-40532Y-183728D01*
X-39348Y-180869D01*
X-38944Y-177800D01*
X-39348Y-174732D01*
X-40532Y-171872D01*
X-42416Y-169416D01*
X-44872Y-167532D01*
X-47731Y-166348D01*
X-50800Y-165944D01*
X-53869Y-166348D01*
X-56728Y-167532D01*
X-59184Y-169416D01*
X-61068Y-171872D01*
X-62253Y-174732D01*
X-62657Y-177800D01*
X-62253Y-180869D01*
X-61068Y-183728D01*
X-60092Y-185000D01*
X-66908D01*
X-65932Y-183728D01*
X-64748Y-180869D01*
X-64344Y-177800D01*
X-64748Y-174732D01*
X-65932Y-171872D01*
X-67816Y-169416D01*
X-70272Y-167532D01*
X-73131Y-166348D01*
X-76200Y-165944D01*
X-79269Y-166348D01*
X-82128Y-167532D01*
X-84584Y-169416D01*
X-86468Y-171872D01*
X-87653Y-174732D01*
X-88057Y-177800D01*
X-87653Y-180869D01*
X-86468Y-183728D01*
X-85492Y-185000D01*
X-92308D01*
X-91332Y-183728D01*
X-90148Y-180869D01*
X-89744Y-177800D01*
X-90148Y-174732D01*
X-91332Y-171872D01*
X-93216Y-169416D01*
X-95672Y-167532D01*
X-98532Y-166348D01*
X-101600Y-165944D01*
X-104669Y-166348D01*
X-107528Y-167532D01*
X-109984Y-169416D01*
X-111868Y-171872D01*
X-113053Y-174732D01*
X-113457Y-177800D01*
X-113053Y-180869D01*
X-111868Y-183728D01*
X-110892Y-185000D01*
X-117708D01*
X-116732Y-183728D01*
X-115548Y-180869D01*
X-115144Y-177800D01*
X-115548Y-174732D01*
X-116732Y-171872D01*
X-118616Y-169416D01*
X-121072Y-167532D01*
X-123932Y-166348D01*
X-127000Y-165944D01*
X-130069Y-166348D01*
X-132928Y-167532D01*
X-135384Y-169416D01*
X-137268Y-171872D01*
X-138453Y-174732D01*
X-138857Y-177800D01*
X-138453Y-180869D01*
X-137268Y-183728D01*
X-136292Y-185000D01*
X-143108D01*
X-142132Y-183728D01*
X-140948Y-180869D01*
X-140544Y-177800D01*
X-140948Y-174732D01*
X-141503Y-173391D01*
X-136256Y-168144D01*
X-135261Y-166656D01*
X-134912Y-164900D01*
Y-161146D01*
X-132928Y-162668D01*
X-130069Y-163853D01*
X-127000Y-164257D01*
X-123932Y-163853D01*
X-121072Y-162668D01*
X-118616Y-160784D01*
X-116732Y-158328D01*
X-115548Y-155469D01*
X-115144Y-152400D01*
X-115548Y-149332D01*
X-116103Y-147991D01*
X-99950Y-131838D01*
X-78000D01*
X-76244Y-131489D01*
X-74756Y-130494D01*
X-59256Y-114994D01*
X-58261Y-113506D01*
X-57912Y-111750D01*
Y-110500D01*
X-37088D01*
Y-116250D01*
D02*
G37*
G36*
X171872Y15132D02*
X174731Y13947D01*
X177800Y13543D01*
X180868Y13947D01*
X183728Y15132D01*
X185000Y16108D01*
Y9292D01*
X183728Y10268D01*
X180868Y11452D01*
X177800Y11856D01*
X174731Y11452D01*
X171872Y10268D01*
X169416Y8384D01*
X167532Y5928D01*
X166347Y3068D01*
X165943Y-0D01*
X166347Y-3069D01*
X167532Y-5928D01*
X169416Y-8384D01*
X171872Y-10268D01*
X174731Y-11453D01*
X177800Y-11857D01*
X180868Y-11453D01*
X183728Y-10268D01*
X185000Y-9292D01*
Y-16108D01*
X183728Y-15132D01*
X180868Y-13948D01*
X177800Y-13544D01*
X174731Y-13948D01*
X171872Y-15132D01*
X169416Y-17016D01*
X167532Y-19472D01*
X166347Y-22332D01*
X165943Y-25400D01*
X166347Y-28469D01*
X167532Y-31328D01*
X169416Y-33784D01*
X171872Y-35668D01*
X174731Y-36853D01*
X177800Y-37257D01*
X180868Y-36853D01*
X183728Y-35668D01*
X185000Y-34692D01*
Y-41508D01*
X183728Y-40532D01*
X180868Y-39348D01*
X177800Y-38944D01*
X174731Y-39348D01*
X171872Y-40532D01*
X169416Y-42416D01*
X167532Y-44872D01*
X166347Y-47731D01*
X165943Y-50800D01*
X166347Y-53869D01*
X167532Y-56728D01*
X169416Y-59184D01*
X171872Y-61068D01*
X174731Y-62253D01*
X177800Y-62657D01*
X180868Y-62253D01*
X183728Y-61068D01*
X185000Y-60092D01*
Y-66908D01*
X183728Y-65932D01*
X180868Y-64748D01*
X177800Y-64344D01*
X174731Y-64748D01*
X171872Y-65932D01*
X169416Y-67816D01*
X167532Y-70272D01*
X166347Y-73131D01*
X165943Y-76200D01*
X166347Y-79269D01*
X167532Y-82128D01*
X169416Y-84584D01*
X171872Y-86468D01*
X174731Y-87653D01*
X177800Y-88057D01*
X180868Y-87653D01*
X183728Y-86468D01*
X185000Y-85492D01*
Y-92308D01*
X183728Y-91332D01*
X180868Y-90148D01*
X177800Y-89744D01*
X174731Y-90148D01*
X171872Y-91332D01*
X169416Y-93216D01*
X167532Y-95672D01*
X166347Y-98532D01*
X165943Y-101600D01*
X166347Y-104669D01*
X167532Y-107528D01*
X169416Y-109984D01*
X171872Y-111868D01*
X174731Y-113053D01*
X177800Y-113457D01*
X180868Y-113053D01*
X183728Y-111868D01*
X185000Y-110892D01*
Y-117708D01*
X183728Y-116732D01*
X180868Y-115548D01*
X177800Y-115144D01*
X174731Y-115548D01*
X171872Y-116732D01*
X169416Y-118616D01*
X167532Y-121072D01*
X166347Y-123932D01*
X165943Y-127000D01*
X166347Y-130069D01*
X167532Y-132928D01*
X168190Y-133786D01*
X166697Y-133167D01*
X165000Y-132944D01*
X163303Y-133167D01*
X162103Y-133665D01*
X162668Y-132928D01*
X163852Y-130069D01*
X164256Y-127000D01*
X163852Y-123932D01*
X162668Y-121072D01*
X160784Y-118616D01*
X158328Y-116732D01*
X155469Y-115548D01*
X152400Y-115144D01*
X149331Y-115548D01*
X146472Y-116732D01*
X144016Y-118616D01*
X142132Y-121072D01*
X140947Y-123932D01*
X140543Y-127000D01*
X140947Y-130069D01*
X142132Y-132928D01*
X144016Y-135384D01*
X146472Y-137268D01*
X149331Y-138453D01*
X152400Y-138857D01*
X155469Y-138453D01*
X158328Y-137268D01*
X159150Y-136637D01*
X158667Y-137803D01*
X158444Y-139500D01*
X158667Y-141197D01*
X159322Y-142778D01*
X159541Y-143063D01*
X158328Y-142132D01*
X155469Y-140948D01*
X152400Y-140544D01*
X149331Y-140948D01*
X146472Y-142132D01*
X144016Y-144016D01*
X142132Y-146472D01*
X140947Y-149332D01*
X140543Y-152400D01*
X140947Y-155469D01*
X142132Y-158328D01*
X144016Y-160784D01*
X146472Y-162668D01*
X149331Y-163853D01*
X152400Y-164257D01*
X155469Y-163853D01*
X158328Y-162668D01*
X160784Y-160784D01*
X162668Y-158328D01*
X163852Y-155469D01*
X164256Y-152400D01*
X163852Y-149332D01*
X162668Y-146472D01*
X161607Y-145089D01*
X161722Y-145178D01*
X163303Y-145833D01*
X165000Y-146056D01*
X166697Y-145833D01*
X168278Y-145178D01*
X168879Y-144717D01*
X167532Y-146472D01*
X166347Y-149332D01*
X165943Y-152400D01*
X166347Y-155469D01*
X167532Y-158328D01*
X169416Y-160784D01*
X171872Y-162668D01*
X174731Y-163853D01*
X177800Y-164257D01*
X180868Y-163853D01*
X183728Y-162668D01*
X185000Y-161692D01*
Y-168508D01*
X183728Y-167532D01*
X180868Y-166348D01*
X177800Y-165944D01*
X174731Y-166348D01*
X171872Y-167532D01*
X169416Y-169416D01*
X167532Y-171872D01*
X166347Y-174732D01*
X165943Y-177800D01*
X166347Y-180869D01*
X167532Y-183728D01*
X168508Y-185000D01*
X161692D01*
X162668Y-183728D01*
X163852Y-180869D01*
X164092Y-179050D01*
X140708D01*
X140947Y-180869D01*
X142132Y-183728D01*
X143108Y-185000D01*
X136292D01*
X137268Y-183728D01*
X138452Y-180869D01*
X138856Y-177800D01*
X138452Y-174732D01*
X137268Y-171872D01*
X135384Y-169416D01*
X132928Y-167532D01*
X130069Y-166348D01*
X127000Y-165944D01*
X123931Y-166348D01*
X121072Y-167532D01*
X118616Y-169416D01*
X116732Y-171872D01*
X115547Y-174732D01*
X115143Y-177800D01*
X115547Y-180869D01*
X116732Y-183728D01*
X117708Y-185000D01*
X110892D01*
X111868Y-183728D01*
X113052Y-180869D01*
X113456Y-177800D01*
X113052Y-174732D01*
X111868Y-171872D01*
X109984Y-169416D01*
X107528Y-167532D01*
X104669Y-166348D01*
X101600Y-165944D01*
X98531Y-166348D01*
X97191Y-166903D01*
X93588Y-163300D01*
Y-161069D01*
X95672Y-162668D01*
X98531Y-163853D01*
X101600Y-164257D01*
X104669Y-163853D01*
X107528Y-162668D01*
X109984Y-160784D01*
X111868Y-158328D01*
X113052Y-155469D01*
X113456Y-152400D01*
X113052Y-149332D01*
X111868Y-146472D01*
X109984Y-144016D01*
X107528Y-142132D01*
X106188Y-141577D01*
Y-118350D01*
X105839Y-116594D01*
X104844Y-115105D01*
X100239Y-110500D01*
X102500D01*
Y-95489D01*
X103441Y-94548D01*
X103500Y-94556D01*
X103917Y-94501D01*
X103360Y-95845D01*
X102879Y-99500D01*
X103360Y-103155D01*
X104771Y-106560D01*
X107015Y-109485D01*
X109940Y-111729D01*
X113345Y-113140D01*
X117000Y-113621D01*
X120655Y-113140D01*
X124060Y-111729D01*
X126985Y-109485D01*
X129229Y-106560D01*
X130585Y-103285D01*
X131303Y-103583D01*
X133000Y-103806D01*
X134697Y-103583D01*
X136278Y-102928D01*
X137636Y-101886D01*
X138678Y-100528D01*
X139333Y-98947D01*
X139556Y-97250D01*
X139333Y-95553D01*
X138678Y-93972D01*
X137636Y-92614D01*
X136278Y-91572D01*
X134697Y-90917D01*
X133000Y-90694D01*
X131303Y-90917D01*
X129722Y-91572D01*
X128993Y-92132D01*
X126985Y-89515D01*
X124060Y-87271D01*
X120655Y-85860D01*
X117000Y-85379D01*
X113345Y-85860D01*
X109959Y-87263D01*
X109833Y-86303D01*
X109293Y-85000D01*
X128000D01*
Y-80000D01*
Y-75000D01*
Y-70000D01*
Y-65000D01*
Y-60000D01*
Y-55000D01*
Y-50000D01*
Y-40000D01*
Y-35000D01*
Y-25000D01*
Y-15000D01*
Y-10000D01*
Y-5000D01*
Y0D01*
Y412D01*
X135750D01*
X137506Y761D01*
X138994Y1756D01*
X141400Y4161D01*
X140947Y3068D01*
X140543Y-0D01*
X140947Y-3069D01*
X142132Y-5928D01*
X144016Y-8384D01*
X146472Y-10268D01*
X149331Y-11453D01*
X152400Y-11857D01*
X155469Y-11453D01*
X158328Y-10268D01*
X160784Y-8384D01*
X162668Y-5928D01*
X163852Y-3069D01*
X164256Y-0D01*
X163852Y3068D01*
X162668Y5928D01*
X161093Y7980D01*
X161581Y8077D01*
X162505Y8261D01*
X162505Y8261D01*
X162506Y8261D01*
X163197Y8723D01*
X163994Y9256D01*
X168494Y13756D01*
X168494Y13756D01*
X168494Y13756D01*
X168956Y14446D01*
X169489Y15244D01*
X169489Y15244D01*
X169489Y15244D01*
X169665Y16127D01*
X169785Y16733D01*
X171872Y15132D01*
D02*
G37*
G36*
X77417Y-111553D02*
X77194Y-113250D01*
X77417Y-114947D01*
X78073Y-116528D01*
X79114Y-117886D01*
X80472Y-118928D01*
X82053Y-119583D01*
X82588Y-119653D01*
X82444Y-120750D01*
X82667Y-122447D01*
X83322Y-124028D01*
X84364Y-125386D01*
X84412Y-125422D01*
Y-143884D01*
X82128Y-142132D01*
X79268Y-140948D01*
X77450Y-140708D01*
Y-152400D01*
Y-164092D01*
X79268Y-163853D01*
X82128Y-162668D01*
X84412Y-160916D01*
Y-165200D01*
X84761Y-166956D01*
X85756Y-168444D01*
X90702Y-173391D01*
X90147Y-174732D01*
X89743Y-177800D01*
X90147Y-180869D01*
X91332Y-183728D01*
X92308Y-185000D01*
X85492D01*
X86468Y-183728D01*
X87652Y-180869D01*
X88056Y-177800D01*
X87652Y-174732D01*
X86468Y-171872D01*
X84584Y-169416D01*
X82128Y-167532D01*
X79268Y-166348D01*
X76200Y-165944D01*
X73131Y-166348D01*
X71791Y-166903D01*
X68338Y-163450D01*
Y-161185D01*
X70272Y-162668D01*
X73131Y-163853D01*
X74950Y-164092D01*
Y-152400D01*
Y-140708D01*
X74845Y-140722D01*
X75088Y-139500D01*
Y-130500D01*
X74739Y-128744D01*
X73744Y-127256D01*
X72088Y-125599D01*
Y-110500D01*
X77854D01*
X77417Y-111553D01*
D02*
G37*
G36*
X-168244Y34755D02*
X-166756Y33761D01*
X-165000Y33412D01*
X-161069D01*
X-162668Y31328D01*
X-163853Y28468D01*
X-164257Y25400D01*
X-163853Y22331D01*
X-162668Y19472D01*
X-160839Y17088D01*
X-163000D01*
X-166903Y20991D01*
X-166348Y22331D01*
X-165944Y25400D01*
X-166348Y28468D01*
X-167532Y31328D01*
X-169416Y33784D01*
X-171872Y35668D01*
X-174732Y36852D01*
X-177800Y37256D01*
X-180869Y36852D01*
X-183728Y35668D01*
X-186184Y33784D01*
X-188068Y31328D01*
X-189253Y28468D01*
X-189657Y25400D01*
X-189253Y22331D01*
X-188068Y19472D01*
X-186184Y17016D01*
X-183728Y15132D01*
X-180869Y13947D01*
X-177800Y13543D01*
X-174732Y13947D01*
X-173391Y14503D01*
X-168145Y9256D01*
X-166656Y8261D01*
X-164900Y7912D01*
X-161146D01*
X-162668Y5928D01*
X-163853Y3068D01*
X-164257Y-0D01*
X-163853Y-3069D01*
X-162668Y-5928D01*
X-160784Y-8384D01*
X-160748Y-8412D01*
X-162900D01*
X-166903Y-4409D01*
X-166348Y-3069D01*
X-165944Y-0D01*
X-166348Y3068D01*
X-167532Y5928D01*
X-169416Y8384D01*
X-171872Y10268D01*
X-174732Y11452D01*
X-177800Y11856D01*
X-180869Y11452D01*
X-183728Y10268D01*
X-186184Y8384D01*
X-188068Y5928D01*
X-189253Y3068D01*
X-189657Y-0D01*
X-189253Y-3069D01*
X-188068Y-5928D01*
X-186354Y-8162D01*
X-200500D01*
X-202256Y-8511D01*
X-203745Y-9506D01*
X-215499Y-21260D01*
X-215208Y-19050D01*
X-215535Y-16570D01*
X-215619Y-16367D01*
X-194256Y4996D01*
X-193261Y6484D01*
X-192912Y8240D01*
Y28850D01*
X-181961Y39800D01*
X-180869Y39347D01*
X-177800Y38943D01*
X-174732Y39347D01*
X-173391Y39903D01*
X-168244Y34755D01*
D02*
G37*
G36*
X-292838Y-39469D02*
X-294215Y-37675D01*
X-296199Y-36152D01*
X-298510Y-35195D01*
X-300990Y-34868D01*
X-303470Y-35195D01*
X-305781Y-36152D01*
X-307766Y-37675D01*
X-309288Y-39659D01*
X-310246Y-41970D01*
X-310572Y-44450D01*
X-310246Y-46930D01*
X-309288Y-49241D01*
X-307766Y-51226D01*
X-305781Y-52748D01*
X-305578Y-52832D01*
Y-57950D01*
X-308450D01*
Y-74950D01*
X-288450D01*
Y-71038D01*
X-193450D01*
X-191694Y-70689D01*
X-190206Y-69694D01*
X-182209Y-61698D01*
X-180869Y-62253D01*
X-177800Y-62657D01*
X-174732Y-62253D01*
X-171872Y-61068D01*
X-169416Y-59184D01*
X-167532Y-56728D01*
X-166348Y-53869D01*
X-165944Y-50800D01*
X-166348Y-47731D01*
X-167532Y-44872D01*
X-169416Y-42416D01*
X-171872Y-40532D01*
X-174732Y-39348D01*
X-177800Y-38944D01*
X-180869Y-39348D01*
X-183728Y-40532D01*
X-186184Y-42416D01*
X-188068Y-44872D01*
X-189253Y-47731D01*
X-189657Y-50800D01*
X-189253Y-53869D01*
X-188697Y-55209D01*
X-195351Y-61862D01*
X-288450D01*
Y-57950D01*
X-296402D01*
Y-52832D01*
X-296199Y-52748D01*
X-294215Y-51226D01*
X-292838Y-49432D01*
Y-49500D01*
X-292489Y-51256D01*
X-291494Y-52744D01*
X-285244Y-58994D01*
X-283756Y-59989D01*
X-282000Y-60338D01*
X-234000D01*
X-232244Y-59989D01*
X-230756Y-58994D01*
X-201750Y-29988D01*
X-188623D01*
X-188068Y-31328D01*
X-186184Y-33784D01*
X-183728Y-35668D01*
X-180869Y-36853D01*
X-177800Y-37257D01*
X-174732Y-36853D01*
X-173391Y-36298D01*
X-168445Y-41244D01*
X-166956Y-42239D01*
X-165200Y-42588D01*
X-160916D01*
X-162668Y-44872D01*
X-163853Y-47731D01*
X-164257Y-50800D01*
X-163853Y-53869D01*
X-162668Y-56728D01*
X-160784Y-59184D01*
X-158328Y-61068D01*
X-155469Y-62253D01*
X-152400Y-62657D01*
X-149332Y-62253D01*
X-146472Y-61068D01*
X-144016Y-59184D01*
X-142132Y-56728D01*
X-141246Y-54588D01*
X-118827D01*
X-140560Y-76321D01*
X-140544Y-76200D01*
X-140948Y-73131D01*
X-142132Y-70272D01*
X-144016Y-67816D01*
X-146472Y-65932D01*
X-149332Y-64748D01*
X-151150Y-64508D01*
Y-76200D01*
X-152400D01*
Y-77450D01*
X-164092D01*
X-163853Y-79269D01*
X-162668Y-82128D01*
X-161108Y-84162D01*
X-163350D01*
X-166903Y-80609D01*
X-166348Y-79269D01*
X-165944Y-76200D01*
X-166348Y-73131D01*
X-167532Y-70272D01*
X-169416Y-67816D01*
X-171872Y-65932D01*
X-174732Y-64748D01*
X-177800Y-64344D01*
X-180869Y-64748D01*
X-183728Y-65932D01*
X-186184Y-67816D01*
X-188068Y-70272D01*
X-189253Y-73131D01*
X-189657Y-76200D01*
X-189253Y-79269D01*
X-188068Y-82128D01*
X-186184Y-84584D01*
X-183728Y-86468D01*
X-180869Y-87653D01*
X-177800Y-88057D01*
X-174732Y-87653D01*
X-173391Y-87098D01*
X-168495Y-91994D01*
X-167006Y-92989D01*
X-165250Y-93338D01*
X-160877D01*
X-162668Y-95672D01*
X-163853Y-98532D01*
X-164257Y-101600D01*
X-163853Y-104669D01*
X-162668Y-107528D01*
X-161031Y-109662D01*
X-163250D01*
X-166903Y-106009D01*
X-166348Y-104669D01*
X-165944Y-101600D01*
X-166348Y-98532D01*
X-167532Y-95672D01*
X-169416Y-93216D01*
X-171872Y-91332D01*
X-174732Y-90148D01*
X-177800Y-89744D01*
X-180869Y-90148D01*
X-183728Y-91332D01*
X-186184Y-93216D01*
X-188068Y-95672D01*
X-188623Y-97012D01*
X-308999D01*
X-321802Y-84209D01*
Y-52832D01*
X-321599Y-52748D01*
X-319615Y-51226D01*
X-318092Y-49241D01*
X-317135Y-46930D01*
X-316808Y-44450D01*
X-317135Y-41970D01*
X-318092Y-39659D01*
X-319615Y-37675D01*
X-321599Y-36152D01*
X-321753Y-36088D01*
X-313440D01*
X-311684Y-35739D01*
X-310196Y-34745D01*
X-304002Y-28550D01*
X-292838D01*
Y-39469D01*
D02*
G37*
G36*
X-108000Y75000D02*
Y70000D01*
Y64738D01*
X-114912Y71650D01*
Y75256D01*
X-114697Y75167D01*
X-113000Y74944D01*
X-111303Y75167D01*
X-110712Y75412D01*
X-108000D01*
Y75000D01*
D02*
G37*
G36*
X-169588Y86899D02*
Y84715D01*
X-171872Y86468D01*
X-174732Y87652D01*
X-176550Y87892D01*
Y76200D01*
X-177800D01*
Y74950D01*
X-189492D01*
X-189253Y73131D01*
X-188068Y70272D01*
X-186184Y67816D01*
X-185757Y67488D01*
X-186753Y66822D01*
X-187244Y66494D01*
X-187244Y66494D01*
X-187244Y66494D01*
X-187244Y66494D01*
X-191162Y62577D01*
Y81750D01*
X-182209Y90702D01*
X-180869Y90147D01*
X-177800Y89743D01*
X-174732Y90147D01*
X-173391Y90702D01*
X-169588Y86899D01*
D02*
G37*
G36*
X25256Y55494D02*
X24261Y54006D01*
X23912Y52250D01*
Y38651D01*
X-8994Y5744D01*
X-9989Y4256D01*
X-10338Y2500D01*
Y-24599D01*
X-34151Y-48412D01*
X-47500D01*
X-49256Y-48761D01*
X-50744Y-49756D01*
X-57994Y-57006D01*
X-58989Y-58494D01*
X-59338Y-60250D01*
Y-77171D01*
X-60553Y-76667D01*
X-62250Y-76444D01*
X-63947Y-76667D01*
X-65528Y-77322D01*
X-66886Y-78364D01*
X-67928Y-79722D01*
X-68583Y-81303D01*
X-68806Y-83000D01*
X-68583Y-84697D01*
X-67928Y-86278D01*
X-66886Y-87636D01*
X-65760Y-88500D01*
X-67962D01*
X-68098Y-87816D01*
X-68261Y-86995D01*
X-68261Y-86995D01*
X-68261Y-86994D01*
X-68760Y-86247D01*
X-69255Y-85506D01*
X-71255Y-83506D01*
X-71255Y-83506D01*
X-71256Y-83505D01*
X-71973Y-83026D01*
X-72744Y-82511D01*
X-72744Y-82511D01*
X-72744Y-82511D01*
X-73626Y-82335D01*
X-74499Y-82162D01*
X-74500Y-82162D01*
X-74500Y-82162D01*
X-82750D01*
X-82750Y-82162D01*
X-82750Y-82162D01*
X-83645Y-82340D01*
X-84506Y-82511D01*
X-84506Y-82511D01*
X-84506Y-82511D01*
X-85231Y-82996D01*
X-85994Y-83505D01*
X-85994Y-83506D01*
X-85995Y-83506D01*
X-86000Y-83511D01*
Y-80000D01*
Y-75000D01*
Y-74854D01*
X-85928Y-75028D01*
X-84886Y-76386D01*
X-83528Y-77428D01*
X-81947Y-78083D01*
X-80250Y-78306D01*
X-78553Y-78083D01*
X-76972Y-77428D01*
X-75614Y-76386D01*
X-74572Y-75028D01*
X-73917Y-73447D01*
X-73694Y-71750D01*
X-73917Y-70053D01*
X-74572Y-68472D01*
X-75614Y-67114D01*
X-76972Y-66072D01*
X-78553Y-65417D01*
X-80250Y-65194D01*
X-81947Y-65417D01*
X-83528Y-66072D01*
X-84886Y-67114D01*
X-85928Y-68472D01*
X-86000Y-68646D01*
Y-65000D01*
Y-64489D01*
X-84744Y-64239D01*
X-83256Y-63244D01*
X-78256Y-58244D01*
X-77261Y-56756D01*
X-77070Y-55793D01*
X-76864Y-55636D01*
X-75822Y-54278D01*
X-75167Y-52697D01*
X-74944Y-51000D01*
X-75167Y-49303D01*
X-75822Y-47722D01*
X-76864Y-46364D01*
X-78222Y-45322D01*
X-79803Y-44667D01*
X-81500Y-44444D01*
X-83197Y-44667D01*
X-84778Y-45322D01*
X-86000Y-46260D01*
Y-45000D01*
Y-40000D01*
Y-30000D01*
Y-25000D01*
Y-20000D01*
Y-15000D01*
Y-10000D01*
Y0D01*
X-86000D01*
Y5000D01*
X-86000D01*
Y5957D01*
X-84697Y5417D01*
X-83000Y5194D01*
X-81303Y5417D01*
X-79722Y6072D01*
X-78364Y7114D01*
X-77322Y8472D01*
X-76838Y9640D01*
Y422D01*
X-76886Y386D01*
X-77928Y-972D01*
X-78583Y-2553D01*
X-78806Y-4250D01*
X-78583Y-5947D01*
X-77928Y-7528D01*
X-76886Y-8886D01*
X-75528Y-9928D01*
X-73947Y-10583D01*
X-72250Y-10806D01*
X-70553Y-10583D01*
X-68972Y-9928D01*
X-67614Y-8886D01*
X-66572Y-7528D01*
X-65917Y-5947D01*
X-65694Y-4250D01*
X-65917Y-2553D01*
X-66572Y-972D01*
X-67614Y386D01*
X-67662Y422D01*
Y11175D01*
X-67528Y11072D01*
X-65947Y10417D01*
X-64250Y10194D01*
X-62553Y10417D01*
X-60972Y11072D01*
X-59614Y12114D01*
X-58572Y13472D01*
X-57917Y15053D01*
X-57722Y16539D01*
X-57000Y16444D01*
X-55303Y16667D01*
X-53722Y17322D01*
X-52364Y18364D01*
X-51322Y19722D01*
X-50667Y21303D01*
X-50444Y23000D01*
X-50667Y24697D01*
X-50781Y24973D01*
X-49303Y25167D01*
X-47722Y25822D01*
X-46364Y26864D01*
X-45322Y28222D01*
X-44667Y29803D01*
X-44444Y31500D01*
X-44575Y32500D01*
X-43303Y32667D01*
X-41722Y33322D01*
X-40364Y34364D01*
X-39322Y35722D01*
X-38667Y37303D01*
X-38444Y39000D01*
X-38667Y40697D01*
X-39088Y41713D01*
X-38222Y42072D01*
X-36864Y43114D01*
X-35823Y44472D01*
X-35168Y46053D01*
X-34944Y47750D01*
X-35168Y49447D01*
X-35500Y50250D01*
X-34722Y50573D01*
X-33364Y51614D01*
X-32322Y52972D01*
X-31667Y54553D01*
X-31614Y54958D01*
X-21671Y45015D01*
X-22428Y44028D01*
X-23083Y42447D01*
X-23306Y40750D01*
X-23083Y39053D01*
X-22428Y37472D01*
X-21386Y36114D01*
X-20028Y35072D01*
X-18447Y34417D01*
X-16750Y34194D01*
X-15053Y34417D01*
X-13472Y35072D01*
X-12337Y35943D01*
X-11528Y35322D01*
X-9947Y34667D01*
X-8250Y34444D01*
X-6553Y34667D01*
X-4972Y35322D01*
X-3906Y36140D01*
X-3886Y36114D01*
X-2528Y35072D01*
X-947Y34417D01*
X750Y34194D01*
X2447Y34417D01*
X4028Y35072D01*
X5386Y36114D01*
X6428Y37472D01*
X7083Y39053D01*
X7306Y40750D01*
X7083Y42447D01*
X6428Y44028D01*
X6407Y44055D01*
X7136Y44614D01*
X8178Y45972D01*
X8833Y47553D01*
X9056Y49250D01*
X8833Y50947D01*
X8178Y52528D01*
X7136Y53886D01*
X5778Y54928D01*
X4197Y55583D01*
X3106Y55726D01*
X3677Y56472D01*
X4333Y58053D01*
X4556Y59750D01*
X4548Y59809D01*
X9400Y64662D01*
X34423D01*
X25256Y55494D01*
D02*
G37*
G36*
X44323Y49528D02*
X43668Y47947D01*
X43444Y46250D01*
X43668Y44553D01*
X44323Y42972D01*
X45364Y41614D01*
X46722Y40573D01*
X48303Y39918D01*
X50000Y39694D01*
X51697Y39918D01*
X53278Y40573D01*
X54636Y41614D01*
X54673Y41662D01*
X81099D01*
X85006Y37756D01*
X86494Y36761D01*
X87101Y36641D01*
X86917Y36197D01*
X86694Y34500D01*
X86917Y32803D01*
X87572Y31222D01*
X88606Y29875D01*
X87572Y28528D01*
X86917Y26947D01*
X86694Y25250D01*
X86917Y23553D01*
X87572Y21972D01*
X88614Y20614D01*
X89972Y19572D01*
X91553Y18917D01*
X93250Y18694D01*
X94947Y18917D01*
X96528Y19572D01*
X97886Y20614D01*
X98927Y21972D01*
X99435Y23196D01*
X106000Y29761D01*
Y25000D01*
Y20000D01*
Y15000D01*
Y10000D01*
Y5000D01*
Y0D01*
Y-2207D01*
X104697Y-1667D01*
X103000Y-1444D01*
X101303Y-1667D01*
X99722Y-2322D01*
X98364Y-3364D01*
X97322Y-4722D01*
X96667Y-6303D01*
X96444Y-8000D01*
X96667Y-9697D01*
X97322Y-11278D01*
X98364Y-12636D01*
X98570Y-12794D01*
X98586Y-12874D01*
X98761Y-13756D01*
X98761Y-13756D01*
X98761Y-13756D01*
X99283Y-14537D01*
X99756Y-15244D01*
X99756Y-15244D01*
X99756Y-15245D01*
X102756Y-18245D01*
X103532Y-18763D01*
X104244Y-19239D01*
X104244Y-19239D01*
X104245Y-19239D01*
X105155Y-19420D01*
X106000Y-19588D01*
Y-25000D01*
Y-35000D01*
Y-40000D01*
Y-50000D01*
Y-55000D01*
Y-60000D01*
Y-65000D01*
Y-70000D01*
Y-75000D01*
Y-80000D01*
Y-82000D01*
X105197Y-81667D01*
X103500Y-81444D01*
X101803Y-81667D01*
X100222Y-82322D01*
X98864Y-83364D01*
X97823Y-84722D01*
X97168Y-86303D01*
X96944Y-88000D01*
X96952Y-88060D01*
X96511Y-88500D01*
X83293D01*
X83833Y-87197D01*
X84056Y-85500D01*
X83833Y-83803D01*
X83177Y-82222D01*
X82136Y-80864D01*
X80778Y-79822D01*
X79197Y-79167D01*
X77500Y-78944D01*
X75803Y-79167D01*
X74222Y-79822D01*
X72864Y-80864D01*
X71822Y-82222D01*
X71167Y-83803D01*
X70944Y-85500D01*
X71167Y-87197D01*
X71707Y-88500D01*
X57987D01*
X58136Y-88386D01*
X59178Y-87028D01*
X59833Y-85447D01*
X60056Y-83750D01*
X59833Y-82053D01*
X59178Y-80472D01*
X58136Y-79114D01*
X56778Y-78072D01*
X55197Y-77417D01*
X53500Y-77194D01*
X51803Y-77417D01*
X50222Y-78072D01*
X48864Y-79114D01*
X47822Y-80472D01*
X47745Y-80658D01*
X47136Y-79864D01*
X45778Y-78822D01*
X44197Y-78167D01*
X42500Y-77944D01*
X40803Y-78167D01*
X39222Y-78822D01*
X37864Y-79864D01*
X36822Y-81222D01*
X36167Y-82803D01*
X35944Y-84500D01*
X35952Y-84559D01*
X34256Y-86256D01*
X33261Y-87744D01*
X33111Y-88500D01*
X32088D01*
Y-66500D01*
X31739Y-64744D01*
X30848Y-63411D01*
X31447Y-63333D01*
X33028Y-62677D01*
X34386Y-61636D01*
X35427Y-60278D01*
X36082Y-58697D01*
X36306Y-57000D01*
X36243Y-56524D01*
X37697Y-56333D01*
X39278Y-55678D01*
X40636Y-54636D01*
X41678Y-53278D01*
X42333Y-51697D01*
X42556Y-50000D01*
X42333Y-48303D01*
X41678Y-46722D01*
X40636Y-45364D01*
X39278Y-44322D01*
X37697Y-43667D01*
X36000Y-43444D01*
X34303Y-43667D01*
X32722Y-44322D01*
X32588Y-44425D01*
Y-42922D01*
X32636Y-42886D01*
X33677Y-41528D01*
X34332Y-39947D01*
X34556Y-38250D01*
X34332Y-36553D01*
X33677Y-34972D01*
X32636Y-33614D01*
X31278Y-32572D01*
X29697Y-31917D01*
X28000Y-31694D01*
X26303Y-31917D01*
X24722Y-32572D01*
X23364Y-33614D01*
X22322Y-34972D01*
X21761Y-36326D01*
X20778Y-35572D01*
X19197Y-34917D01*
X17500Y-34694D01*
X15803Y-34917D01*
X14222Y-35572D01*
X13838Y-35866D01*
Y-4500D01*
X13490Y-2751D01*
X13556Y-2250D01*
X13333Y-553D01*
X12678Y1028D01*
X11636Y2386D01*
X10278Y3428D01*
X9315Y3826D01*
X38994Y33505D01*
X39989Y34994D01*
X40338Y36750D01*
Y44078D01*
X40386Y44114D01*
X41427Y45472D01*
X42083Y47053D01*
X42306Y48750D01*
X42298Y48809D01*
X43901Y50412D01*
X45001D01*
X44323Y49528D01*
D02*
G37*
G36*
X16108Y185000D02*
X15132Y183728D01*
X13947Y180868D01*
X13543Y177800D01*
X13947Y174731D01*
X15132Y171872D01*
X17016Y169416D01*
X19472Y167532D01*
X22331Y166347D01*
X25400Y165943D01*
X28468Y166347D01*
X31328Y167532D01*
X33784Y169416D01*
X35668Y171872D01*
X36852Y174731D01*
X37256Y177800D01*
X36852Y180868D01*
X35668Y183728D01*
X34692Y185000D01*
X41508D01*
X40532Y183728D01*
X39347Y180868D01*
X38943Y177800D01*
X39347Y174731D01*
X40532Y171872D01*
X42416Y169416D01*
X44872Y167532D01*
X47731Y166347D01*
X50800Y165943D01*
X53868Y166347D01*
X56728Y167532D01*
X59184Y169416D01*
X61068Y171872D01*
X62252Y174731D01*
X62656Y177800D01*
X62252Y180868D01*
X61068Y183728D01*
X60092Y185000D01*
X66908D01*
X65932Y183728D01*
X64747Y180868D01*
X64343Y177800D01*
X64747Y174731D01*
X65932Y171872D01*
X67816Y169416D01*
X70272Y167532D01*
X73131Y166347D01*
X76200Y165943D01*
X79268Y166347D01*
X82128Y167532D01*
X84584Y169416D01*
X86468Y171872D01*
X87652Y174731D01*
X88056Y177800D01*
X87652Y180868D01*
X86468Y183728D01*
X85492Y185000D01*
X92308D01*
X91332Y183728D01*
X90147Y180868D01*
X89743Y177800D01*
X90147Y174731D01*
X91332Y171872D01*
X93216Y169416D01*
X95672Y167532D01*
X98531Y166347D01*
X101600Y165943D01*
X104669Y166347D01*
X107528Y167532D01*
X109984Y169416D01*
X111868Y171872D01*
X113052Y174731D01*
X113456Y177800D01*
X113052Y180868D01*
X111868Y183728D01*
X110892Y185000D01*
X117708Y185000D01*
X116732Y183728D01*
X115547Y180868D01*
X115143Y177800D01*
X115547Y174731D01*
X116732Y171872D01*
X118616Y169416D01*
X121072Y167532D01*
X123931Y166347D01*
X127000Y165943D01*
X130069Y166347D01*
X132928Y167532D01*
X135384Y169416D01*
X137268Y171872D01*
X138452Y174731D01*
X138856Y177800D01*
X138452Y180868D01*
X137268Y183728D01*
X136292Y185000D01*
X143108Y185000D01*
X142132Y183728D01*
X140947Y180868D01*
X140543Y177800D01*
X140947Y174731D01*
X142132Y171872D01*
X144016Y169416D01*
X146472Y167532D01*
X149331Y166347D01*
X152400Y165943D01*
X155469Y166347D01*
X158328Y167532D01*
X160784Y169416D01*
X162668Y171872D01*
X163852Y174731D01*
X164256Y177800D01*
X163852Y180868D01*
X162668Y183728D01*
X161692Y185000D01*
X168508D01*
X167532Y183728D01*
X166347Y180868D01*
X165943Y177800D01*
X166347Y174731D01*
X167532Y171872D01*
X169416Y169416D01*
X171872Y167532D01*
X174731Y166347D01*
X177800Y165943D01*
X180868Y166347D01*
X183728Y167532D01*
X185000Y168508D01*
Y161692D01*
X183728Y162668D01*
X180868Y163852D01*
X177800Y164256D01*
X174731Y163852D01*
X171872Y162668D01*
X169416Y160784D01*
X167532Y158328D01*
X166347Y155469D01*
X165943Y152400D01*
X166347Y149331D01*
X167532Y146472D01*
X169416Y144016D01*
X171872Y142132D01*
X174731Y140947D01*
X177800Y140543D01*
X180868Y140947D01*
X183728Y142132D01*
X185000Y143108D01*
Y136292D01*
X183728Y137268D01*
X180868Y138452D01*
X177800Y138856D01*
X174731Y138452D01*
X171872Y137268D01*
X169416Y135384D01*
X167532Y132928D01*
X166347Y130069D01*
X165943Y127000D01*
X166347Y123931D01*
X166903Y122591D01*
X162006Y117695D01*
X161011Y116206D01*
X160662Y114450D01*
Y110077D01*
X158328Y111868D01*
X155469Y113052D01*
X152400Y113456D01*
X149331Y113052D01*
X146472Y111868D01*
X144016Y109984D01*
X142132Y107528D01*
X141577Y106188D01*
X115301D01*
X109838Y111651D01*
Y132000D01*
X109633Y133032D01*
X109489Y133756D01*
X109489Y133756D01*
X109489Y133756D01*
X108963Y134543D01*
X108494Y135244D01*
X108298Y135440D01*
X108306Y135500D01*
X108083Y137197D01*
X107428Y138778D01*
X106386Y140136D01*
X105097Y141125D01*
X107528Y142132D01*
X109984Y144016D01*
X111868Y146472D01*
X113052Y149331D01*
X113456Y152400D01*
X113052Y155469D01*
X111868Y158328D01*
X109984Y160784D01*
X107528Y162668D01*
X104669Y163852D01*
X101600Y164256D01*
X98531Y163852D01*
X95672Y162668D01*
X93216Y160784D01*
X91332Y158328D01*
X90147Y155469D01*
X89743Y152400D01*
X90147Y149331D01*
X91332Y146472D01*
X93216Y144016D01*
X95672Y142132D01*
X98298Y141044D01*
X97114Y140136D01*
X96073Y138778D01*
X95417Y137197D01*
X95194Y135500D01*
X95417Y133803D01*
X96073Y132222D01*
X97114Y130864D01*
X98472Y129823D01*
X100053Y129167D01*
X100662Y129087D01*
Y125500D01*
X62239D01*
X67065Y130326D01*
X67722Y129823D01*
X69303Y129167D01*
X71000Y128944D01*
X72697Y129167D01*
X74278Y129823D01*
X75636Y130864D01*
X76678Y132222D01*
X77333Y133803D01*
X77556Y135500D01*
X77333Y137197D01*
X76678Y138778D01*
X75636Y140136D01*
X74878Y140717D01*
X76200Y140543D01*
X79268Y140947D01*
X82128Y142132D01*
X84584Y144016D01*
X86468Y146472D01*
X87652Y149331D01*
X88056Y152400D01*
X87652Y155469D01*
X86468Y158328D01*
X84584Y160784D01*
X82128Y162668D01*
X79268Y163852D01*
X76200Y164256D01*
X73131Y163852D01*
X70272Y162668D01*
X67816Y160784D01*
X65932Y158328D01*
X64747Y155469D01*
X64343Y152400D01*
X64747Y149331D01*
X65932Y146472D01*
X67816Y144016D01*
X70272Y142132D01*
X70586Y142002D01*
X69303Y141833D01*
X67722Y141178D01*
X66364Y140136D01*
X66328Y140088D01*
X65750D01*
X63994Y139739D01*
X62506Y138744D01*
X54255Y130494D01*
X53261Y129006D01*
X52912Y127250D01*
Y125500D01*
X50543D01*
X51083Y126803D01*
X51306Y128500D01*
X51083Y130197D01*
X50428Y131778D01*
X49386Y133136D01*
X48028Y134178D01*
X46447Y134833D01*
X44750Y135056D01*
X43053Y134833D01*
X41472Y134178D01*
X40114Y133136D01*
X39072Y131778D01*
X38417Y130197D01*
X38194Y128500D01*
X38260Y127999D01*
X37912Y126250D01*
Y125500D01*
X32088D01*
Y128750D01*
X31739Y130506D01*
X30744Y131994D01*
X21409Y141329D01*
X22331Y140947D01*
X25400Y140543D01*
X28468Y140947D01*
X31328Y142132D01*
X33784Y144016D01*
X35668Y146472D01*
X36852Y149331D01*
X37256Y152400D01*
X36852Y155469D01*
X35668Y158328D01*
X33784Y160784D01*
X31328Y162668D01*
X28468Y163852D01*
X25400Y164256D01*
X22331Y163852D01*
X19472Y162668D01*
X17016Y160784D01*
X15132Y158328D01*
X13947Y155469D01*
X13543Y152400D01*
X13947Y149331D01*
X14329Y148409D01*
X11680Y151059D01*
X11856Y152400D01*
X11452Y155469D01*
X10268Y158328D01*
X8384Y160784D01*
X5928Y162668D01*
X3068Y163852D01*
X658Y164170D01*
X2801Y166312D01*
X3068Y166347D01*
X5928Y167532D01*
X8384Y169416D01*
X10268Y171872D01*
X11452Y174731D01*
X11856Y177800D01*
X11452Y180868D01*
X10268Y183728D01*
X9292Y185000D01*
X16108D01*
D02*
G37*
G36*
X-116827Y-25412D02*
X-123099D01*
X-130162Y-18349D01*
Y-15250D01*
X-130511Y-13494D01*
X-131506Y-12006D01*
X-140889Y-2622D01*
X-140741Y-1497D01*
X-116827Y-25412D01*
D02*
G37*
G36*
X-110892Y185000D02*
X-111868Y183728D01*
X-113053Y180868D01*
X-113292Y179050D01*
X-89908D01*
X-90148Y180868D01*
X-91332Y183728D01*
X-92308Y185000D01*
X-85492Y185000D01*
X-86468Y183728D01*
X-87653Y180868D01*
X-88057Y177800D01*
X-87653Y174731D01*
X-86468Y171872D01*
X-84716Y169588D01*
X-93085D01*
X-91332Y171872D01*
X-90148Y174731D01*
X-89908Y176550D01*
X-113292D01*
X-113053Y174731D01*
X-111868Y171872D01*
X-110116Y169588D01*
X-112300D01*
X-116103Y173391D01*
X-115548Y174731D01*
X-115144Y177800D01*
X-115548Y180868D01*
X-116732Y183728D01*
X-117708Y185000D01*
X-110892D01*
D02*
G37*
G36*
X-187092Y185000D02*
X-188068Y183728D01*
X-189253Y180868D01*
X-189657Y177800D01*
X-189253Y174731D01*
X-188068Y171872D01*
X-186184Y169416D01*
X-185686Y169034D01*
X-186494Y168494D01*
X-186494Y168494D01*
X-240494Y114494D01*
X-241489Y113006D01*
X-241655Y112169D01*
X-241892Y112741D01*
X-243415Y114725D01*
X-245399Y116248D01*
X-247710Y117205D01*
X-250190Y117532D01*
X-252670Y117205D01*
X-254981Y116248D01*
X-256966Y114725D01*
X-258488Y112741D01*
X-259446Y110430D01*
X-259772Y107950D01*
X-259446Y105470D01*
X-258488Y103159D01*
X-256966Y101174D01*
X-254981Y99652D01*
X-252670Y98694D01*
X-250190Y98368D01*
X-247710Y98694D01*
X-245399Y99652D01*
X-243415Y101174D01*
X-241892Y103159D01*
X-241838Y103289D01*
Y87211D01*
X-241892Y87341D01*
X-243415Y89325D01*
X-245399Y90848D01*
X-247710Y91805D01*
X-250190Y92132D01*
X-252670Y91805D01*
X-254981Y90848D01*
X-256966Y89325D01*
X-258488Y87341D01*
X-259446Y85030D01*
X-259772Y82550D01*
X-259446Y80070D01*
X-258488Y77759D01*
X-256966Y75774D01*
X-254981Y74252D01*
X-252670Y73294D01*
X-250190Y72968D01*
X-247710Y73294D01*
X-245399Y74252D01*
X-243415Y75774D01*
X-241892Y77759D01*
X-241838Y77889D01*
Y71991D01*
X-247507Y66321D01*
X-247710Y66405D01*
X-250190Y66732D01*
X-252670Y66405D01*
X-254981Y65448D01*
X-256966Y63925D01*
X-258488Y61941D01*
X-259446Y59630D01*
X-259772Y57150D01*
X-259446Y54670D01*
X-258488Y52359D01*
X-256966Y50374D01*
X-254981Y48852D01*
X-252670Y47894D01*
X-250190Y47568D01*
X-247710Y47894D01*
X-245399Y48852D01*
X-243415Y50374D01*
X-241892Y52359D01*
X-240935Y54670D01*
X-240608Y57150D01*
X-240935Y59630D01*
X-241019Y59833D01*
X-234006Y66846D01*
X-233011Y68334D01*
X-232662Y70090D01*
Y77203D01*
X-231566Y75774D01*
X-229581Y74252D01*
X-227270Y73294D01*
X-224790Y72968D01*
X-222310Y73294D01*
X-219999Y74252D01*
X-218838Y75142D01*
Y69590D01*
X-222107Y66321D01*
X-222310Y66405D01*
X-224790Y66732D01*
X-227270Y66405D01*
X-229581Y65448D01*
X-231566Y63925D01*
X-233088Y61941D01*
X-234046Y59630D01*
X-234372Y57150D01*
X-234046Y54670D01*
X-233088Y52359D01*
X-231566Y50374D01*
X-230541Y49588D01*
X-236940D01*
X-238696Y49239D01*
X-240184Y48244D01*
X-247507Y40921D01*
X-247710Y41005D01*
X-250190Y41332D01*
X-252670Y41005D01*
X-254981Y40048D01*
X-256966Y38525D01*
X-258488Y36541D01*
X-259446Y34230D01*
X-259772Y31750D01*
X-259446Y29270D01*
X-258488Y26959D01*
X-256966Y24974D01*
X-254981Y23452D01*
X-252670Y22494D01*
X-250190Y22168D01*
X-247710Y22494D01*
X-245399Y23452D01*
X-243415Y24974D01*
X-241892Y26959D01*
X-240935Y29270D01*
X-240608Y31750D01*
X-240935Y34230D01*
X-241019Y34433D01*
X-235040Y40412D01*
X-228703D01*
X-229581Y40048D01*
X-231566Y38525D01*
X-233088Y36541D01*
X-234046Y34230D01*
X-234372Y31750D01*
X-234046Y29270D01*
X-233088Y26959D01*
X-231566Y24974D01*
X-229581Y23452D01*
X-229307Y23338D01*
X-237790D01*
X-239546Y22989D01*
X-241034Y21994D01*
X-247507Y15521D01*
X-247710Y15605D01*
X-250190Y15932D01*
X-252670Y15605D01*
X-254981Y14648D01*
X-256966Y13125D01*
X-258488Y11141D01*
X-259446Y8830D01*
X-259772Y6350D01*
X-259446Y3870D01*
X-258488Y1559D01*
X-256966Y-426D01*
X-254981Y-1948D01*
X-252670Y-2906D01*
X-250190Y-3232D01*
X-247710Y-2906D01*
X-245399Y-1948D01*
X-243415Y-426D01*
X-241892Y1559D01*
X-240935Y3870D01*
X-240608Y6350D01*
X-240935Y8830D01*
X-241019Y9033D01*
X-235889Y14162D01*
X-230215D01*
X-231566Y13125D01*
X-233088Y11141D01*
X-234046Y8830D01*
X-234372Y6350D01*
X-234046Y3870D01*
X-233088Y1559D01*
X-231768Y-162D01*
X-235890D01*
X-237646Y-511D01*
X-239134Y-1506D01*
X-247507Y-9879D01*
X-247710Y-9795D01*
X-250190Y-9468D01*
X-252670Y-9795D01*
X-254981Y-10752D01*
X-256966Y-12275D01*
X-258488Y-14259D01*
X-259446Y-16570D01*
X-259772Y-19050D01*
X-259446Y-21530D01*
X-258488Y-23841D01*
X-256966Y-25826D01*
X-254981Y-27348D01*
X-252670Y-28306D01*
X-250190Y-28632D01*
X-247710Y-28306D01*
X-245399Y-27348D01*
X-243415Y-25826D01*
X-241892Y-23841D01*
X-240935Y-21530D01*
X-240608Y-19050D01*
X-240935Y-16570D01*
X-241019Y-16367D01*
X-233990Y-9338D01*
X-221567D01*
X-222107Y-9879D01*
X-222310Y-9795D01*
X-224790Y-9468D01*
X-227270Y-9795D01*
X-229581Y-10752D01*
X-231566Y-12275D01*
X-233088Y-14259D01*
X-234046Y-16570D01*
X-234372Y-19050D01*
X-234046Y-21530D01*
X-233088Y-23841D01*
X-231566Y-25826D01*
X-229581Y-27348D01*
X-227270Y-28306D01*
X-224790Y-28632D01*
X-222580Y-28341D01*
X-234101Y-39862D01*
X-241808D01*
X-241892Y-39659D01*
X-243415Y-37675D01*
X-245399Y-36152D01*
X-247710Y-35195D01*
X-250190Y-34868D01*
X-252670Y-35195D01*
X-254981Y-36152D01*
X-256966Y-37675D01*
X-258488Y-39659D01*
X-259446Y-41970D01*
X-259772Y-44450D01*
X-259446Y-46930D01*
X-258488Y-49241D01*
X-257015Y-51162D01*
X-268766D01*
X-267292Y-49241D01*
X-266335Y-46930D01*
X-266008Y-44450D01*
X-266335Y-41970D01*
X-267292Y-39659D01*
X-268815Y-37675D01*
X-270799Y-36152D01*
X-273110Y-35195D01*
X-275590Y-34868D01*
X-278070Y-35195D01*
X-280381Y-36152D01*
X-282366Y-37675D01*
X-283662Y-39364D01*
Y-24136D01*
X-282366Y-25826D01*
X-280381Y-27348D01*
X-278070Y-28306D01*
X-275590Y-28632D01*
X-273110Y-28306D01*
X-270799Y-27348D01*
X-268815Y-25826D01*
X-267292Y-23841D01*
X-266335Y-21530D01*
X-266008Y-19050D01*
X-266335Y-16570D01*
X-267292Y-14259D01*
X-268815Y-12275D01*
X-270799Y-10752D01*
X-273110Y-9795D01*
X-275590Y-9468D01*
X-278070Y-9795D01*
X-280381Y-10752D01*
X-282366Y-12275D01*
X-283662Y-13964D01*
Y-7750D01*
X-283836Y-6876D01*
X-284011Y-5994D01*
X-284011Y-5994D01*
Y-5994D01*
X-284346Y-5494D01*
X-285006Y-4506D01*
X-299105Y9594D01*
X-299105Y9594D01*
X-299105Y9594D01*
X-299844Y10088D01*
X-300594Y10589D01*
X-300594D01*
X-300594Y10589D01*
X-301768Y10822D01*
X-302349Y10938D01*
X-302350D01*
X-302350D01*
X-318008D01*
X-318092Y11141D01*
X-319615Y13125D01*
X-321599Y14648D01*
X-323910Y15605D01*
X-326390Y15932D01*
X-328870Y15605D01*
X-331181Y14648D01*
X-333166Y13125D01*
X-334688Y11141D01*
X-335646Y8830D01*
X-335972Y6350D01*
X-335646Y3870D01*
X-334688Y1559D01*
X-333166Y-426D01*
X-331181Y-1948D01*
X-328870Y-2906D01*
X-326390Y-3232D01*
X-323910Y-2906D01*
X-321599Y-1948D01*
X-319615Y-426D01*
X-318092Y1559D01*
X-318008Y1762D01*
X-304250D01*
X-292939Y-9550D01*
X-310490D01*
Y-22062D01*
X-315341Y-26912D01*
X-321031D01*
X-319615Y-25826D01*
X-318092Y-23841D01*
X-317135Y-21530D01*
X-316808Y-19050D01*
X-317135Y-16570D01*
X-318092Y-14259D01*
X-319615Y-12275D01*
X-321599Y-10752D01*
X-323910Y-9795D01*
X-326390Y-9468D01*
X-328870Y-9795D01*
X-331181Y-10752D01*
X-333166Y-12275D01*
X-334688Y-14259D01*
X-335646Y-16570D01*
X-335972Y-19050D01*
X-335646Y-21530D01*
X-334688Y-23841D01*
X-333166Y-25826D01*
X-331698Y-26951D01*
X-333256Y-27261D01*
X-334744Y-28256D01*
X-341244Y-34756D01*
X-342239Y-36244D01*
X-342588Y-38000D01*
Y-89250D01*
X-342239Y-91006D01*
X-341244Y-92494D01*
X-315994Y-117744D01*
X-314506Y-118739D01*
X-312750Y-119088D01*
X-186546D01*
X-188068Y-121072D01*
X-189253Y-123932D01*
X-189657Y-127000D01*
X-189253Y-130069D01*
X-188068Y-132928D01*
X-186184Y-135384D01*
X-183728Y-137268D01*
X-180869Y-138453D01*
X-177800Y-138857D01*
X-174732Y-138453D01*
X-171872Y-137268D01*
X-169416Y-135384D01*
X-167532Y-132928D01*
X-166348Y-130069D01*
X-165944Y-127000D01*
X-165975Y-126764D01*
X-164032Y-128707D01*
X-163853Y-130069D01*
X-162668Y-132928D01*
X-160954Y-135162D01*
X-165150D01*
X-166906Y-135511D01*
X-168394Y-136506D01*
X-173391Y-141503D01*
X-174732Y-140948D01*
X-177800Y-140544D01*
X-180869Y-140948D01*
X-183728Y-142132D01*
X-186184Y-144016D01*
X-188068Y-146472D01*
X-189253Y-149332D01*
X-189657Y-152400D01*
X-189253Y-155469D01*
X-188068Y-158328D01*
X-186184Y-160784D01*
X-183728Y-162668D01*
X-180869Y-163853D01*
X-177800Y-164257D01*
X-174732Y-163853D01*
X-171872Y-162668D01*
X-169416Y-160784D01*
X-167532Y-158328D01*
X-166348Y-155469D01*
X-165944Y-152400D01*
X-166348Y-149332D01*
X-166903Y-147991D01*
X-163249Y-144338D01*
X-161031D01*
X-162668Y-146472D01*
X-163853Y-149332D01*
X-164257Y-152400D01*
X-163853Y-155469D01*
X-162668Y-158328D01*
X-160784Y-160784D01*
X-158328Y-162668D01*
X-155469Y-163853D01*
X-152400Y-164257D01*
X-149332Y-163853D01*
X-146472Y-162668D01*
X-144088Y-160839D01*
Y-162999D01*
X-147991Y-166903D01*
X-149332Y-166348D01*
X-152400Y-165944D01*
X-155469Y-166348D01*
X-158328Y-167532D01*
X-160784Y-169416D01*
X-162668Y-171872D01*
X-163853Y-174732D01*
X-164257Y-177800D01*
X-163853Y-180869D01*
X-162668Y-183728D01*
X-161692Y-185000D01*
X-168508D01*
X-167532Y-183728D01*
X-166348Y-180869D01*
X-165944Y-177800D01*
X-166348Y-174732D01*
X-167532Y-171872D01*
X-169416Y-169416D01*
X-171872Y-167532D01*
X-174732Y-166348D01*
X-177800Y-165944D01*
X-180869Y-166348D01*
X-183728Y-167532D01*
X-186184Y-169416D01*
X-188068Y-171872D01*
X-189253Y-174732D01*
X-189657Y-177800D01*
X-189253Y-180869D01*
X-188068Y-183728D01*
X-187092Y-185000D01*
X-375000D01*
X-375000Y177500D01*
X-367500Y185000D01*
X-187092Y185000D01*
D02*
G37*
%LPC*%
G36*
X-52050Y-153650D02*
X-62492D01*
X-62253Y-155469D01*
X-61068Y-158328D01*
X-59184Y-160784D01*
X-56728Y-162668D01*
X-53869Y-163853D01*
X-52050Y-164092D01*
Y-153650D01*
D02*
G37*
G36*
X-39108D02*
X-49550D01*
Y-164092D01*
X-47731Y-163853D01*
X-44872Y-162668D01*
X-42416Y-160784D01*
X-40532Y-158328D01*
X-39348Y-155469D01*
X-39108Y-153650D01*
D02*
G37*
G36*
X-76200Y-140544D02*
X-79269Y-140948D01*
X-82128Y-142132D01*
X-84584Y-144016D01*
X-86468Y-146472D01*
X-87653Y-149332D01*
X-88057Y-152400D01*
X-87653Y-155469D01*
X-86468Y-158328D01*
X-84584Y-160784D01*
X-82128Y-162668D01*
X-79269Y-163853D01*
X-76200Y-164257D01*
X-73131Y-163853D01*
X-70272Y-162668D01*
X-67816Y-160784D01*
X-65932Y-158328D01*
X-64748Y-155469D01*
X-64344Y-152400D01*
X-64748Y-149332D01*
X-65932Y-146472D01*
X-67816Y-144016D01*
X-70272Y-142132D01*
X-73131Y-140948D01*
X-76200Y-140544D01*
D02*
G37*
G36*
X-101600D02*
X-104669Y-140948D01*
X-107528Y-142132D01*
X-109984Y-144016D01*
X-111868Y-146472D01*
X-113053Y-149332D01*
X-113457Y-152400D01*
X-113053Y-155469D01*
X-111868Y-158328D01*
X-109984Y-160784D01*
X-107528Y-162668D01*
X-104669Y-163853D01*
X-101600Y-164257D01*
X-98532Y-163853D01*
X-95672Y-162668D01*
X-93216Y-160784D01*
X-91332Y-158328D01*
X-90148Y-155469D01*
X-89744Y-152400D01*
X-90148Y-149332D01*
X-91332Y-146472D01*
X-93216Y-144016D01*
X-95672Y-142132D01*
X-98532Y-140948D01*
X-101600Y-140544D01*
D02*
G37*
G36*
X-52050Y-140708D02*
X-53869Y-140948D01*
X-56728Y-142132D01*
X-59184Y-144016D01*
X-61068Y-146472D01*
X-62253Y-149332D01*
X-62492Y-151150D01*
X-52050D01*
Y-140708D01*
D02*
G37*
G36*
X-49550D02*
Y-151150D01*
X-39108D01*
X-39348Y-149332D01*
X-40532Y-146472D01*
X-42416Y-144016D01*
X-44872Y-142132D01*
X-47731Y-140948D01*
X-49550Y-140708D01*
D02*
G37*
G36*
X151150Y-26650D02*
X140708D01*
X140947Y-28469D01*
X142132Y-31328D01*
X144016Y-33784D01*
X146472Y-35668D01*
X149331Y-36853D01*
X151150Y-37092D01*
Y-26650D01*
D02*
G37*
G36*
X153650Y-64508D02*
Y-74950D01*
X164092D01*
X163852Y-73131D01*
X162668Y-70272D01*
X160784Y-67816D01*
X158328Y-65932D01*
X155469Y-64748D01*
X153650Y-64508D01*
D02*
G37*
G36*
X152400Y-38944D02*
X149331Y-39348D01*
X146472Y-40532D01*
X144016Y-42416D01*
X142132Y-44872D01*
X140947Y-47731D01*
X140543Y-50800D01*
X140947Y-53869D01*
X142132Y-56728D01*
X144016Y-59184D01*
X146472Y-61068D01*
X149331Y-62253D01*
X152400Y-62657D01*
X155469Y-62253D01*
X158328Y-61068D01*
X160784Y-59184D01*
X162668Y-56728D01*
X163852Y-53869D01*
X164256Y-50800D01*
X163852Y-47731D01*
X162668Y-44872D01*
X160784Y-42416D01*
X158328Y-40532D01*
X155469Y-39348D01*
X152400Y-38944D01*
D02*
G37*
G36*
X151150Y-64508D02*
X149331Y-64748D01*
X146472Y-65932D01*
X144016Y-67816D01*
X142132Y-70272D01*
X140947Y-73131D01*
X140708Y-74950D01*
X151150D01*
Y-64508D01*
D02*
G37*
G36*
X127000Y-140544D02*
X123931Y-140948D01*
X121072Y-142132D01*
X118616Y-144016D01*
X116732Y-146472D01*
X115547Y-149332D01*
X115143Y-152400D01*
X115547Y-155469D01*
X116732Y-158328D01*
X118616Y-160784D01*
X121072Y-162668D01*
X123931Y-163853D01*
X127000Y-164257D01*
X130069Y-163853D01*
X132928Y-162668D01*
X135384Y-160784D01*
X137268Y-158328D01*
X138452Y-155469D01*
X138856Y-152400D01*
X138452Y-149332D01*
X137268Y-146472D01*
X135384Y-144016D01*
X132928Y-142132D01*
X130069Y-140948D01*
X127000Y-140544D01*
D02*
G37*
G36*
X151150Y-166108D02*
X149331Y-166348D01*
X146472Y-167532D01*
X144016Y-169416D01*
X142132Y-171872D01*
X140947Y-174732D01*
X140708Y-176550D01*
X151150D01*
Y-166108D01*
D02*
G37*
G36*
X153650D02*
Y-176550D01*
X164092D01*
X163852Y-174732D01*
X162668Y-171872D01*
X160784Y-169416D01*
X158328Y-167532D01*
X155469Y-166348D01*
X153650Y-166108D01*
D02*
G37*
G36*
X151150Y-77450D02*
X140708D01*
X140947Y-79269D01*
X142132Y-82128D01*
X144016Y-84584D01*
X146472Y-86468D01*
X149331Y-87653D01*
X151150Y-87892D01*
Y-77450D01*
D02*
G37*
G36*
X164092D02*
X153650D01*
Y-87892D01*
X155469Y-87653D01*
X158328Y-86468D01*
X160784Y-84584D01*
X162668Y-82128D01*
X163852Y-79269D01*
X164092Y-77450D01*
D02*
G37*
G36*
X152400Y-89744D02*
X149331Y-90148D01*
X146472Y-91332D01*
X144016Y-93216D01*
X142132Y-95672D01*
X140947Y-98532D01*
X140543Y-101600D01*
X140947Y-104669D01*
X142132Y-107528D01*
X144016Y-109984D01*
X146472Y-111868D01*
X149331Y-113053D01*
X152400Y-113457D01*
X155469Y-113053D01*
X158328Y-111868D01*
X160784Y-109984D01*
X162668Y-107528D01*
X163852Y-104669D01*
X164256Y-101600D01*
X163852Y-98532D01*
X162668Y-95672D01*
X160784Y-93216D01*
X158328Y-91332D01*
X155469Y-90148D01*
X152400Y-89744D01*
D02*
G37*
G36*
X164092Y-26650D02*
X153650D01*
Y-37092D01*
X155469Y-36853D01*
X158328Y-35668D01*
X160784Y-33784D01*
X162668Y-31328D01*
X163852Y-28469D01*
X164092Y-26650D01*
D02*
G37*
G36*
X153650Y-13708D02*
Y-24150D01*
X164092D01*
X163852Y-22332D01*
X162668Y-19472D01*
X160784Y-17016D01*
X158328Y-15132D01*
X155469Y-13948D01*
X153650Y-13708D01*
D02*
G37*
G36*
X151150D02*
X149331Y-13948D01*
X146472Y-15132D01*
X144016Y-17016D01*
X142132Y-19472D01*
X140947Y-22332D01*
X140708Y-24150D01*
X151150D01*
Y-13708D01*
D02*
G37*
G36*
X-153650Y-64508D02*
X-155469Y-64748D01*
X-158328Y-65932D01*
X-160784Y-67816D01*
X-162668Y-70272D01*
X-163853Y-73131D01*
X-164092Y-74950D01*
X-153650D01*
Y-64508D01*
D02*
G37*
G36*
X-288450Y-77450D02*
X-297200D01*
Y-84700D01*
X-288450D01*
Y-77450D01*
D02*
G37*
G36*
X-299700D02*
X-308450D01*
Y-84700D01*
X-299700D01*
Y-77450D01*
D02*
G37*
G36*
X-288450Y-87200D02*
X-297200D01*
Y-94450D01*
X-288450D01*
Y-87200D01*
D02*
G37*
G36*
X-299700D02*
X-308450D01*
Y-94450D01*
X-299700D01*
Y-87200D01*
D02*
G37*
G36*
X-179050Y87892D02*
X-180869Y87652D01*
X-183728Y86468D01*
X-186184Y84584D01*
X-188068Y82128D01*
X-189253Y79268D01*
X-189492Y77450D01*
X-179050D01*
Y87892D01*
D02*
G37*
G36*
X-50750Y-1694D02*
X-52447Y-1917D01*
X-54028Y-2572D01*
X-55386Y-3614D01*
X-56428Y-4972D01*
X-57083Y-6553D01*
X-57306Y-8250D01*
X-57083Y-9947D01*
X-56428Y-11528D01*
X-55386Y-12886D01*
X-54028Y-13928D01*
X-52447Y-14583D01*
X-50750Y-14806D01*
X-50690Y-14798D01*
X-40088Y-25401D01*
Y-30578D01*
X-40136Y-30614D01*
X-41178Y-31972D01*
X-41833Y-33553D01*
X-42056Y-35250D01*
X-41833Y-36947D01*
X-41178Y-38528D01*
X-40136Y-39886D01*
X-38778Y-40928D01*
X-37197Y-41583D01*
X-35500Y-41806D01*
X-33803Y-41583D01*
X-32222Y-40928D01*
X-30864Y-39886D01*
X-29822Y-38528D01*
X-29167Y-36947D01*
X-28944Y-35250D01*
X-29167Y-33553D01*
X-29822Y-31972D01*
X-30864Y-30614D01*
X-30912Y-30578D01*
Y-23500D01*
X-31261Y-21744D01*
X-32256Y-20256D01*
X-44202Y-8310D01*
X-44194Y-8250D01*
X-44417Y-6553D01*
X-45072Y-4972D01*
X-46114Y-3614D01*
X-47472Y-2572D01*
X-49053Y-1917D01*
X-50750Y-1694D01*
D02*
G37*
G36*
X-65000Y-16444D02*
X-66697Y-16667D01*
X-68278Y-17322D01*
X-69636Y-18364D01*
X-70678Y-19722D01*
X-71333Y-21303D01*
X-71556Y-23000D01*
X-71333Y-24697D01*
X-70678Y-26278D01*
X-69636Y-27636D01*
X-68278Y-28678D01*
X-66697Y-29333D01*
X-65000Y-29556D01*
X-63303Y-29333D01*
X-61722Y-28678D01*
X-60364Y-27636D01*
X-59322Y-26278D01*
X-58667Y-24697D01*
X-58444Y-23000D01*
X-58667Y-21303D01*
X-59322Y-19722D01*
X-60364Y-18364D01*
X-61722Y-17322D01*
X-63303Y-16667D01*
X-65000Y-16444D01*
D02*
G37*
G36*
X80400Y-44694D02*
X78703Y-44917D01*
X77122Y-45572D01*
X75764Y-46614D01*
X74722Y-47972D01*
X74067Y-49553D01*
X73844Y-51250D01*
X74067Y-52947D01*
X74722Y-54528D01*
X75764Y-55886D01*
X77122Y-56928D01*
X78703Y-57583D01*
X80400Y-57806D01*
X82097Y-57583D01*
X83678Y-56928D01*
X85036Y-55886D01*
X86078Y-54528D01*
X86733Y-52947D01*
X86956Y-51250D01*
X86733Y-49553D01*
X86078Y-47972D01*
X85036Y-46614D01*
X83678Y-45572D01*
X82097Y-44917D01*
X80400Y-44694D01*
D02*
G37*
G36*
X80500Y-22194D02*
X78803Y-22417D01*
X77222Y-23072D01*
X75864Y-24114D01*
X74822Y-25472D01*
X74167Y-27053D01*
X73944Y-28750D01*
X74167Y-30447D01*
X74822Y-32028D01*
X75864Y-33386D01*
X77222Y-34428D01*
X78803Y-35083D01*
X80500Y-35306D01*
X81665Y-35152D01*
X81671Y-35199D01*
X82326Y-36780D01*
X83368Y-38138D01*
X84726Y-39179D01*
X86307Y-39834D01*
X88002Y-40058D01*
X87944Y-40500D01*
X88167Y-42197D01*
X88822Y-43778D01*
X89864Y-45136D01*
X91222Y-46178D01*
X92803Y-46833D01*
X94500Y-47056D01*
X96197Y-46833D01*
X97778Y-46178D01*
X99136Y-45136D01*
X100178Y-43778D01*
X100833Y-42197D01*
X101056Y-40500D01*
X100833Y-38803D01*
X100178Y-37222D01*
X99136Y-35864D01*
X97778Y-34822D01*
X96197Y-34167D01*
X94502Y-33944D01*
X94560Y-33502D01*
X94337Y-31805D01*
X93682Y-30224D01*
X92640Y-28866D01*
X91282Y-27824D01*
X89701Y-27169D01*
X88004Y-26946D01*
X86839Y-27099D01*
X86833Y-27053D01*
X86178Y-25472D01*
X85136Y-24114D01*
X83778Y-23072D01*
X82197Y-22417D01*
X80500Y-22194D01*
D02*
G37*
G36*
X58750Y-39444D02*
X57053Y-39667D01*
X55472Y-40322D01*
X54114Y-41364D01*
X53072Y-42722D01*
X52417Y-44303D01*
X52194Y-46000D01*
X52417Y-47697D01*
X52564Y-48051D01*
X51750Y-47944D01*
X50053Y-48167D01*
X48472Y-48822D01*
X47114Y-49864D01*
X46072Y-51222D01*
X45417Y-52803D01*
X45194Y-54500D01*
X45417Y-56197D01*
X46072Y-57778D01*
X47114Y-59136D01*
X48472Y-60178D01*
X50053Y-60833D01*
X51750Y-61056D01*
X53447Y-60833D01*
X55028Y-60178D01*
X56386Y-59136D01*
X57428Y-57778D01*
X58082Y-56197D01*
X58306Y-54500D01*
X58082Y-52803D01*
X57936Y-52449D01*
X58750Y-52556D01*
X60447Y-52333D01*
X62028Y-51678D01*
X63386Y-50636D01*
X64428Y-49278D01*
X65083Y-47697D01*
X65306Y-46000D01*
X65083Y-44303D01*
X64428Y-42722D01*
X63386Y-41364D01*
X62028Y-40322D01*
X60447Y-39667D01*
X58750Y-39444D01*
D02*
G37*
G36*
X93750Y9306D02*
X92053Y9083D01*
X90472Y8428D01*
X89114Y7386D01*
X88073Y6028D01*
X87417Y4447D01*
X87194Y2750D01*
X87417Y1053D01*
X88073Y-528D01*
X89114Y-1886D01*
X90472Y-2928D01*
X92053Y-3582D01*
X93750Y-3806D01*
X95447Y-3582D01*
X97028Y-2928D01*
X98386Y-1886D01*
X99428Y-528D01*
X100083Y1053D01*
X100306Y2750D01*
X100083Y4447D01*
X99428Y6028D01*
X98386Y7386D01*
X97028Y8428D01*
X95447Y9083D01*
X93750Y9306D01*
D02*
G37*
G36*
X62492Y151150D02*
X52050D01*
Y140708D01*
X53868Y140947D01*
X56728Y142132D01*
X59184Y144016D01*
X61068Y146472D01*
X62252Y149331D01*
X62492Y151150D01*
D02*
G37*
G36*
X49550Y164092D02*
X47731Y163852D01*
X44872Y162668D01*
X42416Y160784D01*
X40532Y158328D01*
X39347Y155469D01*
X39108Y153650D01*
X49550D01*
Y164092D01*
D02*
G37*
G36*
X52050D02*
Y153650D01*
X62492D01*
X62252Y155469D01*
X61068Y158328D01*
X59184Y160784D01*
X56728Y162668D01*
X53868Y163852D01*
X52050Y164092D01*
D02*
G37*
G36*
X49550Y151150D02*
X39108D01*
X39347Y149331D01*
X40532Y146472D01*
X42416Y144016D01*
X44872Y142132D01*
X47731Y140947D01*
X49550Y140708D01*
Y151150D01*
D02*
G37*
G36*
X152400Y138856D02*
X149331Y138452D01*
X146472Y137268D01*
X144016Y135384D01*
X142132Y132928D01*
X140947Y130069D01*
X140543Y127000D01*
X140769Y125285D01*
X139447Y125833D01*
X137750Y126056D01*
X136053Y125833D01*
X134472Y125178D01*
X133114Y124136D01*
X132072Y122778D01*
X131417Y121197D01*
X131194Y119500D01*
X131417Y117803D01*
X132072Y116222D01*
X133114Y114864D01*
X134472Y113822D01*
X136053Y113168D01*
X137750Y112944D01*
X139447Y113168D01*
X141028Y113822D01*
X142386Y114864D01*
X143428Y116222D01*
X144083Y117803D01*
X144174Y118495D01*
X146472Y116732D01*
X149331Y115547D01*
X152400Y115143D01*
X155469Y115547D01*
X158328Y116732D01*
X160784Y118616D01*
X162668Y121072D01*
X163852Y123931D01*
X164256Y127000D01*
X163852Y130069D01*
X162668Y132928D01*
X160784Y135384D01*
X158328Y137268D01*
X155469Y138452D01*
X152400Y138856D01*
D02*
G37*
G36*
X127000Y164256D02*
X123931Y163852D01*
X121072Y162668D01*
X118616Y160784D01*
X116732Y158328D01*
X115547Y155469D01*
X115143Y152400D01*
X115547Y149331D01*
X116732Y146472D01*
X118616Y144016D01*
X121072Y142132D01*
X123931Y140947D01*
X127000Y140543D01*
X130069Y140947D01*
X132928Y142132D01*
X135384Y144016D01*
X137268Y146472D01*
X138452Y149331D01*
X138856Y152400D01*
X138452Y155469D01*
X137268Y158328D01*
X135384Y160784D01*
X132928Y162668D01*
X130069Y163852D01*
X127000Y164256D01*
D02*
G37*
G36*
X152400D02*
X149331Y163852D01*
X146472Y162668D01*
X144016Y160784D01*
X142132Y158328D01*
X140947Y155469D01*
X140543Y152400D01*
X140947Y149331D01*
X142132Y146472D01*
X144016Y144016D01*
X146472Y142132D01*
X149331Y140947D01*
X152400Y140543D01*
X155469Y140947D01*
X158328Y142132D01*
X160784Y144016D01*
X162668Y146472D01*
X163852Y149331D01*
X164256Y152400D01*
X163852Y155469D01*
X162668Y158328D01*
X160784Y160784D01*
X158328Y162668D01*
X155469Y163852D01*
X152400Y164256D01*
D02*
G37*
G36*
X-266173Y106700D02*
X-274340D01*
Y98532D01*
X-273110Y98694D01*
X-270799Y99652D01*
X-268815Y101174D01*
X-267292Y103159D01*
X-266335Y105470D01*
X-266173Y106700D01*
D02*
G37*
G36*
X-276840Y117367D02*
X-278070Y117205D01*
X-280381Y116248D01*
X-282366Y114725D01*
X-283888Y112741D01*
X-284846Y110430D01*
X-285008Y109200D01*
X-276840D01*
Y117367D01*
D02*
G37*
G36*
X-274340D02*
Y109200D01*
X-266173D01*
X-266335Y110430D01*
X-267292Y112741D01*
X-268815Y114725D01*
X-270799Y116248D01*
X-273110Y117205D01*
X-274340Y117367D01*
D02*
G37*
G36*
X-276840Y106700D02*
X-285008D01*
X-284846Y105470D01*
X-283888Y103159D01*
X-282366Y101174D01*
X-280381Y99652D01*
X-278070Y98694D01*
X-276840Y98532D01*
Y106700D01*
D02*
G37*
G36*
X-326390Y117532D02*
X-328870Y117205D01*
X-331181Y116248D01*
X-333166Y114725D01*
X-334688Y112741D01*
X-335646Y110430D01*
X-335972Y107950D01*
X-335646Y105470D01*
X-334688Y103159D01*
X-333166Y101174D01*
X-331181Y99652D01*
X-328870Y98694D01*
X-326390Y98368D01*
X-323910Y98694D01*
X-321599Y99652D01*
X-319615Y101174D01*
X-318092Y103159D01*
X-317135Y105470D01*
X-316808Y107950D01*
X-317135Y110430D01*
X-318092Y112741D01*
X-319615Y114725D01*
X-321599Y116248D01*
X-323910Y117205D01*
X-326390Y117532D01*
D02*
G37*
G36*
X-300990D02*
X-303470Y117205D01*
X-305781Y116248D01*
X-307766Y114725D01*
X-309288Y112741D01*
X-310246Y110430D01*
X-310572Y107950D01*
X-310246Y105470D01*
X-309288Y103159D01*
X-307766Y101174D01*
X-305781Y99652D01*
X-303470Y98694D01*
X-300990Y98368D01*
X-298510Y98694D01*
X-296199Y99652D01*
X-294215Y101174D01*
X-292692Y103159D01*
X-291735Y105470D01*
X-291408Y107950D01*
X-291735Y110430D01*
X-292692Y112741D01*
X-294215Y114725D01*
X-296199Y116248D01*
X-298510Y117205D01*
X-300990Y117532D01*
D02*
G37*
G36*
X-351790Y15932D02*
X-354270Y15605D01*
X-356581Y14648D01*
X-358566Y13125D01*
X-360088Y11141D01*
X-361046Y8830D01*
X-361372Y6350D01*
X-361046Y3870D01*
X-360088Y1559D01*
X-358566Y-426D01*
X-356581Y-1948D01*
X-354270Y-2906D01*
X-351790Y-3232D01*
X-349310Y-2906D01*
X-346999Y-1948D01*
X-345015Y-426D01*
X-343492Y1559D01*
X-342535Y3870D01*
X-342208Y6350D01*
X-342535Y8830D01*
X-343492Y11141D01*
X-345015Y13125D01*
X-346999Y14648D01*
X-349310Y15605D01*
X-351790Y15932D01*
D02*
G37*
G36*
Y41332D02*
X-354270Y41005D01*
X-356581Y40048D01*
X-358566Y38525D01*
X-360088Y36541D01*
X-361046Y34230D01*
X-361372Y31750D01*
X-361046Y29270D01*
X-360088Y26959D01*
X-358566Y24974D01*
X-356581Y23452D01*
X-354270Y22494D01*
X-351790Y22168D01*
X-349310Y22494D01*
X-346999Y23452D01*
X-345015Y24974D01*
X-343492Y26959D01*
X-342535Y29270D01*
X-342208Y31750D01*
X-342535Y34230D01*
X-343492Y36541D01*
X-345015Y38525D01*
X-346999Y40048D01*
X-349310Y41005D01*
X-351790Y41332D01*
D02*
G37*
G36*
Y-9468D02*
X-354270Y-9795D01*
X-356581Y-10752D01*
X-358566Y-12275D01*
X-360088Y-14259D01*
X-361046Y-16570D01*
X-361372Y-19050D01*
X-361046Y-21530D01*
X-360088Y-23841D01*
X-358566Y-25826D01*
X-356581Y-27348D01*
X-354270Y-28306D01*
X-351790Y-28632D01*
X-349310Y-28306D01*
X-346999Y-27348D01*
X-345015Y-25826D01*
X-343492Y-23841D01*
X-342535Y-21530D01*
X-342208Y-19050D01*
X-342535Y-16570D01*
X-343492Y-14259D01*
X-345015Y-12275D01*
X-346999Y-10752D01*
X-349310Y-9795D01*
X-351790Y-9468D01*
D02*
G37*
G36*
X-326390Y92132D02*
X-328870Y91805D01*
X-331181Y90848D01*
X-333166Y89325D01*
X-334688Y87341D01*
X-335646Y85030D01*
X-335972Y82550D01*
X-335646Y80070D01*
X-334688Y77759D01*
X-333166Y75774D01*
X-331181Y74252D01*
X-328870Y73294D01*
X-326390Y72968D01*
X-323910Y73294D01*
X-321599Y74252D01*
X-319615Y75774D01*
X-318092Y77759D01*
X-317135Y80070D01*
X-316808Y82550D01*
X-317135Y85030D01*
X-318092Y87341D01*
X-319615Y89325D01*
X-321599Y90848D01*
X-323910Y91805D01*
X-326390Y92132D01*
D02*
G37*
G36*
X-300990D02*
X-303470Y91805D01*
X-305781Y90848D01*
X-307766Y89325D01*
X-309288Y87341D01*
X-310246Y85030D01*
X-310572Y82550D01*
X-310246Y80070D01*
X-309288Y77759D01*
X-307766Y75774D01*
X-305781Y74252D01*
X-303470Y73294D01*
X-300990Y72968D01*
X-298510Y73294D01*
X-296199Y74252D01*
X-294215Y75774D01*
X-292692Y77759D01*
X-291735Y80070D01*
X-291408Y82550D01*
X-291735Y85030D01*
X-292692Y87341D01*
X-294215Y89325D01*
X-296199Y90848D01*
X-298510Y91805D01*
X-300990Y92132D01*
D02*
G37*
G36*
X-275590D02*
X-278070Y91805D01*
X-280381Y90848D01*
X-282366Y89325D01*
X-283888Y87341D01*
X-284846Y85030D01*
X-285172Y82550D01*
X-284846Y80070D01*
X-283888Y77759D01*
X-282366Y75774D01*
X-280381Y74252D01*
X-278070Y73294D01*
X-275590Y72968D01*
X-273110Y73294D01*
X-270799Y74252D01*
X-268815Y75774D01*
X-267292Y77759D01*
X-266335Y80070D01*
X-266008Y82550D01*
X-266335Y85030D01*
X-267292Y87341D01*
X-268815Y89325D01*
X-270799Y90848D01*
X-273110Y91805D01*
X-275590Y92132D01*
D02*
G37*
G36*
X-351790D02*
X-354270Y91805D01*
X-356581Y90848D01*
X-358566Y89325D01*
X-360088Y87341D01*
X-361046Y85030D01*
X-361372Y82550D01*
X-361046Y80070D01*
X-360088Y77759D01*
X-358566Y75774D01*
X-356581Y74252D01*
X-354270Y73294D01*
X-351790Y72968D01*
X-349310Y73294D01*
X-346999Y74252D01*
X-345015Y75774D01*
X-343492Y77759D01*
X-342535Y80070D01*
X-342208Y82550D01*
X-342535Y85030D01*
X-343492Y87341D01*
X-345015Y89325D01*
X-346999Y90848D01*
X-349310Y91805D01*
X-351790Y92132D01*
D02*
G37*
G36*
X-326390Y41332D02*
X-328870Y41005D01*
X-331181Y40048D01*
X-333166Y38525D01*
X-334688Y36541D01*
X-335646Y34230D01*
X-335972Y31750D01*
X-335646Y29270D01*
X-334688Y26959D01*
X-333166Y24974D01*
X-331181Y23452D01*
X-328870Y22494D01*
X-326390Y22168D01*
X-323910Y22494D01*
X-321599Y23452D01*
X-319615Y24974D01*
X-318092Y26959D01*
X-317135Y29270D01*
X-316808Y31750D01*
X-317135Y34230D01*
X-318092Y36541D01*
X-319615Y38525D01*
X-321599Y40048D01*
X-323910Y41005D01*
X-326390Y41332D01*
D02*
G37*
G36*
X-351790Y66732D02*
X-354270Y66405D01*
X-356581Y65448D01*
X-358566Y63925D01*
X-360088Y61941D01*
X-361046Y59630D01*
X-361372Y57150D01*
X-361046Y54670D01*
X-360088Y52359D01*
X-358566Y50374D01*
X-356581Y48852D01*
X-354270Y47894D01*
X-351790Y47568D01*
X-349310Y47894D01*
X-346999Y48852D01*
X-345015Y50374D01*
X-343492Y52359D01*
X-342535Y54670D01*
X-342208Y57150D01*
X-342535Y59630D01*
X-343492Y61941D01*
X-345015Y63925D01*
X-346999Y65448D01*
X-349310Y66405D01*
X-351790Y66732D01*
D02*
G37*
G36*
X-326390D02*
X-328870Y66405D01*
X-331181Y65448D01*
X-333166Y63925D01*
X-334688Y61941D01*
X-335646Y59630D01*
X-335972Y57150D01*
X-335646Y54670D01*
X-334688Y52359D01*
X-333166Y50374D01*
X-331181Y48852D01*
X-328870Y47894D01*
X-326390Y47568D01*
X-323910Y47894D01*
X-321599Y48852D01*
X-319615Y50374D01*
X-318092Y52359D01*
X-317135Y54670D01*
X-316808Y57150D01*
X-317135Y59630D01*
X-318092Y61941D01*
X-319615Y63925D01*
X-321599Y65448D01*
X-323910Y66405D01*
X-326390Y66732D01*
D02*
G37*
%LPD*%
D10*
X-298450Y-66450D02*
D03*
Y-85950D02*
D03*
D15*
X-312750Y-114500D02*
X-171750D01*
X-338000Y-89250D02*
X-312750Y-114500D01*
X-338000Y-89250D02*
Y-38000D01*
X-60000Y-15000D02*
X-60000Y-15000D01*
X-97000Y-15000D02*
X-60000D01*
X-35500Y-35250D02*
Y-23500D01*
X-50750Y-8250D02*
X-35500Y-23500D01*
X-12500Y101250D02*
X-11500Y100250D01*
X-12500Y101250D02*
Y114500D01*
X-2500Y97500D02*
Y114500D01*
X-3000Y97000D02*
X-2500Y97500D01*
X91500Y-52000D02*
X99500Y-60000D01*
X117000D01*
X-144000Y-13000D02*
X-139250Y-17750D01*
Y-22500D02*
Y-17750D01*
Y-22500D02*
X-126750Y-35000D01*
X-150000Y-0D02*
X-134750Y-15250D01*
Y-20250D02*
Y-15250D01*
Y-20250D02*
X-125000Y-30000D01*
X-164800Y-13000D02*
X-144000D01*
X-152400Y-0D02*
X-150000D01*
X-126750Y-35000D02*
X-124500D01*
X-125000Y-30000D02*
X-122400D01*
X-124500Y-35000D02*
X-97000D01*
X-69500Y50000D02*
X-51000Y31500D01*
X-53250Y-126250D02*
X-30250D01*
X-12750Y-158500D02*
Y-143750D01*
X-30250Y-126250D02*
X-12750Y-143750D01*
Y-158500D02*
X-6250Y-165000D01*
X12600D01*
X25400Y-177800D01*
X-7500Y-111750D02*
X500Y-119750D01*
X-7500Y-111750D02*
Y-99500D01*
X500Y-119750D02*
X28750D01*
X-72250Y-4250D02*
Y22250D01*
X-72250Y-4250D02*
X-72250Y-4250D01*
Y22250D02*
Y30000D01*
X-83000Y11750D02*
Y21699D01*
X-85900Y24599D02*
X-83000Y21699D01*
X-85900Y24599D02*
Y24650D01*
X-86250Y25000D02*
X-85900Y24650D01*
X-47500Y-99500D02*
Y-77500D01*
X-49500Y-75500D02*
X-47500Y-77500D01*
X-49500Y-75500D02*
Y-62750D01*
X-52500Y-99500D02*
Y-87250D01*
X-54750Y-85000D02*
X-52500Y-87250D01*
X-54750Y-85000D02*
Y-60250D01*
X39000Y62750D02*
X62250D01*
X28500Y52250D02*
X39000Y62750D01*
X28500Y36750D02*
Y52250D01*
X-5750Y2500D02*
X28500Y36750D01*
X-5750Y-26500D02*
Y2500D01*
X-32250Y-53000D02*
X-5750Y-26500D01*
X-47500Y-53000D02*
X-32250D01*
X-54750Y-60250D02*
X-47500Y-53000D01*
X-500Y500D02*
X35750Y36750D01*
X-500Y-28750D02*
Y500D01*
X-30000Y-58250D02*
X-500Y-28750D01*
X35750Y36750D02*
Y48750D01*
X7000Y-2250D02*
X9250Y-4500D01*
Y-49500D02*
Y-4500D01*
X-45000Y-58250D02*
X-30000D01*
X-49500Y-62750D02*
X-45000Y-58250D01*
X-59250Y-119250D02*
X-57500Y-117500D01*
Y-99500D01*
X38750Y-135750D02*
X53250D01*
X35950Y-132950D02*
X38750Y-135750D01*
X-8300Y-132950D02*
X35950D01*
X32850Y-137350D02*
X38000Y-142500D01*
X-11400Y-137350D02*
X32850D01*
X-5450Y-128550D02*
X41200D01*
X32350Y-124150D02*
X34750Y-121750D01*
X-2850Y-124150D02*
X32350D01*
X28750Y-119750D02*
X33500Y-115000D01*
X10500Y-112750D02*
X12500Y-110750D01*
X34750Y-121750D02*
X53500D01*
X33500Y-115000D02*
X40750D01*
X62500Y-134000D02*
X63750Y-135250D01*
X62500Y-134000D02*
Y-99500D01*
X70500Y-139500D02*
Y-130500D01*
X67500Y-127500D02*
X70500Y-130500D01*
X67500Y-127500D02*
Y-99500D01*
Y-142500D02*
X70500Y-139500D01*
X63750Y-146250D02*
X67500Y-142500D01*
X63750Y-165350D02*
Y-146250D01*
X41200Y-128550D02*
X41500Y-128250D01*
X89000Y-165200D02*
Y-120750D01*
X89000Y-120750D01*
X101600Y-152400D02*
Y-118350D01*
X96500Y-113250D02*
X101600Y-118350D01*
X83750Y-113250D02*
X96500D01*
X-32500Y-116250D02*
X-11400Y-137350D01*
X-32500Y-116250D02*
Y-99500D01*
X-27500Y-113750D02*
X-8300Y-132950D01*
X-22500Y-111500D02*
X-5450Y-128550D01*
X-17500Y-109500D02*
X-2850Y-124150D01*
X-27500Y-113750D02*
Y-99500D01*
X-22500Y-111500D02*
Y-99500D01*
X-17500Y-109500D02*
Y-99500D01*
X-103500Y-88750D02*
Y-80000D01*
X-97000D01*
X-113500Y-98750D02*
X-103500Y-88750D01*
X-81500Y-55000D02*
Y-51000D01*
X-86500Y-60000D02*
X-81500Y-55000D01*
X-97000Y-60000D02*
X-86500D01*
X-31000Y60832D02*
X-16750Y46582D01*
Y40750D02*
Y46582D01*
X-26600Y62655D02*
Y64500D01*
Y62655D02*
X-8250Y44305D01*
Y41000D02*
Y44305D01*
X-22200Y64477D02*
Y64500D01*
Y64477D02*
X750Y41528D01*
Y40750D02*
Y41528D01*
X-750Y49250D02*
X2500D01*
X-17800Y66300D02*
X-750Y49250D01*
X-17800Y66300D02*
Y81968D01*
X-53750Y56250D02*
X-38000D01*
X-97000Y65000D02*
X-62500D01*
X17500Y-110500D02*
X19500Y-112500D01*
X17500Y-110500D02*
Y-99500D01*
X12500Y-110750D02*
Y-99500D01*
X89000Y-165200D02*
X101600Y-177800D01*
X57500Y-90250D02*
X62250Y-85500D01*
X57500Y-99500D02*
Y-90250D01*
X47500Y-89750D02*
X53500Y-83750D01*
X47500Y-99500D02*
Y-89750D01*
X32500Y-84250D02*
X34250Y-82500D01*
X-42500Y-99500D02*
Y-66500D01*
X-37500Y-77500D02*
X-34000Y-74000D01*
X-37500Y-99500D02*
Y-77500D01*
X-54000Y101750D02*
X-52500Y103250D01*
Y114500D01*
X-62500Y100500D02*
X-37900Y75900D01*
X-67500Y99278D02*
X-45750Y77527D01*
X-72500Y98055D02*
X-54250Y79805D01*
X-77500Y94000D02*
X-62000Y78500D01*
X-62500Y100500D02*
Y114500D01*
X-67500Y99278D02*
Y114500D01*
X-72500Y98055D02*
Y114500D01*
X-32500Y96668D02*
X-17800Y81968D01*
X-5000Y74000D02*
X68250D01*
X-10250Y68750D02*
X-5000Y74000D01*
X-22200Y64500D02*
Y80145D01*
X-26600Y64500D02*
Y78323D01*
X-47500Y93000D02*
X-31000Y76500D01*
Y60832D02*
Y76500D01*
X-37900Y66400D02*
X-37750Y66250D01*
X-56250D02*
X-37750D01*
X-42500Y94223D02*
Y114500D01*
Y94223D02*
X-26600Y78323D01*
X-47500Y93000D02*
Y114500D01*
X-37900Y66400D02*
Y75900D01*
X-37500Y95445D02*
X-22200Y80145D01*
X-45750Y73250D02*
Y77527D01*
X-32500Y96668D02*
Y114500D01*
X-37500Y95445D02*
Y114500D01*
X-3500Y81000D02*
X4250D01*
X7500Y69250D02*
X66000D01*
X-2000Y59750D02*
X7500Y69250D01*
X-27500Y105000D02*
X-3500Y81000D01*
X-38000Y139750D02*
X-22500Y124250D01*
X-38000Y146500D02*
X-17500Y126000D01*
X-38000Y146500D02*
Y160250D01*
X-42750Y165000D02*
X-38000Y160250D01*
X-114200Y165000D02*
X-42750D01*
X-0Y170000D02*
Y177800D01*
X-12750Y157250D02*
X-0Y170000D01*
X-12750Y140000D02*
Y157250D01*
X7500Y-51250D02*
X9250Y-49500D01*
X7500Y-99500D02*
Y-51250D01*
X1500Y-45500D02*
X2500Y-46500D01*
Y-99500D02*
Y-46500D01*
X-77250Y35000D02*
X-72250Y30000D01*
X-97000Y25000D02*
X-86250D01*
X-159250Y-127000D02*
X-152400D01*
X-171750Y-114500D02*
X-159250Y-127000D01*
X-338000Y-38000D02*
X-331500Y-31500D01*
X-313440D01*
X-300990Y-19050D01*
X-326390Y6350D02*
X-302350D01*
X-288250Y-7750D01*
Y-49500D02*
Y-7750D01*
X-326390Y-86110D02*
Y-44450D01*
Y-86110D02*
X-310900Y-101600D01*
X-177800D01*
X-288250Y-49500D02*
X-282000Y-55750D01*
X-234000D01*
X-203650Y-25400D01*
X-177800D01*
X-250190Y-44450D02*
X-232200D01*
X-200500Y-12750D01*
X-172250D01*
X-159600Y-25400D01*
X-152400D01*
X-224790Y-19050D02*
X-197500Y8240D01*
Y30750D01*
X-177800Y50450D01*
Y50800D01*
X-191000Y44000D02*
Y56250D01*
X-202250Y32750D02*
X-191000Y44000D01*
X-202250Y14000D02*
Y32750D01*
X-221000Y-4750D02*
X-202250Y14000D01*
X-195750Y46500D02*
Y83650D01*
X-207250Y35000D02*
X-195750Y46500D01*
X-207250Y23890D02*
Y35000D01*
X-224790Y6350D02*
X-207250Y23890D01*
X-200250Y48500D02*
Y101250D01*
X-212000Y36750D02*
X-200250Y48500D01*
X-212000Y28250D02*
Y36750D01*
X-221500Y18750D02*
X-212000Y28250D01*
X-156550Y50800D02*
X-152400D01*
X-169000Y63250D02*
X-156550Y50800D01*
X-184000Y63250D02*
X-169000D01*
X-191000Y56250D02*
X-184000Y63250D01*
X-195750Y83650D02*
X-177800Y101600D01*
X-200250Y101250D02*
X-187000Y114500D01*
X-205000Y104250D02*
X-182250Y127000D01*
X-205000Y51540D02*
Y104250D01*
X-224790Y31750D02*
X-205000Y51540D01*
X-209850Y55900D02*
Y113400D01*
X-220750Y45000D02*
X-209850Y55900D01*
Y113400D02*
X-183750Y139500D01*
X-214250Y115950D02*
X-177800Y152400D01*
X-214250Y67690D02*
Y115950D01*
X-224790Y57150D02*
X-214250Y67690D01*
X-235890Y-4750D02*
X-221000D01*
X-250190Y-19050D02*
X-235890Y-4750D01*
X-187000Y114500D02*
X-172750D01*
X-182250Y127000D02*
X-177800D01*
X-159850Y101600D02*
X-152400D01*
X-172750Y114500D02*
X-159850Y101600D01*
X-237790Y18750D02*
X-221500D01*
X-250190Y6350D02*
X-237790Y18750D01*
X-250190Y31750D02*
X-236940Y45000D01*
X-220750D01*
X-183750Y139500D02*
X-172250D01*
X-159750Y127000D01*
X-152400D01*
X-97000Y35000D02*
X-77250D01*
X-82250Y30000D02*
X-79500Y27250D01*
X-62500Y65000D02*
X-53750Y56250D01*
X-70750Y77000D02*
Y81027D01*
X-54250Y73500D02*
Y79805D01*
X-60000Y70000D02*
X-56250Y66250D01*
X-97000Y70000D02*
X-60000D01*
X-64500Y60000D02*
X-52250Y47750D01*
X-97000Y60000D02*
X-64500D01*
X-67250Y55000D02*
X-51250Y39000D01*
X-97000Y55000D02*
X-67250D01*
X-97000Y50000D02*
X-69500D01*
X-72900Y44900D02*
X-57400Y29400D01*
X-96901Y44900D02*
X-72900D01*
X-75000Y40000D02*
X-64250Y29250D01*
X-97000Y40000D02*
X-75000D01*
X-80000Y77000D02*
Y84055D01*
X-85945Y90000D02*
X-80000Y84055D01*
X-64250Y16750D02*
Y29250D01*
X-111750Y71250D02*
X-108000Y75000D01*
X-119500Y69750D02*
X-109750Y60000D01*
X-114500Y22308D02*
Y57750D01*
X-124250Y67500D02*
X-114500Y57750D01*
X-119000Y20585D02*
Y55250D01*
X-129250Y65500D02*
X-119000Y55250D01*
X-123500Y18862D02*
Y53500D01*
X-133750Y63750D02*
X-123500Y53500D01*
X-119500Y69750D02*
Y112750D01*
X-124250Y67500D02*
Y99472D01*
X-129250Y65500D02*
Y98250D01*
X-133750Y63750D02*
Y82950D01*
X-113000Y81500D02*
X-111500Y80000D01*
X-112500Y90750D02*
Y95250D01*
Y90750D02*
X-106750Y85000D01*
X-97000D01*
X-84722Y95000D02*
X-70750Y81027D01*
X-57400Y23400D02*
X-57000Y23000D01*
X-111500Y80000D02*
X-97000D01*
X-108000Y75000D02*
X-97000D01*
Y90000D02*
X-85945D01*
X-97000Y95000D02*
X-84722D01*
X-77500Y94000D02*
Y114500D01*
X-52250Y47750D02*
X-41500D01*
X-51250Y39000D02*
X-45000D01*
X-97000Y45000D02*
X-96901Y44900D01*
X-57400Y23400D02*
Y29400D01*
X-146500Y139750D02*
X-119500Y112750D01*
X-109750Y23780D02*
Y60000D01*
X-151777Y127000D02*
X-124250Y99472D01*
X-145250Y114250D02*
X-129250Y98250D01*
X-152400Y101600D02*
X-133750Y82950D01*
X32500Y100250D02*
Y114500D01*
X-57500D02*
Y128500D01*
X-57250Y128750D01*
X-193450Y-66450D02*
X-177800Y-50800D01*
X-298450Y-66450D02*
X-193450D01*
X-300990Y-63910D02*
X-298450Y-66450D01*
X-300990Y-63910D02*
Y-44450D01*
X77500Y-99500D02*
Y-85500D01*
X-12500Y-99500D02*
Y-87000D01*
X-9750Y-84250D01*
X-5750D01*
X-97000Y30000D02*
X-82250D01*
X57500Y103250D02*
Y114500D01*
Y103250D02*
X60250Y100500D01*
X63500D01*
X52500Y98750D02*
Y114500D01*
Y98750D02*
X56500Y94750D01*
X47500Y91250D02*
Y114500D01*
Y91250D02*
X49750Y89000D01*
X160750Y12500D02*
X165250Y17000D01*
Y38250D01*
X177800Y50800D01*
X139750Y32750D02*
X145000Y38000D01*
X157750D01*
X165250Y45500D01*
Y63349D01*
X152400Y76200D02*
X165250Y63349D01*
X117000Y15000D02*
X130750D01*
X134750Y19000D01*
Y78500D01*
X145250Y89000D01*
X161000D01*
X165250Y93250D01*
Y114450D01*
X177800Y127000D01*
X117000Y20000D02*
X128250D01*
X130000Y21750D01*
X117000Y10000D02*
X133250D01*
X139750Y16500D01*
Y32750D01*
X117000Y5000D02*
X135750D01*
X143250Y12500D01*
X160750D01*
X42500Y114500D02*
Y126250D01*
X44750Y128500D01*
X77500Y97500D02*
Y114500D01*
Y97500D02*
X79250Y95750D01*
X42000Y55000D02*
X117000D01*
X35750Y48750D02*
X42000Y55000D01*
X65000Y60000D02*
X117000D01*
X62250Y62750D02*
X65000Y60000D01*
X50000Y46250D02*
X83000D01*
X88250Y41000D01*
X93750Y48000D02*
X95751Y50000D01*
X117000D01*
X88250Y41000D02*
X96500D01*
X100500Y45000D01*
X117000D01*
X93250Y34500D02*
X97500D01*
X103000Y40000D01*
X117000D01*
X104750Y35000D02*
X117000D01*
X107000Y30000D02*
X117000D01*
X101250Y24250D02*
X107000Y30000D01*
X101250Y18250D02*
Y24250D01*
X95000Y25250D02*
X104750Y35000D01*
X93250Y25250D02*
X95000D01*
X70250Y65000D02*
X117000D01*
X66000Y69250D02*
X70250Y65000D01*
X72250Y70000D02*
X117000D01*
X68250Y74000D02*
X72250Y70000D01*
X27500Y114500D02*
Y128750D01*
X3850Y152400D02*
X27500Y128750D01*
X-0Y152400D02*
X3850D01*
X22500Y114500D02*
Y126000D01*
X10500Y138000D02*
X22500Y126000D01*
X-17500Y114500D02*
Y126000D01*
X-127000Y177800D02*
X-114200Y165000D01*
X-22500Y114500D02*
Y124250D01*
X-127000Y152400D02*
X-114351Y139750D01*
X130000Y21750D02*
Y85250D01*
X137500Y92750D01*
X97500Y-99500D02*
Y-94000D01*
X103500Y-88000D01*
X101500Y75000D02*
Y88500D01*
Y75000D02*
X117000D01*
X74750D02*
X101500D01*
X70750Y79000D02*
X74750Y75000D01*
X48750Y79000D02*
X70750D01*
X32500Y95250D02*
X48750Y79000D01*
X32500Y95250D02*
Y100250D01*
X-152400Y-152400D02*
X-117500Y-117500D01*
X-177800Y-152400D02*
X-165150Y-139750D01*
X-146500D01*
X-119000Y-112250D01*
X-74500Y-86750D02*
X-72500Y-88750D01*
Y-99500D02*
Y-88750D01*
X-152400Y-177800D02*
X-139500Y-164900D01*
Y-146750D01*
X-115250Y-122500D01*
X-80500D01*
X-67500Y-109500D01*
Y-99500D01*
X-117500Y-117500D02*
X-84750D01*
X-77500Y-110250D01*
Y-99500D01*
X-119000Y-112250D02*
X-89750D01*
X-85000Y-107500D01*
Y-89000D01*
X-82750Y-86750D01*
X-74500D01*
X-152400Y-127000D02*
X-110000Y-84600D01*
Y-77500D01*
X-107500Y-75000D01*
X-97000D01*
X-177800Y-101600D02*
X-165151Y-114250D01*
X-147000D01*
X-115000Y-82250D01*
Y-75750D01*
X-109250Y-70000D01*
X-97000D01*
X-152400Y-101600D02*
X-115800Y-65000D01*
X-97000D01*
X-177800Y-76200D02*
X-165250Y-88750D01*
X-146500D01*
X-112750Y-55000D01*
X-97000D01*
X-152400Y-50800D02*
X-151600Y-50000D01*
X-97000D01*
X-177800Y-25400D02*
X-165200Y-38000D01*
X-144500D01*
X-137500Y-45000D01*
X-97000D01*
X-152400Y-25400D02*
X-149350D01*
X-134750Y-40000D01*
X-97000D01*
X-177800Y-0D02*
X-164800Y-13000D01*
X-122400Y-30000D02*
X-97000D01*
X-177800Y25400D02*
X-164900Y12500D01*
X-177800Y50800D02*
X-165000Y38000D01*
X-160000Y63500D02*
X-148000D01*
X-165000Y68500D02*
X-160000Y63500D01*
X-165000Y68500D02*
Y88800D01*
X-177800Y101600D02*
X-165000Y88800D01*
X-165050Y114250D02*
X-145250D01*
X-177800Y127000D02*
X-165050Y114250D01*
X-110750Y-25000D02*
X-97000D01*
X-109528Y-20000D02*
X-97000D01*
X-152400Y22873D02*
Y25400D01*
X-113305Y-10000D02*
X-97000D01*
X-112083Y-5000D02*
X-97000D01*
X-110860Y-0D02*
X-97000D01*
X-109637Y5000D02*
X-97000D01*
X-108414Y10000D02*
X-97000D01*
X-107192Y15000D02*
X-97000D01*
X-152400Y127000D02*
X-151777D01*
X-164900Y12500D02*
X-148250D01*
X-110750Y-25000D01*
X-152400Y22873D02*
X-109528Y-20000D01*
X-165151Y139750D02*
X-146500D01*
X-177800Y152400D02*
X-165151Y139750D01*
X-114500Y22308D02*
X-107192Y15000D01*
X-119000Y20585D02*
X-108414Y10000D01*
X-123500Y18862D02*
X-109637Y5000D01*
X-128250Y17390D02*
X-110860Y-0D01*
X-128250Y17390D02*
Y43750D01*
X-148000Y63500D02*
X-128250Y43750D01*
X-132650Y15568D02*
X-112083Y-5000D01*
X-137050Y13745D02*
X-113305Y-10000D01*
X-152400Y50800D02*
X-147800D01*
X-132650Y35650D01*
Y15568D02*
Y35650D01*
X-165000Y38000D02*
X-143500D01*
X-137050Y31550D01*
Y13745D02*
Y31550D01*
X-105969Y20000D02*
X-97000D01*
X-109750Y23780D02*
X-105969Y20000D01*
X-250190Y57150D02*
X-237250Y70090D01*
Y111250D01*
X-183250Y165250D01*
X-165250D01*
X-152400Y152400D01*
X-127000Y-152400D02*
X-101850Y-127250D01*
X-78000D01*
X-62500Y-111750D01*
Y-99500D01*
X12500Y99250D02*
Y114500D01*
Y99250D02*
X15250Y96500D01*
X7500Y101250D02*
Y114500D01*
X5750Y99500D02*
X7500Y101250D01*
X57500Y114500D02*
Y127250D01*
X65750Y135500D01*
X71000D01*
X7250Y138000D02*
X10500D01*
X-7500Y114500D02*
Y127000D01*
X-6000Y128500D01*
Y133250D01*
X-12750Y140000D02*
X-6000Y133250D01*
X-114351Y139750D02*
X-38000D01*
X113400Y101600D02*
X152400D01*
X105250Y109750D02*
X113400Y101600D01*
X105250Y109750D02*
Y132000D01*
X101750Y135500D02*
X105250Y132000D01*
X106000Y-15000D02*
X117000D01*
X103000Y-12000D02*
X106000Y-15000D01*
X103000Y-12000D02*
Y-8000D01*
X63750Y-165350D02*
X76200Y-177800D01*
X27500Y-99500D02*
Y-66500D01*
X22750Y-61750D02*
X27500Y-66500D01*
X22750Y-61750D02*
Y-52750D01*
X28000Y-47500D01*
Y-38250D01*
X22500Y-99500D02*
Y-69250D01*
X17500Y-64250D02*
X22500Y-69250D01*
X17500Y-64250D02*
Y-41250D01*
X37500Y-99500D02*
Y-89500D01*
X42500Y-84500D01*
X32500Y-99500D02*
Y-84250D01*
X-27500Y105000D02*
Y114500D01*
D16*
X-372110Y193040D02*
X193040D01*
Y-193040D02*
Y193040D01*
X-383540Y-193040D02*
X193040D01*
X-383540D02*
Y181610D01*
X-372110Y193040D01*
D17*
X152400Y152400D02*
D03*
Y-152400D02*
D03*
X-152400D02*
D03*
X-177800Y177800D02*
D03*
Y152400D02*
D03*
Y127000D02*
D03*
Y101600D02*
D03*
Y76200D02*
D03*
Y50800D02*
D03*
Y25400D02*
D03*
Y-0D02*
D03*
Y-25400D02*
D03*
Y-50800D02*
D03*
Y-76200D02*
D03*
Y-101600D02*
D03*
Y-127000D02*
D03*
Y-152400D02*
D03*
Y-177800D02*
D03*
X-152400Y177800D02*
D03*
Y127000D02*
D03*
Y101600D02*
D03*
Y76200D02*
D03*
Y50800D02*
D03*
Y25400D02*
D03*
Y-0D02*
D03*
Y-25400D02*
D03*
Y-50800D02*
D03*
Y-76200D02*
D03*
Y-101600D02*
D03*
Y-127000D02*
D03*
Y-177800D02*
D03*
X-127000Y177800D02*
D03*
Y152400D02*
D03*
Y-152400D02*
D03*
Y-177800D02*
D03*
X-101600Y177800D02*
D03*
Y152400D02*
D03*
Y-152400D02*
D03*
Y-177800D02*
D03*
X-76200Y177800D02*
D03*
Y152400D02*
D03*
Y-152400D02*
D03*
Y-177800D02*
D03*
X-50800Y177800D02*
D03*
Y152400D02*
D03*
Y-152400D02*
D03*
Y-177800D02*
D03*
X-25400Y177800D02*
D03*
Y152400D02*
D03*
Y-152400D02*
D03*
Y-177800D02*
D03*
X-0Y177800D02*
D03*
Y152400D02*
D03*
Y-152400D02*
D03*
Y-177800D02*
D03*
X25400Y177800D02*
D03*
Y152400D02*
D03*
Y-152400D02*
D03*
Y-177800D02*
D03*
X50800Y177800D02*
D03*
Y152400D02*
D03*
Y-152400D02*
D03*
Y-177800D02*
D03*
X76200Y177800D02*
D03*
Y152400D02*
D03*
Y-152400D02*
D03*
Y-177800D02*
D03*
X101600Y177800D02*
D03*
Y152400D02*
D03*
Y-152400D02*
D03*
Y-177800D02*
D03*
X127000Y177800D02*
D03*
Y152400D02*
D03*
Y-152400D02*
D03*
Y-177800D02*
D03*
X152400Y177800D02*
D03*
Y127000D02*
D03*
Y101600D02*
D03*
Y76200D02*
D03*
Y50800D02*
D03*
Y25400D02*
D03*
Y-0D02*
D03*
Y-25400D02*
D03*
Y-50800D02*
D03*
Y-76200D02*
D03*
Y-101600D02*
D03*
Y-127000D02*
D03*
Y-177800D02*
D03*
X177800Y177800D02*
D03*
Y152400D02*
D03*
Y127000D02*
D03*
Y101600D02*
D03*
Y76200D02*
D03*
Y50800D02*
D03*
Y25400D02*
D03*
Y-0D02*
D03*
Y-25400D02*
D03*
Y-50800D02*
D03*
Y-76200D02*
D03*
Y-101600D02*
D03*
Y-127000D02*
D03*
Y-152400D02*
D03*
Y-177800D02*
D03*
D18*
X-152400Y152400D02*
D03*
D19*
X-300990Y-44450D02*
D03*
X-326390Y-19050D02*
D03*
Y-44450D02*
D03*
X-351790Y-19050D02*
D03*
X-326390Y6350D02*
D03*
X-351790D02*
D03*
X-326390Y31750D02*
D03*
X-351790D02*
D03*
X-326390Y82550D02*
D03*
X-351790D02*
D03*
X-326390Y107950D02*
D03*
X-300990Y82550D02*
D03*
Y107950D02*
D03*
X-275590Y82550D02*
D03*
Y107950D02*
D03*
X-250190Y82550D02*
D03*
Y107950D02*
D03*
X-224790Y82550D02*
D03*
X-250190Y31750D02*
D03*
X-224790D02*
D03*
X-250190Y6350D02*
D03*
X-224790D02*
D03*
X-250190Y-19050D02*
D03*
X-224790D02*
D03*
X-250190Y-44450D02*
D03*
X-275590Y-19050D02*
D03*
Y-44450D02*
D03*
X-224790Y57150D02*
D03*
X-250190D02*
D03*
X-351790D02*
D03*
X-326390D02*
D03*
D20*
X-300990Y-19050D02*
D03*
D21*
X-274250Y-83750D02*
D03*
X-193750Y2500D02*
D03*
X-237250Y54500D02*
D03*
X-276500Y42000D02*
D03*
X-263250Y95250D02*
D03*
X-60000Y-15000D02*
D03*
X-50750Y-8250D02*
D03*
X-11500Y100250D02*
D03*
X-3000Y97000D02*
D03*
X46250Y-750D02*
D03*
X91500Y-52000D02*
D03*
X80400Y-51250D02*
D03*
X-65000Y-23000D02*
D03*
X-128000Y-17000D02*
D03*
X-51000Y31500D02*
D03*
X-62250Y-83000D02*
D03*
X-53250Y-126250D02*
D03*
X-72250Y22250D02*
D03*
X-72250Y-4250D02*
D03*
X-58250Y-134250D02*
D03*
X7000Y-2250D02*
D03*
X-59250Y-119250D02*
D03*
X38000Y-142500D02*
D03*
X10500Y-112750D02*
D03*
X165000Y-139500D02*
D03*
X53250Y-135750D02*
D03*
X41500Y-128250D02*
D03*
X53500Y-121750D02*
D03*
X40750Y-115000D02*
D03*
X89000Y-120750D02*
D03*
X133000Y-97250D02*
D03*
X-113500Y-98750D02*
D03*
X-81500Y-51000D02*
D03*
X-35500Y-35250D02*
D03*
X-80250Y-71750D02*
D03*
X-16750Y40750D02*
D03*
X-8250Y41000D02*
D03*
X750Y40750D02*
D03*
X2500Y49250D02*
D03*
X-18500Y-71000D02*
D03*
X-4500Y-68000D02*
D03*
X19500Y-112500D02*
D03*
X83750Y-113250D02*
D03*
X62250Y-85500D02*
D03*
X53500Y-83750D02*
D03*
X34250Y-82500D02*
D03*
X-42500Y-66500D02*
D03*
X-34000Y-74000D02*
D03*
X2250Y22000D02*
D03*
X-54000Y101750D02*
D03*
X-62000Y78500D02*
D03*
X-10250Y68750D02*
D03*
X-37750Y66250D02*
D03*
X-45750Y73250D02*
D03*
X4250Y81000D02*
D03*
X-2000Y59750D02*
D03*
X-13000Y131000D02*
D03*
X-15250Y165000D02*
D03*
X1500Y-45500D02*
D03*
X-83000Y11750D02*
D03*
X-79500Y27250D02*
D03*
X-38000Y56250D02*
D03*
X-70750Y77000D02*
D03*
X-54250Y73500D02*
D03*
X-80000Y77000D02*
D03*
X-111750Y71250D02*
D03*
X-113000Y81500D02*
D03*
X-112500Y95250D02*
D03*
X-57000Y23000D02*
D03*
X-41500Y47750D02*
D03*
X-45000Y39000D02*
D03*
X-64250Y16750D02*
D03*
X32500Y100250D02*
D03*
X-57250Y128750D02*
D03*
X77500Y-85500D02*
D03*
X-5750Y-84250D02*
D03*
X56500Y94750D02*
D03*
X49750Y89000D02*
D03*
X63500Y100500D02*
D03*
X80500Y-28750D02*
D03*
X88004Y-33502D02*
D03*
X94500Y-40500D02*
D03*
X101500Y88500D02*
D03*
X79250Y95750D02*
D03*
X50000Y46250D02*
D03*
X35750Y48750D02*
D03*
X62250Y62750D02*
D03*
X93750Y48000D02*
D03*
X93250Y34500D02*
D03*
X101250Y18250D02*
D03*
X93250Y25250D02*
D03*
X71000Y135500D02*
D03*
X137500Y92750D02*
D03*
X103500Y-88000D02*
D03*
X29750Y-57000D02*
D03*
X36000Y-50000D02*
D03*
X51750Y-54500D02*
D03*
X93750Y2750D02*
D03*
X44750Y128500D02*
D03*
X15250Y96500D02*
D03*
X5750Y99500D02*
D03*
X7250Y138000D02*
D03*
X2500Y130750D02*
D03*
X-48000Y129000D02*
D03*
X-40250Y132250D02*
D03*
X101750Y135500D02*
D03*
X137750Y119500D02*
D03*
X103000Y-8000D02*
D03*
X63750Y-135250D02*
D03*
X17500Y-41250D02*
D03*
X28000Y-38250D02*
D03*
X58750Y-46000D02*
D03*
X42500Y-84500D02*
D03*
D22*
X-97000Y114500D02*
D03*
X117000Y-99500D02*
D03*
D23*
X-77500D02*
D03*
X-72500D02*
D03*
X-67500D02*
D03*
X-62500D02*
D03*
X-57500D02*
D03*
X-52500D02*
D03*
X-47500D02*
D03*
X-42500D02*
D03*
X-37500D02*
D03*
X-32500D02*
D03*
X-27500D02*
D03*
X-22500D02*
D03*
X-17500D02*
D03*
X-12500D02*
D03*
X-7500D02*
D03*
X-2500D02*
D03*
X2500D02*
D03*
X7500D02*
D03*
X12500D02*
D03*
X17500D02*
D03*
X22500D02*
D03*
X27500D02*
D03*
X32500D02*
D03*
X37500D02*
D03*
X42500D02*
D03*
X47500D02*
D03*
X52500D02*
D03*
X57500D02*
D03*
X62500D02*
D03*
X67500D02*
D03*
X72500D02*
D03*
X77500D02*
D03*
X82500D02*
D03*
X87500D02*
D03*
X92500D02*
D03*
X97500D02*
D03*
Y114500D02*
D03*
X92500D02*
D03*
X87500D02*
D03*
X82500D02*
D03*
X77500D02*
D03*
X72500D02*
D03*
X67500D02*
D03*
X62500D02*
D03*
X57500D02*
D03*
X52500D02*
D03*
X47500D02*
D03*
X42500D02*
D03*
X37500D02*
D03*
X32500D02*
D03*
X27500D02*
D03*
X22500D02*
D03*
X17500D02*
D03*
X12500D02*
D03*
X7500D02*
D03*
X2500D02*
D03*
X-2500D02*
D03*
X-7500D02*
D03*
X-12500D02*
D03*
X-17500D02*
D03*
X-22500D02*
D03*
X-27500D02*
D03*
X-32500D02*
D03*
X-37500D02*
D03*
X-42500D02*
D03*
X-47500D02*
D03*
X-52500D02*
D03*
X-57500D02*
D03*
X-62500D02*
D03*
X-67500D02*
D03*
X-72500D02*
D03*
X-77500D02*
D03*
D24*
X117000Y-80000D02*
D03*
Y-75000D02*
D03*
Y-70000D02*
D03*
Y-65000D02*
D03*
Y-60000D02*
D03*
Y-55000D02*
D03*
Y-50000D02*
D03*
Y-45000D02*
D03*
Y-40000D02*
D03*
Y-35000D02*
D03*
Y-30000D02*
D03*
Y-25000D02*
D03*
Y-20000D02*
D03*
Y-15000D02*
D03*
Y-10000D02*
D03*
Y-5000D02*
D03*
Y-0D02*
D03*
Y5000D02*
D03*
Y10000D02*
D03*
Y15000D02*
D03*
Y20000D02*
D03*
Y25000D02*
D03*
Y30000D02*
D03*
Y35000D02*
D03*
Y40000D02*
D03*
Y45000D02*
D03*
Y50000D02*
D03*
Y55000D02*
D03*
Y60000D02*
D03*
Y65000D02*
D03*
Y70000D02*
D03*
Y75000D02*
D03*
Y80000D02*
D03*
Y85000D02*
D03*
Y90000D02*
D03*
Y95000D02*
D03*
X-97000D02*
D03*
Y90000D02*
D03*
Y85000D02*
D03*
Y80000D02*
D03*
Y75000D02*
D03*
Y70000D02*
D03*
Y65000D02*
D03*
Y60000D02*
D03*
Y55000D02*
D03*
Y50000D02*
D03*
X-97000Y45000D02*
D03*
Y40000D02*
D03*
Y35000D02*
D03*
X-97000Y30000D02*
D03*
Y25000D02*
D03*
Y20000D02*
D03*
Y15000D02*
D03*
Y10000D02*
D03*
X-97000Y5000D02*
D03*
Y-0D02*
D03*
X-97000Y-5000D02*
D03*
Y-10000D02*
D03*
Y-15000D02*
D03*
Y-20000D02*
D03*
Y-25000D02*
D03*
X-97000Y-30000D02*
D03*
X-97000Y-35000D02*
D03*
Y-40000D02*
D03*
Y-45000D02*
D03*
Y-50000D02*
D03*
Y-55000D02*
D03*
Y-60000D02*
D03*
X-97000Y-65000D02*
D03*
X-97000Y-70000D02*
D03*
Y-75000D02*
D03*
Y-80000D02*
D03*
M02*
