M48
;Layer_Color=9474304
;FILE_FORMAT=4:4
METRIC,LZ
;TYPE=PLATED
T1F00S00C0.3000
T2F00S00C0.8000
T3F00S00C0.8890
;TYPE=NON_PLATED
%
T01
X-0027425Y-0008375
X-002765Y00042
X-0023725Y000545
X-0026325Y0009525
X-001125Y0009525
X-00113Y000815
X-0011175Y0007125
X-0008Y00077
X-0007075
X-00062Y000785
X-0005425Y000735
X-0004575Y0007325
X-0003775Y0006625
X-00038Y0005625
X-000415Y0004775
X-00045Y00039
X-00051Y000315
X-00057Y00023
X-0006425Y0001675
X-0007225Y0002225
X-000795Y0002725
X-00083Y0001175
X-0007225Y-0000425
X-0006Y-00015
X-00065Y-00023
X-0005075Y-0000825
X-000355Y-0003525
X-000425Y-000665
X-00034Y-00074
X-000185Y-00071
X-000045Y-00068
X-0000575Y-0008425
X0003425Y-000825
X000425Y-000845
X000535Y-0008375
X0006225Y-000855
X000775
X001035Y-00088
X00133Y-0009725
X0008375Y-0011325
X00089Y-0012075
X000535Y-0012175
X0005325Y-0013575
X0006375Y-0013525
X000415Y-0012825
X0004075Y-00115
X000195Y-001125
X000105Y-0011275
X00038Y-001425
X0002975Y-00057
X00036Y-0005
X00028Y-0003825
X000175Y-0004125
X000015Y-000455
X00007Y-0000225
X0000225Y00022
X0000075Y0004075
X-0000825Y00041
X-0001675Y0004075
X000025Y0004925
X-00002Y0005975
X-0001025Y0006875
X0000425Y00081
X0000575Y000995
X-00003Y00097
X-000115Y0010025
X0001525Y000965
X000325Y0010025
X0004975Y00089
X000565Y0009475
X000635Y001005
X0007925Y0009575
X001015Y000885
X001375Y0009275
X0013775Y001195
X0010175Y001355
X00071
X0004475Y001285
X000025Y0013075
X0000725Y00138
X-00013Y00131
X-0004025Y0013225
X-00048Y00129
X-0005725Y0012875
X-00054Y0010175
X-0001525Y00165
X0003575Y0004875
X0005Y0004625
X0006225Y0006275
X0009375Y00048
X0009325Y000345
Y0002525
X0010125Y0001825
X0009375Y0000275
X00103Y-00008
X00088004Y-00033502
X000805Y-0002875
X000804Y-0005125
X000915Y-00052
X000945Y-000405
X0005875Y-00046
X0005175Y-000545
X0004625Y-0000075
X-000815Y-00051
X-0008025Y-0007175
X-0006225Y-00083
X-0005925Y-0011925
X-0005325Y-0012625
X-0005825Y-0013425
X-001135Y-0009875
X-00128Y-00017
X-0019375Y000025
X00165Y-001395
T02
X-0032639Y-0004445
X-0030099
X-0027559
X-0025019
Y-0001905
Y0000635
Y0003175
X-0022479
Y0000635
Y-0001905
X-0027559
X-0030099
X-0032639
X-0035179
Y0000635
X-0032639
Y0003175
X-0035179
Y0005715
Y0008255
X-0032639
Y0010795
X-0030099
Y0008255
X-0027559
Y0010795
X-0025019
Y0008255
X-0022479
Y0005715
X-0025019
X-0032639
T03
X-001778Y-001778
Y-001524
X-001524
Y-00127
X-001778
Y-001016
Y-000762
Y-000508
Y-000254
Y-0
Y000254
Y000508
Y000762
Y001016
Y00127
Y001524
X-001524
Y001778
X-001778
X-00127
Y001524
X-001016
Y001778
X-000762
Y001524
X-000508
Y001778
X-000254
Y001524
X-0
Y001778
X000254
Y001524
X000508
Y001778
X000762
Y001524
X001016
Y001778
X00127
Y001524
X001524
Y001778
X001778
Y001524
Y00127
X001524
Y001016
Y000762
Y000508
Y000254
Y-0
Y-000254
Y-000508
Y-000762
Y-001016
Y-00127
Y-001524
X00127
X001016
X000762
X000508
X000254
X-0
X-000254
X-000508
X-000762
X-001016
X-00127
Y-001778
X-001524
X-001016
X-000762
X-000508
X-000254
X-0
X000254
X000508
X000762
X001016
X00127
X001524
X001778
Y-001524
Y-00127
Y-001016
Y-000762
Y-000508
Y-000254
Y-0
Y000254
Y000508
Y000762
Y001016
X-001524
Y00127
Y000762
Y000508
Y000254
Y-0
Y-000254
Y-000508
Y-000762
Y-001016
M30
