G04 Layer_Color=255*
%FSLAX44Y44*%
%MOMM*%
G71*
G01*
G75*
%ADD10R,1.3000X1.0000*%
%ADD16C,0.3500*%
%ADD17C,1.6510*%
%ADD18R,1.6510X1.6510*%
%ADD19C,1.2000*%
%ADD20R,1.2000X1.2000*%
%ADD22C,1.0000*%
%ADD23R,0.3000X1.5000*%
%ADD24R,1.5000X0.3000*%
D10*
X-298450Y-66450D02*
D03*
Y-85950D02*
D03*
D16*
X-372110Y193040D02*
X193040D01*
Y-193040D02*
Y193040D01*
X-383540Y-193040D02*
X193040D01*
X-383540D02*
Y181610D01*
X-372110Y193040D01*
D17*
X152400Y152400D02*
D03*
Y-152400D02*
D03*
X-152400D02*
D03*
X-177800Y177800D02*
D03*
Y152400D02*
D03*
Y127000D02*
D03*
Y101600D02*
D03*
Y76200D02*
D03*
Y50800D02*
D03*
Y25400D02*
D03*
Y-0D02*
D03*
Y-25400D02*
D03*
Y-50800D02*
D03*
Y-76200D02*
D03*
Y-101600D02*
D03*
Y-127000D02*
D03*
Y-152400D02*
D03*
Y-177800D02*
D03*
X-152400Y177800D02*
D03*
Y127000D02*
D03*
Y101600D02*
D03*
Y76200D02*
D03*
Y50800D02*
D03*
Y25400D02*
D03*
Y-0D02*
D03*
Y-25400D02*
D03*
Y-50800D02*
D03*
Y-76200D02*
D03*
Y-101600D02*
D03*
Y-127000D02*
D03*
Y-177800D02*
D03*
X-127000Y177800D02*
D03*
Y152400D02*
D03*
Y-152400D02*
D03*
Y-177800D02*
D03*
X-101600Y177800D02*
D03*
Y152400D02*
D03*
Y-152400D02*
D03*
Y-177800D02*
D03*
X-76200Y177800D02*
D03*
Y152400D02*
D03*
Y-152400D02*
D03*
Y-177800D02*
D03*
X-50800Y177800D02*
D03*
Y152400D02*
D03*
Y-152400D02*
D03*
Y-177800D02*
D03*
X-25400Y177800D02*
D03*
Y152400D02*
D03*
Y-152400D02*
D03*
Y-177800D02*
D03*
X-0Y177800D02*
D03*
Y152400D02*
D03*
Y-152400D02*
D03*
Y-177800D02*
D03*
X25400Y177800D02*
D03*
Y152400D02*
D03*
Y-152400D02*
D03*
Y-177800D02*
D03*
X50800Y177800D02*
D03*
Y152400D02*
D03*
Y-152400D02*
D03*
Y-177800D02*
D03*
X76200Y177800D02*
D03*
Y152400D02*
D03*
Y-152400D02*
D03*
Y-177800D02*
D03*
X101600Y177800D02*
D03*
Y152400D02*
D03*
Y-152400D02*
D03*
Y-177800D02*
D03*
X127000Y177800D02*
D03*
Y152400D02*
D03*
Y-152400D02*
D03*
Y-177800D02*
D03*
X152400Y177800D02*
D03*
Y127000D02*
D03*
Y101600D02*
D03*
Y76200D02*
D03*
Y50800D02*
D03*
Y25400D02*
D03*
Y-0D02*
D03*
Y-25400D02*
D03*
Y-50800D02*
D03*
Y-76200D02*
D03*
Y-101600D02*
D03*
Y-127000D02*
D03*
Y-177800D02*
D03*
X177800Y177800D02*
D03*
Y152400D02*
D03*
Y127000D02*
D03*
Y101600D02*
D03*
Y76200D02*
D03*
Y50800D02*
D03*
Y25400D02*
D03*
Y-0D02*
D03*
Y-25400D02*
D03*
Y-50800D02*
D03*
Y-76200D02*
D03*
Y-101600D02*
D03*
Y-127000D02*
D03*
Y-152400D02*
D03*
Y-177800D02*
D03*
D18*
X-152400Y152400D02*
D03*
D19*
X-300990Y-44450D02*
D03*
X-326390Y-19050D02*
D03*
Y-44450D02*
D03*
X-351790Y-19050D02*
D03*
X-326390Y6350D02*
D03*
X-351790D02*
D03*
X-326390Y31750D02*
D03*
X-351790D02*
D03*
X-326390Y82550D02*
D03*
X-351790D02*
D03*
X-326390Y107950D02*
D03*
X-300990Y82550D02*
D03*
Y107950D02*
D03*
X-275590Y82550D02*
D03*
Y107950D02*
D03*
X-250190Y82550D02*
D03*
Y107950D02*
D03*
X-224790Y82550D02*
D03*
X-250190Y31750D02*
D03*
X-224790D02*
D03*
X-250190Y6350D02*
D03*
X-224790D02*
D03*
X-250190Y-19050D02*
D03*
X-224790D02*
D03*
X-250190Y-44450D02*
D03*
X-275590Y-19050D02*
D03*
Y-44450D02*
D03*
X-224790Y57150D02*
D03*
X-250190D02*
D03*
X-351790D02*
D03*
X-326390D02*
D03*
D20*
X-300990Y-19050D02*
D03*
D22*
X-97000Y114500D02*
D03*
X117000Y-99500D02*
D03*
D23*
X-77500D02*
D03*
X-72500D02*
D03*
X-67500D02*
D03*
X-62500D02*
D03*
X-57500D02*
D03*
X-52500D02*
D03*
X-47500D02*
D03*
X-42500D02*
D03*
X-37500D02*
D03*
X-32500D02*
D03*
X-27500D02*
D03*
X-22500D02*
D03*
X-17500D02*
D03*
X-12500D02*
D03*
X-7500D02*
D03*
X-2500D02*
D03*
X2500D02*
D03*
X7500D02*
D03*
X12500D02*
D03*
X17500D02*
D03*
X22500D02*
D03*
X27500D02*
D03*
X32500D02*
D03*
X37500D02*
D03*
X42500D02*
D03*
X47500D02*
D03*
X52500D02*
D03*
X57500D02*
D03*
X62500D02*
D03*
X67500D02*
D03*
X72500D02*
D03*
X77500D02*
D03*
X82500D02*
D03*
X87500D02*
D03*
X92500D02*
D03*
X97500D02*
D03*
Y114500D02*
D03*
X92500D02*
D03*
X87500D02*
D03*
X82500D02*
D03*
X77500D02*
D03*
X72500D02*
D03*
X67500D02*
D03*
X62500D02*
D03*
X57500D02*
D03*
X52500D02*
D03*
X47500D02*
D03*
X42500D02*
D03*
X37500D02*
D03*
X32500D02*
D03*
X27500D02*
D03*
X22500D02*
D03*
X17500D02*
D03*
X12500D02*
D03*
X7500D02*
D03*
X2500D02*
D03*
X-2500D02*
D03*
X-7500D02*
D03*
X-12500D02*
D03*
X-17500D02*
D03*
X-22500D02*
D03*
X-27500D02*
D03*
X-32500D02*
D03*
X-37500D02*
D03*
X-42500D02*
D03*
X-47500D02*
D03*
X-52500D02*
D03*
X-57500D02*
D03*
X-62500D02*
D03*
X-67500D02*
D03*
X-72500D02*
D03*
X-77500D02*
D03*
D24*
X117000Y-80000D02*
D03*
Y-75000D02*
D03*
Y-70000D02*
D03*
Y-65000D02*
D03*
Y-60000D02*
D03*
Y-55000D02*
D03*
Y-50000D02*
D03*
Y-45000D02*
D03*
Y-40000D02*
D03*
Y-35000D02*
D03*
Y-30000D02*
D03*
Y-25000D02*
D03*
Y-20000D02*
D03*
Y-15000D02*
D03*
Y-10000D02*
D03*
Y-5000D02*
D03*
Y-0D02*
D03*
Y5000D02*
D03*
Y10000D02*
D03*
Y15000D02*
D03*
Y20000D02*
D03*
Y25000D02*
D03*
Y30000D02*
D03*
Y35000D02*
D03*
Y40000D02*
D03*
Y45000D02*
D03*
Y50000D02*
D03*
Y55000D02*
D03*
Y60000D02*
D03*
Y65000D02*
D03*
Y70000D02*
D03*
Y75000D02*
D03*
Y80000D02*
D03*
Y85000D02*
D03*
Y90000D02*
D03*
Y95000D02*
D03*
X-97000D02*
D03*
Y90000D02*
D03*
Y85000D02*
D03*
Y80000D02*
D03*
Y75000D02*
D03*
Y70000D02*
D03*
Y65000D02*
D03*
Y60000D02*
D03*
Y55000D02*
D03*
Y50000D02*
D03*
X-97000Y45000D02*
D03*
Y40000D02*
D03*
Y35000D02*
D03*
X-97000Y30000D02*
D03*
Y25000D02*
D03*
Y20000D02*
D03*
Y15000D02*
D03*
Y10000D02*
D03*
X-97000Y5000D02*
D03*
Y-0D02*
D03*
X-97000Y-5000D02*
D03*
Y-10000D02*
D03*
Y-15000D02*
D03*
Y-20000D02*
D03*
Y-25000D02*
D03*
X-97000Y-30000D02*
D03*
X-97000Y-35000D02*
D03*
Y-40000D02*
D03*
Y-45000D02*
D03*
Y-50000D02*
D03*
Y-55000D02*
D03*
Y-60000D02*
D03*
X-97000Y-65000D02*
D03*
X-97000Y-70000D02*
D03*
Y-75000D02*
D03*
Y-80000D02*
D03*
M02*
