G04 Layer_Color=128*
%FSLAX44Y44*%
%MOMM*%
G71*
G01*
G75*
%ADD10R,1.3000X1.0000*%
%ADD16C,0.3500*%
%ADD23R,0.3000X1.5000*%
%ADD24R,1.5000X0.3000*%
D10*
X-298450Y-66450D02*
D03*
Y-85950D02*
D03*
D16*
X-372110Y193040D02*
X193040D01*
Y-193040D02*
Y193040D01*
X-383540Y-193040D02*
X193040D01*
X-383540D02*
Y181610D01*
X-372110Y193040D01*
D23*
X-77500Y-99500D02*
D03*
X-72500D02*
D03*
X-67500D02*
D03*
X-62500D02*
D03*
X-57500D02*
D03*
X-52500D02*
D03*
X-47500D02*
D03*
X-42500D02*
D03*
X-37500D02*
D03*
X-32500D02*
D03*
X-27500D02*
D03*
X-22500D02*
D03*
X-17500D02*
D03*
X-12500D02*
D03*
X-7500D02*
D03*
X-2500D02*
D03*
X2500D02*
D03*
X7500D02*
D03*
X12500D02*
D03*
X17500D02*
D03*
X22500D02*
D03*
X27500D02*
D03*
X32500D02*
D03*
X37500D02*
D03*
X42500D02*
D03*
X47500D02*
D03*
X52500D02*
D03*
X57500D02*
D03*
X62500D02*
D03*
X67500D02*
D03*
X72500D02*
D03*
X77500D02*
D03*
X82500D02*
D03*
X87500D02*
D03*
X92500D02*
D03*
X97500D02*
D03*
Y114500D02*
D03*
X92500D02*
D03*
X87500D02*
D03*
X82500D02*
D03*
X77500D02*
D03*
X72500D02*
D03*
X67500D02*
D03*
X62500D02*
D03*
X57500D02*
D03*
X52500D02*
D03*
X47500D02*
D03*
X42500D02*
D03*
X37500D02*
D03*
X32500D02*
D03*
X27500D02*
D03*
X22500D02*
D03*
X17500D02*
D03*
X12500D02*
D03*
X7500D02*
D03*
X2500D02*
D03*
X-2500D02*
D03*
X-7500D02*
D03*
X-12500D02*
D03*
X-17500D02*
D03*
X-22500D02*
D03*
X-27500D02*
D03*
X-32500D02*
D03*
X-37500D02*
D03*
X-42500D02*
D03*
X-47500D02*
D03*
X-52500D02*
D03*
X-57500D02*
D03*
X-62500D02*
D03*
X-67500D02*
D03*
X-72500D02*
D03*
X-77500D02*
D03*
D24*
X117000Y-80000D02*
D03*
Y-75000D02*
D03*
Y-70000D02*
D03*
Y-65000D02*
D03*
Y-60000D02*
D03*
Y-55000D02*
D03*
Y-50000D02*
D03*
Y-45000D02*
D03*
Y-40000D02*
D03*
Y-35000D02*
D03*
Y-30000D02*
D03*
Y-25000D02*
D03*
Y-20000D02*
D03*
Y-15000D02*
D03*
Y-10000D02*
D03*
Y-5000D02*
D03*
Y-0D02*
D03*
Y5000D02*
D03*
Y10000D02*
D03*
Y15000D02*
D03*
Y20000D02*
D03*
Y25000D02*
D03*
Y30000D02*
D03*
Y35000D02*
D03*
Y40000D02*
D03*
Y45000D02*
D03*
Y50000D02*
D03*
Y55000D02*
D03*
Y60000D02*
D03*
Y65000D02*
D03*
Y70000D02*
D03*
Y75000D02*
D03*
Y80000D02*
D03*
Y85000D02*
D03*
Y90000D02*
D03*
Y95000D02*
D03*
X-97000D02*
D03*
Y90000D02*
D03*
Y85000D02*
D03*
Y80000D02*
D03*
Y75000D02*
D03*
Y70000D02*
D03*
Y65000D02*
D03*
Y60000D02*
D03*
Y55000D02*
D03*
Y50000D02*
D03*
X-97000Y45000D02*
D03*
Y40000D02*
D03*
Y35000D02*
D03*
X-97000Y30000D02*
D03*
Y25000D02*
D03*
Y20000D02*
D03*
Y15000D02*
D03*
Y10000D02*
D03*
X-97000Y5000D02*
D03*
Y-0D02*
D03*
X-97000Y-5000D02*
D03*
Y-10000D02*
D03*
Y-15000D02*
D03*
Y-20000D02*
D03*
Y-25000D02*
D03*
X-97000Y-30000D02*
D03*
X-97000Y-35000D02*
D03*
Y-40000D02*
D03*
Y-45000D02*
D03*
Y-50000D02*
D03*
Y-55000D02*
D03*
Y-60000D02*
D03*
X-97000Y-65000D02*
D03*
X-97000Y-70000D02*
D03*
Y-75000D02*
D03*
Y-80000D02*
D03*
M02*
