G04 Layer_Physical_Order=2*
G04 Layer_Color=36540*
%FSLAX44Y44*%
%MOMM*%
G71*
G01*
G75*
%ADD15C,0.2000*%
%ADD16C,0.3500*%
%ADD17C,1.6510*%
%ADD19C,1.2000*%
%ADD21C,0.6000*%
G36*
X-194744Y9506D02*
X-193256Y8511D01*
X-191500Y8162D01*
X-186354D01*
X-188068Y5928D01*
X-189253Y3068D01*
X-189612Y338D01*
X-217429D01*
X-216492Y1559D01*
X-215535Y3870D01*
X-215208Y6350D01*
X-215535Y8830D01*
X-216492Y11141D01*
X-217084Y11912D01*
X-197150D01*
X-194744Y9506D01*
D02*
G37*
G36*
X-66697Y-29333D02*
X-65000Y-29556D01*
X-64940Y-29548D01*
X-63244Y-31244D01*
X-61756Y-32239D01*
X-60000Y-32588D01*
X-41433D01*
X-41833Y-33553D01*
X-42056Y-35250D01*
X-41833Y-36947D01*
X-41178Y-38528D01*
X-40136Y-39886D01*
X-38778Y-40928D01*
X-37197Y-41583D01*
X-35500Y-41806D01*
X-33803Y-41583D01*
X-32222Y-40928D01*
X-30864Y-39886D01*
X-29822Y-38528D01*
X-29167Y-36947D01*
X-28944Y-35250D01*
X-29167Y-33553D01*
X-29567Y-32588D01*
X2350D01*
X10674Y-40912D01*
X6172D01*
X6136Y-40864D01*
X4778Y-39822D01*
X3197Y-39167D01*
X1500Y-38944D01*
X-197Y-39167D01*
X-1778Y-39822D01*
X-3136Y-40864D01*
X-4178Y-42222D01*
X-4833Y-43803D01*
X-5056Y-45500D01*
X-4833Y-47197D01*
X-4178Y-48778D01*
X-3136Y-50136D01*
X-1778Y-51178D01*
X-197Y-51833D01*
X1500Y-52056D01*
X3197Y-51833D01*
X4778Y-51178D01*
X6136Y-50136D01*
X6172Y-50088D01*
X10100D01*
X11256Y-51245D01*
X12058Y-51781D01*
X12744Y-52239D01*
X12745Y-52239D01*
X12745Y-52239D01*
X13651Y-52419D01*
X14500Y-52588D01*
X24942D01*
X24072Y-53722D01*
X23417Y-55303D01*
X23194Y-57000D01*
X23417Y-58697D01*
X24072Y-60278D01*
X25114Y-61636D01*
X26472Y-62677D01*
X28053Y-63333D01*
X29750Y-63556D01*
X29809Y-63548D01*
X40756Y-74495D01*
X42244Y-75489D01*
X44000Y-75838D01*
X44673D01*
X42560Y-77952D01*
X42500Y-77944D01*
X40803Y-78167D01*
X39222Y-78822D01*
X37864Y-79864D01*
X36822Y-81222D01*
X36167Y-82803D01*
X35944Y-84500D01*
X36167Y-86197D01*
X36822Y-87778D01*
X37693Y-88912D01*
X35900D01*
X21244Y-74256D01*
X19756Y-73261D01*
X18000Y-72912D01*
X-224D01*
X136Y-72636D01*
X1178Y-71278D01*
X1833Y-69697D01*
X2056Y-68000D01*
X1833Y-66303D01*
X1178Y-64722D01*
X136Y-63364D01*
X-1222Y-62322D01*
X-2803Y-61667D01*
X-4500Y-61444D01*
X-6197Y-61667D01*
X-7778Y-62322D01*
X-9136Y-63364D01*
X-10178Y-64722D01*
X-10833Y-66303D01*
X-11056Y-68000D01*
X-10833Y-69697D01*
X-10178Y-71278D01*
X-9136Y-72636D01*
X-8776Y-72912D01*
X-12256D01*
X-12167Y-72697D01*
X-11944Y-71000D01*
X-12167Y-69303D01*
X-12822Y-67722D01*
X-13864Y-66364D01*
X-15222Y-65322D01*
X-16803Y-64667D01*
X-18500Y-64444D01*
X-20197Y-64667D01*
X-21778Y-65322D01*
X-23136Y-66364D01*
X-24178Y-67722D01*
X-24284Y-67978D01*
X-29006Y-63256D01*
X-30494Y-62261D01*
X-32250Y-61912D01*
X-37828D01*
X-37864Y-61864D01*
X-39222Y-60822D01*
X-40803Y-60167D01*
X-42500Y-59944D01*
X-44197Y-60167D01*
X-44662Y-60360D01*
Y-56750D01*
X-45011Y-54994D01*
X-46006Y-53506D01*
X-67662Y-31850D01*
Y-28933D01*
X-66697Y-29333D01*
D02*
G37*
G36*
X-233088Y61941D02*
X-234046Y59630D01*
X-234372Y57150D01*
X-234046Y54670D01*
X-233088Y52359D01*
X-232305Y51338D01*
X-242675D01*
X-241892Y52359D01*
X-240935Y54670D01*
X-240608Y57150D01*
X-240935Y59630D01*
X-241892Y61941D01*
X-242445Y62662D01*
X-232535D01*
X-233088Y61941D01*
D02*
G37*
G36*
X-106901Y68088D02*
X-143808D01*
X-142132Y70272D01*
X-140948Y73131D01*
X-140544Y76200D01*
X-140948Y79268D01*
X-142132Y82128D01*
X-143770Y84262D01*
X-118892D01*
X-119333Y83197D01*
X-119556Y81500D01*
X-119333Y79803D01*
X-118678Y78222D01*
X-117636Y76864D01*
X-116278Y75822D01*
X-114697Y75167D01*
X-113000Y74944D01*
X-111303Y75167D01*
X-109722Y75822D01*
X-108364Y76864D01*
X-107323Y78222D01*
X-106667Y79803D01*
X-106444Y81500D01*
X-106667Y83197D01*
X-107109Y84262D01*
X-90727D01*
X-106901Y68088D01*
D02*
G37*
G36*
X-214681Y84427D02*
X-213850Y84262D01*
X-186431D01*
X-188068Y82128D01*
X-189253Y79268D01*
X-189492Y77450D01*
X-166108D01*
X-166348Y79268D01*
X-167532Y82128D01*
X-169170Y84262D01*
X-161031D01*
X-162668Y82128D01*
X-163853Y79268D01*
X-164257Y76200D01*
X-163853Y73131D01*
X-162668Y70272D01*
X-160993Y68088D01*
X-169208D01*
X-167532Y70272D01*
X-166348Y73131D01*
X-166108Y74950D01*
X-189492D01*
X-189253Y73131D01*
X-188068Y70272D01*
X-186393Y68088D01*
X-189100D01*
X-191506Y70494D01*
X-192994Y71489D01*
X-194750Y71838D01*
X-238173D01*
X-234006Y76006D01*
X-234006Y76006D01*
X-234006Y76006D01*
X-233428Y76870D01*
X-233011Y77494D01*
X-233011Y77494D01*
X-233011Y77494D01*
X-232985Y77624D01*
X-231566Y75774D01*
X-229581Y74252D01*
X-227270Y73294D01*
X-224790Y72968D01*
X-222310Y73294D01*
X-219999Y74252D01*
X-218015Y75774D01*
X-216492Y77759D01*
X-215535Y80070D01*
X-215208Y82550D01*
X-215476Y84585D01*
X-214681Y84427D01*
D02*
G37*
G36*
X166903Y-46391D02*
X166347Y-47731D01*
X165943Y-50800D01*
X166347Y-53869D01*
X167532Y-56728D01*
X169416Y-59184D01*
X171872Y-61068D01*
X174731Y-62253D01*
X177800Y-62657D01*
X180868Y-62253D01*
X183728Y-61068D01*
X185000Y-60092D01*
Y-66908D01*
X183728Y-65932D01*
X180868Y-64748D01*
X177800Y-64344D01*
X174731Y-64748D01*
X171872Y-65932D01*
X169416Y-67816D01*
X167532Y-70272D01*
X166347Y-73131D01*
X165943Y-76200D01*
X166347Y-79269D01*
X166903Y-80609D01*
X163099Y-84412D01*
X160915D01*
X162668Y-82128D01*
X163852Y-79269D01*
X164092Y-77450D01*
X140708D01*
X140749Y-77760D01*
X132827Y-69838D01*
X137950D01*
X139706Y-69489D01*
X141194Y-68495D01*
X147991Y-61698D01*
X149331Y-62253D01*
X152400Y-62657D01*
X155469Y-62253D01*
X158328Y-61068D01*
X160784Y-59184D01*
X162668Y-56728D01*
X163852Y-53869D01*
X164256Y-50800D01*
X163852Y-47731D01*
X162668Y-44872D01*
X161107Y-42838D01*
X163349D01*
X166903Y-46391D01*
D02*
G37*
G36*
X91332Y-146472D02*
X90147Y-149332D01*
X89743Y-152400D01*
X90147Y-155469D01*
X91332Y-158328D01*
X92931Y-160412D01*
X84869D01*
X86468Y-158328D01*
X87652Y-155469D01*
X87892Y-153650D01*
X64508D01*
X64747Y-155469D01*
X65932Y-158328D01*
X67531Y-160412D01*
X59469D01*
X61068Y-158328D01*
X62252Y-155469D01*
X62656Y-152400D01*
X62252Y-149332D01*
X61068Y-146472D01*
X60888Y-146238D01*
X66111D01*
X65932Y-146472D01*
X64747Y-149332D01*
X64508Y-151150D01*
X87892D01*
X87652Y-149332D01*
X86468Y-146472D01*
X84639Y-144088D01*
X93161D01*
X91332Y-146472D01*
D02*
G37*
G36*
X185000Y-168508D02*
X183728Y-167532D01*
X180868Y-166348D01*
X177800Y-165944D01*
X174731Y-166348D01*
X171872Y-167532D01*
X169416Y-169416D01*
X167532Y-171872D01*
X166347Y-174732D01*
X165943Y-177800D01*
X166347Y-180869D01*
X167532Y-183728D01*
X168508Y-185000D01*
X161692D01*
X162668Y-183728D01*
X163852Y-180869D01*
X164092Y-179050D01*
X140708D01*
X140947Y-180869D01*
X142132Y-183728D01*
X143108Y-185000D01*
X136292D01*
X137268Y-183728D01*
X138452Y-180869D01*
X138856Y-177800D01*
X138452Y-174732D01*
X137268Y-171872D01*
X135515Y-169588D01*
X143884D01*
X142132Y-171872D01*
X140947Y-174732D01*
X140708Y-176550D01*
X164092D01*
X163852Y-174732D01*
X162668Y-171872D01*
X160915Y-169588D01*
X165200D01*
X166956Y-169239D01*
X168444Y-168244D01*
X173391Y-163298D01*
X174731Y-163853D01*
X177800Y-164257D01*
X180868Y-163853D01*
X183728Y-162668D01*
X185000Y-161692D01*
Y-168508D01*
D02*
G37*
G36*
X-42588Y-132900D02*
Y-143885D01*
X-44872Y-142132D01*
X-47731Y-140948D01*
X-49550Y-140708D01*
Y-152400D01*
Y-164092D01*
X-47731Y-163853D01*
X-44872Y-162668D01*
X-42588Y-160916D01*
Y-165200D01*
X-42239Y-166956D01*
X-41244Y-168445D01*
X-36298Y-173391D01*
X-36853Y-174732D01*
X-37257Y-177800D01*
X-36853Y-180869D01*
X-35668Y-183728D01*
X-34692Y-185000D01*
X-41508D01*
X-40532Y-183728D01*
X-39348Y-180869D01*
X-38944Y-177800D01*
X-39348Y-174732D01*
X-40532Y-171872D01*
X-42416Y-169416D01*
X-44872Y-167532D01*
X-47731Y-166348D01*
X-50800Y-165944D01*
X-53869Y-166348D01*
X-55209Y-166903D01*
X-58662Y-163450D01*
Y-161185D01*
X-56728Y-162668D01*
X-53869Y-163853D01*
X-52050Y-164092D01*
Y-152400D01*
Y-140708D01*
X-53869Y-140948D01*
X-56728Y-142132D01*
X-58662Y-143616D01*
Y-140752D01*
X-58250Y-140806D01*
X-56553Y-140583D01*
X-54972Y-139928D01*
X-53614Y-138886D01*
X-52572Y-137528D01*
X-51917Y-135947D01*
X-51694Y-134250D01*
X-51907Y-132629D01*
X-51553Y-132583D01*
X-49972Y-131928D01*
X-48614Y-130886D01*
X-47572Y-129528D01*
X-47100Y-128388D01*
X-42588Y-132900D01*
D02*
G37*
G36*
X72864Y-80864D02*
X71822Y-82222D01*
X71167Y-83803D01*
X70944Y-85500D01*
X71167Y-87197D01*
X71822Y-88778D01*
X71925Y-88912D01*
X57450D01*
X58136Y-88386D01*
X59178Y-87028D01*
X59833Y-85447D01*
X60056Y-83750D01*
X59833Y-82053D01*
X59329Y-80838D01*
X72898D01*
X72864Y-80864D01*
D02*
G37*
G36*
X-55388Y-120100D02*
X-56528Y-120572D01*
X-57886Y-121614D01*
X-58928Y-122972D01*
X-59583Y-124553D01*
X-59801Y-126210D01*
X-102412Y-83600D01*
Y-73077D01*
X-55388Y-120100D01*
D02*
G37*
G36*
X-187092Y185000D02*
X-188068Y183728D01*
X-189253Y180868D01*
X-189657Y177800D01*
X-189253Y174731D01*
X-188068Y171872D01*
X-186184Y169416D01*
X-183728Y167532D01*
X-180869Y166347D01*
X-177800Y165943D01*
X-174732Y166347D01*
X-171872Y167532D01*
X-169416Y169416D01*
X-167532Y171872D01*
X-166348Y174731D01*
X-165944Y177800D01*
X-166348Y180868D01*
X-167532Y183728D01*
X-168508Y185000D01*
X-161692D01*
X-162668Y183728D01*
X-163853Y180868D01*
X-164257Y177800D01*
X-163853Y174731D01*
X-162668Y171872D01*
X-160784Y169416D01*
X-158328Y167532D01*
X-155469Y166347D01*
X-152400Y165943D01*
X-149332Y166347D01*
X-146472Y167532D01*
X-144016Y169416D01*
X-142132Y171872D01*
X-140948Y174731D01*
X-140544Y177800D01*
X-140948Y180868D01*
X-142132Y183728D01*
X-143109Y185000D01*
X-136292D01*
X-137268Y183728D01*
X-138453Y180868D01*
X-138857Y177800D01*
X-138453Y174731D01*
X-137268Y171872D01*
X-135384Y169416D01*
X-132928Y167532D01*
X-130069Y166347D01*
X-127000Y165943D01*
X-123932Y166347D01*
X-121072Y167532D01*
X-118616Y169416D01*
X-116732Y171872D01*
X-115548Y174731D01*
X-115144Y177800D01*
X-115548Y180868D01*
X-116732Y183728D01*
X-117708Y185000D01*
X-110892D01*
X-111868Y183728D01*
X-113053Y180868D01*
X-113292Y179050D01*
X-89908D01*
X-90148Y180868D01*
X-91332Y183728D01*
X-92308Y185000D01*
X-85492Y185000D01*
X-86468Y183728D01*
X-87653Y180868D01*
X-88057Y177800D01*
X-87653Y174731D01*
X-86468Y171872D01*
X-84584Y169416D01*
X-82128Y167532D01*
X-79269Y166347D01*
X-76200Y165943D01*
X-73131Y166347D01*
X-70272Y167532D01*
X-67816Y169416D01*
X-65932Y171872D01*
X-64748Y174731D01*
X-64344Y177800D01*
X-64748Y180868D01*
X-65932Y183728D01*
X-66908Y185000D01*
X-60092Y185000D01*
X-61068Y183728D01*
X-62253Y180868D01*
X-62657Y177800D01*
X-62253Y174731D01*
X-61068Y171872D01*
X-59184Y169416D01*
X-56728Y167532D01*
X-53869Y166347D01*
X-50800Y165943D01*
X-47731Y166347D01*
X-44872Y167532D01*
X-42416Y169416D01*
X-40532Y171872D01*
X-39348Y174731D01*
X-38944Y177800D01*
X-39348Y180868D01*
X-40532Y183728D01*
X-41508Y185000D01*
X-34692D01*
X-35668Y183728D01*
X-36853Y180868D01*
X-37257Y177800D01*
X-36853Y174731D01*
X-35668Y171872D01*
X-33784Y169416D01*
X-31328Y167532D01*
X-28469Y166347D01*
X-25400Y165943D01*
X-22332Y166347D01*
X-21588Y166655D01*
X-21806Y165000D01*
X-21616Y163556D01*
X-22332Y163852D01*
X-25400Y164256D01*
X-28469Y163852D01*
X-31328Y162668D01*
X-33784Y160784D01*
X-35668Y158328D01*
X-36853Y155469D01*
X-37257Y152400D01*
X-36853Y149331D01*
X-35668Y146472D01*
X-33784Y144016D01*
X-31923Y142588D01*
X-34500D01*
X-39903Y147991D01*
X-39348Y149331D01*
X-38944Y152400D01*
X-39348Y155469D01*
X-40532Y158328D01*
X-42416Y160784D01*
X-44872Y162668D01*
X-47731Y163852D01*
X-50800Y164256D01*
X-53869Y163852D01*
X-56728Y162668D01*
X-59184Y160784D01*
X-61068Y158328D01*
X-62253Y155469D01*
X-62657Y152400D01*
X-62253Y149331D01*
X-61068Y146472D01*
X-59184Y144016D01*
X-57975Y143088D01*
X-60400D01*
X-65303Y147991D01*
X-64748Y149331D01*
X-64344Y152400D01*
X-64748Y155469D01*
X-65932Y158328D01*
X-67816Y160784D01*
X-70272Y162668D01*
X-73131Y163852D01*
X-76200Y164256D01*
X-79269Y163852D01*
X-82128Y162668D01*
X-84584Y160784D01*
X-86468Y158328D01*
X-87653Y155469D01*
X-88057Y152400D01*
X-87653Y149331D01*
X-86468Y146472D01*
X-84584Y144016D01*
X-82128Y142132D01*
X-79269Y140947D01*
X-76200Y140543D01*
X-73131Y140947D01*
X-71791Y141503D01*
X-65545Y135256D01*
X-64056Y134261D01*
X-62300Y133912D01*
X-61200D01*
X-61886Y133386D01*
X-62927Y132028D01*
X-63582Y130447D01*
X-63806Y128750D01*
X-63582Y127053D01*
X-62927Y125472D01*
X-61886Y124114D01*
X-60528Y123072D01*
X-58947Y122417D01*
X-57250Y122194D01*
X-55553Y122417D01*
X-53972Y123072D01*
X-52614Y124114D01*
X-52501Y124261D01*
X-51278Y123323D01*
X-49697Y122668D01*
X-48000Y122444D01*
X-46303Y122668D01*
X-44722Y123323D01*
X-43364Y124365D01*
X-42322Y125722D01*
X-42198Y126021D01*
X-41947Y125917D01*
X-40250Y125694D01*
X-38553Y125917D01*
X-36972Y126572D01*
X-35614Y127614D01*
X-34572Y128972D01*
X-33917Y130553D01*
X-33694Y132250D01*
X-33847Y133412D01*
X-19036D01*
X-19333Y132697D01*
X-19556Y131000D01*
X-19333Y129303D01*
X-18678Y127722D01*
X-17636Y126364D01*
X-16278Y125322D01*
X-14697Y124667D01*
X-13000Y124444D01*
X-11303Y124667D01*
X-9722Y125322D01*
X-8364Y126364D01*
X-7322Y127722D01*
X-6667Y129303D01*
X-6444Y131000D01*
X-6667Y132697D01*
X-6963Y133412D01*
X-3433D01*
X-3832Y132447D01*
X-4056Y130750D01*
X-3832Y129053D01*
X-3178Y127472D01*
X-2136Y126114D01*
X-778Y125072D01*
X803Y124417D01*
X2500Y124194D01*
X4197Y124417D01*
X5778Y125072D01*
X7136Y126114D01*
X8178Y127472D01*
X8833Y129053D01*
X9056Y130750D01*
X8936Y131666D01*
X8947Y131667D01*
X10528Y132322D01*
X11886Y133364D01*
X12928Y134722D01*
X13583Y136303D01*
X13714Y137298D01*
X18506Y132506D01*
X19994Y131511D01*
X21750Y131162D01*
X38817D01*
X38417Y130197D01*
X38194Y128500D01*
X38417Y126803D01*
X39024Y125338D01*
X14500D01*
X12744Y124989D01*
X11256Y123994D01*
X-6244Y106494D01*
X-7239Y105006D01*
X-7588Y103250D01*
Y101672D01*
X-7636Y101636D01*
X-8678Y100278D01*
X-9333Y98697D01*
X-9556Y97000D01*
X-9333Y95303D01*
X-8678Y93722D01*
X-7636Y92364D01*
X-6278Y91322D01*
X-4697Y90667D01*
X-3000Y90444D01*
X-1303Y90667D01*
X278Y91322D01*
X1636Y92364D01*
X2678Y93722D01*
X2683Y93735D01*
X4053Y93167D01*
X5750Y92944D01*
X7447Y93167D01*
X9028Y93822D01*
X9252Y93994D01*
X9572Y93222D01*
X10614Y91864D01*
X11972Y90822D01*
X13553Y90167D01*
X15250Y89944D01*
X16947Y90167D01*
X18528Y90822D01*
X19886Y91864D01*
X20928Y93222D01*
X21583Y94803D01*
X21806Y96500D01*
X21798Y96560D01*
X26013Y100774D01*
X25944Y100250D01*
X26168Y98553D01*
X26822Y96972D01*
X27864Y95614D01*
X29222Y94572D01*
X30803Y93917D01*
X32500Y93694D01*
X34197Y93917D01*
X35778Y94572D01*
X37136Y95614D01*
X38178Y96972D01*
X38833Y98553D01*
X39056Y100250D01*
X38833Y101947D01*
X38178Y103528D01*
X37136Y104886D01*
X36125Y105662D01*
X59550D01*
X58864Y105136D01*
X57822Y103778D01*
X57167Y102197D01*
X57041Y101235D01*
X56500Y101306D01*
X54803Y101083D01*
X53222Y100428D01*
X51864Y99386D01*
X50822Y98028D01*
X50167Y96447D01*
X50045Y95517D01*
X49750Y95556D01*
X48053Y95333D01*
X46472Y94678D01*
X45114Y93636D01*
X44072Y92278D01*
X43417Y90697D01*
X43194Y89000D01*
X43417Y87303D01*
X44072Y85722D01*
X45114Y84364D01*
X46472Y83322D01*
X48053Y82667D01*
X49750Y82444D01*
X51447Y82667D01*
X53028Y83322D01*
X54386Y84364D01*
X55427Y85722D01*
X56083Y87303D01*
X56205Y88233D01*
X56500Y88194D01*
X58197Y88417D01*
X59778Y89072D01*
X61136Y90114D01*
X62178Y91472D01*
X62833Y93053D01*
X62959Y94015D01*
X63500Y93944D01*
X65197Y94167D01*
X66778Y94822D01*
X68136Y95864D01*
X69177Y97222D01*
X69833Y98803D01*
X70056Y100500D01*
X69833Y102197D01*
X69177Y103778D01*
X68136Y105136D01*
X67450Y105662D01*
X128500D01*
X130256Y106011D01*
X131744Y107006D01*
X137690Y112952D01*
X137750Y112944D01*
X139447Y113168D01*
X141028Y113822D01*
X142386Y114864D01*
X143428Y116222D01*
X144083Y117803D01*
X144174Y118495D01*
X146472Y116732D01*
X149331Y115547D01*
X152400Y115143D01*
X155469Y115547D01*
X158328Y116732D01*
X160784Y118616D01*
X162668Y121072D01*
X163852Y123931D01*
X164256Y127000D01*
X163852Y130069D01*
X162668Y132928D01*
X160954Y135162D01*
X165150D01*
X166906Y135511D01*
X168394Y136506D01*
X173391Y141503D01*
X174731Y140947D01*
X177800Y140543D01*
X180868Y140947D01*
X183728Y142132D01*
X185000Y143108D01*
Y136292D01*
X183728Y137268D01*
X180868Y138452D01*
X177800Y138856D01*
X174731Y138452D01*
X171872Y137268D01*
X169416Y135384D01*
X167532Y132928D01*
X166347Y130069D01*
X165943Y127000D01*
X166347Y123931D01*
X167532Y121072D01*
X169416Y118616D01*
X171872Y116732D01*
X174731Y115547D01*
X177800Y115143D01*
X180868Y115547D01*
X183728Y116732D01*
X185000Y117708D01*
Y110892D01*
X183728Y111868D01*
X180868Y113052D01*
X177800Y113456D01*
X174731Y113052D01*
X171872Y111868D01*
X169416Y109984D01*
X167532Y107528D01*
X166347Y104669D01*
X165943Y101600D01*
X166347Y98531D01*
X167532Y95672D01*
X169416Y93216D01*
X171872Y91332D01*
X174731Y90147D01*
X177800Y89743D01*
X180868Y90147D01*
X183728Y91332D01*
X185000Y92308D01*
Y85492D01*
X183728Y86468D01*
X180868Y87652D01*
X177800Y88056D01*
X174731Y87652D01*
X173391Y87097D01*
X168244Y92244D01*
X166756Y93239D01*
X165000Y93588D01*
X161069D01*
X162668Y95672D01*
X163852Y98531D01*
X164256Y101600D01*
X163852Y104669D01*
X162668Y107528D01*
X160784Y109984D01*
X158328Y111868D01*
X155469Y113052D01*
X152400Y113456D01*
X149331Y113052D01*
X146472Y111868D01*
X144016Y109984D01*
X142132Y107528D01*
X140947Y104669D01*
X140543Y101600D01*
X140947Y98531D01*
X141089Y98189D01*
X140778Y98428D01*
X139197Y99083D01*
X137500Y99306D01*
X135803Y99083D01*
X134222Y98428D01*
X132864Y97386D01*
X131823Y96028D01*
X131167Y94447D01*
X130944Y92750D01*
X131167Y91053D01*
X131823Y89472D01*
X132864Y88114D01*
X134222Y87072D01*
X135803Y86417D01*
X137500Y86194D01*
X137560Y86202D01*
X138006Y85756D01*
X139494Y84761D01*
X141250Y84412D01*
X143884D01*
X142132Y82128D01*
X140947Y79268D01*
X140543Y76200D01*
X140947Y73131D01*
X142132Y70272D01*
X144016Y67816D01*
X146472Y65932D01*
X149331Y64747D01*
X152400Y64343D01*
X155469Y64747D01*
X158328Y65932D01*
X160784Y67816D01*
X162668Y70272D01*
X163852Y73131D01*
X164256Y76200D01*
X163852Y79268D01*
X162668Y82128D01*
X160915Y84412D01*
X163099D01*
X166903Y80609D01*
X166347Y79268D01*
X165943Y76200D01*
X166347Y73131D01*
X167532Y70272D01*
X169416Y67816D01*
X171872Y65932D01*
X174731Y64747D01*
X177800Y64343D01*
X180868Y64747D01*
X183728Y65932D01*
X185000Y66908D01*
Y60092D01*
X183728Y61068D01*
X180868Y62252D01*
X177800Y62656D01*
X174731Y62252D01*
X171872Y61068D01*
X169416Y59184D01*
X167532Y56728D01*
X166347Y53868D01*
X165943Y50800D01*
X166347Y47731D01*
X167532Y44872D01*
X169416Y42416D01*
X171872Y40532D01*
X174731Y39347D01*
X177800Y38943D01*
X180868Y39347D01*
X183728Y40532D01*
X185000Y41508D01*
Y34692D01*
X183728Y35668D01*
X180868Y36852D01*
X177800Y37256D01*
X174731Y36852D01*
X171872Y35668D01*
X169416Y33784D01*
X167532Y31328D01*
X166347Y28468D01*
X165943Y25400D01*
X166347Y22331D01*
X167532Y19472D01*
X169416Y17016D01*
X171872Y15132D01*
X174731Y13947D01*
X177800Y13543D01*
X180868Y13947D01*
X183728Y15132D01*
X185000Y16108D01*
Y9292D01*
X183728Y10268D01*
X180868Y11452D01*
X177800Y11856D01*
X174731Y11452D01*
X171872Y10268D01*
X169416Y8384D01*
X167532Y5928D01*
X166347Y3068D01*
X165943Y-0D01*
X166347Y-3069D01*
X167532Y-5928D01*
X169416Y-8384D01*
X171872Y-10268D01*
X174731Y-11453D01*
X177800Y-11857D01*
X180868Y-11453D01*
X183728Y-10268D01*
X185000Y-9292D01*
Y-16108D01*
X183728Y-15132D01*
X180868Y-13948D01*
X177800Y-13544D01*
X174731Y-13948D01*
X171872Y-15132D01*
X169416Y-17016D01*
X167532Y-19472D01*
X166347Y-22332D01*
X165943Y-25400D01*
X166347Y-28469D01*
X167532Y-31328D01*
X169416Y-33784D01*
X171872Y-35668D01*
X174731Y-36853D01*
X177800Y-37257D01*
X180868Y-36853D01*
X183728Y-35668D01*
X185000Y-34692D01*
Y-41508D01*
X183728Y-40532D01*
X180868Y-39348D01*
X177800Y-38944D01*
X174731Y-39348D01*
X173391Y-39903D01*
X168494Y-35006D01*
X167006Y-34011D01*
X165250Y-33662D01*
X160877D01*
X162668Y-31328D01*
X163852Y-28469D01*
X164092Y-26650D01*
X140708D01*
X140947Y-28469D01*
X142132Y-31328D01*
X144016Y-33784D01*
X144041Y-33803D01*
X142994Y-34011D01*
X141506Y-35006D01*
X121349Y-55162D01*
X85591D01*
X86078Y-54528D01*
X86733Y-52947D01*
X86956Y-51250D01*
X86733Y-49553D01*
X86078Y-47972D01*
X85036Y-46614D01*
X83678Y-45572D01*
X82097Y-44917D01*
X80400Y-44694D01*
X78703Y-44917D01*
X77122Y-45572D01*
X75764Y-46614D01*
X74722Y-47972D01*
X74067Y-49553D01*
X73844Y-51250D01*
X74067Y-52947D01*
X74722Y-54528D01*
X75209Y-55162D01*
X58900D01*
X58298Y-54559D01*
X58306Y-54500D01*
X58082Y-52803D01*
X57936Y-52449D01*
X58750Y-52556D01*
X60447Y-52333D01*
X62028Y-51678D01*
X63386Y-50636D01*
X64428Y-49278D01*
X65083Y-47697D01*
X65306Y-46000D01*
X65083Y-44303D01*
X64428Y-42722D01*
X63386Y-41364D01*
X62028Y-40322D01*
X60447Y-39667D01*
X58750Y-39444D01*
X57053Y-39667D01*
X55472Y-40322D01*
X54114Y-41364D01*
X53072Y-42722D01*
X52417Y-44303D01*
X52194Y-46000D01*
X52417Y-47697D01*
X52564Y-48051D01*
X51750Y-47944D01*
X50053Y-48167D01*
X48472Y-48822D01*
X47114Y-49864D01*
X46072Y-51222D01*
X45417Y-52803D01*
X45402Y-52914D01*
X42548Y-50060D01*
X42556Y-50000D01*
X42333Y-48303D01*
X41678Y-46722D01*
X40636Y-45364D01*
X39278Y-44322D01*
X38669Y-44070D01*
X80900Y-1838D01*
X89078D01*
X89114Y-1886D01*
X90472Y-2928D01*
X92053Y-3582D01*
X93750Y-3806D01*
X95447Y-3582D01*
X97028Y-2928D01*
X98386Y-1886D01*
X99428Y-528D01*
X100083Y1053D01*
X100306Y2750D01*
X100083Y4447D01*
X99428Y6028D01*
X98386Y7386D01*
X97028Y8428D01*
X95447Y9083D01*
X93750Y9306D01*
X92053Y9083D01*
X90472Y8428D01*
X89114Y7386D01*
X89078Y7338D01*
X79000D01*
D01*
X79000D01*
X78564Y7252D01*
X77244Y6989D01*
X77244Y6989D01*
X77244D01*
X76495Y6488D01*
X75756Y5994D01*
Y5994D01*
X75756D01*
X34003Y-35758D01*
X33677Y-34972D01*
X32636Y-33614D01*
X31278Y-32572D01*
X29697Y-31917D01*
X28000Y-31694D01*
X26303Y-31917D01*
X24722Y-32572D01*
X23364Y-33614D01*
X22322Y-34972D01*
X21761Y-36326D01*
X20778Y-35572D01*
X19197Y-34917D01*
X17500Y-34694D01*
X17440Y-34701D01*
X7495Y-24756D01*
X6006Y-23761D01*
X4250Y-23412D01*
X-58099D01*
X-58452Y-23060D01*
X-58444Y-23000D01*
X-58667Y-21303D01*
X-59322Y-19722D01*
X-60364Y-18364D01*
X-61722Y-17322D01*
X-63303Y-16667D01*
X-65000Y-16444D01*
X-66697Y-16667D01*
X-67662Y-17067D01*
Y-8922D01*
X-67614Y-8886D01*
X-66572Y-7528D01*
X-65917Y-5947D01*
X-65694Y-4250D01*
X-65917Y-2553D01*
X-66572Y-972D01*
X-67614Y386D01*
X-68972Y1428D01*
X-69405Y1607D01*
X-66599Y4412D01*
X-61250D01*
X-59494Y4761D01*
X-58006Y5756D01*
X-53755Y10006D01*
X-52761Y11494D01*
X-52412Y13250D01*
Y18328D01*
X-52364Y18364D01*
X-51322Y19722D01*
X-50667Y21303D01*
X-50444Y23000D01*
X-50667Y24697D01*
X-50781Y24973D01*
X-49303Y25167D01*
X-47722Y25822D01*
X-46364Y26864D01*
X-45322Y28222D01*
X-44667Y29803D01*
X-44444Y31500D01*
X-44575Y32500D01*
X-43303Y32667D01*
X-41722Y33322D01*
X-40364Y34364D01*
X-39322Y35722D01*
X-38667Y37303D01*
X-38444Y39000D01*
X-38667Y40697D01*
X-39088Y41713D01*
X-38222Y42072D01*
X-36864Y43114D01*
X-35823Y44472D01*
X-35168Y46053D01*
X-34944Y47750D01*
X-35168Y49447D01*
X-35500Y50250D01*
X-34722Y50573D01*
X-33364Y51614D01*
X-32322Y52972D01*
X-31667Y54553D01*
X-31444Y56250D01*
X-31667Y57947D01*
X-32322Y59528D01*
X-33364Y60886D01*
X-33714Y61154D01*
X-33114Y61614D01*
X-32073Y62972D01*
X-31418Y64553D01*
X-31194Y66250D01*
X-31418Y67947D01*
X-32073Y69528D01*
X-33114Y70886D01*
X-34472Y71928D01*
X-36053Y72583D01*
X-37750Y72806D01*
X-39279Y72605D01*
X-39194Y73250D01*
X-39418Y74947D01*
X-40072Y76528D01*
X-41114Y77886D01*
X-41162Y77922D01*
Y80500D01*
X-41511Y82256D01*
X-42506Y83744D01*
X-53961Y95199D01*
X-52303Y95417D01*
X-50722Y96073D01*
X-49364Y97114D01*
X-48322Y98472D01*
X-47667Y100053D01*
X-47444Y101750D01*
X-47667Y103447D01*
X-48322Y105028D01*
X-49364Y106386D01*
X-50722Y107428D01*
X-52303Y108083D01*
X-54000Y108306D01*
X-55697Y108083D01*
X-57278Y107428D01*
X-58636Y106386D01*
X-59678Y105028D01*
X-60333Y103447D01*
X-60551Y101790D01*
X-99572Y140810D01*
X-98532Y140947D01*
X-95672Y142132D01*
X-93216Y144016D01*
X-91332Y146472D01*
X-90148Y149331D01*
X-89744Y152400D01*
X-90148Y155469D01*
X-91332Y158328D01*
X-93216Y160784D01*
X-95672Y162668D01*
X-98532Y163852D01*
X-101600Y164256D01*
X-104669Y163852D01*
X-107528Y162668D01*
X-109984Y160784D01*
X-111868Y158328D01*
X-113053Y155469D01*
X-113457Y152400D01*
X-113053Y149331D01*
X-111868Y146472D01*
X-110039Y144088D01*
X-118561D01*
X-116732Y146472D01*
X-115548Y149331D01*
X-115144Y152400D01*
X-115548Y155469D01*
X-116732Y158328D01*
X-118616Y160784D01*
X-121072Y162668D01*
X-123932Y163852D01*
X-127000Y164256D01*
X-130069Y163852D01*
X-132928Y162668D01*
X-135384Y160784D01*
X-137268Y158328D01*
X-138453Y155469D01*
X-138857Y152400D01*
X-138453Y149331D01*
X-137268Y146472D01*
X-135439Y144088D01*
X-140645D01*
Y164155D01*
X-164155D01*
Y144088D01*
X-169361D01*
X-167532Y146472D01*
X-166348Y149331D01*
X-165944Y152400D01*
X-166348Y155469D01*
X-167532Y158328D01*
X-169416Y160784D01*
X-171872Y162668D01*
X-174732Y163852D01*
X-177800Y164256D01*
X-180869Y163852D01*
X-183728Y162668D01*
X-186184Y160784D01*
X-188068Y158328D01*
X-189253Y155469D01*
X-189657Y152400D01*
X-189253Y149331D01*
X-188068Y146472D01*
X-186239Y144088D01*
X-218640D01*
X-220396Y143739D01*
X-221884Y142745D01*
X-247507Y117121D01*
X-247710Y117205D01*
X-250190Y117532D01*
X-252670Y117205D01*
X-254981Y116248D01*
X-256966Y114725D01*
X-258488Y112741D01*
X-259446Y110430D01*
X-259772Y107950D01*
X-259446Y105470D01*
X-258488Y103159D01*
X-256966Y101174D01*
X-254981Y99652D01*
X-252670Y98694D01*
X-250190Y98368D01*
X-247710Y98694D01*
X-245399Y99652D01*
X-243415Y101174D01*
X-241892Y103159D01*
X-240935Y105470D01*
X-240608Y107950D01*
X-240935Y110430D01*
X-241019Y110633D01*
X-216739Y134912D01*
X-186546D01*
X-188068Y132928D01*
X-189253Y130069D01*
X-189657Y127000D01*
X-189253Y123931D01*
X-188068Y121072D01*
X-186546Y119088D01*
X-218240D01*
X-219996Y118739D01*
X-221484Y117744D01*
X-247507Y91721D01*
X-247710Y91805D01*
X-250190Y92132D01*
X-252670Y91805D01*
X-254981Y90848D01*
X-256966Y89325D01*
X-258488Y87341D01*
X-259446Y85030D01*
X-259772Y82550D01*
X-259446Y80070D01*
X-258488Y77759D01*
X-257590Y76588D01*
X-263140D01*
X-266419Y79867D01*
X-266335Y80070D01*
X-266008Y82550D01*
X-266335Y85030D01*
X-267292Y87341D01*
X-268815Y89325D01*
X-270799Y90848D01*
X-273110Y91805D01*
X-275590Y92132D01*
X-278070Y91805D01*
X-280381Y90848D01*
X-282366Y89325D01*
X-283412Y87962D01*
Y94960D01*
X-283761Y96716D01*
X-284756Y98204D01*
X-291819Y105267D01*
X-291735Y105470D01*
X-291408Y107950D01*
X-291735Y110430D01*
X-292692Y112741D01*
X-294215Y114725D01*
X-296199Y116248D01*
X-298510Y117205D01*
X-300990Y117532D01*
X-303470Y117205D01*
X-305781Y116248D01*
X-307766Y114725D01*
X-309288Y112741D01*
X-310246Y110430D01*
X-310572Y107950D01*
X-310246Y105470D01*
X-309288Y103159D01*
X-307766Y101174D01*
X-305781Y99652D01*
X-303470Y98694D01*
X-300990Y98368D01*
X-298510Y98694D01*
X-298307Y98778D01*
X-292588Y93059D01*
Y87091D01*
X-292692Y87341D01*
X-294215Y89325D01*
X-296199Y90848D01*
X-298510Y91805D01*
X-300990Y92132D01*
X-303470Y91805D01*
X-305781Y90848D01*
X-307766Y89325D01*
X-309288Y87341D01*
X-310246Y85030D01*
X-310572Y82550D01*
X-310246Y80070D01*
X-309288Y77759D01*
X-307766Y75774D01*
X-305781Y74252D01*
X-303470Y73294D01*
X-300990Y72968D01*
X-298510Y73294D01*
X-298307Y73378D01*
X-268435Y43506D01*
X-266946Y42511D01*
X-265190Y42162D01*
X-198651D01*
X-191495Y35006D01*
X-190006Y34011D01*
X-188250Y33662D01*
X-186277D01*
X-188068Y31328D01*
X-189253Y28468D01*
X-189566Y26088D01*
X-217160D01*
X-216492Y26959D01*
X-215535Y29270D01*
X-215208Y31750D01*
X-215535Y34230D01*
X-216492Y36541D01*
X-218015Y38525D01*
X-219999Y40048D01*
X-222310Y41005D01*
X-224790Y41332D01*
X-227270Y41005D01*
X-229581Y40048D01*
X-231566Y38525D01*
X-233088Y36541D01*
X-234046Y34230D01*
X-234372Y31750D01*
X-234046Y29270D01*
X-233088Y26959D01*
X-232420Y26088D01*
X-242560D01*
X-241892Y26959D01*
X-240935Y29270D01*
X-240608Y31750D01*
X-240935Y34230D01*
X-241892Y36541D01*
X-243415Y38525D01*
X-245399Y40048D01*
X-247710Y41005D01*
X-250190Y41332D01*
X-252670Y41005D01*
X-254981Y40048D01*
X-256966Y38525D01*
X-258488Y36541D01*
X-259446Y34230D01*
X-259772Y31750D01*
X-259446Y29270D01*
X-258488Y26959D01*
X-257820Y26088D01*
X-314240D01*
X-317219Y29067D01*
X-317135Y29270D01*
X-316808Y31750D01*
X-317135Y34230D01*
X-318092Y36541D01*
X-319615Y38525D01*
X-321599Y40048D01*
X-323910Y41005D01*
X-326390Y41332D01*
X-328870Y41005D01*
X-331181Y40048D01*
X-333166Y38525D01*
X-334688Y36541D01*
X-335646Y34230D01*
X-335972Y31750D01*
X-335646Y29270D01*
X-334688Y26959D01*
X-333166Y24974D01*
X-331181Y23452D01*
X-328870Y22494D01*
X-326390Y22168D01*
X-323910Y22494D01*
X-323707Y22578D01*
X-322217Y21088D01*
X-341640D01*
X-343396Y20739D01*
X-344884Y19744D01*
X-349107Y15521D01*
X-349310Y15605D01*
X-351790Y15932D01*
X-354270Y15605D01*
X-356581Y14648D01*
X-358566Y13125D01*
X-359662Y11697D01*
Y17390D01*
X-354473Y22578D01*
X-354270Y22494D01*
X-351790Y22168D01*
X-349310Y22494D01*
X-346999Y23452D01*
X-345015Y24974D01*
X-343492Y26959D01*
X-342535Y29270D01*
X-342208Y31750D01*
X-342535Y34230D01*
X-343492Y36541D01*
X-345015Y38525D01*
X-346999Y40048D01*
X-349310Y41005D01*
X-351790Y41332D01*
X-354270Y41005D01*
X-356581Y40048D01*
X-358566Y38525D01*
X-360088Y36541D01*
X-361046Y34230D01*
X-361372Y31750D01*
X-361046Y29270D01*
X-360962Y29067D01*
X-367494Y22534D01*
X-368489Y21046D01*
X-368838Y19290D01*
Y2000D01*
X-368489Y244D01*
X-367494Y-1244D01*
X-361244Y-7494D01*
X-359756Y-8489D01*
X-358000Y-8838D01*
X-348067D01*
X-349107Y-9879D01*
X-349310Y-9795D01*
X-351790Y-9468D01*
X-354270Y-9795D01*
X-356581Y-10752D01*
X-358566Y-12275D01*
X-360088Y-14259D01*
X-361046Y-16570D01*
X-361372Y-19050D01*
X-361046Y-21530D01*
X-360088Y-23841D01*
X-358566Y-25826D01*
X-356581Y-27348D01*
X-354270Y-28306D01*
X-351790Y-28632D01*
X-349310Y-28306D01*
X-346999Y-27348D01*
X-345015Y-25826D01*
X-343492Y-23841D01*
X-342535Y-21530D01*
X-342208Y-19050D01*
X-342535Y-16570D01*
X-342619Y-16367D01*
X-339590Y-13338D01*
X-333982D01*
X-334688Y-14259D01*
X-335646Y-16570D01*
X-335972Y-19050D01*
X-335646Y-21530D01*
X-334688Y-23841D01*
X-333166Y-25826D01*
X-331181Y-27348D01*
X-328870Y-28306D01*
X-326390Y-28632D01*
X-323910Y-28306D01*
X-321599Y-27348D01*
X-319615Y-25826D01*
X-318092Y-23841D01*
X-317135Y-21530D01*
X-316808Y-19050D01*
X-317135Y-16570D01*
X-318092Y-14259D01*
X-318799Y-13338D01*
X-310490D01*
Y-28550D01*
X-291490D01*
Y-13338D01*
X-283182D01*
X-283888Y-14259D01*
X-284846Y-16570D01*
X-285172Y-19050D01*
X-284846Y-21530D01*
X-283888Y-23841D01*
X-282366Y-25826D01*
X-280381Y-27348D01*
X-278070Y-28306D01*
X-275590Y-28632D01*
X-273110Y-28306D01*
X-272907Y-28222D01*
X-267088Y-34041D01*
Y-40151D01*
X-267292Y-39659D01*
X-268815Y-37675D01*
X-270799Y-36152D01*
X-273110Y-35195D01*
X-275590Y-34868D01*
X-278070Y-35195D01*
X-280381Y-36152D01*
X-282366Y-37675D01*
X-283888Y-39659D01*
X-284846Y-41970D01*
X-285172Y-44450D01*
X-284846Y-46930D01*
X-283888Y-49241D01*
X-282366Y-51226D01*
X-280381Y-52748D01*
X-278070Y-53706D01*
X-275590Y-54032D01*
X-273110Y-53706D01*
X-272907Y-53622D01*
X-234284Y-92245D01*
X-232796Y-93239D01*
X-231040Y-93588D01*
X-186469D01*
X-188068Y-95672D01*
X-189253Y-98532D01*
X-189657Y-101600D01*
X-189253Y-104669D01*
X-188068Y-107528D01*
X-186184Y-109984D01*
X-183728Y-111868D01*
X-180869Y-113053D01*
X-177800Y-113457D01*
X-174732Y-113053D01*
X-171872Y-111868D01*
X-169416Y-109984D01*
X-167532Y-107528D01*
X-166348Y-104669D01*
X-165944Y-101600D01*
X-166348Y-98532D01*
X-167532Y-95672D01*
X-169131Y-93588D01*
X-166901D01*
X-163298Y-97191D01*
X-163853Y-98532D01*
X-164257Y-101600D01*
X-163853Y-104669D01*
X-162668Y-107528D01*
X-160784Y-109984D01*
X-158328Y-111868D01*
X-155469Y-113053D01*
X-152400Y-113457D01*
X-149332Y-113053D01*
X-146472Y-111868D01*
X-144016Y-109984D01*
X-142132Y-107528D01*
X-140948Y-104669D01*
X-140544Y-101600D01*
X-140948Y-98532D01*
X-142132Y-95672D01*
X-144016Y-93216D01*
X-146472Y-91332D01*
X-149332Y-90148D01*
X-152400Y-89744D01*
X-155469Y-90148D01*
X-156809Y-90703D01*
X-161756Y-85756D01*
X-163244Y-84761D01*
X-165000Y-84412D01*
X-169285D01*
X-167532Y-82128D01*
X-166348Y-79269D01*
X-165944Y-76200D01*
X-166348Y-73131D01*
X-167532Y-70272D01*
X-169416Y-67816D01*
X-171872Y-65932D01*
X-174732Y-64748D01*
X-177800Y-64344D01*
X-180869Y-64748D01*
X-183728Y-65932D01*
X-186184Y-67816D01*
X-188068Y-70272D01*
X-188623Y-71612D01*
X-233149D01*
X-250811Y-53950D01*
X-250190Y-54032D01*
X-247710Y-53706D01*
X-245399Y-52748D01*
X-243415Y-51226D01*
X-241892Y-49241D01*
X-240935Y-46930D01*
X-240608Y-44450D01*
X-240935Y-41970D01*
X-240945Y-41946D01*
X-240506Y-42239D01*
X-238750Y-42588D01*
X-186316D01*
X-188068Y-44872D01*
X-189253Y-47731D01*
X-189657Y-50800D01*
X-189253Y-53869D01*
X-188068Y-56728D01*
X-186184Y-59184D01*
X-183728Y-61068D01*
X-180869Y-62253D01*
X-177800Y-62657D01*
X-174732Y-62253D01*
X-171872Y-61068D01*
X-169416Y-59184D01*
X-167532Y-56728D01*
X-166348Y-53869D01*
X-165944Y-50800D01*
X-166348Y-47731D01*
X-167532Y-44872D01*
X-169285Y-42588D01*
X-167101D01*
X-163298Y-46391D01*
X-163853Y-47731D01*
X-164257Y-50800D01*
X-163853Y-53869D01*
X-162668Y-56728D01*
X-160784Y-59184D01*
X-158328Y-61068D01*
X-155469Y-62253D01*
X-152400Y-62657D01*
X-149332Y-62253D01*
X-146472Y-61068D01*
X-144016Y-59184D01*
X-142132Y-56728D01*
X-140948Y-53869D01*
X-140544Y-50800D01*
X-140948Y-47731D01*
X-142132Y-44872D01*
X-144016Y-42416D01*
X-146472Y-40532D01*
X-149332Y-39348D01*
X-152400Y-38944D01*
X-155469Y-39348D01*
X-156809Y-39903D01*
X-161956Y-34756D01*
X-163444Y-33761D01*
X-165200Y-33412D01*
X-169131D01*
X-167532Y-31328D01*
X-166348Y-28469D01*
X-165944Y-25400D01*
X-166348Y-22332D01*
X-167532Y-19472D01*
X-169416Y-17016D01*
X-171872Y-15132D01*
X-174732Y-13948D01*
X-177800Y-13544D01*
X-180869Y-13948D01*
X-183728Y-15132D01*
X-186184Y-17016D01*
X-188068Y-19472D01*
X-189253Y-22332D01*
X-189657Y-25400D01*
X-189253Y-28469D01*
X-188068Y-31328D01*
X-186469Y-33412D01*
X-236849D01*
X-241006Y-29256D01*
X-242494Y-28261D01*
X-244250Y-27912D01*
X-246759D01*
X-245399Y-27348D01*
X-243415Y-25826D01*
X-241892Y-23841D01*
X-240935Y-21530D01*
X-240608Y-19050D01*
X-240935Y-16570D01*
X-241892Y-14259D01*
X-243415Y-12275D01*
X-245399Y-10752D01*
X-247710Y-9795D01*
X-250190Y-9468D01*
X-252670Y-9795D01*
X-254981Y-10752D01*
X-256966Y-12275D01*
X-258162Y-13834D01*
Y-13750D01*
X-258511Y-11994D01*
X-259506Y-10506D01*
X-261173Y-8838D01*
X-185592D01*
X-183728Y-10268D01*
X-180869Y-11453D01*
X-177800Y-11857D01*
X-174732Y-11453D01*
X-171872Y-10268D01*
X-169416Y-8384D01*
X-167532Y-5928D01*
X-166348Y-3069D01*
X-165944Y-0D01*
X-166348Y3068D01*
X-167532Y5928D01*
X-169246Y8162D01*
X-165050D01*
X-163294Y8511D01*
X-161806Y9506D01*
X-156809Y14503D01*
X-155469Y13947D01*
X-152400Y13543D01*
X-149332Y13947D01*
X-146472Y15132D01*
X-144016Y17016D01*
X-142132Y19472D01*
X-140948Y22331D01*
X-140544Y25400D01*
X-140948Y28468D01*
X-142132Y31328D01*
X-143923Y33662D01*
X-118750D01*
X-117088Y33993D01*
Y-90699D01*
X-116739Y-92455D01*
X-116424Y-92926D01*
X-116778Y-93072D01*
X-118136Y-94114D01*
X-119178Y-95472D01*
X-119833Y-97053D01*
X-120056Y-98750D01*
X-119833Y-100447D01*
X-119178Y-102028D01*
X-118136Y-103386D01*
X-116778Y-104428D01*
X-115197Y-105083D01*
X-113500Y-105306D01*
X-111803Y-105083D01*
X-110222Y-104428D01*
X-108864Y-103386D01*
X-107822Y-102028D01*
X-107775Y-101913D01*
X-67838Y-141850D01*
Y-144000D01*
X-70272Y-142132D01*
X-73131Y-140948D01*
X-76200Y-140544D01*
X-79269Y-140948D01*
X-82128Y-142132D01*
X-84584Y-144016D01*
X-86468Y-146472D01*
X-87653Y-149332D01*
X-88057Y-152400D01*
X-87653Y-155469D01*
X-86468Y-158328D01*
X-84584Y-160784D01*
X-82128Y-162668D01*
X-79269Y-163853D01*
X-76200Y-164257D01*
X-73131Y-163853D01*
X-70272Y-162668D01*
X-67838Y-160801D01*
Y-165350D01*
X-67489Y-167106D01*
X-66494Y-168595D01*
X-61698Y-173391D01*
X-62253Y-174732D01*
X-62657Y-177800D01*
X-62253Y-180869D01*
X-61068Y-183728D01*
X-60092Y-185000D01*
X-66908D01*
X-65932Y-183728D01*
X-64748Y-180869D01*
X-64344Y-177800D01*
X-64748Y-174732D01*
X-65932Y-171872D01*
X-67816Y-169416D01*
X-70272Y-167532D01*
X-73131Y-166348D01*
X-76200Y-165944D01*
X-79269Y-166348D01*
X-82128Y-167532D01*
X-84584Y-169416D01*
X-86468Y-171872D01*
X-87653Y-174732D01*
X-88057Y-177800D01*
X-87653Y-180869D01*
X-86468Y-183728D01*
X-85492Y-185000D01*
X-92308D01*
X-91332Y-183728D01*
X-90148Y-180869D01*
X-89744Y-177800D01*
X-90148Y-174732D01*
X-91332Y-171872D01*
X-93216Y-169416D01*
X-95672Y-167532D01*
X-98532Y-166348D01*
X-101600Y-165944D01*
X-104669Y-166348D01*
X-107528Y-167532D01*
X-109984Y-169416D01*
X-111868Y-171872D01*
X-113053Y-174732D01*
X-113457Y-177800D01*
X-113053Y-180869D01*
X-111868Y-183728D01*
X-110892Y-185000D01*
X-117708D01*
X-116732Y-183728D01*
X-115548Y-180869D01*
X-115144Y-177800D01*
X-115548Y-174732D01*
X-116732Y-171872D01*
X-118616Y-169416D01*
X-121072Y-167532D01*
X-123932Y-166348D01*
X-127000Y-165944D01*
X-130069Y-166348D01*
X-132928Y-167532D01*
X-135384Y-169416D01*
X-137268Y-171872D01*
X-138453Y-174732D01*
X-138857Y-177800D01*
X-138453Y-180869D01*
X-137268Y-183728D01*
X-136292Y-185000D01*
X-143108D01*
X-142132Y-183728D01*
X-140948Y-180869D01*
X-140544Y-177800D01*
X-140948Y-174732D01*
X-142132Y-171872D01*
X-144016Y-169416D01*
X-146472Y-167532D01*
X-149332Y-166348D01*
X-152400Y-165944D01*
X-155469Y-166348D01*
X-158328Y-167532D01*
X-160784Y-169416D01*
X-162668Y-171872D01*
X-163853Y-174732D01*
X-164257Y-177800D01*
X-163853Y-180869D01*
X-162668Y-183728D01*
X-161692Y-185000D01*
X-168508D01*
X-167532Y-183728D01*
X-166348Y-180869D01*
X-165944Y-177800D01*
X-166348Y-174732D01*
X-167532Y-171872D01*
X-169416Y-169416D01*
X-171872Y-167532D01*
X-174732Y-166348D01*
X-177800Y-165944D01*
X-180869Y-166348D01*
X-183728Y-167532D01*
X-186184Y-169416D01*
X-188068Y-171872D01*
X-189253Y-174732D01*
X-189657Y-177800D01*
X-189253Y-180869D01*
X-188068Y-183728D01*
X-187092Y-185000D01*
X-375000D01*
X-375000Y177500D01*
X-367500Y185000D01*
X-187092Y185000D01*
D02*
G37*
G36*
X16108Y185000D02*
X15132Y183728D01*
X13947Y180868D01*
X13543Y177800D01*
X13947Y174731D01*
X15132Y171872D01*
X17016Y169416D01*
X19472Y167532D01*
X22331Y166347D01*
X25400Y165943D01*
X28468Y166347D01*
X31328Y167532D01*
X33784Y169416D01*
X35668Y171872D01*
X36852Y174731D01*
X37256Y177800D01*
X36852Y180868D01*
X35668Y183728D01*
X34692Y185000D01*
X41508D01*
X40532Y183728D01*
X39347Y180868D01*
X38943Y177800D01*
X39347Y174731D01*
X40532Y171872D01*
X42416Y169416D01*
X44872Y167532D01*
X47731Y166347D01*
X50800Y165943D01*
X53868Y166347D01*
X56728Y167532D01*
X59184Y169416D01*
X61068Y171872D01*
X62252Y174731D01*
X62656Y177800D01*
X62252Y180868D01*
X61068Y183728D01*
X60092Y185000D01*
X66908D01*
X65932Y183728D01*
X64747Y180868D01*
X64343Y177800D01*
X64747Y174731D01*
X65932Y171872D01*
X67816Y169416D01*
X70272Y167532D01*
X73131Y166347D01*
X76200Y165943D01*
X79268Y166347D01*
X82128Y167532D01*
X84584Y169416D01*
X86468Y171872D01*
X87652Y174731D01*
X88056Y177800D01*
X87652Y180868D01*
X86468Y183728D01*
X85492Y185000D01*
X92308D01*
X91332Y183728D01*
X90147Y180868D01*
X89743Y177800D01*
X90147Y174731D01*
X91332Y171872D01*
X93216Y169416D01*
X95672Y167532D01*
X98531Y166347D01*
X101600Y165943D01*
X104669Y166347D01*
X107528Y167532D01*
X109984Y169416D01*
X111868Y171872D01*
X113052Y174731D01*
X113456Y177800D01*
X113052Y180868D01*
X111868Y183728D01*
X110892Y185000D01*
X117708Y185000D01*
X116732Y183728D01*
X115547Y180868D01*
X115143Y177800D01*
X115547Y174731D01*
X116732Y171872D01*
X118616Y169416D01*
X121072Y167532D01*
X123931Y166347D01*
X127000Y165943D01*
X130069Y166347D01*
X132928Y167532D01*
X135384Y169416D01*
X137268Y171872D01*
X138452Y174731D01*
X138856Y177800D01*
X138452Y180868D01*
X137268Y183728D01*
X136292Y185000D01*
X143108Y185000D01*
X142132Y183728D01*
X140947Y180868D01*
X140543Y177800D01*
X140947Y174731D01*
X142132Y171872D01*
X144016Y169416D01*
X146472Y167532D01*
X149331Y166347D01*
X152400Y165943D01*
X155469Y166347D01*
X158328Y167532D01*
X160784Y169416D01*
X162668Y171872D01*
X163852Y174731D01*
X164256Y177800D01*
X163852Y180868D01*
X162668Y183728D01*
X161692Y185000D01*
X168508D01*
X167532Y183728D01*
X166347Y180868D01*
X165943Y177800D01*
X166347Y174731D01*
X167532Y171872D01*
X169416Y169416D01*
X171872Y167532D01*
X174731Y166347D01*
X177800Y165943D01*
X180868Y166347D01*
X183728Y167532D01*
X185000Y168508D01*
Y161692D01*
X183728Y162668D01*
X180868Y163852D01*
X177800Y164256D01*
X174731Y163852D01*
X171872Y162668D01*
X169416Y160784D01*
X167532Y158328D01*
X166347Y155469D01*
X165943Y152400D01*
X166347Y149331D01*
X166903Y147991D01*
X163250Y144338D01*
X161031D01*
X162668Y146472D01*
X163852Y149331D01*
X164256Y152400D01*
X163852Y155469D01*
X162668Y158328D01*
X160784Y160784D01*
X158328Y162668D01*
X155469Y163852D01*
X152400Y164256D01*
X149331Y163852D01*
X146472Y162668D01*
X144016Y160784D01*
X142132Y158328D01*
X140947Y155469D01*
X140543Y152400D01*
X140947Y149331D01*
X141503Y147991D01*
X118849Y125338D01*
X77577D01*
X83150Y130912D01*
X97078D01*
X97114Y130864D01*
X98472Y129823D01*
X100053Y129167D01*
X101750Y128944D01*
X103447Y129167D01*
X105028Y129823D01*
X106386Y130864D01*
X107428Y132222D01*
X108083Y133803D01*
X108306Y135500D01*
X108083Y137197D01*
X107428Y138778D01*
X106386Y140136D01*
X105097Y141125D01*
X107528Y142132D01*
X109984Y144016D01*
X111868Y146472D01*
X113052Y149331D01*
X113456Y152400D01*
X113052Y155469D01*
X111868Y158328D01*
X109984Y160784D01*
X107528Y162668D01*
X104669Y163852D01*
X101600Y164256D01*
X98531Y163852D01*
X95672Y162668D01*
X93216Y160784D01*
X91332Y158328D01*
X90147Y155469D01*
X89743Y152400D01*
X90147Y149331D01*
X91332Y146472D01*
X93216Y144016D01*
X95672Y142132D01*
X98298Y141044D01*
X97114Y140136D01*
X97078Y140088D01*
X81250D01*
X81250Y140088D01*
X81250Y140088D01*
X80435Y139926D01*
X79494Y139739D01*
X79494Y139739D01*
X79494Y139739D01*
X78746Y139239D01*
X78005Y138744D01*
X78005Y138744D01*
X78005Y138744D01*
X77077Y137815D01*
X76678Y138778D01*
X75636Y140136D01*
X74878Y140717D01*
X76200Y140543D01*
X79268Y140947D01*
X82128Y142132D01*
X84584Y144016D01*
X86468Y146472D01*
X87652Y149331D01*
X88056Y152400D01*
X87652Y155469D01*
X86468Y158328D01*
X84584Y160784D01*
X82128Y162668D01*
X79268Y163852D01*
X76200Y164256D01*
X73131Y163852D01*
X70272Y162668D01*
X67816Y160784D01*
X65932Y158328D01*
X64747Y155469D01*
X64343Y152400D01*
X64747Y149331D01*
X65932Y146472D01*
X67816Y144016D01*
X70272Y142132D01*
X70586Y142002D01*
X69303Y141833D01*
X67722Y141178D01*
X66628Y140338D01*
X23650D01*
X23149Y140840D01*
X25400Y140543D01*
X28468Y140947D01*
X31328Y142132D01*
X33784Y144016D01*
X35668Y146472D01*
X36852Y149331D01*
X37256Y152400D01*
X36852Y155469D01*
X35668Y158328D01*
X33784Y160784D01*
X31328Y162668D01*
X28468Y163852D01*
X25400Y164256D01*
X22331Y163852D01*
X19472Y162668D01*
X17334Y161028D01*
X17239Y161506D01*
X17239Y161506D01*
X17239Y161506D01*
X16739Y162255D01*
X16244Y162994D01*
X16244Y162994D01*
X16244Y162995D01*
X10994Y168244D01*
X10186Y168784D01*
X9506Y169239D01*
X9506Y169239D01*
X9506Y169239D01*
X8675Y169404D01*
X8414Y169456D01*
X10268Y171872D01*
X11452Y174731D01*
X11856Y177800D01*
X11452Y180868D01*
X10268Y183728D01*
X9292Y185000D01*
X16108D01*
D02*
G37*
%LPC*%
G36*
X151150Y-64508D02*
X149331Y-64748D01*
X146472Y-65932D01*
X144016Y-67816D01*
X142132Y-70272D01*
X140947Y-73131D01*
X140708Y-74950D01*
X151150D01*
Y-64508D01*
D02*
G37*
G36*
X153650D02*
Y-74950D01*
X164092D01*
X163852Y-73131D01*
X162668Y-70272D01*
X160784Y-67816D01*
X158328Y-65932D01*
X155469Y-64748D01*
X153650Y-64508D01*
D02*
G37*
G36*
Y-13708D02*
Y-24150D01*
X164092D01*
X163852Y-22332D01*
X162668Y-19472D01*
X160784Y-17016D01*
X158328Y-15132D01*
X155469Y-13948D01*
X153650Y-13708D01*
D02*
G37*
G36*
X-326390Y-34868D02*
X-328870Y-35195D01*
X-331181Y-36152D01*
X-333166Y-37675D01*
X-334688Y-39659D01*
X-335646Y-41970D01*
X-335972Y-44450D01*
X-335646Y-46930D01*
X-334688Y-49241D01*
X-333166Y-51226D01*
X-331181Y-52748D01*
X-328870Y-53706D01*
X-326390Y-54032D01*
X-323910Y-53706D01*
X-321599Y-52748D01*
X-319615Y-51226D01*
X-318092Y-49241D01*
X-317135Y-46930D01*
X-316808Y-44450D01*
X-317135Y-41970D01*
X-318092Y-39659D01*
X-319615Y-37675D01*
X-321599Y-36152D01*
X-323910Y-35195D01*
X-326390Y-34868D01*
D02*
G37*
G36*
X-151150Y-64508D02*
Y-74950D01*
X-140708D01*
X-140948Y-73131D01*
X-142132Y-70272D01*
X-144016Y-67816D01*
X-146472Y-65932D01*
X-149332Y-64748D01*
X-151150Y-64508D01*
D02*
G37*
G36*
X-152400Y-13544D02*
X-155469Y-13948D01*
X-158328Y-15132D01*
X-160784Y-17016D01*
X-162668Y-19472D01*
X-163853Y-22332D01*
X-164257Y-25400D01*
X-163853Y-28469D01*
X-162668Y-31328D01*
X-160784Y-33784D01*
X-158328Y-35668D01*
X-155469Y-36853D01*
X-152400Y-37257D01*
X-149332Y-36853D01*
X-146472Y-35668D01*
X-144016Y-33784D01*
X-142132Y-31328D01*
X-140948Y-28469D01*
X-140544Y-25400D01*
X-140948Y-22332D01*
X-142132Y-19472D01*
X-144016Y-17016D01*
X-146472Y-15132D01*
X-149332Y-13948D01*
X-152400Y-13544D01*
D02*
G37*
G36*
X-224790Y-9468D02*
X-227270Y-9795D01*
X-229581Y-10752D01*
X-231566Y-12275D01*
X-233088Y-14259D01*
X-234046Y-16570D01*
X-234372Y-19050D01*
X-234046Y-21530D01*
X-233088Y-23841D01*
X-231566Y-25826D01*
X-229581Y-27348D01*
X-227270Y-28306D01*
X-224790Y-28632D01*
X-222310Y-28306D01*
X-219999Y-27348D01*
X-218015Y-25826D01*
X-216492Y-23841D01*
X-215535Y-21530D01*
X-215208Y-19050D01*
X-215535Y-16570D01*
X-216492Y-14259D01*
X-218015Y-12275D01*
X-219999Y-10752D01*
X-222310Y-9795D01*
X-224790Y-9468D01*
D02*
G37*
G36*
X-300990Y-34868D02*
X-303470Y-35195D01*
X-305781Y-36152D01*
X-307766Y-37675D01*
X-309288Y-39659D01*
X-310246Y-41970D01*
X-310572Y-44450D01*
X-310246Y-46930D01*
X-309288Y-49241D01*
X-307766Y-51226D01*
X-305781Y-52748D01*
X-303470Y-53706D01*
X-300990Y-54032D01*
X-298510Y-53706D01*
X-296199Y-52748D01*
X-294215Y-51226D01*
X-292692Y-49241D01*
X-291735Y-46930D01*
X-291408Y-44450D01*
X-291735Y-41970D01*
X-292692Y-39659D01*
X-294215Y-37675D01*
X-296199Y-36152D01*
X-298510Y-35195D01*
X-300990Y-34868D01*
D02*
G37*
G36*
X151150Y-13708D02*
X149331Y-13948D01*
X146472Y-15132D01*
X144016Y-17016D01*
X142132Y-19472D01*
X140947Y-22332D01*
X140708Y-24150D01*
X151150D01*
Y-13708D01*
D02*
G37*
G36*
X80500Y-22194D02*
X78803Y-22417D01*
X77222Y-23072D01*
X75864Y-24114D01*
X74822Y-25472D01*
X74167Y-27053D01*
X73944Y-28750D01*
X74167Y-30447D01*
X74822Y-32028D01*
X75864Y-33386D01*
X77222Y-34428D01*
X78803Y-35083D01*
X80500Y-35306D01*
X81665Y-35152D01*
X81671Y-35199D01*
X82326Y-36780D01*
X83368Y-38138D01*
X84726Y-39179D01*
X86307Y-39834D01*
X88002Y-40058D01*
X87944Y-40500D01*
X88167Y-42197D01*
X88822Y-43778D01*
X89864Y-45136D01*
X91222Y-46178D01*
X92803Y-46833D01*
X94500Y-47056D01*
X96197Y-46833D01*
X97778Y-46178D01*
X99136Y-45136D01*
X100178Y-43778D01*
X100833Y-42197D01*
X101056Y-40500D01*
X100833Y-38803D01*
X100178Y-37222D01*
X99136Y-35864D01*
X97778Y-34822D01*
X96197Y-34167D01*
X94502Y-33944D01*
X94560Y-33502D01*
X94337Y-31805D01*
X93682Y-30224D01*
X92640Y-28866D01*
X91282Y-27824D01*
X89701Y-27169D01*
X88004Y-26946D01*
X86839Y-27099D01*
X86833Y-27053D01*
X86178Y-25472D01*
X85136Y-24114D01*
X83778Y-23072D01*
X82197Y-22417D01*
X80500Y-22194D01*
D02*
G37*
G36*
X-101600Y-140544D02*
X-104669Y-140948D01*
X-107528Y-142132D01*
X-109984Y-144016D01*
X-111868Y-146472D01*
X-113053Y-149332D01*
X-113457Y-152400D01*
X-113053Y-155469D01*
X-111868Y-158328D01*
X-109984Y-160784D01*
X-107528Y-162668D01*
X-104669Y-163853D01*
X-101600Y-164257D01*
X-98532Y-163853D01*
X-95672Y-162668D01*
X-93216Y-160784D01*
X-91332Y-158328D01*
X-90148Y-155469D01*
X-89744Y-152400D01*
X-90148Y-149332D01*
X-91332Y-146472D01*
X-93216Y-144016D01*
X-95672Y-142132D01*
X-98532Y-140948D01*
X-101600Y-140544D01*
D02*
G37*
G36*
X-89908Y176550D02*
X-100350D01*
Y166108D01*
X-98532Y166347D01*
X-95672Y167532D01*
X-93216Y169416D01*
X-91332Y171872D01*
X-90148Y174731D01*
X-89908Y176550D01*
D02*
G37*
G36*
X-102850D02*
X-113292D01*
X-113053Y174731D01*
X-111868Y171872D01*
X-109984Y169416D01*
X-107528Y167532D01*
X-104669Y166347D01*
X-102850Y166108D01*
Y176550D01*
D02*
G37*
G36*
X-177800Y-140544D02*
X-180869Y-140948D01*
X-183728Y-142132D01*
X-186184Y-144016D01*
X-188068Y-146472D01*
X-189253Y-149332D01*
X-189657Y-152400D01*
X-189253Y-155469D01*
X-188068Y-158328D01*
X-186184Y-160784D01*
X-183728Y-162668D01*
X-180869Y-163853D01*
X-177800Y-164257D01*
X-174732Y-163853D01*
X-171872Y-162668D01*
X-169416Y-160784D01*
X-167532Y-158328D01*
X-166348Y-155469D01*
X-165944Y-152400D01*
X-166348Y-149332D01*
X-167532Y-146472D01*
X-169416Y-144016D01*
X-171872Y-142132D01*
X-174732Y-140948D01*
X-177800Y-140544D01*
D02*
G37*
G36*
X-152400D02*
X-155469Y-140948D01*
X-158328Y-142132D01*
X-160784Y-144016D01*
X-162668Y-146472D01*
X-163853Y-149332D01*
X-164257Y-152400D01*
X-163853Y-155469D01*
X-162668Y-158328D01*
X-160784Y-160784D01*
X-158328Y-162668D01*
X-155469Y-163853D01*
X-152400Y-164257D01*
X-149332Y-163853D01*
X-146472Y-162668D01*
X-144016Y-160784D01*
X-142132Y-158328D01*
X-140948Y-155469D01*
X-140544Y-152400D01*
X-140948Y-149332D01*
X-142132Y-146472D01*
X-144016Y-144016D01*
X-146472Y-142132D01*
X-149332Y-140948D01*
X-152400Y-140544D01*
D02*
G37*
G36*
X-127000D02*
X-130069Y-140948D01*
X-132928Y-142132D01*
X-135384Y-144016D01*
X-137268Y-146472D01*
X-138453Y-149332D01*
X-138857Y-152400D01*
X-138453Y-155469D01*
X-137268Y-158328D01*
X-135384Y-160784D01*
X-132928Y-162668D01*
X-130069Y-163853D01*
X-127000Y-164257D01*
X-123932Y-163853D01*
X-121072Y-162668D01*
X-118616Y-160784D01*
X-116732Y-158328D01*
X-115548Y-155469D01*
X-115144Y-152400D01*
X-115548Y-149332D01*
X-116732Y-146472D01*
X-118616Y-144016D01*
X-121072Y-142132D01*
X-123932Y-140948D01*
X-127000Y-140544D01*
D02*
G37*
G36*
X-153650Y-77450D02*
X-164092D01*
X-163853Y-79269D01*
X-162668Y-82128D01*
X-160784Y-84584D01*
X-158328Y-86468D01*
X-155469Y-87653D01*
X-153650Y-87892D01*
Y-77450D01*
D02*
G37*
G36*
X-140708D02*
X-151150D01*
Y-87892D01*
X-149332Y-87653D01*
X-146472Y-86468D01*
X-144016Y-84584D01*
X-142132Y-82128D01*
X-140948Y-79269D01*
X-140708Y-77450D01*
D02*
G37*
G36*
X-153650Y-64508D02*
X-155469Y-64748D01*
X-158328Y-65932D01*
X-160784Y-67816D01*
X-162668Y-70272D01*
X-163853Y-73131D01*
X-164092Y-74950D01*
X-153650D01*
Y-64508D01*
D02*
G37*
G36*
X-177800Y-115144D02*
X-180869Y-115548D01*
X-183728Y-116732D01*
X-186184Y-118616D01*
X-188068Y-121072D01*
X-189253Y-123932D01*
X-189657Y-127000D01*
X-189253Y-130069D01*
X-188068Y-132928D01*
X-186184Y-135384D01*
X-183728Y-137268D01*
X-180869Y-138453D01*
X-177800Y-138857D01*
X-174732Y-138453D01*
X-171872Y-137268D01*
X-169416Y-135384D01*
X-167532Y-132928D01*
X-166348Y-130069D01*
X-165944Y-127000D01*
X-166348Y-123932D01*
X-167532Y-121072D01*
X-169416Y-118616D01*
X-171872Y-116732D01*
X-174732Y-115548D01*
X-177800Y-115144D01*
D02*
G37*
G36*
X-152400D02*
X-155469Y-115548D01*
X-158328Y-116732D01*
X-160784Y-118616D01*
X-162668Y-121072D01*
X-163853Y-123932D01*
X-164257Y-127000D01*
X-163853Y-130069D01*
X-162668Y-132928D01*
X-160784Y-135384D01*
X-158328Y-137268D01*
X-155469Y-138453D01*
X-152400Y-138857D01*
X-149332Y-138453D01*
X-146472Y-137268D01*
X-144016Y-135384D01*
X-142132Y-132928D01*
X-140948Y-130069D01*
X-140544Y-127000D01*
X-140948Y-123932D01*
X-142132Y-121072D01*
X-144016Y-118616D01*
X-146472Y-116732D01*
X-149332Y-115548D01*
X-152400Y-115144D01*
D02*
G37*
G36*
X62250Y69306D02*
X60553Y69083D01*
X58972Y68428D01*
X57614Y67386D01*
X56572Y66028D01*
X55918Y64447D01*
X55694Y62750D01*
X55918Y61053D01*
X56572Y59472D01*
X57614Y58114D01*
X58972Y57072D01*
X60553Y56417D01*
X62250Y56194D01*
X63947Y56417D01*
X65528Y57072D01*
X66886Y58114D01*
X67928Y59472D01*
X68583Y61053D01*
X68806Y62750D01*
X68583Y64447D01*
X67928Y66028D01*
X66886Y67386D01*
X65528Y68428D01*
X63947Y69083D01*
X62250Y69306D01*
D02*
G37*
G36*
X-351790Y92132D02*
X-354270Y91805D01*
X-356581Y90848D01*
X-358566Y89325D01*
X-360088Y87341D01*
X-361046Y85030D01*
X-361372Y82550D01*
X-361046Y80070D01*
X-360088Y77759D01*
X-358566Y75774D01*
X-356581Y74252D01*
X-354270Y73294D01*
X-351790Y72968D01*
X-349310Y73294D01*
X-346999Y74252D01*
X-345015Y75774D01*
X-343492Y77759D01*
X-342535Y80070D01*
X-342208Y82550D01*
X-342535Y85030D01*
X-343492Y87341D01*
X-345015Y89325D01*
X-346999Y90848D01*
X-349310Y91805D01*
X-351790Y92132D01*
D02*
G37*
G36*
X-326390D02*
X-328870Y91805D01*
X-331181Y90848D01*
X-333166Y89325D01*
X-334688Y87341D01*
X-335646Y85030D01*
X-335972Y82550D01*
X-335646Y80070D01*
X-334688Y77759D01*
X-333166Y75774D01*
X-331181Y74252D01*
X-328870Y73294D01*
X-326390Y72968D01*
X-323910Y73294D01*
X-321599Y74252D01*
X-319615Y75774D01*
X-318092Y77759D01*
X-317135Y80070D01*
X-316808Y82550D01*
X-317135Y85030D01*
X-318092Y87341D01*
X-319615Y89325D01*
X-321599Y90848D01*
X-323910Y91805D01*
X-326390Y92132D01*
D02*
G37*
G36*
X-351790Y66732D02*
X-354270Y66405D01*
X-356581Y65448D01*
X-358566Y63925D01*
X-360088Y61941D01*
X-361046Y59630D01*
X-361372Y57150D01*
X-361046Y54670D01*
X-360088Y52359D01*
X-358566Y50374D01*
X-356581Y48852D01*
X-354270Y47894D01*
X-351790Y47568D01*
X-349310Y47894D01*
X-346999Y48852D01*
X-345015Y50374D01*
X-343492Y52359D01*
X-342535Y54670D01*
X-342208Y57150D01*
X-342535Y59630D01*
X-343492Y61941D01*
X-345015Y63925D01*
X-346999Y65448D01*
X-349310Y66405D01*
X-351790Y66732D01*
D02*
G37*
G36*
X-326390D02*
X-328870Y66405D01*
X-331181Y65448D01*
X-333166Y63925D01*
X-334688Y61941D01*
X-335646Y59630D01*
X-335972Y57150D01*
X-335646Y54670D01*
X-334688Y52359D01*
X-333166Y50374D01*
X-331181Y48852D01*
X-328870Y47894D01*
X-326390Y47568D01*
X-323910Y47894D01*
X-321599Y48852D01*
X-319615Y50374D01*
X-318092Y52359D01*
X-317135Y54670D01*
X-316808Y57150D01*
X-317135Y59630D01*
X-318092Y61941D01*
X-319615Y63925D01*
X-321599Y65448D01*
X-323910Y66405D01*
X-326390Y66732D01*
D02*
G37*
G36*
X-274340Y117367D02*
Y109200D01*
X-266173D01*
X-266335Y110430D01*
X-267292Y112741D01*
X-268815Y114725D01*
X-270799Y116248D01*
X-273110Y117205D01*
X-274340Y117367D01*
D02*
G37*
G36*
X-326390Y117532D02*
X-328870Y117205D01*
X-331181Y116248D01*
X-333166Y114725D01*
X-334688Y112741D01*
X-335646Y110430D01*
X-335972Y107950D01*
X-335646Y105470D01*
X-334688Y103159D01*
X-333166Y101174D01*
X-331181Y99652D01*
X-328870Y98694D01*
X-326390Y98368D01*
X-323910Y98694D01*
X-321599Y99652D01*
X-319615Y101174D01*
X-318092Y103159D01*
X-317135Y105470D01*
X-316808Y107950D01*
X-317135Y110430D01*
X-318092Y112741D01*
X-319615Y114725D01*
X-321599Y116248D01*
X-323910Y117205D01*
X-326390Y117532D01*
D02*
G37*
G36*
X-276840Y106700D02*
X-285008D01*
X-284846Y105470D01*
X-283888Y103159D01*
X-282366Y101174D01*
X-280381Y99652D01*
X-278070Y98694D01*
X-276840Y98532D01*
Y106700D01*
D02*
G37*
G36*
X-266173D02*
X-274340D01*
Y98532D01*
X-273110Y98694D01*
X-270799Y99652D01*
X-268815Y101174D01*
X-267292Y103159D01*
X-266335Y105470D01*
X-266173Y106700D01*
D02*
G37*
G36*
X4250Y87556D02*
X2553Y87333D01*
X972Y86678D01*
X-386Y85636D01*
X-1427Y84278D01*
X-2082Y82697D01*
X-2306Y81000D01*
X-2082Y79303D01*
X-1427Y77722D01*
X-386Y76364D01*
X972Y75322D01*
X2553Y74667D01*
X4250Y74444D01*
X5947Y74667D01*
X7528Y75322D01*
X8886Y76364D01*
X9928Y77722D01*
X10583Y79303D01*
X10806Y81000D01*
X10583Y82697D01*
X9928Y84278D01*
X8886Y85636D01*
X7528Y86678D01*
X5947Y87333D01*
X4250Y87556D01*
D02*
G37*
G36*
X-276840Y117367D02*
X-278070Y117205D01*
X-280381Y116248D01*
X-282366Y114725D01*
X-283888Y112741D01*
X-284846Y110430D01*
X-285008Y109200D01*
X-276840D01*
Y117367D01*
D02*
G37*
G36*
X101500Y95056D02*
X99803Y94833D01*
X98222Y94178D01*
X96864Y93136D01*
X95822Y91778D01*
X95168Y90197D01*
X94944Y88500D01*
X95168Y86803D01*
X95822Y85222D01*
X96864Y83864D01*
X98222Y82822D01*
X99803Y82167D01*
X101500Y81944D01*
X103197Y82167D01*
X104778Y82822D01*
X106136Y83864D01*
X107178Y85222D01*
X107833Y86803D01*
X108056Y88500D01*
X107833Y90197D01*
X107178Y91778D01*
X106136Y93136D01*
X104778Y94178D01*
X103197Y94833D01*
X101500Y95056D01*
D02*
G37*
G36*
X152400Y11856D02*
X149331Y11452D01*
X146472Y10268D01*
X144016Y8384D01*
X142132Y5928D01*
X140947Y3068D01*
X140543Y-0D01*
X140947Y-3069D01*
X142132Y-5928D01*
X144016Y-8384D01*
X146472Y-10268D01*
X149331Y-11453D01*
X152400Y-11857D01*
X155469Y-11453D01*
X158328Y-10268D01*
X160784Y-8384D01*
X162668Y-5928D01*
X163852Y-3069D01*
X164256Y-0D01*
X163852Y3068D01*
X162668Y5928D01*
X160784Y8384D01*
X158328Y10268D01*
X155469Y11452D01*
X152400Y11856D01*
D02*
G37*
G36*
X7000Y4306D02*
X5303Y4083D01*
X3722Y3428D01*
X2364Y2386D01*
X1322Y1028D01*
X667Y-553D01*
X444Y-2250D01*
X667Y-3947D01*
X1322Y-5528D01*
X2364Y-6886D01*
X3722Y-7928D01*
X5303Y-8583D01*
X7000Y-8806D01*
X8697Y-8583D01*
X10278Y-7928D01*
X11636Y-6886D01*
X12678Y-5528D01*
X13333Y-3947D01*
X13556Y-2250D01*
X13333Y-553D01*
X12678Y1028D01*
X11636Y2386D01*
X10278Y3428D01*
X8697Y4083D01*
X7000Y4306D01*
D02*
G37*
G36*
X-50750Y-1694D02*
X-52447Y-1917D01*
X-54028Y-2572D01*
X-55386Y-3614D01*
X-56428Y-4972D01*
X-57083Y-6553D01*
X-57306Y-8250D01*
X-57083Y-9947D01*
X-56428Y-11528D01*
X-55386Y-12886D01*
X-54028Y-13928D01*
X-52447Y-14583D01*
X-50750Y-14806D01*
X-49053Y-14583D01*
X-47472Y-13928D01*
X-46114Y-12886D01*
X-45072Y-11528D01*
X-44417Y-9947D01*
X-44194Y-8250D01*
X-44417Y-6553D01*
X-45072Y-4972D01*
X-46114Y-3614D01*
X-47472Y-2572D01*
X-49053Y-1917D01*
X-50750Y-1694D01*
D02*
G37*
G36*
X103000Y-1444D02*
X101303Y-1667D01*
X99722Y-2322D01*
X98364Y-3364D01*
X97322Y-4722D01*
X96667Y-6303D01*
X96444Y-8000D01*
X96667Y-9697D01*
X97322Y-11278D01*
X98364Y-12636D01*
X99722Y-13678D01*
X101303Y-14333D01*
X103000Y-14556D01*
X104697Y-14333D01*
X106278Y-13678D01*
X107636Y-12636D01*
X108678Y-11278D01*
X109333Y-9697D01*
X109556Y-8000D01*
X109333Y-6303D01*
X108678Y-4722D01*
X107636Y-3364D01*
X106278Y-2322D01*
X104697Y-1667D01*
X103000Y-1444D01*
D02*
G37*
G36*
X-152400Y11856D02*
X-155469Y11452D01*
X-158328Y10268D01*
X-160784Y8384D01*
X-162668Y5928D01*
X-163853Y3068D01*
X-164257Y-0D01*
X-163853Y-3069D01*
X-162668Y-5928D01*
X-160784Y-8384D01*
X-158328Y-10268D01*
X-155469Y-11453D01*
X-152400Y-11857D01*
X-149332Y-11453D01*
X-146472Y-10268D01*
X-144016Y-8384D01*
X-142132Y-5928D01*
X-140948Y-3069D01*
X-140544Y-0D01*
X-140948Y3068D01*
X-142132Y5928D01*
X-144016Y8384D01*
X-146472Y10268D01*
X-149332Y11452D01*
X-152400Y11856D01*
D02*
G37*
G36*
X152400Y37256D02*
X149331Y36852D01*
X146472Y35668D01*
X144016Y33784D01*
X142132Y31328D01*
X140947Y28468D01*
X140543Y25400D01*
X140947Y22331D01*
X142132Y19472D01*
X144016Y17016D01*
X146472Y15132D01*
X149331Y13947D01*
X152400Y13543D01*
X155469Y13947D01*
X158328Y15132D01*
X160784Y17016D01*
X162668Y19472D01*
X163852Y22331D01*
X164256Y25400D01*
X163852Y28468D01*
X162668Y31328D01*
X160784Y33784D01*
X158328Y35668D01*
X155469Y36852D01*
X152400Y37256D01*
D02*
G37*
G36*
X93750Y54556D02*
X92053Y54333D01*
X90472Y53678D01*
X89114Y52636D01*
X88073Y51278D01*
X87417Y49697D01*
X87194Y48000D01*
X87417Y46303D01*
X88073Y44722D01*
X89114Y43364D01*
X90472Y42323D01*
X92053Y41668D01*
X93750Y41444D01*
X95447Y41668D01*
X97028Y42323D01*
X98386Y43364D01*
X99428Y44722D01*
X100083Y46303D01*
X100306Y48000D01*
X100083Y49697D01*
X99428Y51278D01*
X98386Y52636D01*
X97028Y53678D01*
X95447Y54333D01*
X93750Y54556D01*
D02*
G37*
G36*
X35750Y55306D02*
X34053Y55083D01*
X32472Y54428D01*
X31114Y53386D01*
X30072Y52028D01*
X29417Y50447D01*
X29194Y48750D01*
X29417Y47053D01*
X30072Y45472D01*
X31114Y44114D01*
X32472Y43072D01*
X34053Y42417D01*
X35750Y42194D01*
X37447Y42417D01*
X39028Y43072D01*
X40386Y44114D01*
X41427Y45472D01*
X42083Y47053D01*
X42306Y48750D01*
X42083Y50447D01*
X41427Y52028D01*
X40386Y53386D01*
X39028Y54428D01*
X37447Y55083D01*
X35750Y55306D01*
D02*
G37*
G36*
X-10250Y75306D02*
X-11947Y75083D01*
X-13528Y74428D01*
X-14886Y73386D01*
X-15928Y72028D01*
X-16583Y70447D01*
X-16806Y68750D01*
X-16583Y67053D01*
X-15928Y65472D01*
X-14886Y64114D01*
X-13528Y63072D01*
X-11947Y62417D01*
X-10250Y62194D01*
X-8553Y62417D01*
X-7802Y62729D01*
X-8333Y61447D01*
X-8556Y59750D01*
X-8333Y58053D01*
X-7678Y56472D01*
X-6636Y55114D01*
X-5278Y54072D01*
X-3697Y53417D01*
X-2606Y53274D01*
X-3178Y52528D01*
X-3833Y50947D01*
X-4056Y49250D01*
X-3833Y47553D01*
X-3178Y45972D01*
X-3157Y45945D01*
X-3594Y45610D01*
X-3614Y45636D01*
X-4972Y46678D01*
X-6553Y47333D01*
X-8250Y47556D01*
X-9947Y47333D01*
X-11528Y46678D01*
X-12663Y45807D01*
X-13472Y46428D01*
X-15053Y47083D01*
X-16750Y47306D01*
X-18447Y47083D01*
X-20028Y46428D01*
X-21386Y45386D01*
X-22428Y44028D01*
X-23083Y42447D01*
X-23306Y40750D01*
X-23083Y39053D01*
X-22428Y37472D01*
X-21386Y36114D01*
X-20028Y35072D01*
X-18447Y34417D01*
X-16750Y34194D01*
X-15053Y34417D01*
X-13472Y35072D01*
X-12337Y35943D01*
X-11528Y35322D01*
X-9947Y34667D01*
X-8250Y34444D01*
X-6553Y34667D01*
X-4972Y35322D01*
X-3906Y36140D01*
X-3886Y36114D01*
X-2528Y35072D01*
X-947Y34417D01*
X750Y34194D01*
X2447Y34417D01*
X4028Y35072D01*
X5386Y36114D01*
X6428Y37472D01*
X7083Y39053D01*
X7306Y40750D01*
X7083Y42447D01*
X6428Y44028D01*
X6407Y44055D01*
X7136Y44614D01*
X8178Y45972D01*
X8833Y47553D01*
X9056Y49250D01*
X8833Y50947D01*
X8178Y52528D01*
X7136Y53886D01*
X5778Y54928D01*
X4197Y55583D01*
X3106Y55726D01*
X3677Y56472D01*
X4333Y58053D01*
X4556Y59750D01*
X4333Y61447D01*
X3677Y63028D01*
X2636Y64386D01*
X1278Y65427D01*
X-303Y66083D01*
X-2000Y66306D01*
X-3697Y66083D01*
X-4448Y65771D01*
X-3917Y67053D01*
X-3694Y68750D01*
X-3917Y70447D01*
X-4572Y72028D01*
X-5614Y73386D01*
X-6972Y74428D01*
X-8553Y75083D01*
X-10250Y75306D01*
D02*
G37*
G36*
X93250Y41056D02*
X91553Y40833D01*
X89972Y40178D01*
X88614Y39136D01*
X87572Y37778D01*
X86917Y36197D01*
X86694Y34500D01*
X86917Y32803D01*
X87572Y31222D01*
X88606Y29875D01*
X87572Y28528D01*
X86917Y26947D01*
X86694Y25250D01*
X86917Y23553D01*
X87572Y21972D01*
X88614Y20614D01*
X89972Y19572D01*
X91553Y18917D01*
X93250Y18694D01*
X94947Y18917D01*
X96528Y19572D01*
X97886Y20614D01*
X98927Y21972D01*
X99583Y23553D01*
X99806Y25250D01*
X99583Y26947D01*
X98927Y28528D01*
X97894Y29875D01*
X98927Y31222D01*
X99583Y32803D01*
X99806Y34500D01*
X99583Y36197D01*
X98927Y37778D01*
X97886Y39136D01*
X96528Y40178D01*
X94947Y40833D01*
X93250Y41056D01*
D02*
G37*
G36*
X152400Y62656D02*
X149331Y62252D01*
X146472Y61068D01*
X144016Y59184D01*
X142132Y56728D01*
X140947Y53868D01*
X140543Y50800D01*
X140947Y47731D01*
X142132Y44872D01*
X144016Y42416D01*
X146472Y40532D01*
X149331Y39347D01*
X152400Y38943D01*
X155469Y39347D01*
X158328Y40532D01*
X160784Y42416D01*
X162668Y44872D01*
X163852Y47731D01*
X164256Y50800D01*
X163852Y53868D01*
X162668Y56728D01*
X160784Y59184D01*
X158328Y61068D01*
X155469Y62252D01*
X152400Y62656D01*
D02*
G37*
G36*
X50000Y52806D02*
X48303Y52583D01*
X46722Y51928D01*
X45364Y50886D01*
X44323Y49528D01*
X43668Y47947D01*
X43444Y46250D01*
X43668Y44553D01*
X44323Y42972D01*
X45364Y41614D01*
X46722Y40573D01*
X48303Y39918D01*
X50000Y39694D01*
X51697Y39918D01*
X53278Y40573D01*
X54636Y41614D01*
X55678Y42972D01*
X56333Y44553D01*
X56556Y46250D01*
X56333Y47947D01*
X55678Y49528D01*
X54636Y50886D01*
X53278Y51928D01*
X51697Y52583D01*
X50000Y52806D01*
D02*
G37*
G36*
X49550Y164092D02*
X47731Y163852D01*
X44872Y162668D01*
X42416Y160784D01*
X40532Y158328D01*
X39347Y155469D01*
X39108Y153650D01*
X49550D01*
Y164092D01*
D02*
G37*
G36*
X62492Y151150D02*
X52050D01*
Y140708D01*
X53868Y140947D01*
X56728Y142132D01*
X59184Y144016D01*
X61068Y146472D01*
X62252Y149331D01*
X62492Y151150D01*
D02*
G37*
G36*
X52050Y164092D02*
Y153650D01*
X62492D01*
X62252Y155469D01*
X61068Y158328D01*
X59184Y160784D01*
X56728Y162668D01*
X53868Y163852D01*
X52050Y164092D01*
D02*
G37*
G36*
X127000Y164256D02*
X123931Y163852D01*
X121072Y162668D01*
X118616Y160784D01*
X116732Y158328D01*
X115547Y155469D01*
X115143Y152400D01*
X115547Y149331D01*
X116732Y146472D01*
X118616Y144016D01*
X121072Y142132D01*
X123931Y140947D01*
X127000Y140543D01*
X130069Y140947D01*
X132928Y142132D01*
X135384Y144016D01*
X137268Y146472D01*
X138452Y149331D01*
X138856Y152400D01*
X138452Y155469D01*
X137268Y158328D01*
X135384Y160784D01*
X132928Y162668D01*
X130069Y163852D01*
X127000Y164256D01*
D02*
G37*
G36*
X49550Y151150D02*
X39108D01*
X39347Y149331D01*
X40532Y146472D01*
X42416Y144016D01*
X44872Y142132D01*
X47731Y140947D01*
X49550Y140708D01*
Y151150D01*
D02*
G37*
%LPD*%
D15*
X-3000Y97000D02*
Y103250D01*
X14500Y120750D01*
X144750Y-38250D02*
X165250D01*
X123250Y-59750D02*
X144750Y-38250D01*
X57000Y-59750D02*
X123250D01*
X51750Y-54500D02*
X57000Y-59750D01*
X-60000Y-28000D02*
X4250D01*
X-65000Y-23000D02*
X-60000Y-28000D01*
X4250D02*
X17500Y-41250D01*
X-72250Y-33750D02*
Y-4250D01*
Y-33750D02*
X-49250Y-56750D01*
X-80000Y-2500D02*
X-68500Y9000D01*
X-85500Y-750D02*
X-68000Y16750D01*
X-80000Y-33250D02*
Y-2500D01*
X-85500Y-36250D02*
Y-750D01*
X-49250Y-90000D02*
Y-56750D01*
Y-90000D02*
X-22750Y-116500D01*
X-57000Y13250D02*
Y23000D01*
X-61250Y9000D02*
X-57000Y13250D01*
X-68500Y9000D02*
X-61250D01*
X-53750Y34250D02*
X-51000Y31500D01*
X-80000Y-33250D02*
X-55000Y-58250D01*
Y-92000D02*
Y-58250D01*
Y-92000D02*
X-25000Y-122000D01*
X-72500Y-82250D02*
X-27750Y-127000D01*
X-72500Y-82250D02*
Y-70000D01*
X-96250Y-66000D02*
X-30000Y-132250D01*
X-101750Y-67250D02*
X-38000Y-131000D01*
X-96250Y-66000D02*
Y28500D01*
X-101750Y-67250D02*
Y30750D01*
X-68000Y16750D02*
X-64250D01*
X-91000Y-51500D02*
Y26500D01*
Y-51500D02*
X-72500Y-70000D01*
X-91000Y26500D02*
X-83250Y34250D01*
X-96250Y28500D02*
X-85750Y39000D01*
X-101750Y30750D02*
X-84750Y47750D01*
X-85500Y-36250D02*
X-62250Y-59500D01*
Y-83000D02*
Y-59500D01*
X-22750Y-116500D02*
X-2500D01*
X16500Y-135500D01*
X41500D01*
X50800Y-144800D01*
Y-152400D02*
Y-144800D01*
X-25000Y-122000D02*
X-4750D01*
X25400Y-152150D01*
Y-152400D02*
Y-152150D01*
X-83250Y34250D02*
X-53750D01*
X-107000Y33500D02*
X-84250Y56250D01*
X-107000Y-85500D02*
Y33500D01*
Y-85500D02*
X-58250Y-134250D01*
X-112500Y35750D02*
X-82000Y66250D01*
X-112500Y-90699D02*
Y35750D01*
Y-90699D02*
X-63250Y-139949D01*
X-27750Y-127000D02*
X-7500D01*
X12750Y-147250D01*
Y-165050D02*
Y-147250D01*
X-0Y-177800D02*
X12750Y-165050D01*
X-20150Y-132250D02*
X-0Y-152400D01*
X-30000Y-132250D02*
X-20150D01*
X-85750Y39000D02*
X-45000D01*
X-38000Y-165200D02*
Y-131000D01*
X-84750Y47750D02*
X-41500D01*
X-84250Y56250D02*
X-38000D01*
X-82000Y66250D02*
X-37750D01*
X-38000Y-165200D02*
X-25400Y-177800D01*
X-63250Y-165350D02*
Y-139949D01*
Y-165350D02*
X-50800Y-177800D01*
X38000Y-159250D02*
Y-142500D01*
Y-159250D02*
X43750Y-165000D01*
X165200D01*
X177800Y-152400D01*
X70500Y-139500D02*
X165000D01*
X68350Y-141650D02*
X70500Y-139500D01*
X59150Y-141650D02*
X68350D01*
X53250Y-135750D02*
X59150Y-141650D01*
X73000Y-133000D02*
X146400D01*
X68250Y-128250D02*
X73000Y-133000D01*
X41500Y-128250D02*
X68250D01*
X75000Y-127750D02*
X132500D01*
X69000Y-121750D02*
X75000Y-127750D01*
X53500Y-121750D02*
X69000D01*
X146400Y-133000D02*
X152400Y-127000D01*
X165050Y-114250D02*
X177800Y-127000D01*
X146000Y-114250D02*
X165050D01*
X132500Y-127750D02*
X146000Y-114250D01*
X90500Y-97250D02*
X133000D01*
X86750Y-93500D02*
X90500Y-97250D01*
X-21250Y-77500D02*
X18000D01*
X-32250Y-66500D02*
X-21250Y-77500D01*
X-42500Y-66500D02*
X-32250D01*
X18000Y-77500D02*
X34000Y-93500D01*
X86750D01*
X-72350Y88850D02*
X-62000Y78500D01*
X-45750Y73250D02*
Y80500D01*
X-36400Y138000D02*
X7250D01*
X-5500Y165000D02*
X7750D01*
X-18300Y177800D02*
X-5500Y165000D01*
X-25400Y177800D02*
X-18300D01*
X79000Y2750D02*
X93750D01*
X28250Y-48000D02*
X79000Y2750D01*
X14500Y-48000D02*
X28250D01*
X12000Y-45500D02*
X14500Y-48000D01*
X1500Y-45500D02*
X12000D01*
X-364250Y19290D02*
X-351790Y31750D01*
X-364250Y2000D02*
Y19290D01*
Y2000D02*
X-358000Y-4250D01*
X-182050D01*
X-177800Y-0D01*
X-267750Y-8750D02*
X-262750Y-13750D01*
X-341490Y-8750D02*
X-267750D01*
X-351790Y-19050D02*
X-341490Y-8750D01*
X-262750Y-23000D02*
Y-13750D01*
Y-23000D02*
X-253250Y-32500D01*
X-244250D01*
X-238750Y-38000D01*
X-165200D01*
X-152400Y-50800D01*
X-275590Y-19050D02*
X-262500Y-32140D01*
Y-48750D02*
Y-32140D01*
Y-48750D02*
X-235050Y-76200D01*
X-177800D01*
X-275590Y-44450D02*
X-231040Y-89000D01*
X-165000D01*
X-152400Y-101600D01*
X-181700Y21500D02*
X-177800Y25400D01*
X-316140Y21500D02*
X-181700D01*
X-326390Y31750D02*
X-316140Y21500D01*
X-351790Y6350D02*
X-341640Y16500D01*
X-195250D01*
X-191500Y12750D01*
X-165050D01*
X-152400Y25400D01*
X-218250Y93250D02*
X-213850Y88850D01*
X-72350D01*
X-77500Y83750D02*
X-70750Y77000D01*
X-84750Y83750D02*
X-77500D01*
X-105000Y63500D02*
X-84750Y83750D01*
X-300990Y82550D02*
X-265190Y46750D01*
X-196750D01*
X-188250Y38250D01*
X-118750D01*
X-80000Y77000D01*
X-194750Y67250D02*
X-191000Y63500D01*
X-277000Y67250D02*
X-194750D01*
X-288000Y78250D02*
X-277000Y67250D01*
X-244500Y72000D02*
X-237250Y79250D01*
X-265040Y72000D02*
X-244500D01*
X-275590Y82550D02*
X-265040Y72000D01*
X-300990Y107950D02*
X-288000Y94960D01*
Y78250D02*
Y94960D01*
X-191000Y63500D02*
X-105000D01*
X-104750Y139500D02*
X-45750Y80500D01*
X-218640Y139500D02*
X-104750D01*
X-54250Y73500D02*
Y80750D01*
X-88000Y114500D02*
X-54250Y80750D01*
X-218240Y114500D02*
X-88000D01*
X-237250Y79250D02*
Y85250D01*
X-229250Y93250D01*
X-218250D01*
X-250190Y82550D02*
X-218240Y114500D01*
X-250190Y107950D02*
X-218640Y139500D01*
X141250Y89000D02*
X165000D01*
X177800Y76200D01*
X13000Y144500D02*
X21750Y135750D01*
X13000Y144500D02*
Y159750D01*
X7750Y165000D02*
X13000Y159750D01*
X-62300Y138500D02*
X-46500D01*
X-76200Y152400D02*
X-62300Y138500D01*
X137500Y92750D02*
X141250Y89000D01*
X165000Y-89000D02*
X177800Y-76200D01*
X145500Y-89000D02*
X165000D01*
X127750Y-71250D02*
X145500Y-89000D01*
X44000Y-71250D02*
X127750D01*
X29750Y-57000D02*
X44000Y-71250D01*
X36000Y-50000D02*
X51250Y-65250D01*
X137950D01*
X152400Y-50800D01*
X165250Y-38250D02*
X177800Y-50800D01*
X21750Y135750D02*
X70750D01*
X71000Y135500D01*
X-50800Y152400D02*
X-36400Y138000D01*
X-46500Y138500D02*
X-40250Y132250D01*
X44750Y128500D02*
X74250D01*
X81250Y135500D01*
X101750D01*
X14500Y120750D02*
X120750D01*
X152400Y152400D01*
X5750Y99500D02*
X21500Y115250D01*
X123000D01*
X147500Y139750D01*
X165150D01*
X177800Y152400D01*
X15250Y96500D02*
X29000Y110250D01*
X128500D01*
X137750Y119500D01*
X42500Y-84500D02*
X50750Y-76250D01*
X125250D01*
X150600Y-101600D01*
X152400D01*
D16*
X-372110Y193040D02*
X193040D01*
Y-193040D02*
Y193040D01*
X-383540Y-193040D02*
X193040D01*
X-383540D02*
Y181610D01*
X-372110Y193040D01*
D17*
X152400Y152400D02*
D03*
X-177800Y76200D02*
D03*
Y25400D02*
D03*
Y-0D02*
D03*
Y-76200D02*
D03*
X-152400Y25400D02*
D03*
Y-50800D02*
D03*
Y-76200D02*
D03*
Y-101600D02*
D03*
X-101600Y177800D02*
D03*
X-76200Y152400D02*
D03*
X-50800D02*
D03*
Y-152400D02*
D03*
Y-177800D02*
D03*
X-25400Y177800D02*
D03*
Y-177800D02*
D03*
X-0Y-152400D02*
D03*
Y-177800D02*
D03*
X25400Y-152400D02*
D03*
X50800Y152400D02*
D03*
Y-152400D02*
D03*
X76200D02*
D03*
X152400Y-25400D02*
D03*
Y-50800D02*
D03*
Y-76200D02*
D03*
Y-101600D02*
D03*
Y-127000D02*
D03*
Y-177800D02*
D03*
X177800Y152400D02*
D03*
Y76200D02*
D03*
Y-50800D02*
D03*
Y-76200D02*
D03*
Y-127000D02*
D03*
Y-152400D02*
D03*
D19*
X-351790Y-19050D02*
D03*
Y6350D02*
D03*
X-326390Y31750D02*
D03*
X-351790D02*
D03*
X-300990Y82550D02*
D03*
Y107950D02*
D03*
X-275590Y82550D02*
D03*
Y107950D02*
D03*
X-250190Y82550D02*
D03*
Y107950D02*
D03*
X-275590Y-19050D02*
D03*
Y-44450D02*
D03*
D21*
X-274250Y-83750D02*
D03*
X-193750Y2500D02*
D03*
X-237250Y54500D02*
D03*
X-276500Y42000D02*
D03*
X-263250Y95250D02*
D03*
X-60000Y-15000D02*
D03*
X-11500Y100250D02*
D03*
X-3000Y97000D02*
D03*
X46250Y-750D02*
D03*
X91500Y-52000D02*
D03*
X-65000Y-23000D02*
D03*
X-128000Y-17000D02*
D03*
X-51000Y31500D02*
D03*
X-62250Y-83000D02*
D03*
X-72250Y-4250D02*
D03*
X-58250Y-134250D02*
D03*
X-59250Y-119250D02*
D03*
X38000Y-142500D02*
D03*
X165000Y-139500D02*
D03*
X53250Y-135750D02*
D03*
X41500Y-128250D02*
D03*
X53500Y-121750D02*
D03*
X133000Y-97250D02*
D03*
X62250Y-85500D02*
D03*
X34250Y-82500D02*
D03*
X-42500Y-66500D02*
D03*
X2250Y22000D02*
D03*
X-62000Y78500D02*
D03*
X-37750Y66250D02*
D03*
X-45750Y73250D02*
D03*
X1500Y-45500D02*
D03*
X-38000Y56250D02*
D03*
X-70750Y77000D02*
D03*
X-54250Y73500D02*
D03*
X-80000Y77000D02*
D03*
X-111750Y71250D02*
D03*
X-57000Y23000D02*
D03*
X-41500Y47750D02*
D03*
X-45000Y39000D02*
D03*
X-64250Y16750D02*
D03*
X79250Y95750D02*
D03*
X101250Y18250D02*
D03*
X71000Y135500D02*
D03*
X137500Y92750D02*
D03*
X29750Y-57000D02*
D03*
X36000Y-50000D02*
D03*
X51750Y-54500D02*
D03*
X93750Y2750D02*
D03*
X44750Y128500D02*
D03*
X15250Y96500D02*
D03*
X5750Y99500D02*
D03*
X7250Y138000D02*
D03*
X-40250Y132250D02*
D03*
X101750Y135500D02*
D03*
X137750Y119500D02*
D03*
X17500Y-41250D02*
D03*
X42500Y-84500D02*
D03*
M02*
