G04 Layer_Color=128*
%FSLAX44Y44*%
%MOMM*%
G71*
G01*
G75*
%ADD16C,0.3500*%
%ADD42C,0.0508*%
D16*
X-372110Y193040D02*
X193040D01*
Y-193040D02*
Y193040D01*
X-383540Y-193040D02*
X193040D01*
X-383540D02*
Y181610D01*
X-372110Y193040D01*
D42*
X147955Y152400D02*
X156845D01*
X152400Y147955D02*
Y156845D01*
X147955Y-152400D02*
X156845D01*
X152400Y-156845D02*
Y-147955D01*
X-156845Y-152400D02*
X-147955D01*
X-152400Y-156845D02*
Y-147955D01*
X-156845Y152400D02*
X-147955D01*
X-152400Y147955D02*
Y156845D01*
X-182245Y177800D02*
X-173355D01*
X-177800Y173355D02*
Y182245D01*
X-182245Y152400D02*
X-173355D01*
X-177800Y147955D02*
Y156845D01*
X-182245Y127000D02*
X-173355D01*
X-177800Y122555D02*
Y131445D01*
X-182245Y101600D02*
X-173355D01*
X-177800Y97155D02*
Y106045D01*
X-182245Y76200D02*
X-173355D01*
X-177800Y71755D02*
Y80645D01*
X-182245Y50800D02*
X-173355D01*
X-177800Y46355D02*
Y55245D01*
X-182245Y25400D02*
X-173355D01*
X-177800Y20955D02*
Y29845D01*
X-182245Y-0D02*
X-173355D01*
X-177800Y-4445D02*
Y4445D01*
X-182245Y-25400D02*
X-173355D01*
X-177800Y-29845D02*
Y-20955D01*
X-182245Y-50800D02*
X-173355D01*
X-177800Y-55245D02*
Y-46355D01*
X-182245Y-76200D02*
X-173355D01*
X-177800Y-80645D02*
Y-71755D01*
X-182245Y-101600D02*
X-173355D01*
X-177800Y-106045D02*
Y-97155D01*
X-182245Y-127000D02*
X-173355D01*
X-177800Y-131445D02*
Y-122555D01*
X-182245Y-152400D02*
X-173355D01*
X-177800Y-156845D02*
Y-147955D01*
X-182245Y-177800D02*
X-173355D01*
X-177800Y-182245D02*
Y-173355D01*
X-156845Y177800D02*
X-147955D01*
X-152400Y173355D02*
Y182245D01*
X-156845Y127000D02*
X-147955D01*
X-152400Y122555D02*
Y131445D01*
X-156845Y101600D02*
X-147955D01*
X-152400Y97155D02*
Y106045D01*
X-156845Y76200D02*
X-147955D01*
X-152400Y71755D02*
Y80645D01*
X-156845Y50800D02*
X-147955D01*
X-152400Y46355D02*
Y55245D01*
X-156845Y25400D02*
X-147955D01*
X-152400Y20955D02*
Y29845D01*
X-156845Y-0D02*
X-147955D01*
X-152400Y-4445D02*
Y4445D01*
X-156845Y-25400D02*
X-147955D01*
X-152400Y-29845D02*
Y-20955D01*
X-156845Y-50800D02*
X-147955D01*
X-152400Y-55245D02*
Y-46355D01*
X-156845Y-76200D02*
X-147955D01*
X-152400Y-80645D02*
Y-71755D01*
X-156845Y-101600D02*
X-147955D01*
X-152400Y-106045D02*
Y-97155D01*
X-156845Y-127000D02*
X-147955D01*
X-152400Y-131445D02*
Y-122555D01*
X-156845Y-177800D02*
X-147955D01*
X-152400Y-182245D02*
Y-173355D01*
X-131445Y177800D02*
X-122555D01*
X-127000Y173355D02*
Y182245D01*
X-131445Y152400D02*
X-122555D01*
X-127000Y147955D02*
Y156845D01*
X-131445Y-152400D02*
X-122555D01*
X-127000Y-156845D02*
Y-147955D01*
X-131445Y-177800D02*
X-122555D01*
X-127000Y-182245D02*
Y-173355D01*
X-106045Y177800D02*
X-97155D01*
X-101600Y173355D02*
Y182245D01*
X-106045Y152400D02*
X-97155D01*
X-101600Y147955D02*
Y156845D01*
X-106045Y-152400D02*
X-97155D01*
X-101600Y-156845D02*
Y-147955D01*
X-106045Y-177800D02*
X-97155D01*
X-101600Y-182245D02*
Y-173355D01*
X-80645Y177800D02*
X-71755D01*
X-76200Y173355D02*
Y182245D01*
X-80645Y152400D02*
X-71755D01*
X-76200Y147955D02*
Y156845D01*
X-80645Y-152400D02*
X-71755D01*
X-76200Y-156845D02*
Y-147955D01*
X-80645Y-177800D02*
X-71755D01*
X-76200Y-182245D02*
Y-173355D01*
X-55245Y177800D02*
X-46355D01*
X-50800Y173355D02*
Y182245D01*
X-55245Y152400D02*
X-46355D01*
X-50800Y147955D02*
Y156845D01*
X-55245Y-152400D02*
X-46355D01*
X-50800Y-156845D02*
Y-147955D01*
X-55245Y-177800D02*
X-46355D01*
X-50800Y-182245D02*
Y-173355D01*
X-29845Y177800D02*
X-20955D01*
X-25400Y173355D02*
Y182245D01*
X-29845Y152400D02*
X-20955D01*
X-25400Y147955D02*
Y156845D01*
X-29845Y-152400D02*
X-20955D01*
X-25400Y-156845D02*
Y-147955D01*
X-29845Y-177800D02*
X-20955D01*
X-25400Y-182245D02*
Y-173355D01*
X-4445Y177800D02*
X4445D01*
X-0Y173355D02*
Y182245D01*
X-4445Y152400D02*
X4445D01*
X-0Y147955D02*
Y156845D01*
X-4445Y-152400D02*
X4445D01*
X-0Y-156845D02*
Y-147955D01*
X-4445Y-177800D02*
X4445D01*
X-0Y-182245D02*
Y-173355D01*
X20955Y177800D02*
X29845D01*
X25400Y173355D02*
Y182245D01*
X20955Y152400D02*
X29845D01*
X25400Y147955D02*
Y156845D01*
X20955Y-152400D02*
X29845D01*
X25400Y-156845D02*
Y-147955D01*
X20955Y-177800D02*
X29845D01*
X25400Y-182245D02*
Y-173355D01*
X46355Y177800D02*
X55245D01*
X50800Y173355D02*
Y182245D01*
X46355Y152400D02*
X55245D01*
X50800Y147955D02*
Y156845D01*
X46355Y-152400D02*
X55245D01*
X50800Y-156845D02*
Y-147955D01*
X46355Y-177800D02*
X55245D01*
X50800Y-182245D02*
Y-173355D01*
X71755Y177800D02*
X80645D01*
X76200Y173355D02*
Y182245D01*
X71755Y152400D02*
X80645D01*
X76200Y147955D02*
Y156845D01*
X71755Y-152400D02*
X80645D01*
X76200Y-156845D02*
Y-147955D01*
X71755Y-177800D02*
X80645D01*
X76200Y-182245D02*
Y-173355D01*
X97155Y177800D02*
X106045D01*
X101600Y173355D02*
Y182245D01*
X97155Y152400D02*
X106045D01*
X101600Y147955D02*
Y156845D01*
X97155Y-152400D02*
X106045D01*
X101600Y-156845D02*
Y-147955D01*
X97155Y-177800D02*
X106045D01*
X101600Y-182245D02*
Y-173355D01*
X122555Y177800D02*
X131445D01*
X127000Y173355D02*
Y182245D01*
X122555Y152400D02*
X131445D01*
X127000Y147955D02*
Y156845D01*
X122555Y-152400D02*
X131445D01*
X127000Y-156845D02*
Y-147955D01*
X122555Y-177800D02*
X131445D01*
X127000Y-182245D02*
Y-173355D01*
X147955Y177800D02*
X156845D01*
X152400Y173355D02*
Y182245D01*
X147955Y127000D02*
X156845D01*
X152400Y122555D02*
Y131445D01*
X147955Y101600D02*
X156845D01*
X152400Y97155D02*
Y106045D01*
X147955Y76200D02*
X156845D01*
X152400Y71755D02*
Y80645D01*
X147955Y50800D02*
X156845D01*
X152400Y46355D02*
Y55245D01*
X147955Y25400D02*
X156845D01*
X152400Y20955D02*
Y29845D01*
X147955Y-0D02*
X156845D01*
X152400Y-4445D02*
Y4445D01*
X147955Y-25400D02*
X156845D01*
X152400Y-29845D02*
Y-20955D01*
X147955Y-50800D02*
X156845D01*
X152400Y-55245D02*
Y-46355D01*
X147955Y-76200D02*
X156845D01*
X152400Y-80645D02*
Y-71755D01*
X147955Y-101600D02*
X156845D01*
X152400Y-106045D02*
Y-97155D01*
X147955Y-127000D02*
X156845D01*
X152400Y-131445D02*
Y-122555D01*
X147955Y-177800D02*
X156845D01*
X152400Y-182245D02*
Y-173355D01*
X173355Y177800D02*
X182245D01*
X177800Y173355D02*
Y182245D01*
X173355Y152400D02*
X182245D01*
X177800Y147955D02*
Y156845D01*
X173355Y127000D02*
X182245D01*
X177800Y122555D02*
Y131445D01*
X173355Y101600D02*
X182245D01*
X177800Y97155D02*
Y106045D01*
X173355Y76200D02*
X182245D01*
X177800Y71755D02*
Y80645D01*
X173355Y50800D02*
X182245D01*
X177800Y46355D02*
Y55245D01*
X173355Y25400D02*
X182245D01*
X177800Y20955D02*
Y29845D01*
X173355Y-0D02*
X182245D01*
X177800Y-4445D02*
Y4445D01*
X173355Y-25400D02*
X182245D01*
X177800Y-29845D02*
Y-20955D01*
X173355Y-50800D02*
X182245D01*
X177800Y-55245D02*
Y-46355D01*
X173355Y-76200D02*
X182245D01*
X177800Y-80645D02*
Y-71755D01*
X173355Y-101600D02*
X182245D01*
X177800Y-106045D02*
Y-97155D01*
X173355Y-127000D02*
X182245D01*
X177800Y-131445D02*
Y-122555D01*
X173355Y-152400D02*
X182245D01*
X177800Y-156845D02*
Y-147955D01*
X173355Y-177800D02*
X182245D01*
X177800Y-182245D02*
Y-173355D01*
X-304990Y-44450D02*
X-296990D01*
X-300990Y-48450D02*
Y-40450D01*
X-330390Y-19050D02*
X-322390D01*
X-326390Y-23050D02*
Y-15050D01*
X-330390Y-44450D02*
X-322390D01*
X-326390Y-48450D02*
Y-40450D01*
X-355790Y-19050D02*
X-347790D01*
X-351790Y-23050D02*
Y-15050D01*
X-330390Y6350D02*
X-322390D01*
X-326390Y2350D02*
Y10350D01*
X-355790Y6350D02*
X-347790D01*
X-351790Y2350D02*
Y10350D01*
X-330390Y31750D02*
X-322390D01*
X-326390Y27750D02*
Y35750D01*
X-355790Y31750D02*
X-347790D01*
X-351790Y27750D02*
Y35750D01*
X-330390Y82550D02*
X-322390D01*
X-326390Y78550D02*
Y86550D01*
X-355790Y82550D02*
X-347790D01*
X-351790Y78550D02*
Y86550D01*
X-330390Y107950D02*
X-322390D01*
X-326390Y103950D02*
Y111950D01*
X-304990Y82550D02*
X-296990D01*
X-300990Y78550D02*
Y86550D01*
X-304990Y107950D02*
X-296990D01*
X-300990Y103950D02*
Y111950D01*
X-279590Y82550D02*
X-271590D01*
X-275590Y78550D02*
Y86550D01*
X-279590Y107950D02*
X-271590D01*
X-275590Y103950D02*
Y111950D01*
X-254190Y82550D02*
X-246190D01*
X-250190Y78550D02*
Y86550D01*
X-254190Y107950D02*
X-246190D01*
X-250190Y103950D02*
Y111950D01*
X-228790Y82550D02*
X-220790D01*
X-224790Y78550D02*
Y86550D01*
X-254190Y31750D02*
X-246190D01*
X-250190Y27750D02*
Y35750D01*
X-228790Y31750D02*
X-220790D01*
X-224790Y27750D02*
Y35750D01*
X-254190Y6350D02*
X-246190D01*
X-250190Y2350D02*
Y10350D01*
X-228790Y6350D02*
X-220790D01*
X-224790Y2350D02*
Y10350D01*
X-254190Y-19050D02*
X-246190D01*
X-250190Y-23050D02*
Y-15050D01*
X-228790Y-19050D02*
X-220790D01*
X-224790Y-23050D02*
Y-15050D01*
X-254190Y-44450D02*
X-246190D01*
X-250190Y-48450D02*
Y-40450D01*
X-279590Y-19050D02*
X-271590D01*
X-275590Y-23050D02*
Y-15050D01*
X-279590Y-44450D02*
X-271590D01*
X-275590Y-48450D02*
Y-40450D01*
X-304990Y-19050D02*
X-296990D01*
X-300990Y-23050D02*
Y-15050D01*
X-228790Y57150D02*
X-220790D01*
X-224790Y53150D02*
Y61150D01*
X-254190Y57150D02*
X-246190D01*
X-250190Y53150D02*
Y61150D01*
X-355790Y57150D02*
X-347790D01*
X-351790Y53150D02*
Y61150D01*
X-330390Y57150D02*
X-322390D01*
X-326390Y53150D02*
Y61150D01*
X-275750Y-83750D02*
X-272750D01*
X-274250Y-85250D02*
Y-82250D01*
X-195250Y2500D02*
X-192250D01*
X-193750Y1000D02*
Y4000D01*
X-238750Y54500D02*
X-235750D01*
X-237250Y53000D02*
Y56000D01*
X-278000Y42000D02*
X-275000D01*
X-276500Y40500D02*
Y43500D01*
X-264750Y95250D02*
X-261750D01*
X-263250Y93750D02*
Y96750D01*
X-61500Y-15000D02*
X-58500D01*
X-60000Y-16500D02*
Y-13500D01*
X-52250Y-8250D02*
X-49250D01*
X-50750Y-9750D02*
Y-6750D01*
X-13000Y100250D02*
X-10000D01*
X-11500Y98750D02*
Y101750D01*
X-4500Y97000D02*
X-1500D01*
X-3000Y95500D02*
Y98500D01*
X44750Y-750D02*
X47750D01*
X46250Y-2250D02*
Y750D01*
X90000Y-52000D02*
X93000D01*
X91500Y-53500D02*
Y-50500D01*
X78900Y-51250D02*
X81900D01*
X80400Y-52750D02*
Y-49750D01*
X-66500Y-23000D02*
X-63500D01*
X-65000Y-24500D02*
Y-21500D01*
X-129500Y-17000D02*
X-126500D01*
X-128000Y-18500D02*
Y-15500D01*
X-52500Y31500D02*
X-49500D01*
X-51000Y30000D02*
Y33000D01*
X-63750Y-83000D02*
X-60750D01*
X-62250Y-84500D02*
Y-81500D01*
X-54750Y-126250D02*
X-51750D01*
X-53250Y-127750D02*
Y-124750D01*
X-73750Y22250D02*
X-70750D01*
X-72250Y20750D02*
Y23750D01*
X-73750Y-4250D02*
X-70750D01*
X-72250Y-5750D02*
Y-2750D01*
X-59750Y-134250D02*
X-56750D01*
X-58250Y-135750D02*
Y-132750D01*
X5500Y-2250D02*
X8500D01*
X7000Y-3750D02*
Y-750D01*
X-60750Y-119250D02*
X-57750D01*
X-59250Y-120750D02*
Y-117750D01*
X36500Y-142500D02*
X39500D01*
X38000Y-144000D02*
Y-141000D01*
X9000Y-112750D02*
X12000D01*
X10500Y-114250D02*
Y-111250D01*
X163500Y-139500D02*
X166500D01*
X165000Y-141000D02*
Y-138000D01*
X51750Y-135750D02*
X54750D01*
X53250Y-137250D02*
Y-134250D01*
X40000Y-128250D02*
X43000D01*
X41500Y-129750D02*
Y-126750D01*
X52000Y-121750D02*
X55000D01*
X53500Y-123250D02*
Y-120250D01*
X39250Y-115000D02*
X42250D01*
X40750Y-116500D02*
Y-113500D01*
X87500Y-120750D02*
X90500D01*
X89000Y-122250D02*
Y-119250D01*
X131500Y-97250D02*
X134500D01*
X133000Y-98750D02*
Y-95750D01*
X-115000Y-98750D02*
X-112000D01*
X-113500Y-100250D02*
Y-97250D01*
X-83000Y-51000D02*
X-80000D01*
X-81500Y-52500D02*
Y-49500D01*
X-37000Y-35250D02*
X-34000D01*
X-35500Y-36750D02*
Y-33750D01*
X-81750Y-71750D02*
X-78750D01*
X-80250Y-73250D02*
Y-70250D01*
X-18250Y40750D02*
X-15250D01*
X-16750Y39250D02*
Y42250D01*
X-9750Y41000D02*
X-6750D01*
X-8250Y39500D02*
Y42500D01*
X-750Y40750D02*
X2250D01*
X750Y39250D02*
Y42250D01*
X1000Y49250D02*
X4000D01*
X2500Y47750D02*
Y50750D01*
X-20000Y-71000D02*
X-17000D01*
X-18500Y-72500D02*
Y-69500D01*
X-6000Y-68000D02*
X-3000D01*
X-4500Y-69500D02*
Y-66500D01*
X18000Y-112500D02*
X21000D01*
X19500Y-114000D02*
Y-111000D01*
X82250Y-113250D02*
X85250D01*
X83750Y-114750D02*
Y-111750D01*
X60750Y-85500D02*
X63750D01*
X62250Y-87000D02*
Y-84000D01*
X52000Y-83750D02*
X55000D01*
X53500Y-85250D02*
Y-82250D01*
X32750Y-82500D02*
X35750D01*
X34250Y-84000D02*
Y-81000D01*
X-44000Y-66500D02*
X-41000D01*
X-42500Y-68000D02*
Y-65000D01*
X-35500Y-74000D02*
X-32500D01*
X-34000Y-75500D02*
Y-72500D01*
X750Y22000D02*
X3750D01*
X2250Y20500D02*
Y23500D01*
X-55500Y101750D02*
X-52500D01*
X-54000Y100250D02*
Y103250D01*
X-63500Y78500D02*
X-60500D01*
X-62000Y77000D02*
Y80000D01*
X-11750Y68750D02*
X-8750D01*
X-10250Y67250D02*
Y70250D01*
X-39250Y66250D02*
X-36250D01*
X-37750Y64750D02*
Y67750D01*
X-47250Y73250D02*
X-44250D01*
X-45750Y71750D02*
Y74750D01*
X2750Y81000D02*
X5750D01*
X4250Y79500D02*
Y82500D01*
X-3500Y59750D02*
X-500D01*
X-2000Y58250D02*
Y61250D01*
X-14500Y131000D02*
X-11500D01*
X-13000Y129500D02*
Y132500D01*
X-16750Y165000D02*
X-13750D01*
X-15250Y163500D02*
Y166500D01*
X-0Y-45500D02*
X3000D01*
X1500Y-47000D02*
Y-44000D01*
X-84500Y11750D02*
X-81500D01*
X-83000Y10250D02*
Y13250D01*
X-81000Y27250D02*
X-78000D01*
X-79500Y25749D02*
Y28749D01*
X-39500Y56250D02*
X-36500D01*
X-38000Y54750D02*
Y57750D01*
X-72250Y77000D02*
X-69250D01*
X-70750Y75500D02*
Y78500D01*
X-55750Y73500D02*
X-52750D01*
X-54250Y72000D02*
Y75000D01*
X-81500Y77000D02*
X-78500D01*
X-80000Y75500D02*
Y78500D01*
X-113250Y71250D02*
X-110250D01*
X-111750Y69750D02*
Y72750D01*
X-114500Y81500D02*
X-111500D01*
X-113000Y80000D02*
Y83000D01*
X-114000Y95250D02*
X-111000D01*
X-112500Y93750D02*
Y96750D01*
X-58500Y23000D02*
X-55500D01*
X-57000Y21500D02*
Y24500D01*
X-43000Y47750D02*
X-40000D01*
X-41500Y46250D02*
Y49250D01*
X-46500Y39000D02*
X-43500D01*
X-45000Y37500D02*
Y40500D01*
X-65750Y16750D02*
X-62750D01*
X-64250Y15250D02*
Y18250D01*
X31000Y100250D02*
X34000D01*
X32500Y98750D02*
Y101750D01*
X-58750Y128750D02*
X-55750D01*
X-57250Y127250D02*
Y130250D01*
X76000Y-85500D02*
X79000D01*
X77500Y-87000D02*
Y-84000D01*
X-7250Y-84250D02*
X-4250D01*
X-5750Y-85750D02*
Y-82750D01*
X55000Y94750D02*
X58000D01*
X56500Y93250D02*
Y96250D01*
X48250Y89000D02*
X51250D01*
X49750Y87500D02*
Y90500D01*
X62000Y100500D02*
X65000D01*
X63500Y99000D02*
Y102000D01*
X79000Y-28750D02*
X82000D01*
X80500Y-30250D02*
Y-27250D01*
X86504Y-33502D02*
X89504D01*
X88004Y-35002D02*
Y-32002D01*
X93000Y-40500D02*
X96000D01*
X94500Y-42000D02*
Y-39000D01*
X100000Y88500D02*
X103000D01*
X101500Y87000D02*
Y90000D01*
X77750Y95750D02*
X80750D01*
X79250Y94250D02*
Y97250D01*
X48500Y46250D02*
X51500D01*
X50000Y44750D02*
Y47750D01*
X34250Y48750D02*
X37250D01*
X35750Y47250D02*
Y50250D01*
X60750Y62750D02*
X63750D01*
X62250Y61250D02*
Y64250D01*
X92250Y48000D02*
X95250D01*
X93750Y46500D02*
Y49500D01*
X91750Y34500D02*
X94750D01*
X93250Y33000D02*
Y36000D01*
X99750Y18250D02*
X102750D01*
X101250Y16750D02*
Y19750D01*
X91750Y25250D02*
X94750D01*
X93250Y23750D02*
Y26750D01*
X69500Y135500D02*
X72500D01*
X71000Y134000D02*
Y137000D01*
X136000Y92750D02*
X139000D01*
X137500Y91250D02*
Y94250D01*
X102000Y-88000D02*
X105000D01*
X103500Y-89500D02*
Y-86500D01*
X28250Y-57000D02*
X31250D01*
X29750Y-58500D02*
Y-55500D01*
X34500Y-50000D02*
X37500D01*
X36000Y-51500D02*
Y-48500D01*
X50250Y-54500D02*
X53250D01*
X51750Y-56000D02*
Y-53000D01*
X92250Y2750D02*
X95250D01*
X93750Y1250D02*
Y4250D01*
X43250Y128500D02*
X46250D01*
X44750Y127000D02*
Y130000D01*
X13750Y96500D02*
X16750D01*
X15250Y95000D02*
Y98000D01*
X4250Y99500D02*
X7250D01*
X5750Y98000D02*
Y101000D01*
X5750Y138000D02*
X8750D01*
X7250Y136500D02*
Y139500D01*
X1000Y130750D02*
X4000D01*
X2500Y129250D02*
Y132250D01*
X-49500Y129000D02*
X-46500D01*
X-48000Y127500D02*
Y130500D01*
X-41750Y132250D02*
X-38750D01*
X-40250Y130750D02*
Y133750D01*
X100250Y135500D02*
X103250D01*
X101750Y134000D02*
Y137000D01*
X136250Y119500D02*
X139250D01*
X137750Y118000D02*
Y121000D01*
X101500Y-8000D02*
X104500D01*
X103000Y-9500D02*
Y-6500D01*
X62250Y-135250D02*
X65250D01*
X63750Y-136750D02*
Y-133750D01*
X16000Y-41250D02*
X19000D01*
X17500Y-42750D02*
Y-39750D01*
X26500Y-38250D02*
X29500D01*
X28000Y-39750D02*
Y-36750D01*
X57250Y-46000D02*
X60250D01*
X58750Y-47500D02*
Y-44500D01*
X41000Y-84500D02*
X44000D01*
X42500Y-86000D02*
Y-83000D01*
M02*
