G04 Layer_Physical_Order=1*
G04 Layer_Color=255*
%FSLAX44Y44*%
%MOMM*%
G71*
G01*
G75*
%ADD10R,1.3000X1.0000*%
%ADD11R,1.0000X1.3000*%
%ADD12R,1.0000X0.9000*%
%ADD13R,0.4000X1.1000*%
%ADD14R,0.6000X1.5500*%
%ADD15C,0.2000*%
%ADD16C,0.3500*%
%ADD17C,1.6510*%
%ADD18R,1.6510X1.6510*%
%ADD19C,1.2000*%
%ADD20R,1.2000X1.2000*%
%ADD21C,0.6000*%
G36*
X-35250Y-27500D02*
X-10988D01*
X577Y-39066D01*
X-197Y-39167D01*
X-1778Y-39822D01*
X-3136Y-40864D01*
X-4178Y-42222D01*
X-4833Y-43803D01*
X-5056Y-45500D01*
X-4833Y-47197D01*
X-4178Y-48778D01*
X-3136Y-50136D01*
X-1778Y-51178D01*
X-197Y-51833D01*
X1500Y-52056D01*
X3197Y-51833D01*
X4778Y-51178D01*
X6136Y-50136D01*
X7178Y-48778D01*
X7833Y-47197D01*
X8043Y-45598D01*
X9250Y-45838D01*
X12828D01*
X12864Y-45886D01*
X14222Y-46927D01*
X15803Y-47582D01*
X17500Y-47806D01*
X19197Y-47582D01*
X20020Y-47242D01*
X13656Y-53606D01*
X12661Y-55094D01*
X12312Y-56850D01*
Y-58250D01*
X10400D01*
Y-80750D01*
X37184D01*
X36822Y-81222D01*
X36167Y-82803D01*
X35944Y-84500D01*
X36167Y-86197D01*
X36822Y-87778D01*
X37864Y-89136D01*
X39222Y-90178D01*
X40803Y-90833D01*
X42500Y-91056D01*
X44197Y-90833D01*
X45778Y-90178D01*
X47136Y-89136D01*
X48178Y-87778D01*
X48255Y-87592D01*
X48864Y-88386D01*
X50222Y-89428D01*
X51603Y-90000D01*
X46750D01*
Y-98750D01*
X55250D01*
X63750D01*
Y-90000D01*
X55396D01*
X56778Y-89428D01*
X58136Y-88386D01*
X59178Y-87028D01*
X59833Y-85447D01*
X60056Y-83750D01*
X59833Y-82053D01*
X59293Y-80750D01*
X73013D01*
X72864Y-80864D01*
X71822Y-82222D01*
X71167Y-83803D01*
X70944Y-85500D01*
X71167Y-87197D01*
X71822Y-88778D01*
X72760Y-90000D01*
X66250D01*
Y-110000D01*
X70162D01*
Y-133350D01*
X70046Y-133465D01*
X69428Y-131972D01*
X68386Y-130614D01*
X67028Y-129572D01*
X65447Y-128917D01*
X63750Y-128694D01*
X62053Y-128917D01*
X60472Y-129572D01*
X59114Y-130614D01*
X58308Y-131665D01*
X57886Y-131114D01*
X56528Y-130072D01*
X54947Y-129417D01*
X53250Y-129194D01*
X51553Y-129417D01*
X49972Y-130072D01*
X48614Y-131114D01*
X47572Y-132472D01*
X46917Y-134053D01*
X46694Y-135750D01*
X46917Y-137447D01*
X47572Y-139028D01*
X48614Y-140386D01*
X49110Y-140766D01*
X47731Y-140948D01*
X44872Y-142132D01*
X44541Y-142386D01*
X44333Y-140803D01*
X43678Y-139222D01*
X42636Y-137864D01*
X41278Y-136822D01*
X39697Y-136167D01*
X38000Y-135944D01*
X36303Y-136167D01*
X34722Y-136822D01*
X33364Y-137864D01*
X32322Y-139222D01*
X31667Y-140803D01*
X31477Y-142247D01*
X31328Y-142132D01*
X28468Y-140948D01*
X25400Y-140544D01*
X22331Y-140948D01*
X19472Y-142132D01*
X17016Y-144016D01*
X15132Y-146472D01*
X13947Y-149332D01*
X13543Y-152400D01*
X13947Y-155469D01*
X15132Y-158328D01*
X16807Y-160512D01*
X8592D01*
X10268Y-158328D01*
X11452Y-155469D01*
X11856Y-152400D01*
X11452Y-149332D01*
X10268Y-146472D01*
X8384Y-144016D01*
X5928Y-142132D01*
X3068Y-140948D01*
X-0Y-140544D01*
X-3069Y-140948D01*
X-5928Y-142132D01*
X-8162Y-143846D01*
Y-117500D01*
X-6750D01*
Y-97500D01*
X-10662D01*
Y-95000D01*
X-6750D01*
Y-90674D01*
X-5750Y-90806D01*
X-4053Y-90583D01*
X-2472Y-89928D01*
X-1114Y-88886D01*
X-72Y-87528D01*
X582Y-85947D01*
X806Y-84250D01*
X582Y-82553D01*
X-72Y-80972D01*
X-1114Y-79614D01*
X-2472Y-78572D01*
X-4053Y-77917D01*
X-5750Y-77694D01*
X-6750Y-77825D01*
Y-75000D01*
X-13377D01*
X-12822Y-74278D01*
X-12167Y-72697D01*
X-12153Y-72588D01*
X-9172D01*
X-9136Y-72636D01*
X-7778Y-73678D01*
X-6197Y-74333D01*
X-4500Y-74556D01*
X-2803Y-74333D01*
X-1222Y-73678D01*
X136Y-72636D01*
X1178Y-71278D01*
X1833Y-69697D01*
X2056Y-68000D01*
X1833Y-66303D01*
X1178Y-64722D01*
X136Y-63364D01*
X-1222Y-62322D01*
X-2803Y-61667D01*
X-4500Y-61444D01*
X-4750Y-61477D01*
Y-57749D01*
X-10250D01*
Y-55249D01*
X-4750D01*
Y-47500D01*
X-27761D01*
X-30912Y-44349D01*
Y-39922D01*
X-30864Y-39886D01*
X-29822Y-38528D01*
X-29167Y-36947D01*
X-28944Y-35250D01*
X-29167Y-33553D01*
X-29822Y-31972D01*
X-30864Y-30614D01*
X-32222Y-29572D01*
X-33803Y-28917D01*
X-35500Y-28694D01*
X-37197Y-28917D01*
X-38778Y-29572D01*
X-40000Y-30510D01*
Y-24239D01*
X-38849Y-23088D01*
X-35250D01*
Y-27500D01*
D02*
G37*
G36*
X112500Y78011D02*
Y74239D01*
X104756Y66495D01*
X104592Y66250D01*
X85000D01*
Y49250D01*
X87359D01*
X87194Y48000D01*
X87417Y46303D01*
X87714Y45588D01*
X87500D01*
X85744Y45239D01*
X84256Y44244D01*
X81011Y41000D01*
X71000D01*
Y25000D01*
X80662D01*
Y22250D01*
X81011Y20494D01*
X81341Y20000D01*
X71000D01*
Y4000D01*
X81011D01*
X85505Y-494D01*
X86994Y-1489D01*
X88750Y-1838D01*
X89078D01*
X89114Y-1886D01*
X90472Y-2928D01*
X92053Y-3582D01*
X93750Y-3806D01*
X95447Y-3582D01*
X97028Y-2928D01*
X98386Y-1886D01*
X98412Y-1852D01*
Y-3328D01*
X98364Y-3364D01*
X97685Y-4250D01*
X21488D01*
Y-0D01*
X26250D01*
Y20000D01*
X22338D01*
Y25000D01*
X26250D01*
Y45000D01*
X18838D01*
Y49250D01*
X29260D01*
X29194Y48750D01*
X29417Y47053D01*
X30072Y45472D01*
X30434Y45000D01*
X28750D01*
Y25000D01*
X45750D01*
Y30412D01*
X52000D01*
Y25000D01*
X69000D01*
Y41000D01*
X53835D01*
X54636Y41614D01*
X55678Y42972D01*
X56333Y44553D01*
X56556Y46250D01*
X56333Y47947D01*
X55793Y49250D01*
X60000D01*
Y56646D01*
X60553Y56417D01*
X62250Y56194D01*
X62500Y56227D01*
Y49250D01*
X82500D01*
Y66250D01*
X70362D01*
X69256Y66989D01*
X67500Y67338D01*
X66922D01*
X66886Y67386D01*
X65528Y68428D01*
X64750Y68750D01*
X82500D01*
Y80761D01*
X85000Y83261D01*
Y68750D01*
X105000D01*
Y82992D01*
X106136Y83864D01*
X106173Y83912D01*
X106600D01*
X112500Y78011D01*
D02*
G37*
G36*
X-189244Y9506D02*
X-187756Y8511D01*
X-186307Y8223D01*
X-188068Y5928D01*
X-189253Y3068D01*
X-189657Y-0D01*
X-189253Y-3069D01*
X-188068Y-5928D01*
X-186184Y-8384D01*
X-185176Y-9157D01*
X-189104D01*
X-194755Y-3506D01*
X-196244Y-2511D01*
X-198000Y-2162D01*
X-220515D01*
X-219999Y-1948D01*
X-218015Y-426D01*
X-216492Y1559D01*
X-215535Y3870D01*
X-215208Y6350D01*
X-215535Y8830D01*
X-216492Y11141D01*
X-216892Y11662D01*
X-191400D01*
X-189244Y9506D01*
D02*
G37*
G36*
X84412Y95650D02*
X74511Y85750D01*
X64989D01*
X82995Y103756D01*
X83989Y105244D01*
X84338Y107000D01*
Y143828D01*
X84412Y143884D01*
Y95650D01*
D02*
G37*
G36*
X-43750Y96011D02*
Y80000D01*
X-26750D01*
Y85412D01*
X-557D01*
X-1427Y84278D01*
X-2082Y82697D01*
X-2306Y81000D01*
X-2082Y79303D01*
X-1427Y77722D01*
X-386Y76364D01*
X972Y75322D01*
X2553Y74667D01*
X4250Y74444D01*
X5947Y74667D01*
X7528Y75322D01*
X8886Y76364D01*
X9662Y77375D01*
Y45000D01*
X9250D01*
Y25000D01*
X13162D01*
Y20000D01*
X9250D01*
Y14588D01*
X2500D01*
Y18750D01*
X-17500D01*
Y14838D01*
X-20500D01*
X-22256Y14489D01*
X-23744Y13494D01*
X-29750Y7488D01*
X-35506Y13244D01*
X-36995Y14239D01*
X-38750Y14588D01*
X-58110D01*
X-57917Y15053D01*
X-57722Y16539D01*
X-57000Y16444D01*
X-55303Y16667D01*
X-53722Y17322D01*
X-52364Y18364D01*
X-51322Y19722D01*
X-50667Y21303D01*
X-50444Y23000D01*
X-50667Y24697D01*
X-50781Y24973D01*
X-49303Y25167D01*
X-47722Y25822D01*
X-46364Y26864D01*
X-45322Y28222D01*
X-44667Y29803D01*
X-44444Y31500D01*
X-44575Y32500D01*
X-43303Y32667D01*
X-41722Y33322D01*
X-40364Y34364D01*
X-39322Y35722D01*
X-38667Y37303D01*
X-38444Y39000D01*
X-38667Y40697D01*
X-39088Y41713D01*
X-38222Y42072D01*
X-36864Y43114D01*
X-35823Y44472D01*
X-35168Y46053D01*
X-34944Y47750D01*
X-35168Y49447D01*
X-35500Y50250D01*
X-34722Y50573D01*
X-33364Y51614D01*
X-32322Y52972D01*
X-31667Y54553D01*
X-31444Y56250D01*
X-31667Y57947D01*
X-32322Y59528D01*
X-33364Y60886D01*
X-33714Y61154D01*
X-33114Y61614D01*
X-32073Y62972D01*
X-31418Y64553D01*
X-31194Y66250D01*
X-31418Y67947D01*
X-32073Y69528D01*
X-33114Y70886D01*
X-34472Y71928D01*
X-36053Y72583D01*
X-37750Y72806D01*
X-39279Y72605D01*
X-39194Y73250D01*
X-39418Y74947D01*
X-40072Y76528D01*
X-41114Y77886D01*
X-42472Y78928D01*
X-44053Y79583D01*
X-45750Y79806D01*
X-47447Y79583D01*
X-49028Y78928D01*
X-49837Y78307D01*
X-50972Y79177D01*
X-52553Y79833D01*
X-53827Y80000D01*
X-46250D01*
Y98511D01*
X-43750Y96011D01*
D02*
G37*
G36*
X-263685Y38756D02*
X-262196Y37761D01*
X-260440Y37412D01*
X-257820D01*
X-258488Y36541D01*
X-259446Y34230D01*
X-259772Y31750D01*
X-259446Y29270D01*
X-258488Y26959D01*
X-256966Y24974D01*
X-254981Y23452D01*
X-252670Y22494D01*
X-250190Y22168D01*
X-247710Y22494D01*
X-245399Y23452D01*
X-243415Y24974D01*
X-241892Y26959D01*
X-240935Y29270D01*
X-240608Y31750D01*
X-240935Y34230D01*
X-241892Y36541D01*
X-242560Y37412D01*
X-232420D01*
X-233088Y36541D01*
X-234046Y34230D01*
X-234372Y31750D01*
X-234046Y29270D01*
X-233088Y26959D01*
X-231566Y24974D01*
X-229581Y23452D01*
X-227270Y22494D01*
X-224790Y22168D01*
X-222310Y22494D01*
X-219999Y23452D01*
X-218015Y24974D01*
X-216492Y26959D01*
X-215535Y29270D01*
X-215208Y31750D01*
X-215535Y34230D01*
X-216492Y36541D01*
X-217160Y37412D01*
X-216651D01*
X-214244Y35006D01*
X-213256Y34346D01*
X-212756Y34011D01*
X-212756D01*
X-212756Y34011D01*
X-211794Y33820D01*
X-211000Y33662D01*
X-186277D01*
X-188068Y31328D01*
X-189253Y28468D01*
X-189657Y25400D01*
X-189253Y22331D01*
X-188556Y20651D01*
X-189500Y20838D01*
X-261350D01*
X-288256Y47744D01*
X-289744Y48739D01*
X-291500Y49088D01*
X-321291D01*
X-319615Y50374D01*
X-318092Y52359D01*
X-318008Y52562D01*
X-277491D01*
X-263685Y38756D01*
D02*
G37*
G36*
X166903Y-97191D02*
X166347Y-98532D01*
X165943Y-101600D01*
X166347Y-104669D01*
X167532Y-107528D01*
X169416Y-109984D01*
X171872Y-111868D01*
X174731Y-113053D01*
X177800Y-113457D01*
X180868Y-113053D01*
X183728Y-111868D01*
X185000Y-110892D01*
Y-117708D01*
X183728Y-116732D01*
X180868Y-115548D01*
X177800Y-115144D01*
X174731Y-115548D01*
X171872Y-116732D01*
X169416Y-118616D01*
X167532Y-121072D01*
X166347Y-123932D01*
X165943Y-127000D01*
X166347Y-130069D01*
X167532Y-132928D01*
X168190Y-133786D01*
X166697Y-133167D01*
X165000Y-132944D01*
X163303Y-133167D01*
X162103Y-133665D01*
X162668Y-132928D01*
X163852Y-130069D01*
X164256Y-127000D01*
X163852Y-123932D01*
X162668Y-121072D01*
X160784Y-118616D01*
X158328Y-116732D01*
X155469Y-115548D01*
X152400Y-115144D01*
X149331Y-115548D01*
X146472Y-116732D01*
X144016Y-118616D01*
X142132Y-121072D01*
X140947Y-123932D01*
X140543Y-127000D01*
X140947Y-130069D01*
X142132Y-132928D01*
X144016Y-135384D01*
X146472Y-137268D01*
X149331Y-138453D01*
X152400Y-138857D01*
X155469Y-138453D01*
X158328Y-137268D01*
X159150Y-136637D01*
X158667Y-137803D01*
X158444Y-139500D01*
X158667Y-141197D01*
X159322Y-142778D01*
X159541Y-143063D01*
X158328Y-142132D01*
X155469Y-140948D01*
X152400Y-140544D01*
X149331Y-140948D01*
X146472Y-142132D01*
X144016Y-144016D01*
X142132Y-146472D01*
X140947Y-149332D01*
X140543Y-152400D01*
X140947Y-155469D01*
X142132Y-158328D01*
X144016Y-160784D01*
X146472Y-162668D01*
X149331Y-163853D01*
X152400Y-164257D01*
X155469Y-163853D01*
X158328Y-162668D01*
X160412Y-161069D01*
Y-165000D01*
X160761Y-166756D01*
X161756Y-168245D01*
X166903Y-173391D01*
X166347Y-174732D01*
X165943Y-177800D01*
X166347Y-180869D01*
X167532Y-183728D01*
X168508Y-185000D01*
X161692D01*
X162668Y-183728D01*
X163852Y-180869D01*
X164092Y-179050D01*
X140708D01*
X140947Y-180869D01*
X142132Y-183728D01*
X143108Y-185000D01*
X136292D01*
X137268Y-183728D01*
X138452Y-180869D01*
X138856Y-177800D01*
X138452Y-174732D01*
X137268Y-171872D01*
X135384Y-169416D01*
X132928Y-167532D01*
X130069Y-166348D01*
X127000Y-165944D01*
X123931Y-166348D01*
X121072Y-167532D01*
X118616Y-169416D01*
X116732Y-171872D01*
X115547Y-174732D01*
X115143Y-177800D01*
X115547Y-180869D01*
X116732Y-183728D01*
X117708Y-185000D01*
X110892D01*
X111868Y-183728D01*
X113052Y-180869D01*
X113456Y-177800D01*
X113052Y-174732D01*
X111868Y-171872D01*
X109984Y-169416D01*
X107528Y-167532D01*
X104669Y-166348D01*
X101600Y-165944D01*
X98531Y-166348D01*
X95672Y-167532D01*
X93216Y-169416D01*
X91332Y-171872D01*
X90147Y-174732D01*
X89743Y-177800D01*
X90147Y-180869D01*
X91332Y-183728D01*
X92308Y-185000D01*
X85492D01*
X86468Y-183728D01*
X87652Y-180869D01*
X88056Y-177800D01*
X87652Y-174732D01*
X86468Y-171872D01*
X84584Y-169416D01*
X82128Y-167532D01*
X79268Y-166348D01*
X76200Y-165944D01*
X73131Y-166348D01*
X70272Y-167532D01*
X67816Y-169416D01*
X65932Y-171872D01*
X64747Y-174732D01*
X64343Y-177800D01*
X64747Y-180869D01*
X65932Y-183728D01*
X66908Y-185000D01*
X60092D01*
X61068Y-183728D01*
X62252Y-180869D01*
X62656Y-177800D01*
X62252Y-174732D01*
X61697Y-173391D01*
X66995Y-168094D01*
X67989Y-166605D01*
X68338Y-164850D01*
Y-161185D01*
X70272Y-162668D01*
X73131Y-163853D01*
X74950Y-164092D01*
Y-152400D01*
X76200D01*
Y-151150D01*
X87892D01*
X87652Y-149332D01*
X86468Y-146472D01*
X84584Y-144016D01*
X82128Y-142132D01*
X79268Y-140948D01*
X76200Y-140544D01*
X75906Y-140582D01*
X77994Y-138494D01*
X78989Y-137006D01*
X79338Y-135250D01*
Y-118058D01*
X80472Y-118928D01*
X82053Y-119583D01*
X82588Y-119653D01*
X82444Y-120750D01*
X82667Y-122447D01*
X83322Y-124028D01*
X84364Y-125386D01*
X85722Y-126428D01*
X87303Y-127083D01*
X89000Y-127306D01*
X90697Y-127083D01*
X92278Y-126428D01*
X93636Y-125386D01*
X94678Y-124028D01*
X95333Y-122447D01*
X95556Y-120750D01*
X95333Y-119053D01*
X94678Y-117472D01*
X93636Y-116114D01*
X92278Y-115072D01*
X90697Y-114417D01*
X90162Y-114347D01*
X90306Y-113250D01*
X90083Y-111553D01*
X89428Y-109972D01*
X88386Y-108614D01*
X87028Y-107572D01*
X85447Y-106917D01*
X83750Y-106694D01*
X83250Y-106760D01*
Y-100838D01*
X108500D01*
X109453Y-100648D01*
X110256Y-100489D01*
X110256Y-100489D01*
X110256Y-100489D01*
X111254Y-99822D01*
X111744Y-99494D01*
X111744Y-99494D01*
X111744Y-99494D01*
X111744Y-99494D01*
X117600Y-93639D01*
X127578D01*
X127322Y-93972D01*
X126667Y-95553D01*
X126444Y-97250D01*
X126667Y-98947D01*
X127322Y-100528D01*
X128364Y-101886D01*
X129722Y-102928D01*
X131303Y-103583D01*
X133000Y-103806D01*
X134697Y-103583D01*
X136278Y-102928D01*
X137636Y-101886D01*
X138678Y-100528D01*
X139333Y-98947D01*
X139556Y-97250D01*
X139333Y-95553D01*
X138678Y-93972D01*
X138422Y-93639D01*
X143692D01*
X142132Y-95672D01*
X140947Y-98532D01*
X140543Y-101600D01*
X140947Y-104669D01*
X142132Y-107528D01*
X144016Y-109984D01*
X146472Y-111868D01*
X149331Y-113053D01*
X152400Y-113457D01*
X155469Y-113053D01*
X158328Y-111868D01*
X160784Y-109984D01*
X162668Y-107528D01*
X163852Y-104669D01*
X164256Y-101600D01*
X163852Y-98532D01*
X162668Y-95672D01*
X161108Y-93639D01*
X163350D01*
X166903Y-97191D01*
D02*
G37*
G36*
X-82494Y-14994D02*
X-82494D01*
Y-14994D01*
X-81755Y-15488D01*
X-81006Y-15989D01*
X-81006D01*
X-81006Y-15989D01*
X-79686Y-16251D01*
X-79250Y-16338D01*
X-79250D01*
D01*
X-68500D01*
X-66744Y-15989D01*
X-65256Y-14994D01*
X-63099Y-12838D01*
X-55422D01*
X-55386Y-12886D01*
X-54028Y-13928D01*
X-52447Y-14583D01*
X-50750Y-14806D01*
X-49053Y-14583D01*
X-47472Y-13928D01*
X-46114Y-12886D01*
X-45072Y-11528D01*
X-44417Y-9947D01*
X-44194Y-8250D01*
X-44417Y-6553D01*
X-45072Y-4972D01*
X-46114Y-3614D01*
X-47472Y-2572D01*
X-49053Y-1917D01*
X-50750Y-1694D01*
X-52447Y-1917D01*
X-54028Y-2572D01*
X-55386Y-3614D01*
X-55422Y-3662D01*
X-65000D01*
X-65752Y-3811D01*
X-65917Y-2553D01*
X-66572Y-972D01*
X-67614Y386D01*
X-68972Y1428D01*
X-70553Y2083D01*
X-72250Y2306D01*
X-73947Y2083D01*
X-75528Y1428D01*
X-76886Y386D01*
X-77928Y-972D01*
X-78583Y-2553D01*
X-78806Y-4250D01*
X-78585Y-5926D01*
X-101923Y17412D01*
X-95153Y17413D01*
X-89548Y11809D01*
X-89556Y11750D01*
X-89332Y10053D01*
X-88678Y8472D01*
X-87636Y7114D01*
X-86278Y6072D01*
X-84697Y5417D01*
X-83000Y5194D01*
X-81303Y5417D01*
X-79722Y6072D01*
X-78364Y7114D01*
X-77322Y8472D01*
X-76667Y10053D01*
X-76565Y10826D01*
X-72495Y6756D01*
X-72495Y6756D01*
X-72495Y6755D01*
X-71860Y6332D01*
X-71006Y5761D01*
X-71006Y5761D01*
X-71006Y5761D01*
X-70026Y5566D01*
X-69250Y5412D01*
X-69250D01*
X-69250D01*
X-40651D01*
X-34338Y-901D01*
Y-9500D01*
X-35250D01*
Y-13912D01*
X-40750D01*
X-42506Y-14261D01*
X-43994Y-15256D01*
X-47989Y-19250D01*
X-59684D01*
X-60364Y-18364D01*
X-61722Y-17322D01*
X-63303Y-16667D01*
X-65000Y-16444D01*
X-66697Y-16667D01*
X-68278Y-17322D01*
X-69636Y-18364D01*
X-70056Y-18912D01*
X-131100D01*
X-139510Y-10501D01*
X-140999Y-9506D01*
X-142755Y-9157D01*
X-145024D01*
X-144016Y-8384D01*
X-142132Y-5928D01*
X-140948Y-3069D01*
X-140544Y-0D01*
X-140948Y3068D01*
X-142132Y5928D01*
X-144016Y8384D01*
X-146472Y10268D01*
X-149332Y11452D01*
X-152400Y11856D01*
X-155469Y11452D01*
X-156809Y10897D01*
X-161906Y15994D01*
X-163395Y16989D01*
X-165151Y17338D01*
X-169169D01*
X-167532Y19472D01*
X-166348Y22331D01*
X-165944Y25400D01*
X-166348Y28468D01*
X-167532Y31328D01*
X-169323Y33662D01*
X-160877D01*
X-162668Y31328D01*
X-163853Y28468D01*
X-164257Y25400D01*
X-163853Y22331D01*
X-162668Y19472D01*
X-160784Y17016D01*
X-158328Y15132D01*
X-155469Y13947D01*
X-152400Y13543D01*
X-149332Y13947D01*
X-146472Y15132D01*
X-144016Y17016D01*
X-142132Y19472D01*
X-140948Y22331D01*
X-140544Y25400D01*
X-140948Y28468D01*
X-142132Y31328D01*
X-143923Y33662D01*
X-131150D01*
X-82494Y-14994D01*
D02*
G37*
G36*
X-187092Y185000D02*
X-188068Y183728D01*
X-189253Y180868D01*
X-189657Y177800D01*
X-189253Y174731D01*
X-188068Y171872D01*
X-186184Y169416D01*
X-183728Y167532D01*
X-180869Y166347D01*
X-177800Y165943D01*
X-174732Y166347D01*
X-171872Y167532D01*
X-169416Y169416D01*
X-167532Y171872D01*
X-166348Y174731D01*
X-165944Y177800D01*
X-166348Y180868D01*
X-167532Y183728D01*
X-168508Y185000D01*
X-161692D01*
X-162668Y183728D01*
X-163853Y180868D01*
X-164257Y177800D01*
X-163853Y174731D01*
X-162668Y171872D01*
X-160784Y169416D01*
X-158328Y167532D01*
X-155469Y166347D01*
X-152400Y165943D01*
X-149332Y166347D01*
X-147991Y166903D01*
X-145244Y164155D01*
X-164155D01*
Y140645D01*
X-140645D01*
Y160620D01*
X-139600Y160412D01*
X-135669D01*
X-137268Y158328D01*
X-138453Y155469D01*
X-138857Y152400D01*
X-138453Y149331D01*
X-137268Y146472D01*
X-135384Y144016D01*
X-132928Y142132D01*
X-130069Y140947D01*
X-127000Y140543D01*
X-123932Y140947D01*
X-121072Y142132D01*
X-118616Y144016D01*
X-116732Y146472D01*
X-115548Y149331D01*
X-115144Y152400D01*
X-115548Y155469D01*
X-116732Y158328D01*
X-118331Y160412D01*
X-110269D01*
X-111868Y158328D01*
X-113053Y155469D01*
X-113457Y152400D01*
X-113053Y149331D01*
X-111868Y146472D01*
X-109984Y144016D01*
X-107528Y142132D01*
X-104669Y140947D01*
X-101600Y140543D01*
X-98532Y140947D01*
X-97191Y141503D01*
X-73541Y117852D01*
X-74494Y118489D01*
X-76250Y118838D01*
X-143846D01*
X-142132Y121072D01*
X-140948Y123931D01*
X-140544Y127000D01*
X-140948Y130069D01*
X-142132Y132928D01*
X-144016Y135384D01*
X-146472Y137268D01*
X-149332Y138452D01*
X-152400Y138856D01*
X-155469Y138452D01*
X-158328Y137268D01*
X-160784Y135384D01*
X-162668Y132928D01*
X-163853Y130069D01*
X-164257Y127000D01*
X-163853Y123931D01*
X-162668Y121072D01*
X-160954Y118838D01*
X-169246D01*
X-167532Y121072D01*
X-166348Y123931D01*
X-165944Y127000D01*
X-166348Y130069D01*
X-167532Y132928D01*
X-169416Y135384D01*
X-171872Y137268D01*
X-174732Y138452D01*
X-177800Y138856D01*
X-180869Y138452D01*
X-183728Y137268D01*
X-186184Y135384D01*
X-188068Y132928D01*
X-189253Y130069D01*
X-189657Y127000D01*
X-189253Y123931D01*
X-188068Y121072D01*
X-186354Y118838D01*
X-231099D01*
X-236255Y123994D01*
X-237744Y124989D01*
X-239500Y125338D01*
X-334250D01*
X-335175Y125154D01*
X-336006Y124989D01*
X-336006Y124989D01*
X-336006Y124989D01*
X-336686Y124534D01*
X-337494Y123994D01*
X-342744Y118745D01*
X-342744Y118745D01*
X-342744Y118745D01*
X-343239Y118005D01*
X-343739Y117256D01*
X-343739Y117256D01*
X-343739Y117256D01*
X-343932Y116286D01*
X-344088Y115500D01*
X-344088Y115500D01*
X-344088Y115500D01*
Y95660D01*
X-343739Y93904D01*
X-342744Y92416D01*
X-335562Y85233D01*
X-335646Y85030D01*
X-335972Y82550D01*
X-335646Y80070D01*
X-334688Y77759D01*
X-333166Y75774D01*
X-331181Y74252D01*
X-328870Y73294D01*
X-326390Y72968D01*
X-323910Y73294D01*
X-321599Y74252D01*
X-319615Y75774D01*
X-318092Y77759D01*
X-317135Y80070D01*
X-316808Y82550D01*
X-317135Y85030D01*
X-318092Y87341D01*
X-319615Y89325D01*
X-321599Y90848D01*
X-323910Y91805D01*
X-326390Y92132D01*
X-328870Y91805D01*
X-329073Y91721D01*
X-334912Y97560D01*
Y103699D01*
X-334688Y103159D01*
X-333166Y101174D01*
X-331181Y99652D01*
X-328870Y98694D01*
X-326390Y98368D01*
X-323910Y98694D01*
X-321599Y99652D01*
X-319615Y101174D01*
X-318092Y103159D01*
X-317135Y105470D01*
X-316808Y107950D01*
X-317135Y110430D01*
X-318092Y112741D01*
X-319615Y114725D01*
X-321487Y116162D01*
X-305894D01*
X-307766Y114725D01*
X-309288Y112741D01*
X-310246Y110430D01*
X-310572Y107950D01*
X-310246Y105470D01*
X-309288Y103159D01*
X-307766Y101174D01*
X-305781Y99652D01*
X-303470Y98694D01*
X-300990Y98368D01*
X-298510Y98694D01*
X-296199Y99652D01*
X-294215Y101174D01*
X-292692Y103159D01*
X-291735Y105470D01*
X-291408Y107950D01*
X-291735Y110430D01*
X-292692Y112741D01*
X-294215Y114725D01*
X-296087Y116162D01*
X-280494D01*
X-282366Y114725D01*
X-283888Y112741D01*
X-284846Y110430D01*
X-285008Y109200D01*
X-266173D01*
X-266335Y110430D01*
X-267292Y112741D01*
X-268815Y114725D01*
X-270687Y116162D01*
X-255094D01*
X-256966Y114725D01*
X-258488Y112741D01*
X-259446Y110430D01*
X-259772Y107950D01*
X-259446Y105470D01*
X-258488Y103159D01*
X-256966Y101174D01*
X-254981Y99652D01*
X-252670Y98694D01*
X-250190Y98368D01*
X-247710Y98694D01*
X-245399Y99652D01*
X-243415Y101174D01*
X-241892Y103159D01*
X-240935Y105470D01*
X-240608Y107950D01*
X-240935Y110430D01*
X-241892Y112741D01*
X-243415Y114725D01*
X-245287Y116162D01*
X-241400D01*
X-236244Y111006D01*
X-234756Y110011D01*
X-233000Y109662D01*
X-186431D01*
X-188068Y107528D01*
X-189253Y104669D01*
X-189657Y101600D01*
X-189253Y98531D01*
X-188068Y95672D01*
X-186184Y93216D01*
X-183728Y91332D01*
X-180869Y90147D01*
X-177800Y89743D01*
X-174732Y90147D01*
X-171872Y91332D01*
X-169416Y93216D01*
X-167532Y95672D01*
X-166348Y98531D01*
X-165944Y101600D01*
X-166348Y104669D01*
X-167532Y107528D01*
X-169170Y109662D01*
X-161031D01*
X-162668Y107528D01*
X-163853Y104669D01*
X-164257Y101600D01*
X-163853Y98531D01*
X-162668Y95672D01*
X-160784Y93216D01*
X-158328Y91332D01*
X-155469Y90147D01*
X-152400Y89743D01*
X-149332Y90147D01*
X-146472Y91332D01*
X-144016Y93216D01*
X-142132Y95672D01*
X-140948Y98531D01*
X-140544Y101600D01*
X-140948Y104669D01*
X-142132Y107528D01*
X-143770Y109662D01*
X-78150D01*
X-66994Y98506D01*
X-65506Y97511D01*
X-63750Y97162D01*
X-63250D01*
Y84892D01*
X-63697Y84833D01*
X-65278Y84178D01*
X-66636Y83136D01*
X-67167Y82444D01*
X-67472Y82678D01*
X-69053Y83333D01*
X-70750Y83556D01*
X-72447Y83333D01*
X-74028Y82678D01*
X-75375Y81644D01*
X-76722Y82678D01*
X-78303Y83333D01*
X-80000Y83556D01*
X-81697Y83333D01*
X-83278Y82678D01*
X-84636Y81636D01*
X-85678Y80278D01*
X-86333Y78697D01*
X-86556Y77000D01*
X-86333Y75303D01*
X-85678Y73722D01*
X-84670Y72409D01*
X-106126Y93865D01*
X-105944Y95250D01*
X-106167Y96947D01*
X-106822Y98528D01*
X-107864Y99886D01*
X-109222Y100928D01*
X-110803Y101582D01*
X-112500Y101806D01*
X-114197Y101582D01*
X-115778Y100928D01*
X-117136Y99886D01*
X-118177Y98528D01*
X-118833Y96947D01*
X-119056Y95250D01*
X-118833Y93553D01*
X-118177Y91972D01*
X-117136Y90614D01*
X-115778Y89572D01*
X-114197Y88917D01*
X-114149Y88911D01*
X-113260Y88022D01*
X-114697Y87832D01*
X-116278Y87177D01*
X-117636Y86136D01*
X-118678Y84778D01*
X-119333Y83197D01*
X-119556Y81500D01*
X-119333Y79803D01*
X-118678Y78222D01*
X-117636Y76864D01*
X-116278Y75822D01*
X-114697Y75167D01*
X-113000Y74944D01*
X-111303Y75167D01*
X-109722Y75822D01*
X-108641Y76652D01*
X-92739Y60750D01*
X-96251D01*
Y53500D01*
X-87500D01*
Y55511D01*
X-76838Y44850D01*
Y33182D01*
X-77803Y33582D01*
X-79500Y33805D01*
X-80623Y33658D01*
X-80744Y33739D01*
X-82500Y34088D01*
X-87500D01*
Y41250D01*
X-107500D01*
Y40739D01*
X-140825Y74064D01*
X-140544Y76200D01*
X-140948Y79268D01*
X-142132Y82128D01*
X-144016Y84584D01*
X-146472Y86468D01*
X-149332Y87652D01*
X-152400Y88056D01*
X-155469Y87652D01*
X-158328Y86468D01*
X-160784Y84584D01*
X-162668Y82128D01*
X-163853Y79268D01*
X-164257Y76200D01*
X-163853Y73131D01*
X-162668Y70272D01*
X-160993Y68088D01*
X-169208D01*
X-167532Y70272D01*
X-166348Y73131D01*
X-166108Y74950D01*
X-189492D01*
X-189253Y73131D01*
X-188068Y70272D01*
X-186393Y68088D01*
X-210599D01*
X-213755Y71244D01*
X-213756Y71244D01*
X-213756Y71245D01*
X-214446Y71706D01*
X-215244Y72239D01*
X-215244Y72239D01*
X-215244Y72239D01*
X-216127Y72415D01*
X-217000Y72588D01*
X-217000Y72588D01*
X-217000Y72588D01*
X-239340D01*
X-241096Y72239D01*
X-242584Y71245D01*
X-247507Y66321D01*
X-247710Y66405D01*
X-250190Y66732D01*
X-252670Y66405D01*
X-254981Y65448D01*
X-256966Y63925D01*
X-258488Y61941D01*
X-259446Y59630D01*
X-259772Y57150D01*
X-259446Y54670D01*
X-258488Y52359D01*
X-256966Y50374D01*
X-254981Y48852D01*
X-252670Y47894D01*
X-250190Y47568D01*
X-247710Y47894D01*
X-245399Y48852D01*
X-243415Y50374D01*
X-241892Y52359D01*
X-240935Y54670D01*
X-240608Y57150D01*
X-240935Y59630D01*
X-241019Y59833D01*
X-237439Y63412D01*
X-231959D01*
X-233088Y61941D01*
X-234046Y59630D01*
X-234372Y57150D01*
X-234046Y54670D01*
X-233088Y52359D01*
X-231566Y50374D01*
X-229581Y48852D01*
X-227270Y47894D01*
X-224790Y47568D01*
X-222310Y47894D01*
X-219999Y48852D01*
X-218015Y50374D01*
X-216492Y52359D01*
X-215535Y54670D01*
X-215208Y57150D01*
X-215535Y59630D01*
X-215829Y60340D01*
X-215745Y60256D01*
X-215744Y60256D01*
X-215744Y60255D01*
X-215054Y59794D01*
X-214256Y59261D01*
X-214256Y59261D01*
X-214256Y59261D01*
X-213374Y59085D01*
X-212500Y58912D01*
X-212500Y58912D01*
X-212500Y58912D01*
X-186393D01*
X-188068Y56728D01*
X-189253Y53868D01*
X-189657Y50800D01*
X-189253Y47731D01*
X-188068Y44872D01*
X-186508Y42838D01*
X-209100D01*
X-211506Y45244D01*
X-212494Y45904D01*
X-212994Y46239D01*
X-212994D01*
X-212994Y46239D01*
X-213876Y46414D01*
X-214750Y46588D01*
X-258540D01*
X-272346Y60394D01*
X-273834Y61389D01*
X-275590Y61738D01*
X-318008D01*
X-318092Y61941D01*
X-319615Y63925D01*
X-321599Y65448D01*
X-323910Y66405D01*
X-326390Y66732D01*
X-328870Y66405D01*
X-331181Y65448D01*
X-333166Y63925D01*
X-334688Y61941D01*
X-335646Y59630D01*
X-335972Y57150D01*
X-335646Y54670D01*
X-334688Y52359D01*
X-333166Y50374D01*
X-331489Y49088D01*
X-337240D01*
X-342619Y54467D01*
X-342535Y54670D01*
X-342208Y57150D01*
X-342535Y59630D01*
X-343492Y61941D01*
X-345015Y63925D01*
X-346999Y65448D01*
X-349310Y66405D01*
X-351790Y66732D01*
X-354270Y66405D01*
X-356581Y65448D01*
X-358566Y63925D01*
X-360088Y61941D01*
X-361046Y59630D01*
X-361372Y57150D01*
X-361046Y54670D01*
X-360088Y52359D01*
X-358566Y50374D01*
X-356581Y48852D01*
X-354270Y47894D01*
X-351790Y47568D01*
X-349310Y47894D01*
X-349107Y47978D01*
X-342385Y41256D01*
X-340896Y40261D01*
X-339140Y39912D01*
X-331359D01*
X-333166Y38525D01*
X-334688Y36541D01*
X-335646Y34230D01*
X-335972Y31750D01*
X-335646Y29270D01*
X-334688Y26959D01*
X-333166Y24974D01*
X-331181Y23452D01*
X-328870Y22494D01*
X-326390Y22168D01*
X-323910Y22494D01*
X-321599Y23452D01*
X-319615Y24974D01*
X-318092Y26959D01*
X-317135Y29270D01*
X-316808Y31750D01*
X-317135Y34230D01*
X-318092Y36541D01*
X-319615Y38525D01*
X-321422Y39912D01*
X-293400D01*
X-266494Y13006D01*
X-265006Y12011D01*
X-263250Y11662D01*
X-258089D01*
X-258488Y11141D01*
X-259446Y8830D01*
X-259772Y6350D01*
X-259446Y3870D01*
X-258488Y1559D01*
X-256966Y-426D01*
X-254981Y-1948D01*
X-254466Y-2162D01*
X-314090D01*
X-315846Y-2511D01*
X-317334Y-3506D01*
X-323707Y-9879D01*
X-323910Y-9795D01*
X-326390Y-9468D01*
X-328870Y-9795D01*
X-331181Y-10752D01*
X-333166Y-12275D01*
X-334688Y-14259D01*
X-335646Y-16570D01*
X-335972Y-19050D01*
X-335646Y-21530D01*
X-334688Y-23841D01*
X-333166Y-25826D01*
X-331181Y-27348D01*
X-328870Y-28306D01*
X-326390Y-28632D01*
X-323910Y-28306D01*
X-321599Y-27348D01*
X-319615Y-25826D01*
X-318092Y-23841D01*
X-317135Y-21530D01*
X-316808Y-19050D01*
X-317135Y-16570D01*
X-317219Y-16367D01*
X-312190Y-11338D01*
X-310490D01*
Y-28550D01*
X-291490D01*
Y-11338D01*
X-281145D01*
X-282366Y-12275D01*
X-283888Y-14259D01*
X-284846Y-16570D01*
X-285172Y-19050D01*
X-284846Y-21530D01*
X-283888Y-23841D01*
X-282366Y-25826D01*
X-280381Y-27348D01*
X-278070Y-28306D01*
X-275590Y-28632D01*
X-273110Y-28306D01*
X-270799Y-27348D01*
X-268815Y-25826D01*
X-267292Y-23841D01*
X-266335Y-21530D01*
X-266008Y-19050D01*
X-266335Y-16570D01*
X-267292Y-14259D01*
X-268815Y-12275D01*
X-270035Y-11338D01*
X-255745D01*
X-256966Y-12275D01*
X-258488Y-14259D01*
X-259446Y-16570D01*
X-259772Y-19050D01*
X-259446Y-21530D01*
X-258488Y-23841D01*
X-256966Y-25826D01*
X-254981Y-27348D01*
X-252670Y-28306D01*
X-250190Y-28632D01*
X-247710Y-28306D01*
X-245399Y-27348D01*
X-243415Y-25826D01*
X-241892Y-23841D01*
X-240935Y-21530D01*
X-240608Y-19050D01*
X-240935Y-16570D01*
X-241892Y-14259D01*
X-243415Y-12275D01*
X-244635Y-11338D01*
X-230345D01*
X-231566Y-12275D01*
X-233088Y-14259D01*
X-234046Y-16570D01*
X-234372Y-19050D01*
X-234046Y-21530D01*
X-233088Y-23841D01*
X-231566Y-25826D01*
X-229581Y-27348D01*
X-227270Y-28306D01*
X-224790Y-28632D01*
X-222310Y-28306D01*
X-219999Y-27348D01*
X-218015Y-25826D01*
X-216492Y-23841D01*
X-215535Y-21530D01*
X-215208Y-19050D01*
X-215535Y-16570D01*
X-216492Y-14259D01*
X-218015Y-12275D01*
X-219235Y-11338D01*
X-199900D01*
X-194249Y-16990D01*
X-192760Y-17984D01*
X-191005Y-18333D01*
X-187194D01*
X-188068Y-19472D01*
X-189253Y-22332D01*
X-189657Y-25400D01*
X-189253Y-28469D01*
X-188068Y-31328D01*
X-186184Y-33784D01*
X-183728Y-35668D01*
X-180869Y-36853D01*
X-177800Y-37257D01*
X-174732Y-36853D01*
X-171872Y-35668D01*
X-169416Y-33784D01*
X-167532Y-31328D01*
X-166348Y-28469D01*
X-165944Y-25400D01*
X-166348Y-22332D01*
X-167532Y-19472D01*
X-168406Y-18333D01*
X-161794D01*
X-162668Y-19472D01*
X-163853Y-22332D01*
X-164257Y-25400D01*
X-163853Y-28469D01*
X-162668Y-31328D01*
X-160784Y-33784D01*
X-158328Y-35668D01*
X-155469Y-36853D01*
X-152400Y-37257D01*
X-149332Y-36853D01*
X-146472Y-35668D01*
X-144016Y-33784D01*
X-142132Y-31328D01*
X-140948Y-28469D01*
X-140544Y-25400D01*
X-140948Y-22332D01*
X-141153Y-21835D01*
X-136244Y-26744D01*
X-134756Y-27739D01*
X-133000Y-28088D01*
X-69046D01*
X-68278Y-28678D01*
X-66697Y-29333D01*
X-66365Y-29376D01*
X-81440Y-44452D01*
X-81500Y-44444D01*
X-83197Y-44667D01*
X-84778Y-45322D01*
X-86136Y-46364D01*
X-86248Y-46511D01*
X-87506Y-46761D01*
X-88995Y-47756D01*
X-95489Y-54250D01*
X-107500D01*
Y-58912D01*
X-143808D01*
X-142132Y-56728D01*
X-140948Y-53869D01*
X-140544Y-50800D01*
X-140948Y-47731D01*
X-142132Y-44872D01*
X-144016Y-42416D01*
X-146472Y-40532D01*
X-149332Y-39348D01*
X-152400Y-38944D01*
X-155469Y-39348D01*
X-158328Y-40532D01*
X-160784Y-42416D01*
X-162668Y-44872D01*
X-163853Y-47731D01*
X-164257Y-50800D01*
X-163853Y-53869D01*
X-162668Y-56728D01*
X-160993Y-58912D01*
X-163200D01*
X-166903Y-55209D01*
X-166348Y-53869D01*
X-165944Y-50800D01*
X-166348Y-47731D01*
X-167532Y-44872D01*
X-169416Y-42416D01*
X-171872Y-40532D01*
X-174732Y-39348D01*
X-177800Y-38944D01*
X-180869Y-39348D01*
X-183728Y-40532D01*
X-186184Y-42416D01*
X-188068Y-44872D01*
X-189253Y-47731D01*
X-189657Y-50800D01*
X-189253Y-53869D01*
X-188068Y-56728D01*
X-186184Y-59184D01*
X-183728Y-61068D01*
X-180869Y-62253D01*
X-177800Y-62657D01*
X-174732Y-62253D01*
X-173391Y-61698D01*
X-168344Y-66744D01*
X-166856Y-67739D01*
X-165100Y-68088D01*
X-160993D01*
X-162668Y-70272D01*
X-163853Y-73131D01*
X-164092Y-74950D01*
X-140708D01*
X-140948Y-73131D01*
X-142132Y-70272D01*
X-143808Y-68088D01*
X-107500D01*
Y-71250D01*
X-87500D01*
Y-59239D01*
X-84869Y-56608D01*
X-84778Y-56678D01*
X-83197Y-57333D01*
X-81500Y-57556D01*
X-79803Y-57333D01*
X-78222Y-56678D01*
X-76864Y-55636D01*
X-75822Y-54278D01*
X-75167Y-52697D01*
X-74944Y-51000D01*
X-74952Y-50940D01*
X-60100Y-36088D01*
X-60000D01*
Y-36250D01*
X-41924D01*
X-41833Y-36947D01*
X-41178Y-38528D01*
X-41008Y-38750D01*
X-48751D01*
Y-47249D01*
Y-55750D01*
X-40000D01*
Y-46693D01*
X-39739Y-48006D01*
X-38744Y-49494D01*
X-35250Y-52988D01*
Y-65500D01*
X-27838D01*
Y-66251D01*
X-27838Y-66251D01*
X-27838Y-66251D01*
X-27664Y-67124D01*
X-27489Y-68006D01*
X-27489Y-68006D01*
X-27489Y-68007D01*
X-26956Y-68804D01*
X-26494Y-69495D01*
X-26494Y-69495D01*
X-26494Y-69495D01*
X-25048Y-70940D01*
X-25056Y-71000D01*
X-24833Y-72697D01*
X-24178Y-74278D01*
X-23623Y-75000D01*
X-23750D01*
Y-95000D01*
X-19838D01*
Y-97500D01*
X-23750D01*
Y-117500D01*
X-17338D01*
Y-143770D01*
X-19472Y-142132D01*
X-22332Y-140948D01*
X-25400Y-140544D01*
X-28469Y-140948D01*
X-29809Y-141503D01*
X-40306Y-131006D01*
X-41795Y-130011D01*
X-43550Y-129662D01*
X-47675D01*
X-47572Y-129528D01*
X-46917Y-127947D01*
X-46694Y-126250D01*
X-46917Y-124553D01*
X-47412Y-123359D01*
Y-115500D01*
X-47761Y-113744D01*
X-48756Y-112256D01*
X-57662Y-103350D01*
Y-87673D01*
X-57614Y-87636D01*
X-56572Y-86278D01*
X-55917Y-84697D01*
X-55694Y-83000D01*
X-55917Y-81303D01*
X-56572Y-79722D01*
X-57614Y-78364D01*
X-58972Y-77322D01*
X-60553Y-76667D01*
X-62250Y-76444D01*
X-63947Y-76667D01*
X-65528Y-77322D01*
X-66886Y-78364D01*
X-67928Y-79722D01*
X-68583Y-81303D01*
X-68806Y-83000D01*
X-68583Y-84697D01*
X-67928Y-86278D01*
X-66886Y-87636D01*
X-66838Y-87673D01*
Y-105250D01*
X-66489Y-107006D01*
X-65494Y-108494D01*
X-56588Y-117401D01*
Y-120618D01*
X-57886Y-121614D01*
X-58928Y-122972D01*
X-59583Y-124553D01*
X-59806Y-126250D01*
X-59593Y-127871D01*
X-59947Y-127917D01*
X-61528Y-128572D01*
X-62886Y-129614D01*
X-63928Y-130972D01*
X-64583Y-132553D01*
X-64806Y-134250D01*
X-64583Y-135947D01*
X-63928Y-137528D01*
X-62886Y-138886D01*
X-61528Y-139928D01*
X-59947Y-140583D01*
X-58250Y-140806D01*
X-56553Y-140583D01*
X-54972Y-139928D01*
X-53614Y-138886D01*
X-53578Y-138838D01*
X-45451D01*
X-36298Y-147991D01*
X-36853Y-149332D01*
X-37257Y-152400D01*
X-36853Y-155469D01*
X-35668Y-158328D01*
X-33993Y-160512D01*
X-42208D01*
X-40532Y-158328D01*
X-39348Y-155469D01*
X-39108Y-153650D01*
X-62492D01*
X-62253Y-155469D01*
X-61068Y-158328D01*
X-59393Y-160512D01*
X-63500D01*
X-65256Y-160861D01*
X-66744Y-161856D01*
X-71791Y-166903D01*
X-73131Y-166348D01*
X-76200Y-165944D01*
X-79269Y-166348D01*
X-82128Y-167532D01*
X-84584Y-169416D01*
X-86468Y-171872D01*
X-87653Y-174732D01*
X-88057Y-177800D01*
X-87653Y-180869D01*
X-86468Y-183728D01*
X-85492Y-185000D01*
X-92308D01*
X-91332Y-183728D01*
X-90148Y-180869D01*
X-89744Y-177800D01*
X-90148Y-174732D01*
X-91332Y-171872D01*
X-93216Y-169416D01*
X-95672Y-167532D01*
X-98532Y-166348D01*
X-101600Y-165944D01*
X-104669Y-166348D01*
X-107528Y-167532D01*
X-109984Y-169416D01*
X-111868Y-171872D01*
X-113053Y-174732D01*
X-113457Y-177800D01*
X-113053Y-180869D01*
X-111868Y-183728D01*
X-110892Y-185000D01*
X-117708D01*
X-116732Y-183728D01*
X-115548Y-180869D01*
X-115144Y-177800D01*
X-115548Y-174732D01*
X-116732Y-171872D01*
X-118616Y-169416D01*
X-121072Y-167532D01*
X-123932Y-166348D01*
X-127000Y-165944D01*
X-130069Y-166348D01*
X-132928Y-167532D01*
X-135384Y-169416D01*
X-137268Y-171872D01*
X-138453Y-174732D01*
X-138857Y-177800D01*
X-138453Y-180869D01*
X-137268Y-183728D01*
X-136292Y-185000D01*
X-143108D01*
X-142132Y-183728D01*
X-140948Y-180869D01*
X-140544Y-177800D01*
X-140948Y-174732D01*
X-142132Y-171872D01*
X-144016Y-169416D01*
X-146472Y-167532D01*
X-149332Y-166348D01*
X-152400Y-165944D01*
X-155469Y-166348D01*
X-158328Y-167532D01*
X-160784Y-169416D01*
X-162668Y-171872D01*
X-163853Y-174732D01*
X-164257Y-177800D01*
X-163853Y-180869D01*
X-162668Y-183728D01*
X-161692Y-185000D01*
X-168508D01*
X-167532Y-183728D01*
X-166348Y-180869D01*
X-165944Y-177800D01*
X-166348Y-174732D01*
X-167532Y-171872D01*
X-169416Y-169416D01*
X-171872Y-167532D01*
X-174732Y-166348D01*
X-177800Y-165944D01*
X-180869Y-166348D01*
X-183728Y-167532D01*
X-186184Y-169416D01*
X-188068Y-171872D01*
X-189253Y-174732D01*
X-189657Y-177800D01*
X-189253Y-180869D01*
X-188068Y-183728D01*
X-187092Y-185000D01*
X-375000D01*
X-375000Y177500D01*
X-367500Y185000D01*
X-187092Y185000D01*
D02*
G37*
G36*
X41508Y185000D02*
X40532Y183728D01*
X39347Y180868D01*
X38943Y177800D01*
X39347Y174731D01*
X40532Y171872D01*
X42416Y169416D01*
X44872Y167532D01*
X47731Y166347D01*
X50800Y165943D01*
X53868Y166347D01*
X56728Y167532D01*
X59184Y169416D01*
X61068Y171872D01*
X62252Y174731D01*
X62656Y177800D01*
X62252Y180868D01*
X61068Y183728D01*
X60092Y185000D01*
X66908D01*
X65932Y183728D01*
X64747Y180868D01*
X64343Y177800D01*
X64747Y174731D01*
X65303Y173391D01*
X60255Y168344D01*
X59261Y166856D01*
X58912Y165100D01*
Y160992D01*
X56728Y162668D01*
X53868Y163852D01*
X52050Y164092D01*
Y152400D01*
Y140708D01*
X53868Y140947D01*
X56728Y142132D01*
X58912Y143807D01*
Y115150D01*
X29511Y85750D01*
X24488D01*
X32441Y93702D01*
X32500Y93694D01*
X34197Y93917D01*
X35778Y94572D01*
X37136Y95614D01*
X38178Y96972D01*
X38833Y98553D01*
X39056Y100250D01*
X38833Y101947D01*
X38178Y103528D01*
X37136Y104886D01*
X37088Y104923D01*
Y105000D01*
X38250D01*
Y117011D01*
X41494Y120256D01*
X42489Y121744D01*
X42610Y122351D01*
X43053Y122167D01*
X44750Y121944D01*
X46447Y122167D01*
X48028Y122822D01*
X49386Y123864D01*
X50428Y125222D01*
X51083Y126803D01*
X51306Y128500D01*
X51083Y130197D01*
X50428Y131778D01*
X49386Y133136D01*
X48028Y134178D01*
X46447Y134833D01*
X44750Y135056D01*
X43053Y134833D01*
X42838Y134744D01*
Y143692D01*
X44872Y142132D01*
X47731Y140947D01*
X49550Y140708D01*
Y152400D01*
Y164092D01*
X47731Y163852D01*
X44872Y162668D01*
X42838Y161108D01*
Y164949D01*
X42489Y166705D01*
X41494Y168194D01*
X36297Y173391D01*
X36852Y174731D01*
X37256Y177800D01*
X36852Y180868D01*
X35668Y183728D01*
X34692Y185000D01*
X41508D01*
D02*
G37*
G36*
X-9292Y185000D02*
X-10268Y183728D01*
X-11453Y180868D01*
X-11857Y177800D01*
X-11453Y174731D01*
X-10268Y171872D01*
X-8384Y169416D01*
X-5928Y167532D01*
X-3069Y166347D01*
X-0Y165943D01*
X3068Y166347D01*
X5928Y167532D01*
X8384Y169416D01*
X10268Y171872D01*
X11452Y174731D01*
X11856Y177800D01*
X11452Y180868D01*
X10268Y183728D01*
X9292Y185000D01*
X16108D01*
X15132Y183728D01*
X13947Y180868D01*
X13543Y177800D01*
X13947Y174731D01*
X15132Y171872D01*
X17016Y169416D01*
X19472Y167532D01*
X22331Y166347D01*
X25400Y165943D01*
X28468Y166347D01*
X29809Y166903D01*
X33662Y163049D01*
Y160877D01*
X31328Y162668D01*
X28468Y163852D01*
X25400Y164256D01*
X22331Y163852D01*
X19472Y162668D01*
X17016Y160784D01*
X15132Y158328D01*
X13947Y155469D01*
X13543Y152400D01*
X13947Y149331D01*
X15132Y146472D01*
X17016Y144016D01*
X19472Y142132D01*
X22331Y140947D01*
X25400Y140543D01*
X28468Y140947D01*
X31328Y142132D01*
X33662Y143923D01*
Y125401D01*
X33261Y125000D01*
X21250D01*
Y105000D01*
X27912D01*
Y104923D01*
X27864Y104886D01*
X26822Y103528D01*
X26168Y101947D01*
X25944Y100250D01*
X25952Y100190D01*
X21737Y95976D01*
X21806Y96500D01*
X21583Y98197D01*
X20928Y99778D01*
X19886Y101136D01*
X18528Y102178D01*
X16947Y102833D01*
X15250Y103056D01*
X13553Y102833D01*
X11972Y102178D01*
X11747Y102006D01*
X11428Y102778D01*
X10386Y104136D01*
X9259Y105000D01*
X18750D01*
Y113750D01*
X10250D01*
X1750D01*
Y105000D01*
X2240D01*
X1114Y104136D01*
X72Y102778D01*
X67Y102765D01*
X-1303Y103333D01*
X-3000Y103556D01*
X-4697Y103333D01*
X-6278Y102678D01*
X-7636Y101636D01*
X-8678Y100278D01*
X-9333Y98697D01*
X-9556Y97000D01*
X-9333Y95303D01*
X-9037Y94588D01*
X-26750D01*
Y100000D01*
X-34762D01*
X-39761Y105000D01*
X-36500D01*
Y113750D01*
X-43750D01*
Y108988D01*
X-46250Y111488D01*
Y121460D01*
X-44750Y121162D01*
X-43750D01*
Y116250D01*
X-35250D01*
X-26750D01*
Y121162D01*
X-18250D01*
X-17325Y121346D01*
X-16494Y121511D01*
X-16494Y121511D01*
X-16494Y121511D01*
X-15814Y121966D01*
X-15006Y122506D01*
X-13060Y124452D01*
X-13000Y124444D01*
X-11303Y124667D01*
X-9722Y125322D01*
X-8364Y126364D01*
X-7322Y127722D01*
X-6667Y129303D01*
X-6444Y131000D01*
X-6667Y132697D01*
X-6860Y133162D01*
X-6400D01*
X-4048Y130809D01*
X-4056Y130750D01*
X-3832Y129053D01*
X-3178Y127472D01*
X-2136Y126114D01*
X-778Y125072D01*
X803Y124417D01*
X1750Y124293D01*
Y116250D01*
X9000D01*
Y125000D01*
X5604D01*
X5778Y125072D01*
X7136Y126114D01*
X8178Y127472D01*
X8833Y129053D01*
X9056Y130750D01*
X8936Y131666D01*
X8947Y131667D01*
X10528Y132322D01*
X11886Y133364D01*
X12928Y134722D01*
X13583Y136303D01*
X13806Y138000D01*
X13583Y139697D01*
X12928Y141278D01*
X11886Y142636D01*
X10528Y143678D01*
X8947Y144333D01*
X8656Y144371D01*
X10268Y146472D01*
X11452Y149331D01*
X11856Y152400D01*
X11452Y155469D01*
X10268Y158328D01*
X8384Y160784D01*
X5928Y162668D01*
X3068Y163852D01*
X-0Y164256D01*
X-3069Y163852D01*
X-5928Y162668D01*
X-8384Y160784D01*
X-10268Y158328D01*
X-11453Y155469D01*
X-11857Y152400D01*
X-11453Y149331D01*
X-10268Y146472D01*
X-8384Y144016D01*
X-6197Y142338D01*
X-16750D01*
X-18506Y141989D01*
X-19994Y140995D01*
X-24151Y136838D01*
X-35578D01*
X-35614Y136886D01*
X-36972Y137928D01*
X-38553Y138583D01*
X-40250Y138806D01*
X-41947Y138583D01*
X-43528Y137928D01*
X-44886Y136886D01*
X-45928Y135528D01*
X-46052Y135229D01*
X-46303Y135333D01*
X-48000Y135556D01*
X-49697Y135333D01*
X-51278Y134678D01*
X-52636Y133636D01*
X-52749Y133489D01*
X-53972Y134428D01*
X-55553Y135083D01*
X-57250Y135306D01*
X-58947Y135083D01*
X-60528Y134428D01*
X-61886Y133386D01*
X-62927Y132028D01*
X-63582Y130447D01*
X-63806Y128750D01*
X-63582Y127053D01*
X-62927Y125472D01*
X-62565Y125000D01*
X-63250D01*
Y120538D01*
X-90703Y147991D01*
X-90148Y149331D01*
X-89744Y152400D01*
X-90148Y155469D01*
X-91332Y158328D01*
X-92931Y160412D01*
X-84869D01*
X-86468Y158328D01*
X-87653Y155469D01*
X-88057Y152400D01*
X-87653Y149331D01*
X-86468Y146472D01*
X-84584Y144016D01*
X-82128Y142132D01*
X-79269Y140947D01*
X-76200Y140543D01*
X-73131Y140947D01*
X-70272Y142132D01*
X-67816Y144016D01*
X-65932Y146472D01*
X-64748Y149331D01*
X-64344Y152400D01*
X-64748Y155469D01*
X-65932Y158328D01*
X-67531Y160412D01*
X-59469D01*
X-61068Y158328D01*
X-62253Y155469D01*
X-62657Y152400D01*
X-62253Y149331D01*
X-61068Y146472D01*
X-59184Y144016D01*
X-56728Y142132D01*
X-53869Y140947D01*
X-50800Y140543D01*
X-47731Y140947D01*
X-44872Y142132D01*
X-42416Y144016D01*
X-40532Y146472D01*
X-39348Y149331D01*
X-38944Y152400D01*
X-39348Y155469D01*
X-40532Y158328D01*
X-42131Y160412D01*
X-34069D01*
X-35668Y158328D01*
X-36853Y155469D01*
X-37257Y152400D01*
X-36853Y149331D01*
X-35668Y146472D01*
X-33784Y144016D01*
X-31328Y142132D01*
X-28469Y140947D01*
X-25400Y140543D01*
X-22332Y140947D01*
X-19472Y142132D01*
X-17016Y144016D01*
X-15132Y146472D01*
X-13948Y149331D01*
X-13544Y152400D01*
X-13948Y155469D01*
X-15132Y158328D01*
X-15224Y158447D01*
X-13553Y158667D01*
X-11972Y159322D01*
X-10614Y160364D01*
X-9572Y161722D01*
X-8917Y163303D01*
X-8694Y165000D01*
X-8917Y166697D01*
X-9572Y168278D01*
X-10614Y169636D01*
X-11972Y170678D01*
X-13553Y171332D01*
X-15250Y171556D01*
X-15389Y171538D01*
X-15132Y171872D01*
X-13948Y174731D01*
X-13544Y177800D01*
X-13948Y180868D01*
X-15132Y183728D01*
X-16108Y185000D01*
X-9292D01*
D02*
G37*
G36*
X112500Y-20750D02*
X117912D01*
Y-49250D01*
X112500D01*
Y-66250D01*
X124511D01*
X125006Y-66744D01*
X126494Y-67739D01*
X128250Y-68088D01*
X143807D01*
X142132Y-70272D01*
X140947Y-73131D01*
X140708Y-74950D01*
X152400D01*
Y-77450D01*
X140708D01*
X140947Y-79269D01*
X142132Y-82128D01*
X143923Y-84462D01*
X132500D01*
Y-68750D01*
X112500D01*
Y-76662D01*
X99600D01*
Y-70751D01*
X93101D01*
Y-69501D01*
X91851D01*
Y-58250D01*
X84988D01*
Y-55922D01*
X85036Y-55886D01*
X86078Y-54528D01*
X86733Y-52947D01*
X86956Y-51250D01*
X86733Y-49553D01*
X86078Y-47972D01*
X85036Y-46614D01*
X83678Y-45572D01*
X82509Y-45088D01*
X89828D01*
X89864Y-45136D01*
X91222Y-46178D01*
X92803Y-46833D01*
X94500Y-47056D01*
X96197Y-46833D01*
X97778Y-46178D01*
X99136Y-45136D01*
X100178Y-43778D01*
X100833Y-42197D01*
X101056Y-40500D01*
X100833Y-38803D01*
X100178Y-37222D01*
X99136Y-35864D01*
X97778Y-34822D01*
X96197Y-34167D01*
X94502Y-33944D01*
X94534Y-33705D01*
X96344Y-31894D01*
X96839Y-31153D01*
X97339Y-30406D01*
X97339Y-30405D01*
X97339Y-30405D01*
X97484Y-29678D01*
X97688Y-28650D01*
Y-26750D01*
X99600D01*
Y-13584D01*
X99722Y-13678D01*
X101303Y-14333D01*
X103000Y-14556D01*
X104697Y-14333D01*
X106278Y-13678D01*
X107636Y-12636D01*
X107672Y-12588D01*
X112500D01*
Y-20750D01*
D02*
G37*
G36*
X117708Y185000D02*
X116732Y183728D01*
X115547Y180868D01*
X115143Y177800D01*
X115547Y174731D01*
X116732Y171872D01*
X118616Y169416D01*
X121072Y167532D01*
X123931Y166347D01*
X127000Y165943D01*
X130069Y166347D01*
X132928Y167532D01*
X135384Y169416D01*
X137268Y171872D01*
X138452Y174731D01*
X138856Y177800D01*
X138452Y180868D01*
X137268Y183728D01*
X136292Y185000D01*
X143108Y185000D01*
X142132Y183728D01*
X140947Y180868D01*
X140543Y177800D01*
X140947Y174731D01*
X142132Y171872D01*
X144016Y169416D01*
X146472Y167532D01*
X149331Y166347D01*
X152400Y165943D01*
X155469Y166347D01*
X158328Y167532D01*
X160784Y169416D01*
X162668Y171872D01*
X163852Y174731D01*
X164256Y177800D01*
X163852Y180868D01*
X162668Y183728D01*
X161692Y185000D01*
X168508D01*
X167532Y183728D01*
X166347Y180868D01*
X165943Y177800D01*
X166347Y174731D01*
X167532Y171872D01*
X169416Y169416D01*
X171872Y167532D01*
X174731Y166347D01*
X177800Y165943D01*
X180868Y166347D01*
X183728Y167532D01*
X185000Y168508D01*
Y161692D01*
X183728Y162668D01*
X180868Y163852D01*
X177800Y164256D01*
X174731Y163852D01*
X171872Y162668D01*
X169416Y160784D01*
X167532Y158328D01*
X166347Y155469D01*
X165943Y152400D01*
X166347Y149331D01*
X167532Y146472D01*
X169416Y144016D01*
X171872Y142132D01*
X174731Y140947D01*
X177800Y140543D01*
X180868Y140947D01*
X183728Y142132D01*
X185000Y143108D01*
Y136292D01*
X183728Y137268D01*
X180868Y138452D01*
X177800Y138856D01*
X174731Y138452D01*
X171872Y137268D01*
X169416Y135384D01*
X167532Y132928D01*
X166347Y130069D01*
X165943Y127000D01*
X166347Y123931D01*
X167532Y121072D01*
X169416Y118616D01*
X171872Y116732D01*
X174731Y115547D01*
X177800Y115143D01*
X180868Y115547D01*
X183728Y116732D01*
X185000Y117708D01*
Y110892D01*
X183728Y111868D01*
X180868Y113052D01*
X177800Y113456D01*
X174731Y113052D01*
X171872Y111868D01*
X169416Y109984D01*
X167532Y107528D01*
X166347Y104669D01*
X165943Y101600D01*
X166347Y98531D01*
X167532Y95672D01*
X169416Y93216D01*
X171872Y91332D01*
X174731Y90147D01*
X177800Y89743D01*
X180868Y90147D01*
X183728Y91332D01*
X185000Y92308D01*
Y85492D01*
X183728Y86468D01*
X180868Y87652D01*
X177800Y88056D01*
X174731Y87652D01*
X171872Y86468D01*
X169416Y84584D01*
X167532Y82128D01*
X166347Y79268D01*
X165943Y76200D01*
X166347Y73131D01*
X167532Y70272D01*
X169416Y67816D01*
X171872Y65932D01*
X174731Y64747D01*
X177800Y64343D01*
X180868Y64747D01*
X183728Y65932D01*
X185000Y66908D01*
Y60092D01*
X183728Y61068D01*
X180868Y62252D01*
X177800Y62656D01*
X174731Y62252D01*
X171872Y61068D01*
X169416Y59184D01*
X167532Y56728D01*
X166347Y53868D01*
X165943Y50800D01*
X166347Y47731D01*
X167532Y44872D01*
X169416Y42416D01*
X171872Y40532D01*
X174731Y39347D01*
X177800Y38943D01*
X180868Y39347D01*
X183728Y40532D01*
X185000Y41508D01*
Y34692D01*
X183728Y35668D01*
X180868Y36852D01*
X177800Y37256D01*
X174731Y36852D01*
X171872Y35668D01*
X169416Y33784D01*
X167532Y31328D01*
X166347Y28468D01*
X165943Y25400D01*
X166347Y22331D01*
X167532Y19472D01*
X169416Y17016D01*
X171872Y15132D01*
X174731Y13947D01*
X177800Y13543D01*
X180868Y13947D01*
X183728Y15132D01*
X185000Y16108D01*
Y9292D01*
X183728Y10268D01*
X180868Y11452D01*
X177800Y11856D01*
X174731Y11452D01*
X171872Y10268D01*
X169416Y8384D01*
X167532Y5928D01*
X166347Y3068D01*
X165943Y-0D01*
X166347Y-3069D01*
X167532Y-5928D01*
X169416Y-8384D01*
X171872Y-10268D01*
X174731Y-11453D01*
X177800Y-11857D01*
X180868Y-11453D01*
X183728Y-10268D01*
X185000Y-9292D01*
Y-16108D01*
X183728Y-15132D01*
X180868Y-13948D01*
X177800Y-13544D01*
X174731Y-13948D01*
X171872Y-15132D01*
X169416Y-17016D01*
X167532Y-19472D01*
X166347Y-22332D01*
X165943Y-25400D01*
X166347Y-28469D01*
X167532Y-31328D01*
X169416Y-33784D01*
X171872Y-35668D01*
X174731Y-36853D01*
X177800Y-37257D01*
X180868Y-36853D01*
X183728Y-35668D01*
X185000Y-34692D01*
Y-41508D01*
X183728Y-40532D01*
X180868Y-39348D01*
X177800Y-38944D01*
X174731Y-39348D01*
X171872Y-40532D01*
X169416Y-42416D01*
X167532Y-44872D01*
X166347Y-47731D01*
X165943Y-50800D01*
X166347Y-53869D01*
X167532Y-56728D01*
X169416Y-59184D01*
X171872Y-61068D01*
X174731Y-62253D01*
X177800Y-62657D01*
X180868Y-62253D01*
X183728Y-61068D01*
X185000Y-60092D01*
Y-66908D01*
X183728Y-65932D01*
X180868Y-64748D01*
X177800Y-64344D01*
X174731Y-64748D01*
X171872Y-65932D01*
X169535Y-67725D01*
X169489Y-67494D01*
X168494Y-66006D01*
X162745Y-60256D01*
X161256Y-59261D01*
X160795Y-59170D01*
X162668Y-56728D01*
X163852Y-53869D01*
X164256Y-50800D01*
X163852Y-47731D01*
X162668Y-44872D01*
X160784Y-42416D01*
X158328Y-40532D01*
X155469Y-39348D01*
X152400Y-38944D01*
X149331Y-39348D01*
X146472Y-40532D01*
X144016Y-42416D01*
X142132Y-44872D01*
X140947Y-47731D01*
X140543Y-50800D01*
X140947Y-53869D01*
X142132Y-56728D01*
X143807Y-58912D01*
X132500D01*
Y-49250D01*
X127088D01*
Y-20750D01*
X132500D01*
Y-3750D01*
X119950D01*
X118250Y-3412D01*
X107672D01*
X107636Y-3364D01*
X107588Y-3328D01*
Y4500D01*
X107239Y6256D01*
X106244Y7745D01*
X95035Y18954D01*
X96528Y19572D01*
X97886Y20614D01*
X98927Y21972D01*
X99583Y23553D01*
X99806Y25250D01*
X99583Y26947D01*
X98927Y28528D01*
X97894Y29875D01*
X98927Y31222D01*
X99583Y32803D01*
X99806Y34500D01*
X99583Y36197D01*
X99437Y36549D01*
X100506Y36761D01*
X101994Y37756D01*
X111244Y47006D01*
X112239Y48494D01*
X112588Y50250D01*
Y61350D01*
X120489Y69250D01*
X127461D01*
X141503Y55209D01*
X140947Y53868D01*
X140543Y50800D01*
X140947Y47731D01*
X142132Y44872D01*
X144016Y42416D01*
X146472Y40532D01*
X149331Y39347D01*
X152400Y38943D01*
X155469Y39347D01*
X158328Y40532D01*
X160784Y42416D01*
X162668Y44872D01*
X163852Y47731D01*
X164256Y50800D01*
X163852Y53868D01*
X162668Y56728D01*
X160784Y59184D01*
X158328Y61068D01*
X155469Y62252D01*
X152400Y62656D01*
X149331Y62252D01*
X147991Y61697D01*
X132500Y77188D01*
Y86250D01*
X117238D01*
X114739Y88750D01*
X121250D01*
Y96000D01*
X112500D01*
Y90989D01*
X111744Y91744D01*
X110256Y92739D01*
X108500Y93088D01*
X106173D01*
X106136Y93136D01*
X104778Y94178D01*
X103197Y94833D01*
X101500Y95056D01*
X99803Y94833D01*
X99588Y94743D01*
Y129360D01*
X100053Y129167D01*
X101750Y128944D01*
X103447Y129167D01*
X105028Y129823D01*
X106386Y130864D01*
X107428Y132222D01*
X108083Y133803D01*
X108306Y135500D01*
X108083Y137197D01*
X107428Y138778D01*
X106386Y140136D01*
X105097Y141125D01*
X107528Y142132D01*
X109984Y144016D01*
X111868Y146472D01*
X113052Y149331D01*
X113456Y152400D01*
X113052Y155469D01*
X111868Y158328D01*
X109984Y160784D01*
X107528Y162668D01*
X104669Y163852D01*
X101600Y164256D01*
X98531Y163852D01*
X95672Y162668D01*
X93588Y161069D01*
Y163299D01*
X97191Y166903D01*
X98531Y166347D01*
X101600Y165943D01*
X104669Y166347D01*
X107528Y167532D01*
X109984Y169416D01*
X111868Y171872D01*
X113052Y174731D01*
X113456Y177800D01*
X113052Y180868D01*
X111868Y183728D01*
X110892Y185000D01*
X117708Y185000D01*
D02*
G37*
G36*
X-110892Y185000D02*
X-111868Y183728D01*
X-113053Y180868D01*
X-113292Y179050D01*
X-89908D01*
X-90148Y180868D01*
X-91332Y183728D01*
X-92308Y185000D01*
X-85492Y185000D01*
X-86468Y183728D01*
X-87653Y180868D01*
X-88057Y177800D01*
X-87653Y174731D01*
X-86468Y171872D01*
X-84716Y169588D01*
X-93085D01*
X-91332Y171872D01*
X-90148Y174731D01*
X-89908Y176550D01*
X-113292D01*
X-113053Y174731D01*
X-111868Y171872D01*
X-110116Y169588D01*
X-118485D01*
X-116732Y171872D01*
X-115548Y174731D01*
X-115144Y177800D01*
X-115548Y180868D01*
X-116732Y183728D01*
X-117708Y185000D01*
X-110892D01*
D02*
G37*
%LPC*%
G36*
X63750Y-101250D02*
X56500D01*
Y-110000D01*
X63750D01*
Y-101250D01*
D02*
G37*
G36*
X54000D02*
X46750D01*
Y-110000D01*
X54000D01*
Y-101250D01*
D02*
G37*
G36*
X19500Y-105944D02*
X17803Y-106167D01*
X16222Y-106822D01*
X14864Y-107864D01*
X14844Y-107890D01*
X13778Y-107072D01*
X12197Y-106417D01*
X10500Y-106194D01*
X8803Y-106417D01*
X7222Y-107072D01*
X5864Y-108114D01*
X4823Y-109472D01*
X4168Y-111053D01*
X3944Y-112750D01*
X4168Y-114447D01*
X4823Y-116028D01*
X5864Y-117386D01*
X7222Y-118427D01*
X8803Y-119082D01*
X10500Y-119306D01*
X12197Y-119082D01*
X13778Y-118427D01*
X15136Y-117386D01*
X15156Y-117360D01*
X16222Y-118177D01*
X17803Y-118833D01*
X19500Y-119056D01*
X21197Y-118833D01*
X22778Y-118177D01*
X24136Y-117136D01*
X25178Y-115778D01*
X25833Y-114197D01*
X26056Y-112500D01*
X25833Y-110803D01*
X25178Y-109222D01*
X24136Y-107864D01*
X22778Y-106822D01*
X21197Y-106167D01*
X19500Y-105944D01*
D02*
G37*
G36*
X53500Y-115194D02*
X51803Y-115417D01*
X50222Y-116072D01*
X48864Y-117114D01*
X47822Y-118472D01*
X47167Y-120053D01*
X46944Y-121750D01*
X47167Y-123447D01*
X47822Y-125028D01*
X48864Y-126386D01*
X50222Y-127428D01*
X51803Y-128083D01*
X53500Y-128306D01*
X55197Y-128083D01*
X56778Y-127428D01*
X58136Y-126386D01*
X59178Y-125028D01*
X59833Y-123447D01*
X60056Y-121750D01*
X59833Y-120053D01*
X59178Y-118472D01*
X58136Y-117114D01*
X56778Y-116072D01*
X55197Y-115417D01*
X53500Y-115194D01*
D02*
G37*
G36*
X41500Y-121694D02*
X39803Y-121917D01*
X38222Y-122572D01*
X36864Y-123614D01*
X35822Y-124972D01*
X35167Y-126553D01*
X34944Y-128250D01*
X35167Y-129947D01*
X35822Y-131528D01*
X36864Y-132886D01*
X38222Y-133928D01*
X39803Y-134583D01*
X41500Y-134806D01*
X43197Y-134583D01*
X44778Y-133928D01*
X46136Y-132886D01*
X47178Y-131528D01*
X47833Y-129947D01*
X48056Y-128250D01*
X47833Y-126553D01*
X47178Y-124972D01*
X46136Y-123614D01*
X44778Y-122572D01*
X43197Y-121917D01*
X41500Y-121694D01*
D02*
G37*
G36*
X40750Y-108444D02*
X39053Y-108667D01*
X37472Y-109322D01*
X36114Y-110364D01*
X35072Y-111722D01*
X34417Y-113303D01*
X34194Y-115000D01*
X34417Y-116697D01*
X35072Y-118278D01*
X36114Y-119636D01*
X37472Y-120678D01*
X39053Y-121333D01*
X40750Y-121556D01*
X42447Y-121333D01*
X44028Y-120678D01*
X45386Y-119636D01*
X46428Y-118278D01*
X47083Y-116697D01*
X47306Y-115000D01*
X47083Y-113303D01*
X46428Y-111722D01*
X45386Y-110364D01*
X44028Y-109322D01*
X42447Y-108667D01*
X40750Y-108444D01*
D02*
G37*
G36*
X36000Y8749D02*
X28750D01*
Y-0D01*
X36000D01*
Y8749D01*
D02*
G37*
G36*
X59250Y10750D02*
X52000D01*
Y4000D01*
X59250D01*
Y10750D01*
D02*
G37*
G36*
X45750Y8749D02*
X38500D01*
Y-0D01*
X45750D01*
Y8749D01*
D02*
G37*
G36*
X69000Y10750D02*
X61750D01*
Y4000D01*
X69000D01*
Y10750D01*
D02*
G37*
G36*
Y20000D02*
X61750D01*
Y13250D01*
X69000D01*
Y20000D01*
D02*
G37*
G36*
X36000D02*
X28750D01*
Y11249D01*
X36000D01*
Y20000D01*
D02*
G37*
G36*
X59250D02*
X52000D01*
Y13250D01*
X59250D01*
Y20000D01*
D02*
G37*
G36*
X45750D02*
X38500D01*
Y11249D01*
X45750D01*
Y20000D01*
D02*
G37*
G36*
X-10250Y75306D02*
X-11947Y75083D01*
X-13528Y74428D01*
X-14886Y73386D01*
X-15928Y72028D01*
X-16583Y70447D01*
X-16806Y68750D01*
X-16583Y67053D01*
X-15928Y65472D01*
X-14886Y64114D01*
X-13528Y63072D01*
X-11947Y62417D01*
X-10250Y62194D01*
X-8553Y62417D01*
X-7802Y62729D01*
X-8333Y61447D01*
X-8556Y59750D01*
X-8333Y58053D01*
X-7678Y56472D01*
X-6636Y55114D01*
X-5278Y54072D01*
X-3697Y53417D01*
X-2606Y53274D01*
X-3178Y52528D01*
X-3833Y50947D01*
X-4056Y49250D01*
X-3833Y47553D01*
X-3178Y45972D01*
X-3157Y45945D01*
X-3594Y45610D01*
X-3614Y45636D01*
X-4972Y46678D01*
X-6553Y47333D01*
X-8250Y47556D01*
X-9947Y47333D01*
X-11528Y46678D01*
X-12663Y45807D01*
X-13472Y46428D01*
X-15053Y47083D01*
X-16750Y47306D01*
X-18447Y47083D01*
X-20028Y46428D01*
X-21386Y45386D01*
X-22428Y44028D01*
X-23083Y42447D01*
X-23306Y40750D01*
X-23083Y39053D01*
X-22428Y37472D01*
X-21386Y36114D01*
X-20028Y35072D01*
X-18447Y34417D01*
X-17500Y34293D01*
Y31000D01*
X2500D01*
Y34439D01*
X4028Y35072D01*
X5386Y36114D01*
X6428Y37472D01*
X7083Y39053D01*
X7306Y40750D01*
X7083Y42447D01*
X6428Y44028D01*
X6407Y44055D01*
X7136Y44614D01*
X8178Y45972D01*
X8833Y47553D01*
X9056Y49250D01*
X8833Y50947D01*
X8178Y52528D01*
X7136Y53886D01*
X5778Y54928D01*
X4197Y55583D01*
X3106Y55726D01*
X3677Y56472D01*
X4333Y58053D01*
X4556Y59750D01*
X4333Y61447D01*
X3677Y63028D01*
X2636Y64386D01*
X1278Y65427D01*
X-303Y66083D01*
X-2000Y66306D01*
X-3697Y66083D01*
X-4448Y65771D01*
X-3917Y67053D01*
X-3694Y68750D01*
X-3917Y70447D01*
X-4572Y72028D01*
X-5614Y73386D01*
X-6972Y74428D01*
X-8553Y75083D01*
X-10250Y75306D01*
D02*
G37*
G36*
X-8750Y28500D02*
X-17500D01*
Y21250D01*
X-8750D01*
Y28500D01*
D02*
G37*
G36*
X2500D02*
X-6250D01*
Y21250D01*
X2500D01*
Y28500D01*
D02*
G37*
G36*
X101600Y-140544D02*
X98531Y-140948D01*
X95672Y-142132D01*
X93216Y-144016D01*
X91332Y-146472D01*
X90147Y-149332D01*
X89743Y-152400D01*
X90147Y-155469D01*
X91332Y-158328D01*
X93216Y-160784D01*
X95672Y-162668D01*
X98531Y-163853D01*
X101600Y-164257D01*
X104669Y-163853D01*
X107528Y-162668D01*
X109984Y-160784D01*
X111868Y-158328D01*
X113052Y-155469D01*
X113456Y-152400D01*
X113052Y-149332D01*
X111868Y-146472D01*
X109984Y-144016D01*
X107528Y-142132D01*
X104669Y-140948D01*
X101600Y-140544D01*
D02*
G37*
G36*
X127000D02*
X123931Y-140948D01*
X121072Y-142132D01*
X118616Y-144016D01*
X116732Y-146472D01*
X115547Y-149332D01*
X115143Y-152400D01*
X115547Y-155469D01*
X116732Y-158328D01*
X118616Y-160784D01*
X121072Y-162668D01*
X123931Y-163853D01*
X127000Y-164257D01*
X130069Y-163853D01*
X132928Y-162668D01*
X135384Y-160784D01*
X137268Y-158328D01*
X138452Y-155469D01*
X138856Y-152400D01*
X138452Y-149332D01*
X137268Y-146472D01*
X135384Y-144016D01*
X132928Y-142132D01*
X130069Y-140948D01*
X127000Y-140544D01*
D02*
G37*
G36*
X87892Y-153650D02*
X77450D01*
Y-164092D01*
X79268Y-163853D01*
X82128Y-162668D01*
X84584Y-160784D01*
X86468Y-158328D01*
X87652Y-155469D01*
X87892Y-153650D01*
D02*
G37*
G36*
X153650Y-166108D02*
Y-176550D01*
X164092D01*
X163852Y-174732D01*
X162668Y-171872D01*
X160784Y-169416D01*
X158328Y-167532D01*
X155469Y-166348D01*
X153650Y-166108D01*
D02*
G37*
G36*
X151150D02*
X149331Y-166348D01*
X146472Y-167532D01*
X144016Y-169416D01*
X142132Y-171872D01*
X140947Y-174732D01*
X140708Y-176550D01*
X151150D01*
Y-166108D01*
D02*
G37*
G36*
X-177800Y-64344D02*
X-180869Y-64748D01*
X-183728Y-65932D01*
X-186184Y-67816D01*
X-188068Y-70272D01*
X-189253Y-73131D01*
X-189657Y-76200D01*
X-189253Y-79269D01*
X-188068Y-82128D01*
X-186184Y-84584D01*
X-183728Y-86468D01*
X-180869Y-87653D01*
X-177800Y-88057D01*
X-174732Y-87653D01*
X-171872Y-86468D01*
X-169416Y-84584D01*
X-167532Y-82128D01*
X-166348Y-79269D01*
X-165944Y-76200D01*
X-166348Y-73131D01*
X-167532Y-70272D01*
X-169416Y-67816D01*
X-171872Y-65932D01*
X-174732Y-64748D01*
X-177800Y-64344D01*
D02*
G37*
G36*
X-153650Y-77450D02*
X-164092D01*
X-163853Y-79269D01*
X-162668Y-82128D01*
X-160784Y-84584D01*
X-158328Y-86468D01*
X-155469Y-87653D01*
X-153650Y-87892D01*
Y-77450D01*
D02*
G37*
G36*
X-98751Y-83500D02*
X-107500D01*
Y-90750D01*
X-98751D01*
Y-83500D01*
D02*
G37*
G36*
X-42500Y-59944D02*
X-44197Y-60167D01*
X-45778Y-60822D01*
X-47136Y-61864D01*
X-48178Y-63222D01*
X-48833Y-64803D01*
X-49056Y-66500D01*
X-48833Y-68197D01*
X-48178Y-69778D01*
X-47136Y-71136D01*
X-45778Y-72178D01*
X-44197Y-72833D01*
X-42500Y-73056D01*
X-40803Y-72833D01*
X-40379Y-72657D01*
X-40556Y-74000D01*
X-40424Y-75000D01*
X-43250D01*
Y-95000D01*
X-26250D01*
Y-75000D01*
X-27576D01*
X-27444Y-74000D01*
X-27667Y-72303D01*
X-28322Y-70722D01*
X-29364Y-69364D01*
X-30722Y-68322D01*
X-32303Y-67667D01*
X-34000Y-67444D01*
X-35697Y-67667D01*
X-36121Y-67843D01*
X-35944Y-66500D01*
X-36167Y-64803D01*
X-36822Y-63222D01*
X-37864Y-61864D01*
X-39222Y-60822D01*
X-40803Y-60167D01*
X-42500Y-59944D01*
D02*
G37*
G36*
X-87500Y-83500D02*
X-96251D01*
Y-90750D01*
X-87500D01*
Y-83500D01*
D02*
G37*
G36*
X-140708Y-77450D02*
X-151150D01*
Y-87892D01*
X-149332Y-87653D01*
X-146472Y-86468D01*
X-144016Y-84584D01*
X-142132Y-82128D01*
X-140948Y-79269D01*
X-140708Y-77450D01*
D02*
G37*
G36*
X-300990Y-34868D02*
X-303470Y-35195D01*
X-305781Y-36152D01*
X-307766Y-37675D01*
X-309288Y-39659D01*
X-310246Y-41970D01*
X-310572Y-44450D01*
X-310246Y-46930D01*
X-309288Y-49241D01*
X-307766Y-51226D01*
X-305781Y-52748D01*
X-303470Y-53706D01*
X-300990Y-54032D01*
X-298510Y-53706D01*
X-296199Y-52748D01*
X-294215Y-51226D01*
X-292692Y-49241D01*
X-291735Y-46930D01*
X-291408Y-44450D01*
X-291735Y-41970D01*
X-292692Y-39659D01*
X-294215Y-37675D01*
X-296199Y-36152D01*
X-298510Y-35195D01*
X-300990Y-34868D01*
D02*
G37*
G36*
X-326390D02*
X-328870Y-35195D01*
X-331181Y-36152D01*
X-333166Y-37675D01*
X-334688Y-39659D01*
X-335646Y-41970D01*
X-335972Y-44450D01*
X-335646Y-46930D01*
X-334688Y-49241D01*
X-333166Y-51226D01*
X-331181Y-52748D01*
X-328870Y-53706D01*
X-326390Y-54032D01*
X-323910Y-53706D01*
X-321599Y-52748D01*
X-319615Y-51226D01*
X-318092Y-49241D01*
X-317135Y-46930D01*
X-316808Y-44450D01*
X-317135Y-41970D01*
X-318092Y-39659D01*
X-319615Y-37675D01*
X-321599Y-36152D01*
X-323910Y-35195D01*
X-326390Y-34868D01*
D02*
G37*
G36*
X-275590D02*
X-278070Y-35195D01*
X-280381Y-36152D01*
X-282366Y-37675D01*
X-283888Y-39659D01*
X-284846Y-41970D01*
X-285172Y-44450D01*
X-284846Y-46930D01*
X-283888Y-49241D01*
X-282366Y-51226D01*
X-280381Y-52748D01*
X-278070Y-53706D01*
X-275590Y-54032D01*
X-273110Y-53706D01*
X-270799Y-52748D01*
X-268815Y-51226D01*
X-267292Y-49241D01*
X-266335Y-46930D01*
X-266008Y-44450D01*
X-266335Y-41970D01*
X-267292Y-39659D01*
X-268815Y-37675D01*
X-270799Y-36152D01*
X-273110Y-35195D01*
X-275590Y-34868D01*
D02*
G37*
G36*
X-51251Y-38750D02*
X-60000D01*
Y-45999D01*
X-51251D01*
Y-38750D01*
D02*
G37*
G36*
X-250190Y-34868D02*
X-252670Y-35195D01*
X-254981Y-36152D01*
X-256966Y-37675D01*
X-258488Y-39659D01*
X-259446Y-41970D01*
X-259772Y-44450D01*
X-259446Y-46930D01*
X-258488Y-49241D01*
X-256966Y-51226D01*
X-254981Y-52748D01*
X-252670Y-53706D01*
X-250190Y-54032D01*
X-247710Y-53706D01*
X-245399Y-52748D01*
X-243415Y-51226D01*
X-241892Y-49241D01*
X-240935Y-46930D01*
X-240608Y-44450D01*
X-240935Y-41970D01*
X-241892Y-39659D01*
X-243415Y-37675D01*
X-245399Y-36152D01*
X-247710Y-35195D01*
X-250190Y-34868D01*
D02*
G37*
G36*
X-87500Y-73750D02*
X-96251D01*
Y-81000D01*
X-87500D01*
Y-73750D01*
D02*
G37*
G36*
X-98751D02*
X-107500D01*
Y-81000D01*
X-98751D01*
Y-73750D01*
D02*
G37*
G36*
X-51251Y-48499D02*
X-60000D01*
Y-55750D01*
X-51251D01*
Y-48499D01*
D02*
G37*
G36*
X-152400Y-89744D02*
X-155469Y-90148D01*
X-158328Y-91332D01*
X-160784Y-93216D01*
X-162668Y-95672D01*
X-163853Y-98532D01*
X-164257Y-101600D01*
X-163853Y-104669D01*
X-162668Y-107528D01*
X-161031Y-109662D01*
X-165050D01*
X-166806Y-110011D01*
X-168294Y-111005D01*
X-173391Y-116103D01*
X-174732Y-115548D01*
X-177800Y-115144D01*
X-180869Y-115548D01*
X-183728Y-116732D01*
X-186184Y-118616D01*
X-188068Y-121072D01*
X-189253Y-123932D01*
X-189657Y-127000D01*
X-189253Y-130069D01*
X-188068Y-132928D01*
X-186184Y-135384D01*
X-183728Y-137268D01*
X-180869Y-138453D01*
X-177800Y-138857D01*
X-174732Y-138453D01*
X-171872Y-137268D01*
X-169416Y-135384D01*
X-167532Y-132928D01*
X-166348Y-130069D01*
X-165944Y-127000D01*
X-166348Y-123932D01*
X-166903Y-122591D01*
X-163149Y-118838D01*
X-160954D01*
X-162668Y-121072D01*
X-163853Y-123932D01*
X-164257Y-127000D01*
X-163853Y-130069D01*
X-162668Y-132928D01*
X-160784Y-135384D01*
X-158328Y-137268D01*
X-155469Y-138453D01*
X-152400Y-138857D01*
X-149332Y-138453D01*
X-146472Y-137268D01*
X-144016Y-135384D01*
X-142132Y-132928D01*
X-140948Y-130069D01*
X-140544Y-127000D01*
X-140948Y-123932D01*
X-142132Y-121072D01*
X-143846Y-118838D01*
X-129000D01*
X-127244Y-118489D01*
X-125756Y-117494D01*
X-113560Y-105298D01*
X-113500Y-105306D01*
X-111803Y-105083D01*
X-110222Y-104428D01*
X-108864Y-103386D01*
X-107822Y-102028D01*
X-107167Y-100447D01*
X-106944Y-98750D01*
X-107167Y-97053D01*
X-107822Y-95472D01*
X-108864Y-94114D01*
X-110222Y-93072D01*
X-111803Y-92417D01*
X-113500Y-92194D01*
X-115197Y-92417D01*
X-116778Y-93072D01*
X-118136Y-94114D01*
X-119178Y-95472D01*
X-119833Y-97053D01*
X-120056Y-98750D01*
X-120048Y-98810D01*
X-130900Y-109662D01*
X-143769D01*
X-142132Y-107528D01*
X-140948Y-104669D01*
X-140544Y-101600D01*
X-140948Y-98532D01*
X-142132Y-95672D01*
X-144016Y-93216D01*
X-146472Y-91332D01*
X-149332Y-90148D01*
X-152400Y-89744D01*
D02*
G37*
G36*
X-80250Y-65194D02*
X-81947Y-65417D01*
X-83528Y-66072D01*
X-84886Y-67114D01*
X-85928Y-68472D01*
X-86583Y-70053D01*
X-86806Y-71750D01*
X-86583Y-73447D01*
X-85928Y-75028D01*
X-84886Y-76386D01*
X-84838Y-76422D01*
Y-144348D01*
X-86468Y-146472D01*
X-87653Y-149332D01*
X-88057Y-152400D01*
X-87653Y-155469D01*
X-86468Y-158328D01*
X-84584Y-160784D01*
X-82128Y-162668D01*
X-79269Y-163853D01*
X-76200Y-164257D01*
X-73131Y-163853D01*
X-70272Y-162668D01*
X-67816Y-160784D01*
X-65932Y-158328D01*
X-64748Y-155469D01*
X-64344Y-152400D01*
X-64748Y-149332D01*
X-65932Y-146472D01*
X-67816Y-144016D01*
X-70272Y-142132D01*
X-73131Y-140948D01*
X-75662Y-140615D01*
Y-76422D01*
X-75614Y-76386D01*
X-74572Y-75028D01*
X-73917Y-73447D01*
X-73694Y-71750D01*
X-73917Y-70053D01*
X-74572Y-68472D01*
X-75614Y-67114D01*
X-76972Y-66072D01*
X-78553Y-65417D01*
X-80250Y-65194D01*
D02*
G37*
G36*
X-52050Y-140708D02*
X-53869Y-140948D01*
X-56728Y-142132D01*
X-59184Y-144016D01*
X-61068Y-146472D01*
X-62253Y-149332D01*
X-62492Y-151150D01*
X-52050D01*
Y-140708D01*
D02*
G37*
G36*
X-101600Y-140544D02*
X-104669Y-140948D01*
X-107528Y-142132D01*
X-109984Y-144016D01*
X-111868Y-146472D01*
X-113053Y-149332D01*
X-113457Y-152400D01*
X-113053Y-155469D01*
X-111868Y-158328D01*
X-109984Y-160784D01*
X-107528Y-162668D01*
X-104669Y-163853D01*
X-101600Y-164257D01*
X-98532Y-163853D01*
X-95672Y-162668D01*
X-93216Y-160784D01*
X-91332Y-158328D01*
X-90148Y-155469D01*
X-89744Y-152400D01*
X-90148Y-149332D01*
X-91332Y-146472D01*
X-93216Y-144016D01*
X-95672Y-142132D01*
X-98532Y-140948D01*
X-101600Y-140544D01*
D02*
G37*
G36*
X-177800D02*
X-180869Y-140948D01*
X-183728Y-142132D01*
X-186184Y-144016D01*
X-188068Y-146472D01*
X-189253Y-149332D01*
X-189657Y-152400D01*
X-189253Y-155469D01*
X-188068Y-158328D01*
X-186184Y-160784D01*
X-183728Y-162668D01*
X-180869Y-163853D01*
X-177800Y-164257D01*
X-174732Y-163853D01*
X-171872Y-162668D01*
X-169416Y-160784D01*
X-167532Y-158328D01*
X-166348Y-155469D01*
X-165944Y-152400D01*
X-166348Y-149332D01*
X-167532Y-146472D01*
X-169416Y-144016D01*
X-171872Y-142132D01*
X-174732Y-140948D01*
X-177800Y-140544D01*
D02*
G37*
G36*
X-127000D02*
X-130069Y-140948D01*
X-132928Y-142132D01*
X-135384Y-144016D01*
X-137268Y-146472D01*
X-138453Y-149332D01*
X-138857Y-152400D01*
X-138453Y-155469D01*
X-137268Y-158328D01*
X-135384Y-160784D01*
X-132928Y-162668D01*
X-130069Y-163853D01*
X-127000Y-164257D01*
X-123932Y-163853D01*
X-121072Y-162668D01*
X-118616Y-160784D01*
X-116732Y-158328D01*
X-115548Y-155469D01*
X-115144Y-152400D01*
X-115548Y-149332D01*
X-116732Y-146472D01*
X-118616Y-144016D01*
X-121072Y-142132D01*
X-123932Y-140948D01*
X-127000Y-140544D01*
D02*
G37*
G36*
X-152400D02*
X-155469Y-140948D01*
X-158328Y-142132D01*
X-160784Y-144016D01*
X-162668Y-146472D01*
X-163853Y-149332D01*
X-164257Y-152400D01*
X-163853Y-155469D01*
X-162668Y-158328D01*
X-160784Y-160784D01*
X-158328Y-162668D01*
X-155469Y-163853D01*
X-152400Y-164257D01*
X-149332Y-163853D01*
X-146472Y-162668D01*
X-144016Y-160784D01*
X-142132Y-158328D01*
X-140948Y-155469D01*
X-140544Y-152400D01*
X-140948Y-149332D01*
X-142132Y-146472D01*
X-144016Y-144016D01*
X-146472Y-142132D01*
X-149332Y-140948D01*
X-152400Y-140544D01*
D02*
G37*
G36*
X-49550Y-140708D02*
Y-151150D01*
X-39108D01*
X-39348Y-149332D01*
X-40532Y-146472D01*
X-42416Y-144016D01*
X-44872Y-142132D01*
X-47731Y-140948D01*
X-49550Y-140708D01*
D02*
G37*
G36*
X-26250Y-97500D02*
X-33499D01*
Y-106251D01*
X-26250D01*
Y-97500D01*
D02*
G37*
G36*
X-35999D02*
X-43250D01*
Y-106251D01*
X-35999D01*
Y-97500D01*
D02*
G37*
G36*
X-177800Y-89744D02*
X-180869Y-90148D01*
X-183728Y-91332D01*
X-186184Y-93216D01*
X-188068Y-95672D01*
X-189253Y-98532D01*
X-189657Y-101600D01*
X-189253Y-104669D01*
X-188068Y-107528D01*
X-186184Y-109984D01*
X-183728Y-111868D01*
X-180869Y-113053D01*
X-177800Y-113457D01*
X-174732Y-113053D01*
X-171872Y-111868D01*
X-169416Y-109984D01*
X-167532Y-107528D01*
X-166348Y-104669D01*
X-165944Y-101600D01*
X-166348Y-98532D01*
X-167532Y-95672D01*
X-169416Y-93216D01*
X-171872Y-91332D01*
X-174732Y-90148D01*
X-177800Y-89744D01*
D02*
G37*
G36*
X-26250Y-108751D02*
X-33499D01*
Y-117500D01*
X-26250D01*
Y-108751D01*
D02*
G37*
G36*
X-35999D02*
X-43250D01*
Y-117500D01*
X-35999D01*
Y-108751D01*
D02*
G37*
G36*
X-351790Y-9468D02*
X-354270Y-9795D01*
X-356581Y-10752D01*
X-358566Y-12275D01*
X-360088Y-14259D01*
X-361046Y-16570D01*
X-361372Y-19050D01*
X-361046Y-21530D01*
X-360088Y-23841D01*
X-358566Y-25826D01*
X-356581Y-27348D01*
X-354270Y-28306D01*
X-351790Y-28632D01*
X-349310Y-28306D01*
X-346999Y-27348D01*
X-345015Y-25826D01*
X-343492Y-23841D01*
X-342535Y-21530D01*
X-342208Y-19050D01*
X-342535Y-16570D01*
X-343492Y-14259D01*
X-345015Y-12275D01*
X-346999Y-10752D01*
X-349310Y-9795D01*
X-351790Y-9468D01*
D02*
G37*
G36*
X-275590Y92132D02*
X-278070Y91805D01*
X-280381Y90848D01*
X-282366Y89325D01*
X-283888Y87341D01*
X-284846Y85030D01*
X-285172Y82550D01*
X-284846Y80070D01*
X-283888Y77759D01*
X-282366Y75774D01*
X-280381Y74252D01*
X-278070Y73294D01*
X-275590Y72968D01*
X-273110Y73294D01*
X-270799Y74252D01*
X-268815Y75774D01*
X-267292Y77759D01*
X-266335Y80070D01*
X-266008Y82550D01*
X-266335Y85030D01*
X-267292Y87341D01*
X-268815Y89325D01*
X-270799Y90848D01*
X-273110Y91805D01*
X-275590Y92132D01*
D02*
G37*
G36*
X-300990D02*
X-303470Y91805D01*
X-305781Y90848D01*
X-307766Y89325D01*
X-309288Y87341D01*
X-310246Y85030D01*
X-310572Y82550D01*
X-310246Y80070D01*
X-309288Y77759D01*
X-307766Y75774D01*
X-305781Y74252D01*
X-303470Y73294D01*
X-300990Y72968D01*
X-298510Y73294D01*
X-296199Y74252D01*
X-294215Y75774D01*
X-292692Y77759D01*
X-291735Y80070D01*
X-291408Y82550D01*
X-291735Y85030D01*
X-292692Y87341D01*
X-294215Y89325D01*
X-296199Y90848D01*
X-298510Y91805D01*
X-300990Y92132D01*
D02*
G37*
G36*
X-250190D02*
X-252670Y91805D01*
X-254981Y90848D01*
X-256966Y89325D01*
X-258488Y87341D01*
X-259446Y85030D01*
X-259772Y82550D01*
X-259446Y80070D01*
X-258488Y77759D01*
X-256966Y75774D01*
X-254981Y74252D01*
X-252670Y73294D01*
X-250190Y72968D01*
X-247710Y73294D01*
X-245399Y74252D01*
X-243415Y75774D01*
X-241892Y77759D01*
X-240935Y80070D01*
X-240608Y82550D01*
X-240935Y85030D01*
X-241892Y87341D01*
X-243415Y89325D01*
X-245399Y90848D01*
X-247710Y91805D01*
X-250190Y92132D01*
D02*
G37*
G36*
X-179050Y87892D02*
X-180869Y87652D01*
X-183728Y86468D01*
X-186184Y84584D01*
X-188068Y82128D01*
X-189253Y79268D01*
X-189492Y77450D01*
X-179050D01*
Y87892D01*
D02*
G37*
G36*
X-224790Y92132D02*
X-227270Y91805D01*
X-229581Y90848D01*
X-231566Y89325D01*
X-233088Y87341D01*
X-234046Y85030D01*
X-234372Y82550D01*
X-234046Y80070D01*
X-233088Y77759D01*
X-231566Y75774D01*
X-229581Y74252D01*
X-227270Y73294D01*
X-224790Y72968D01*
X-222310Y73294D01*
X-219999Y74252D01*
X-218015Y75774D01*
X-216492Y77759D01*
X-215535Y80070D01*
X-215208Y82550D01*
X-215535Y85030D01*
X-216492Y87341D01*
X-218015Y89325D01*
X-219999Y90848D01*
X-222310Y91805D01*
X-224790Y92132D01*
D02*
G37*
G36*
X-87500Y51000D02*
X-96251D01*
Y43750D01*
X-87500D01*
Y51000D01*
D02*
G37*
G36*
X-98751Y60750D02*
X-107500D01*
Y53500D01*
X-98751D01*
Y60750D01*
D02*
G37*
G36*
X-351790Y92132D02*
X-354270Y91805D01*
X-356581Y90848D01*
X-358566Y89325D01*
X-360088Y87341D01*
X-361046Y85030D01*
X-361372Y82550D01*
X-361046Y80070D01*
X-360088Y77759D01*
X-358566Y75774D01*
X-356581Y74252D01*
X-354270Y73294D01*
X-351790Y72968D01*
X-349310Y73294D01*
X-346999Y74252D01*
X-345015Y75774D01*
X-343492Y77759D01*
X-342535Y80070D01*
X-342208Y82550D01*
X-342535Y85030D01*
X-343492Y87341D01*
X-345015Y89325D01*
X-346999Y90848D01*
X-349310Y91805D01*
X-351790Y92132D01*
D02*
G37*
G36*
X-176550Y87892D02*
Y77450D01*
X-166108D01*
X-166348Y79268D01*
X-167532Y82128D01*
X-169416Y84584D01*
X-171872Y86468D01*
X-174732Y87652D01*
X-176550Y87892D01*
D02*
G37*
G36*
X-177800Y164256D02*
X-180869Y163852D01*
X-183728Y162668D01*
X-186184Y160784D01*
X-188068Y158328D01*
X-189253Y155469D01*
X-189657Y152400D01*
X-189253Y149331D01*
X-188068Y146472D01*
X-186184Y144016D01*
X-183728Y142132D01*
X-180869Y140947D01*
X-177800Y140543D01*
X-174732Y140947D01*
X-171872Y142132D01*
X-169416Y144016D01*
X-167532Y146472D01*
X-166348Y149331D01*
X-165944Y152400D01*
X-166348Y155469D01*
X-167532Y158328D01*
X-169416Y160784D01*
X-171872Y162668D01*
X-174732Y163852D01*
X-177800Y164256D01*
D02*
G37*
G36*
X-276840Y106700D02*
X-285008D01*
X-284846Y105470D01*
X-283888Y103159D01*
X-282366Y101174D01*
X-280381Y99652D01*
X-278070Y98694D01*
X-276840Y98532D01*
Y106700D01*
D02*
G37*
G36*
X-266173D02*
X-274340D01*
Y98532D01*
X-273110Y98694D01*
X-270799Y99652D01*
X-268815Y101174D01*
X-267292Y103159D01*
X-266335Y105470D01*
X-266173Y106700D01*
D02*
G37*
G36*
X-98751Y51000D02*
X-107500D01*
Y43750D01*
X-98751D01*
Y51000D01*
D02*
G37*
G36*
X-326390Y15932D02*
X-328870Y15605D01*
X-331181Y14648D01*
X-333166Y13125D01*
X-334688Y11141D01*
X-335646Y8830D01*
X-335972Y6350D01*
X-335646Y3870D01*
X-334688Y1559D01*
X-333166Y-426D01*
X-331181Y-1948D01*
X-328870Y-2906D01*
X-326390Y-3232D01*
X-323910Y-2906D01*
X-321599Y-1948D01*
X-319615Y-426D01*
X-318092Y1559D01*
X-317135Y3870D01*
X-316808Y6350D01*
X-317135Y8830D01*
X-318092Y11141D01*
X-319615Y13125D01*
X-321599Y14648D01*
X-323910Y15605D01*
X-326390Y15932D01*
D02*
G37*
G36*
X-351790D02*
X-354270Y15605D01*
X-356581Y14648D01*
X-358566Y13125D01*
X-360088Y11141D01*
X-361046Y8830D01*
X-361372Y6350D01*
X-361046Y3870D01*
X-360088Y1559D01*
X-358566Y-426D01*
X-356581Y-1948D01*
X-354270Y-2906D01*
X-351790Y-3232D01*
X-349310Y-2906D01*
X-346999Y-1948D01*
X-345015Y-426D01*
X-343492Y1559D01*
X-342535Y3870D01*
X-342208Y6350D01*
X-342535Y8830D01*
X-343492Y11141D01*
X-345015Y13125D01*
X-346999Y14648D01*
X-349310Y15605D01*
X-351790Y15932D01*
D02*
G37*
G36*
Y41332D02*
X-354270Y41005D01*
X-356581Y40048D01*
X-358566Y38525D01*
X-360088Y36541D01*
X-361046Y34230D01*
X-361372Y31750D01*
X-361046Y29270D01*
X-360088Y26959D01*
X-358566Y24974D01*
X-356581Y23452D01*
X-354270Y22494D01*
X-351790Y22168D01*
X-349310Y22494D01*
X-346999Y23452D01*
X-345015Y24974D01*
X-343492Y26959D01*
X-342535Y29270D01*
X-342208Y31750D01*
X-342535Y34230D01*
X-343492Y36541D01*
X-345015Y38525D01*
X-346999Y40048D01*
X-349310Y41005D01*
X-351790Y41332D01*
D02*
G37*
G36*
X18750Y125000D02*
X11500D01*
Y116250D01*
X18750D01*
Y125000D01*
D02*
G37*
G36*
X-26750Y113750D02*
X-34000D01*
Y105000D01*
X-26750D01*
Y113750D01*
D02*
G37*
G36*
X99600Y-58250D02*
X94351D01*
Y-68251D01*
X99600D01*
Y-58250D01*
D02*
G37*
G36*
X164092Y-26650D02*
X153650D01*
Y-37092D01*
X155469Y-36853D01*
X158328Y-35668D01*
X160784Y-33784D01*
X162668Y-31328D01*
X163852Y-28469D01*
X164092Y-26650D01*
D02*
G37*
G36*
X151150D02*
X140708D01*
X140947Y-28469D01*
X142132Y-31328D01*
X144016Y-33784D01*
X146472Y-35668D01*
X149331Y-36853D01*
X151150Y-37092D01*
Y-26650D01*
D02*
G37*
G36*
X152400Y88056D02*
X149331Y87652D01*
X146472Y86468D01*
X144016Y84584D01*
X142132Y82128D01*
X140947Y79268D01*
X140543Y76200D01*
X140947Y73131D01*
X142132Y70272D01*
X144016Y67816D01*
X146472Y65932D01*
X149331Y64747D01*
X152400Y64343D01*
X155469Y64747D01*
X158328Y65932D01*
X160784Y67816D01*
X162668Y70272D01*
X163852Y73131D01*
X164256Y76200D01*
X163852Y79268D01*
X162668Y82128D01*
X160784Y84584D01*
X158328Y86468D01*
X155469Y87652D01*
X152400Y88056D01*
D02*
G37*
G36*
Y138856D02*
X149331Y138452D01*
X146472Y137268D01*
X144016Y135384D01*
X142132Y132928D01*
X140947Y130069D01*
X140543Y127000D01*
X140769Y125285D01*
X139447Y125833D01*
X137750Y126056D01*
X136053Y125833D01*
X134472Y125178D01*
X133114Y124136D01*
X132072Y122778D01*
X131417Y121197D01*
X131194Y119500D01*
X131417Y117803D01*
X132072Y116222D01*
X133114Y114864D01*
X134472Y113822D01*
X136053Y113168D01*
X137750Y112944D01*
X139447Y113168D01*
X141028Y113822D01*
X142386Y114864D01*
X143428Y116222D01*
X144083Y117803D01*
X144174Y118495D01*
X146472Y116732D01*
X149331Y115547D01*
X152400Y115143D01*
X155469Y115547D01*
X158328Y116732D01*
X160784Y118616D01*
X162668Y121072D01*
X163852Y123931D01*
X164256Y127000D01*
X163852Y130069D01*
X162668Y132928D01*
X160784Y135384D01*
X158328Y137268D01*
X155469Y138452D01*
X152400Y138856D01*
D02*
G37*
G36*
Y164256D02*
X149331Y163852D01*
X146472Y162668D01*
X144016Y160784D01*
X142132Y158328D01*
X140947Y155469D01*
X140543Y152400D01*
X140947Y149331D01*
X142132Y146472D01*
X144016Y144016D01*
X146472Y142132D01*
X149331Y140947D01*
X152400Y140543D01*
X155469Y140947D01*
X158328Y142132D01*
X160784Y144016D01*
X162668Y146472D01*
X163852Y149331D01*
X164256Y152400D01*
X163852Y155469D01*
X162668Y158328D01*
X160784Y160784D01*
X158328Y162668D01*
X155469Y163852D01*
X152400Y164256D01*
D02*
G37*
G36*
X127000D02*
X123931Y163852D01*
X121072Y162668D01*
X118616Y160784D01*
X116732Y158328D01*
X115547Y155469D01*
X115143Y152400D01*
X115547Y149331D01*
X116732Y146472D01*
X118616Y144016D01*
X121072Y142132D01*
X123931Y140947D01*
X127000Y140543D01*
X130069Y140947D01*
X132928Y142132D01*
X135384Y144016D01*
X137268Y146472D01*
X138452Y149331D01*
X138856Y152400D01*
X138452Y155469D01*
X137268Y158328D01*
X135384Y160784D01*
X132928Y162668D01*
X130069Y163852D01*
X127000Y164256D01*
D02*
G37*
G36*
X121250Y105750D02*
X112500D01*
Y98500D01*
X121250D01*
Y105750D01*
D02*
G37*
G36*
X152400Y113456D02*
X149331Y113052D01*
X146472Y111868D01*
X144016Y109984D01*
X142132Y107528D01*
X140947Y104669D01*
X140543Y101600D01*
X140947Y98531D01*
X141089Y98189D01*
X140778Y98428D01*
X139197Y99083D01*
X137500Y99306D01*
X135803Y99083D01*
X134222Y98428D01*
X132864Y97386D01*
X132500Y96911D01*
Y105750D01*
X123750D01*
Y97250D01*
Y88750D01*
X132376D01*
X132864Y88114D01*
X134222Y87072D01*
X135803Y86417D01*
X137500Y86194D01*
X139197Y86417D01*
X140778Y87072D01*
X142136Y88114D01*
X143178Y89472D01*
X143833Y91053D01*
X144056Y92750D01*
X143990Y93249D01*
X144016Y93216D01*
X146472Y91332D01*
X149331Y90147D01*
X152400Y89743D01*
X155469Y90147D01*
X158328Y91332D01*
X160784Y93216D01*
X162668Y95672D01*
X163852Y98531D01*
X164256Y101600D01*
X163852Y104669D01*
X162668Y107528D01*
X160784Y109984D01*
X158328Y111868D01*
X155469Y113052D01*
X152400Y113456D01*
D02*
G37*
G36*
X132500Y6001D02*
X123750D01*
Y-1250D01*
X132500D01*
Y6001D01*
D02*
G37*
G36*
X121250D02*
X112500D01*
Y-1250D01*
X121250D01*
Y6001D01*
D02*
G37*
G36*
X153650Y-13708D02*
Y-24150D01*
X164092D01*
X163852Y-22332D01*
X162668Y-19472D01*
X160784Y-17016D01*
X158328Y-15132D01*
X155469Y-13948D01*
X153650Y-13708D01*
D02*
G37*
G36*
X151150D02*
X149331Y-13948D01*
X146472Y-15132D01*
X144016Y-17016D01*
X142132Y-19472D01*
X140947Y-22332D01*
X140708Y-24150D01*
X151150D01*
Y-13708D01*
D02*
G37*
G36*
X152400Y11856D02*
X149331Y11452D01*
X146472Y10268D01*
X144016Y8384D01*
X142132Y5928D01*
X140947Y3068D01*
X140543Y-0D01*
X140947Y-3069D01*
X142132Y-5928D01*
X144016Y-8384D01*
X146472Y-10268D01*
X149331Y-11453D01*
X152400Y-11857D01*
X155469Y-11453D01*
X158328Y-10268D01*
X160784Y-8384D01*
X162668Y-5928D01*
X163852Y-3069D01*
X164256Y-0D01*
X163852Y3068D01*
X162668Y5928D01*
X160784Y8384D01*
X158328Y10268D01*
X155469Y11452D01*
X152400Y11856D01*
D02*
G37*
G36*
Y37256D02*
X149331Y36852D01*
X146472Y35668D01*
X144016Y33784D01*
X142132Y31328D01*
X140947Y28468D01*
X140543Y25400D01*
X140947Y22331D01*
X142132Y19472D01*
X144016Y17016D01*
X146472Y15132D01*
X149331Y13947D01*
X152400Y13543D01*
X155469Y13947D01*
X158328Y15132D01*
X160784Y17016D01*
X162668Y19472D01*
X163852Y22331D01*
X164256Y25400D01*
X163852Y28468D01*
X162668Y31328D01*
X160784Y33784D01*
X158328Y35668D01*
X155469Y36852D01*
X152400Y37256D01*
D02*
G37*
G36*
X132500Y15750D02*
X123750D01*
Y8501D01*
X132500D01*
Y15750D01*
D02*
G37*
G36*
X121250D02*
X112500D01*
Y8501D01*
X121250D01*
Y15750D01*
D02*
G37*
%LPD*%
D10*
X-97500Y52250D02*
D03*
Y32750D02*
D03*
Y-62750D02*
D03*
Y-82250D02*
D03*
X27500Y57750D02*
D03*
Y77250D02*
D03*
X50000Y57750D02*
D03*
Y77250D02*
D03*
X72500Y57750D02*
D03*
Y77250D02*
D03*
X95000Y57750D02*
D03*
Y77250D02*
D03*
X122500Y97250D02*
D03*
Y77750D02*
D03*
Y7250D02*
D03*
Y-12250D02*
D03*
X-7500Y10250D02*
D03*
Y29750D02*
D03*
X-50000Y-27750D02*
D03*
Y-47250D02*
D03*
X122500Y-77250D02*
D03*
Y-57750D02*
D03*
D11*
X-54750Y90000D02*
D03*
X-35250D02*
D03*
Y115000D02*
D03*
X-54750D02*
D03*
X10250D02*
D03*
X29750D02*
D03*
X17750Y10000D02*
D03*
X37250D02*
D03*
X74750Y-100000D02*
D03*
X55250D02*
D03*
X-34750Y-107500D02*
D03*
X-15250D02*
D03*
X-34750Y-85000D02*
D03*
X-15250D02*
D03*
X37250Y35000D02*
D03*
X17750D02*
D03*
D12*
X60500Y33000D02*
D03*
Y12000D02*
D03*
X79500D02*
D03*
Y33000D02*
D03*
D13*
X-29750Y-18500D02*
D03*
X-23250D02*
D03*
X-16750D02*
D03*
X-10250D02*
D03*
Y-56500D02*
D03*
X-16750D02*
D03*
X-23250D02*
D03*
X-29750D02*
D03*
D14*
X93100Y-15500D02*
D03*
X80400D02*
D03*
X67700D02*
D03*
X55000D02*
D03*
X42300D02*
D03*
X29600D02*
D03*
X16900D02*
D03*
X93100Y-69500D02*
D03*
X80400D02*
D03*
X67700D02*
D03*
X55000D02*
D03*
X42300D02*
D03*
X29600D02*
D03*
X16900D02*
D03*
D15*
X-214750Y42000D02*
X-211000Y38250D01*
X-260440Y42000D02*
X-214750D01*
X-275590Y57150D02*
X-260440Y42000D01*
X-326390Y57150D02*
X-275590D01*
X-189500Y16250D02*
X-186000Y12750D01*
X-263250Y16250D02*
X-189500D01*
X-291500Y44500D02*
X-263250Y16250D01*
X-211000Y38250D02*
X-129250D01*
X-339140Y44500D02*
X-291500D01*
X-93253Y22001D02*
X-84125Y12875D01*
X-104250Y22000D02*
X-93253Y22001D01*
X-65000Y-8250D02*
X-50750D01*
X-68500Y-11750D02*
X-65000Y-8250D01*
X-79250Y-11750D02*
X-68500D01*
X-129250Y38250D02*
X-79250Y-11750D01*
X-11500Y100250D02*
X3250Y115000D01*
X10250D01*
X-20500Y100250D02*
X-11500D01*
X-35250Y115000D02*
X-20500Y100250D01*
X37250Y8250D02*
Y10000D01*
Y8250D02*
X46250Y-750D01*
X91500Y-52000D02*
X93100Y-53600D01*
Y-69500D02*
Y-53600D01*
X80400Y-69500D02*
Y-51250D01*
X-133000Y-23500D02*
X-65500D01*
X-65000Y-23000D01*
X-142755Y-13745D02*
X-133000Y-23500D01*
X-145750Y63500D02*
X-104250Y22000D01*
X-212500Y63500D02*
X-145750D01*
X-106000Y32750D02*
X-97500D01*
X-149450Y76200D02*
X-106000Y32750D01*
X-152400Y76200D02*
X-149450D01*
X-351790Y57150D02*
X-339140Y44500D01*
X-53250Y33750D02*
X-51000Y31500D01*
X-62250Y-105250D02*
Y-83000D01*
Y-105250D02*
X-52000Y-115500D01*
Y-125000D02*
Y-115500D01*
X-53250Y-126250D02*
X-52000Y-125000D01*
X-72250Y22250D02*
Y46750D01*
X-191005Y-13745D02*
X-142755D01*
X-198000Y-6750D02*
X-191005Y-13745D01*
X-58250Y-134250D02*
X-43550D01*
X-25400Y-152400D01*
X-2500Y-21500D02*
Y-9750D01*
Y-21500D02*
X10000Y-34000D01*
X-4250Y-8000D02*
X-2500Y-9750D01*
X-2500Y-2750D02*
X2500Y-7750D01*
Y-19499D02*
Y-7750D01*
Y-19499D02*
X4250Y-21250D01*
X12500Y-29500D01*
X165000Y-165000D02*
X177800Y-177800D01*
X165000Y-165000D02*
Y-139500D01*
X74750Y-135250D02*
Y-100000D01*
X63750Y-146250D02*
X74750Y-135250D01*
X63750Y-164850D02*
Y-146250D01*
X-129000Y-114250D02*
X-113500Y-98750D01*
X-165050Y-114250D02*
X-129000D01*
X-94750Y-60000D02*
X-85750Y-51000D01*
X-81500D01*
X-55000Y-31500D02*
X-51250Y-27750D01*
X-62000Y-31500D02*
X-55000D01*
X-81500Y-51000D02*
X-62000Y-31500D01*
X-29750Y-56500D02*
Y-52000D01*
X-35500Y-46250D02*
X-29750Y-52000D01*
X-35500Y-46250D02*
Y-35250D01*
X-80250Y-148350D02*
Y-71750D01*
Y-148350D02*
X-76200Y-152400D01*
X27500Y57750D02*
X35750Y49500D01*
X-23250Y-66251D02*
X-18500Y-71000D01*
X-23250Y-66251D02*
Y-56500D01*
X-12250Y-68000D02*
X-4500D01*
X-16750Y-63500D02*
X-12250Y-68000D01*
X-16750Y-63500D02*
Y-56500D01*
X118500Y-81250D02*
X122500Y-77250D01*
X86250Y-81250D02*
X118500D01*
X80400Y-75400D02*
X86250Y-81250D01*
X78500Y-96250D02*
X108500D01*
X115700Y-89051D01*
X-34000Y-84250D02*
Y-74000D01*
X-34750Y-85000D02*
X-34000Y-84250D01*
X-5500Y29750D02*
X2250Y22000D01*
X-7500Y29750D02*
X-5500D01*
X-63750Y101750D02*
X-54000D01*
X-76250Y114250D02*
X-63750Y101750D01*
X-233000Y114250D02*
X-76250D01*
X-54750Y113500D02*
X-35250Y94000D01*
X-54000Y90750D02*
Y101750D01*
X-54750Y114750D02*
Y115000D01*
X-62000Y63500D02*
Y78500D01*
Y63500D02*
X-48500Y50000D01*
X-35250Y90000D02*
X6250D01*
X-54750D02*
X-54000Y90750D01*
X-45750Y64000D02*
Y73250D01*
X6250Y90000D02*
X14250Y82000D01*
X-18250Y125750D02*
X-13000Y131000D01*
X-22250Y132250D02*
X-16750Y137750D01*
X-40250Y132250D02*
X-22250D01*
X-16750Y137750D02*
X-4500D01*
X-139600Y165000D02*
X-15250D01*
X-152400Y177800D02*
X-139600Y165000D01*
X-38750Y10000D02*
X-29750Y1000D01*
X-69250Y10000D02*
X-38750D01*
X-79500Y20250D02*
X-69250Y10000D01*
X-79500Y20250D02*
Y27250D01*
X-107000Y81500D02*
X-72250Y46750D01*
X-80249Y27250D02*
X-79500D01*
X-82500Y29500D02*
X-80249Y27250D01*
X-314090Y-6750D02*
X-198000D01*
X-326390Y-19050D02*
X-314090Y-6750D01*
X-186000Y12750D02*
X-165151D01*
X-152400Y-0D01*
X-250190Y57150D02*
X-239340Y68000D01*
X-217000D01*
X-212500Y63500D01*
X-239500Y120750D02*
X-233000Y114250D01*
X-339500Y95660D02*
X-326390Y82550D01*
X-339500Y95660D02*
Y115500D01*
X-334250Y120750D01*
X-239500D01*
X-45750Y64000D02*
X-38000Y56250D01*
X-54250Y62500D02*
Y73500D01*
Y62500D02*
X-41500Y49750D01*
Y47750D02*
Y49750D01*
X-48500Y42500D02*
Y50000D01*
Y42500D02*
X-45000Y39000D01*
X-70750Y65500D02*
Y77000D01*
Y65500D02*
X-53250Y48000D01*
Y33750D02*
Y48000D01*
X-80000Y67750D02*
Y77000D01*
Y67750D02*
X-59000Y46750D01*
Y25000D02*
Y46750D01*
Y25000D02*
X-57000Y23000D01*
X-112500Y93750D02*
Y95250D01*
Y93750D02*
X-64250Y45500D01*
Y16750D02*
Y45500D01*
X-113000Y81500D02*
X-107000D01*
X-94250Y29500D02*
X-82500D01*
X25400Y177800D02*
X38250Y164949D01*
Y123500D02*
Y164949D01*
X29750Y115000D02*
X38250Y123500D01*
X29750Y115000D02*
X32500Y112250D01*
Y100250D02*
Y112250D01*
X-101600Y152400D02*
X-64200Y115000D01*
X-54750D01*
X-35250Y90000D02*
Y94000D01*
X-57250Y117500D02*
X-54750Y115000D01*
X-57250Y117500D02*
Y128750D01*
X50800Y-177800D02*
X63750Y-164850D01*
X165250Y-89051D02*
X177800Y-101600D01*
X165250Y-89051D02*
Y-69250D01*
X159500Y-63500D02*
X165250Y-69250D01*
X128250Y-63500D02*
X159500D01*
X122500Y-57750D02*
X128250Y-63500D01*
X-76200Y-177800D02*
X-63500Y-165100D01*
X-15250Y-107500D02*
Y-85000D01*
X-177800Y-50800D02*
X-165100Y-63500D01*
X-98250D01*
X-97500Y-62750D01*
X-50000Y-27750D02*
X-40750Y-18500D01*
X-29750D01*
X16900Y-15500D02*
Y9150D01*
X17750Y10000D01*
X-7250D02*
X17750D01*
X-7500Y10250D02*
X-7250Y10000D01*
X17750D02*
Y35000D01*
X122500Y-57750D02*
Y-12250D01*
X74750Y-100000D02*
X77500Y-97250D01*
Y-85500D01*
X-15250Y-85000D02*
X-14499Y-84250D01*
X-5750D01*
X-97500Y-62750D02*
X-94750Y-60000D01*
X-51250Y-27750D02*
X-50000D01*
X119750Y-15000D02*
X122500Y-12250D01*
X95000Y77250D02*
Y145800D01*
X101600Y152400D01*
X72500Y77250D02*
X89000Y93750D01*
Y165200D01*
X101600Y177800D01*
X27500Y77250D02*
X63500Y113250D01*
Y165100D01*
X76200Y177800D01*
X93100Y-28650D02*
Y-15500D01*
X80400Y-28650D02*
Y-15500D01*
Y-28650D02*
X80500Y-28750D01*
X67700Y-28700D02*
Y-15500D01*
X88249Y-33502D02*
X93100Y-28650D01*
X88004Y-33502D02*
X88249D01*
X67700Y-28700D02*
X79500Y-40500D01*
X94500D01*
X122500Y77750D02*
X125000Y75250D01*
X125449Y77750D02*
X152400Y50800D01*
X122500Y77750D02*
X125449D01*
X119250D02*
X122500D01*
X108500Y88500D02*
X119250Y77750D01*
X101500Y88500D02*
X108500D01*
X50000Y46250D02*
Y57750D01*
X35750Y48750D02*
Y49500D01*
X67500Y62750D02*
X72500Y57750D01*
X62250Y62750D02*
X67500D01*
X37250Y35000D02*
X58500D01*
X60500Y33000D01*
X93750Y56500D02*
X95000Y57750D01*
X93750Y48000D02*
Y56500D01*
X79500Y33000D02*
X87500Y41000D01*
X98750D01*
X108000Y50250D01*
Y63250D01*
X122500Y77750D01*
X80400Y-75400D02*
Y-69500D01*
X29600D02*
Y-57150D01*
X29750Y-57000D01*
X16900Y-69500D02*
Y-56850D01*
X23750Y-50000D01*
X36000D01*
X42300Y-69500D02*
Y-57700D01*
X45500Y-54500D01*
X51750D01*
X85250Y22250D02*
X103000Y4500D01*
X85250Y22250D02*
Y27250D01*
X79500Y33000D02*
X85250Y27250D01*
X79500Y12000D02*
X88750Y2750D01*
X93750D01*
X14250Y38500D02*
X17750Y35000D01*
X14250Y38500D02*
Y82000D01*
X32500Y100250D01*
X38100Y-165100D02*
X50800Y-177800D01*
X-15250Y-107500D02*
X-12750Y-110000D01*
Y-165100D02*
Y-110000D01*
X-63500Y-165100D02*
X-12750D01*
X38100D01*
X115700Y-89051D02*
X165250D01*
X77500Y-97250D02*
X78500Y-96250D01*
X-20500Y10250D02*
X-7500D01*
X-29750Y1000D02*
X-20500Y10250D01*
X-29750Y-18500D02*
Y1000D01*
X-97500Y32750D02*
X-94250Y29500D01*
X-177800Y-127000D02*
X-165050Y-114250D01*
X50000Y77250D02*
X79750Y107000D01*
Y148849D01*
X76200Y152400D02*
X79750Y148849D01*
X-48000Y129000D02*
X-44750Y125750D01*
X-18250D01*
X-4500Y137750D02*
X2500Y130750D01*
X103000Y-8000D02*
Y4500D01*
X118250Y-8000D02*
X122500Y-12250D01*
X103000Y-8000D02*
X118250D01*
X-10250Y-21750D02*
Y-18500D01*
Y-21750D02*
X9250Y-41250D01*
X17500D01*
X-16750Y-18500D02*
Y-9750D01*
X-15000Y-8000D01*
X-4250D01*
X10000Y-34000D02*
X23750D01*
X28000Y-38250D01*
X-23250Y-18500D02*
Y-9000D01*
X-17000Y-2750D01*
X-2500D01*
X12500Y-29500D02*
X30750D01*
X47250Y-46000D01*
X58750D01*
D16*
X-372110Y193040D02*
X193040D01*
Y-193040D02*
Y193040D01*
X-383540Y-193040D02*
X193040D01*
X-383540D02*
Y181610D01*
X-372110Y193040D01*
D17*
X152400Y152400D02*
D03*
Y-152400D02*
D03*
X-152400D02*
D03*
X-177800Y177800D02*
D03*
Y152400D02*
D03*
Y127000D02*
D03*
Y101600D02*
D03*
Y76200D02*
D03*
Y50800D02*
D03*
Y25400D02*
D03*
Y-0D02*
D03*
Y-25400D02*
D03*
Y-50800D02*
D03*
Y-76200D02*
D03*
Y-101600D02*
D03*
Y-127000D02*
D03*
Y-152400D02*
D03*
Y-177800D02*
D03*
X-152400Y177800D02*
D03*
Y127000D02*
D03*
Y101600D02*
D03*
Y76200D02*
D03*
Y50800D02*
D03*
Y25400D02*
D03*
Y-0D02*
D03*
Y-25400D02*
D03*
Y-50800D02*
D03*
Y-76200D02*
D03*
Y-101600D02*
D03*
Y-127000D02*
D03*
Y-177800D02*
D03*
X-127000Y177800D02*
D03*
Y152400D02*
D03*
Y-152400D02*
D03*
Y-177800D02*
D03*
X-101600Y177800D02*
D03*
Y152400D02*
D03*
Y-152400D02*
D03*
Y-177800D02*
D03*
X-76200Y177800D02*
D03*
Y152400D02*
D03*
Y-152400D02*
D03*
Y-177800D02*
D03*
X-50800Y177800D02*
D03*
Y152400D02*
D03*
Y-152400D02*
D03*
Y-177800D02*
D03*
X-25400Y177800D02*
D03*
Y152400D02*
D03*
Y-152400D02*
D03*
Y-177800D02*
D03*
X-0Y177800D02*
D03*
Y152400D02*
D03*
Y-152400D02*
D03*
Y-177800D02*
D03*
X25400Y177800D02*
D03*
Y152400D02*
D03*
Y-152400D02*
D03*
Y-177800D02*
D03*
X50800Y177800D02*
D03*
Y152400D02*
D03*
Y-152400D02*
D03*
Y-177800D02*
D03*
X76200Y177800D02*
D03*
Y152400D02*
D03*
Y-152400D02*
D03*
Y-177800D02*
D03*
X101600Y177800D02*
D03*
Y152400D02*
D03*
Y-152400D02*
D03*
Y-177800D02*
D03*
X127000Y177800D02*
D03*
Y152400D02*
D03*
Y-152400D02*
D03*
Y-177800D02*
D03*
X152400Y177800D02*
D03*
Y127000D02*
D03*
Y101600D02*
D03*
Y76200D02*
D03*
Y50800D02*
D03*
Y25400D02*
D03*
Y-0D02*
D03*
Y-25400D02*
D03*
Y-50800D02*
D03*
Y-76200D02*
D03*
Y-101600D02*
D03*
Y-127000D02*
D03*
Y-177800D02*
D03*
X177800Y177800D02*
D03*
Y152400D02*
D03*
Y127000D02*
D03*
Y101600D02*
D03*
Y76200D02*
D03*
Y50800D02*
D03*
Y25400D02*
D03*
Y-0D02*
D03*
Y-25400D02*
D03*
Y-50800D02*
D03*
Y-76200D02*
D03*
Y-101600D02*
D03*
Y-127000D02*
D03*
Y-152400D02*
D03*
Y-177800D02*
D03*
D18*
X-152400Y152400D02*
D03*
D19*
X-300990Y-44450D02*
D03*
X-326390Y-19050D02*
D03*
Y-44450D02*
D03*
X-351790Y-19050D02*
D03*
X-326390Y6350D02*
D03*
X-351790D02*
D03*
X-326390Y31750D02*
D03*
X-351790D02*
D03*
X-326390Y82550D02*
D03*
X-351790D02*
D03*
X-326390Y107950D02*
D03*
X-300990Y82550D02*
D03*
Y107950D02*
D03*
X-275590Y82550D02*
D03*
Y107950D02*
D03*
X-250190Y82550D02*
D03*
Y107950D02*
D03*
X-224790Y82550D02*
D03*
X-250190Y31750D02*
D03*
X-224790D02*
D03*
X-250190Y6350D02*
D03*
X-224790D02*
D03*
X-250190Y-19050D02*
D03*
X-224790D02*
D03*
X-250190Y-44450D02*
D03*
X-275590Y-19050D02*
D03*
Y-44450D02*
D03*
X-224790Y57150D02*
D03*
X-250190D02*
D03*
X-351790D02*
D03*
X-326390D02*
D03*
D20*
X-300990Y-19050D02*
D03*
D21*
X-274250Y-83750D02*
D03*
X-193750Y2500D02*
D03*
X-237250Y54500D02*
D03*
X-276500Y42000D02*
D03*
X-263250Y95250D02*
D03*
X-60000Y-15000D02*
D03*
X-50750Y-8250D02*
D03*
X-11500Y100250D02*
D03*
X-3000Y97000D02*
D03*
X46250Y-750D02*
D03*
X91500Y-52000D02*
D03*
X80400Y-51250D02*
D03*
X-65000Y-23000D02*
D03*
X-128000Y-17000D02*
D03*
X-51000Y31500D02*
D03*
X-62250Y-83000D02*
D03*
X-53250Y-126250D02*
D03*
X-72250Y22250D02*
D03*
X-72250Y-4250D02*
D03*
X-58250Y-134250D02*
D03*
X7000Y-2250D02*
D03*
X-59250Y-119250D02*
D03*
X38000Y-142500D02*
D03*
X10500Y-112750D02*
D03*
X165000Y-139500D02*
D03*
X53250Y-135750D02*
D03*
X41500Y-128250D02*
D03*
X53500Y-121750D02*
D03*
X40750Y-115000D02*
D03*
X89000Y-120750D02*
D03*
X133000Y-97250D02*
D03*
X-113500Y-98750D02*
D03*
X-81500Y-51000D02*
D03*
X-35500Y-35250D02*
D03*
X-80250Y-71750D02*
D03*
X-16750Y40750D02*
D03*
X-8250Y41000D02*
D03*
X750Y40750D02*
D03*
X2500Y49250D02*
D03*
X-18500Y-71000D02*
D03*
X-4500Y-68000D02*
D03*
X19500Y-112500D02*
D03*
X83750Y-113250D02*
D03*
X62250Y-85500D02*
D03*
X53500Y-83750D02*
D03*
X34250Y-82500D02*
D03*
X-42500Y-66500D02*
D03*
X-34000Y-74000D02*
D03*
X2250Y22000D02*
D03*
X-54000Y101750D02*
D03*
X-62000Y78500D02*
D03*
X-10250Y68750D02*
D03*
X-37750Y66250D02*
D03*
X-45750Y73250D02*
D03*
X4250Y81000D02*
D03*
X-2000Y59750D02*
D03*
X-13000Y131000D02*
D03*
X-15250Y165000D02*
D03*
X1500Y-45500D02*
D03*
X-83000Y11750D02*
D03*
X-79500Y27250D02*
D03*
X-38000Y56250D02*
D03*
X-70750Y77000D02*
D03*
X-54250Y73500D02*
D03*
X-80000Y77000D02*
D03*
X-111750Y71250D02*
D03*
X-113000Y81500D02*
D03*
X-112500Y95250D02*
D03*
X-57000Y23000D02*
D03*
X-41500Y47750D02*
D03*
X-45000Y39000D02*
D03*
X-64250Y16750D02*
D03*
X32500Y100250D02*
D03*
X-57250Y128750D02*
D03*
X77500Y-85500D02*
D03*
X-5750Y-84250D02*
D03*
X56500Y94750D02*
D03*
X49750Y89000D02*
D03*
X63500Y100500D02*
D03*
X80500Y-28750D02*
D03*
X88004Y-33502D02*
D03*
X94500Y-40500D02*
D03*
X101500Y88500D02*
D03*
X79250Y95750D02*
D03*
X50000Y46250D02*
D03*
X35750Y48750D02*
D03*
X62250Y62750D02*
D03*
X93750Y48000D02*
D03*
X93250Y34500D02*
D03*
X101250Y18250D02*
D03*
X93250Y25250D02*
D03*
X71000Y135500D02*
D03*
X137500Y92750D02*
D03*
X103500Y-88000D02*
D03*
X29750Y-57000D02*
D03*
X36000Y-50000D02*
D03*
X51750Y-54500D02*
D03*
X93750Y2750D02*
D03*
X44750Y128500D02*
D03*
X15250Y96500D02*
D03*
X5750Y99500D02*
D03*
X7250Y138000D02*
D03*
X2500Y130750D02*
D03*
X-48000Y129000D02*
D03*
X-40250Y132250D02*
D03*
X101750Y135500D02*
D03*
X137750Y119500D02*
D03*
X103000Y-8000D02*
D03*
X63750Y-135250D02*
D03*
X17500Y-41250D02*
D03*
X28000Y-38250D02*
D03*
X58750Y-46000D02*
D03*
X42500Y-84500D02*
D03*
M02*
