G04 Layer_Color=2752767*
%FSLAX44Y44*%
%MOMM*%
G71*
G01*
G75*
%ADD16C,0.3500*%
%ADD42C,0.0508*%
%ADD43C,0.0677*%
D16*
X-372110Y193040D02*
X193040D01*
Y-193040D02*
Y193040D01*
X-383540Y-193040D02*
X193040D01*
X-383540D02*
Y181610D01*
X-372110Y193040D01*
D42*
X150368Y150368D02*
Y154432D01*
X154432D01*
Y150368D01*
X150368D01*
Y-154432D02*
Y-150368D01*
X154432D01*
Y-154432D01*
X150368D01*
X-154432D02*
Y-150368D01*
X-150368D01*
Y-154432D01*
X-154432D01*
Y150368D02*
Y154432D01*
X-150368D01*
Y150368D01*
X-154432D01*
X-179832Y175768D02*
Y179832D01*
X-175768D01*
Y175768D01*
X-179832D01*
Y150368D02*
Y154432D01*
X-175768D01*
Y150368D01*
X-179832D01*
Y124968D02*
Y129032D01*
X-175768D01*
Y124968D01*
X-179832D01*
Y99568D02*
Y103632D01*
X-175768D01*
Y99568D01*
X-179832D01*
Y74168D02*
Y78232D01*
X-175768D01*
Y74168D01*
X-179832D01*
Y48768D02*
Y52832D01*
X-175768D01*
Y48768D01*
X-179832D01*
Y23368D02*
Y27432D01*
X-175768D01*
Y23368D01*
X-179832D01*
Y-2032D02*
Y2032D01*
X-175768D01*
Y-2032D01*
X-179832D01*
Y-27432D02*
Y-23368D01*
X-175768D01*
Y-27432D01*
X-179832D01*
Y-52832D02*
Y-48768D01*
X-175768D01*
Y-52832D01*
X-179832D01*
Y-78232D02*
Y-74168D01*
X-175768D01*
Y-78232D01*
X-179832D01*
Y-103632D02*
Y-99568D01*
X-175768D01*
Y-103632D01*
X-179832D01*
Y-129032D02*
Y-124968D01*
X-175768D01*
Y-129032D01*
X-179832D01*
Y-154432D02*
Y-150368D01*
X-175768D01*
Y-154432D01*
X-179832D01*
Y-179832D02*
Y-175768D01*
X-175768D01*
Y-179832D01*
X-179832D01*
X-154432Y175768D02*
Y179832D01*
X-150368D01*
Y175768D01*
X-154432D01*
Y124968D02*
Y129032D01*
X-150368D01*
Y124968D01*
X-154432D01*
Y99568D02*
Y103632D01*
X-150368D01*
Y99568D01*
X-154432D01*
Y74168D02*
Y78232D01*
X-150368D01*
Y74168D01*
X-154432D01*
Y48768D02*
Y52832D01*
X-150368D01*
Y48768D01*
X-154432D01*
Y23368D02*
Y27432D01*
X-150368D01*
Y23368D01*
X-154432D01*
Y-2032D02*
Y2032D01*
X-150368D01*
Y-2032D01*
X-154432D01*
Y-27432D02*
Y-23368D01*
X-150368D01*
Y-27432D01*
X-154432D01*
Y-52832D02*
Y-48768D01*
X-150368D01*
Y-52832D01*
X-154432D01*
Y-78232D02*
Y-74168D01*
X-150368D01*
Y-78232D01*
X-154432D01*
Y-103632D02*
Y-99568D01*
X-150368D01*
Y-103632D01*
X-154432D01*
Y-129032D02*
Y-124968D01*
X-150368D01*
Y-129032D01*
X-154432D01*
Y-179832D02*
Y-175768D01*
X-150368D01*
Y-179832D01*
X-154432D01*
X-129032Y175768D02*
Y179832D01*
X-124968D01*
Y175768D01*
X-129032D01*
Y150368D02*
Y154432D01*
X-124968D01*
Y150368D01*
X-129032D01*
Y-154432D02*
Y-150368D01*
X-124968D01*
Y-154432D01*
X-129032D01*
Y-179832D02*
Y-175768D01*
X-124968D01*
Y-179832D01*
X-129032D01*
X-103632Y175768D02*
Y179832D01*
X-99568D01*
Y175768D01*
X-103632D01*
Y150368D02*
Y154432D01*
X-99568D01*
Y150368D01*
X-103632D01*
Y-154432D02*
Y-150368D01*
X-99568D01*
Y-154432D01*
X-103632D01*
Y-179832D02*
Y-175768D01*
X-99568D01*
Y-179832D01*
X-103632D01*
X-78232Y175768D02*
Y179832D01*
X-74168D01*
Y175768D01*
X-78232D01*
Y150368D02*
Y154432D01*
X-74168D01*
Y150368D01*
X-78232D01*
Y-154432D02*
Y-150368D01*
X-74168D01*
Y-154432D01*
X-78232D01*
Y-179832D02*
Y-175768D01*
X-74168D01*
Y-179832D01*
X-78232D01*
X-52832Y175768D02*
Y179832D01*
X-48768D01*
Y175768D01*
X-52832D01*
Y150368D02*
Y154432D01*
X-48768D01*
Y150368D01*
X-52832D01*
Y-154432D02*
Y-150368D01*
X-48768D01*
Y-154432D01*
X-52832D01*
Y-179832D02*
Y-175768D01*
X-48768D01*
Y-179832D01*
X-52832D01*
X-27432Y175768D02*
Y179832D01*
X-23368D01*
Y175768D01*
X-27432D01*
Y150368D02*
Y154432D01*
X-23368D01*
Y150368D01*
X-27432D01*
Y-154432D02*
Y-150368D01*
X-23368D01*
Y-154432D01*
X-27432D01*
Y-179832D02*
Y-175768D01*
X-23368D01*
Y-179832D01*
X-27432D01*
X-2032Y175768D02*
Y179832D01*
X2032D01*
Y175768D01*
X-2032D01*
Y150368D02*
Y154432D01*
X2032D01*
Y150368D01*
X-2032D01*
Y-154432D02*
Y-150368D01*
X2032D01*
Y-154432D01*
X-2032D01*
Y-179832D02*
Y-175768D01*
X2032D01*
Y-179832D01*
X-2032D01*
X23368Y175768D02*
Y179832D01*
X27432D01*
Y175768D01*
X23368D01*
Y150368D02*
Y154432D01*
X27432D01*
Y150368D01*
X23368D01*
Y-154432D02*
Y-150368D01*
X27432D01*
Y-154432D01*
X23368D01*
Y-179832D02*
Y-175768D01*
X27432D01*
Y-179832D01*
X23368D01*
X48768Y175768D02*
Y179832D01*
X52832D01*
Y175768D01*
X48768D01*
Y150368D02*
Y154432D01*
X52832D01*
Y150368D01*
X48768D01*
Y-154432D02*
Y-150368D01*
X52832D01*
Y-154432D01*
X48768D01*
Y-179832D02*
Y-175768D01*
X52832D01*
Y-179832D01*
X48768D01*
X74168Y175768D02*
Y179832D01*
X78232D01*
Y175768D01*
X74168D01*
Y150368D02*
Y154432D01*
X78232D01*
Y150368D01*
X74168D01*
Y-154432D02*
Y-150368D01*
X78232D01*
Y-154432D01*
X74168D01*
Y-179832D02*
Y-175768D01*
X78232D01*
Y-179832D01*
X74168D01*
X99568Y175768D02*
Y179832D01*
X103632D01*
Y175768D01*
X99568D01*
Y150368D02*
Y154432D01*
X103632D01*
Y150368D01*
X99568D01*
Y-154432D02*
Y-150368D01*
X103632D01*
Y-154432D01*
X99568D01*
Y-179832D02*
Y-175768D01*
X103632D01*
Y-179832D01*
X99568D01*
X124968Y175768D02*
Y179832D01*
X129032D01*
Y175768D01*
X124968D01*
Y150368D02*
Y154432D01*
X129032D01*
Y150368D01*
X124968D01*
Y-154432D02*
Y-150368D01*
X129032D01*
Y-154432D01*
X124968D01*
Y-179832D02*
Y-175768D01*
X129032D01*
Y-179832D01*
X124968D01*
X150368Y175768D02*
Y179832D01*
X154432D01*
Y175768D01*
X150368D01*
Y124968D02*
Y129032D01*
X154432D01*
Y124968D01*
X150368D01*
Y99568D02*
Y103632D01*
X154432D01*
Y99568D01*
X150368D01*
Y74168D02*
Y78232D01*
X154432D01*
Y74168D01*
X150368D01*
Y48768D02*
Y52832D01*
X154432D01*
Y48768D01*
X150368D01*
Y23368D02*
Y27432D01*
X154432D01*
Y23368D01*
X150368D01*
Y-2032D02*
Y2032D01*
X154432D01*
Y-2032D01*
X150368D01*
Y-27432D02*
Y-23368D01*
X154432D01*
Y-27432D01*
X150368D01*
Y-52832D02*
Y-48768D01*
X154432D01*
Y-52832D01*
X150368D01*
Y-78232D02*
Y-74168D01*
X154432D01*
Y-78232D01*
X150368D01*
Y-103632D02*
Y-99568D01*
X154432D01*
Y-103632D01*
X150368D01*
Y-129032D02*
Y-124968D01*
X154432D01*
Y-129032D01*
X150368D01*
Y-179832D02*
Y-175768D01*
X154432D01*
Y-179832D01*
X150368D01*
X175768Y175768D02*
Y179832D01*
X179832D01*
Y175768D01*
X175768D01*
Y150368D02*
Y154432D01*
X179832D01*
Y150368D01*
X175768D01*
Y124968D02*
Y129032D01*
X179832D01*
Y124968D01*
X175768D01*
Y99568D02*
Y103632D01*
X179832D01*
Y99568D01*
X175768D01*
Y74168D02*
Y78232D01*
X179832D01*
Y74168D01*
X175768D01*
Y48768D02*
Y52832D01*
X179832D01*
Y48768D01*
X175768D01*
Y23368D02*
Y27432D01*
X179832D01*
Y23368D01*
X175768D01*
Y-2032D02*
Y2032D01*
X179832D01*
Y-2032D01*
X175768D01*
Y-27432D02*
Y-23368D01*
X179832D01*
Y-27432D01*
X175768D01*
Y-52832D02*
Y-48768D01*
X179832D01*
Y-52832D01*
X175768D01*
Y-78232D02*
Y-74168D01*
X179832D01*
Y-78232D01*
X175768D01*
Y-103632D02*
Y-99568D01*
X179832D01*
Y-103632D01*
X175768D01*
Y-129032D02*
Y-124968D01*
X179832D01*
Y-129032D01*
X175768D01*
Y-154432D02*
Y-150368D01*
X179832D01*
Y-154432D01*
X175768D01*
Y-179832D02*
Y-175768D01*
X179832D01*
Y-179832D01*
X175768D01*
X-274250Y-85782D02*
X-276282Y-81718D01*
X-272218D01*
X-274250Y-85782D01*
X-193750Y468D02*
X-195782Y4532D01*
X-191718D01*
X-193750Y468D01*
X-237250Y52468D02*
X-239282Y56532D01*
X-235218D01*
X-237250Y52468D01*
X-276500Y39968D02*
X-278532Y44032D01*
X-274468D01*
X-276500Y39968D01*
X-263250Y93218D02*
X-265282Y97282D01*
X-261218D01*
X-263250Y93218D01*
X-60000Y-17032D02*
X-62032Y-12968D01*
X-57968D01*
X-60000Y-17032D01*
X-50750Y-10282D02*
X-52782Y-6218D01*
X-48718D01*
X-50750Y-10282D01*
X-11500Y98218D02*
X-13532Y102282D01*
X-9468D01*
X-11500Y98218D01*
X-3000Y94968D02*
X-5032Y99032D01*
X-968D01*
X-3000Y94968D01*
X46250Y-2782D02*
X44218Y1282D01*
X48282D01*
X46250Y-2782D01*
X91500Y-54032D02*
X89468Y-49968D01*
X93532D01*
X91500Y-54032D01*
X80400Y-53282D02*
X78368Y-49218D01*
X82432D01*
X80400Y-53282D01*
X-65000Y-25032D02*
X-67032Y-20968D01*
X-62968D01*
X-65000Y-25032D01*
X-128000Y-19032D02*
X-130032Y-14968D01*
X-125968D01*
X-128000Y-19032D01*
X-51000Y29468D02*
X-53032Y33532D01*
X-48968D01*
X-51000Y29468D01*
X-62250Y-85032D02*
X-64282Y-80968D01*
X-60218D01*
X-62250Y-85032D01*
X-53250Y-128282D02*
X-55282Y-124218D01*
X-51218D01*
X-53250Y-128282D01*
X-72250Y20218D02*
X-74282Y24282D01*
X-70218D01*
X-72250Y20218D01*
X-72250Y-6282D02*
X-74282Y-2218D01*
X-70218D01*
X-72250Y-6282D01*
X-58250Y-136282D02*
X-60282Y-132218D01*
X-56218D01*
X-58250Y-136282D01*
X7000Y-4282D02*
X4968Y-218D01*
X9032D01*
X7000Y-4282D01*
X-59250Y-121282D02*
X-61282Y-117218D01*
X-57218D01*
X-59250Y-121282D01*
X38000Y-144532D02*
X35968Y-140468D01*
X40032D01*
X38000Y-144532D01*
X10500Y-114782D02*
X8468Y-110718D01*
X12532D01*
X10500Y-114782D01*
X165000Y-141532D02*
X162968Y-137468D01*
X167032D01*
X165000Y-141532D01*
X53250Y-137782D02*
X51218Y-133718D01*
X55282D01*
X53250Y-137782D01*
X41500Y-130282D02*
X39468Y-126218D01*
X43532D01*
X41500Y-130282D01*
X53500Y-123782D02*
X51468Y-119718D01*
X55532D01*
X53500Y-123782D01*
X40750Y-117032D02*
X38718Y-112968D01*
X42782D01*
X40750Y-117032D01*
X89000Y-122782D02*
X86968Y-118718D01*
X91032D01*
X89000Y-122782D01*
X133000Y-99282D02*
X130968Y-95218D01*
X135032D01*
X133000Y-99282D01*
X-113500Y-100782D02*
X-115532Y-96718D01*
X-111468D01*
X-113500Y-100782D01*
X-81500Y-53032D02*
X-83532Y-48968D01*
X-79468D01*
X-81500Y-53032D01*
X-35500Y-37282D02*
X-37532Y-33218D01*
X-33468D01*
X-35500Y-37282D01*
X-80250Y-73782D02*
X-82282Y-69718D01*
X-78218D01*
X-80250Y-73782D01*
X-16750Y38718D02*
X-18782Y42782D01*
X-14718D01*
X-16750Y38718D01*
X-8250Y38968D02*
X-10282Y43032D01*
X-6218D01*
X-8250Y38968D01*
X750Y38718D02*
X-1282Y42782D01*
X2782D01*
X750Y38718D01*
X2500Y47218D02*
X468Y51282D01*
X4532D01*
X2500Y47218D01*
X-18500Y-73032D02*
X-20532Y-68968D01*
X-16468D01*
X-18500Y-73032D01*
X-4500Y-70032D02*
X-6532Y-65968D01*
X-2468D01*
X-4500Y-70032D01*
X19500Y-114532D02*
X17468Y-110468D01*
X21532D01*
X19500Y-114532D01*
X83750Y-115282D02*
X81718Y-111218D01*
X85782D01*
X83750Y-115282D01*
X62250Y-87532D02*
X60218Y-83468D01*
X64282D01*
X62250Y-87532D01*
X53500Y-85782D02*
X51468Y-81718D01*
X55532D01*
X53500Y-85782D01*
X34250Y-84532D02*
X32218Y-80468D01*
X36282D01*
X34250Y-84532D01*
X-42500Y-68532D02*
X-44532Y-64468D01*
X-40468D01*
X-42500Y-68532D01*
X-34000Y-76032D02*
X-36032Y-71968D01*
X-31968D01*
X-34000Y-76032D01*
X2250Y19968D02*
X218Y24032D01*
X4282D01*
X2250Y19968D01*
X-54000Y99718D02*
X-56032Y103782D01*
X-51968D01*
X-54000Y99718D01*
X-62000Y76468D02*
X-64032Y80532D01*
X-59968D01*
X-62000Y76468D01*
X-10250Y66718D02*
X-12282Y70782D01*
X-8218D01*
X-10250Y66718D01*
X-37750Y64218D02*
X-39782Y68282D01*
X-35718D01*
X-37750Y64218D01*
X-45750Y71218D02*
X-47782Y75282D01*
X-43718D01*
X-45750Y71218D01*
X4250Y78968D02*
X2218Y83032D01*
X6282D01*
X4250Y78968D01*
X-2000Y57718D02*
X-4032Y61782D01*
X32D01*
X-2000Y57718D01*
X-13000Y128968D02*
X-15032Y133032D01*
X-10968D01*
X-13000Y128968D01*
X-15250Y162968D02*
X-17282Y167032D01*
X-13218D01*
X-15250Y162968D01*
X1500Y-47532D02*
X-532Y-43468D01*
X3532D01*
X1500Y-47532D01*
X-83000Y9718D02*
X-85032Y13782D01*
X-80968D01*
X-83000Y9718D01*
X-79500Y25217D02*
X-81532Y29281D01*
X-77468D01*
X-79500Y25217D01*
X-38000Y54218D02*
X-40032Y58282D01*
X-35968D01*
X-38000Y54218D01*
X-70750Y74968D02*
X-72782Y79032D01*
X-68718D01*
X-70750Y74968D01*
X-54250Y71468D02*
X-56282Y75532D01*
X-52218D01*
X-54250Y71468D01*
X-80000Y74968D02*
X-82032Y79032D01*
X-77968D01*
X-80000Y74968D01*
X-111750Y69218D02*
X-113782Y73282D01*
X-109718D01*
X-111750Y69218D01*
X-113000Y79468D02*
X-115032Y83532D01*
X-110968D01*
X-113000Y79468D01*
X-112500Y93218D02*
X-114532Y97282D01*
X-110468D01*
X-112500Y93218D01*
X-57000Y20968D02*
X-59032Y25032D01*
X-54968D01*
X-57000Y20968D01*
X-41500Y45718D02*
X-43532Y49782D01*
X-39468D01*
X-41500Y45718D01*
X-45000Y36968D02*
X-47032Y41032D01*
X-42968D01*
X-45000Y36968D01*
X-64250Y14718D02*
X-66282Y18782D01*
X-62218D01*
X-64250Y14718D01*
X32500Y98218D02*
X30468Y102282D01*
X34532D01*
X32500Y98218D01*
X-57250Y126718D02*
X-59282Y130782D01*
X-55218D01*
X-57250Y126718D01*
X77500Y-87532D02*
X75468Y-83468D01*
X79532D01*
X77500Y-87532D01*
X-5750Y-86282D02*
X-7782Y-82218D01*
X-3718D01*
X-5750Y-86282D01*
X56500Y92718D02*
X54468Y96782D01*
X58532D01*
X56500Y92718D01*
X49750Y86968D02*
X47718Y91032D01*
X51782D01*
X49750Y86968D01*
X63500Y98468D02*
X61468Y102532D01*
X65532D01*
X63500Y98468D01*
X80500Y-30782D02*
X78468Y-26718D01*
X82532D01*
X80500Y-30782D01*
X88004Y-35534D02*
X85972Y-31470D01*
X90036D01*
X88004Y-35534D01*
X94500Y-42532D02*
X92468Y-38468D01*
X96532D01*
X94500Y-42532D01*
X101500Y86468D02*
X99468Y90532D01*
X103532D01*
X101500Y86468D01*
X79250Y93718D02*
X77218Y97782D01*
X81282D01*
X79250Y93718D01*
X50000Y44218D02*
X47968Y48282D01*
X52032D01*
X50000Y44218D01*
X35750Y46718D02*
X33718Y50782D01*
X37782D01*
X35750Y46718D01*
X62250Y60718D02*
X60218Y64782D01*
X64282D01*
X62250Y60718D01*
X93750Y45968D02*
X91718Y50032D01*
X95782D01*
X93750Y45968D01*
X93250Y32468D02*
X91218Y36532D01*
X95282D01*
X93250Y32468D01*
X101250Y16218D02*
X99218Y20282D01*
X103282D01*
X101250Y16218D01*
X93250Y23218D02*
X91218Y27282D01*
X95282D01*
X93250Y23218D01*
X71000Y133468D02*
X68968Y137532D01*
X73032D01*
X71000Y133468D01*
X137500Y90718D02*
X135468Y94782D01*
X139532D01*
X137500Y90718D01*
X103500Y-90032D02*
X101468Y-85968D01*
X105532D01*
X103500Y-90032D01*
X29750Y-59032D02*
X27718Y-54968D01*
X31782D01*
X29750Y-59032D01*
X36000Y-52032D02*
X33968Y-47968D01*
X38032D01*
X36000Y-52032D01*
X51750Y-56532D02*
X49718Y-52468D01*
X53782D01*
X51750Y-56532D01*
X93750Y718D02*
X91718Y4782D01*
X95782D01*
X93750Y718D01*
X44750Y126468D02*
X42718Y130532D01*
X46782D01*
X44750Y126468D01*
X15250Y94468D02*
X13218Y98532D01*
X17282D01*
X15250Y94468D01*
X5750Y97468D02*
X3718Y101532D01*
X7782D01*
X5750Y97468D01*
X7250Y135968D02*
X5218Y140032D01*
X9282D01*
X7250Y135968D01*
X2500Y128718D02*
X468Y132782D01*
X4532D01*
X2500Y128718D01*
X-48000Y126968D02*
X-50032Y131032D01*
X-45968D01*
X-48000Y126968D01*
X-40250Y130218D02*
X-42282Y134282D01*
X-38218D01*
X-40250Y130218D01*
X101750Y133468D02*
X99718Y137532D01*
X103782D01*
X101750Y133468D01*
X137750Y117468D02*
X135718Y121532D01*
X139782D01*
X137750Y117468D01*
X103000Y-10032D02*
X100968Y-5968D01*
X105032D01*
X103000Y-10032D01*
X63750Y-137282D02*
X61718Y-133218D01*
X65782D01*
X63750Y-137282D01*
X17500Y-43282D02*
X15468Y-39218D01*
X19532D01*
X17500Y-43282D01*
X28000Y-40282D02*
X25968Y-36218D01*
X30032D01*
X28000Y-40282D01*
X58750Y-48032D02*
X56718Y-43968D01*
X60782D01*
X58750Y-48032D01*
X42500Y-86532D02*
X40468Y-82468D01*
X44532D01*
X42500Y-86532D01*
D43*
X-298958Y-44450D02*
G03*
X-298958Y-44450I-2032J0D01*
G01*
X-324358Y-19050D02*
G03*
X-324358Y-19050I-2032J0D01*
G01*
Y-44450D02*
G03*
X-324358Y-44450I-2032J0D01*
G01*
X-349758Y-19050D02*
G03*
X-349758Y-19050I-2032J0D01*
G01*
X-324358Y6350D02*
G03*
X-324358Y6350I-2032J0D01*
G01*
X-349758D02*
G03*
X-349758Y6350I-2032J0D01*
G01*
X-324358Y31750D02*
G03*
X-324358Y31750I-2032J0D01*
G01*
X-349758D02*
G03*
X-349758Y31750I-2032J0D01*
G01*
X-324358Y82550D02*
G03*
X-324358Y82550I-2032J0D01*
G01*
X-349758D02*
G03*
X-349758Y82550I-2032J0D01*
G01*
X-324358Y107950D02*
G03*
X-324358Y107950I-2032J0D01*
G01*
X-298958Y82550D02*
G03*
X-298958Y82550I-2032J0D01*
G01*
Y107950D02*
G03*
X-298958Y107950I-2032J0D01*
G01*
X-273558Y82550D02*
G03*
X-273558Y82550I-2032J0D01*
G01*
Y107950D02*
G03*
X-273558Y107950I-2032J0D01*
G01*
X-248158Y82550D02*
G03*
X-248158Y82550I-2032J0D01*
G01*
Y107950D02*
G03*
X-248158Y107950I-2032J0D01*
G01*
X-222758Y82550D02*
G03*
X-222758Y82550I-2032J0D01*
G01*
X-248158Y31750D02*
G03*
X-248158Y31750I-2032J0D01*
G01*
X-222758D02*
G03*
X-222758Y31750I-2032J0D01*
G01*
X-248158Y6350D02*
G03*
X-248158Y6350I-2032J0D01*
G01*
X-222758D02*
G03*
X-222758Y6350I-2032J0D01*
G01*
X-248158Y-19050D02*
G03*
X-248158Y-19050I-2032J0D01*
G01*
X-222758D02*
G03*
X-222758Y-19050I-2032J0D01*
G01*
X-248158Y-44450D02*
G03*
X-248158Y-44450I-2032J0D01*
G01*
X-273558Y-19050D02*
G03*
X-273558Y-19050I-2032J0D01*
G01*
Y-44450D02*
G03*
X-273558Y-44450I-2032J0D01*
G01*
X-298958Y-19050D02*
G03*
X-298958Y-19050I-2032J0D01*
G01*
X-222758Y57150D02*
G03*
X-222758Y57150I-2032J0D01*
G01*
X-248158D02*
G03*
X-248158Y57150I-2032J0D01*
G01*
X-349758D02*
G03*
X-349758Y57150I-2032J0D01*
G01*
X-324358D02*
G03*
X-324358Y57150I-2032J0D01*
G01*
M02*
