G04 Layer_Physical_Order=3*
G04 Layer_Color=16440176*
%FSLAX44Y44*%
%MOMM*%
G71*
G01*
G75*
%ADD13C,0.2000*%
%ADD14C,0.3500*%
%ADD15C,1.6510*%
%ADD17C,0.6000*%
G36*
X142132Y-5928D02*
X144016Y-8384D01*
X146472Y-10268D01*
X149331Y-11453D01*
X152400Y-11857D01*
X155469Y-11453D01*
X158328Y-10268D01*
X160412Y-8669D01*
Y-16731D01*
X158328Y-15132D01*
X155469Y-13948D01*
X153650Y-13708D01*
Y-25400D01*
Y-37092D01*
X155469Y-36853D01*
X158328Y-35668D01*
X160412Y-34069D01*
Y-42131D01*
X158328Y-40532D01*
X155469Y-39348D01*
X152400Y-38944D01*
X149331Y-39348D01*
X146472Y-40532D01*
X144016Y-42416D01*
X142132Y-44872D01*
X142088Y-44977D01*
Y-31223D01*
X142132Y-31328D01*
X144016Y-33784D01*
X146472Y-35668D01*
X149331Y-36853D01*
X151150Y-37092D01*
Y-25400D01*
Y-13708D01*
X149331Y-13948D01*
X146472Y-15132D01*
X144016Y-17016D01*
X142132Y-19472D01*
X142088Y-19577D01*
Y-5823D01*
X142132Y-5928D01*
D02*
G37*
G36*
Y-56728D02*
X144016Y-59184D01*
X146472Y-61068D01*
X149331Y-62253D01*
X152400Y-62657D01*
X155469Y-62253D01*
X158328Y-61068D01*
X160412Y-59469D01*
Y-67531D01*
X158328Y-65932D01*
X155469Y-64748D01*
X153650Y-64508D01*
Y-76200D01*
X152400D01*
Y-77450D01*
X140708D01*
X140947Y-79269D01*
X142132Y-82128D01*
X143884Y-84412D01*
X131076D01*
X140734Y-74755D01*
X140708Y-74950D01*
X151150D01*
Y-64508D01*
X149331Y-64748D01*
X146472Y-65932D01*
X144016Y-67816D01*
X142132Y-70272D01*
X142088Y-70377D01*
Y-56623D01*
X142132Y-56728D01*
D02*
G37*
G36*
X90702Y-147991D02*
X90147Y-149332D01*
X89743Y-152400D01*
X90147Y-155469D01*
X91332Y-158328D01*
X93216Y-160784D01*
X95672Y-162668D01*
X98531Y-163853D01*
X101600Y-164257D01*
X104669Y-163853D01*
X107528Y-162668D01*
X109984Y-160784D01*
X110098Y-160635D01*
X111006Y-161994D01*
X117506Y-168494D01*
X118742Y-169320D01*
X118616Y-169416D01*
X116732Y-171872D01*
X115547Y-174732D01*
X115143Y-177800D01*
X115547Y-180869D01*
X116732Y-183728D01*
X117708Y-185000D01*
X110892D01*
X111868Y-183728D01*
X113052Y-180869D01*
X113456Y-177800D01*
X113052Y-174732D01*
X111868Y-171872D01*
X109984Y-169416D01*
X107528Y-167532D01*
X104669Y-166348D01*
X101600Y-165944D01*
X98531Y-166348D01*
X95672Y-167532D01*
X93216Y-169416D01*
X91332Y-171872D01*
X90147Y-174732D01*
X89743Y-177800D01*
X90147Y-180869D01*
X91332Y-183728D01*
X92308Y-185000D01*
X85492D01*
X86468Y-183728D01*
X87652Y-180869D01*
X88056Y-177800D01*
X87652Y-174732D01*
X86468Y-171872D01*
X84584Y-169416D01*
X82128Y-167532D01*
X79268Y-166348D01*
X76200Y-165944D01*
X73131Y-166348D01*
X71791Y-166903D01*
X66894Y-162006D01*
X65406Y-161011D01*
X63650Y-160662D01*
X59277D01*
X61068Y-158328D01*
X62252Y-155469D01*
X62656Y-152400D01*
X62252Y-149332D01*
X61068Y-146472D01*
X59184Y-144016D01*
X57648Y-142838D01*
X69352D01*
X67816Y-144016D01*
X65932Y-146472D01*
X64747Y-149332D01*
X64508Y-151150D01*
X87892D01*
X87652Y-149332D01*
X86468Y-146472D01*
X84584Y-144016D01*
X83048Y-142838D01*
X85549D01*
X90702Y-147991D01*
D02*
G37*
G36*
X167532Y183728D02*
X166347Y180868D01*
X165943Y177800D01*
X166347Y174731D01*
X167532Y171872D01*
X169416Y169416D01*
X171872Y167532D01*
X174731Y166347D01*
X177800Y165943D01*
X180868Y166347D01*
X183728Y167532D01*
X185000Y168508D01*
Y161692D01*
X183728Y162668D01*
X180868Y163852D01*
X177800Y164256D01*
X174731Y163852D01*
X171872Y162668D01*
X169416Y160784D01*
X167532Y158328D01*
X166347Y155469D01*
X165943Y152400D01*
X166347Y149331D01*
X167532Y146472D01*
X169416Y144016D01*
X171872Y142132D01*
X174731Y140947D01*
X177800Y140543D01*
X180868Y140947D01*
X183728Y142132D01*
X185000Y143108D01*
Y136292D01*
X183728Y137268D01*
X180868Y138452D01*
X177800Y138856D01*
X174731Y138452D01*
X173391Y137897D01*
X168294Y142994D01*
X166805Y143989D01*
X165049Y144338D01*
X161031D01*
X162668Y146472D01*
X163852Y149331D01*
X164256Y152400D01*
X163852Y155469D01*
X162668Y158328D01*
X160784Y160784D01*
X158328Y162668D01*
X155469Y163852D01*
X152400Y164256D01*
X149331Y163852D01*
X146472Y162668D01*
X144016Y160784D01*
X142132Y158328D01*
X140947Y155469D01*
X140543Y152400D01*
X140947Y149331D01*
X141503Y147991D01*
X132856Y139345D01*
X131861Y137856D01*
X131512Y136100D01*
Y131783D01*
X130228Y132768D01*
X127368Y133953D01*
X125550Y134192D01*
Y122500D01*
Y110808D01*
X127368Y111048D01*
X130228Y112232D01*
X131512Y113217D01*
Y113001D01*
X129756Y111245D01*
X129756Y111245D01*
X129755Y111244D01*
X129196Y110407D01*
X128761Y109756D01*
X128761Y109756D01*
X128761Y109756D01*
X128580Y108846D01*
X128412Y108000D01*
X128412Y108000D01*
X128412Y108000D01*
Y105536D01*
X127697Y105833D01*
X126000Y106056D01*
X124303Y105833D01*
X122722Y105177D01*
X121364Y104136D01*
X120322Y102778D01*
X119667Y101197D01*
X119444Y99500D01*
X119667Y97803D01*
X120322Y96222D01*
X121364Y94864D01*
X122722Y93822D01*
X124303Y93167D01*
X126000Y92944D01*
X127697Y93167D01*
X128412Y93463D01*
Y-67099D01*
X122849Y-72662D01*
X87000D01*
X85244Y-73011D01*
X83756Y-74006D01*
X75006Y-82756D01*
X74011Y-84244D01*
X73662Y-86000D01*
Y-96328D01*
X73614Y-96364D01*
X72572Y-97722D01*
X71917Y-99303D01*
X71694Y-101000D01*
X71917Y-102697D01*
X72572Y-104278D01*
X73614Y-105636D01*
X74972Y-106678D01*
X76553Y-107333D01*
X78250Y-107556D01*
X79947Y-107333D01*
X81528Y-106678D01*
X82886Y-105636D01*
X83928Y-104278D01*
X84583Y-102697D01*
X84806Y-101000D01*
X84748Y-100556D01*
X84750Y-100556D01*
X86447Y-100333D01*
X88028Y-99678D01*
X89386Y-98636D01*
X90428Y-97278D01*
X91083Y-95697D01*
X91117Y-95440D01*
X92000Y-95556D01*
X93697Y-95333D01*
X95278Y-94678D01*
X96636Y-93636D01*
X96673Y-93588D01*
X143731D01*
X142132Y-95672D01*
X140947Y-98532D01*
X140543Y-101600D01*
X140947Y-104669D01*
X142132Y-107528D01*
X144016Y-109984D01*
X146472Y-111868D01*
X149331Y-113053D01*
X152400Y-113457D01*
X155469Y-113053D01*
X158328Y-111868D01*
X160784Y-109984D01*
X162668Y-107528D01*
X163852Y-104669D01*
X164256Y-101600D01*
X163852Y-98532D01*
X162668Y-95672D01*
X160894Y-93361D01*
X161506Y-93239D01*
X162994Y-92245D01*
X168245Y-86994D01*
X169239Y-85506D01*
X169422Y-84588D01*
X171872Y-86468D01*
X174731Y-87653D01*
X177800Y-88057D01*
X180868Y-87653D01*
X183728Y-86468D01*
X185000Y-85492D01*
Y-92308D01*
X183728Y-91332D01*
X180868Y-90148D01*
X177800Y-89744D01*
X174731Y-90148D01*
X171872Y-91332D01*
X169416Y-93216D01*
X167532Y-95672D01*
X166347Y-98532D01*
X165943Y-101600D01*
X166347Y-104669D01*
X167532Y-107528D01*
X169416Y-109984D01*
X171872Y-111868D01*
X174731Y-113053D01*
X177800Y-113457D01*
X180868Y-113053D01*
X183728Y-111868D01*
X185000Y-110892D01*
Y-117708D01*
X183728Y-116732D01*
X180868Y-115548D01*
X177800Y-115144D01*
X174731Y-115548D01*
X171872Y-116732D01*
X169416Y-118616D01*
X167532Y-121072D01*
X166347Y-123932D01*
X165943Y-127000D01*
X166347Y-130069D01*
X167532Y-132928D01*
X169416Y-135384D01*
X171872Y-137268D01*
X174731Y-138453D01*
X177800Y-138857D01*
X180868Y-138453D01*
X183728Y-137268D01*
X185000Y-136292D01*
Y-143108D01*
X183728Y-142132D01*
X180868Y-140948D01*
X177800Y-140544D01*
X174731Y-140948D01*
X171872Y-142132D01*
X169416Y-144016D01*
X167532Y-146472D01*
X166347Y-149332D01*
X165943Y-152400D01*
X166347Y-155469D01*
X167532Y-158328D01*
X169416Y-160784D01*
X171872Y-162668D01*
X174731Y-163853D01*
X177800Y-164257D01*
X180868Y-163853D01*
X183728Y-162668D01*
X185000Y-161692D01*
Y-168508D01*
X183728Y-167532D01*
X180868Y-166348D01*
X177800Y-165944D01*
X174731Y-166348D01*
X173391Y-166903D01*
X168494Y-162006D01*
X167006Y-161011D01*
X165250Y-160662D01*
X160877D01*
X162668Y-158328D01*
X163852Y-155469D01*
X164256Y-152400D01*
X163852Y-149332D01*
X162668Y-146472D01*
X160784Y-144016D01*
X158328Y-142132D01*
X155469Y-140948D01*
X152400Y-140544D01*
X149331Y-140948D01*
X146472Y-142132D01*
X144016Y-144016D01*
X142132Y-146472D01*
X140947Y-149332D01*
X140543Y-152400D01*
X140947Y-155469D01*
X142132Y-158328D01*
X143922Y-160662D01*
X135477D01*
X137268Y-158328D01*
X138452Y-155469D01*
X138856Y-152400D01*
X138452Y-149332D01*
X137268Y-146472D01*
X135384Y-144016D01*
X132928Y-142132D01*
X130069Y-140948D01*
X127000Y-140544D01*
X123931Y-140948D01*
X121072Y-142132D01*
X118639Y-143999D01*
X118489Y-143244D01*
X117494Y-141756D01*
X105494Y-129756D01*
X104006Y-128761D01*
X102250Y-128412D01*
X26151D01*
X11088Y-113350D01*
Y-100950D01*
X11614Y-101636D01*
X12972Y-102678D01*
X14000Y-103104D01*
X13917Y-103303D01*
X13694Y-105000D01*
X13917Y-106697D01*
X14572Y-108278D01*
X15614Y-109636D01*
X16972Y-110678D01*
X18553Y-111333D01*
X20250Y-111556D01*
X21947Y-111333D01*
X23528Y-110678D01*
X24885Y-109636D01*
X25927Y-108278D01*
X26582Y-106697D01*
X26806Y-105000D01*
X26582Y-103303D01*
X25927Y-101722D01*
X24885Y-100364D01*
X23528Y-99323D01*
X22500Y-98897D01*
X22583Y-98697D01*
X22806Y-97000D01*
X22583Y-95303D01*
X21928Y-93722D01*
X20886Y-92364D01*
X19528Y-91322D01*
X17947Y-90667D01*
X16250Y-90444D01*
X15926Y-90487D01*
X16056Y-89500D01*
X15833Y-87803D01*
X15178Y-86222D01*
X14136Y-84864D01*
X12778Y-83822D01*
X11197Y-83167D01*
X9500Y-82944D01*
X7803Y-83167D01*
X6222Y-83822D01*
X4864Y-84864D01*
X3822Y-86222D01*
X3167Y-87803D01*
X3130Y-88084D01*
X2386Y-87114D01*
X1028Y-86072D01*
X-553Y-85417D01*
X-2250Y-85194D01*
X-3947Y-85417D01*
X-5528Y-86072D01*
X-6886Y-87114D01*
X-7928Y-88472D01*
X-8226Y-89191D01*
X-8494Y-89011D01*
X-8494D01*
X-8494Y-89011D01*
X-9085Y-88894D01*
X-10250Y-88662D01*
X-12577D01*
X-12614Y-88614D01*
X-13972Y-87572D01*
X-15553Y-86917D01*
X-17250Y-86694D01*
X-18947Y-86917D01*
X-20213Y-87442D01*
X-20822Y-85972D01*
X-21864Y-84614D01*
X-23222Y-83573D01*
X-24803Y-82917D01*
X-26500Y-82694D01*
X-28197Y-82917D01*
X-29778Y-83573D01*
X-31136Y-84614D01*
X-32178Y-85972D01*
X-32833Y-87553D01*
X-33056Y-89250D01*
X-32833Y-90947D01*
X-32178Y-92528D01*
X-31136Y-93886D01*
X-31088Y-93923D01*
Y-101000D01*
D01*
Y-101000D01*
X-31001Y-101436D01*
X-30739Y-102756D01*
X-30739Y-102756D01*
Y-102756D01*
X-30238Y-103505D01*
X-29744Y-104244D01*
X-29744D01*
Y-104244D01*
X7912Y-141900D01*
Y-143655D01*
X5928Y-142132D01*
X3068Y-140948D01*
X-0Y-140544D01*
X-3069Y-140948D01*
X-5928Y-142132D01*
X-8384Y-144016D01*
X-10268Y-146472D01*
X-11453Y-149332D01*
X-11857Y-152400D01*
X-11453Y-155469D01*
X-10268Y-158328D01*
X-8384Y-160784D01*
X-5928Y-162668D01*
X-3069Y-163853D01*
X-0Y-164257D01*
X3068Y-163853D01*
X5928Y-162668D01*
X8067Y-161027D01*
X8107Y-161232D01*
X8261Y-162005D01*
X8261Y-162005D01*
X8261Y-162006D01*
X8897Y-162957D01*
X9256Y-163494D01*
X9256Y-163494D01*
X9256Y-163494D01*
X9256Y-163494D01*
X14255Y-168494D01*
X14255Y-168494D01*
X14256Y-168494D01*
X15145Y-169089D01*
X15744Y-169489D01*
X15744Y-169489D01*
X15744Y-169489D01*
X16714Y-169682D01*
X16799Y-169699D01*
X15132Y-171872D01*
X13947Y-174732D01*
X13543Y-177800D01*
X13947Y-180869D01*
X15132Y-183728D01*
X16108Y-185000D01*
X9292D01*
X10268Y-183728D01*
X11452Y-180869D01*
X11856Y-177800D01*
X11452Y-174732D01*
X10268Y-171872D01*
X8384Y-169416D01*
X5928Y-167532D01*
X3068Y-166348D01*
X-0Y-165944D01*
X-3069Y-166348D01*
X-5928Y-167532D01*
X-8384Y-169416D01*
X-10268Y-171872D01*
X-11453Y-174732D01*
X-11857Y-177800D01*
X-11453Y-180869D01*
X-10268Y-183728D01*
X-9292Y-185000D01*
X-16108D01*
X-15132Y-183728D01*
X-13948Y-180869D01*
X-13544Y-177800D01*
X-13948Y-174732D01*
X-15132Y-171872D01*
X-17016Y-169416D01*
X-19472Y-167532D01*
X-22332Y-166348D01*
X-25400Y-165944D01*
X-28469Y-166348D01*
X-31328Y-167532D01*
X-33784Y-169416D01*
X-35668Y-171872D01*
X-36853Y-174732D01*
X-37257Y-177800D01*
X-36853Y-180869D01*
X-35668Y-183728D01*
X-34692Y-185000D01*
X-41508D01*
X-40532Y-183728D01*
X-39348Y-180869D01*
X-38944Y-177800D01*
X-39348Y-174732D01*
X-40532Y-171872D01*
X-42416Y-169416D01*
X-44872Y-167532D01*
X-47731Y-166348D01*
X-50800Y-165944D01*
X-53869Y-166348D01*
X-56728Y-167532D01*
X-59184Y-169416D01*
X-61068Y-171872D01*
X-62253Y-174732D01*
X-62657Y-177800D01*
X-62253Y-180869D01*
X-61068Y-183728D01*
X-60092Y-185000D01*
X-66908D01*
X-65932Y-183728D01*
X-64748Y-180869D01*
X-64344Y-177800D01*
X-64748Y-174732D01*
X-65932Y-171872D01*
X-67816Y-169416D01*
X-70272Y-167532D01*
X-73131Y-166348D01*
X-76200Y-165944D01*
X-79269Y-166348D01*
X-82128Y-167532D01*
X-84584Y-169416D01*
X-86468Y-171872D01*
X-87653Y-174732D01*
X-88057Y-177800D01*
X-87653Y-180869D01*
X-86468Y-183728D01*
X-85492Y-185000D01*
X-92308D01*
X-91332Y-183728D01*
X-90148Y-180869D01*
X-89744Y-177800D01*
X-90148Y-174732D01*
X-91332Y-171872D01*
X-93216Y-169416D01*
X-95672Y-167532D01*
X-98532Y-166348D01*
X-101600Y-165944D01*
X-104669Y-166348D01*
X-107528Y-167532D01*
X-109984Y-169416D01*
X-111868Y-171872D01*
X-113053Y-174732D01*
X-113457Y-177800D01*
X-113053Y-180869D01*
X-111868Y-183728D01*
X-110892Y-185000D01*
X-117708D01*
X-116732Y-183728D01*
X-115548Y-180869D01*
X-115144Y-177800D01*
X-115548Y-174732D01*
X-116103Y-173391D01*
X-111006Y-168294D01*
X-110011Y-166806D01*
X-109662Y-165050D01*
Y-161031D01*
X-107528Y-162668D01*
X-104669Y-163853D01*
X-101600Y-164257D01*
X-98532Y-163853D01*
X-95672Y-162668D01*
X-93216Y-160784D01*
X-91332Y-158328D01*
X-90148Y-155469D01*
X-89744Y-152400D01*
X-90148Y-149332D01*
X-91332Y-146472D01*
X-93216Y-144016D01*
X-95672Y-142132D01*
X-98532Y-140948D01*
X-101600Y-140544D01*
X-104669Y-140948D01*
X-107528Y-142132D01*
X-109662Y-143769D01*
Y-113900D01*
X-86419Y-90658D01*
X-86583Y-91053D01*
X-86806Y-92750D01*
X-86583Y-94447D01*
X-85928Y-96028D01*
X-84886Y-97386D01*
X-83528Y-98427D01*
X-81947Y-99082D01*
X-80250Y-99306D01*
X-78553Y-99082D01*
X-76972Y-98427D01*
X-75614Y-97386D01*
X-75163Y-96798D01*
X-74136Y-98136D01*
X-72778Y-99178D01*
X-71197Y-99833D01*
X-69500Y-100056D01*
X-67803Y-99833D01*
X-66222Y-99178D01*
X-64864Y-98136D01*
X-63822Y-96778D01*
X-63168Y-95197D01*
X-62944Y-93500D01*
X-63168Y-91803D01*
X-63822Y-90222D01*
X-64864Y-88864D01*
X-66222Y-87822D01*
X-67803Y-87167D01*
X-68709Y-87048D01*
X-68667Y-86947D01*
X-68444Y-85250D01*
X-68667Y-83553D01*
X-69322Y-81972D01*
X-70364Y-80614D01*
X-71722Y-79573D01*
X-73303Y-78917D01*
X-75000Y-78694D01*
X-76697Y-78917D01*
X-78278Y-79573D01*
X-79636Y-80614D01*
X-79672Y-80662D01*
X-87251D01*
X-86572Y-79778D01*
X-85917Y-78197D01*
X-85694Y-76500D01*
X-85917Y-74803D01*
X-86572Y-73222D01*
X-87614Y-71864D01*
X-88972Y-70822D01*
X-90553Y-70167D01*
X-92250Y-69944D01*
X-93947Y-70167D01*
X-95528Y-70822D01*
X-96886Y-71864D01*
X-97928Y-73222D01*
X-98583Y-74803D01*
X-98806Y-76500D01*
X-98583Y-78197D01*
X-97928Y-79778D01*
X-96886Y-81136D01*
X-95528Y-82178D01*
X-93947Y-82832D01*
X-92250Y-83056D01*
X-91726Y-82987D01*
X-117494Y-108756D01*
X-118489Y-110244D01*
X-118838Y-112000D01*
Y-143846D01*
X-121072Y-142132D01*
X-123932Y-140948D01*
X-127000Y-140544D01*
X-130069Y-140948D01*
X-132928Y-142132D01*
X-135384Y-144016D01*
X-137268Y-146472D01*
X-138453Y-149332D01*
X-138857Y-152400D01*
X-138453Y-155469D01*
X-137268Y-158328D01*
X-135384Y-160784D01*
X-132928Y-162668D01*
X-130069Y-163853D01*
X-127000Y-164257D01*
X-123932Y-163853D01*
X-121072Y-162668D01*
X-118838Y-160954D01*
Y-163149D01*
X-122591Y-166903D01*
X-123932Y-166348D01*
X-127000Y-165944D01*
X-130069Y-166348D01*
X-132928Y-167532D01*
X-135384Y-169416D01*
X-137268Y-171872D01*
X-138453Y-174732D01*
X-138857Y-177800D01*
X-138453Y-180869D01*
X-137268Y-183728D01*
X-136292Y-185000D01*
X-143108D01*
X-142132Y-183728D01*
X-140948Y-180869D01*
X-140544Y-177800D01*
X-140948Y-174732D01*
X-142132Y-171872D01*
X-144016Y-169416D01*
X-146472Y-167532D01*
X-149332Y-166348D01*
X-152400Y-165944D01*
X-155469Y-166348D01*
X-158328Y-167532D01*
X-160784Y-169416D01*
X-162668Y-171872D01*
X-163853Y-174732D01*
X-164257Y-177800D01*
X-163853Y-180869D01*
X-162668Y-183728D01*
X-161692Y-185000D01*
X-168508D01*
X-167532Y-183728D01*
X-166348Y-180869D01*
X-165944Y-177800D01*
X-166348Y-174732D01*
X-167532Y-171872D01*
X-169416Y-169416D01*
X-171872Y-167532D01*
X-174732Y-166348D01*
X-177800Y-165944D01*
X-180869Y-166348D01*
X-183728Y-167532D01*
X-185000Y-168508D01*
Y-161692D01*
X-183728Y-162668D01*
X-180869Y-163853D01*
X-177800Y-164257D01*
X-174732Y-163853D01*
X-171872Y-162668D01*
X-169416Y-160784D01*
X-167532Y-158328D01*
X-166348Y-155469D01*
X-165944Y-152400D01*
X-166348Y-149332D01*
X-167532Y-146472D01*
X-169416Y-144016D01*
X-171872Y-142132D01*
X-174732Y-140948D01*
X-177800Y-140544D01*
X-180869Y-140948D01*
X-183728Y-142132D01*
X-185000Y-143108D01*
Y-136292D01*
X-183728Y-137268D01*
X-180869Y-138453D01*
X-177800Y-138857D01*
X-174732Y-138453D01*
X-171872Y-137268D01*
X-169416Y-135384D01*
X-167532Y-132928D01*
X-166348Y-130069D01*
X-165944Y-127000D01*
X-166348Y-123932D01*
X-167532Y-121072D01*
X-169416Y-118616D01*
X-171872Y-116732D01*
X-174732Y-115548D01*
X-177800Y-115144D01*
X-180869Y-115548D01*
X-183728Y-116732D01*
X-185000Y-117708D01*
Y-110892D01*
X-183728Y-111868D01*
X-180869Y-113053D01*
X-177800Y-113457D01*
X-174732Y-113053D01*
X-171872Y-111868D01*
X-169416Y-109984D01*
X-167532Y-107528D01*
X-166348Y-104669D01*
X-165944Y-101600D01*
X-166348Y-98532D01*
X-167532Y-95672D01*
X-169416Y-93216D01*
X-171872Y-91332D01*
X-174732Y-90148D01*
X-177800Y-89744D01*
X-180869Y-90148D01*
X-183728Y-91332D01*
X-185000Y-92308D01*
Y-85492D01*
X-183728Y-86468D01*
X-180869Y-87653D01*
X-177800Y-88057D01*
X-174732Y-87653D01*
X-171872Y-86468D01*
X-169416Y-84584D01*
X-167532Y-82128D01*
X-166348Y-79269D01*
X-165944Y-76200D01*
X-166348Y-73131D01*
X-167532Y-70272D01*
X-169416Y-67816D01*
X-171872Y-65932D01*
X-174732Y-64748D01*
X-177800Y-64344D01*
X-180869Y-64748D01*
X-183728Y-65932D01*
X-185000Y-66908D01*
Y-60092D01*
X-183728Y-61068D01*
X-180869Y-62253D01*
X-177800Y-62657D01*
X-174732Y-62253D01*
X-171872Y-61068D01*
X-169416Y-59184D01*
X-167532Y-56728D01*
X-166348Y-53869D01*
X-165944Y-50800D01*
X-166348Y-47731D01*
X-167532Y-44872D01*
X-169416Y-42416D01*
X-171872Y-40532D01*
X-174732Y-39348D01*
X-177800Y-38944D01*
X-180869Y-39348D01*
X-183728Y-40532D01*
X-185000Y-41508D01*
Y-34692D01*
X-183728Y-35668D01*
X-180869Y-36853D01*
X-177800Y-37257D01*
X-174732Y-36853D01*
X-171872Y-35668D01*
X-169416Y-33784D01*
X-167532Y-31328D01*
X-166348Y-28469D01*
X-165944Y-25400D01*
X-166348Y-22332D01*
X-167532Y-19472D01*
X-169416Y-17016D01*
X-171872Y-15132D01*
X-174732Y-13948D01*
X-177800Y-13544D01*
X-180869Y-13948D01*
X-183728Y-15132D01*
X-185000Y-16108D01*
Y-9292D01*
X-183728Y-10268D01*
X-180869Y-11453D01*
X-177800Y-11857D01*
X-174732Y-11453D01*
X-171872Y-10268D01*
X-169416Y-8384D01*
X-167532Y-5928D01*
X-166348Y-3069D01*
X-165944Y-0D01*
X-166348Y3068D01*
X-167532Y5928D01*
X-169416Y8384D01*
X-171872Y10268D01*
X-174732Y11452D01*
X-177800Y11856D01*
X-180869Y11452D01*
X-183728Y10268D01*
X-185000Y9292D01*
Y16108D01*
X-183728Y15132D01*
X-180869Y13947D01*
X-177800Y13543D01*
X-174732Y13947D01*
X-171872Y15132D01*
X-169416Y17016D01*
X-167532Y19472D01*
X-166348Y22331D01*
X-165944Y25400D01*
X-166348Y28468D01*
X-167532Y31328D01*
X-169416Y33784D01*
X-171872Y35668D01*
X-174732Y36852D01*
X-177800Y37256D01*
X-180869Y36852D01*
X-183728Y35668D01*
X-185000Y34692D01*
Y41508D01*
X-183728Y40532D01*
X-180869Y39347D01*
X-177800Y38943D01*
X-174732Y39347D01*
X-171872Y40532D01*
X-169416Y42416D01*
X-167532Y44872D01*
X-166348Y47731D01*
X-165944Y50800D01*
X-166348Y53868D01*
X-167532Y56728D01*
X-169416Y59184D01*
X-171872Y61068D01*
X-174732Y62252D01*
X-177800Y62656D01*
X-180869Y62252D01*
X-183728Y61068D01*
X-185000Y60092D01*
Y66908D01*
X-183728Y65932D01*
X-180869Y64747D01*
X-179050Y64508D01*
Y76200D01*
Y87892D01*
X-180869Y87652D01*
X-183728Y86468D01*
X-185000Y85492D01*
Y92308D01*
X-183728Y91332D01*
X-180869Y90147D01*
X-177800Y89743D01*
X-174732Y90147D01*
X-171872Y91332D01*
X-169416Y93216D01*
X-167532Y95672D01*
X-166348Y98531D01*
X-165944Y101600D01*
X-166348Y104669D01*
X-167532Y107528D01*
X-169416Y109984D01*
X-171872Y111868D01*
X-174732Y113052D01*
X-177800Y113456D01*
X-180869Y113052D01*
X-183728Y111868D01*
X-185000Y110892D01*
Y117708D01*
X-183728Y116732D01*
X-180869Y115547D01*
X-177800Y115143D01*
X-174732Y115547D01*
X-171872Y116732D01*
X-169416Y118616D01*
X-167532Y121072D01*
X-166348Y123931D01*
X-165944Y127000D01*
X-166348Y130069D01*
X-167532Y132928D01*
X-169416Y135384D01*
X-171872Y137268D01*
X-174732Y138452D01*
X-177800Y138856D01*
X-180869Y138452D01*
X-183728Y137268D01*
X-185000Y136292D01*
Y143108D01*
X-183728Y142132D01*
X-180869Y140947D01*
X-177800Y140543D01*
X-174732Y140947D01*
X-171872Y142132D01*
X-169416Y144016D01*
X-167532Y146472D01*
X-166348Y149331D01*
X-165944Y152400D01*
X-166348Y155469D01*
X-167532Y158328D01*
X-169416Y160784D01*
X-171872Y162668D01*
X-174732Y163852D01*
X-177800Y164256D01*
X-180869Y163852D01*
X-183728Y162668D01*
X-185000Y161692D01*
Y168508D01*
X-183728Y167532D01*
X-180869Y166347D01*
X-177800Y165943D01*
X-174732Y166347D01*
X-171872Y167532D01*
X-169416Y169416D01*
X-167532Y171872D01*
X-166348Y174731D01*
X-165944Y177800D01*
X-166348Y180868D01*
X-167532Y183728D01*
X-168508Y185000D01*
X-161692D01*
X-162668Y183728D01*
X-163853Y180868D01*
X-164257Y177800D01*
X-163853Y174731D01*
X-162668Y171872D01*
X-160784Y169416D01*
X-158328Y167532D01*
X-155469Y166347D01*
X-152400Y165943D01*
X-149332Y166347D01*
X-147991Y166903D01*
X-145244Y164155D01*
X-164155D01*
Y140645D01*
X-144088D01*
Y135439D01*
X-146472Y137268D01*
X-149332Y138452D01*
X-152400Y138856D01*
X-155469Y138452D01*
X-158328Y137268D01*
X-160784Y135384D01*
X-162668Y132928D01*
X-163853Y130069D01*
X-164257Y127000D01*
X-163853Y123931D01*
X-162668Y121072D01*
X-160784Y118616D01*
X-158328Y116732D01*
X-155469Y115547D01*
X-152400Y115143D01*
X-149332Y115547D01*
X-146472Y116732D01*
X-144088Y118561D01*
Y111750D01*
X-143739Y109994D01*
X-142744Y108506D01*
X-95798Y61560D01*
X-95806Y61500D01*
X-95583Y59803D01*
X-94928Y58222D01*
X-93886Y56864D01*
X-92968Y56160D01*
X-93528Y55928D01*
X-94886Y54886D01*
X-95928Y53528D01*
X-96583Y51947D01*
X-96806Y50250D01*
X-96583Y48553D01*
X-95928Y46972D01*
X-94886Y45614D01*
X-93528Y44573D01*
X-91947Y43917D01*
X-90250Y43694D01*
X-88553Y43917D01*
X-86972Y44573D01*
X-85614Y45614D01*
X-84838Y46626D01*
Y40172D01*
X-84886Y40136D01*
X-85928Y38778D01*
X-86583Y37197D01*
X-86806Y35500D01*
X-86583Y33803D01*
X-85928Y32222D01*
X-84886Y30864D01*
X-83528Y29822D01*
X-81947Y29167D01*
X-80250Y28944D01*
X-78553Y29167D01*
X-76972Y29822D01*
X-75614Y30864D01*
X-74572Y32222D01*
X-73917Y33803D01*
X-73694Y35500D01*
X-73737Y35824D01*
X-72750Y35694D01*
X-71053Y35917D01*
X-70838Y36006D01*
Y33422D01*
X-70886Y33386D01*
X-71928Y32028D01*
X-72583Y30447D01*
X-72806Y28750D01*
X-72583Y27053D01*
X-71928Y25472D01*
X-70886Y24114D01*
X-69528Y23072D01*
X-67947Y22417D01*
X-66250Y22194D01*
X-64553Y22417D01*
X-62972Y23072D01*
X-61614Y24114D01*
X-60572Y25472D01*
X-59917Y27053D01*
X-59694Y28750D01*
X-59917Y30447D01*
X-60572Y32028D01*
X-61614Y33386D01*
X-61662Y33422D01*
Y48750D01*
X-62011Y50506D01*
X-63006Y51994D01*
X-63676Y52664D01*
X-62000Y52444D01*
X-60303Y52667D01*
X-59615Y52952D01*
X-59806Y51500D01*
X-59582Y49803D01*
X-58927Y48222D01*
X-57886Y46864D01*
X-56528Y45822D01*
X-54947Y45167D01*
X-53250Y44944D01*
X-51553Y45167D01*
X-51438Y45215D01*
Y26538D01*
X-51636Y26386D01*
X-52678Y25028D01*
X-53333Y23447D01*
X-53556Y21750D01*
X-53333Y20053D01*
X-52678Y18472D01*
X-51636Y17114D01*
X-50278Y16072D01*
X-48697Y15417D01*
X-47360Y15241D01*
X-47556Y13750D01*
X-47333Y12053D01*
X-46678Y10472D01*
X-45636Y9114D01*
X-44278Y8072D01*
X-42697Y7417D01*
X-41000Y7194D01*
X-39303Y7417D01*
X-37722Y8072D01*
X-36364Y9114D01*
X-35322Y10472D01*
X-34667Y12053D01*
X-34444Y13750D01*
X-34667Y15447D01*
X-35322Y17028D01*
X-36012Y17927D01*
Y61350D01*
X-36361Y63106D01*
X-37356Y64594D01*
X-45662Y72901D01*
Y102100D01*
X-37506Y110256D01*
X-36511Y111744D01*
X-36162Y113500D01*
Y113869D01*
X-34028Y112232D01*
X-31169Y111048D01*
X-28100Y110644D01*
X-25031Y111048D01*
X-22172Y112232D01*
X-19838Y114023D01*
Y109901D01*
X-27244Y102494D01*
X-28239Y101006D01*
X-28588Y99250D01*
Y77308D01*
X-29722Y78178D01*
X-31303Y78833D01*
X-33000Y79056D01*
X-34697Y78833D01*
X-36278Y78178D01*
X-37636Y77136D01*
X-38678Y75778D01*
X-39332Y74197D01*
X-39556Y72500D01*
X-39332Y70803D01*
X-38678Y69222D01*
X-37636Y67864D01*
X-36278Y66822D01*
X-34697Y66167D01*
X-33000Y65944D01*
X-31303Y66167D01*
X-29722Y66822D01*
X-28588Y67692D01*
Y2172D01*
X-28636Y2136D01*
X-29678Y778D01*
X-30333Y-803D01*
X-30556Y-2500D01*
X-30365Y-3952D01*
X-31053Y-3667D01*
X-32750Y-3444D01*
X-34447Y-3667D01*
X-36028Y-4322D01*
X-37386Y-5364D01*
X-38428Y-6722D01*
X-39083Y-8303D01*
X-39306Y-10000D01*
X-39083Y-11697D01*
X-38428Y-13278D01*
X-37386Y-14636D01*
X-36028Y-15678D01*
X-34447Y-16333D01*
X-32750Y-16556D01*
X-31053Y-16333D01*
X-29472Y-15678D01*
X-28114Y-14636D01*
X-27072Y-13278D01*
X-26417Y-11697D01*
X-26194Y-10000D01*
X-26385Y-8548D01*
X-25697Y-8833D01*
X-24000Y-9056D01*
X-22303Y-8833D01*
X-20722Y-8178D01*
X-19364Y-7136D01*
X-18322Y-5778D01*
X-17667Y-4197D01*
X-17444Y-2500D01*
X-17667Y-803D01*
X-18322Y778D01*
X-19364Y2136D01*
X-19412Y2172D01*
Y97350D01*
X-12006Y104756D01*
X-11011Y106244D01*
X-10662Y108000D01*
Y113792D01*
X-8628Y112232D01*
X-5769Y111048D01*
X-2700Y110644D01*
X369Y111048D01*
X3228Y112232D01*
X5684Y114116D01*
X7568Y116572D01*
X8752Y119431D01*
X9156Y122500D01*
X8752Y125569D01*
X7568Y128428D01*
X5684Y130884D01*
X3228Y132768D01*
X369Y133953D01*
X-2700Y134357D01*
X-5769Y133953D01*
X-8628Y132768D01*
X-10662Y131208D01*
Y131849D01*
X-9506Y133006D01*
X-8511Y134494D01*
X-8162Y136250D01*
Y143846D01*
X-5928Y142132D01*
X-3069Y140947D01*
X-0Y140543D01*
X3068Y140947D01*
X5928Y142132D01*
X8384Y144016D01*
X10268Y146472D01*
X11452Y149331D01*
X11856Y152400D01*
X11452Y155469D01*
X10268Y158328D01*
X8384Y160784D01*
X5928Y162668D01*
X3068Y163852D01*
X-0Y164256D01*
X-3069Y163852D01*
X-5928Y162668D01*
X-8162Y160954D01*
Y165150D01*
X-8511Y166905D01*
X-9506Y168394D01*
X-14503Y173391D01*
X-13948Y174731D01*
X-13544Y177800D01*
X-13948Y180868D01*
X-15132Y183728D01*
X-16108Y185000D01*
X-9292D01*
X-10268Y183728D01*
X-11453Y180868D01*
X-11857Y177800D01*
X-11453Y174731D01*
X-10268Y171872D01*
X-8384Y169416D01*
X-5928Y167532D01*
X-3069Y166347D01*
X-0Y165943D01*
X3068Y166347D01*
X5928Y167532D01*
X8384Y169416D01*
X10268Y171872D01*
X11452Y174731D01*
X11856Y177800D01*
X11452Y180868D01*
X10268Y183728D01*
X9292Y185000D01*
X16108D01*
X15132Y183728D01*
X13947Y180868D01*
X13543Y177800D01*
X13947Y174731D01*
X15132Y171872D01*
X17016Y169416D01*
X19472Y167532D01*
X22331Y166347D01*
X25400Y165943D01*
X28468Y166347D01*
X31328Y167532D01*
X33784Y169416D01*
X35668Y171872D01*
X36852Y174731D01*
X37256Y177800D01*
X36852Y180868D01*
X35668Y183728D01*
X34692Y185000D01*
X41508D01*
X40532Y183728D01*
X39347Y180868D01*
X38943Y177800D01*
X39347Y174731D01*
X40532Y171872D01*
X42416Y169416D01*
X44872Y167532D01*
X47731Y166347D01*
X50800Y165943D01*
X53868Y166347D01*
X56728Y167532D01*
X59184Y169416D01*
X61068Y171872D01*
X62252Y174731D01*
X62656Y177800D01*
X62252Y180868D01*
X61068Y183728D01*
X60092Y185000D01*
X66908D01*
X65932Y183728D01*
X64747Y180868D01*
X64343Y177800D01*
X64747Y174731D01*
X65932Y171872D01*
X67816Y169416D01*
X70272Y167532D01*
X73131Y166347D01*
X76200Y165943D01*
X79268Y166347D01*
X82128Y167532D01*
X84584Y169416D01*
X86468Y171872D01*
X87652Y174731D01*
X88056Y177800D01*
X87652Y180868D01*
X86468Y183728D01*
X85492Y185000D01*
X92308D01*
X91332Y183728D01*
X90147Y180868D01*
X89743Y177800D01*
X90147Y174731D01*
X91332Y171872D01*
X93216Y169416D01*
X95672Y167532D01*
X98531Y166347D01*
X101600Y165943D01*
X104669Y166347D01*
X106009Y166903D01*
X109912Y162999D01*
Y160839D01*
X107528Y162668D01*
X104669Y163852D01*
X101600Y164256D01*
X98531Y163852D01*
X95672Y162668D01*
X93216Y160784D01*
X91332Y158328D01*
X90147Y155469D01*
X89743Y152400D01*
X90147Y149331D01*
X91332Y146472D01*
X93216Y144016D01*
X95672Y142132D01*
X98531Y140947D01*
X101600Y140543D01*
X104669Y140947D01*
X107528Y142132D01*
X109912Y143961D01*
Y138151D01*
X108256Y136494D01*
X107261Y135006D01*
X106912Y133250D01*
Y131169D01*
X104828Y132768D01*
X101968Y133953D01*
X98900Y134357D01*
X95831Y133953D01*
X92972Y132768D01*
X90516Y130884D01*
X88632Y128428D01*
X87447Y125569D01*
X87043Y122500D01*
X87447Y119431D01*
X88632Y116572D01*
X90516Y114116D01*
X92972Y112232D01*
X95831Y111048D01*
X98900Y110644D01*
X98959Y110652D01*
X98667Y109947D01*
X98444Y108250D01*
X98667Y106553D01*
X99322Y104972D01*
X100364Y103614D01*
X101722Y102572D01*
X103303Y101917D01*
X105000Y101694D01*
X106697Y101917D01*
X108278Y102572D01*
X109636Y103614D01*
X110678Y104972D01*
X111333Y106553D01*
X111556Y108250D01*
X111548Y108310D01*
X114744Y111506D01*
X115739Y112994D01*
X115956Y114086D01*
X118372Y112232D01*
X121231Y111048D01*
X123050Y110808D01*
Y122500D01*
Y134192D01*
X121231Y133953D01*
X118372Y132768D01*
X116088Y131016D01*
Y131349D01*
X117744Y133006D01*
X118739Y134494D01*
X119088Y136250D01*
Y143654D01*
X121072Y142132D01*
X123931Y140947D01*
X127000Y140543D01*
X130069Y140947D01*
X132928Y142132D01*
X135384Y144016D01*
X137268Y146472D01*
X138452Y149331D01*
X138856Y152400D01*
X138452Y155469D01*
X137268Y158328D01*
X135384Y160784D01*
X132928Y162668D01*
X130069Y163852D01*
X127000Y164256D01*
X123931Y163852D01*
X121072Y162668D01*
X119088Y161146D01*
Y164900D01*
X118739Y166656D01*
X117744Y168144D01*
X112497Y173391D01*
X113052Y174731D01*
X113456Y177800D01*
X113052Y180868D01*
X111868Y183728D01*
X110892Y185000D01*
X117708D01*
X116732Y183728D01*
X115547Y180868D01*
X115143Y177800D01*
X115547Y174731D01*
X116732Y171872D01*
X118616Y169416D01*
X121072Y167532D01*
X123931Y166347D01*
X127000Y165943D01*
X130069Y166347D01*
X132928Y167532D01*
X135384Y169416D01*
X137268Y171872D01*
X138452Y174731D01*
X138856Y177800D01*
X138452Y180868D01*
X137268Y183728D01*
X136292Y185000D01*
X143108D01*
X142132Y183728D01*
X140947Y180868D01*
X140543Y177800D01*
X140947Y174731D01*
X142132Y171872D01*
X144016Y169416D01*
X146472Y167532D01*
X149331Y166347D01*
X152400Y165943D01*
X155469Y166347D01*
X158328Y167532D01*
X160784Y169416D01*
X162668Y171872D01*
X163852Y174731D01*
X164256Y177800D01*
X163852Y180868D01*
X162668Y183728D01*
X161692Y185000D01*
X168508D01*
X167532Y183728D01*
D02*
G37*
G36*
X166903Y-173391D02*
X166347Y-174732D01*
X165943Y-177800D01*
X166347Y-180869D01*
X167532Y-183728D01*
X168508Y-185000D01*
X161692D01*
X162668Y-183728D01*
X163852Y-180869D01*
X164092Y-179050D01*
X140708D01*
X140947Y-180869D01*
X142132Y-183728D01*
X143108Y-185000D01*
X136292D01*
X137268Y-183728D01*
X138452Y-180869D01*
X138856Y-177800D01*
X138452Y-174732D01*
X137268Y-171872D01*
X135707Y-169838D01*
X143692D01*
X142132Y-171872D01*
X140947Y-174732D01*
X140708Y-176550D01*
X164092D01*
X163852Y-174732D01*
X162668Y-171872D01*
X161107Y-169838D01*
X163349D01*
X166903Y-173391D01*
D02*
G37*
G36*
X-86468Y183728D02*
X-87653Y180868D01*
X-88057Y177800D01*
X-87653Y174731D01*
X-87098Y173391D01*
X-91994Y168494D01*
X-92989Y167006D01*
X-93338Y165250D01*
Y160877D01*
X-95672Y162668D01*
X-98532Y163852D01*
X-101600Y164256D01*
X-104669Y163852D01*
X-107528Y162668D01*
X-109662Y161031D01*
Y165050D01*
X-110011Y166805D01*
X-111006Y168294D01*
X-116103Y173391D01*
X-115548Y174731D01*
X-115144Y177800D01*
X-115548Y180868D01*
X-116732Y183728D01*
X-117708Y185000D01*
X-110892D01*
X-111868Y183728D01*
X-113053Y180868D01*
X-113292Y179050D01*
X-89908D01*
X-90148Y180868D01*
X-91332Y183728D01*
X-92308Y185000D01*
X-85492D01*
X-86468Y183728D01*
D02*
G37*
%LPC*%
G36*
X74950Y-153650D02*
X64508D01*
X64747Y-155469D01*
X65932Y-158328D01*
X67816Y-160784D01*
X70272Y-162668D01*
X73131Y-163853D01*
X74950Y-164092D01*
Y-153650D01*
D02*
G37*
G36*
X87892D02*
X77450D01*
Y-164092D01*
X79268Y-163853D01*
X82128Y-162668D01*
X84584Y-160784D01*
X86468Y-158328D01*
X87652Y-155469D01*
X87892Y-153650D01*
D02*
G37*
G36*
X-69250Y-63444D02*
X-70947Y-63667D01*
X-72528Y-64322D01*
X-73886Y-65364D01*
X-74928Y-66722D01*
X-75583Y-68303D01*
X-75806Y-70000D01*
X-75583Y-71697D01*
X-74928Y-73278D01*
X-73886Y-74636D01*
X-72528Y-75678D01*
X-70947Y-76333D01*
X-69250Y-76556D01*
X-67553Y-76333D01*
X-65972Y-75678D01*
X-64614Y-74636D01*
X-63573Y-73278D01*
X-62918Y-71697D01*
X-62694Y-70000D01*
X-62918Y-68303D01*
X-63573Y-66722D01*
X-64614Y-65364D01*
X-65972Y-64322D01*
X-67553Y-63667D01*
X-69250Y-63444D01*
D02*
G37*
G36*
X52250Y-73944D02*
X50553Y-74167D01*
X48972Y-74822D01*
X47614Y-75864D01*
X46572Y-77222D01*
X45918Y-78803D01*
X45694Y-80500D01*
X45918Y-82197D01*
X46572Y-83778D01*
X47117Y-84488D01*
X46947Y-84417D01*
X45250Y-84194D01*
X44496Y-84293D01*
X44333Y-83053D01*
X43678Y-81472D01*
X42636Y-80114D01*
X41278Y-79072D01*
X39697Y-78417D01*
X38000Y-78194D01*
X36303Y-78417D01*
X34722Y-79072D01*
X33364Y-80114D01*
X32322Y-81472D01*
X31668Y-83053D01*
X31444Y-84750D01*
X31668Y-86447D01*
X32322Y-88028D01*
X33364Y-89386D01*
X34722Y-90428D01*
X36303Y-91082D01*
X38000Y-91306D01*
X38754Y-91207D01*
X38917Y-92447D01*
X39572Y-94028D01*
X40614Y-95386D01*
X41972Y-96427D01*
X43553Y-97083D01*
X45250Y-97306D01*
X46947Y-97083D01*
X48528Y-96427D01*
X49886Y-95386D01*
X50928Y-94028D01*
X51583Y-92447D01*
X51806Y-90750D01*
X51583Y-89053D01*
X50928Y-87472D01*
X50383Y-86762D01*
X50553Y-86833D01*
X52250Y-87056D01*
X53947Y-86833D01*
X55528Y-86178D01*
X56886Y-85136D01*
X57928Y-83778D01*
X58583Y-82197D01*
X58806Y-80500D01*
X58583Y-78803D01*
X57928Y-77222D01*
X56886Y-75864D01*
X55528Y-74822D01*
X53947Y-74167D01*
X52250Y-73944D01*
D02*
G37*
G36*
X-45250Y-84944D02*
X-46947Y-85167D01*
X-48528Y-85822D01*
X-49886Y-86864D01*
X-50721Y-87953D01*
X-51364Y-87114D01*
X-52722Y-86072D01*
X-54303Y-85417D01*
X-56000Y-85194D01*
X-57697Y-85417D01*
X-59278Y-86072D01*
X-60636Y-87114D01*
X-61678Y-88472D01*
X-62333Y-90053D01*
X-62556Y-91750D01*
X-62333Y-93447D01*
X-61678Y-95028D01*
X-60636Y-96386D01*
X-60123Y-96779D01*
X-60886Y-97364D01*
X-61928Y-98722D01*
X-62583Y-100303D01*
X-62694Y-101149D01*
X-64250Y-100944D01*
X-65947Y-101167D01*
X-67528Y-101822D01*
X-68886Y-102864D01*
X-69928Y-104222D01*
X-70583Y-105803D01*
X-70806Y-107500D01*
X-70583Y-109197D01*
X-69928Y-110778D01*
X-68886Y-112136D01*
X-67528Y-113178D01*
X-65947Y-113833D01*
X-64250Y-114056D01*
X-62553Y-113833D01*
X-60972Y-113178D01*
X-59614Y-112136D01*
X-58572Y-110778D01*
X-57917Y-109197D01*
X-57806Y-108351D01*
X-56250Y-108556D01*
X-54553Y-108333D01*
X-52972Y-107678D01*
X-51614Y-106636D01*
X-50572Y-105278D01*
X-49917Y-103697D01*
X-49694Y-102000D01*
X-49917Y-100303D01*
X-50572Y-98722D01*
X-51614Y-97364D01*
X-52127Y-96971D01*
X-51364Y-96386D01*
X-50529Y-95297D01*
X-49886Y-96136D01*
X-48528Y-97178D01*
X-46947Y-97833D01*
X-45250Y-98056D01*
X-43553Y-97833D01*
X-43101Y-97646D01*
X-43386Y-97864D01*
X-44428Y-99222D01*
X-45083Y-100803D01*
X-45306Y-102500D01*
X-45083Y-104197D01*
X-44428Y-105778D01*
X-43386Y-107136D01*
X-42028Y-108177D01*
X-40447Y-108833D01*
X-38750Y-109056D01*
X-37053Y-108833D01*
X-35472Y-108177D01*
X-34114Y-107136D01*
X-33072Y-105778D01*
X-32417Y-104197D01*
X-32194Y-102500D01*
X-32417Y-100803D01*
X-33072Y-99222D01*
X-34114Y-97864D01*
X-35472Y-96822D01*
X-37053Y-96167D01*
X-38750Y-95944D01*
X-40447Y-96167D01*
X-40898Y-96354D01*
X-40614Y-96136D01*
X-39572Y-94778D01*
X-38917Y-93197D01*
X-38694Y-91500D01*
X-38917Y-89803D01*
X-39572Y-88222D01*
X-40614Y-86864D01*
X-41972Y-85822D01*
X-43553Y-85167D01*
X-45250Y-84944D01*
D02*
G37*
G36*
X-153650Y-77450D02*
X-164092D01*
X-163853Y-79269D01*
X-162668Y-82128D01*
X-160784Y-84584D01*
X-158328Y-86468D01*
X-155469Y-87653D01*
X-153650Y-87892D01*
Y-77450D01*
D02*
G37*
G36*
X-140708D02*
X-151150D01*
Y-87892D01*
X-149332Y-87653D01*
X-146472Y-86468D01*
X-144016Y-84584D01*
X-142132Y-82128D01*
X-140948Y-79269D01*
X-140708Y-77450D01*
D02*
G37*
G36*
X91000Y-28694D02*
X89303Y-28917D01*
X87722Y-29572D01*
X86364Y-30614D01*
X85322Y-31972D01*
X84667Y-33553D01*
X84444Y-35250D01*
X84452Y-35310D01*
X80506Y-39256D01*
X80506Y-39256D01*
X80506Y-39256D01*
X80506Y-39256D01*
X80178Y-39746D01*
X79511Y-40744D01*
X79511Y-40744D01*
X79511Y-40744D01*
X79352Y-41547D01*
X79162Y-42500D01*
Y-56500D01*
X79352Y-57453D01*
X79421Y-57803D01*
X78553Y-57917D01*
X76972Y-58572D01*
X75614Y-59614D01*
X74572Y-60972D01*
X73917Y-62553D01*
X73694Y-64250D01*
X73917Y-65947D01*
X74572Y-67528D01*
X75614Y-68886D01*
X76972Y-69928D01*
X78553Y-70583D01*
X80250Y-70806D01*
X81947Y-70583D01*
X83528Y-69928D01*
X84886Y-68886D01*
X85817Y-67673D01*
X86364Y-68386D01*
X87722Y-69428D01*
X89303Y-70083D01*
X91000Y-70306D01*
X92697Y-70083D01*
X94278Y-69428D01*
X95636Y-68386D01*
X96678Y-67028D01*
X97333Y-65447D01*
X97556Y-63750D01*
X97333Y-62053D01*
X96678Y-60472D01*
X95636Y-59114D01*
X94278Y-58072D01*
X92697Y-57417D01*
X91000Y-57194D01*
X90941Y-57202D01*
X88338Y-54600D01*
Y-44400D01*
X90941Y-41798D01*
X91000Y-41806D01*
X92697Y-41582D01*
X94278Y-40928D01*
X95636Y-39886D01*
X96678Y-38528D01*
X97333Y-36947D01*
X97556Y-35250D01*
X97333Y-33553D01*
X96678Y-31972D01*
X95636Y-30614D01*
X94278Y-29572D01*
X92697Y-28917D01*
X91000Y-28694D01*
D02*
G37*
G36*
X-90000Y-44444D02*
X-91697Y-44667D01*
X-93278Y-45322D01*
X-94636Y-46364D01*
X-95678Y-47722D01*
X-96333Y-49303D01*
X-96556Y-51000D01*
X-96333Y-52697D01*
X-95678Y-54278D01*
X-94636Y-55636D01*
X-93278Y-56677D01*
X-91697Y-57333D01*
X-90000Y-57556D01*
X-88303Y-57333D01*
X-86722Y-56677D01*
X-85364Y-55636D01*
X-84322Y-54278D01*
X-83667Y-52697D01*
X-83444Y-51000D01*
X-83667Y-49303D01*
X-84322Y-47722D01*
X-85364Y-46364D01*
X-86722Y-45322D01*
X-88303Y-44667D01*
X-90000Y-44444D01*
D02*
G37*
G36*
X-72500Y-46444D02*
X-74197Y-46667D01*
X-75778Y-47322D01*
X-77136Y-48364D01*
X-78178Y-49722D01*
X-78833Y-51303D01*
X-79056Y-53000D01*
X-78841Y-54633D01*
X-80253Y-54447D01*
X-81950Y-54670D01*
X-83531Y-55325D01*
X-84889Y-56367D01*
X-85931Y-57725D01*
X-86586Y-59306D01*
X-86809Y-61003D01*
X-86586Y-62700D01*
X-85931Y-64281D01*
X-84889Y-65639D01*
X-83531Y-66680D01*
X-81950Y-67336D01*
X-80253Y-67559D01*
X-78556Y-67336D01*
X-76975Y-66680D01*
X-75617Y-65639D01*
X-74575Y-64281D01*
X-73920Y-62700D01*
X-73697Y-61003D01*
X-73912Y-59370D01*
X-72500Y-59556D01*
X-70803Y-59332D01*
X-69222Y-58678D01*
X-67864Y-57636D01*
X-66822Y-56278D01*
X-66167Y-54697D01*
X-65944Y-53000D01*
X-66167Y-51303D01*
X-66822Y-49722D01*
X-67864Y-48364D01*
X-69222Y-47322D01*
X-70803Y-46667D01*
X-72500Y-46444D01*
D02*
G37*
G36*
X-153650Y-64508D02*
X-155469Y-64748D01*
X-158328Y-65932D01*
X-160784Y-67816D01*
X-162668Y-70272D01*
X-163853Y-73131D01*
X-164092Y-74950D01*
X-153650D01*
Y-64508D01*
D02*
G37*
G36*
X-151150D02*
Y-74950D01*
X-140708D01*
X-140948Y-73131D01*
X-142132Y-70272D01*
X-144016Y-67816D01*
X-146472Y-65932D01*
X-149332Y-64748D01*
X-151150Y-64508D01*
D02*
G37*
G36*
X-152400Y-38944D02*
X-155469Y-39348D01*
X-158328Y-40532D01*
X-160784Y-42416D01*
X-162668Y-44872D01*
X-163853Y-47731D01*
X-164257Y-50800D01*
X-163853Y-53869D01*
X-162668Y-56728D01*
X-160784Y-59184D01*
X-158328Y-61068D01*
X-155469Y-62253D01*
X-152400Y-62657D01*
X-149332Y-62253D01*
X-146472Y-61068D01*
X-144016Y-59184D01*
X-142132Y-56728D01*
X-140948Y-53869D01*
X-140544Y-50800D01*
X-140948Y-47731D01*
X-142132Y-44872D01*
X-144016Y-42416D01*
X-146472Y-40532D01*
X-149332Y-39348D01*
X-152400Y-38944D01*
D02*
G37*
G36*
X-39108Y-153650D02*
X-49550D01*
Y-164092D01*
X-47731Y-163853D01*
X-44872Y-162668D01*
X-42416Y-160784D01*
X-40532Y-158328D01*
X-39348Y-155469D01*
X-39108Y-153650D01*
D02*
G37*
G36*
X-152400Y-140544D02*
X-155469Y-140948D01*
X-158328Y-142132D01*
X-160784Y-144016D01*
X-162668Y-146472D01*
X-163853Y-149332D01*
X-164257Y-152400D01*
X-163853Y-155469D01*
X-162668Y-158328D01*
X-160784Y-160784D01*
X-158328Y-162668D01*
X-155469Y-163853D01*
X-152400Y-164257D01*
X-149332Y-163853D01*
X-146472Y-162668D01*
X-144016Y-160784D01*
X-142132Y-158328D01*
X-140948Y-155469D01*
X-140544Y-152400D01*
X-140948Y-149332D01*
X-142132Y-146472D01*
X-144016Y-144016D01*
X-146472Y-142132D01*
X-149332Y-140948D01*
X-152400Y-140544D01*
D02*
G37*
G36*
X-25400D02*
X-28469Y-140948D01*
X-31328Y-142132D01*
X-33784Y-144016D01*
X-35668Y-146472D01*
X-36853Y-149332D01*
X-37257Y-152400D01*
X-36853Y-155469D01*
X-35668Y-158328D01*
X-33784Y-160784D01*
X-31328Y-162668D01*
X-28469Y-163853D01*
X-25400Y-164257D01*
X-22332Y-163853D01*
X-19472Y-162668D01*
X-17016Y-160784D01*
X-15132Y-158328D01*
X-13948Y-155469D01*
X-13544Y-152400D01*
X-13948Y-149332D01*
X-15132Y-146472D01*
X-17016Y-144016D01*
X-19472Y-142132D01*
X-22332Y-140948D01*
X-25400Y-140544D01*
D02*
G37*
G36*
X-52050Y-153650D02*
X-62492D01*
X-62253Y-155469D01*
X-61068Y-158328D01*
X-59184Y-160784D01*
X-56728Y-162668D01*
X-53869Y-163853D01*
X-52050Y-164092D01*
Y-153650D01*
D02*
G37*
G36*
Y-140708D02*
X-53869Y-140948D01*
X-56728Y-142132D01*
X-59184Y-144016D01*
X-61068Y-146472D01*
X-62253Y-149332D01*
X-62492Y-151150D01*
X-52050D01*
Y-140708D01*
D02*
G37*
G36*
X-152400Y-89744D02*
X-155469Y-90148D01*
X-158328Y-91332D01*
X-160784Y-93216D01*
X-162668Y-95672D01*
X-163853Y-98532D01*
X-164257Y-101600D01*
X-163853Y-104669D01*
X-162668Y-107528D01*
X-160784Y-109984D01*
X-158328Y-111868D01*
X-155469Y-113053D01*
X-152400Y-113457D01*
X-149332Y-113053D01*
X-146472Y-111868D01*
X-144016Y-109984D01*
X-142132Y-107528D01*
X-140948Y-104669D01*
X-140544Y-101600D01*
X-140948Y-98532D01*
X-142132Y-95672D01*
X-144016Y-93216D01*
X-146472Y-91332D01*
X-149332Y-90148D01*
X-152400Y-89744D01*
D02*
G37*
G36*
X-87000Y-101194D02*
X-88697Y-101417D01*
X-90278Y-102072D01*
X-91636Y-103114D01*
X-92678Y-104472D01*
X-93037Y-105338D01*
X-94053Y-104917D01*
X-95750Y-104694D01*
X-97447Y-104917D01*
X-99028Y-105572D01*
X-100386Y-106614D01*
X-101428Y-107972D01*
X-102083Y-109553D01*
X-102306Y-111250D01*
X-102083Y-112947D01*
X-101428Y-114528D01*
X-100386Y-115886D01*
X-99028Y-116928D01*
X-97447Y-117583D01*
X-95750Y-117806D01*
X-95690Y-117798D01*
X-80788Y-132700D01*
Y-141577D01*
X-82128Y-142132D01*
X-84584Y-144016D01*
X-86468Y-146472D01*
X-87653Y-149332D01*
X-88057Y-152400D01*
X-87653Y-155469D01*
X-86468Y-158328D01*
X-84584Y-160784D01*
X-82128Y-162668D01*
X-79269Y-163853D01*
X-76200Y-164257D01*
X-73131Y-163853D01*
X-70272Y-162668D01*
X-67816Y-160784D01*
X-65932Y-158328D01*
X-64748Y-155469D01*
X-64344Y-152400D01*
X-64748Y-149332D01*
X-65932Y-146472D01*
X-67816Y-144016D01*
X-70272Y-142132D01*
X-71612Y-141577D01*
Y-130800D01*
X-71961Y-129044D01*
X-72956Y-127556D01*
X-86298Y-114214D01*
X-85303Y-114083D01*
X-83722Y-113428D01*
X-82364Y-112386D01*
X-81322Y-111028D01*
X-80667Y-109447D01*
X-80444Y-107750D01*
X-80667Y-106053D01*
X-81322Y-104472D01*
X-82364Y-103114D01*
X-83722Y-102072D01*
X-85303Y-101417D01*
X-87000Y-101194D01*
D02*
G37*
G36*
X59750Y-86194D02*
X58053Y-86417D01*
X56472Y-87072D01*
X55114Y-88114D01*
X54072Y-89472D01*
X53417Y-91053D01*
X53194Y-92750D01*
X53417Y-94447D01*
X54072Y-96028D01*
X55114Y-97386D01*
X56472Y-98427D01*
X58053Y-99082D01*
X59750Y-99306D01*
X61447Y-99082D01*
X63028Y-98427D01*
X64386Y-97386D01*
X65427Y-96028D01*
X66082Y-94447D01*
X66306Y-92750D01*
X66082Y-91053D01*
X65427Y-89472D01*
X64386Y-88114D01*
X63028Y-87072D01*
X61447Y-86417D01*
X59750Y-86194D01*
D02*
G37*
G36*
X-49550Y-140708D02*
Y-151150D01*
X-39108D01*
X-39348Y-149332D01*
X-40532Y-146472D01*
X-42416Y-144016D01*
X-44872Y-142132D01*
X-47731Y-140948D01*
X-49550Y-140708D01*
D02*
G37*
G36*
X-152400Y-115144D02*
X-155469Y-115548D01*
X-158328Y-116732D01*
X-160784Y-118616D01*
X-162668Y-121072D01*
X-163853Y-123932D01*
X-164257Y-127000D01*
X-163853Y-130069D01*
X-162668Y-132928D01*
X-160784Y-135384D01*
X-158328Y-137268D01*
X-155469Y-138453D01*
X-152400Y-138857D01*
X-149332Y-138453D01*
X-146472Y-137268D01*
X-144016Y-135384D01*
X-142132Y-132928D01*
X-140948Y-130069D01*
X-140544Y-127000D01*
X-140948Y-123932D01*
X-142132Y-121072D01*
X-144016Y-118616D01*
X-146472Y-116732D01*
X-149332Y-115548D01*
X-152400Y-115144D01*
D02*
G37*
G36*
X152400D02*
X149331Y-115548D01*
X146472Y-116732D01*
X144016Y-118616D01*
X142132Y-121072D01*
X140947Y-123932D01*
X140543Y-127000D01*
X140947Y-130069D01*
X142132Y-132928D01*
X144016Y-135384D01*
X146472Y-137268D01*
X149331Y-138453D01*
X152400Y-138857D01*
X155469Y-138453D01*
X158328Y-137268D01*
X160784Y-135384D01*
X162668Y-132928D01*
X163852Y-130069D01*
X164256Y-127000D01*
X163852Y-123932D01*
X162668Y-121072D01*
X160784Y-118616D01*
X158328Y-116732D01*
X155469Y-115548D01*
X152400Y-115144D01*
D02*
G37*
G36*
X-152400Y-13544D02*
X-155469Y-13948D01*
X-158328Y-15132D01*
X-160784Y-17016D01*
X-162668Y-19472D01*
X-163853Y-22332D01*
X-164257Y-25400D01*
X-163853Y-28469D01*
X-162668Y-31328D01*
X-160784Y-33784D01*
X-158328Y-35668D01*
X-155469Y-36853D01*
X-152400Y-37257D01*
X-149332Y-36853D01*
X-146472Y-35668D01*
X-144016Y-33784D01*
X-142132Y-31328D01*
X-140948Y-28469D01*
X-140544Y-25400D01*
X-140948Y-22332D01*
X-142132Y-19472D01*
X-144016Y-17016D01*
X-146472Y-15132D01*
X-149332Y-13948D01*
X-152400Y-13544D01*
D02*
G37*
G36*
X48100Y134357D02*
X45031Y133953D01*
X42172Y132768D01*
X39716Y130884D01*
X37832Y128428D01*
X36647Y125569D01*
X36243Y122500D01*
X36647Y119431D01*
X37832Y116572D01*
X39716Y114116D01*
X42172Y112232D01*
X45031Y111048D01*
X48100Y110644D01*
X51168Y111048D01*
X54028Y112232D01*
X56484Y114116D01*
X58368Y116572D01*
X59552Y119431D01*
X59956Y122500D01*
X59552Y125569D01*
X58368Y128428D01*
X56484Y130884D01*
X54028Y132768D01*
X51168Y133953D01*
X48100Y134357D01*
D02*
G37*
G36*
X73500D02*
X70431Y133953D01*
X67572Y132768D01*
X65116Y130884D01*
X63232Y128428D01*
X62047Y125569D01*
X61643Y122500D01*
X62047Y119431D01*
X63232Y116572D01*
X65116Y114116D01*
X67572Y112232D01*
X70431Y111048D01*
X73500Y110644D01*
X76568Y111048D01*
X79428Y112232D01*
X81884Y114116D01*
X83768Y116572D01*
X84952Y119431D01*
X85356Y122500D01*
X84952Y125569D01*
X83768Y128428D01*
X81884Y130884D01*
X79428Y132768D01*
X76568Y133953D01*
X73500Y134357D01*
D02*
G37*
G36*
X25400Y164256D02*
X22331Y163852D01*
X19472Y162668D01*
X17016Y160784D01*
X15132Y158328D01*
X13947Y155469D01*
X13543Y152400D01*
X13947Y149331D01*
X15132Y146472D01*
X17016Y144016D01*
X19472Y142132D01*
X22331Y140947D01*
X25400Y140543D01*
X28468Y140947D01*
X31328Y142132D01*
X33784Y144016D01*
X35668Y146472D01*
X36852Y149331D01*
X37256Y152400D01*
X36852Y155469D01*
X35668Y158328D01*
X33784Y160784D01*
X31328Y162668D01*
X28468Y163852D01*
X25400Y164256D01*
D02*
G37*
G36*
X-152400Y113456D02*
X-155469Y113052D01*
X-158328Y111868D01*
X-160784Y109984D01*
X-162668Y107528D01*
X-163853Y104669D01*
X-164257Y101600D01*
X-163853Y98531D01*
X-162668Y95672D01*
X-160784Y93216D01*
X-158328Y91332D01*
X-155469Y90147D01*
X-152400Y89743D01*
X-149332Y90147D01*
X-146472Y91332D01*
X-144016Y93216D01*
X-142132Y95672D01*
X-140948Y98531D01*
X-140544Y101600D01*
X-140948Y104669D01*
X-142132Y107528D01*
X-144016Y109984D01*
X-146472Y111868D01*
X-149332Y113052D01*
X-152400Y113456D01*
D02*
G37*
G36*
X89500Y109056D02*
X87803Y108833D01*
X86222Y108178D01*
X84864Y107136D01*
X83822Y105778D01*
X83167Y104197D01*
X82944Y102500D01*
X83167Y100803D01*
X83822Y99222D01*
X84864Y97864D01*
X86222Y96822D01*
X87803Y96167D01*
X89500Y95944D01*
X91197Y96167D01*
X92778Y96822D01*
X94136Y97864D01*
X95178Y99222D01*
X95833Y100803D01*
X96056Y102500D01*
X95833Y104197D01*
X95178Y105778D01*
X94136Y107136D01*
X92778Y108178D01*
X91197Y108833D01*
X89500Y109056D01*
D02*
G37*
G36*
X22700Y134357D02*
X19631Y133953D01*
X16772Y132768D01*
X14316Y130884D01*
X12432Y128428D01*
X11247Y125569D01*
X10843Y122500D01*
X11247Y119431D01*
X12432Y116572D01*
X14316Y114116D01*
X16772Y112232D01*
X19631Y111048D01*
X22700Y110644D01*
X25768Y111048D01*
X28628Y112232D01*
X31084Y114116D01*
X32968Y116572D01*
X34152Y119431D01*
X34556Y122500D01*
X34152Y125569D01*
X32968Y128428D01*
X31084Y130884D01*
X28628Y132768D01*
X25768Y133953D01*
X22700Y134357D01*
D02*
G37*
G36*
X76200Y164256D02*
X73131Y163852D01*
X70272Y162668D01*
X67816Y160784D01*
X65932Y158328D01*
X64747Y155469D01*
X64343Y152400D01*
X64747Y149331D01*
X65932Y146472D01*
X67816Y144016D01*
X70272Y142132D01*
X73131Y140947D01*
X76200Y140543D01*
X79268Y140947D01*
X82128Y142132D01*
X84584Y144016D01*
X86468Y146472D01*
X87652Y149331D01*
X88056Y152400D01*
X87652Y155469D01*
X86468Y158328D01*
X84584Y160784D01*
X82128Y162668D01*
X79268Y163852D01*
X76200Y164256D01*
D02*
G37*
G36*
X52050Y164092D02*
Y153650D01*
X62492D01*
X62252Y155469D01*
X61068Y158328D01*
X59184Y160784D01*
X56728Y162668D01*
X53868Y163852D01*
X52050Y164092D01*
D02*
G37*
G36*
X49550Y151150D02*
X39108D01*
X39347Y149331D01*
X40532Y146472D01*
X42416Y144016D01*
X44872Y142132D01*
X47731Y140947D01*
X49550Y140708D01*
Y151150D01*
D02*
G37*
G36*
X62492D02*
X52050D01*
Y140708D01*
X53868Y140947D01*
X56728Y142132D01*
X59184Y144016D01*
X61068Y146472D01*
X62252Y149331D01*
X62492Y151150D01*
D02*
G37*
G36*
X49550Y164092D02*
X47731Y163852D01*
X44872Y162668D01*
X42416Y160784D01*
X40532Y158328D01*
X39347Y155469D01*
X39108Y153650D01*
X49550D01*
Y164092D01*
D02*
G37*
G36*
X-176550Y87892D02*
Y77450D01*
X-166108D01*
X-166348Y79268D01*
X-167532Y82128D01*
X-169416Y84584D01*
X-171872Y86468D01*
X-174732Y87652D01*
X-176550Y87892D01*
D02*
G37*
G36*
X-152400Y11856D02*
X-155469Y11452D01*
X-158328Y10268D01*
X-160784Y8384D01*
X-162668Y5928D01*
X-163853Y3068D01*
X-164257Y-0D01*
X-163853Y-3069D01*
X-162668Y-5928D01*
X-160784Y-8384D01*
X-158328Y-10268D01*
X-155469Y-11453D01*
X-152400Y-11857D01*
X-149332Y-11453D01*
X-146472Y-10268D01*
X-144016Y-8384D01*
X-142132Y-5928D01*
X-140948Y-3069D01*
X-140544Y-0D01*
X-140948Y3068D01*
X-142132Y5928D01*
X-144016Y8384D01*
X-146472Y10268D01*
X-149332Y11452D01*
X-152400Y11856D01*
D02*
G37*
G36*
X-55000Y12306D02*
X-56697Y12083D01*
X-58278Y11428D01*
X-59636Y10386D01*
X-60678Y9028D01*
X-61333Y7447D01*
X-61556Y5750D01*
X-61333Y4053D01*
X-60678Y2472D01*
X-59636Y1114D01*
X-58278Y72D01*
X-56697Y-583D01*
X-55000Y-806D01*
X-53303Y-583D01*
X-51722Y72D01*
X-50364Y1114D01*
X-49322Y2472D01*
X-48667Y4053D01*
X-48444Y5750D01*
X-48667Y7447D01*
X-49322Y9028D01*
X-50364Y10386D01*
X-51722Y11428D01*
X-53303Y12083D01*
X-55000Y12306D01*
D02*
G37*
G36*
X51000Y4806D02*
X49303Y4583D01*
X47722Y3928D01*
X46364Y2886D01*
X45322Y1528D01*
X45292Y1455D01*
X44386Y2636D01*
X43028Y3678D01*
X41447Y4333D01*
X39750Y4556D01*
X38053Y4333D01*
X36472Y3678D01*
X35114Y2636D01*
X34072Y1278D01*
X33417Y-303D01*
X33194Y-2000D01*
X33417Y-3697D01*
X34072Y-5278D01*
X35114Y-6636D01*
X36472Y-7678D01*
X38053Y-8333D01*
X39750Y-8556D01*
X41447Y-8333D01*
X43028Y-7678D01*
X44386Y-6636D01*
X45428Y-5278D01*
X45458Y-5205D01*
X46364Y-6386D01*
X47722Y-7428D01*
X49303Y-8083D01*
X51000Y-8306D01*
X52697Y-8083D01*
X54278Y-7428D01*
X55636Y-6386D01*
X56678Y-5028D01*
X57333Y-3447D01*
X57556Y-1750D01*
X57333Y-53D01*
X56678Y1528D01*
X55636Y2886D01*
X54278Y3928D01*
X52697Y4583D01*
X51000Y4806D01*
D02*
G37*
G36*
X-90500Y-22944D02*
X-92197Y-23168D01*
X-93778Y-23823D01*
X-95136Y-24864D01*
X-96178Y-26222D01*
X-96833Y-27803D01*
X-97056Y-29500D01*
X-96833Y-31197D01*
X-96178Y-32778D01*
X-95136Y-34136D01*
X-93778Y-35178D01*
X-92197Y-35833D01*
X-90500Y-36056D01*
X-88803Y-35833D01*
X-87222Y-35178D01*
X-85864Y-34136D01*
X-84822Y-32778D01*
X-84167Y-31197D01*
X-83944Y-29500D01*
X-84167Y-27803D01*
X-84822Y-26222D01*
X-85864Y-24864D01*
X-87222Y-23823D01*
X-88803Y-23168D01*
X-90500Y-22944D01*
D02*
G37*
G36*
X42250Y-8444D02*
X40553Y-8667D01*
X38972Y-9322D01*
X37614Y-10364D01*
X36572Y-11722D01*
X35917Y-13303D01*
X35694Y-15000D01*
X35917Y-16697D01*
X36572Y-18278D01*
X37614Y-19636D01*
X38972Y-20678D01*
X40553Y-21333D01*
X42250Y-21556D01*
X43947Y-21333D01*
X45528Y-20678D01*
X46886Y-19636D01*
X47091Y-19368D01*
X47167Y-19947D01*
X47822Y-21528D01*
X48864Y-22886D01*
X50222Y-23928D01*
X51803Y-24583D01*
X53500Y-24806D01*
X55197Y-24583D01*
X56778Y-23928D01*
X58136Y-22886D01*
X59178Y-21528D01*
X59293Y-21250D01*
X59194Y-22000D01*
X59418Y-23697D01*
X60072Y-25278D01*
X61114Y-26636D01*
X62472Y-27678D01*
X64053Y-28333D01*
X65750Y-28556D01*
X67447Y-28333D01*
X69028Y-27678D01*
X70386Y-26636D01*
X71428Y-25278D01*
X72083Y-23697D01*
X72306Y-22000D01*
X72083Y-20303D01*
X71428Y-18722D01*
X70386Y-17364D01*
X69028Y-16322D01*
X67447Y-15667D01*
X65750Y-15444D01*
X64053Y-15667D01*
X62472Y-16322D01*
X61114Y-17364D01*
X60072Y-18722D01*
X59957Y-19000D01*
X60056Y-18250D01*
X59833Y-16553D01*
X59178Y-14972D01*
X58136Y-13614D01*
X56778Y-12572D01*
X55197Y-11917D01*
X53500Y-11694D01*
X51803Y-11917D01*
X50222Y-12572D01*
X48864Y-13614D01*
X48659Y-13882D01*
X48583Y-13303D01*
X47928Y-11722D01*
X46886Y-10364D01*
X45528Y-9322D01*
X43947Y-8667D01*
X42250Y-8444D01*
D02*
G37*
G36*
X0Y-11694D02*
X-1697Y-11917D01*
X-3278Y-12572D01*
X-4636Y-13614D01*
X-5678Y-14972D01*
X-6333Y-16553D01*
X-6556Y-18250D01*
X-6379Y-19593D01*
X-6803Y-19417D01*
X-8500Y-19194D01*
X-10197Y-19417D01*
X-11778Y-20072D01*
X-13136Y-21114D01*
X-14178Y-22472D01*
X-14833Y-24053D01*
X-15056Y-25750D01*
X-14833Y-27447D01*
X-14178Y-29028D01*
X-13136Y-30386D01*
X-11778Y-31428D01*
X-10197Y-32083D01*
X-8500Y-32306D01*
X-6803Y-32083D01*
X-5222Y-31428D01*
X-3864Y-30386D01*
X-2822Y-29028D01*
X-2167Y-27447D01*
X-1944Y-25750D01*
X-2121Y-24407D01*
X-1697Y-24583D01*
X0Y-24806D01*
X1697Y-24583D01*
X3278Y-23928D01*
X4636Y-22886D01*
X5678Y-21528D01*
X6333Y-19947D01*
X6556Y-18250D01*
X6333Y-16553D01*
X5678Y-14972D01*
X4636Y-13614D01*
X3278Y-12572D01*
X1697Y-11917D01*
X0Y-11694D01*
D02*
G37*
G36*
X-92000Y17056D02*
X-93697Y16833D01*
X-95278Y16178D01*
X-96636Y15136D01*
X-97678Y13778D01*
X-98333Y12197D01*
X-98556Y10500D01*
X-98333Y8803D01*
X-97678Y7222D01*
X-96636Y5864D01*
X-95278Y4823D01*
X-93697Y4168D01*
X-92000Y3944D01*
X-90303Y4168D01*
X-88722Y4823D01*
X-87364Y5864D01*
X-86322Y7222D01*
X-85667Y8803D01*
X-85444Y10500D01*
X-85667Y12197D01*
X-86322Y13778D01*
X-87364Y15136D01*
X-88722Y16178D01*
X-90303Y16833D01*
X-92000Y17056D01*
D02*
G37*
G36*
X-152400Y88056D02*
X-155469Y87652D01*
X-158328Y86468D01*
X-160784Y84584D01*
X-162668Y82128D01*
X-163853Y79268D01*
X-164257Y76200D01*
X-163853Y73131D01*
X-162668Y70272D01*
X-160784Y67816D01*
X-158328Y65932D01*
X-155469Y64747D01*
X-152400Y64343D01*
X-149332Y64747D01*
X-146472Y65932D01*
X-144016Y67816D01*
X-142132Y70272D01*
X-140948Y73131D01*
X-140544Y76200D01*
X-140948Y79268D01*
X-142132Y82128D01*
X-144016Y84584D01*
X-146472Y86468D01*
X-149332Y87652D01*
X-152400Y88056D01*
D02*
G37*
G36*
X-166108Y74950D02*
X-176550D01*
Y64508D01*
X-174732Y64747D01*
X-171872Y65932D01*
X-169416Y67816D01*
X-167532Y70272D01*
X-166348Y73131D01*
X-166108Y74950D01*
D02*
G37*
G36*
X21000Y81056D02*
X19303Y80833D01*
X17722Y80178D01*
X16364Y79136D01*
X15322Y77778D01*
X14667Y76197D01*
X14444Y74500D01*
X14667Y72803D01*
X15322Y71222D01*
X16364Y69864D01*
X17722Y68822D01*
X19303Y68167D01*
X21000Y67944D01*
X22697Y68167D01*
X24278Y68822D01*
X25636Y69864D01*
X26678Y71222D01*
X27333Y72803D01*
X27556Y74500D01*
X27333Y76197D01*
X26678Y77778D01*
X25636Y79136D01*
X24278Y80178D01*
X22697Y80833D01*
X21000Y81056D01*
D02*
G37*
G36*
X-152400Y37256D02*
X-155469Y36852D01*
X-158328Y35668D01*
X-160784Y33784D01*
X-162668Y31328D01*
X-163853Y28468D01*
X-164257Y25400D01*
X-163853Y22331D01*
X-162668Y19472D01*
X-160784Y17016D01*
X-158328Y15132D01*
X-155469Y13947D01*
X-152400Y13543D01*
X-149332Y13947D01*
X-146472Y15132D01*
X-144016Y17016D01*
X-142132Y19472D01*
X-140948Y22331D01*
X-140544Y25400D01*
X-140948Y28468D01*
X-142132Y31328D01*
X-144016Y33784D01*
X-146472Y35668D01*
X-149332Y36852D01*
X-152400Y37256D01*
D02*
G37*
G36*
X79973Y31556D02*
X78276Y31333D01*
X76694Y30678D01*
X75337Y29636D01*
X74295Y28278D01*
X73640Y26697D01*
X73624Y26576D01*
X73386Y26886D01*
X72028Y27928D01*
X70447Y28583D01*
X68750Y28806D01*
X67053Y28583D01*
X65472Y27928D01*
X64114Y26886D01*
X63072Y25528D01*
X62772Y24802D01*
X62697Y24833D01*
X61000Y25056D01*
X59303Y24833D01*
X57722Y24178D01*
X56364Y23136D01*
X55322Y21778D01*
X54667Y20197D01*
X54448Y18530D01*
X54250Y18556D01*
X52553Y18333D01*
X50972Y17678D01*
X49614Y16636D01*
X48572Y15278D01*
X47917Y13697D01*
X47694Y12000D01*
X47917Y10303D01*
X48572Y8722D01*
X49614Y7364D01*
X50972Y6322D01*
X52553Y5667D01*
X54250Y5444D01*
X55947Y5667D01*
X57528Y6322D01*
X58886Y7364D01*
X59928Y8722D01*
X60583Y10303D01*
X60802Y11970D01*
X61000Y11944D01*
X62697Y12167D01*
X63303Y12419D01*
X63417Y11553D01*
X64072Y9972D01*
X65114Y8614D01*
X66472Y7572D01*
X68053Y6917D01*
X69750Y6694D01*
X71447Y6917D01*
X73028Y7572D01*
X74386Y8614D01*
X75428Y9972D01*
X76083Y11553D01*
X76306Y13250D01*
X76083Y14947D01*
X75428Y16528D01*
X74386Y17886D01*
X73888Y18268D01*
X74428Y18972D01*
X75083Y20553D01*
X75099Y20674D01*
X75337Y20364D01*
X76694Y19322D01*
X78276Y18667D01*
X79973Y18444D01*
X81669Y18667D01*
X83251Y19322D01*
X84608Y20364D01*
X85650Y21722D01*
X86305Y23303D01*
X86529Y25000D01*
X86305Y26697D01*
X85650Y28278D01*
X84608Y29636D01*
X83251Y30678D01*
X81669Y31333D01*
X79973Y31556D01*
D02*
G37*
G36*
X-152400Y62656D02*
X-155469Y62252D01*
X-158328Y61068D01*
X-160784Y59184D01*
X-162668Y56728D01*
X-163853Y53868D01*
X-164257Y50800D01*
X-163853Y47731D01*
X-162668Y44872D01*
X-160784Y42416D01*
X-158328Y40532D01*
X-155469Y39347D01*
X-152400Y38943D01*
X-149332Y39347D01*
X-146472Y40532D01*
X-144016Y42416D01*
X-142132Y44872D01*
X-140948Y47731D01*
X-140544Y50800D01*
X-140948Y53868D01*
X-142132Y56728D01*
X-144016Y59184D01*
X-146472Y61068D01*
X-149332Y62252D01*
X-152400Y62656D01*
D02*
G37*
G36*
X-102850Y176550D02*
X-113292D01*
X-113053Y174731D01*
X-111868Y171872D01*
X-109984Y169416D01*
X-107528Y167532D01*
X-104669Y166347D01*
X-102850Y166108D01*
Y176550D01*
D02*
G37*
G36*
X-89908D02*
X-100350D01*
Y166108D01*
X-98532Y166347D01*
X-95672Y167532D01*
X-93216Y169416D01*
X-91332Y171872D01*
X-90148Y174731D01*
X-89908Y176550D01*
D02*
G37*
%LPD*%
D13*
X-95750Y-111250D02*
X-76200Y-130800D01*
Y-152400D02*
Y-130800D01*
X127250Y-81750D02*
X137500Y-71500D01*
X89500Y-81750D02*
X127250D01*
X137500Y-71500D02*
Y105500D01*
X124750Y-77250D02*
X133000Y-69000D01*
X87000Y-77250D02*
X124750D01*
X133000Y-69000D02*
Y108000D01*
X136100Y111100D01*
X140500Y108500D02*
Y133750D01*
X78250Y-86000D02*
X87000Y-77250D01*
X-26500Y-101000D02*
Y-89250D01*
X-25400Y177800D02*
X-12750Y165150D01*
Y136250D02*
Y165150D01*
X-15250Y133750D02*
X-12750Y136250D01*
X-15250Y108000D02*
Y133750D01*
X-24000Y99250D02*
X-15250Y108000D01*
X-24000Y-2500D02*
Y99250D01*
X-46850Y21900D02*
Y60100D01*
X-47000Y21750D02*
X-46850Y21900D01*
X-66250Y79500D02*
X-46850Y60100D01*
X-50800Y177800D02*
X-38000Y165000D01*
Y136250D02*
Y165000D01*
X-40750Y133500D02*
X-38000Y136250D01*
X-40750Y113500D02*
Y133500D01*
X-50250Y104000D02*
X-40750Y113500D01*
X-50250Y71000D02*
Y104000D01*
Y71000D02*
X-40600Y61350D01*
X-66250Y79500D02*
Y142450D01*
X-40600Y14150D02*
Y61350D01*
X-41000Y13750D02*
X-40600Y14150D01*
X-76200Y152400D02*
X-66250Y142450D01*
X-88750Y165250D02*
X-76200Y177800D01*
X-88750Y136500D02*
Y165250D01*
X-91250Y134000D02*
X-88750Y136500D01*
X-91250Y91250D02*
Y134000D01*
Y91250D02*
X-69500Y69500D01*
Y52000D02*
Y69500D01*
Y52000D02*
X-66250Y48750D01*
Y28750D02*
Y48750D01*
X-127000Y177800D02*
X-114250Y165050D01*
Y142750D02*
Y165050D01*
X-120750Y136250D02*
X-114250Y142750D01*
X-120750Y110000D02*
Y136250D01*
Y110000D02*
X-75500Y64750D01*
Y45000D02*
Y64750D01*
Y45000D02*
X-72750Y42250D01*
X-127000Y109500D02*
Y152400D01*
Y109500D02*
X-80250Y62750D01*
Y35500D02*
Y62750D01*
X-152400Y177800D02*
X-139500Y164900D01*
Y111750D02*
Y164900D01*
Y111750D02*
X-89250Y61500D01*
X101600Y177800D02*
X114500Y164900D01*
Y136250D02*
Y164900D01*
X111500Y133250D02*
X114500Y136250D01*
X111500Y114750D02*
Y133250D01*
X105000Y108250D02*
X111500Y114750D01*
X83750Y-56500D02*
X91000Y-63750D01*
X83750Y-56500D02*
Y-42500D01*
X91000Y-35250D01*
X78250Y-101000D02*
Y-86000D01*
X84750Y-86500D02*
X89500Y-81750D01*
X84750Y-94000D02*
Y-86500D01*
X92000Y-89000D02*
X159750D01*
X165000Y-83750D01*
X137500Y105500D02*
X140500Y108500D01*
X136100Y111100D02*
Y136100D01*
X152400Y152400D01*
X140500Y133750D02*
X146500Y139750D01*
X165049D02*
X177800Y127000D01*
X146500Y139750D02*
X165049D01*
X165000Y-83750D02*
Y114400D01*
X152400Y127000D02*
X165000Y114400D01*
X-127000Y-177800D02*
X-114250Y-165050D01*
Y-112000D01*
X-87500Y-85250D01*
X-75000D01*
X63650Y-165250D02*
X76200Y-177800D01*
X87450Y-138250D02*
X101600Y-152400D01*
X-10250Y-93250D02*
X1000Y-104500D01*
X-17250Y-93250D02*
X-10250D01*
X1000Y-117750D02*
Y-104500D01*
Y-117750D02*
X21500Y-138250D01*
X87450D01*
X-26500Y-101000D02*
X12500Y-140000D01*
Y-160250D02*
Y-140000D01*
Y-160250D02*
X17500Y-165250D01*
X63650D01*
X165250D02*
X177800Y-177800D01*
X120750Y-165250D02*
X165250D01*
X114250Y-158750D02*
X120750Y-165250D01*
X114250Y-158750D02*
Y-145000D01*
X102250Y-133000D02*
X114250Y-145000D01*
X24250Y-133000D02*
X102250D01*
X6500Y-115250D02*
X24250Y-133000D01*
X6500Y-115250D02*
Y-100500D01*
X-2250Y-91750D02*
X6500Y-100500D01*
D14*
X-193040Y181610D02*
X-181610Y193040D01*
X193040D01*
Y-193040D02*
Y193040D01*
X-193040Y-193040D02*
X193040D01*
X-193040D02*
Y181610D01*
D15*
X177800Y-177800D02*
D03*
Y127000D02*
D03*
X152400Y-177800D02*
D03*
Y-76200D02*
D03*
Y-25400D02*
D03*
Y127000D02*
D03*
X101600Y-152400D02*
D03*
Y177800D02*
D03*
X76200Y-177800D02*
D03*
Y-152400D02*
D03*
X50800Y152400D02*
D03*
X-25400Y177800D02*
D03*
X-50800Y-152400D02*
D03*
Y177800D02*
D03*
X-76200Y-152400D02*
D03*
Y152400D02*
D03*
Y177800D02*
D03*
X-101600D02*
D03*
X-127000Y-177800D02*
D03*
Y152400D02*
D03*
Y177800D02*
D03*
X-152400Y-76200D02*
D03*
Y177800D02*
D03*
X-177800Y76200D02*
D03*
X152400Y152400D02*
D03*
X124300Y122500D02*
D03*
D17*
X-94500Y-135750D02*
D03*
X-24000Y-2500D02*
D03*
X-41000Y13750D02*
D03*
X-47000Y21750D02*
D03*
X-66250Y28750D02*
D03*
X-80250Y35500D02*
D03*
X-72750Y42250D02*
D03*
X-89250Y61500D02*
D03*
X105000Y108250D02*
D03*
X98000Y103000D02*
D03*
X89750Y111000D02*
D03*
X78250Y-101000D02*
D03*
X84750Y-94000D02*
D03*
X92000Y-89000D02*
D03*
X120500Y-64000D02*
D03*
X91250Y-26500D02*
D03*
X91000Y-35250D02*
D03*
X-75000Y-85250D02*
D03*
X-95750Y-111250D02*
D03*
X-35000Y-94250D02*
D03*
X-65500Y-78000D02*
D03*
X-90500Y-41500D02*
D03*
X-123750Y2750D02*
D03*
X-91250Y35250D02*
D03*
X-42500Y74000D02*
D03*
X-26500Y-89250D02*
D03*
X-17250Y-93250D02*
D03*
X-2250Y-91750D02*
D03*
X25250Y-98250D02*
D03*
X54250Y-101000D02*
D03*
X97000Y-123000D02*
D03*
X91000Y-63750D02*
D03*
X91500Y-49250D02*
D03*
X9500Y74500D02*
D03*
X89254Y25251D02*
D03*
M02*
