G04 Layer_Physical_Order=2*
G04 Layer_Color=36540*
%FSLAX44Y44*%
%MOMM*%
G71*
G01*
G75*
%ADD13C,0.2000*%
%ADD14C,0.3500*%
%ADD15C,1.6510*%
%ADD17C,0.6000*%
G36*
X142132Y-121072D02*
X140947Y-123932D01*
X140621Y-126412D01*
X69400D01*
X61826Y-118838D01*
X143846D01*
X142132Y-121072D01*
D02*
G37*
G36*
X37173Y-107162D02*
X26390D01*
X26582Y-106697D01*
X26806Y-105000D01*
X26582Y-103303D01*
X25927Y-101722D01*
X24885Y-100364D01*
X23528Y-99323D01*
X22500Y-98897D01*
X22583Y-98697D01*
X22806Y-97000D01*
X22798Y-96940D01*
X23650Y-96088D01*
X26099D01*
X37173Y-107162D01*
D02*
G37*
G36*
X-102083Y-109553D02*
X-102306Y-111250D01*
X-102083Y-112947D01*
X-101428Y-114528D01*
X-100386Y-115886D01*
X-99028Y-116928D01*
X-97447Y-117583D01*
X-95750Y-117806D01*
X-94053Y-117583D01*
X-92472Y-116928D01*
X-91114Y-115886D01*
X-90072Y-114528D01*
X-89713Y-113662D01*
X-88697Y-114083D01*
X-87000Y-114306D01*
X-85303Y-114083D01*
X-84838Y-113890D01*
Y-129149D01*
X-97191Y-141503D01*
X-98532Y-140948D01*
X-101600Y-140544D01*
X-104669Y-140948D01*
X-107528Y-142132D01*
X-109984Y-144016D01*
X-111868Y-146472D01*
X-113053Y-149332D01*
X-113457Y-152400D01*
X-113053Y-155469D01*
X-111868Y-158328D01*
X-109984Y-160784D01*
X-107528Y-162668D01*
X-104669Y-163853D01*
X-101600Y-164257D01*
X-98532Y-163853D01*
X-95672Y-162668D01*
X-93588Y-161069D01*
Y-163299D01*
X-97191Y-166903D01*
X-98532Y-166348D01*
X-101600Y-165944D01*
X-104669Y-166348D01*
X-107528Y-167532D01*
X-109984Y-169416D01*
X-111868Y-171872D01*
X-113053Y-174732D01*
X-113457Y-177800D01*
X-113053Y-180869D01*
X-111868Y-183728D01*
X-110892Y-185000D01*
X-117708D01*
X-116732Y-183728D01*
X-115548Y-180869D01*
X-115144Y-177800D01*
X-115548Y-174732D01*
X-116732Y-171872D01*
X-118616Y-169416D01*
X-121072Y-167532D01*
X-123932Y-166348D01*
X-127000Y-165944D01*
X-130069Y-166348D01*
X-132928Y-167532D01*
X-135384Y-169416D01*
X-137268Y-171872D01*
X-138453Y-174732D01*
X-138857Y-177800D01*
X-138453Y-180869D01*
X-137268Y-183728D01*
X-136292Y-185000D01*
X-143108D01*
X-142132Y-183728D01*
X-140948Y-180869D01*
X-140544Y-177800D01*
X-140948Y-174732D01*
X-141503Y-173391D01*
X-136256Y-168144D01*
X-135261Y-166656D01*
X-134912Y-164900D01*
Y-161146D01*
X-132928Y-162668D01*
X-130069Y-163853D01*
X-127000Y-164257D01*
X-123932Y-163853D01*
X-121072Y-162668D01*
X-118616Y-160784D01*
X-116732Y-158328D01*
X-115548Y-155469D01*
X-115144Y-152400D01*
X-115548Y-149332D01*
X-116732Y-146472D01*
X-118616Y-144016D01*
X-121072Y-142132D01*
X-123932Y-140948D01*
X-127000Y-140544D01*
X-127352Y-140590D01*
X-125756Y-138994D01*
X-124761Y-137506D01*
X-124412Y-135750D01*
Y-131650D01*
X-101919Y-109157D01*
X-102083Y-109553D01*
D02*
G37*
G36*
X160662Y-139851D02*
X161011Y-141606D01*
X162006Y-143095D01*
X166903Y-147991D01*
X166347Y-149332D01*
X165943Y-152400D01*
X166347Y-155469D01*
X167532Y-158328D01*
X169416Y-160784D01*
X171872Y-162668D01*
X174731Y-163853D01*
X177800Y-164257D01*
X180868Y-163853D01*
X183728Y-162668D01*
X185000Y-161692D01*
Y-168508D01*
X183728Y-167532D01*
X180868Y-166348D01*
X177800Y-165944D01*
X174731Y-166348D01*
X171872Y-167532D01*
X169416Y-169416D01*
X167532Y-171872D01*
X166347Y-174732D01*
X165943Y-177800D01*
X166347Y-180869D01*
X167532Y-183728D01*
X168508Y-185000D01*
X161692D01*
X162668Y-183728D01*
X163852Y-180869D01*
X164092Y-179050D01*
X140708D01*
X140947Y-180869D01*
X142132Y-183728D01*
X143108Y-185000D01*
X136292D01*
X137268Y-183728D01*
X138452Y-180869D01*
X138856Y-177800D01*
X138452Y-174732D01*
X137268Y-171872D01*
X135384Y-169416D01*
X132928Y-167532D01*
X130069Y-166348D01*
X127000Y-165944D01*
X123931Y-166348D01*
X121072Y-167532D01*
X118616Y-169416D01*
X116732Y-171872D01*
X115547Y-174732D01*
X115143Y-177800D01*
X115547Y-180869D01*
X116732Y-183728D01*
X117708Y-185000D01*
X110892D01*
X111868Y-183728D01*
X113052Y-180869D01*
X113456Y-177800D01*
X113052Y-174732D01*
X111868Y-171872D01*
X109984Y-169416D01*
X107528Y-167532D01*
X104669Y-166348D01*
X101600Y-165944D01*
X98531Y-166348D01*
X97191Y-166903D01*
X92294Y-162006D01*
X90806Y-161011D01*
X89050Y-160662D01*
X84677D01*
X86468Y-158328D01*
X87652Y-155469D01*
X87892Y-153650D01*
X76200D01*
Y-151150D01*
X87892D01*
X87652Y-149332D01*
X86468Y-146472D01*
X84584Y-144016D01*
X83048Y-142838D01*
X94752D01*
X93216Y-144016D01*
X91332Y-146472D01*
X90147Y-149332D01*
X89743Y-152400D01*
X90147Y-155469D01*
X91332Y-158328D01*
X93216Y-160784D01*
X95672Y-162668D01*
X98531Y-163853D01*
X101600Y-164257D01*
X104669Y-163853D01*
X107528Y-162668D01*
X109984Y-160784D01*
X111868Y-158328D01*
X113052Y-155469D01*
X113456Y-152400D01*
X113052Y-149332D01*
X111868Y-146472D01*
X109984Y-144016D01*
X108448Y-142838D01*
X110949D01*
X116103Y-147991D01*
X115547Y-149332D01*
X115143Y-152400D01*
X115547Y-155469D01*
X116732Y-158328D01*
X118616Y-160784D01*
X121072Y-162668D01*
X123931Y-163853D01*
X127000Y-164257D01*
X130069Y-163853D01*
X132928Y-162668D01*
X135384Y-160784D01*
X137268Y-158328D01*
X138452Y-155469D01*
X138856Y-152400D01*
X138452Y-149332D01*
X137268Y-146472D01*
X135384Y-144016D01*
X132928Y-142132D01*
X130069Y-140948D01*
X127000Y-140544D01*
X123931Y-140948D01*
X122591Y-141503D01*
X116677Y-135588D01*
X144282D01*
X146472Y-137268D01*
X149331Y-138453D01*
X152400Y-138857D01*
X155469Y-138453D01*
X158328Y-137268D01*
X160662Y-135477D01*
Y-139851D01*
D02*
G37*
G36*
X185000Y-66908D02*
X183728Y-65932D01*
X180868Y-64748D01*
X177800Y-64344D01*
X174731Y-64748D01*
X171872Y-65932D01*
X169416Y-67816D01*
X167532Y-70272D01*
X166347Y-73131D01*
X165943Y-76200D01*
X166347Y-79269D01*
X166903Y-80609D01*
X163099Y-84412D01*
X160915D01*
X162668Y-82128D01*
X163852Y-79269D01*
X164092Y-77450D01*
X152400D01*
Y-74950D01*
X164092D01*
X163852Y-73131D01*
X162668Y-70272D01*
X160992Y-68088D01*
X165100D01*
X166856Y-67739D01*
X168344Y-66744D01*
X173391Y-61698D01*
X174731Y-62253D01*
X177800Y-62657D01*
X180868Y-62253D01*
X183728Y-61068D01*
X185000Y-60092D01*
Y-66908D01*
D02*
G37*
G36*
X70431Y111048D02*
X73500Y110644D01*
X76568Y111048D01*
X77662Y111501D01*
Y99750D01*
X78011Y97994D01*
X79006Y96506D01*
X110162Y65349D01*
Y40150D01*
X87850Y17838D01*
X74422D01*
X74386Y17886D01*
X73888Y18268D01*
X74428Y18972D01*
X75083Y20553D01*
X75099Y20674D01*
X75337Y20364D01*
X76694Y19322D01*
X78276Y18667D01*
X79973Y18444D01*
X81669Y18667D01*
X83251Y19322D01*
X84608Y20364D01*
X85650Y21722D01*
X86305Y23303D01*
X86529Y25000D01*
X86305Y26697D01*
X85650Y28278D01*
X84608Y29636D01*
X83251Y30678D01*
X81669Y31333D01*
X79973Y31556D01*
X78276Y31333D01*
X76694Y30678D01*
X75337Y29636D01*
X74295Y28278D01*
X73640Y26697D01*
X73624Y26576D01*
X73386Y26886D01*
X73338Y26922D01*
Y105500D01*
X72989Y107256D01*
X71994Y108744D01*
X69167Y111571D01*
X70431Y111048D01*
D02*
G37*
G36*
X54072Y-96028D02*
X55114Y-97386D01*
X56062Y-98113D01*
Y-105150D01*
X56229Y-105990D01*
X47212Y-96973D01*
X48528Y-96427D01*
X49886Y-95386D01*
X49922Y-95338D01*
X51750D01*
X52915Y-95106D01*
X53506Y-94989D01*
X53506Y-94989D01*
X53506D01*
X53612Y-94917D01*
X54072Y-96028D01*
D02*
G37*
G36*
X90516Y114116D02*
X92972Y112232D01*
X95831Y111048D01*
X98900Y110644D01*
X98959Y110652D01*
X98667Y109947D01*
X98444Y108250D01*
X98667Y106553D01*
X99322Y104972D01*
X100364Y103614D01*
X100412Y103578D01*
Y101777D01*
X100761Y100022D01*
X101756Y98533D01*
X115912Y84377D01*
Y72577D01*
X91992Y96497D01*
X92778Y96822D01*
X94136Y97864D01*
X95178Y99222D01*
X95833Y100803D01*
X96056Y102500D01*
X95833Y104197D01*
X95178Y105778D01*
X94136Y107136D01*
X92778Y108178D01*
X91197Y108833D01*
X89500Y109056D01*
X87803Y108833D01*
X86838Y108433D01*
Y111100D01*
X89494Y113756D01*
X90099Y114660D01*
X90516Y114116D01*
D02*
G37*
G36*
X-68489Y-118756D02*
X-67494Y-120245D01*
X-46126Y-141613D01*
X-47731Y-140948D01*
X-49550Y-140708D01*
Y-151150D01*
X-39108D01*
X-39348Y-149332D01*
X-40532Y-146472D01*
X-42416Y-144016D01*
X-43580Y-143124D01*
X-42500Y-143338D01*
X-32900D01*
X-33784Y-144016D01*
X-35668Y-146472D01*
X-36853Y-149332D01*
X-37257Y-152400D01*
X-36853Y-155469D01*
X-35668Y-158328D01*
X-33784Y-160784D01*
X-31328Y-162668D01*
X-28469Y-163853D01*
X-25400Y-164257D01*
X-22332Y-163853D01*
X-19472Y-162668D01*
X-17588Y-161222D01*
Y-164800D01*
X-17239Y-166556D01*
X-16244Y-168045D01*
X-10898Y-173391D01*
X-11453Y-174732D01*
X-11857Y-177800D01*
X-11453Y-180869D01*
X-10268Y-183728D01*
X-9292Y-185000D01*
X-16108D01*
X-15132Y-183728D01*
X-13948Y-180869D01*
X-13544Y-177800D01*
X-13948Y-174732D01*
X-15132Y-171872D01*
X-17016Y-169416D01*
X-19472Y-167532D01*
X-22332Y-166348D01*
X-25400Y-165944D01*
X-28469Y-166348D01*
X-31328Y-167532D01*
X-33784Y-169416D01*
X-35668Y-171872D01*
X-36853Y-174732D01*
X-37257Y-177800D01*
X-36853Y-180869D01*
X-35668Y-183728D01*
X-34692Y-185000D01*
X-41508D01*
X-40532Y-183728D01*
X-39348Y-180869D01*
X-38944Y-177800D01*
X-39348Y-174732D01*
X-40532Y-171872D01*
X-42416Y-169416D01*
X-44872Y-167532D01*
X-47731Y-166348D01*
X-50800Y-165944D01*
X-53869Y-166348D01*
X-56728Y-167532D01*
X-59184Y-169416D01*
X-61068Y-171872D01*
X-62253Y-174732D01*
X-62657Y-177800D01*
X-62253Y-180869D01*
X-61068Y-183728D01*
X-60092Y-185000D01*
X-66908D01*
X-65932Y-183728D01*
X-64748Y-180869D01*
X-64344Y-177800D01*
X-64748Y-174732D01*
X-65932Y-171872D01*
X-67816Y-169416D01*
X-70272Y-167532D01*
X-73131Y-166348D01*
X-76200Y-165944D01*
X-79269Y-166348D01*
X-82128Y-167532D01*
X-84584Y-169416D01*
X-86468Y-171872D01*
X-87653Y-174732D01*
X-88057Y-177800D01*
X-87653Y-180869D01*
X-86468Y-183728D01*
X-85492Y-185000D01*
X-92308D01*
X-91332Y-183728D01*
X-90148Y-180869D01*
X-89744Y-177800D01*
X-90148Y-174732D01*
X-90703Y-173391D01*
X-85755Y-168444D01*
X-84761Y-166956D01*
X-84412Y-165200D01*
Y-160916D01*
X-82128Y-162668D01*
X-79269Y-163853D01*
X-76200Y-164257D01*
X-73131Y-163853D01*
X-70272Y-162668D01*
X-67816Y-160784D01*
X-65932Y-158328D01*
X-64748Y-155469D01*
X-64344Y-152400D01*
X-64748Y-149332D01*
X-65932Y-146472D01*
X-67816Y-144016D01*
X-70272Y-142132D01*
X-73131Y-140948D01*
X-76072Y-140561D01*
X-70006Y-134494D01*
X-69011Y-133006D01*
X-68662Y-131250D01*
Y-117886D01*
X-68489Y-118756D01*
D02*
G37*
G36*
X116732Y183728D02*
X115547Y180868D01*
X115143Y177800D01*
X115547Y174731D01*
X116732Y171872D01*
X118616Y169416D01*
X121072Y167532D01*
X123931Y166347D01*
X127000Y165943D01*
X130069Y166347D01*
X131409Y166903D01*
X135162Y163149D01*
Y160954D01*
X132928Y162668D01*
X130069Y163852D01*
X127000Y164256D01*
X123931Y163852D01*
X121072Y162668D01*
X118616Y160784D01*
X116732Y158328D01*
X115547Y155469D01*
X115143Y152400D01*
X115547Y149331D01*
X116732Y146472D01*
X118616Y144016D01*
X121072Y142132D01*
X122412Y141577D01*
Y141500D01*
X122761Y139744D01*
X123756Y138256D01*
X128547Y133464D01*
X127368Y133953D01*
X125550Y134192D01*
Y122500D01*
Y110808D01*
X127368Y111048D01*
X130228Y112232D01*
X131512Y113217D01*
Y113000D01*
X129756Y111244D01*
X128761Y109756D01*
X128412Y108000D01*
Y105536D01*
X127697Y105833D01*
X126000Y106056D01*
X124303Y105833D01*
X122722Y105177D01*
X121364Y104136D01*
X120322Y102778D01*
X119667Y101197D01*
X119507Y99981D01*
X116088Y103400D01*
Y113984D01*
X118372Y112232D01*
X121231Y111048D01*
X123050Y110808D01*
Y122500D01*
Y134192D01*
X121231Y133953D01*
X118372Y132768D01*
X116088Y131016D01*
Y142500D01*
X115739Y144256D01*
X114744Y145744D01*
X112497Y147991D01*
X113052Y149331D01*
X113456Y152400D01*
X113052Y155469D01*
X111868Y158328D01*
X109984Y160784D01*
X107528Y162668D01*
X104669Y163852D01*
X101600Y164256D01*
X98531Y163852D01*
X95672Y162668D01*
X93216Y160784D01*
X91332Y158328D01*
X90147Y155469D01*
X89743Y152400D01*
X90147Y149331D01*
X91332Y146472D01*
X93216Y144016D01*
X95672Y142132D01*
X98531Y140947D01*
X101600Y140543D01*
X104669Y140947D01*
X106009Y141503D01*
X106912Y140599D01*
Y131169D01*
X104828Y132768D01*
X101968Y133953D01*
X98900Y134357D01*
X95831Y133953D01*
X92972Y132768D01*
X90838Y131131D01*
Y142350D01*
X90489Y144106D01*
X89494Y145594D01*
X87097Y147991D01*
X87652Y149331D01*
X88056Y152400D01*
X87652Y155469D01*
X86468Y158328D01*
X84584Y160784D01*
X82128Y162668D01*
X79268Y163852D01*
X76200Y164256D01*
X73131Y163852D01*
X70272Y162668D01*
X68338Y161184D01*
Y163450D01*
X71791Y166903D01*
X73131Y166347D01*
X76200Y165943D01*
X79268Y166347D01*
X82128Y167532D01*
X84584Y169416D01*
X86468Y171872D01*
X87652Y174731D01*
X88056Y177800D01*
X87652Y180868D01*
X86468Y183728D01*
X85492Y185000D01*
X92308D01*
X91332Y183728D01*
X90147Y180868D01*
X89743Y177800D01*
X90147Y174731D01*
X91332Y171872D01*
X93216Y169416D01*
X95672Y167532D01*
X98531Y166347D01*
X101600Y165943D01*
X104669Y166347D01*
X107528Y167532D01*
X109984Y169416D01*
X111868Y171872D01*
X113052Y174731D01*
X113456Y177800D01*
X113052Y180868D01*
X111868Y183728D01*
X110892Y185000D01*
X117708D01*
X116732Y183728D01*
D02*
G37*
G36*
X167532D02*
X166347Y180868D01*
X165943Y177800D01*
X166347Y174731D01*
X167532Y171872D01*
X169416Y169416D01*
X171872Y167532D01*
X174731Y166347D01*
X177800Y165943D01*
X180868Y166347D01*
X183728Y167532D01*
X185000Y168508D01*
Y161692D01*
X183728Y162668D01*
X180868Y163852D01*
X177800Y164256D01*
X174731Y163852D01*
X171872Y162668D01*
X169416Y160784D01*
X167532Y158328D01*
X166347Y155469D01*
X165943Y152400D01*
X166347Y149331D01*
X167532Y146472D01*
X169416Y144016D01*
X171872Y142132D01*
X174731Y140947D01*
X177800Y140543D01*
X180868Y140947D01*
X183728Y142132D01*
X185000Y143108D01*
Y136292D01*
X183728Y137268D01*
X180868Y138452D01*
X177800Y138856D01*
X174731Y138452D01*
X171872Y137268D01*
X169416Y135384D01*
X167532Y132928D01*
X166347Y130069D01*
X165943Y127000D01*
X166347Y123931D01*
X167532Y121072D01*
X169416Y118616D01*
X171872Y116732D01*
X174731Y115547D01*
X177800Y115143D01*
X180868Y115547D01*
X183728Y116732D01*
X185000Y117708D01*
Y110892D01*
X183728Y111868D01*
X180868Y113052D01*
X177800Y113456D01*
X174731Y113052D01*
X171872Y111868D01*
X169416Y109984D01*
X167532Y107528D01*
X166347Y104669D01*
X165943Y101600D01*
X166347Y98531D01*
X167532Y95672D01*
X169416Y93216D01*
X171872Y91332D01*
X174731Y90147D01*
X177800Y89743D01*
X180868Y90147D01*
X183728Y91332D01*
X185000Y92308D01*
Y85492D01*
X183728Y86468D01*
X180868Y87652D01*
X177800Y88056D01*
X174731Y87652D01*
X171872Y86468D01*
X169416Y84584D01*
X167532Y82128D01*
X166347Y79268D01*
X165943Y76200D01*
X166347Y73131D01*
X167532Y70272D01*
X169416Y67816D01*
X171872Y65932D01*
X174731Y64747D01*
X177800Y64343D01*
X180868Y64747D01*
X183728Y65932D01*
X185000Y66908D01*
Y60092D01*
X183728Y61068D01*
X180868Y62252D01*
X177800Y62656D01*
X174731Y62252D01*
X171872Y61068D01*
X169416Y59184D01*
X167532Y56728D01*
X166347Y53868D01*
X165943Y50800D01*
X166347Y47731D01*
X167532Y44872D01*
X169416Y42416D01*
X171872Y40532D01*
X174731Y39347D01*
X177800Y38943D01*
X180868Y39347D01*
X183728Y40532D01*
X185000Y41508D01*
Y34692D01*
X183728Y35668D01*
X180868Y36852D01*
X177800Y37256D01*
X174731Y36852D01*
X171872Y35668D01*
X169416Y33784D01*
X167532Y31328D01*
X166347Y28468D01*
X165943Y25400D01*
X166347Y22331D01*
X167532Y19472D01*
X169416Y17016D01*
X171872Y15132D01*
X174731Y13947D01*
X177800Y13543D01*
X180868Y13947D01*
X183728Y15132D01*
X185000Y16108D01*
Y9292D01*
X183728Y10268D01*
X180868Y11452D01*
X177800Y11856D01*
X174731Y11452D01*
X171872Y10268D01*
X169416Y8384D01*
X167532Y5928D01*
X166347Y3068D01*
X165943Y-0D01*
X166347Y-3069D01*
X167532Y-5928D01*
X169416Y-8384D01*
X171872Y-10268D01*
X174731Y-11453D01*
X177800Y-11857D01*
X180868Y-11453D01*
X183728Y-10268D01*
X185000Y-9292D01*
Y-16108D01*
X183728Y-15132D01*
X180868Y-13948D01*
X177800Y-13544D01*
X174731Y-13948D01*
X171872Y-15132D01*
X169416Y-17016D01*
X167532Y-19472D01*
X166347Y-22332D01*
X165943Y-25400D01*
X166347Y-28469D01*
X167532Y-31328D01*
X169416Y-33784D01*
X171872Y-35668D01*
X174731Y-36853D01*
X177800Y-37257D01*
X180868Y-36853D01*
X183728Y-35668D01*
X185000Y-34692D01*
Y-41508D01*
X183728Y-40532D01*
X180868Y-39348D01*
X177800Y-38944D01*
X174731Y-39348D01*
X171872Y-40532D01*
X169416Y-42416D01*
X167532Y-44872D01*
X166347Y-47731D01*
X165943Y-50800D01*
X166347Y-53869D01*
X166903Y-55209D01*
X163199Y-58912D01*
X160992D01*
X162668Y-56728D01*
X163852Y-53869D01*
X164256Y-50800D01*
X163852Y-47731D01*
X162668Y-44872D01*
X160784Y-42416D01*
X158328Y-40532D01*
X155469Y-39348D01*
X152400Y-38944D01*
X149331Y-39348D01*
X146472Y-40532D01*
X144016Y-42416D01*
X142132Y-44872D01*
X140947Y-47731D01*
X140543Y-50800D01*
X140947Y-53869D01*
X141503Y-55209D01*
X130550Y-66162D01*
X97037D01*
X97333Y-65447D01*
X97556Y-63750D01*
X97333Y-62053D01*
X96678Y-60472D01*
X95636Y-59114D01*
X94278Y-58072D01*
X92697Y-57417D01*
X91000Y-57194D01*
X89303Y-57417D01*
X87722Y-58072D01*
X86364Y-59114D01*
X85433Y-60327D01*
X84886Y-59614D01*
X83528Y-58572D01*
X81947Y-57917D01*
X80250Y-57694D01*
X78553Y-57917D01*
X76972Y-58572D01*
X75614Y-59614D01*
X74572Y-60972D01*
X73917Y-62553D01*
X73694Y-64250D01*
X73917Y-65947D01*
X74006Y-66162D01*
X52000D01*
X50244Y-66511D01*
X48756Y-67505D01*
X38060Y-78202D01*
X38000Y-78194D01*
X36303Y-78417D01*
X34722Y-79072D01*
X33364Y-80114D01*
X32322Y-81472D01*
X31920Y-82444D01*
X30500Y-82162D01*
X12250D01*
X10494Y-82511D01*
X9789Y-82982D01*
X9500Y-82944D01*
X7803Y-83167D01*
X6222Y-83822D01*
X4864Y-84864D01*
X3822Y-86222D01*
X3167Y-87803D01*
X3130Y-88084D01*
X2386Y-87114D01*
X1028Y-86072D01*
X-553Y-85417D01*
X-2250Y-85194D01*
X-3947Y-85417D01*
X-5528Y-86072D01*
X-6886Y-87114D01*
X-7928Y-88472D01*
X-8583Y-90053D01*
X-8806Y-91750D01*
X-8583Y-93447D01*
X-7928Y-95028D01*
X-6886Y-96386D01*
X-5528Y-97428D01*
X-3947Y-98083D01*
X-2250Y-98306D01*
X-553Y-98083D01*
X1028Y-97428D01*
X2386Y-96386D01*
X3428Y-95028D01*
X4083Y-93447D01*
X4120Y-93166D01*
X4864Y-94136D01*
X6222Y-95178D01*
X7803Y-95833D01*
X9500Y-96056D01*
X9824Y-96013D01*
X9694Y-97000D01*
X9918Y-98697D01*
X10573Y-100278D01*
X11614Y-101636D01*
X12972Y-102678D01*
X14000Y-103104D01*
X13917Y-103303D01*
X13694Y-105000D01*
X13917Y-106697D01*
X14110Y-107162D01*
X-554D01*
X-667Y-106303D01*
X-1322Y-104722D01*
X-2364Y-103364D01*
X-3722Y-102322D01*
X-5303Y-101667D01*
X-7000Y-101444D01*
X-8278Y-101612D01*
X-8417Y-100553D01*
X-9072Y-98972D01*
X-10114Y-97614D01*
X-11472Y-96572D01*
X-11574Y-96530D01*
X-11572Y-96528D01*
X-10917Y-94947D01*
X-10694Y-93250D01*
X-10917Y-91553D01*
X-11572Y-89972D01*
X-12614Y-88614D01*
X-13972Y-87572D01*
X-15553Y-86917D01*
X-17250Y-86694D01*
X-18947Y-86917D01*
X-20213Y-87442D01*
X-20822Y-85972D01*
X-21864Y-84614D01*
X-23222Y-83573D01*
X-24803Y-82917D01*
X-26500Y-82694D01*
X-28197Y-82917D01*
X-29778Y-83573D01*
X-31136Y-84614D01*
X-32178Y-85972D01*
X-32833Y-87553D01*
X-33056Y-89250D01*
X-32833Y-90947D01*
X-32178Y-92528D01*
X-31136Y-93886D01*
X-29778Y-94928D01*
X-28197Y-95583D01*
X-26500Y-95806D01*
X-24803Y-95583D01*
X-23537Y-95058D01*
X-22927Y-96528D01*
X-21886Y-97886D01*
X-20528Y-98928D01*
X-20426Y-98970D01*
X-20428Y-98972D01*
X-21083Y-100553D01*
X-21306Y-102250D01*
X-21083Y-103947D01*
X-20428Y-105528D01*
X-19386Y-106886D01*
X-19338Y-106922D01*
Y-112750D01*
X-18989Y-114506D01*
X-17994Y-115994D01*
X-16826Y-117162D01*
X-35850D01*
X-40662Y-112350D01*
Y-108743D01*
X-40447Y-108833D01*
X-38750Y-109056D01*
X-37053Y-108833D01*
X-35472Y-108177D01*
X-34114Y-107136D01*
X-33072Y-105778D01*
X-32417Y-104197D01*
X-32194Y-102500D01*
X-32417Y-100803D01*
X-33072Y-99222D01*
X-34114Y-97864D01*
X-35472Y-96822D01*
X-37053Y-96167D01*
X-38750Y-95944D01*
X-40447Y-96167D01*
X-40662Y-96256D01*
Y-96173D01*
X-40614Y-96136D01*
X-39572Y-94778D01*
X-38917Y-93197D01*
X-38694Y-91500D01*
X-38917Y-89803D01*
X-39572Y-88222D01*
X-40614Y-86864D01*
X-41972Y-85822D01*
X-43553Y-85167D01*
X-45250Y-84944D01*
X-46947Y-85167D01*
X-48528Y-85822D01*
X-49886Y-86864D01*
X-50721Y-87953D01*
X-51364Y-87114D01*
X-52722Y-86072D01*
X-54303Y-85417D01*
X-56000Y-85194D01*
X-57697Y-85417D01*
X-59278Y-86072D01*
X-60636Y-87114D01*
X-61678Y-88472D01*
X-62333Y-90053D01*
X-62556Y-91750D01*
X-62333Y-93447D01*
X-61678Y-95028D01*
X-60636Y-96386D01*
X-60123Y-96779D01*
X-60886Y-97364D01*
X-61928Y-98722D01*
X-62583Y-100303D01*
X-62694Y-101149D01*
X-64250Y-100944D01*
X-64912Y-101031D01*
Y-98173D01*
X-64864Y-98136D01*
X-63822Y-96778D01*
X-63168Y-95197D01*
X-62944Y-93500D01*
X-63168Y-91803D01*
X-63822Y-90222D01*
X-64864Y-88864D01*
X-66222Y-87822D01*
X-67803Y-87167D01*
X-68709Y-87048D01*
X-68667Y-86947D01*
X-68444Y-85250D01*
X-68667Y-83553D01*
X-69322Y-81972D01*
X-70364Y-80614D01*
X-71722Y-79573D01*
X-72155Y-79393D01*
X-69310Y-76548D01*
X-69250Y-76556D01*
X-67553Y-76333D01*
X-65972Y-75678D01*
X-64614Y-74636D01*
X-63573Y-73278D01*
X-62918Y-71697D01*
X-62694Y-70000D01*
X-62918Y-68303D01*
X-63573Y-66722D01*
X-64614Y-65364D01*
X-65972Y-64322D01*
X-67553Y-63667D01*
X-67983Y-63611D01*
X-67912Y-63250D01*
X-67912Y-63250D01*
X-67912Y-63250D01*
Y-57672D01*
X-67864Y-57636D01*
X-66822Y-56278D01*
X-66167Y-54697D01*
X-65944Y-53000D01*
X-66167Y-51303D01*
X-66822Y-49722D01*
X-67864Y-48364D01*
X-69222Y-47322D01*
X-70803Y-46667D01*
X-72500Y-46444D01*
X-74197Y-46667D01*
X-75778Y-47322D01*
X-77136Y-48364D01*
X-78178Y-49722D01*
X-78833Y-51303D01*
X-79056Y-53000D01*
X-78841Y-54633D01*
X-80253Y-54447D01*
X-81950Y-54670D01*
X-83531Y-55325D01*
X-84889Y-56367D01*
X-84925Y-56415D01*
X-85412D01*
Y-55672D01*
X-85364Y-55636D01*
X-84322Y-54278D01*
X-83667Y-52697D01*
X-83444Y-51000D01*
X-83667Y-49303D01*
X-84322Y-47722D01*
X-85364Y-46364D01*
X-86722Y-45322D01*
X-88303Y-44667D01*
X-90000Y-44444D01*
X-91697Y-44667D01*
X-93278Y-45322D01*
X-94636Y-46364D01*
X-95678Y-47722D01*
X-96333Y-49303D01*
X-96556Y-51000D01*
X-96333Y-52697D01*
X-95678Y-54278D01*
X-94636Y-55636D01*
X-94588Y-55672D01*
Y-56350D01*
X-140651Y-102412D01*
X-140544Y-101600D01*
X-140948Y-98532D01*
X-142132Y-95672D01*
X-144016Y-93216D01*
X-146472Y-91332D01*
X-149332Y-90148D01*
X-152400Y-89744D01*
X-155469Y-90148D01*
X-158328Y-91332D01*
X-160784Y-93216D01*
X-162668Y-95672D01*
X-163853Y-98532D01*
X-164257Y-101600D01*
X-163853Y-104669D01*
X-162668Y-107528D01*
X-161031Y-109662D01*
X-165050D01*
X-166806Y-110011D01*
X-168294Y-111005D01*
X-173391Y-116103D01*
X-174732Y-115548D01*
X-177800Y-115144D01*
X-180869Y-115548D01*
X-183728Y-116732D01*
X-185000Y-117708D01*
Y-110892D01*
X-183728Y-111868D01*
X-180869Y-113053D01*
X-177800Y-113457D01*
X-174732Y-113053D01*
X-171872Y-111868D01*
X-169416Y-109984D01*
X-167532Y-107528D01*
X-166348Y-104669D01*
X-165944Y-101600D01*
X-166348Y-98532D01*
X-167532Y-95672D01*
X-169416Y-93216D01*
X-171872Y-91332D01*
X-174732Y-90148D01*
X-177800Y-89744D01*
X-180869Y-90148D01*
X-183728Y-91332D01*
X-185000Y-92308D01*
Y-85492D01*
X-183728Y-86468D01*
X-180869Y-87653D01*
X-177800Y-88057D01*
X-174732Y-87653D01*
X-171872Y-86468D01*
X-169416Y-84584D01*
X-167532Y-82128D01*
X-166348Y-79269D01*
X-165944Y-76200D01*
X-166348Y-73131D01*
X-167532Y-70272D01*
X-169416Y-67816D01*
X-171872Y-65932D01*
X-174732Y-64748D01*
X-177800Y-64344D01*
X-180869Y-64748D01*
X-183728Y-65932D01*
X-185000Y-66908D01*
Y-60092D01*
X-183728Y-61068D01*
X-180869Y-62253D01*
X-177800Y-62657D01*
X-174732Y-62253D01*
X-171872Y-61068D01*
X-169416Y-59184D01*
X-167532Y-56728D01*
X-166348Y-53869D01*
X-165944Y-50800D01*
X-166348Y-47731D01*
X-167532Y-44872D01*
X-169416Y-42416D01*
X-171872Y-40532D01*
X-174732Y-39348D01*
X-177800Y-38944D01*
X-180869Y-39348D01*
X-183728Y-40532D01*
X-185000Y-41508D01*
Y-34692D01*
X-183728Y-35668D01*
X-180869Y-36853D01*
X-177800Y-37257D01*
X-174732Y-36853D01*
X-171872Y-35668D01*
X-169416Y-33784D01*
X-167532Y-31328D01*
X-166348Y-28469D01*
X-165944Y-25400D01*
X-166348Y-22332D01*
X-167532Y-19472D01*
X-169416Y-17016D01*
X-171872Y-15132D01*
X-174732Y-13948D01*
X-177800Y-13544D01*
X-180869Y-13948D01*
X-183728Y-15132D01*
X-185000Y-16108D01*
Y-9292D01*
X-183728Y-10268D01*
X-180869Y-11453D01*
X-177800Y-11857D01*
X-174732Y-11453D01*
X-171872Y-10268D01*
X-169416Y-8384D01*
X-167532Y-5928D01*
X-166348Y-3069D01*
X-165944Y-0D01*
X-166348Y3068D01*
X-167532Y5928D01*
X-169416Y8384D01*
X-171872Y10268D01*
X-174732Y11452D01*
X-177800Y11856D01*
X-180869Y11452D01*
X-183728Y10268D01*
X-185000Y9292D01*
Y16108D01*
X-183728Y15132D01*
X-180869Y13947D01*
X-177800Y13543D01*
X-174732Y13947D01*
X-171872Y15132D01*
X-169416Y17016D01*
X-167532Y19472D01*
X-166348Y22331D01*
X-165944Y25400D01*
X-166348Y28468D01*
X-167532Y31328D01*
X-169416Y33784D01*
X-171872Y35668D01*
X-174732Y36852D01*
X-177800Y37256D01*
X-180869Y36852D01*
X-183728Y35668D01*
X-185000Y34692D01*
Y41508D01*
X-183728Y40532D01*
X-180869Y39347D01*
X-177800Y38943D01*
X-174732Y39347D01*
X-171872Y40532D01*
X-169416Y42416D01*
X-167532Y44872D01*
X-166348Y47731D01*
X-165944Y50800D01*
X-166348Y53868D01*
X-167532Y56728D01*
X-169416Y59184D01*
X-171872Y61068D01*
X-174732Y62252D01*
X-177800Y62656D01*
X-180869Y62252D01*
X-183728Y61068D01*
X-185000Y60092D01*
Y66908D01*
X-183728Y65932D01*
X-180869Y64747D01*
X-179050Y64508D01*
Y76200D01*
Y87892D01*
X-180869Y87652D01*
X-183728Y86468D01*
X-185000Y85492D01*
Y92308D01*
X-183728Y91332D01*
X-180869Y90147D01*
X-177800Y89743D01*
X-174732Y90147D01*
X-171872Y91332D01*
X-169416Y93216D01*
X-167532Y95672D01*
X-166348Y98531D01*
X-165944Y101600D01*
X-166348Y104669D01*
X-167532Y107528D01*
X-169416Y109984D01*
X-171872Y111868D01*
X-174732Y113052D01*
X-177800Y113456D01*
X-180869Y113052D01*
X-183728Y111868D01*
X-185000Y110892D01*
Y117708D01*
X-183728Y116732D01*
X-180869Y115547D01*
X-177800Y115143D01*
X-174732Y115547D01*
X-171872Y116732D01*
X-169416Y118616D01*
X-167532Y121072D01*
X-166348Y123931D01*
X-165944Y127000D01*
X-166348Y130069D01*
X-167532Y132928D01*
X-169416Y135384D01*
X-171872Y137268D01*
X-174732Y138452D01*
X-177800Y138856D01*
X-180869Y138452D01*
X-183728Y137268D01*
X-185000Y136292D01*
Y143108D01*
X-183728Y142132D01*
X-180869Y140947D01*
X-177800Y140543D01*
X-174732Y140947D01*
X-171872Y142132D01*
X-169416Y144016D01*
X-167532Y146472D01*
X-166348Y149331D01*
X-165944Y152400D01*
X-166348Y155469D01*
X-167532Y158328D01*
X-169416Y160784D01*
X-171872Y162668D01*
X-174732Y163852D01*
X-177800Y164256D01*
X-180869Y163852D01*
X-183728Y162668D01*
X-185000Y161692D01*
Y168508D01*
X-183728Y167532D01*
X-180869Y166347D01*
X-177800Y165943D01*
X-174732Y166347D01*
X-171872Y167532D01*
X-169416Y169416D01*
X-167532Y171872D01*
X-166348Y174731D01*
X-165944Y177800D01*
X-166348Y180868D01*
X-167532Y183728D01*
X-168508Y185000D01*
X-161692D01*
X-162668Y183728D01*
X-163853Y180868D01*
X-164257Y177800D01*
X-163853Y174731D01*
X-162668Y171872D01*
X-160784Y169416D01*
X-158328Y167532D01*
X-155469Y166347D01*
X-152400Y165943D01*
X-149332Y166347D01*
X-146472Y167532D01*
X-144016Y169416D01*
X-142132Y171872D01*
X-140948Y174731D01*
X-140544Y177800D01*
X-140948Y180868D01*
X-142132Y183728D01*
X-143108Y185000D01*
X-136292D01*
X-137268Y183728D01*
X-138453Y180868D01*
X-138857Y177800D01*
X-138453Y174731D01*
X-137268Y171872D01*
X-135384Y169416D01*
X-132928Y167532D01*
X-130069Y166347D01*
X-127000Y165943D01*
X-123932Y166347D01*
X-121072Y167532D01*
X-118616Y169416D01*
X-116732Y171872D01*
X-115548Y174731D01*
X-115144Y177800D01*
X-115548Y180868D01*
X-116732Y183728D01*
X-117708Y185000D01*
X-110892D01*
X-111868Y183728D01*
X-113053Y180868D01*
X-113292Y179050D01*
X-89908D01*
X-90148Y180868D01*
X-91332Y183728D01*
X-92308Y185000D01*
X-85492D01*
X-86468Y183728D01*
X-87653Y180868D01*
X-88057Y177800D01*
X-87653Y174731D01*
X-86468Y171872D01*
X-84584Y169416D01*
X-82128Y167532D01*
X-79269Y166347D01*
X-76200Y165943D01*
X-73131Y166347D01*
X-70272Y167532D01*
X-67816Y169416D01*
X-65932Y171872D01*
X-64748Y174731D01*
X-64344Y177800D01*
X-64748Y180868D01*
X-65932Y183728D01*
X-66908Y185000D01*
X-60092D01*
X-61068Y183728D01*
X-62253Y180868D01*
X-62657Y177800D01*
X-62253Y174731D01*
X-61068Y171872D01*
X-59184Y169416D01*
X-56728Y167532D01*
X-53869Y166347D01*
X-50800Y165943D01*
X-47731Y166347D01*
X-44872Y167532D01*
X-42416Y169416D01*
X-40532Y171872D01*
X-39348Y174731D01*
X-38944Y177800D01*
X-39348Y180868D01*
X-40532Y183728D01*
X-41508Y185000D01*
X-34692D01*
X-35668Y183728D01*
X-36853Y180868D01*
X-37257Y177800D01*
X-36853Y174731D01*
X-35668Y171872D01*
X-33784Y169416D01*
X-31328Y167532D01*
X-28469Y166347D01*
X-25400Y165943D01*
X-22332Y166347D01*
X-19472Y167532D01*
X-17016Y169416D01*
X-15132Y171872D01*
X-13948Y174731D01*
X-13544Y177800D01*
X-13948Y180868D01*
X-15132Y183728D01*
X-16108Y185000D01*
X-9292D01*
X-10268Y183728D01*
X-11453Y180868D01*
X-11857Y177800D01*
X-11453Y174731D01*
X-10268Y171872D01*
X-8384Y169416D01*
X-5928Y167532D01*
X-3069Y166347D01*
X-0Y165943D01*
X3068Y166347D01*
X4409Y166903D01*
X8412Y162899D01*
Y160747D01*
X8384Y160784D01*
X5928Y162668D01*
X3068Y163852D01*
X-0Y164256D01*
X-3069Y163852D01*
X-5928Y162668D01*
X-8384Y160784D01*
X-10268Y158328D01*
X-11453Y155469D01*
X-11857Y152400D01*
X-11453Y149331D01*
X-10898Y147991D01*
X-18494Y140394D01*
X-19489Y138906D01*
X-19838Y137150D01*
Y130977D01*
X-22172Y132768D01*
X-25031Y133953D01*
X-28100Y134357D01*
X-31169Y133953D01*
X-34028Y132768D01*
X-36162Y131131D01*
Y135149D01*
X-29809Y141503D01*
X-28469Y140947D01*
X-25400Y140543D01*
X-22332Y140947D01*
X-19472Y142132D01*
X-17016Y144016D01*
X-15132Y146472D01*
X-13948Y149331D01*
X-13544Y152400D01*
X-13948Y155469D01*
X-15132Y158328D01*
X-17016Y160784D01*
X-19472Y162668D01*
X-22332Y163852D01*
X-25400Y164256D01*
X-28469Y163852D01*
X-31328Y162668D01*
X-33784Y160784D01*
X-35668Y158328D01*
X-36853Y155469D01*
X-37257Y152400D01*
X-36853Y149331D01*
X-36298Y147991D01*
X-43994Y140294D01*
X-44989Y138806D01*
X-45338Y137050D01*
Y131054D01*
X-47572Y132768D01*
X-50431Y133953D01*
X-53500Y134357D01*
X-56569Y133953D01*
X-59428Y132768D01*
X-61662Y131054D01*
Y135049D01*
X-55209Y141503D01*
X-53869Y140947D01*
X-50800Y140543D01*
X-47731Y140947D01*
X-44872Y142132D01*
X-42416Y144016D01*
X-40532Y146472D01*
X-39348Y149331D01*
X-38944Y152400D01*
X-39348Y155469D01*
X-40532Y158328D01*
X-42416Y160784D01*
X-44872Y162668D01*
X-47731Y163852D01*
X-50800Y164256D01*
X-53869Y163852D01*
X-56728Y162668D01*
X-59184Y160784D01*
X-61068Y158328D01*
X-62253Y155469D01*
X-62657Y152400D01*
X-62253Y149331D01*
X-61698Y147991D01*
X-69494Y140194D01*
X-70489Y138706D01*
X-70838Y136950D01*
Y131131D01*
X-72972Y132768D01*
X-75831Y133953D01*
X-78900Y134357D01*
X-81969Y133953D01*
X-84828Y132768D01*
X-87284Y130884D01*
X-89168Y128428D01*
X-90353Y125569D01*
X-90757Y122500D01*
X-90353Y119431D01*
X-89168Y116572D01*
X-87284Y114116D01*
X-84828Y112232D01*
X-81969Y111048D01*
X-78900Y110644D01*
X-75831Y111048D01*
X-72972Y112232D01*
X-70838Y113869D01*
Y109150D01*
X-73744Y106244D01*
X-74739Y104756D01*
X-75088Y103000D01*
Y53000D01*
X-74739Y51244D01*
X-73744Y49756D01*
X-72790Y48801D01*
X-74447Y48583D01*
X-76028Y47928D01*
X-77386Y46886D01*
X-78428Y45528D01*
X-79083Y43947D01*
X-79306Y42250D01*
X-79263Y41926D01*
X-80250Y42056D01*
X-81947Y41833D01*
X-83528Y41178D01*
X-84886Y40136D01*
X-85928Y38778D01*
X-86583Y37197D01*
X-86806Y35500D01*
X-86583Y33803D01*
X-85928Y32222D01*
X-84886Y30864D01*
X-83528Y29822D01*
X-81947Y29167D01*
X-80250Y28944D01*
X-78553Y29167D01*
X-76972Y29822D01*
X-75614Y30864D01*
X-74572Y32222D01*
X-73917Y33803D01*
X-73694Y35500D01*
X-73737Y35824D01*
X-72750Y35694D01*
X-71053Y35917D01*
X-69472Y36572D01*
X-68114Y37614D01*
X-67072Y38972D01*
X-66417Y40553D01*
X-66199Y42210D01*
X-59588Y35600D01*
Y10422D01*
X-59636Y10386D01*
X-60678Y9028D01*
X-61333Y7447D01*
X-61556Y5750D01*
X-61333Y4053D01*
X-60678Y2472D01*
X-59636Y1114D01*
X-58278Y72D01*
X-56697Y-583D01*
X-55000Y-806D01*
X-53303Y-583D01*
X-51722Y72D01*
X-50364Y1114D01*
X-49322Y2472D01*
X-48667Y4053D01*
X-48444Y5750D01*
X-48667Y7447D01*
X-49322Y9028D01*
X-50364Y10386D01*
X-50412Y10422D01*
Y16175D01*
X-50278Y16072D01*
X-48697Y15417D01*
X-47360Y15241D01*
X-47556Y13750D01*
X-47333Y12053D01*
X-46678Y10472D01*
X-45636Y9114D01*
X-44278Y8072D01*
X-42697Y7417D01*
X-41000Y7194D01*
X-39303Y7417D01*
X-37722Y8072D01*
X-37338Y8367D01*
Y-5328D01*
X-37386Y-5364D01*
X-38428Y-6722D01*
X-39083Y-8303D01*
X-39306Y-10000D01*
X-39083Y-11697D01*
X-38428Y-13278D01*
X-37386Y-14636D01*
X-36028Y-15678D01*
X-34447Y-16333D01*
X-32750Y-16556D01*
X-31053Y-16333D01*
X-29472Y-15678D01*
X-28114Y-14636D01*
X-27072Y-13278D01*
X-26417Y-11697D01*
X-26194Y-10000D01*
X-26385Y-8548D01*
X-25697Y-8833D01*
X-24000Y-9056D01*
X-22303Y-8833D01*
X-20722Y-8178D01*
X-19364Y-7136D01*
X-18322Y-5778D01*
X-17667Y-4197D01*
X-17444Y-2500D01*
X-17667Y-803D01*
X-18322Y778D01*
X-19364Y2136D01*
X-20722Y3178D01*
X-22303Y3833D01*
X-24000Y4056D01*
X-25697Y3833D01*
X-27278Y3178D01*
X-28162Y2500D01*
Y50000D01*
X-28511Y51756D01*
X-29506Y53244D01*
X-46162Y69900D01*
Y100850D01*
X-37506Y109506D01*
X-36511Y110994D01*
X-36162Y112750D01*
Y113869D01*
X-34028Y112232D01*
X-31169Y111048D01*
X-28100Y110644D01*
X-25031Y111048D01*
X-22172Y112232D01*
X-19838Y114023D01*
Y112000D01*
X-19489Y110244D01*
X-18494Y108756D01*
X-13088Y103350D01*
Y-21078D01*
X-13136Y-21114D01*
X-14178Y-22472D01*
X-14833Y-24053D01*
X-15056Y-25750D01*
X-14833Y-27447D01*
X-14178Y-29028D01*
X-13136Y-30386D01*
X-11778Y-31428D01*
X-10197Y-32083D01*
X-8500Y-32306D01*
X-6803Y-32083D01*
X-5222Y-31428D01*
X-3864Y-30386D01*
X-2822Y-29028D01*
X-2167Y-27447D01*
X-1944Y-25750D01*
X-2121Y-24407D01*
X-1697Y-24583D01*
X0Y-24806D01*
X1697Y-24583D01*
X3278Y-23928D01*
X4636Y-22886D01*
X5678Y-21528D01*
X6333Y-19947D01*
X6556Y-18250D01*
X6333Y-16553D01*
X5678Y-14972D01*
X4636Y-13614D01*
X4588Y-13578D01*
Y102599D01*
X13244Y111256D01*
X14239Y112744D01*
X14486Y113986D01*
X16772Y112232D01*
X19631Y111048D01*
X22700Y110644D01*
X25768Y111048D01*
X28628Y112232D01*
X31084Y114116D01*
X32968Y116572D01*
X34152Y119431D01*
X34556Y122500D01*
X34152Y125569D01*
X32968Y128428D01*
X31084Y130884D01*
X28628Y132768D01*
X25768Y133953D01*
X22700Y134357D01*
X19631Y133953D01*
X17557Y133093D01*
X17588Y133250D01*
Y143577D01*
X19472Y142132D01*
X22331Y140947D01*
X25400Y140543D01*
X28468Y140947D01*
X31328Y142132D01*
X33784Y144016D01*
X35668Y146472D01*
X36852Y149331D01*
X37256Y152400D01*
X36852Y155469D01*
X35668Y158328D01*
X33784Y160784D01*
X31328Y162668D01*
X28468Y163852D01*
X25400Y164256D01*
X22331Y163852D01*
X19472Y162668D01*
X17588Y161223D01*
Y164800D01*
X17239Y166556D01*
X16244Y168044D01*
X10897Y173391D01*
X11452Y174731D01*
X11856Y177800D01*
X11452Y180868D01*
X10268Y183728D01*
X9292Y185000D01*
X16108D01*
X15132Y183728D01*
X13947Y180868D01*
X13543Y177800D01*
X13947Y174731D01*
X15132Y171872D01*
X17016Y169416D01*
X19472Y167532D01*
X22331Y166347D01*
X25400Y165943D01*
X28468Y166347D01*
X31328Y167532D01*
X33784Y169416D01*
X35668Y171872D01*
X36852Y174731D01*
X37256Y177800D01*
X36852Y180868D01*
X35668Y183728D01*
X34692Y185000D01*
X41508D01*
X40532Y183728D01*
X39347Y180868D01*
X38943Y177800D01*
X39347Y174731D01*
X40532Y171872D01*
X42416Y169416D01*
X44872Y167532D01*
X47731Y166347D01*
X50800Y165943D01*
X53868Y166347D01*
X56728Y167532D01*
X59184Y169416D01*
X61068Y171872D01*
X62252Y174731D01*
X62656Y177800D01*
X62252Y180868D01*
X61068Y183728D01*
X60092Y185000D01*
X66908D01*
X65932Y183728D01*
X64747Y180868D01*
X64343Y177800D01*
X64747Y174731D01*
X65303Y173391D01*
X60506Y168594D01*
X59511Y167106D01*
X59162Y165350D01*
Y160800D01*
X56728Y162668D01*
X53868Y163852D01*
X52050Y164092D01*
Y152400D01*
Y140708D01*
X53868Y140947D01*
X56728Y142132D01*
X59162Y143999D01*
Y137401D01*
X57756Y135994D01*
X56761Y134506D01*
X56412Y132750D01*
Y130939D01*
X54028Y132768D01*
X51168Y133953D01*
X48100Y134357D01*
X45031Y133953D01*
X42172Y132768D01*
X39716Y130884D01*
X37832Y128428D01*
X36647Y125569D01*
X36243Y122500D01*
X36647Y119431D01*
X37832Y116572D01*
X39716Y114116D01*
X42172Y112232D01*
X45031Y111048D01*
X48100Y110644D01*
X51168Y111048D01*
X54028Y112232D01*
X56412Y114061D01*
Y113250D01*
X56761Y111494D01*
X57756Y110006D01*
X64162Y103600D01*
Y26922D01*
X64114Y26886D01*
X63072Y25528D01*
X62772Y24802D01*
X62697Y24833D01*
X61000Y25056D01*
X59303Y24833D01*
X57722Y24178D01*
X56364Y23136D01*
X55322Y21778D01*
X54667Y20197D01*
X54448Y18530D01*
X54250Y18556D01*
X52553Y18333D01*
X50972Y17678D01*
X49614Y16636D01*
X48572Y15278D01*
X47917Y13697D01*
X47694Y12000D01*
X47917Y10303D01*
X48572Y8722D01*
X49614Y7364D01*
X49878Y7161D01*
X50011Y6494D01*
X51006Y5006D01*
X51236Y4775D01*
X51000Y4806D01*
X49303Y4583D01*
X47722Y3928D01*
X46364Y2886D01*
X45322Y1528D01*
X45292Y1455D01*
X44386Y2636D01*
X43028Y3678D01*
X41447Y4333D01*
X39750Y4556D01*
X38053Y4333D01*
X36472Y3678D01*
X35114Y2636D01*
X34072Y1278D01*
X33417Y-303D01*
X33194Y-2000D01*
X33417Y-3697D01*
X34072Y-5278D01*
X35114Y-6636D01*
X36472Y-7678D01*
X38053Y-8333D01*
X39750Y-8556D01*
X39810Y-8548D01*
X40112Y-8850D01*
X38972Y-9322D01*
X37614Y-10364D01*
X36572Y-11722D01*
X35917Y-13303D01*
X35694Y-15000D01*
X35917Y-16697D01*
X36572Y-18278D01*
X37614Y-19636D01*
X38972Y-20678D01*
X40553Y-21333D01*
X42250Y-21556D01*
X43947Y-21333D01*
X45528Y-20678D01*
X46886Y-19636D01*
X47091Y-19368D01*
X47167Y-19947D01*
X47822Y-21528D01*
X48864Y-22886D01*
X50222Y-23928D01*
X51803Y-24583D01*
X53500Y-24806D01*
X55197Y-24583D01*
X56778Y-23928D01*
X58136Y-22886D01*
X59178Y-21528D01*
X59293Y-21250D01*
X59194Y-22000D01*
X59418Y-23697D01*
X60072Y-25278D01*
X61114Y-26636D01*
X62472Y-27678D01*
X64053Y-28333D01*
X65750Y-28556D01*
X67447Y-28333D01*
X69028Y-27678D01*
X70386Y-26636D01*
X71428Y-25278D01*
X71672Y-24688D01*
X100900D01*
X102656Y-24339D01*
X104144Y-23344D01*
X122900Y-4588D01*
X141577D01*
X142132Y-5928D01*
X144016Y-8384D01*
X146472Y-10268D01*
X149331Y-11453D01*
X152400Y-11857D01*
X155469Y-11453D01*
X158328Y-10268D01*
X160784Y-8384D01*
X162668Y-5928D01*
X163852Y-3069D01*
X164256Y-0D01*
X163852Y3068D01*
X162668Y5928D01*
X160784Y8384D01*
X158328Y10268D01*
X155469Y11452D01*
X152400Y11856D01*
X149331Y11452D01*
X146472Y10268D01*
X144016Y8384D01*
X142132Y5928D01*
X141577Y4588D01*
X124577D01*
X140800Y20812D01*
X141577D01*
X142132Y19472D01*
X144016Y17016D01*
X146472Y15132D01*
X149331Y13947D01*
X152400Y13543D01*
X155469Y13947D01*
X158328Y15132D01*
X160784Y17016D01*
X162668Y19472D01*
X163852Y22331D01*
X164256Y25400D01*
X163852Y28468D01*
X162668Y31328D01*
X160784Y33784D01*
X158328Y35668D01*
X155469Y36852D01*
X152400Y37256D01*
X149331Y36852D01*
X146472Y35668D01*
X144016Y33784D01*
X142132Y31328D01*
X142088Y31223D01*
Y44977D01*
X142132Y44872D01*
X144016Y42416D01*
X146472Y40532D01*
X149331Y39347D01*
X152400Y38943D01*
X155469Y39347D01*
X158328Y40532D01*
X160784Y42416D01*
X162668Y44872D01*
X163852Y47731D01*
X164256Y50800D01*
X163852Y53868D01*
X162668Y56728D01*
X160784Y59184D01*
X158328Y61068D01*
X155469Y62252D01*
X152400Y62656D01*
X149331Y62252D01*
X146472Y61068D01*
X144016Y59184D01*
X142132Y56728D01*
X142088Y56623D01*
Y70377D01*
X142132Y70272D01*
X144016Y67816D01*
X146472Y65932D01*
X149331Y64747D01*
X152400Y64343D01*
X155469Y64747D01*
X158328Y65932D01*
X160784Y67816D01*
X162668Y70272D01*
X163852Y73131D01*
X164256Y76200D01*
X163852Y79268D01*
X162668Y82128D01*
X160784Y84584D01*
X158328Y86468D01*
X155469Y87652D01*
X152400Y88056D01*
X149331Y87652D01*
X146472Y86468D01*
X144016Y84584D01*
X142132Y82128D01*
X142088Y82022D01*
Y95777D01*
X142132Y95672D01*
X144016Y93216D01*
X146472Y91332D01*
X149331Y90147D01*
X152400Y89743D01*
X155469Y90147D01*
X158328Y91332D01*
X160784Y93216D01*
X162668Y95672D01*
X163852Y98531D01*
X164256Y101600D01*
X163852Y104669D01*
X162668Y107528D01*
X160784Y109984D01*
X158328Y111868D01*
X155469Y113052D01*
X152400Y113456D01*
X149331Y113052D01*
X146472Y111868D01*
X145088Y110806D01*
Y117794D01*
X146472Y116732D01*
X149331Y115547D01*
X152400Y115143D01*
X155469Y115547D01*
X158328Y116732D01*
X160784Y118616D01*
X162668Y121072D01*
X163852Y123931D01*
X164256Y127000D01*
X163852Y130069D01*
X162668Y132928D01*
X160784Y135384D01*
X158328Y137268D01*
X155469Y138452D01*
X152400Y138856D01*
X149331Y138452D01*
X146472Y137268D01*
X145088Y136206D01*
Y137750D01*
X144739Y139506D01*
X144338Y140105D01*
Y143769D01*
X146472Y142132D01*
X149331Y140947D01*
X152400Y140543D01*
X155469Y140947D01*
X158328Y142132D01*
X160784Y144016D01*
X162668Y146472D01*
X163852Y149331D01*
X164256Y152400D01*
X163852Y155469D01*
X162668Y158328D01*
X160784Y160784D01*
X158328Y162668D01*
X155469Y163852D01*
X152400Y164256D01*
X149331Y163852D01*
X146472Y162668D01*
X144338Y161031D01*
Y165050D01*
X143989Y166805D01*
X142994Y168294D01*
X137897Y173391D01*
X138452Y174731D01*
X138856Y177800D01*
X138452Y180868D01*
X137268Y183728D01*
X136292Y185000D01*
X143108D01*
X142132Y183728D01*
X140947Y180868D01*
X140543Y177800D01*
X140947Y174731D01*
X142132Y171872D01*
X144016Y169416D01*
X146472Y167532D01*
X149331Y166347D01*
X152400Y165943D01*
X155469Y166347D01*
X158328Y167532D01*
X160784Y169416D01*
X162668Y171872D01*
X163852Y174731D01*
X164256Y177800D01*
X163852Y180868D01*
X162668Y183728D01*
X161692Y185000D01*
X168508D01*
X167532Y183728D01*
D02*
G37*
%LPC*%
G36*
X151150Y-166108D02*
X149331Y-166348D01*
X146472Y-167532D01*
X144016Y-169416D01*
X142132Y-171872D01*
X140947Y-174732D01*
X140708Y-176550D01*
X151150D01*
Y-166108D01*
D02*
G37*
G36*
X153650D02*
Y-176550D01*
X164092D01*
X163852Y-174732D01*
X162668Y-171872D01*
X160784Y-169416D01*
X158328Y-167532D01*
X155469Y-166348D01*
X153650Y-166108D01*
D02*
G37*
G36*
X152400Y-140544D02*
X149331Y-140948D01*
X146472Y-142132D01*
X144016Y-144016D01*
X142132Y-146472D01*
X140947Y-149332D01*
X140543Y-152400D01*
X140947Y-155469D01*
X142132Y-158328D01*
X144016Y-160784D01*
X146472Y-162668D01*
X149331Y-163853D01*
X152400Y-164257D01*
X155469Y-163853D01*
X158328Y-162668D01*
X160784Y-160784D01*
X162668Y-158328D01*
X163852Y-155469D01*
X164256Y-152400D01*
X163852Y-149332D01*
X162668Y-146472D01*
X160784Y-144016D01*
X158328Y-142132D01*
X155469Y-140948D01*
X152400Y-140544D01*
D02*
G37*
G36*
X-52050Y-153650D02*
X-62492D01*
X-62253Y-155469D01*
X-61068Y-158328D01*
X-59184Y-160784D01*
X-56728Y-162668D01*
X-53869Y-163853D01*
X-52050Y-164092D01*
Y-153650D01*
D02*
G37*
G36*
Y-140708D02*
X-53869Y-140948D01*
X-56728Y-142132D01*
X-59184Y-144016D01*
X-61068Y-146472D01*
X-62253Y-149332D01*
X-62492Y-151150D01*
X-52050D01*
Y-140708D01*
D02*
G37*
G36*
X-39108Y-153650D02*
X-49550D01*
Y-164092D01*
X-47731Y-163853D01*
X-44872Y-162668D01*
X-42416Y-160784D01*
X-40532Y-158328D01*
X-39348Y-155469D01*
X-39108Y-153650D01*
D02*
G37*
G36*
X91000Y-28694D02*
X89303Y-28917D01*
X87722Y-29572D01*
X86364Y-30614D01*
X85322Y-31972D01*
X84667Y-33553D01*
X84444Y-35250D01*
X84667Y-36947D01*
X85322Y-38528D01*
X86364Y-39886D01*
X87722Y-40928D01*
X89303Y-41582D01*
X91000Y-41806D01*
X92697Y-41582D01*
X94278Y-40928D01*
X95636Y-39886D01*
X96678Y-38528D01*
X97333Y-36947D01*
X97556Y-35250D01*
X97333Y-33553D01*
X96678Y-31972D01*
X95636Y-30614D01*
X94278Y-29572D01*
X92697Y-28917D01*
X91000Y-28694D01*
D02*
G37*
G36*
X-152400Y-38944D02*
X-155469Y-39348D01*
X-158328Y-40532D01*
X-160784Y-42416D01*
X-162668Y-44872D01*
X-163853Y-47731D01*
X-164257Y-50800D01*
X-163853Y-53869D01*
X-162668Y-56728D01*
X-160784Y-59184D01*
X-158328Y-61068D01*
X-155469Y-62253D01*
X-152400Y-62657D01*
X-149332Y-62253D01*
X-146472Y-61068D01*
X-144016Y-59184D01*
X-142132Y-56728D01*
X-140948Y-53869D01*
X-140544Y-50800D01*
X-140948Y-47731D01*
X-142132Y-44872D01*
X-144016Y-42416D01*
X-146472Y-40532D01*
X-149332Y-39348D01*
X-152400Y-38944D01*
D02*
G37*
G36*
Y-13544D02*
X-155469Y-13948D01*
X-158328Y-15132D01*
X-160784Y-17016D01*
X-162668Y-19472D01*
X-163853Y-22332D01*
X-164257Y-25400D01*
X-163853Y-28469D01*
X-162668Y-31328D01*
X-160784Y-33784D01*
X-158328Y-35668D01*
X-155469Y-36853D01*
X-152400Y-37257D01*
X-149332Y-36853D01*
X-146472Y-35668D01*
X-144016Y-33784D01*
X-142132Y-31328D01*
X-140948Y-28469D01*
X-140544Y-25400D01*
X-140948Y-22332D01*
X-142132Y-19472D01*
X-144016Y-17016D01*
X-146472Y-15132D01*
X-149332Y-13948D01*
X-152400Y-13544D01*
D02*
G37*
G36*
X151150Y-26650D02*
X140708D01*
X140947Y-28469D01*
X142132Y-31328D01*
X144016Y-33784D01*
X146472Y-35668D01*
X149331Y-36853D01*
X151150Y-37092D01*
Y-26650D01*
D02*
G37*
G36*
X-90500Y-22944D02*
X-92197Y-23168D01*
X-93778Y-23823D01*
X-95136Y-24864D01*
X-96178Y-26222D01*
X-96833Y-27803D01*
X-97056Y-29500D01*
X-96833Y-31197D01*
X-96178Y-32778D01*
X-95136Y-34136D01*
X-93778Y-35178D01*
X-92197Y-35833D01*
X-90500Y-36056D01*
X-88803Y-35833D01*
X-87222Y-35178D01*
X-85864Y-34136D01*
X-84822Y-32778D01*
X-84167Y-31197D01*
X-83944Y-29500D01*
X-84167Y-27803D01*
X-84822Y-26222D01*
X-85864Y-24864D01*
X-87222Y-23823D01*
X-88803Y-23168D01*
X-90500Y-22944D01*
D02*
G37*
G36*
X164092Y-26650D02*
X153650D01*
Y-37092D01*
X155469Y-36853D01*
X158328Y-35668D01*
X160784Y-33784D01*
X162668Y-31328D01*
X163852Y-28469D01*
X164092Y-26650D01*
D02*
G37*
G36*
X-153650Y-64508D02*
X-155469Y-64748D01*
X-158328Y-65932D01*
X-160784Y-67816D01*
X-162668Y-70272D01*
X-163853Y-73131D01*
X-164092Y-74950D01*
X-153650D01*
Y-64508D01*
D02*
G37*
G36*
X-151150D02*
Y-74950D01*
X-140708D01*
X-140948Y-73131D01*
X-142132Y-70272D01*
X-144016Y-67816D01*
X-146472Y-65932D01*
X-149332Y-64748D01*
X-151150Y-64508D01*
D02*
G37*
G36*
X-153650Y-77450D02*
X-164092D01*
X-163853Y-79269D01*
X-162668Y-82128D01*
X-160784Y-84584D01*
X-158328Y-86468D01*
X-155469Y-87653D01*
X-153650Y-87892D01*
Y-77450D01*
D02*
G37*
G36*
X-140708D02*
X-151150D01*
Y-87892D01*
X-149332Y-87653D01*
X-146472Y-86468D01*
X-144016Y-84584D01*
X-142132Y-82128D01*
X-140948Y-79269D01*
X-140708Y-77450D01*
D02*
G37*
G36*
X151150Y-13708D02*
X149331Y-13948D01*
X146472Y-15132D01*
X144016Y-17016D01*
X142132Y-19472D01*
X140947Y-22332D01*
X140708Y-24150D01*
X151150D01*
Y-13708D01*
D02*
G37*
G36*
X-127000Y164256D02*
X-130069Y163852D01*
X-132928Y162668D01*
X-135384Y160784D01*
X-137268Y158328D01*
X-138453Y155469D01*
X-138857Y152400D01*
X-138453Y149331D01*
X-137268Y146472D01*
X-135384Y144016D01*
X-132928Y142132D01*
X-130069Y140947D01*
X-127000Y140543D01*
X-123932Y140947D01*
X-121072Y142132D01*
X-118616Y144016D01*
X-116732Y146472D01*
X-115548Y149331D01*
X-115144Y152400D01*
X-115548Y155469D01*
X-116732Y158328D01*
X-118616Y160784D01*
X-121072Y162668D01*
X-123932Y163852D01*
X-127000Y164256D01*
D02*
G37*
G36*
X-101600D02*
X-104669Y163852D01*
X-107528Y162668D01*
X-109984Y160784D01*
X-111868Y158328D01*
X-113053Y155469D01*
X-113457Y152400D01*
X-113053Y149331D01*
X-111868Y146472D01*
X-109984Y144016D01*
X-107528Y142132D01*
X-104669Y140947D01*
X-101600Y140543D01*
X-98532Y140947D01*
X-95672Y142132D01*
X-93216Y144016D01*
X-91332Y146472D01*
X-90148Y149331D01*
X-89744Y152400D01*
X-90148Y155469D01*
X-91332Y158328D01*
X-93216Y160784D01*
X-95672Y162668D01*
X-98532Y163852D01*
X-101600Y164256D01*
D02*
G37*
G36*
X-152400Y138856D02*
X-155469Y138452D01*
X-158328Y137268D01*
X-160784Y135384D01*
X-162668Y132928D01*
X-163853Y130069D01*
X-164257Y127000D01*
X-163853Y123931D01*
X-162668Y121072D01*
X-160784Y118616D01*
X-158328Y116732D01*
X-155469Y115547D01*
X-152400Y115143D01*
X-149332Y115547D01*
X-146472Y116732D01*
X-144016Y118616D01*
X-142132Y121072D01*
X-140948Y123931D01*
X-140544Y127000D01*
X-140948Y130069D01*
X-142132Y132928D01*
X-144016Y135384D01*
X-146472Y137268D01*
X-149332Y138452D01*
X-152400Y138856D01*
D02*
G37*
G36*
Y113456D02*
X-155469Y113052D01*
X-158328Y111868D01*
X-160784Y109984D01*
X-162668Y107528D01*
X-163853Y104669D01*
X-164257Y101600D01*
X-163853Y98531D01*
X-162668Y95672D01*
X-160784Y93216D01*
X-158328Y91332D01*
X-155469Y90147D01*
X-152400Y89743D01*
X-149332Y90147D01*
X-146472Y91332D01*
X-144016Y93216D01*
X-142132Y95672D01*
X-140948Y98531D01*
X-140544Y101600D01*
X-140948Y104669D01*
X-142132Y107528D01*
X-144016Y109984D01*
X-146472Y111868D01*
X-149332Y113052D01*
X-152400Y113456D01*
D02*
G37*
G36*
X-92545Y134255D02*
X-116055D01*
Y110745D01*
X-92545D01*
Y134255D01*
D02*
G37*
G36*
X-76200Y164256D02*
X-79269Y163852D01*
X-82128Y162668D01*
X-84584Y160784D01*
X-86468Y158328D01*
X-87653Y155469D01*
X-88057Y152400D01*
X-87653Y149331D01*
X-86468Y146472D01*
X-84584Y144016D01*
X-82128Y142132D01*
X-79269Y140947D01*
X-76200Y140543D01*
X-73131Y140947D01*
X-70272Y142132D01*
X-67816Y144016D01*
X-65932Y146472D01*
X-64748Y149331D01*
X-64344Y152400D01*
X-64748Y155469D01*
X-65932Y158328D01*
X-67816Y160784D01*
X-70272Y162668D01*
X-73131Y163852D01*
X-76200Y164256D01*
D02*
G37*
G36*
X-102850Y176550D02*
X-113292D01*
X-113053Y174731D01*
X-111868Y171872D01*
X-109984Y169416D01*
X-107528Y167532D01*
X-104669Y166347D01*
X-102850Y166108D01*
Y176550D01*
D02*
G37*
G36*
X-89908D02*
X-100350D01*
Y166108D01*
X-98532Y166347D01*
X-95672Y167532D01*
X-93216Y169416D01*
X-91332Y171872D01*
X-90148Y174731D01*
X-89908Y176550D01*
D02*
G37*
G36*
X49550Y164092D02*
X47731Y163852D01*
X44872Y162668D01*
X42416Y160784D01*
X40532Y158328D01*
X39347Y155469D01*
X39108Y153650D01*
X49550D01*
Y164092D01*
D02*
G37*
G36*
X-140645Y164155D02*
X-164155D01*
Y140645D01*
X-140645D01*
Y164155D01*
D02*
G37*
G36*
X49550Y151150D02*
X39108D01*
X39347Y149331D01*
X40532Y146472D01*
X42416Y144016D01*
X44872Y142132D01*
X47731Y140947D01*
X49550Y140708D01*
Y151150D01*
D02*
G37*
G36*
X-176550Y87892D02*
Y77450D01*
X-166108D01*
X-166348Y79268D01*
X-167532Y82128D01*
X-169416Y84584D01*
X-171872Y86468D01*
X-174732Y87652D01*
X-176550Y87892D01*
D02*
G37*
G36*
X-152400Y37256D02*
X-155469Y36852D01*
X-158328Y35668D01*
X-160784Y33784D01*
X-162668Y31328D01*
X-163853Y28468D01*
X-164257Y25400D01*
X-163853Y22331D01*
X-162668Y19472D01*
X-160784Y17016D01*
X-158328Y15132D01*
X-155469Y13947D01*
X-152400Y13543D01*
X-149332Y13947D01*
X-146472Y15132D01*
X-144016Y17016D01*
X-142132Y19472D01*
X-140948Y22331D01*
X-140544Y25400D01*
X-140948Y28468D01*
X-142132Y31328D01*
X-144016Y33784D01*
X-146472Y35668D01*
X-149332Y36852D01*
X-152400Y37256D01*
D02*
G37*
G36*
X-66250Y35306D02*
X-67947Y35083D01*
X-69528Y34428D01*
X-70886Y33386D01*
X-71928Y32028D01*
X-72583Y30447D01*
X-72806Y28750D01*
X-72583Y27053D01*
X-71928Y25472D01*
X-70886Y24114D01*
X-69528Y23072D01*
X-67947Y22417D01*
X-66250Y22194D01*
X-64553Y22417D01*
X-62972Y23072D01*
X-61614Y24114D01*
X-60572Y25472D01*
X-59917Y27053D01*
X-59694Y28750D01*
X-59917Y30447D01*
X-60572Y32028D01*
X-61614Y33386D01*
X-62972Y34428D01*
X-64553Y35083D01*
X-66250Y35306D01*
D02*
G37*
G36*
X-92000Y17056D02*
X-93697Y16833D01*
X-95278Y16178D01*
X-96636Y15136D01*
X-97678Y13778D01*
X-98333Y12197D01*
X-98556Y10500D01*
X-98333Y8803D01*
X-97678Y7222D01*
X-96636Y5864D01*
X-95278Y4823D01*
X-93697Y4168D01*
X-92000Y3944D01*
X-90303Y4168D01*
X-88722Y4823D01*
X-87364Y5864D01*
X-86322Y7222D01*
X-85667Y8803D01*
X-85444Y10500D01*
X-85667Y12197D01*
X-86322Y13778D01*
X-87364Y15136D01*
X-88722Y16178D01*
X-90303Y16833D01*
X-92000Y17056D01*
D02*
G37*
G36*
X153650Y-13708D02*
Y-24150D01*
X164092D01*
X163852Y-22332D01*
X162668Y-19472D01*
X160784Y-17016D01*
X158328Y-15132D01*
X155469Y-13948D01*
X153650Y-13708D01*
D02*
G37*
G36*
X-152400Y11856D02*
X-155469Y11452D01*
X-158328Y10268D01*
X-160784Y8384D01*
X-162668Y5928D01*
X-163853Y3068D01*
X-164257Y-0D01*
X-163853Y-3069D01*
X-162668Y-5928D01*
X-160784Y-8384D01*
X-158328Y-10268D01*
X-155469Y-11453D01*
X-152400Y-11857D01*
X-149332Y-11453D01*
X-146472Y-10268D01*
X-144016Y-8384D01*
X-142132Y-5928D01*
X-140948Y-3069D01*
X-140544Y-0D01*
X-140948Y3068D01*
X-142132Y5928D01*
X-144016Y8384D01*
X-146472Y10268D01*
X-149332Y11452D01*
X-152400Y11856D01*
D02*
G37*
G36*
Y62656D02*
X-155469Y62252D01*
X-158328Y61068D01*
X-160784Y59184D01*
X-162668Y56728D01*
X-163853Y53868D01*
X-164257Y50800D01*
X-163853Y47731D01*
X-162668Y44872D01*
X-160784Y42416D01*
X-158328Y40532D01*
X-155469Y39347D01*
X-152400Y38943D01*
X-149332Y39347D01*
X-146472Y40532D01*
X-144016Y42416D01*
X-142132Y44872D01*
X-140948Y47731D01*
X-140544Y50800D01*
X-140948Y53868D01*
X-142132Y56728D01*
X-144016Y59184D01*
X-146472Y61068D01*
X-149332Y62252D01*
X-152400Y62656D01*
D02*
G37*
G36*
X-33000Y79056D02*
X-34697Y78833D01*
X-36278Y78178D01*
X-37636Y77136D01*
X-38678Y75778D01*
X-39332Y74197D01*
X-39556Y72500D01*
X-39332Y70803D01*
X-38678Y69222D01*
X-37636Y67864D01*
X-36278Y66822D01*
X-34697Y66167D01*
X-33000Y65944D01*
X-31303Y66167D01*
X-29722Y66822D01*
X-28364Y67864D01*
X-27322Y69222D01*
X-26667Y70803D01*
X-26444Y72500D01*
X-26667Y74197D01*
X-27322Y75778D01*
X-28364Y77136D01*
X-29722Y78178D01*
X-31303Y78833D01*
X-33000Y79056D01*
D02*
G37*
G36*
X21000Y81056D02*
X19303Y80833D01*
X17722Y80178D01*
X16364Y79136D01*
X15322Y77778D01*
X14667Y76197D01*
X14444Y74500D01*
X14667Y72803D01*
X15322Y71222D01*
X16364Y69864D01*
X17722Y68822D01*
X19303Y68167D01*
X21000Y67944D01*
X22697Y68167D01*
X24278Y68822D01*
X25636Y69864D01*
X26678Y71222D01*
X27333Y72803D01*
X27556Y74500D01*
X27333Y76197D01*
X26678Y77778D01*
X25636Y79136D01*
X24278Y80178D01*
X22697Y80833D01*
X21000Y81056D01*
D02*
G37*
G36*
X-166108Y74950D02*
X-176550D01*
Y64508D01*
X-174732Y64747D01*
X-171872Y65932D01*
X-169416Y67816D01*
X-167532Y70272D01*
X-166348Y73131D01*
X-166108Y74950D01*
D02*
G37*
G36*
X-89250Y68056D02*
X-90947Y67833D01*
X-92528Y67178D01*
X-93886Y66136D01*
X-94928Y64778D01*
X-95583Y63197D01*
X-95806Y61500D01*
X-95583Y59803D01*
X-94928Y58222D01*
X-93886Y56864D01*
X-92968Y56160D01*
X-93528Y55928D01*
X-94886Y54886D01*
X-95928Y53528D01*
X-96583Y51947D01*
X-96806Y50250D01*
X-96583Y48553D01*
X-95928Y46972D01*
X-94886Y45614D01*
X-93528Y44573D01*
X-91947Y43917D01*
X-90250Y43694D01*
X-88553Y43917D01*
X-86972Y44573D01*
X-85614Y45614D01*
X-84572Y46972D01*
X-83917Y48553D01*
X-83694Y50250D01*
X-83917Y51947D01*
X-84572Y53528D01*
X-85614Y54886D01*
X-86532Y55590D01*
X-85972Y55822D01*
X-84614Y56864D01*
X-83572Y58222D01*
X-82917Y59803D01*
X-82694Y61500D01*
X-82917Y63197D01*
X-83572Y64778D01*
X-84614Y66136D01*
X-85972Y67178D01*
X-87553Y67833D01*
X-89250Y68056D01*
D02*
G37*
G36*
X-152400Y88056D02*
X-155469Y87652D01*
X-158328Y86468D01*
X-160784Y84584D01*
X-162668Y82128D01*
X-163853Y79268D01*
X-164257Y76200D01*
X-163853Y73131D01*
X-162668Y70272D01*
X-160784Y67816D01*
X-158328Y65932D01*
X-155469Y64747D01*
X-152400Y64343D01*
X-149332Y64747D01*
X-146472Y65932D01*
X-144016Y67816D01*
X-142132Y70272D01*
X-140948Y73131D01*
X-140544Y76200D01*
X-140948Y79268D01*
X-142132Y82128D01*
X-144016Y84584D01*
X-146472Y86468D01*
X-149332Y87652D01*
X-152400Y88056D01*
D02*
G37*
%LPD*%
D13*
X-80250Y-131050D02*
Y-92750D01*
X-101600Y-152400D02*
X-80250Y-131050D01*
X-73250Y-131250D02*
Y-105250D01*
X-89000Y-147000D02*
X-73250Y-131250D01*
X-89000Y-165200D02*
Y-147000D01*
X133000Y33250D02*
Y108000D01*
X137500Y105500D02*
X140500Y108499D01*
X137500Y30750D02*
Y105500D01*
X10000Y130250D02*
X13000Y133250D01*
X10000Y114500D02*
Y130250D01*
X0Y104500D02*
X10000Y114500D01*
X-0Y177800D02*
X13000Y164800D01*
Y133250D02*
Y164800D01*
X0Y-18250D02*
Y104500D01*
X-15250Y137150D02*
X-0Y152400D01*
X-15250Y112000D02*
Y137150D01*
Y112000D02*
X-8500Y105250D01*
Y-25750D02*
Y105250D01*
X-7000Y-108000D02*
X-3250Y-111750D01*
X-40750Y112750D02*
Y137050D01*
X-50750Y102750D02*
X-40750Y112750D01*
X-50750Y68000D02*
Y102750D01*
X-40750Y137050D02*
X-25400Y152400D01*
X-50750Y68000D02*
X-32750Y50000D01*
Y-10000D02*
Y50000D01*
X-66250Y136950D02*
X-50800Y152400D01*
X-66250Y107250D02*
Y136950D01*
X-70500Y103000D02*
X-66250Y107250D01*
X-70500Y53000D02*
Y103000D01*
Y53000D02*
X-55000Y37500D01*
Y5750D02*
Y37500D01*
X-73250Y-105250D02*
X-69500Y-101500D01*
X63750Y165350D02*
X76200Y177800D01*
X63750Y135500D02*
Y165350D01*
X61000Y132750D02*
X63750Y135500D01*
X61000Y113250D02*
Y132750D01*
Y113250D02*
X68750Y105500D01*
Y22250D02*
Y105500D01*
X76200Y152400D02*
X86250Y142350D01*
Y117000D02*
Y142350D01*
X82250Y113000D02*
X86250Y117000D01*
X82250Y99750D02*
Y113000D01*
Y99750D02*
X114750Y67250D01*
Y38250D02*
Y67250D01*
X89750Y13250D02*
X114750Y38250D01*
X69750Y13250D02*
X89750D01*
X66250Y5750D02*
X91000D01*
X61000Y11000D02*
X66250Y5750D01*
X61000Y11000D02*
Y18500D01*
X91000Y5750D02*
X120500Y35250D01*
X62000Y500D02*
X93000D01*
X54250Y8250D02*
X62000Y500D01*
X54250Y8250D02*
Y12000D01*
X93000Y500D02*
X127500Y35000D01*
X97250Y-9500D02*
X137500Y30750D01*
X47250Y-9500D02*
X97250D01*
X39750Y-2000D02*
X47250Y-9500D01*
X95250Y-4500D02*
X133000Y33250D01*
X53750Y-4500D02*
X95250D01*
X51000Y-1750D02*
X53750Y-4500D01*
X120500Y35250D02*
Y86278D01*
X127500Y35000D02*
Y85500D01*
X138900Y25400D02*
X152400D01*
X99000Y-14500D02*
X138900Y25400D01*
X57250Y-14500D02*
X99000D01*
X105000Y101777D02*
Y108250D01*
X101600Y152400D02*
X111500Y142500D01*
Y101500D02*
Y142500D01*
Y101500D02*
X127500Y85500D01*
X127000Y141500D02*
X136100Y132400D01*
Y111100D02*
Y132400D01*
X140500Y108499D02*
Y137750D01*
X133000Y108000D02*
X136100Y111100D01*
X105000Y101777D02*
X120500Y86278D01*
X121000Y-0D02*
X152400D01*
X100900Y-20100D02*
X121000Y-0D01*
X67650Y-20100D02*
X100900D01*
X139750Y138500D02*
X140500Y137750D01*
X139750Y138500D02*
Y165050D01*
X127000Y141500D02*
Y152400D01*
Y177800D02*
X139750Y165050D01*
X62250Y-80250D02*
X137750D01*
X51750Y-90750D02*
X62250Y-80250D01*
X60650Y-105150D02*
Y-93650D01*
Y-105150D02*
X64750Y-109250D01*
X45250Y-90750D02*
X51750D01*
X57250Y-75500D02*
X134750D01*
X52250Y-80500D02*
X57250Y-75500D01*
X38000Y-84750D02*
X52000Y-70750D01*
X132450D01*
X-165050Y-114250D02*
X-146000D01*
X-177800Y-127000D02*
X-165050Y-114250D01*
X-146250Y-139750D02*
X-139000Y-132500D01*
X-165150Y-139750D02*
X-146250D01*
X-177800Y-152400D02*
X-165150Y-139750D01*
X-152400Y-152400D02*
X-134000Y-134000D01*
X-72500Y-63250D02*
Y-53000D01*
X-134000Y-134000D02*
Y-127500D01*
X-152400Y-177800D02*
X-139500Y-164900D01*
Y-146250D01*
X-129000Y-135750D01*
Y-129750D01*
X-69250Y-70000D01*
X-101600Y-177800D02*
X-89000Y-165200D01*
X-69500Y-101500D02*
Y-93500D01*
X-19500Y-138750D02*
X-13000Y-145250D01*
Y-164800D02*
Y-145250D01*
Y-164800D02*
X-0Y-177800D01*
X5499Y-132500D02*
X25400Y-152400D01*
Y-177800D02*
X38000Y-165200D01*
X23500Y-121750D02*
X50800Y-149050D01*
Y-152400D02*
Y-149050D01*
X21250Y-126750D02*
X38000Y-143500D01*
Y-165200D02*
Y-143500D01*
X-56000Y-91750D02*
X-49850Y-97900D01*
X-45250Y-114250D02*
Y-91500D01*
Y-114250D02*
X-37750Y-121750D01*
X23500D01*
X-49850Y-117149D02*
Y-97900D01*
Y-117149D02*
X-40250Y-126750D01*
X21250D01*
X-56250Y-117750D02*
Y-102000D01*
Y-117750D02*
X-41500Y-132500D01*
X5499D01*
X-64250Y-117000D02*
Y-107500D01*
Y-117000D02*
X-42500Y-138750D01*
X-19500D01*
X-134000Y-127500D02*
X-76250Y-69750D01*
Y-67000D01*
X-72500Y-63250D01*
X-139000Y-132500D02*
Y-124750D01*
X-101000Y-86750D01*
Y-76199D02*
X-85804Y-61003D01*
X-101000Y-86750D02*
Y-76199D01*
X-85804Y-61003D02*
X-80253D01*
X-146000Y-114250D02*
X-90000Y-58250D01*
Y-51000D01*
X-14750Y-112750D02*
Y-102250D01*
Y-112750D02*
X-11000Y-116500D01*
X34500D01*
X63500Y-145500D01*
Y-158750D02*
Y-145500D01*
Y-158750D02*
X70000Y-165250D01*
X89050D01*
X101600Y-177800D01*
X-3250Y-111750D02*
X38750D01*
X65250Y-138250D01*
X112850D01*
X127000Y-152400D01*
X16250Y-97000D02*
X21750Y-91500D01*
X165250Y-139851D02*
X177800Y-152400D01*
X165250Y-139851D02*
Y-119500D01*
X160000Y-114250D02*
X165250Y-119500D01*
X58000Y-114250D02*
X160000D01*
X30500Y-86750D02*
X58000Y-114250D01*
X12250Y-86750D02*
X30500D01*
X9500Y-89500D02*
X12250Y-86750D01*
X21750Y-91500D02*
X28000D01*
X146500Y-89000D02*
X165000D01*
X177800Y-76200D01*
X132450Y-70750D02*
X152400Y-50800D01*
X134750Y-75500D02*
X146750Y-63500D01*
X165100D01*
X177800Y-50800D01*
X137750Y-80250D02*
X146500Y-89000D01*
X144750Y-109250D02*
X152400Y-101600D01*
X64750Y-109250D02*
X144750D01*
X28000Y-91500D02*
X67500Y-131000D01*
X148400D01*
X152400Y-127000D01*
X65750Y-22000D02*
X67650Y-20100D01*
X59750Y-92750D02*
X60650Y-93650D01*
X53500Y-18250D02*
X57250Y-14500D01*
D14*
X-193040Y181610D02*
X-181610Y193040D01*
X193040D01*
Y-193040D02*
Y193040D01*
X-193040Y-193040D02*
X193040D01*
X-193040D02*
Y181610D01*
D15*
X177800Y-152400D02*
D03*
Y-76200D02*
D03*
Y-50800D02*
D03*
X152400Y-177800D02*
D03*
Y-127000D02*
D03*
Y-101600D02*
D03*
Y-76200D02*
D03*
Y-50800D02*
D03*
Y-25400D02*
D03*
Y-0D02*
D03*
Y25400D02*
D03*
X127000Y-152400D02*
D03*
Y152400D02*
D03*
Y177800D02*
D03*
X101600Y-177800D02*
D03*
Y152400D02*
D03*
X76200Y-152400D02*
D03*
Y152400D02*
D03*
Y177800D02*
D03*
X50800Y-152400D02*
D03*
Y152400D02*
D03*
X25400Y-177800D02*
D03*
Y-152400D02*
D03*
X-0Y-177800D02*
D03*
Y152400D02*
D03*
Y177800D02*
D03*
X-25400Y152400D02*
D03*
X-50800Y-152400D02*
D03*
Y152400D02*
D03*
X-101600Y-177800D02*
D03*
Y-152400D02*
D03*
Y177800D02*
D03*
X-152400Y-177800D02*
D03*
Y-76200D02*
D03*
X-177800Y-152400D02*
D03*
Y-127000D02*
D03*
Y76200D02*
D03*
X-152400Y-152400D02*
D03*
X124300Y122500D02*
D03*
D17*
X-94500Y-135750D02*
D03*
X-8500Y-25750D02*
D03*
X-7000Y-108000D02*
D03*
X0Y-18250D02*
D03*
X-32750Y-10000D02*
D03*
X-55000Y5750D02*
D03*
X105000Y108250D02*
D03*
X68750Y22250D02*
D03*
X54250Y12000D02*
D03*
X98000Y103000D02*
D03*
X89750Y111000D02*
D03*
X52250Y-80500D02*
D03*
X120500Y-64000D02*
D03*
X91250Y-26500D02*
D03*
X-90000Y-51000D02*
D03*
X-80253Y-61003D02*
D03*
X-72500Y-53000D02*
D03*
X-69250Y-70000D02*
D03*
X-80250Y-92750D02*
D03*
X-69500Y-93500D02*
D03*
X-64250Y-107500D02*
D03*
X-56250Y-102000D02*
D03*
X-56000Y-91750D02*
D03*
X-45250Y-91500D02*
D03*
X-35000Y-94250D02*
D03*
X-65500Y-78000D02*
D03*
X-90500Y-41500D02*
D03*
X-123750Y2750D02*
D03*
X-91250Y35250D02*
D03*
X-42500Y74000D02*
D03*
X-14750Y-102250D02*
D03*
X16250Y-97000D02*
D03*
X9500Y-89500D02*
D03*
X25250Y-98250D02*
D03*
X45250Y-90750D02*
D03*
X38000Y-84750D02*
D03*
X54250Y-101000D02*
D03*
X97000Y-123000D02*
D03*
X91500Y-49250D02*
D03*
X9500Y74500D02*
D03*
X39750Y-2000D02*
D03*
X53500Y-18250D02*
D03*
X51000Y-1750D02*
D03*
X61000Y18500D02*
D03*
X69750Y13250D02*
D03*
X65750Y-22000D02*
D03*
X59750Y-92750D02*
D03*
X89254Y25251D02*
D03*
M02*
