G04 Layer_Color=128*
%FSLAX44Y44*%
%MOMM*%
G71*
G01*
G75*
%ADD14C,0.3500*%
%ADD33C,0.0508*%
D14*
X-193040Y181610D02*
X-181610Y193040D01*
X193040D01*
Y-193040D02*
Y193040D01*
X-193040Y-193040D02*
X193040D01*
X-193040D02*
Y181610D01*
D33*
X173355Y-177800D02*
X182245D01*
X177800Y-182245D02*
Y-173355D01*
X173355Y-152400D02*
X182245D01*
X177800Y-156845D02*
Y-147955D01*
X173355Y-127000D02*
X182245D01*
X177800Y-131445D02*
Y-122555D01*
X173355Y-101600D02*
X182245D01*
X177800Y-106045D02*
Y-97155D01*
X173355Y-76200D02*
X182245D01*
X177800Y-80645D02*
Y-71755D01*
X173355Y-50800D02*
X182245D01*
X177800Y-55245D02*
Y-46355D01*
X173355Y-25400D02*
X182245D01*
X177800Y-29845D02*
Y-20955D01*
X173355Y-0D02*
X182245D01*
X177800Y-4445D02*
Y4445D01*
X173355Y25400D02*
X182245D01*
X177800Y20955D02*
Y29845D01*
X173355Y50800D02*
X182245D01*
X177800Y46355D02*
Y55245D01*
X173355Y76200D02*
X182245D01*
X177800Y71755D02*
Y80645D01*
X173355Y101600D02*
X182245D01*
X177800Y97155D02*
Y106045D01*
X173355Y127000D02*
X182245D01*
X177800Y122555D02*
Y131445D01*
X173355Y152400D02*
X182245D01*
X177800Y147955D02*
Y156845D01*
X173355Y177800D02*
X182245D01*
X177800Y173355D02*
Y182245D01*
X147955Y-177800D02*
X156845D01*
X152400Y-182245D02*
Y-173355D01*
X147955Y-127000D02*
X156845D01*
X152400Y-131445D02*
Y-122555D01*
X147955Y-101600D02*
X156845D01*
X152400Y-106045D02*
Y-97155D01*
X147955Y-76200D02*
X156845D01*
X152400Y-80645D02*
Y-71755D01*
X147955Y-50800D02*
X156845D01*
X152400Y-55245D02*
Y-46355D01*
X147955Y-25400D02*
X156845D01*
X152400Y-29845D02*
Y-20955D01*
X147955Y-0D02*
X156845D01*
X152400Y-4445D02*
Y4445D01*
X147955Y25400D02*
X156845D01*
X152400Y20955D02*
Y29845D01*
X147955Y50800D02*
X156845D01*
X152400Y46355D02*
Y55245D01*
X147955Y76200D02*
X156845D01*
X152400Y71755D02*
Y80645D01*
X147955Y101600D02*
X156845D01*
X152400Y97155D02*
Y106045D01*
X147955Y127000D02*
X156845D01*
X152400Y122555D02*
Y131445D01*
X147955Y177800D02*
X156845D01*
X152400Y173355D02*
Y182245D01*
X122555Y-177800D02*
X131445D01*
X127000Y-182245D02*
Y-173355D01*
X122555Y-152400D02*
X131445D01*
X127000Y-156845D02*
Y-147955D01*
X122555Y152400D02*
X131445D01*
X127000Y147955D02*
Y156845D01*
X122555Y177800D02*
X131445D01*
X127000Y173355D02*
Y182245D01*
X97155Y-177800D02*
X106045D01*
X101600Y-182245D02*
Y-173355D01*
X97155Y-152400D02*
X106045D01*
X101600Y-156845D02*
Y-147955D01*
X97155Y152400D02*
X106045D01*
X101600Y147955D02*
Y156845D01*
X97155Y177800D02*
X106045D01*
X101600Y173355D02*
Y182245D01*
X71755Y-177800D02*
X80645D01*
X76200Y-182245D02*
Y-173355D01*
X71755Y-152400D02*
X80645D01*
X76200Y-156845D02*
Y-147955D01*
X71755Y152400D02*
X80645D01*
X76200Y147955D02*
Y156845D01*
X71755Y177800D02*
X80645D01*
X76200Y173355D02*
Y182245D01*
X46355Y-177800D02*
X55245D01*
X50800Y-182245D02*
Y-173355D01*
X46355Y-152400D02*
X55245D01*
X50800Y-156845D02*
Y-147955D01*
X46355Y152400D02*
X55245D01*
X50800Y147955D02*
Y156845D01*
X46355Y177800D02*
X55245D01*
X50800Y173355D02*
Y182245D01*
X20955Y-177800D02*
X29845D01*
X25400Y-182245D02*
Y-173355D01*
X20955Y-152400D02*
X29845D01*
X25400Y-156845D02*
Y-147955D01*
X20955Y152400D02*
X29845D01*
X25400Y147955D02*
Y156845D01*
X20955Y177800D02*
X29845D01*
X25400Y173355D02*
Y182245D01*
X-4445Y-177800D02*
X4445D01*
X-0Y-182245D02*
Y-173355D01*
X-4445Y-152400D02*
X4445D01*
X-0Y-156845D02*
Y-147955D01*
X-4445Y152400D02*
X4445D01*
X-0Y147955D02*
Y156845D01*
X-4445Y177800D02*
X4445D01*
X-0Y173355D02*
Y182245D01*
X-29845Y-177800D02*
X-20955D01*
X-25400Y-182245D02*
Y-173355D01*
X-29845Y-152400D02*
X-20955D01*
X-25400Y-156845D02*
Y-147955D01*
X-29845Y152400D02*
X-20955D01*
X-25400Y147955D02*
Y156845D01*
X-29845Y177800D02*
X-20955D01*
X-25400Y173355D02*
Y182245D01*
X-55245Y-177800D02*
X-46355D01*
X-50800Y-182245D02*
Y-173355D01*
X-55245Y-152400D02*
X-46355D01*
X-50800Y-156845D02*
Y-147955D01*
X-55245Y152400D02*
X-46355D01*
X-50800Y147955D02*
Y156845D01*
X-55245Y177800D02*
X-46355D01*
X-50800Y173355D02*
Y182245D01*
X-80645Y-177800D02*
X-71755D01*
X-76200Y-182245D02*
Y-173355D01*
X-80645Y-152400D02*
X-71755D01*
X-76200Y-156845D02*
Y-147955D01*
X-80645Y152400D02*
X-71755D01*
X-76200Y147955D02*
Y156845D01*
X-80645Y177800D02*
X-71755D01*
X-76200Y173355D02*
Y182245D01*
X-106045Y-177800D02*
X-97155D01*
X-101600Y-182245D02*
Y-173355D01*
X-106045Y-152400D02*
X-97155D01*
X-101600Y-156845D02*
Y-147955D01*
X-106045Y152400D02*
X-97155D01*
X-101600Y147955D02*
Y156845D01*
X-106045Y177800D02*
X-97155D01*
X-101600Y173355D02*
Y182245D01*
X-131445Y-177800D02*
X-122555D01*
X-127000Y-182245D02*
Y-173355D01*
X-131445Y-152400D02*
X-122555D01*
X-127000Y-156845D02*
Y-147955D01*
X-131445Y152400D02*
X-122555D01*
X-127000Y147955D02*
Y156845D01*
X-131445Y177800D02*
X-122555D01*
X-127000Y173355D02*
Y182245D01*
X-156845Y-177800D02*
X-147955D01*
X-152400Y-182245D02*
Y-173355D01*
X-156845Y-127000D02*
X-147955D01*
X-152400Y-131445D02*
Y-122555D01*
X-156845Y-101600D02*
X-147955D01*
X-152400Y-106045D02*
Y-97155D01*
X-156845Y-76200D02*
X-147955D01*
X-152400Y-80645D02*
Y-71755D01*
X-156845Y-50800D02*
X-147955D01*
X-152400Y-55245D02*
Y-46355D01*
X-156845Y-25400D02*
X-147955D01*
X-152400Y-29845D02*
Y-20955D01*
X-156845Y-0D02*
X-147955D01*
X-152400Y-4445D02*
Y4445D01*
X-156845Y25400D02*
X-147955D01*
X-152400Y20955D02*
Y29845D01*
X-156845Y50800D02*
X-147955D01*
X-152400Y46355D02*
Y55245D01*
X-156845Y76200D02*
X-147955D01*
X-152400Y71755D02*
Y80645D01*
X-156845Y101600D02*
X-147955D01*
X-152400Y97155D02*
Y106045D01*
X-156845Y127000D02*
X-147955D01*
X-152400Y122555D02*
Y131445D01*
X-156845Y177800D02*
X-147955D01*
X-152400Y173355D02*
Y182245D01*
X-182245Y-177800D02*
X-173355D01*
X-177800Y-182245D02*
Y-173355D01*
X-182245Y-152400D02*
X-173355D01*
X-177800Y-156845D02*
Y-147955D01*
X-182245Y-127000D02*
X-173355D01*
X-177800Y-131445D02*
Y-122555D01*
X-182245Y-101600D02*
X-173355D01*
X-177800Y-106045D02*
Y-97155D01*
X-182245Y-76200D02*
X-173355D01*
X-177800Y-80645D02*
Y-71755D01*
X-182245Y-50800D02*
X-173355D01*
X-177800Y-55245D02*
Y-46355D01*
X-182245Y-25400D02*
X-173355D01*
X-177800Y-29845D02*
Y-20955D01*
X-182245Y-0D02*
X-173355D01*
X-177800Y-4445D02*
Y4445D01*
X-182245Y25400D02*
X-173355D01*
X-177800Y20955D02*
Y29845D01*
X-182245Y50800D02*
X-173355D01*
X-177800Y46355D02*
Y55245D01*
X-182245Y76200D02*
X-173355D01*
X-177800Y71755D02*
Y80645D01*
X-182245Y101600D02*
X-173355D01*
X-177800Y97155D02*
Y106045D01*
X-182245Y127000D02*
X-173355D01*
X-177800Y122555D02*
Y131445D01*
X-182245Y152400D02*
X-173355D01*
X-177800Y147955D02*
Y156845D01*
X-182245Y177800D02*
X-173355D01*
X-177800Y173355D02*
Y182245D01*
X-156845Y152400D02*
X-147955D01*
X-152400Y147955D02*
Y156845D01*
X-156845Y-152400D02*
X-147955D01*
X-152400Y-156845D02*
Y-147955D01*
X147955Y-152400D02*
X156845D01*
X152400Y-156845D02*
Y-147955D01*
X147955Y152400D02*
X156845D01*
X152400Y147955D02*
Y156845D01*
X-58580Y122500D02*
X-48420D01*
X-53500Y117420D02*
Y127580D01*
X119220Y122500D02*
X129380D01*
X124300Y117420D02*
Y127580D01*
X93820Y122500D02*
X103980D01*
X98900Y117420D02*
Y127580D01*
X68420Y122500D02*
X78580D01*
X73500Y117420D02*
Y127580D01*
X43020Y122500D02*
X53180D01*
X48100Y117420D02*
Y127580D01*
X17620Y122500D02*
X27780D01*
X22700Y117420D02*
Y127580D01*
X-7780Y122500D02*
X2380D01*
X-2700Y117420D02*
Y127580D01*
X-33180Y122500D02*
X-23020D01*
X-28100Y117420D02*
Y127580D01*
X-83980Y122500D02*
X-73820D01*
X-78900Y117420D02*
Y127580D01*
X-109380Y122500D02*
X-99220D01*
X-104300Y117420D02*
Y127580D01*
X-96000Y-135750D02*
X-93000D01*
X-94500Y-137250D02*
Y-134250D01*
X124500Y99500D02*
X127500D01*
X126000Y98000D02*
Y101000D01*
X-10000Y-25750D02*
X-7000D01*
X-8500Y-27250D02*
Y-24250D01*
X-8500Y-108000D02*
X-5500D01*
X-7000Y-109500D02*
Y-106500D01*
X-1500Y-18250D02*
X1500D01*
X0Y-19750D02*
Y-16750D01*
X-34250Y-10000D02*
X-31250D01*
X-32750Y-11500D02*
Y-8500D01*
X-25500Y-2500D02*
X-22500D01*
X-24000Y-4000D02*
Y-1000D01*
X-54750Y51500D02*
X-51750D01*
X-53250Y50000D02*
Y53000D01*
X-56500Y5750D02*
X-53500D01*
X-55000Y4250D02*
Y7250D01*
X-42500Y13750D02*
X-39500D01*
X-41000Y12250D02*
Y15250D01*
X-48500Y21750D02*
X-45500D01*
X-47000Y20250D02*
Y23250D01*
X-67750Y28750D02*
X-64750D01*
X-66250Y27250D02*
Y30250D01*
X-81750Y35500D02*
X-78750D01*
X-80250Y34000D02*
Y37000D01*
X-74250Y42250D02*
X-71250D01*
X-72750Y40750D02*
Y43750D01*
X-90750Y61500D02*
X-87750D01*
X-89250Y60000D02*
Y63000D01*
X-88500Y-107750D02*
X-85500D01*
X-87000Y-109250D02*
Y-106250D01*
X103500Y108250D02*
X106500D01*
X105000Y106750D02*
Y109750D01*
X67250Y22250D02*
X70250D01*
X68750Y20750D02*
Y23750D01*
X19500Y74500D02*
X22500D01*
X21000Y73000D02*
Y76000D01*
X40750Y-15000D02*
X43750D01*
X42250Y-16500D02*
Y-13500D01*
X52750Y12000D02*
X55750D01*
X54250Y10500D02*
Y13500D01*
X78472Y25000D02*
X81473D01*
X79973Y23500D02*
Y26500D01*
X96500Y103000D02*
X99500D01*
X98000Y101500D02*
Y104500D01*
X88250Y111000D02*
X91250D01*
X89750Y109500D02*
Y112500D01*
X88000Y102500D02*
X91000D01*
X89500Y101000D02*
Y104000D01*
X50750Y-80500D02*
X53750D01*
X52250Y-82000D02*
Y-79000D01*
X76750Y-101000D02*
X79750D01*
X78250Y-102500D02*
Y-99500D01*
X83250Y-94000D02*
X86250D01*
X84750Y-95500D02*
Y-92500D01*
X90500Y-89000D02*
X93500D01*
X92000Y-90500D02*
Y-87500D01*
X119000Y-64000D02*
X122000D01*
X120500Y-65500D02*
Y-62500D01*
X89750Y-26500D02*
X92750D01*
X91250Y-28000D02*
Y-25000D01*
X89500Y-35250D02*
X92500D01*
X91000Y-36750D02*
Y-33750D01*
X-91500Y-51000D02*
X-88500D01*
X-90000Y-52500D02*
Y-49500D01*
X-81753Y-61003D02*
X-78753D01*
X-80253Y-62503D02*
Y-59503D01*
X-74000Y-53000D02*
X-71000D01*
X-72500Y-54500D02*
Y-51500D01*
X-70750Y-70000D02*
X-67750D01*
X-69250Y-71500D02*
Y-68500D01*
X-76500Y-85250D02*
X-73500D01*
X-75000Y-86750D02*
Y-83750D01*
X-81750Y-92750D02*
X-78750D01*
X-80250Y-94250D02*
Y-91250D01*
X-71000Y-93500D02*
X-68000D01*
X-69500Y-95000D02*
Y-92000D01*
X-97250Y-111250D02*
X-94250D01*
X-95750Y-112750D02*
Y-109750D01*
X-65750Y-107500D02*
X-62750D01*
X-64250Y-109000D02*
Y-106000D01*
X-57750Y-102000D02*
X-54750D01*
X-56250Y-103500D02*
Y-100500D01*
X-57500Y-91750D02*
X-54500D01*
X-56000Y-93250D02*
Y-90250D01*
X-46750Y-91500D02*
X-43750D01*
X-45250Y-93000D02*
Y-90000D01*
X-40250Y-102500D02*
X-37250D01*
X-38750Y-104000D02*
Y-101000D01*
X-36500Y-94250D02*
X-33500D01*
X-35000Y-95750D02*
Y-92750D01*
X-93750Y-76500D02*
X-90750D01*
X-92250Y-78000D02*
Y-75000D01*
X-67000Y-78000D02*
X-64000D01*
X-65500Y-79500D02*
Y-76500D01*
X-92000Y-29500D02*
X-89000D01*
X-90500Y-31000D02*
Y-28000D01*
X-92000Y-41500D02*
X-89000D01*
X-90500Y-43000D02*
Y-40000D01*
X-125250Y2750D02*
X-122250D01*
X-123750Y1250D02*
Y4250D01*
X-93500Y10500D02*
X-90500D01*
X-92000Y9000D02*
Y12000D01*
X-91750Y50250D02*
X-88750D01*
X-90250Y48750D02*
Y51750D01*
X-92750Y35250D02*
X-89750D01*
X-91250Y33750D02*
Y36750D01*
X-44000Y74000D02*
X-41000D01*
X-42500Y72500D02*
Y75500D01*
X-34500Y72500D02*
X-31500D01*
X-33000Y71000D02*
Y74000D01*
X-28000Y-89250D02*
X-25000D01*
X-26500Y-90750D02*
Y-87750D01*
X-18750Y-93250D02*
X-15750D01*
X-17250Y-94750D02*
Y-91750D01*
X-16250Y-102250D02*
X-13250D01*
X-14750Y-103750D02*
Y-100750D01*
X-3750Y-91750D02*
X-750D01*
X-2250Y-93250D02*
Y-90250D01*
X14750Y-97000D02*
X17750D01*
X16250Y-98500D02*
Y-95500D01*
X8000Y-89500D02*
X11000D01*
X9500Y-91000D02*
Y-88000D01*
X18750Y-105000D02*
X21750D01*
X20250Y-106500D02*
Y-103500D01*
X23750Y-98250D02*
X26750D01*
X25250Y-99750D02*
Y-96750D01*
X43750Y-90750D02*
X46750D01*
X45250Y-92250D02*
Y-89250D01*
X36500Y-84750D02*
X39500D01*
X38000Y-86250D02*
Y-83250D01*
X52750Y-101000D02*
X55750D01*
X54250Y-102500D02*
Y-99500D01*
X95500Y-123000D02*
X98500D01*
X97000Y-124500D02*
Y-121500D01*
X89500Y-63750D02*
X92500D01*
X91000Y-65250D02*
Y-62250D01*
X90000Y-49250D02*
X93000D01*
X91500Y-50750D02*
Y-47750D01*
X78750Y-64250D02*
X81750D01*
X80250Y-65750D02*
Y-62750D01*
X8000Y74500D02*
X11000D01*
X9500Y73000D02*
Y76000D01*
X-63500Y59000D02*
X-60500D01*
X-62000Y57500D02*
Y60500D01*
X38250Y-2000D02*
X41250D01*
X39750Y-3500D02*
Y-500D01*
X52000Y-18250D02*
X55000D01*
X53500Y-19750D02*
Y-16750D01*
X49500Y-1750D02*
X52500D01*
X51000Y-3250D02*
Y-250D01*
X59500Y18500D02*
X62500D01*
X61000Y17000D02*
Y20000D01*
X68250Y13250D02*
X71250D01*
X69750Y11750D02*
Y14750D01*
X64250Y-22000D02*
X67250D01*
X65750Y-23500D02*
Y-20500D01*
X58250Y-92750D02*
X61250D01*
X59750Y-94250D02*
Y-91250D01*
X87754Y25251D02*
X90754D01*
X89254Y23751D02*
Y26751D01*
M02*
