G04 Layer_Color=2752767*
%FSLAX44Y44*%
%MOMM*%
G71*
G01*
G75*
%ADD14C,0.3500*%
%ADD33C,0.0508*%
%ADD34C,0.0677*%
D14*
X-193040Y181610D02*
X-181610Y193040D01*
X193040D01*
Y-193040D02*
Y193040D01*
X-193040Y-193040D02*
X193040D01*
X-193040D02*
Y181610D01*
D33*
X175768Y-179832D02*
Y-175768D01*
X179832D01*
Y-179832D01*
X175768D01*
Y-154432D02*
Y-150368D01*
X179832D01*
Y-154432D01*
X175768D01*
Y-129032D02*
Y-124968D01*
X179832D01*
Y-129032D01*
X175768D01*
Y-103632D02*
Y-99568D01*
X179832D01*
Y-103632D01*
X175768D01*
Y-78232D02*
Y-74168D01*
X179832D01*
Y-78232D01*
X175768D01*
Y-52832D02*
Y-48768D01*
X179832D01*
Y-52832D01*
X175768D01*
Y-27432D02*
Y-23368D01*
X179832D01*
Y-27432D01*
X175768D01*
Y-2032D02*
Y2032D01*
X179832D01*
Y-2032D01*
X175768D01*
Y23368D02*
Y27432D01*
X179832D01*
Y23368D01*
X175768D01*
Y48768D02*
Y52832D01*
X179832D01*
Y48768D01*
X175768D01*
Y74168D02*
Y78232D01*
X179832D01*
Y74168D01*
X175768D01*
Y99568D02*
Y103632D01*
X179832D01*
Y99568D01*
X175768D01*
Y124968D02*
Y129032D01*
X179832D01*
Y124968D01*
X175768D01*
Y150368D02*
Y154432D01*
X179832D01*
Y150368D01*
X175768D01*
Y175768D02*
Y179832D01*
X179832D01*
Y175768D01*
X175768D01*
X150368Y-179832D02*
Y-175768D01*
X154432D01*
Y-179832D01*
X150368D01*
Y-129032D02*
Y-124968D01*
X154432D01*
Y-129032D01*
X150368D01*
Y-103632D02*
Y-99568D01*
X154432D01*
Y-103632D01*
X150368D01*
Y-78232D02*
Y-74168D01*
X154432D01*
Y-78232D01*
X150368D01*
Y-52832D02*
Y-48768D01*
X154432D01*
Y-52832D01*
X150368D01*
Y-27432D02*
Y-23368D01*
X154432D01*
Y-27432D01*
X150368D01*
Y-2032D02*
Y2032D01*
X154432D01*
Y-2032D01*
X150368D01*
Y23368D02*
Y27432D01*
X154432D01*
Y23368D01*
X150368D01*
Y48768D02*
Y52832D01*
X154432D01*
Y48768D01*
X150368D01*
Y74168D02*
Y78232D01*
X154432D01*
Y74168D01*
X150368D01*
Y99568D02*
Y103632D01*
X154432D01*
Y99568D01*
X150368D01*
Y124968D02*
Y129032D01*
X154432D01*
Y124968D01*
X150368D01*
Y175768D02*
Y179832D01*
X154432D01*
Y175768D01*
X150368D01*
X124968Y-179832D02*
Y-175768D01*
X129032D01*
Y-179832D01*
X124968D01*
Y-154432D02*
Y-150368D01*
X129032D01*
Y-154432D01*
X124968D01*
Y150368D02*
Y154432D01*
X129032D01*
Y150368D01*
X124968D01*
Y175768D02*
Y179832D01*
X129032D01*
Y175768D01*
X124968D01*
X99568Y-179832D02*
Y-175768D01*
X103632D01*
Y-179832D01*
X99568D01*
Y-154432D02*
Y-150368D01*
X103632D01*
Y-154432D01*
X99568D01*
Y150368D02*
Y154432D01*
X103632D01*
Y150368D01*
X99568D01*
Y175768D02*
Y179832D01*
X103632D01*
Y175768D01*
X99568D01*
X74168Y-179832D02*
Y-175768D01*
X78232D01*
Y-179832D01*
X74168D01*
Y-154432D02*
Y-150368D01*
X78232D01*
Y-154432D01*
X74168D01*
Y150368D02*
Y154432D01*
X78232D01*
Y150368D01*
X74168D01*
Y175768D02*
Y179832D01*
X78232D01*
Y175768D01*
X74168D01*
X48768Y-179832D02*
Y-175768D01*
X52832D01*
Y-179832D01*
X48768D01*
Y-154432D02*
Y-150368D01*
X52832D01*
Y-154432D01*
X48768D01*
Y150368D02*
Y154432D01*
X52832D01*
Y150368D01*
X48768D01*
Y175768D02*
Y179832D01*
X52832D01*
Y175768D01*
X48768D01*
X23368Y-179832D02*
Y-175768D01*
X27432D01*
Y-179832D01*
X23368D01*
Y-154432D02*
Y-150368D01*
X27432D01*
Y-154432D01*
X23368D01*
Y150368D02*
Y154432D01*
X27432D01*
Y150368D01*
X23368D01*
Y175768D02*
Y179832D01*
X27432D01*
Y175768D01*
X23368D01*
X-2032Y-179832D02*
Y-175768D01*
X2032D01*
Y-179832D01*
X-2032D01*
Y-154432D02*
Y-150368D01*
X2032D01*
Y-154432D01*
X-2032D01*
Y150368D02*
Y154432D01*
X2032D01*
Y150368D01*
X-2032D01*
Y175768D02*
Y179832D01*
X2032D01*
Y175768D01*
X-2032D01*
X-27432Y-179832D02*
Y-175768D01*
X-23368D01*
Y-179832D01*
X-27432D01*
Y-154432D02*
Y-150368D01*
X-23368D01*
Y-154432D01*
X-27432D01*
Y150368D02*
Y154432D01*
X-23368D01*
Y150368D01*
X-27432D01*
Y175768D02*
Y179832D01*
X-23368D01*
Y175768D01*
X-27432D01*
X-52832Y-179832D02*
Y-175768D01*
X-48768D01*
Y-179832D01*
X-52832D01*
Y-154432D02*
Y-150368D01*
X-48768D01*
Y-154432D01*
X-52832D01*
Y150368D02*
Y154432D01*
X-48768D01*
Y150368D01*
X-52832D01*
Y175768D02*
Y179832D01*
X-48768D01*
Y175768D01*
X-52832D01*
X-78232Y-179832D02*
Y-175768D01*
X-74168D01*
Y-179832D01*
X-78232D01*
Y-154432D02*
Y-150368D01*
X-74168D01*
Y-154432D01*
X-78232D01*
Y150368D02*
Y154432D01*
X-74168D01*
Y150368D01*
X-78232D01*
Y175768D02*
Y179832D01*
X-74168D01*
Y175768D01*
X-78232D01*
X-103632Y-179832D02*
Y-175768D01*
X-99568D01*
Y-179832D01*
X-103632D01*
Y-154432D02*
Y-150368D01*
X-99568D01*
Y-154432D01*
X-103632D01*
Y150368D02*
Y154432D01*
X-99568D01*
Y150368D01*
X-103632D01*
Y175768D02*
Y179832D01*
X-99568D01*
Y175768D01*
X-103632D01*
X-129032Y-179832D02*
Y-175768D01*
X-124968D01*
Y-179832D01*
X-129032D01*
Y-154432D02*
Y-150368D01*
X-124968D01*
Y-154432D01*
X-129032D01*
Y150368D02*
Y154432D01*
X-124968D01*
Y150368D01*
X-129032D01*
Y175768D02*
Y179832D01*
X-124968D01*
Y175768D01*
X-129032D01*
X-154432Y-179832D02*
Y-175768D01*
X-150368D01*
Y-179832D01*
X-154432D01*
Y-129032D02*
Y-124968D01*
X-150368D01*
Y-129032D01*
X-154432D01*
Y-103632D02*
Y-99568D01*
X-150368D01*
Y-103632D01*
X-154432D01*
Y-78232D02*
Y-74168D01*
X-150368D01*
Y-78232D01*
X-154432D01*
Y-52832D02*
Y-48768D01*
X-150368D01*
Y-52832D01*
X-154432D01*
Y-27432D02*
Y-23368D01*
X-150368D01*
Y-27432D01*
X-154432D01*
Y-2032D02*
Y2032D01*
X-150368D01*
Y-2032D01*
X-154432D01*
Y23368D02*
Y27432D01*
X-150368D01*
Y23368D01*
X-154432D01*
Y48768D02*
Y52832D01*
X-150368D01*
Y48768D01*
X-154432D01*
Y74168D02*
Y78232D01*
X-150368D01*
Y74168D01*
X-154432D01*
Y99568D02*
Y103632D01*
X-150368D01*
Y99568D01*
X-154432D01*
Y124968D02*
Y129032D01*
X-150368D01*
Y124968D01*
X-154432D01*
Y175768D02*
Y179832D01*
X-150368D01*
Y175768D01*
X-154432D01*
X-179832Y-179832D02*
Y-175768D01*
X-175768D01*
Y-179832D01*
X-179832D01*
Y-154432D02*
Y-150368D01*
X-175768D01*
Y-154432D01*
X-179832D01*
Y-129032D02*
Y-124968D01*
X-175768D01*
Y-129032D01*
X-179832D01*
Y-103632D02*
Y-99568D01*
X-175768D01*
Y-103632D01*
X-179832D01*
Y-78232D02*
Y-74168D01*
X-175768D01*
Y-78232D01*
X-179832D01*
Y-52832D02*
Y-48768D01*
X-175768D01*
Y-52832D01*
X-179832D01*
Y-27432D02*
Y-23368D01*
X-175768D01*
Y-27432D01*
X-179832D01*
Y-2032D02*
Y2032D01*
X-175768D01*
Y-2032D01*
X-179832D01*
Y23368D02*
Y27432D01*
X-175768D01*
Y23368D01*
X-179832D01*
Y48768D02*
Y52832D01*
X-175768D01*
Y48768D01*
X-179832D01*
Y74168D02*
Y78232D01*
X-175768D01*
Y74168D01*
X-179832D01*
Y99568D02*
Y103632D01*
X-175768D01*
Y99568D01*
X-179832D01*
Y124968D02*
Y129032D01*
X-175768D01*
Y124968D01*
X-179832D01*
Y150368D02*
Y154432D01*
X-175768D01*
Y150368D01*
X-179832D01*
Y175768D02*
Y179832D01*
X-175768D01*
Y175768D01*
X-179832D01*
X-154432Y150368D02*
Y154432D01*
X-150368D01*
Y150368D01*
X-154432D01*
Y-154432D02*
Y-150368D01*
X-150368D01*
Y-154432D01*
X-154432D01*
X150368D02*
Y-150368D01*
X154432D01*
Y-154432D01*
X150368D01*
Y150368D02*
Y154432D01*
X154432D01*
Y150368D01*
X150368D01*
X-94500Y-137782D02*
X-96532Y-133718D01*
X-92468D01*
X-94500Y-137782D01*
X126000Y97468D02*
X123968Y101532D01*
X128032D01*
X126000Y97468D01*
X-8500Y-27782D02*
X-10532Y-23718D01*
X-6468D01*
X-8500Y-27782D01*
X-7000Y-110032D02*
X-9032Y-105968D01*
X-4968D01*
X-7000Y-110032D01*
X0Y-20282D02*
X-2032Y-16218D01*
X2032D01*
X0Y-20282D01*
X-32750Y-12032D02*
X-34782Y-7968D01*
X-30718D01*
X-32750Y-12032D01*
X-24000Y-4532D02*
X-26032Y-468D01*
X-21968D01*
X-24000Y-4532D01*
X-53250Y49468D02*
X-55282Y53532D01*
X-51218D01*
X-53250Y49468D01*
X-55000Y3718D02*
X-57032Y7782D01*
X-52968D01*
X-55000Y3718D01*
X-41000Y11718D02*
X-43032Y15782D01*
X-38968D01*
X-41000Y11718D01*
X-47000Y19718D02*
X-49032Y23782D01*
X-44968D01*
X-47000Y19718D01*
X-66250Y26718D02*
X-68282Y30782D01*
X-64218D01*
X-66250Y26718D01*
X-80250Y33468D02*
X-82282Y37532D01*
X-78218D01*
X-80250Y33468D01*
X-72750Y40218D02*
X-74782Y44282D01*
X-70718D01*
X-72750Y40218D01*
X-89250Y59468D02*
X-91282Y63532D01*
X-87218D01*
X-89250Y59468D01*
X-87000Y-109782D02*
X-89032Y-105718D01*
X-84968D01*
X-87000Y-109782D01*
X105000Y106218D02*
X102968Y110282D01*
X107032D01*
X105000Y106218D01*
X68750Y20218D02*
X66718Y24282D01*
X70782D01*
X68750Y20218D01*
X21000Y72468D02*
X18968Y76532D01*
X23032D01*
X21000Y72468D01*
X42250Y-17032D02*
X40218Y-12968D01*
X44282D01*
X42250Y-17032D01*
X54250Y9968D02*
X52218Y14032D01*
X56282D01*
X54250Y9968D01*
X79973Y22968D02*
X77941Y27032D01*
X82004D01*
X79973Y22968D01*
X98000Y100968D02*
X95968Y105032D01*
X100032D01*
X98000Y100968D01*
X89750Y108968D02*
X87718Y113032D01*
X91782D01*
X89750Y108968D01*
X89500Y100468D02*
X87468Y104532D01*
X91532D01*
X89500Y100468D01*
X52250Y-82532D02*
X50218Y-78468D01*
X54282D01*
X52250Y-82532D01*
X78250Y-103032D02*
X76218Y-98968D01*
X80282D01*
X78250Y-103032D01*
X84750Y-96032D02*
X82718Y-91968D01*
X86782D01*
X84750Y-96032D01*
X92000Y-91032D02*
X89968Y-86968D01*
X94032D01*
X92000Y-91032D01*
X120500Y-66032D02*
X118468Y-61968D01*
X122532D01*
X120500Y-66032D01*
X91250Y-28532D02*
X89218Y-24468D01*
X93282D01*
X91250Y-28532D01*
X91000Y-37282D02*
X88968Y-33218D01*
X93032D01*
X91000Y-37282D01*
X-90000Y-53032D02*
X-92032Y-48968D01*
X-87968D01*
X-90000Y-53032D01*
X-80253Y-63035D02*
X-82285Y-58971D01*
X-78221D01*
X-80253Y-63035D01*
X-72500Y-55032D02*
X-74532Y-50968D01*
X-70468D01*
X-72500Y-55032D01*
X-69250Y-72032D02*
X-71282Y-67968D01*
X-67218D01*
X-69250Y-72032D01*
X-75000Y-87282D02*
X-77032Y-83218D01*
X-72968D01*
X-75000Y-87282D01*
X-80250Y-94782D02*
X-82282Y-90718D01*
X-78218D01*
X-80250Y-94782D01*
X-69500Y-95532D02*
X-71532Y-91468D01*
X-67468D01*
X-69500Y-95532D01*
X-95750Y-113282D02*
X-97782Y-109218D01*
X-93718D01*
X-95750Y-113282D01*
X-64250Y-109532D02*
X-66282Y-105468D01*
X-62218D01*
X-64250Y-109532D01*
X-56250Y-104032D02*
X-58282Y-99968D01*
X-54218D01*
X-56250Y-104032D01*
X-56000Y-93782D02*
X-58032Y-89718D01*
X-53968D01*
X-56000Y-93782D01*
X-45250Y-93532D02*
X-47282Y-89468D01*
X-43218D01*
X-45250Y-93532D01*
X-38750Y-104532D02*
X-40782Y-100468D01*
X-36718D01*
X-38750Y-104532D01*
X-35000Y-96282D02*
X-37032Y-92218D01*
X-32968D01*
X-35000Y-96282D01*
X-92250Y-78532D02*
X-94282Y-74468D01*
X-90218D01*
X-92250Y-78532D01*
X-65500Y-80032D02*
X-67532Y-75968D01*
X-63468D01*
X-65500Y-80032D01*
X-90500Y-31532D02*
X-92532Y-27468D01*
X-88468D01*
X-90500Y-31532D01*
Y-43532D02*
X-92532Y-39468D01*
X-88468D01*
X-90500Y-43532D01*
X-123750Y718D02*
X-125782Y4782D01*
X-121718D01*
X-123750Y718D01*
X-92000Y8468D02*
X-94032Y12532D01*
X-89968D01*
X-92000Y8468D01*
X-90250Y48218D02*
X-92282Y52282D01*
X-88218D01*
X-90250Y48218D01*
X-91250Y33218D02*
X-93282Y37282D01*
X-89218D01*
X-91250Y33218D01*
X-42500Y71968D02*
X-44532Y76032D01*
X-40468D01*
X-42500Y71968D01*
X-33000Y70468D02*
X-35032Y74532D01*
X-30968D01*
X-33000Y70468D01*
X-26500Y-91282D02*
X-28532Y-87218D01*
X-24468D01*
X-26500Y-91282D01*
X-17250Y-95282D02*
X-19282Y-91218D01*
X-15218D01*
X-17250Y-95282D01*
X-14750Y-104282D02*
X-16782Y-100218D01*
X-12718D01*
X-14750Y-104282D01*
X-2250Y-93782D02*
X-4282Y-89718D01*
X-218D01*
X-2250Y-93782D01*
X16250Y-99032D02*
X14218Y-94968D01*
X18282D01*
X16250Y-99032D01*
X9500Y-91532D02*
X7468Y-87468D01*
X11532D01*
X9500Y-91532D01*
X20250Y-107032D02*
X18218Y-102968D01*
X22282D01*
X20250Y-107032D01*
X25250Y-100282D02*
X23218Y-96218D01*
X27282D01*
X25250Y-100282D01*
X45250Y-92782D02*
X43218Y-88718D01*
X47282D01*
X45250Y-92782D01*
X38000Y-86782D02*
X35968Y-82718D01*
X40032D01*
X38000Y-86782D01*
X54250Y-103032D02*
X52218Y-98968D01*
X56282D01*
X54250Y-103032D01*
X97000Y-125032D02*
X94968Y-120968D01*
X99032D01*
X97000Y-125032D01*
X91000Y-65782D02*
X88968Y-61718D01*
X93032D01*
X91000Y-65782D01*
X91500Y-51282D02*
X89468Y-47218D01*
X93532D01*
X91500Y-51282D01*
X80250Y-66282D02*
X78218Y-62218D01*
X82282D01*
X80250Y-66282D01*
X9500Y72468D02*
X7468Y76532D01*
X11532D01*
X9500Y72468D01*
X-62000Y56968D02*
X-64032Y61032D01*
X-59968D01*
X-62000Y56968D01*
X39750Y-4032D02*
X37718Y32D01*
X41782D01*
X39750Y-4032D01*
X53500Y-20282D02*
X51468Y-16218D01*
X55532D01*
X53500Y-20282D01*
X51000Y-3782D02*
X48968Y282D01*
X53032D01*
X51000Y-3782D01*
X61000Y16468D02*
X58968Y20532D01*
X63032D01*
X61000Y16468D01*
X69750Y11218D02*
X67718Y15282D01*
X71782D01*
X69750Y11218D01*
X65750Y-24032D02*
X63718Y-19968D01*
X67782D01*
X65750Y-24032D01*
X59750Y-94782D02*
X57718Y-90718D01*
X61782D01*
X59750Y-94782D01*
X89254Y23219D02*
X87222Y27283D01*
X91286D01*
X89254Y23219D01*
D34*
X-51468Y122500D02*
G03*
X-51468Y122500I-2032J0D01*
G01*
X126332D02*
G03*
X126332Y122500I-2032J0D01*
G01*
X100932D02*
G03*
X100932Y122500I-2032J0D01*
G01*
X75532D02*
G03*
X75532Y122500I-2032J0D01*
G01*
X50132D02*
G03*
X50132Y122500I-2032J0D01*
G01*
X24732D02*
G03*
X24732Y122500I-2032J0D01*
G01*
X-668D02*
G03*
X-668Y122500I-2032J0D01*
G01*
X-26068D02*
G03*
X-26068Y122500I-2032J0D01*
G01*
X-76868D02*
G03*
X-76868Y122500I-2032J0D01*
G01*
X-102268D02*
G03*
X-102268Y122500I-2032J0D01*
G01*
M02*
