G04 Layer_Color=65535*
%FSLAX44Y44*%
%MOMM*%
G71*
G01*
G75*
%ADD13C,0.2000*%
%ADD14C,0.3500*%
%ADD21C,0.6000*%
%ADD22C,0.2500*%
%ADD23C,0.2032*%
%ADD24R,1.2500X1.2750*%
G36*
X-40230Y-14165D02*
X-45486Y-20627D01*
X-40022D01*
Y-22250D01*
X-47830D01*
Y-20503D01*
X-42768Y-14276D01*
X-47248D01*
Y-12653D01*
X-40230D01*
Y-14165D01*
D02*
G37*
G36*
X-51561Y-15149D02*
X-51436Y-15163D01*
X-51283Y-15191D01*
X-51117Y-15219D01*
X-50937Y-15260D01*
X-50742Y-15316D01*
X-50548Y-15385D01*
X-50340Y-15468D01*
X-50132Y-15579D01*
X-49938Y-15690D01*
X-49744Y-15829D01*
X-49550Y-15995D01*
X-49383Y-16176D01*
X-49369Y-16190D01*
X-49342Y-16217D01*
X-49300Y-16287D01*
X-49245Y-16370D01*
X-49175Y-16481D01*
X-49106Y-16606D01*
X-49023Y-16772D01*
X-48939Y-16952D01*
X-48856Y-17160D01*
X-48773Y-17396D01*
X-48704Y-17646D01*
X-48634Y-17937D01*
X-48579Y-18242D01*
X-48537Y-18575D01*
X-48510Y-18922D01*
Y-19310D01*
X-53114D01*
Y-19324D01*
Y-19352D01*
Y-19393D01*
X-53100Y-19449D01*
X-53086Y-19587D01*
X-53058Y-19781D01*
X-53003Y-19976D01*
X-52920Y-20198D01*
X-52823Y-20405D01*
X-52684Y-20586D01*
X-52670Y-20600D01*
X-52601Y-20655D01*
X-52517Y-20724D01*
X-52393Y-20808D01*
X-52240Y-20891D01*
X-52046Y-20960D01*
X-51838Y-21016D01*
X-51616Y-21030D01*
X-51547D01*
X-51463Y-21016D01*
X-51367Y-21002D01*
X-51255Y-20974D01*
X-51131Y-20933D01*
X-51006Y-20877D01*
X-50895Y-20794D01*
X-50881Y-20780D01*
X-50840Y-20752D01*
X-50784Y-20697D01*
X-50729Y-20614D01*
X-50645Y-20503D01*
X-50576Y-20378D01*
X-50507Y-20211D01*
X-50437Y-20031D01*
X-48607Y-20336D01*
Y-20350D01*
X-48621Y-20378D01*
X-48648Y-20433D01*
X-48676Y-20503D01*
X-48718Y-20586D01*
X-48759Y-20683D01*
X-48884Y-20905D01*
X-49037Y-21154D01*
X-49231Y-21418D01*
X-49467Y-21654D01*
X-49730Y-21876D01*
X-49744D01*
X-49758Y-21903D01*
X-49813Y-21917D01*
X-49869Y-21959D01*
X-49938Y-22000D01*
X-50035Y-22042D01*
X-50132Y-22084D01*
X-50257Y-22139D01*
X-50534Y-22236D01*
X-50853Y-22319D01*
X-51228Y-22375D01*
X-51630Y-22403D01*
X-51713D01*
X-51796Y-22389D01*
X-51921D01*
X-52074Y-22361D01*
X-52254Y-22333D01*
X-52448Y-22306D01*
X-52642Y-22250D01*
X-52864Y-22194D01*
X-53086Y-22111D01*
X-53308Y-22014D01*
X-53530Y-21903D01*
X-53752Y-21765D01*
X-53960Y-21612D01*
X-54140Y-21432D01*
X-54320Y-21224D01*
X-54334Y-21210D01*
X-54348Y-21182D01*
X-54376Y-21127D01*
X-54431Y-21057D01*
X-54473Y-20960D01*
X-54528Y-20849D01*
X-54598Y-20724D01*
X-54653Y-20572D01*
X-54723Y-20405D01*
X-54778Y-20225D01*
X-54847Y-20031D01*
X-54889Y-19809D01*
X-54931Y-19587D01*
X-54972Y-19352D01*
X-54986Y-19088D01*
X-55000Y-18824D01*
Y-18811D01*
Y-18755D01*
Y-18658D01*
X-54986Y-18533D01*
X-54972Y-18395D01*
X-54958Y-18228D01*
X-54931Y-18048D01*
X-54889Y-17840D01*
X-54778Y-17410D01*
X-54709Y-17188D01*
X-54626Y-16952D01*
X-54515Y-16730D01*
X-54390Y-16522D01*
X-54251Y-16314D01*
X-54099Y-16120D01*
X-54085Y-16106D01*
X-54057Y-16079D01*
X-54001Y-16023D01*
X-53932Y-15968D01*
X-53849Y-15898D01*
X-53738Y-15815D01*
X-53613Y-15718D01*
X-53474Y-15621D01*
X-53322Y-15538D01*
X-53142Y-15441D01*
X-52961Y-15357D01*
X-52753Y-15288D01*
X-52545Y-15233D01*
X-52309Y-15177D01*
X-52074Y-15149D01*
X-51824Y-15136D01*
X-51672D01*
X-51561Y-15149D01*
D02*
G37*
G36*
X34978Y-12612D02*
X35089Y-12625D01*
X35228Y-12653D01*
X35366Y-12681D01*
X35533Y-12722D01*
X35713Y-12778D01*
X35880Y-12847D01*
X36060Y-12917D01*
X36240Y-13014D01*
X36421Y-13139D01*
X36601Y-13263D01*
X36767Y-13416D01*
X36920Y-13596D01*
X36934Y-13610D01*
X36961Y-13652D01*
X37003Y-13721D01*
X37072Y-13818D01*
X37142Y-13957D01*
X37225Y-14123D01*
X37308Y-14303D01*
X37391Y-14539D01*
X37475Y-14789D01*
X37572Y-15080D01*
X37641Y-15399D01*
X37710Y-15760D01*
X37780Y-16148D01*
X37821Y-16564D01*
X37849Y-17022D01*
X37863Y-17521D01*
Y-17535D01*
Y-17549D01*
Y-17590D01*
Y-17646D01*
Y-17784D01*
X37849Y-17965D01*
X37835Y-18187D01*
X37807Y-18450D01*
X37780Y-18727D01*
X37752Y-19032D01*
X37696Y-19352D01*
X37627Y-19684D01*
X37558Y-20003D01*
X37461Y-20322D01*
X37364Y-20641D01*
X37225Y-20933D01*
X37086Y-21210D01*
X36920Y-21446D01*
X36906Y-21460D01*
X36878Y-21487D01*
X36837Y-21543D01*
X36781Y-21598D01*
X36698Y-21667D01*
X36601Y-21751D01*
X36476Y-21848D01*
X36351Y-21931D01*
X36199Y-22028D01*
X36046Y-22125D01*
X35866Y-22208D01*
X35672Y-22278D01*
X35464Y-22333D01*
X35228Y-22389D01*
X34992Y-22416D01*
X34742Y-22430D01*
X34687D01*
X34604Y-22416D01*
X34507D01*
X34396Y-22403D01*
X34257Y-22375D01*
X34104Y-22347D01*
X33938Y-22292D01*
X33758Y-22236D01*
X33577Y-22167D01*
X33383Y-22084D01*
X33203Y-21973D01*
X33009Y-21862D01*
X32829Y-21709D01*
X32648Y-21557D01*
X32482Y-21362D01*
X32468Y-21349D01*
X32440Y-21307D01*
X32399Y-21238D01*
X32357Y-21154D01*
X32288Y-21030D01*
X32218Y-20877D01*
X32135Y-20683D01*
X32066Y-20475D01*
X31983Y-20225D01*
X31899Y-19948D01*
X31830Y-19629D01*
X31775Y-19282D01*
X31719Y-18894D01*
X31677Y-18464D01*
X31650Y-18006D01*
X31636Y-17507D01*
Y-17493D01*
Y-17479D01*
Y-17438D01*
Y-17382D01*
Y-17243D01*
X31650Y-17063D01*
X31664Y-16841D01*
X31691Y-16578D01*
X31719Y-16300D01*
X31747Y-15995D01*
X31802Y-15676D01*
X31858Y-15357D01*
X31941Y-15025D01*
X32024Y-14706D01*
X32135Y-14401D01*
X32260Y-14109D01*
X32399Y-13832D01*
X32565Y-13596D01*
X32579Y-13582D01*
X32607Y-13555D01*
X32648Y-13499D01*
X32718Y-13444D01*
X32787Y-13360D01*
X32884Y-13277D01*
X33009Y-13194D01*
X33134Y-13097D01*
X33286Y-13000D01*
X33439Y-12917D01*
X33619Y-12833D01*
X33813Y-12750D01*
X34021Y-12695D01*
X34257Y-12639D01*
X34493Y-12612D01*
X34742Y-12598D01*
X34881D01*
X34978Y-12612D01*
D02*
G37*
G36*
X7893Y-22250D02*
X5799D01*
X4967Y-20073D01*
X1112D01*
X321Y-22250D01*
X-1732D01*
X1985Y-12653D01*
X4038D01*
X7893Y-22250D01*
D02*
G37*
G36*
X-3923D02*
X-5767D01*
Y-15302D01*
X-5781Y-15316D01*
X-5809Y-15344D01*
X-5864Y-15385D01*
X-5947Y-15454D01*
X-6044Y-15538D01*
X-6155Y-15621D01*
X-6294Y-15718D01*
X-6447Y-15829D01*
X-6613Y-15940D01*
X-6793Y-16051D01*
X-6988Y-16176D01*
X-7196Y-16287D01*
X-7639Y-16495D01*
X-8139Y-16689D01*
Y-15025D01*
X-8125D01*
X-8111Y-15011D01*
X-8069Y-14997D01*
X-8014Y-14983D01*
X-7875Y-14914D01*
X-7681Y-14830D01*
X-7445Y-14720D01*
X-7182Y-14567D01*
X-6891Y-14373D01*
X-6585Y-14151D01*
X-6571Y-14137D01*
X-6544Y-14123D01*
X-6502Y-14081D01*
X-6447Y-14026D01*
X-6294Y-13887D01*
X-6128Y-13707D01*
X-5934Y-13485D01*
X-5739Y-13208D01*
X-5559Y-12917D01*
X-5421Y-12598D01*
X-3923D01*
Y-22250D01*
D02*
G37*
G36*
X-17278Y-14276D02*
X-21924D01*
Y-16550D01*
X-17916D01*
Y-18173D01*
X-21924D01*
Y-22250D01*
X-23865D01*
Y-12653D01*
X-17278D01*
Y-14276D01*
D02*
G37*
G36*
X20056Y-12612D02*
X20167Y-12625D01*
X20305Y-12653D01*
X20444Y-12681D01*
X20610Y-12722D01*
X20791Y-12778D01*
X20957Y-12847D01*
X21137Y-12917D01*
X21318Y-13014D01*
X21498Y-13139D01*
X21678Y-13263D01*
X21845Y-13416D01*
X21997Y-13596D01*
X22011Y-13610D01*
X22039Y-13652D01*
X22081Y-13721D01*
X22150Y-13818D01*
X22219Y-13957D01*
X22302Y-14123D01*
X22386Y-14303D01*
X22469Y-14539D01*
X22552Y-14789D01*
X22649Y-15080D01*
X22719Y-15399D01*
X22788Y-15760D01*
X22857Y-16148D01*
X22899Y-16564D01*
X22926Y-17022D01*
X22940Y-17521D01*
Y-17535D01*
Y-17549D01*
Y-17590D01*
Y-17646D01*
Y-17784D01*
X22926Y-17965D01*
X22913Y-18187D01*
X22885Y-18450D01*
X22857Y-18727D01*
X22829Y-19032D01*
X22774Y-19352D01*
X22705Y-19684D01*
X22635Y-20003D01*
X22538Y-20322D01*
X22441Y-20641D01*
X22302Y-20933D01*
X22164Y-21210D01*
X21997Y-21446D01*
X21983Y-21460D01*
X21956Y-21487D01*
X21914Y-21543D01*
X21859Y-21598D01*
X21776Y-21667D01*
X21678Y-21751D01*
X21554Y-21848D01*
X21429Y-21931D01*
X21276Y-22028D01*
X21124Y-22125D01*
X20943Y-22208D01*
X20749Y-22278D01*
X20541Y-22333D01*
X20305Y-22389D01*
X20070Y-22416D01*
X19820Y-22430D01*
X19765D01*
X19681Y-22416D01*
X19584D01*
X19473Y-22403D01*
X19335Y-22375D01*
X19182Y-22347D01*
X19016Y-22292D01*
X18835Y-22236D01*
X18655Y-22167D01*
X18461Y-22084D01*
X18281Y-21973D01*
X18087Y-21862D01*
X17906Y-21709D01*
X17726Y-21557D01*
X17559Y-21362D01*
X17546Y-21349D01*
X17518Y-21307D01*
X17476Y-21238D01*
X17435Y-21154D01*
X17365Y-21030D01*
X17296Y-20877D01*
X17213Y-20683D01*
X17143Y-20475D01*
X17060Y-20225D01*
X16977Y-19948D01*
X16908Y-19629D01*
X16852Y-19282D01*
X16797Y-18894D01*
X16755Y-18464D01*
X16727Y-18006D01*
X16714Y-17507D01*
Y-17493D01*
Y-17479D01*
Y-17438D01*
Y-17382D01*
Y-17243D01*
X16727Y-17063D01*
X16741Y-16841D01*
X16769Y-16578D01*
X16797Y-16300D01*
X16825Y-15995D01*
X16880Y-15676D01*
X16935Y-15357D01*
X17019Y-15025D01*
X17102Y-14706D01*
X17213Y-14401D01*
X17338Y-14109D01*
X17476Y-13832D01*
X17643Y-13596D01*
X17657Y-13582D01*
X17684Y-13555D01*
X17726Y-13499D01*
X17795Y-13444D01*
X17865Y-13360D01*
X17962Y-13277D01*
X18087Y-13194D01*
X18211Y-13097D01*
X18364Y-13000D01*
X18516Y-12917D01*
X18697Y-12833D01*
X18891Y-12750D01*
X19099Y-12695D01*
X19335Y-12639D01*
X19570Y-12612D01*
X19820Y-12598D01*
X19959D01*
X20056Y-12612D01*
D02*
G37*
G36*
X5400Y-7000D02*
X4457D01*
Y-995D01*
X4445Y-1006D01*
X4390Y-1050D01*
X4323Y-1117D01*
X4212Y-1195D01*
X4090Y-1295D01*
X3935Y-1406D01*
X3757Y-1528D01*
X3557Y-1650D01*
X3546D01*
X3535Y-1661D01*
X3469Y-1705D01*
X3358Y-1761D01*
X3225Y-1828D01*
X3069Y-1905D01*
X2903Y-1983D01*
X2736Y-2061D01*
X2570Y-2127D01*
Y-1217D01*
X2581D01*
X2603Y-1195D01*
X2647Y-1184D01*
X2703Y-1150D01*
X2769Y-1117D01*
X2847Y-1073D01*
X3036Y-962D01*
X3258Y-840D01*
X3480Y-684D01*
X3713Y-507D01*
X3946Y-318D01*
X3957Y-307D01*
X3968Y-296D01*
X4001Y-262D01*
X4046Y-229D01*
X4146Y-118D01*
X4279Y15D01*
X4412Y170D01*
X4556Y348D01*
X4678Y526D01*
X4789Y714D01*
X5400D01*
Y-7000D01*
D02*
G37*
G36*
X-119750Y118386D02*
X-125755D01*
X-125744Y118375D01*
X-125700Y118320D01*
X-125633Y118253D01*
X-125555Y118142D01*
X-125455Y118020D01*
X-125344Y117865D01*
X-125222Y117687D01*
X-125100Y117487D01*
Y117476D01*
X-125089Y117465D01*
X-125045Y117398D01*
X-124989Y117287D01*
X-124923Y117154D01*
X-124845Y116999D01*
X-124767Y116832D01*
X-124689Y116666D01*
X-124623Y116499D01*
X-125533D01*
Y116510D01*
X-125555Y116532D01*
X-125566Y116577D01*
X-125600Y116632D01*
X-125633Y116699D01*
X-125677Y116777D01*
X-125788Y116965D01*
X-125910Y117187D01*
X-126066Y117409D01*
X-126243Y117642D01*
X-126432Y117876D01*
X-126443Y117887D01*
X-126454Y117898D01*
X-126488Y117931D01*
X-126521Y117976D01*
X-126632Y118075D01*
X-126765Y118209D01*
X-126920Y118342D01*
X-127098Y118486D01*
X-127276Y118608D01*
X-127464Y118719D01*
Y119330D01*
X-119750D01*
Y118386D01*
D02*
G37*
G36*
X-121948Y114490D02*
X-121859D01*
X-121648Y114468D01*
X-121404Y114446D01*
X-121149Y114401D01*
X-120915Y114335D01*
X-120694Y114257D01*
X-120682D01*
X-120671Y114246D01*
X-120605Y114213D01*
X-120516Y114157D01*
X-120394Y114080D01*
X-120272Y113968D01*
X-120139Y113846D01*
X-120005Y113691D01*
X-119894Y113513D01*
X-119883Y113491D01*
X-119850Y113425D01*
X-119805Y113325D01*
X-119761Y113180D01*
X-119706Y113003D01*
X-119661Y112803D01*
X-119628Y112581D01*
X-119617Y112337D01*
Y112326D01*
Y112292D01*
Y112237D01*
X-119628Y112170D01*
X-119639Y112081D01*
X-119650Y111993D01*
X-119694Y111760D01*
X-119761Y111515D01*
X-119861Y111260D01*
X-119928Y111127D01*
X-120005Y111005D01*
X-120094Y110894D01*
X-120194Y110783D01*
X-120205Y110772D01*
X-120216Y110761D01*
X-120261Y110738D01*
X-120305Y110705D01*
X-120360Y110661D01*
X-120438Y110616D01*
X-120527Y110572D01*
X-120627Y110516D01*
X-120738Y110472D01*
X-120871Y110428D01*
X-121004Y110383D01*
X-121160Y110339D01*
X-121326Y110317D01*
X-121515Y110283D01*
X-121704Y110272D01*
X-121915D01*
X-122048Y111194D01*
X-121970D01*
X-121903Y111205D01*
X-121837Y111216D01*
X-121759D01*
X-121570Y111249D01*
X-121371Y111282D01*
X-121171Y111349D01*
X-120993Y111416D01*
X-120915Y111460D01*
X-120849Y111515D01*
X-120838Y111526D01*
X-120805Y111571D01*
X-120749Y111637D01*
X-120694Y111726D01*
X-120627Y111848D01*
X-120583Y111982D01*
X-120538Y112148D01*
X-120527Y112326D01*
Y112348D01*
Y112392D01*
X-120538Y112459D01*
X-120549Y112559D01*
X-120571Y112659D01*
X-120594Y112770D01*
X-120638Y112881D01*
X-120694Y112992D01*
X-120705Y113003D01*
X-120727Y113036D01*
X-120771Y113081D01*
X-120816Y113147D01*
X-120893Y113203D01*
X-120971Y113269D01*
X-121060Y113325D01*
X-121171Y113369D01*
X-121182D01*
X-121226Y113391D01*
X-121304Y113402D01*
X-121404Y113425D01*
X-121537Y113447D01*
X-121704Y113458D01*
X-121903Y113480D01*
X-127431D01*
Y114501D01*
X-122037D01*
X-121948Y114490D01*
D02*
G37*
G36*
X-28400Y-12612D02*
X-28289Y-12625D01*
X-28151Y-12653D01*
X-28012Y-12681D01*
X-27846Y-12722D01*
X-27665Y-12778D01*
X-27499Y-12847D01*
X-27319Y-12917D01*
X-27138Y-13014D01*
X-26958Y-13139D01*
X-26778Y-13263D01*
X-26611Y-13416D01*
X-26459Y-13596D01*
X-26445Y-13610D01*
X-26417Y-13652D01*
X-26376Y-13721D01*
X-26306Y-13818D01*
X-26237Y-13957D01*
X-26154Y-14123D01*
X-26070Y-14303D01*
X-25987Y-14539D01*
X-25904Y-14789D01*
X-25807Y-15080D01*
X-25738Y-15399D01*
X-25668Y-15760D01*
X-25599Y-16148D01*
X-25557Y-16564D01*
X-25530Y-17022D01*
X-25516Y-17521D01*
Y-17535D01*
Y-17549D01*
Y-17590D01*
Y-17646D01*
Y-17784D01*
X-25530Y-17965D01*
X-25543Y-18187D01*
X-25571Y-18450D01*
X-25599Y-18727D01*
X-25627Y-19032D01*
X-25682Y-19352D01*
X-25752Y-19684D01*
X-25821Y-20003D01*
X-25918Y-20322D01*
X-26015Y-20641D01*
X-26154Y-20933D01*
X-26292Y-21210D01*
X-26459Y-21446D01*
X-26473Y-21460D01*
X-26500Y-21487D01*
X-26542Y-21543D01*
X-26597Y-21598D01*
X-26681Y-21667D01*
X-26778Y-21751D01*
X-26903Y-21848D01*
X-27027Y-21931D01*
X-27180Y-22028D01*
X-27332Y-22125D01*
X-27513Y-22208D01*
X-27707Y-22278D01*
X-27915Y-22333D01*
X-28151Y-22389D01*
X-28386Y-22416D01*
X-28636Y-22430D01*
X-28692D01*
X-28775Y-22416D01*
X-28872D01*
X-28983Y-22403D01*
X-29122Y-22375D01*
X-29274Y-22347D01*
X-29441Y-22292D01*
X-29621Y-22236D01*
X-29801Y-22167D01*
X-29995Y-22084D01*
X-30176Y-21973D01*
X-30370Y-21862D01*
X-30550Y-21709D01*
X-30730Y-21557D01*
X-30897Y-21362D01*
X-30911Y-21349D01*
X-30938Y-21307D01*
X-30980Y-21238D01*
X-31021Y-21154D01*
X-31091Y-21030D01*
X-31160Y-20877D01*
X-31243Y-20683D01*
X-31313Y-20475D01*
X-31396Y-20225D01*
X-31479Y-19948D01*
X-31549Y-19629D01*
X-31604Y-19282D01*
X-31660Y-18894D01*
X-31701Y-18464D01*
X-31729Y-18006D01*
X-31743Y-17507D01*
Y-17493D01*
Y-17479D01*
Y-17438D01*
Y-17382D01*
Y-17243D01*
X-31729Y-17063D01*
X-31715Y-16841D01*
X-31687Y-16578D01*
X-31660Y-16300D01*
X-31632Y-15995D01*
X-31576Y-15676D01*
X-31521Y-15357D01*
X-31438Y-15025D01*
X-31354Y-14706D01*
X-31243Y-14401D01*
X-31119Y-14109D01*
X-30980Y-13832D01*
X-30814Y-13596D01*
X-30800Y-13582D01*
X-30772Y-13555D01*
X-30730Y-13499D01*
X-30661Y-13444D01*
X-30592Y-13360D01*
X-30494Y-13277D01*
X-30370Y-13194D01*
X-30245Y-13097D01*
X-30092Y-13000D01*
X-29940Y-12917D01*
X-29760Y-12833D01*
X-29565Y-12750D01*
X-29357Y-12695D01*
X-29122Y-12639D01*
X-28886Y-12612D01*
X-28636Y-12598D01*
X-28498D01*
X-28400Y-12612D01*
D02*
G37*
G36*
X-35889D02*
X-35765Y-12625D01*
X-35640Y-12639D01*
X-35487Y-12653D01*
X-35335Y-12681D01*
X-34988Y-12764D01*
X-34627Y-12889D01*
X-34461Y-12972D01*
X-34281Y-13069D01*
X-34128Y-13180D01*
X-33976Y-13305D01*
X-33962Y-13319D01*
X-33948Y-13333D01*
X-33906Y-13374D01*
X-33851Y-13430D01*
X-33795Y-13499D01*
X-33740Y-13582D01*
X-33587Y-13790D01*
X-33449Y-14054D01*
X-33338Y-14345D01*
X-33240Y-14692D01*
X-33227Y-14886D01*
X-33213Y-15080D01*
Y-15094D01*
Y-15108D01*
Y-15191D01*
X-33227Y-15316D01*
X-33254Y-15482D01*
X-33296Y-15662D01*
X-33365Y-15857D01*
X-33449Y-16065D01*
X-33573Y-16273D01*
X-33587Y-16300D01*
X-33643Y-16356D01*
X-33712Y-16453D01*
X-33823Y-16564D01*
X-33962Y-16703D01*
X-34128Y-16827D01*
X-34322Y-16952D01*
X-34544Y-17063D01*
X-34530D01*
X-34502Y-17077D01*
X-34461Y-17091D01*
X-34405Y-17119D01*
X-34267Y-17202D01*
X-34086Y-17313D01*
X-33892Y-17438D01*
X-33684Y-17604D01*
X-33490Y-17798D01*
X-33324Y-18020D01*
X-33310Y-18048D01*
X-33254Y-18131D01*
X-33185Y-18256D01*
X-33116Y-18422D01*
X-33032Y-18630D01*
X-32977Y-18880D01*
X-32922Y-19144D01*
X-32908Y-19435D01*
Y-19449D01*
Y-19490D01*
Y-19560D01*
X-32922Y-19657D01*
X-32935Y-19768D01*
X-32949Y-19906D01*
X-32977Y-20045D01*
X-33019Y-20198D01*
X-33116Y-20544D01*
X-33185Y-20724D01*
X-33268Y-20905D01*
X-33365Y-21085D01*
X-33490Y-21265D01*
X-33615Y-21432D01*
X-33767Y-21598D01*
X-33781Y-21612D01*
X-33809Y-21640D01*
X-33851Y-21681D01*
X-33920Y-21723D01*
X-34003Y-21792D01*
X-34114Y-21862D01*
X-34225Y-21931D01*
X-34364Y-22014D01*
X-34516Y-22097D01*
X-34697Y-22167D01*
X-34877Y-22236D01*
X-35071Y-22306D01*
X-35293Y-22347D01*
X-35529Y-22389D01*
X-35765Y-22416D01*
X-36028Y-22430D01*
X-36153D01*
X-36250Y-22416D01*
X-36361Y-22403D01*
X-36486Y-22389D01*
X-36624Y-22375D01*
X-36791Y-22347D01*
X-37137Y-22264D01*
X-37498Y-22139D01*
X-37678Y-22070D01*
X-37859Y-21973D01*
X-38039Y-21876D01*
X-38205Y-21751D01*
X-38219Y-21737D01*
X-38247Y-21709D01*
X-38302Y-21667D01*
X-38372Y-21598D01*
X-38441Y-21515D01*
X-38524Y-21418D01*
X-38621Y-21293D01*
X-38719Y-21168D01*
X-38816Y-21016D01*
X-38913Y-20849D01*
X-38996Y-20669D01*
X-39065Y-20461D01*
X-39135Y-20253D01*
X-39190Y-20017D01*
X-39218Y-19781D01*
X-39232Y-19518D01*
Y-19504D01*
Y-19476D01*
Y-19435D01*
Y-19379D01*
X-39218Y-19227D01*
X-39190Y-19046D01*
X-39135Y-18824D01*
X-39079Y-18575D01*
X-38982Y-18325D01*
X-38857Y-18076D01*
Y-18062D01*
X-38843Y-18048D01*
X-38788Y-17965D01*
X-38691Y-17854D01*
X-38552Y-17701D01*
X-38386Y-17535D01*
X-38178Y-17368D01*
X-37928Y-17216D01*
X-37637Y-17063D01*
X-37651D01*
X-37664Y-17049D01*
X-37748Y-17008D01*
X-37873Y-16938D01*
X-38025Y-16855D01*
X-38205Y-16730D01*
X-38372Y-16592D01*
X-38538Y-16425D01*
X-38677Y-16245D01*
X-38691Y-16217D01*
X-38732Y-16148D01*
X-38774Y-16051D01*
X-38829Y-15898D01*
X-38899Y-15732D01*
X-38940Y-15524D01*
X-38982Y-15316D01*
X-38996Y-15080D01*
Y-15066D01*
Y-15038D01*
Y-14983D01*
X-38982Y-14900D01*
X-38968Y-14816D01*
X-38954Y-14706D01*
X-38899Y-14456D01*
X-38816Y-14179D01*
X-38677Y-13873D01*
X-38594Y-13735D01*
X-38497Y-13582D01*
X-38372Y-13444D01*
X-38247Y-13305D01*
X-38233Y-13291D01*
X-38205Y-13277D01*
X-38164Y-13235D01*
X-38108Y-13194D01*
X-38025Y-13139D01*
X-37942Y-13083D01*
X-37831Y-13014D01*
X-37692Y-12944D01*
X-37554Y-12889D01*
X-37401Y-12819D01*
X-37221Y-12764D01*
X-37027Y-12708D01*
X-36818Y-12667D01*
X-36597Y-12625D01*
X-36361Y-12612D01*
X-36111Y-12598D01*
X-35972D01*
X-35889Y-12612D01*
D02*
G37*
G36*
X538Y-3759D02*
Y-3770D01*
Y-3814D01*
Y-3870D01*
Y-3947D01*
X527Y-4047D01*
Y-4158D01*
X516Y-4292D01*
X505Y-4425D01*
X472Y-4724D01*
X427Y-5035D01*
X361Y-5335D01*
X316Y-5479D01*
X272Y-5612D01*
Y-5624D01*
X261Y-5646D01*
X239Y-5679D01*
X216Y-5724D01*
X150Y-5846D01*
X50Y-6001D01*
X-83Y-6179D01*
X-239Y-6356D01*
X-439Y-6545D01*
X-683Y-6711D01*
X-694D01*
X-716Y-6734D01*
X-749Y-6745D01*
X-805Y-6778D01*
X-871Y-6811D01*
X-960Y-6845D01*
X-1049Y-6878D01*
X-1160Y-6922D01*
X-1282Y-6967D01*
X-1415Y-7000D01*
X-1560Y-7033D01*
X-1726Y-7067D01*
X-1893Y-7089D01*
X-2070Y-7111D01*
X-2470Y-7133D01*
X-2570D01*
X-2647Y-7122D01*
X-2736D01*
X-2847Y-7111D01*
X-2969Y-7100D01*
X-3091Y-7089D01*
X-3369Y-7044D01*
X-3668Y-6978D01*
X-3957Y-6889D01*
X-4235Y-6767D01*
X-4246D01*
X-4268Y-6745D01*
X-4301Y-6722D01*
X-4346Y-6700D01*
X-4468Y-6611D01*
X-4612Y-6489D01*
X-4778Y-6334D01*
X-4934Y-6156D01*
X-5089Y-5934D01*
X-5211Y-5690D01*
Y-5679D01*
X-5222Y-5657D01*
X-5234Y-5612D01*
X-5256Y-5557D01*
X-5278Y-5490D01*
X-5300Y-5402D01*
X-5333Y-5302D01*
X-5356Y-5180D01*
X-5378Y-5046D01*
X-5411Y-4902D01*
X-5433Y-4747D01*
X-5456Y-4580D01*
X-5478Y-4392D01*
X-5489Y-4192D01*
X-5500Y-3981D01*
Y-3759D01*
Y681D01*
X-4479D01*
Y-3759D01*
Y-3770D01*
Y-3803D01*
Y-3859D01*
Y-3925D01*
X-4468Y-4003D01*
Y-4103D01*
X-4457Y-4314D01*
X-4434Y-4558D01*
X-4401Y-4802D01*
X-4357Y-5035D01*
X-4335Y-5135D01*
X-4301Y-5235D01*
X-4290Y-5257D01*
X-4268Y-5313D01*
X-4212Y-5390D01*
X-4146Y-5501D01*
X-4068Y-5612D01*
X-3957Y-5735D01*
X-3824Y-5857D01*
X-3668Y-5957D01*
X-3646Y-5968D01*
X-3591Y-6001D01*
X-3491Y-6034D01*
X-3358Y-6079D01*
X-3202Y-6134D01*
X-3002Y-6168D01*
X-2792Y-6201D01*
X-2558Y-6212D01*
X-2447D01*
X-2381Y-6201D01*
X-2281D01*
X-2181Y-6190D01*
X-1937Y-6145D01*
X-1671Y-6090D01*
X-1415Y-6001D01*
X-1171Y-5879D01*
X-1060Y-5801D01*
X-960Y-5712D01*
X-949Y-5701D01*
X-938Y-5690D01*
X-916Y-5657D01*
X-882Y-5612D01*
X-849Y-5546D01*
X-805Y-5479D01*
X-760Y-5379D01*
X-716Y-5279D01*
X-672Y-5157D01*
X-638Y-5013D01*
X-594Y-4847D01*
X-561Y-4669D01*
X-527Y-4469D01*
X-505Y-4258D01*
X-483Y-4014D01*
Y-3759D01*
Y681D01*
X538D01*
Y-3759D01*
D02*
G37*
G36*
X53160Y-12487D02*
X53312Y-12500D01*
X53492Y-12514D01*
X53687Y-12528D01*
X53895Y-12570D01*
X54338Y-12653D01*
X54796Y-12792D01*
X55032Y-12875D01*
X55254Y-12972D01*
X55462Y-13083D01*
X55656Y-13222D01*
X55670Y-13235D01*
X55698Y-13249D01*
X55753Y-13305D01*
X55822Y-13360D01*
X55906Y-13430D01*
X55989Y-13527D01*
X56086Y-13638D01*
X56197Y-13763D01*
X56308Y-13901D01*
X56419Y-14054D01*
X56530Y-14220D01*
X56627Y-14414D01*
X56738Y-14609D01*
X56821Y-14816D01*
X56904Y-15052D01*
X56960Y-15288D01*
X55032Y-15649D01*
Y-15635D01*
X55018Y-15621D01*
X54990Y-15538D01*
X54935Y-15413D01*
X54852Y-15246D01*
X54755Y-15066D01*
X54616Y-14886D01*
X54449Y-14706D01*
X54255Y-14539D01*
X54227Y-14525D01*
X54158Y-14470D01*
X54033Y-14401D01*
X53881Y-14331D01*
X53673Y-14248D01*
X53437Y-14193D01*
X53173Y-14137D01*
X52868Y-14123D01*
X52744D01*
X52660Y-14137D01*
X52550Y-14151D01*
X52425Y-14165D01*
X52286Y-14193D01*
X52133Y-14220D01*
X51814Y-14317D01*
X51648Y-14387D01*
X51482Y-14470D01*
X51315Y-14567D01*
X51149Y-14664D01*
X50996Y-14803D01*
X50844Y-14941D01*
X50830Y-14955D01*
X50816Y-14983D01*
X50774Y-15025D01*
X50733Y-15094D01*
X50677Y-15177D01*
X50608Y-15274D01*
X50539Y-15399D01*
X50483Y-15538D01*
X50414Y-15704D01*
X50344Y-15884D01*
X50275Y-16079D01*
X50220Y-16287D01*
X50178Y-16522D01*
X50136Y-16786D01*
X50122Y-17049D01*
X50109Y-17341D01*
Y-17354D01*
Y-17410D01*
Y-17507D01*
X50122Y-17618D01*
X50136Y-17771D01*
X50150Y-17923D01*
X50178Y-18117D01*
X50206Y-18311D01*
X50289Y-18727D01*
X50428Y-19157D01*
X50511Y-19365D01*
X50608Y-19560D01*
X50733Y-19754D01*
X50858Y-19920D01*
X50871Y-19934D01*
X50899Y-19962D01*
X50941Y-20003D01*
X50996Y-20059D01*
X51079Y-20114D01*
X51163Y-20198D01*
X51274Y-20267D01*
X51398Y-20350D01*
X51537Y-20433D01*
X51676Y-20503D01*
X52023Y-20641D01*
X52217Y-20697D01*
X52411Y-20738D01*
X52633Y-20766D01*
X52855Y-20780D01*
X52965D01*
X53076Y-20766D01*
X53243Y-20752D01*
X53423Y-20724D01*
X53631Y-20683D01*
X53853Y-20627D01*
X54075Y-20544D01*
X54089D01*
X54103Y-20530D01*
X54172Y-20503D01*
X54297Y-20447D01*
X54436Y-20378D01*
X54602Y-20294D01*
X54782Y-20198D01*
X54963Y-20087D01*
X55129Y-19962D01*
Y-18727D01*
X52910D01*
Y-17105D01*
X57084D01*
Y-20960D01*
X57057Y-20988D01*
X57015Y-21016D01*
X56974Y-21057D01*
X56904Y-21113D01*
X56835Y-21168D01*
X56641Y-21307D01*
X56377Y-21460D01*
X56072Y-21640D01*
X55725Y-21820D01*
X55309Y-21986D01*
X55295D01*
X55254Y-22000D01*
X55198Y-22028D01*
X55115Y-22056D01*
X55004Y-22084D01*
X54879Y-22125D01*
X54741Y-22167D01*
X54588Y-22208D01*
X54241Y-22292D01*
X53839Y-22361D01*
X53423Y-22416D01*
X52979Y-22430D01*
X52827D01*
X52730Y-22416D01*
X52591D01*
X52439Y-22403D01*
X52272Y-22375D01*
X52078Y-22347D01*
X51676Y-22278D01*
X51232Y-22167D01*
X50774Y-22014D01*
X50566Y-21917D01*
X50344Y-21806D01*
X50331Y-21792D01*
X50303Y-21779D01*
X50233Y-21737D01*
X50164Y-21681D01*
X50067Y-21626D01*
X49970Y-21543D01*
X49845Y-21446D01*
X49720Y-21335D01*
X49443Y-21085D01*
X49166Y-20766D01*
X48902Y-20405D01*
X48666Y-19989D01*
Y-19976D01*
X48639Y-19934D01*
X48611Y-19865D01*
X48583Y-19781D01*
X48541Y-19670D01*
X48486Y-19546D01*
X48444Y-19393D01*
X48389Y-19227D01*
X48334Y-19046D01*
X48292Y-18838D01*
X48195Y-18408D01*
X48139Y-17937D01*
X48112Y-17424D01*
Y-17410D01*
Y-17354D01*
Y-17271D01*
X48125Y-17174D01*
Y-17035D01*
X48139Y-16883D01*
X48167Y-16717D01*
X48195Y-16522D01*
X48264Y-16120D01*
X48375Y-15662D01*
X48528Y-15205D01*
X48625Y-14983D01*
X48736Y-14761D01*
X48749Y-14747D01*
X48763Y-14706D01*
X48805Y-14650D01*
X48847Y-14567D01*
X48916Y-14470D01*
X48999Y-14359D01*
X49096Y-14234D01*
X49193Y-14095D01*
X49318Y-13957D01*
X49457Y-13804D01*
X49609Y-13652D01*
X49776Y-13499D01*
X49956Y-13360D01*
X50136Y-13208D01*
X50566Y-12958D01*
X50580D01*
X50608Y-12930D01*
X50663Y-12917D01*
X50733Y-12875D01*
X50830Y-12847D01*
X50927Y-12806D01*
X51066Y-12764D01*
X51204Y-12708D01*
X51357Y-12667D01*
X51537Y-12625D01*
X51731Y-12584D01*
X51925Y-12542D01*
X52369Y-12487D01*
X52868Y-12473D01*
X53035D01*
X53160Y-12487D01*
D02*
G37*
G36*
X-13020Y-12612D02*
X-12909D01*
X-12785Y-12625D01*
X-12646Y-12653D01*
X-12479Y-12695D01*
X-12313Y-12736D01*
X-12119Y-12806D01*
X-11925Y-12875D01*
X-11731Y-12972D01*
X-11523Y-13083D01*
X-11328Y-13208D01*
X-11134Y-13360D01*
X-10940Y-13541D01*
X-10760Y-13735D01*
X-10746Y-13749D01*
X-10718Y-13790D01*
X-10677Y-13860D01*
X-10607Y-13957D01*
X-10538Y-14081D01*
X-10455Y-14234D01*
X-10372Y-14414D01*
X-10288Y-14622D01*
X-10205Y-14872D01*
X-10108Y-15149D01*
X-10039Y-15454D01*
X-9969Y-15787D01*
X-9900Y-16162D01*
X-9858Y-16564D01*
X-9831Y-16994D01*
X-9817Y-17465D01*
Y-17479D01*
Y-17493D01*
Y-17535D01*
Y-17576D01*
Y-17715D01*
X-9831Y-17895D01*
X-9844Y-18117D01*
X-9872Y-18367D01*
X-9900Y-18630D01*
X-9942Y-18922D01*
X-9997Y-19241D01*
X-10052Y-19546D01*
X-10136Y-19865D01*
X-10233Y-20184D01*
X-10344Y-20475D01*
X-10482Y-20766D01*
X-10621Y-21030D01*
X-10801Y-21265D01*
X-10815Y-21279D01*
X-10843Y-21321D01*
X-10898Y-21376D01*
X-10982Y-21446D01*
X-11079Y-21529D01*
X-11190Y-21640D01*
X-11328Y-21737D01*
X-11481Y-21848D01*
X-11647Y-21959D01*
X-11841Y-22056D01*
X-12050Y-22153D01*
X-12271Y-22250D01*
X-12521Y-22319D01*
X-12771Y-22375D01*
X-13034Y-22416D01*
X-13325Y-22430D01*
X-13436D01*
X-13506Y-22416D01*
X-13603D01*
X-13714Y-22403D01*
X-13977Y-22361D01*
X-14268Y-22278D01*
X-14560Y-22181D01*
X-14865Y-22028D01*
X-15003Y-21945D01*
X-15142Y-21834D01*
X-15156Y-21820D01*
X-15170Y-21806D01*
X-15212Y-21765D01*
X-15253Y-21723D01*
X-15309Y-21654D01*
X-15378Y-21584D01*
X-15433Y-21487D01*
X-15517Y-21390D01*
X-15586Y-21265D01*
X-15669Y-21140D01*
X-15739Y-20988D01*
X-15808Y-20821D01*
X-15877Y-20655D01*
X-15933Y-20461D01*
X-15988Y-20267D01*
X-16030Y-20045D01*
X-14255Y-19837D01*
Y-19865D01*
X-14241Y-19934D01*
X-14227Y-20031D01*
X-14185Y-20142D01*
X-14144Y-20281D01*
X-14088Y-20419D01*
X-14019Y-20544D01*
X-13922Y-20655D01*
X-13908Y-20669D01*
X-13866Y-20697D01*
X-13811Y-20738D01*
X-13728Y-20780D01*
X-13617Y-20821D01*
X-13506Y-20863D01*
X-13353Y-20891D01*
X-13201Y-20905D01*
X-13173D01*
X-13104Y-20891D01*
X-13007Y-20877D01*
X-12868Y-20835D01*
X-12715Y-20780D01*
X-12563Y-20683D01*
X-12396Y-20558D01*
X-12244Y-20392D01*
X-12230Y-20364D01*
X-12202Y-20336D01*
X-12174Y-20281D01*
X-12147Y-20225D01*
X-12105Y-20142D01*
X-12077Y-20045D01*
X-12022Y-19920D01*
X-11980Y-19781D01*
X-11939Y-19629D01*
X-11897Y-19449D01*
X-11855Y-19254D01*
X-11814Y-19032D01*
X-11786Y-18783D01*
X-11758Y-18506D01*
X-11731Y-18214D01*
X-11745Y-18228D01*
X-11758Y-18242D01*
X-11800Y-18284D01*
X-11855Y-18339D01*
X-11925Y-18395D01*
X-12008Y-18464D01*
X-12202Y-18616D01*
X-12452Y-18769D01*
X-12757Y-18894D01*
X-12923Y-18949D01*
X-13090Y-18977D01*
X-13270Y-19005D01*
X-13464Y-19019D01*
X-13575D01*
X-13658Y-19005D01*
X-13755Y-18991D01*
X-13866Y-18977D01*
X-14130Y-18908D01*
X-14435Y-18811D01*
X-14588Y-18727D01*
X-14754Y-18644D01*
X-14920Y-18547D01*
X-15087Y-18436D01*
X-15253Y-18297D01*
X-15406Y-18145D01*
X-15420Y-18131D01*
X-15447Y-18103D01*
X-15475Y-18048D01*
X-15531Y-17992D01*
X-15600Y-17895D01*
X-15669Y-17798D01*
X-15739Y-17673D01*
X-15808Y-17535D01*
X-15891Y-17382D01*
X-15960Y-17202D01*
X-16030Y-17022D01*
X-16099Y-16814D01*
X-16155Y-16606D01*
X-16182Y-16370D01*
X-16210Y-16120D01*
X-16224Y-15870D01*
Y-15857D01*
Y-15801D01*
Y-15732D01*
X-16210Y-15621D01*
X-16196Y-15496D01*
X-16182Y-15357D01*
X-16155Y-15191D01*
X-16113Y-15025D01*
X-16016Y-14650D01*
X-15947Y-14442D01*
X-15863Y-14248D01*
X-15766Y-14054D01*
X-15641Y-13860D01*
X-15517Y-13679D01*
X-15364Y-13499D01*
X-15350Y-13485D01*
X-15323Y-13457D01*
X-15281Y-13416D01*
X-15212Y-13360D01*
X-15115Y-13291D01*
X-15017Y-13208D01*
X-14893Y-13139D01*
X-14754Y-13041D01*
X-14615Y-12958D01*
X-14435Y-12889D01*
X-14255Y-12806D01*
X-14060Y-12736D01*
X-13852Y-12681D01*
X-13631Y-12639D01*
X-13409Y-12612D01*
X-13159Y-12598D01*
X-13090D01*
X-13020Y-12612D01*
D02*
G37*
G36*
X43147Y-12487D02*
X43299Y-12500D01*
X43479Y-12514D01*
X43660Y-12542D01*
X43868Y-12570D01*
X44312Y-12667D01*
X44534Y-12736D01*
X44755Y-12806D01*
X44977Y-12903D01*
X45185Y-13014D01*
X45380Y-13139D01*
X45560Y-13277D01*
X45574Y-13291D01*
X45601Y-13319D01*
X45643Y-13360D01*
X45698Y-13416D01*
X45768Y-13499D01*
X45851Y-13596D01*
X45934Y-13707D01*
X46031Y-13832D01*
X46115Y-13984D01*
X46198Y-14137D01*
X46281Y-14317D01*
X46350Y-14511D01*
X46420Y-14706D01*
X46475Y-14928D01*
X46517Y-15149D01*
X46531Y-15399D01*
X44589Y-15468D01*
Y-15454D01*
Y-15441D01*
X44561Y-15344D01*
X44534Y-15219D01*
X44478Y-15066D01*
X44409Y-14886D01*
X44312Y-14720D01*
X44187Y-14553D01*
X44048Y-14414D01*
X44034Y-14401D01*
X43979Y-14359D01*
X43882Y-14303D01*
X43743Y-14248D01*
X43577Y-14193D01*
X43369Y-14137D01*
X43119Y-14095D01*
X42828Y-14081D01*
X42689D01*
X42537Y-14095D01*
X42356Y-14123D01*
X42148Y-14165D01*
X41926Y-14234D01*
X41718Y-14317D01*
X41524Y-14442D01*
X41510Y-14456D01*
X41483Y-14484D01*
X41427Y-14525D01*
X41371Y-14595D01*
X41316Y-14678D01*
X41261Y-14789D01*
X41233Y-14900D01*
X41219Y-15038D01*
Y-15052D01*
Y-15094D01*
X41233Y-15163D01*
X41261Y-15233D01*
X41288Y-15330D01*
X41330Y-15427D01*
X41399Y-15524D01*
X41496Y-15621D01*
X41510Y-15635D01*
X41579Y-15676D01*
X41621Y-15704D01*
X41691Y-15732D01*
X41760Y-15774D01*
X41857Y-15815D01*
X41968Y-15857D01*
X42093Y-15912D01*
X42245Y-15968D01*
X42398Y-16023D01*
X42592Y-16079D01*
X42800Y-16134D01*
X43022Y-16190D01*
X43271Y-16259D01*
X43285D01*
X43341Y-16273D01*
X43410Y-16287D01*
X43507Y-16314D01*
X43618Y-16342D01*
X43757Y-16384D01*
X43909Y-16425D01*
X44062Y-16467D01*
X44395Y-16578D01*
X44742Y-16689D01*
X45074Y-16814D01*
X45213Y-16883D01*
X45352Y-16952D01*
X45366D01*
X45380Y-16966D01*
X45463Y-17022D01*
X45588Y-17105D01*
X45740Y-17216D01*
X45907Y-17354D01*
X46087Y-17521D01*
X46267Y-17715D01*
X46420Y-17937D01*
X46434Y-17965D01*
X46475Y-18048D01*
X46544Y-18173D01*
X46614Y-18353D01*
X46683Y-18575D01*
X46753Y-18838D01*
X46794Y-19130D01*
X46808Y-19462D01*
Y-19476D01*
Y-19504D01*
Y-19546D01*
Y-19601D01*
X46794Y-19670D01*
X46780Y-19768D01*
X46753Y-19962D01*
X46697Y-20211D01*
X46614Y-20475D01*
X46489Y-20738D01*
X46336Y-21016D01*
Y-21030D01*
X46309Y-21043D01*
X46253Y-21127D01*
X46142Y-21265D01*
X46004Y-21418D01*
X45823Y-21598D01*
X45588Y-21765D01*
X45338Y-21931D01*
X45033Y-22084D01*
X45019D01*
X44991Y-22097D01*
X44950Y-22111D01*
X44880Y-22139D01*
X44797Y-22167D01*
X44700Y-22194D01*
X44589Y-22222D01*
X44464Y-22250D01*
X44312Y-22292D01*
X44159Y-22319D01*
X43798Y-22375D01*
X43396Y-22416D01*
X42952Y-22430D01*
X42772D01*
X42647Y-22416D01*
X42495Y-22403D01*
X42328Y-22389D01*
X42134Y-22361D01*
X41926Y-22319D01*
X41469Y-22222D01*
X41233Y-22153D01*
X41011Y-22084D01*
X40775Y-21986D01*
X40553Y-21876D01*
X40345Y-21751D01*
X40151Y-21598D01*
X40137Y-21584D01*
X40110Y-21557D01*
X40054Y-21515D01*
X39999Y-21446D01*
X39915Y-21349D01*
X39832Y-21238D01*
X39735Y-21113D01*
X39638Y-20974D01*
X39541Y-20808D01*
X39444Y-20627D01*
X39347Y-20419D01*
X39250Y-20198D01*
X39180Y-19962D01*
X39097Y-19698D01*
X39042Y-19421D01*
X39000Y-19130D01*
X40886Y-18949D01*
Y-18963D01*
X40900Y-18991D01*
Y-19046D01*
X40914Y-19102D01*
X40969Y-19268D01*
X41039Y-19476D01*
X41122Y-19712D01*
X41247Y-19948D01*
X41385Y-20156D01*
X41566Y-20350D01*
X41593Y-20364D01*
X41663Y-20419D01*
X41774Y-20489D01*
X41940Y-20572D01*
X42148Y-20655D01*
X42384Y-20724D01*
X42661Y-20780D01*
X42980Y-20794D01*
X43133D01*
X43299Y-20766D01*
X43507Y-20738D01*
X43729Y-20697D01*
X43965Y-20627D01*
X44187Y-20530D01*
X44381Y-20405D01*
X44409Y-20392D01*
X44464Y-20336D01*
X44534Y-20253D01*
X44631Y-20142D01*
X44714Y-20003D01*
X44797Y-19837D01*
X44852Y-19670D01*
X44866Y-19476D01*
Y-19462D01*
Y-19421D01*
X44852Y-19352D01*
X44839Y-19268D01*
X44811Y-19185D01*
X44783Y-19088D01*
X44728Y-18991D01*
X44658Y-18894D01*
X44644Y-18880D01*
X44617Y-18852D01*
X44575Y-18811D01*
X44506Y-18755D01*
X44409Y-18686D01*
X44284Y-18616D01*
X44145Y-18547D01*
X43965Y-18478D01*
X43951D01*
X43896Y-18450D01*
X43798Y-18422D01*
X43729Y-18395D01*
X43646Y-18381D01*
X43549Y-18353D01*
X43438Y-18311D01*
X43313Y-18284D01*
X43174Y-18242D01*
X43008Y-18200D01*
X42828Y-18159D01*
X42634Y-18103D01*
X42412Y-18048D01*
X42398D01*
X42342Y-18034D01*
X42259Y-18006D01*
X42162Y-17979D01*
X42037Y-17937D01*
X41885Y-17895D01*
X41732Y-17840D01*
X41552Y-17784D01*
X41191Y-17646D01*
X40844Y-17479D01*
X40664Y-17396D01*
X40512Y-17299D01*
X40359Y-17202D01*
X40234Y-17105D01*
X40220Y-17091D01*
X40193Y-17063D01*
X40151Y-17022D01*
X40096Y-16966D01*
X40026Y-16883D01*
X39957Y-16786D01*
X39874Y-16689D01*
X39804Y-16564D01*
X39638Y-16273D01*
X39499Y-15940D01*
X39444Y-15760D01*
X39402Y-15579D01*
X39374Y-15371D01*
X39361Y-15163D01*
Y-15149D01*
Y-15136D01*
Y-15094D01*
Y-15038D01*
X39388Y-14900D01*
X39416Y-14720D01*
X39458Y-14511D01*
X39527Y-14276D01*
X39624Y-14026D01*
X39763Y-13790D01*
Y-13776D01*
X39777Y-13763D01*
X39846Y-13679D01*
X39929Y-13568D01*
X40068Y-13430D01*
X40234Y-13277D01*
X40442Y-13111D01*
X40678Y-12958D01*
X40956Y-12819D01*
X40969D01*
X40997Y-12806D01*
X41039Y-12792D01*
X41094Y-12764D01*
X41177Y-12736D01*
X41261Y-12708D01*
X41371Y-12681D01*
X41496Y-12639D01*
X41774Y-12584D01*
X42093Y-12528D01*
X42453Y-12487D01*
X42855Y-12473D01*
X43022D01*
X43147Y-12487D01*
D02*
G37*
G36*
X15687Y-14165D02*
X10431Y-20627D01*
X15895D01*
Y-22250D01*
X8087D01*
Y-20503D01*
X13149Y-14276D01*
X8670D01*
Y-12653D01*
X15687D01*
Y-14165D01*
D02*
G37*
G36*
X30235Y-14498D02*
X26754D01*
X26463Y-16134D01*
X26477D01*
X26491Y-16120D01*
X26574Y-16079D01*
X26699Y-16037D01*
X26851Y-15968D01*
X27046Y-15912D01*
X27253Y-15870D01*
X27489Y-15829D01*
X27725Y-15815D01*
X27850D01*
X27933Y-15829D01*
X28030Y-15843D01*
X28155Y-15857D01*
X28294Y-15884D01*
X28446Y-15926D01*
X28765Y-16037D01*
X28945Y-16106D01*
X29112Y-16190D01*
X29292Y-16300D01*
X29472Y-16425D01*
X29639Y-16564D01*
X29805Y-16717D01*
X29819Y-16730D01*
X29847Y-16758D01*
X29889Y-16814D01*
X29944Y-16883D01*
X29999Y-16966D01*
X30083Y-17077D01*
X30152Y-17202D01*
X30235Y-17341D01*
X30318Y-17493D01*
X30388Y-17673D01*
X30471Y-17868D01*
X30526Y-18062D01*
X30582Y-18284D01*
X30624Y-18519D01*
X30651Y-18769D01*
X30665Y-19032D01*
Y-19046D01*
Y-19088D01*
Y-19144D01*
X30651Y-19227D01*
Y-19338D01*
X30624Y-19462D01*
X30610Y-19601D01*
X30582Y-19740D01*
X30499Y-20073D01*
X30374Y-20433D01*
X30291Y-20627D01*
X30208Y-20808D01*
X30096Y-20988D01*
X29972Y-21168D01*
X29958Y-21182D01*
X29930Y-21224D01*
X29875Y-21279D01*
X29805Y-21362D01*
X29708Y-21460D01*
X29583Y-21570D01*
X29445Y-21681D01*
X29292Y-21792D01*
X29112Y-21917D01*
X28918Y-22028D01*
X28710Y-22139D01*
X28474Y-22236D01*
X28224Y-22319D01*
X27961Y-22375D01*
X27669Y-22416D01*
X27364Y-22430D01*
X27240D01*
X27143Y-22416D01*
X27032Y-22403D01*
X26893Y-22389D01*
X26754Y-22375D01*
X26588Y-22347D01*
X26255Y-22264D01*
X25880Y-22125D01*
X25700Y-22056D01*
X25520Y-21959D01*
X25354Y-21848D01*
X25187Y-21723D01*
X25173Y-21709D01*
X25145Y-21695D01*
X25104Y-21654D01*
X25048Y-21598D01*
X24993Y-21515D01*
X24910Y-21432D01*
X24840Y-21335D01*
X24757Y-21224D01*
X24660Y-21085D01*
X24577Y-20946D01*
X24424Y-20614D01*
X24286Y-20239D01*
X24244Y-20031D01*
X24202Y-19809D01*
X26033Y-19615D01*
Y-19643D01*
X26047Y-19712D01*
X26075Y-19837D01*
X26116Y-19976D01*
X26172Y-20128D01*
X26255Y-20294D01*
X26366Y-20447D01*
X26491Y-20600D01*
X26505Y-20614D01*
X26560Y-20655D01*
X26643Y-20711D01*
X26754Y-20780D01*
X26879Y-20849D01*
X27032Y-20905D01*
X27212Y-20946D01*
X27392Y-20960D01*
X27420D01*
X27489Y-20946D01*
X27600Y-20933D01*
X27739Y-20905D01*
X27891Y-20849D01*
X28058Y-20766D01*
X28224Y-20641D01*
X28377Y-20489D01*
X28391Y-20461D01*
X28446Y-20405D01*
X28502Y-20294D01*
X28585Y-20128D01*
X28654Y-19934D01*
X28723Y-19698D01*
X28765Y-19407D01*
X28779Y-19074D01*
Y-19060D01*
Y-19032D01*
Y-18991D01*
Y-18922D01*
X28765Y-18769D01*
X28723Y-18575D01*
X28682Y-18353D01*
X28613Y-18131D01*
X28516Y-17923D01*
X28377Y-17743D01*
X28363Y-17729D01*
X28307Y-17673D01*
X28210Y-17604D01*
X28100Y-17507D01*
X27947Y-17424D01*
X27767Y-17354D01*
X27559Y-17299D01*
X27337Y-17285D01*
X27253D01*
X27198Y-17299D01*
X27059Y-17327D01*
X26865Y-17368D01*
X26643Y-17451D01*
X26407Y-17576D01*
X26283Y-17660D01*
X26158Y-17757D01*
X26033Y-17868D01*
X25908Y-17992D01*
X24424Y-17784D01*
X25367Y-12778D01*
X30235D01*
Y-14498D01*
D02*
G37*
%LPC*%
G36*
X-51713Y-16550D02*
X-51810D01*
X-51921Y-16578D01*
X-52060Y-16606D01*
X-52212Y-16661D01*
X-52379Y-16730D01*
X-52545Y-16841D01*
X-52698Y-16994D01*
X-52712Y-17008D01*
X-52753Y-17077D01*
X-52823Y-17174D01*
X-52892Y-17313D01*
X-52975Y-17479D01*
X-53031Y-17687D01*
X-53072Y-17923D01*
X-53086Y-18187D01*
X-50340D01*
Y-18173D01*
Y-18145D01*
Y-18117D01*
X-50354Y-18062D01*
X-50368Y-17909D01*
X-50396Y-17743D01*
X-50451Y-17549D01*
X-50521Y-17341D01*
X-50631Y-17146D01*
X-50756Y-16980D01*
X-50770Y-16966D01*
X-50826Y-16911D01*
X-50909Y-16841D01*
X-51020Y-16758D01*
X-51158Y-16689D01*
X-51325Y-16619D01*
X-51505Y-16564D01*
X-51713Y-16550D01*
D02*
G37*
G36*
X34742Y-14123D02*
X34687D01*
X34618Y-14137D01*
X34548Y-14151D01*
X34451Y-14179D01*
X34354Y-14220D01*
X34243Y-14276D01*
X34146Y-14345D01*
X34132Y-14359D01*
X34104Y-14387D01*
X34063Y-14442D01*
X34007Y-14511D01*
X33938Y-14622D01*
X33883Y-14747D01*
X33813Y-14914D01*
X33758Y-15108D01*
Y-15122D01*
X33744Y-15136D01*
Y-15191D01*
X33730Y-15246D01*
X33716Y-15330D01*
X33702Y-15427D01*
X33688Y-15538D01*
X33675Y-15676D01*
X33647Y-15843D01*
X33633Y-16009D01*
X33619Y-16217D01*
X33605Y-16425D01*
X33591Y-16675D01*
Y-16925D01*
X33577Y-17216D01*
Y-17521D01*
Y-17535D01*
Y-17590D01*
Y-17687D01*
Y-17798D01*
Y-17937D01*
X33591Y-18089D01*
Y-18270D01*
X33605Y-18450D01*
X33619Y-18838D01*
X33647Y-19227D01*
X33661Y-19407D01*
X33688Y-19573D01*
X33716Y-19726D01*
X33744Y-19865D01*
X33758Y-19892D01*
X33772Y-19962D01*
X33813Y-20073D01*
X33855Y-20198D01*
X33924Y-20336D01*
X33993Y-20475D01*
X34077Y-20600D01*
X34160Y-20697D01*
X34174Y-20711D01*
X34202Y-20724D01*
X34257Y-20766D01*
X34326Y-20794D01*
X34410Y-20835D01*
X34507Y-20877D01*
X34618Y-20891D01*
X34742Y-20905D01*
X34798D01*
X34867Y-20891D01*
X34937Y-20877D01*
X35034Y-20849D01*
X35131Y-20821D01*
X35228Y-20766D01*
X35325Y-20697D01*
X35339Y-20683D01*
X35366Y-20655D01*
X35422Y-20600D01*
X35477Y-20516D01*
X35533Y-20419D01*
X35602Y-20281D01*
X35672Y-20128D01*
X35727Y-19934D01*
Y-19920D01*
X35741Y-19906D01*
Y-19851D01*
X35755Y-19795D01*
X35769Y-19712D01*
X35783Y-19615D01*
X35810Y-19504D01*
X35824Y-19365D01*
X35838Y-19213D01*
X35866Y-19032D01*
X35880Y-18838D01*
X35893Y-18616D01*
X35907Y-18381D01*
Y-18117D01*
X35921Y-17826D01*
Y-17521D01*
Y-17507D01*
Y-17451D01*
Y-17354D01*
Y-17243D01*
Y-17105D01*
X35907Y-16952D01*
Y-16772D01*
X35893Y-16592D01*
X35880Y-16203D01*
X35852Y-15829D01*
X35824Y-15649D01*
X35796Y-15468D01*
X35769Y-15316D01*
X35741Y-15191D01*
Y-15177D01*
X35727Y-15163D01*
X35713Y-15094D01*
X35672Y-14983D01*
X35630Y-14844D01*
X35561Y-14706D01*
X35491Y-14567D01*
X35408Y-14442D01*
X35325Y-14345D01*
X35311Y-14331D01*
X35283Y-14303D01*
X35228Y-14276D01*
X35159Y-14234D01*
X35075Y-14193D01*
X34978Y-14151D01*
X34867Y-14137D01*
X34742Y-14123D01*
D02*
G37*
G36*
X2998Y-14886D02*
X1694Y-18450D01*
X4343D01*
X2998Y-14886D01*
D02*
G37*
G36*
X19820Y-14123D02*
X19765D01*
X19695Y-14137D01*
X19626Y-14151D01*
X19529Y-14179D01*
X19432Y-14220D01*
X19321Y-14276D01*
X19224Y-14345D01*
X19210Y-14359D01*
X19182Y-14387D01*
X19140Y-14442D01*
X19085Y-14511D01*
X19016Y-14622D01*
X18960Y-14747D01*
X18891Y-14914D01*
X18835Y-15108D01*
Y-15122D01*
X18822Y-15136D01*
Y-15191D01*
X18808Y-15246D01*
X18794Y-15330D01*
X18780Y-15427D01*
X18766Y-15538D01*
X18752Y-15676D01*
X18724Y-15843D01*
X18711Y-16009D01*
X18697Y-16217D01*
X18683Y-16425D01*
X18669Y-16675D01*
Y-16925D01*
X18655Y-17216D01*
Y-17521D01*
Y-17535D01*
Y-17590D01*
Y-17687D01*
Y-17798D01*
Y-17937D01*
X18669Y-18089D01*
Y-18270D01*
X18683Y-18450D01*
X18697Y-18838D01*
X18724Y-19227D01*
X18738Y-19407D01*
X18766Y-19573D01*
X18794Y-19726D01*
X18822Y-19865D01*
X18835Y-19892D01*
X18849Y-19962D01*
X18891Y-20073D01*
X18932Y-20198D01*
X19002Y-20336D01*
X19071Y-20475D01*
X19154Y-20600D01*
X19238Y-20697D01*
X19251Y-20711D01*
X19279Y-20724D01*
X19335Y-20766D01*
X19404Y-20794D01*
X19487Y-20835D01*
X19584Y-20877D01*
X19695Y-20891D01*
X19820Y-20905D01*
X19876D01*
X19945Y-20891D01*
X20014Y-20877D01*
X20111Y-20849D01*
X20208Y-20821D01*
X20305Y-20766D01*
X20403Y-20697D01*
X20416Y-20683D01*
X20444Y-20655D01*
X20500Y-20600D01*
X20555Y-20516D01*
X20610Y-20419D01*
X20680Y-20281D01*
X20749Y-20128D01*
X20805Y-19934D01*
Y-19920D01*
X20819Y-19906D01*
Y-19851D01*
X20832Y-19795D01*
X20846Y-19712D01*
X20860Y-19615D01*
X20888Y-19504D01*
X20902Y-19365D01*
X20916Y-19213D01*
X20943Y-19032D01*
X20957Y-18838D01*
X20971Y-18616D01*
X20985Y-18381D01*
Y-18117D01*
X20999Y-17826D01*
Y-17521D01*
Y-17507D01*
Y-17451D01*
Y-17354D01*
Y-17243D01*
Y-17105D01*
X20985Y-16952D01*
Y-16772D01*
X20971Y-16592D01*
X20957Y-16203D01*
X20930Y-15829D01*
X20902Y-15649D01*
X20874Y-15468D01*
X20846Y-15316D01*
X20819Y-15191D01*
Y-15177D01*
X20805Y-15163D01*
X20791Y-15094D01*
X20749Y-14983D01*
X20708Y-14844D01*
X20638Y-14706D01*
X20569Y-14567D01*
X20486Y-14442D01*
X20403Y-14345D01*
X20389Y-14331D01*
X20361Y-14303D01*
X20305Y-14276D01*
X20236Y-14234D01*
X20153Y-14193D01*
X20056Y-14151D01*
X19945Y-14137D01*
X19820Y-14123D01*
D02*
G37*
G36*
X-28636D02*
X-28692D01*
X-28761Y-14137D01*
X-28830Y-14151D01*
X-28927Y-14179D01*
X-29025Y-14220D01*
X-29135Y-14276D01*
X-29232Y-14345D01*
X-29246Y-14359D01*
X-29274Y-14387D01*
X-29316Y-14442D01*
X-29371Y-14511D01*
X-29441Y-14622D01*
X-29496Y-14747D01*
X-29565Y-14914D01*
X-29621Y-15108D01*
Y-15122D01*
X-29635Y-15136D01*
Y-15191D01*
X-29649Y-15246D01*
X-29662Y-15330D01*
X-29676Y-15427D01*
X-29690Y-15538D01*
X-29704Y-15676D01*
X-29732Y-15843D01*
X-29746Y-16009D01*
X-29760Y-16217D01*
X-29773Y-16425D01*
X-29787Y-16675D01*
Y-16925D01*
X-29801Y-17216D01*
Y-17521D01*
Y-17535D01*
Y-17590D01*
Y-17687D01*
Y-17798D01*
Y-17937D01*
X-29787Y-18089D01*
Y-18270D01*
X-29773Y-18450D01*
X-29760Y-18838D01*
X-29732Y-19227D01*
X-29718Y-19407D01*
X-29690Y-19573D01*
X-29662Y-19726D01*
X-29635Y-19865D01*
X-29621Y-19892D01*
X-29607Y-19962D01*
X-29565Y-20073D01*
X-29524Y-20198D01*
X-29454Y-20336D01*
X-29385Y-20475D01*
X-29302Y-20600D01*
X-29219Y-20697D01*
X-29205Y-20711D01*
X-29177Y-20724D01*
X-29122Y-20766D01*
X-29052Y-20794D01*
X-28969Y-20835D01*
X-28872Y-20877D01*
X-28761Y-20891D01*
X-28636Y-20905D01*
X-28581D01*
X-28511Y-20891D01*
X-28442Y-20877D01*
X-28345Y-20849D01*
X-28248Y-20821D01*
X-28151Y-20766D01*
X-28054Y-20697D01*
X-28040Y-20683D01*
X-28012Y-20655D01*
X-27957Y-20600D01*
X-27901Y-20516D01*
X-27846Y-20419D01*
X-27776Y-20281D01*
X-27707Y-20128D01*
X-27652Y-19934D01*
Y-19920D01*
X-27638Y-19906D01*
Y-19851D01*
X-27624Y-19795D01*
X-27610Y-19712D01*
X-27596Y-19615D01*
X-27568Y-19504D01*
X-27554Y-19365D01*
X-27541Y-19213D01*
X-27513Y-19032D01*
X-27499Y-18838D01*
X-27485Y-18616D01*
X-27471Y-18381D01*
Y-18117D01*
X-27457Y-17826D01*
Y-17521D01*
Y-17507D01*
Y-17451D01*
Y-17354D01*
Y-17243D01*
Y-17105D01*
X-27471Y-16952D01*
Y-16772D01*
X-27485Y-16592D01*
X-27499Y-16203D01*
X-27527Y-15829D01*
X-27554Y-15649D01*
X-27582Y-15468D01*
X-27610Y-15316D01*
X-27638Y-15191D01*
Y-15177D01*
X-27652Y-15163D01*
X-27665Y-15094D01*
X-27707Y-14983D01*
X-27749Y-14844D01*
X-27818Y-14706D01*
X-27887Y-14567D01*
X-27970Y-14442D01*
X-28054Y-14345D01*
X-28068Y-14331D01*
X-28095Y-14303D01*
X-28151Y-14276D01*
X-28220Y-14234D01*
X-28303Y-14193D01*
X-28400Y-14151D01*
X-28511Y-14137D01*
X-28636Y-14123D01*
D02*
G37*
G36*
X-36097Y-14054D02*
X-36181D01*
X-36278Y-14068D01*
X-36402Y-14095D01*
X-36541Y-14137D01*
X-36680Y-14193D01*
X-36818Y-14262D01*
X-36943Y-14373D01*
X-36957Y-14387D01*
X-36985Y-14428D01*
X-37040Y-14498D01*
X-37096Y-14595D01*
X-37151Y-14720D01*
X-37207Y-14858D01*
X-37235Y-15025D01*
X-37248Y-15219D01*
Y-15246D01*
Y-15316D01*
X-37235Y-15413D01*
X-37207Y-15538D01*
X-37179Y-15676D01*
X-37124Y-15815D01*
X-37040Y-15954D01*
X-36943Y-16079D01*
X-36930Y-16092D01*
X-36888Y-16120D01*
X-36818Y-16176D01*
X-36721Y-16231D01*
X-36597Y-16287D01*
X-36458Y-16342D01*
X-36291Y-16370D01*
X-36111Y-16384D01*
X-36028D01*
X-35931Y-16370D01*
X-35806Y-16342D01*
X-35667Y-16314D01*
X-35529Y-16259D01*
X-35390Y-16176D01*
X-35265Y-16079D01*
X-35251Y-16065D01*
X-35210Y-16023D01*
X-35168Y-15954D01*
X-35099Y-15843D01*
X-35043Y-15718D01*
X-35002Y-15579D01*
X-34960Y-15399D01*
X-34946Y-15205D01*
Y-15177D01*
Y-15122D01*
X-34960Y-15025D01*
X-34988Y-14914D01*
X-35029Y-14775D01*
X-35085Y-14636D01*
X-35154Y-14498D01*
X-35265Y-14373D01*
X-35279Y-14359D01*
X-35321Y-14317D01*
X-35390Y-14276D01*
X-35487Y-14206D01*
X-35612Y-14151D01*
X-35751Y-14109D01*
X-35917Y-14068D01*
X-36097Y-14054D01*
D02*
G37*
G36*
X-36084Y-17840D02*
X-36194D01*
X-36319Y-17868D01*
X-36458Y-17895D01*
X-36624Y-17951D01*
X-36791Y-18034D01*
X-36957Y-18159D01*
X-37096Y-18311D01*
X-37110Y-18339D01*
X-37151Y-18395D01*
X-37193Y-18492D01*
X-37248Y-18616D01*
X-37318Y-18769D01*
X-37359Y-18935D01*
X-37401Y-19130D01*
X-37415Y-19324D01*
Y-19338D01*
Y-19352D01*
Y-19393D01*
Y-19449D01*
X-37387Y-19587D01*
X-37359Y-19768D01*
X-37318Y-19962D01*
X-37248Y-20156D01*
X-37151Y-20350D01*
X-37027Y-20530D01*
X-37013Y-20544D01*
X-36957Y-20600D01*
X-36874Y-20655D01*
X-36763Y-20738D01*
X-36624Y-20808D01*
X-36458Y-20877D01*
X-36264Y-20933D01*
X-36056Y-20946D01*
X-35959D01*
X-35862Y-20919D01*
X-35723Y-20891D01*
X-35570Y-20849D01*
X-35418Y-20780D01*
X-35265Y-20683D01*
X-35113Y-20544D01*
X-35099Y-20530D01*
X-35057Y-20461D01*
X-34988Y-20378D01*
X-34918Y-20239D01*
X-34849Y-20073D01*
X-34780Y-19865D01*
X-34738Y-19629D01*
X-34724Y-19352D01*
Y-19338D01*
Y-19324D01*
Y-19241D01*
X-34738Y-19116D01*
X-34766Y-18963D01*
X-34822Y-18783D01*
X-34891Y-18603D01*
X-34988Y-18422D01*
X-35113Y-18256D01*
X-35127Y-18242D01*
X-35182Y-18187D01*
X-35265Y-18117D01*
X-35376Y-18048D01*
X-35515Y-17965D01*
X-35681Y-17909D01*
X-35875Y-17854D01*
X-36084Y-17840D01*
D02*
G37*
G36*
X-13242Y-14123D02*
X-13325D01*
X-13422Y-14151D01*
X-13534Y-14179D01*
X-13672Y-14220D01*
X-13811Y-14303D01*
X-13950Y-14401D01*
X-14088Y-14539D01*
X-14102Y-14553D01*
X-14144Y-14622D01*
X-14199Y-14720D01*
X-14255Y-14858D01*
X-14310Y-15038D01*
X-14366Y-15274D01*
X-14407Y-15552D01*
X-14421Y-15870D01*
Y-15884D01*
Y-15912D01*
Y-15954D01*
Y-16023D01*
X-14407Y-16190D01*
X-14379Y-16384D01*
X-14338Y-16619D01*
X-14268Y-16841D01*
X-14185Y-17063D01*
X-14060Y-17243D01*
X-14047Y-17257D01*
X-13991Y-17313D01*
X-13922Y-17382D01*
X-13811Y-17451D01*
X-13672Y-17535D01*
X-13520Y-17604D01*
X-13339Y-17660D01*
X-13145Y-17673D01*
X-13117D01*
X-13062Y-17660D01*
X-12965Y-17646D01*
X-12840Y-17618D01*
X-12701Y-17576D01*
X-12549Y-17493D01*
X-12396Y-17396D01*
X-12258Y-17257D01*
X-12244Y-17243D01*
X-12202Y-17174D01*
X-12133Y-17077D01*
X-12063Y-16952D01*
X-12008Y-16772D01*
X-11939Y-16564D01*
X-11897Y-16314D01*
X-11883Y-16023D01*
Y-16009D01*
Y-15982D01*
Y-15940D01*
Y-15870D01*
X-11911Y-15718D01*
X-11939Y-15510D01*
X-11980Y-15288D01*
X-12063Y-15052D01*
X-12161Y-14830D01*
X-12299Y-14622D01*
X-12313Y-14595D01*
X-12369Y-14539D01*
X-12452Y-14470D01*
X-12563Y-14373D01*
X-12701Y-14276D01*
X-12868Y-14206D01*
X-13048Y-14151D01*
X-13242Y-14123D01*
D02*
G37*
%LPD*%
D13*
X-95500Y-113000D02*
X95500D01*
X-95500Y78000D02*
X95500D01*
Y-113000D02*
Y78000D01*
X-95500Y-113000D02*
Y78000D01*
D14*
X-193040Y181610D02*
X-181610Y193040D01*
X193040D01*
Y-193040D02*
Y193040D01*
X-193040Y-193040D02*
X193040D01*
X-193040D02*
Y181610D01*
D21*
X-82500Y68000D02*
G03*
X-82500Y68000I-3000J0D01*
G01*
D22*
X-105750Y77000D02*
G03*
X-105750Y77000I-1250J0D01*
G01*
D23*
X-117000Y135200D02*
X137000D01*
X-117000Y109800D02*
Y135200D01*
Y109800D02*
X137000D01*
Y135200D01*
X-91600Y109800D02*
Y135200D01*
D24*
X-129640Y129515D02*
D03*
M02*
