G04 Layer_Physical_Order=1*
G04 Layer_Color=255*
%FSLAX44Y44*%
%MOMM*%
G71*
G01*
G75*
%ADD10C,1.0000*%
%ADD11R,0.3000X1.5000*%
%ADD12R,1.5000X0.3000*%
%ADD13C,0.2000*%
%ADD14C,0.3500*%
%ADD15C,1.6510*%
%ADD16R,1.6510X1.6510*%
%ADD17C,0.6000*%
D10*
X-107000Y-124500D02*
D03*
X107000Y89500D02*
D03*
D11*
X-87500D02*
D03*
X-82500D02*
D03*
X-77500Y89500D02*
D03*
X-72500D02*
D03*
X-67500Y89500D02*
D03*
X-62500D02*
D03*
X-57500D02*
D03*
X-52500D02*
D03*
X-47500D02*
D03*
X-42500D02*
D03*
X-37500D02*
D03*
X-32500D02*
D03*
X-27500D02*
D03*
X-22500D02*
D03*
X-17500D02*
D03*
X-12500Y89500D02*
D03*
X-7500D02*
D03*
X-2500Y89500D02*
D03*
X2500D02*
D03*
X7500D02*
D03*
X12500D02*
D03*
X17500D02*
D03*
X22500D02*
D03*
X27500Y89500D02*
D03*
X32500D02*
D03*
X37500Y89500D02*
D03*
X42500D02*
D03*
X47500D02*
D03*
X52500D02*
D03*
X57500D02*
D03*
X62500D02*
D03*
X67500D02*
D03*
X72500D02*
D03*
X77500D02*
D03*
X82500D02*
D03*
X87500D02*
D03*
Y-124500D02*
D03*
X82500D02*
D03*
X77500D02*
D03*
X72500D02*
D03*
X67500D02*
D03*
X62500D02*
D03*
X57500D02*
D03*
X52500D02*
D03*
X47500D02*
D03*
X42500D02*
D03*
X37500D02*
D03*
X32500D02*
D03*
X27500D02*
D03*
X22500D02*
D03*
X17500D02*
D03*
X12500D02*
D03*
X7500D02*
D03*
X2500D02*
D03*
X-2500D02*
D03*
X-7500D02*
D03*
X-12500D02*
D03*
X-17500D02*
D03*
X-22500D02*
D03*
X-27500D02*
D03*
X-32500D02*
D03*
X-37500D02*
D03*
X-42500D02*
D03*
X-47500D02*
D03*
X-52500D02*
D03*
X-57500D02*
D03*
X-62500D02*
D03*
X-67500D02*
D03*
X-72500D02*
D03*
X-77500D02*
D03*
X-82500D02*
D03*
X-87500D02*
D03*
D12*
X107000Y70000D02*
D03*
Y65000D02*
D03*
Y60000D02*
D03*
Y55000D02*
D03*
Y50000D02*
D03*
Y45000D02*
D03*
Y40000D02*
D03*
Y35000D02*
D03*
Y30000D02*
D03*
Y25000D02*
D03*
Y20000D02*
D03*
Y15000D02*
D03*
Y10000D02*
D03*
Y5000D02*
D03*
Y-0D02*
D03*
Y-5000D02*
D03*
Y-10000D02*
D03*
Y-15000D02*
D03*
Y-20000D02*
D03*
Y-25000D02*
D03*
Y-30000D02*
D03*
Y-35000D02*
D03*
Y-40000D02*
D03*
Y-45000D02*
D03*
Y-50000D02*
D03*
Y-55000D02*
D03*
Y-60000D02*
D03*
Y-65000D02*
D03*
Y-70000D02*
D03*
Y-75000D02*
D03*
Y-80000D02*
D03*
Y-85000D02*
D03*
Y-90000D02*
D03*
Y-95000D02*
D03*
Y-100000D02*
D03*
Y-105000D02*
D03*
X-107000D02*
D03*
Y-100000D02*
D03*
Y-95000D02*
D03*
Y-90000D02*
D03*
Y-85000D02*
D03*
Y-80000D02*
D03*
Y-75000D02*
D03*
Y-70000D02*
D03*
Y-65000D02*
D03*
Y-60000D02*
D03*
Y-55000D02*
D03*
Y-50000D02*
D03*
Y-45000D02*
D03*
Y-40000D02*
D03*
Y-35000D02*
D03*
Y-30000D02*
D03*
Y-25000D02*
D03*
Y-20000D02*
D03*
Y-15000D02*
D03*
Y-10000D02*
D03*
Y-5000D02*
D03*
Y-0D02*
D03*
Y5000D02*
D03*
Y10000D02*
D03*
Y15000D02*
D03*
Y20000D02*
D03*
Y25000D02*
D03*
Y30000D02*
D03*
Y35000D02*
D03*
Y40000D02*
D03*
Y45000D02*
D03*
Y50000D02*
D03*
Y55000D02*
D03*
Y60000D02*
D03*
Y65000D02*
D03*
Y70000D02*
D03*
D13*
X-82500Y-134277D02*
Y-124500D01*
X-85723Y-137500D02*
X-82500Y-134277D01*
X-92750Y-137500D02*
X-85723D01*
X-94500Y-135750D02*
X-92750Y-137500D01*
X-77500Y-135500D02*
Y-124500D01*
X-89000Y-147000D02*
X-77500Y-135500D01*
X-89000Y-159500D02*
Y-147000D01*
X126000Y94250D02*
Y99500D01*
X133000Y94645D02*
Y108000D01*
X125450Y87095D02*
X133000Y94645D01*
X-8500Y-25750D02*
X6445D01*
X63846Y31651D01*
X2500Y-124500D02*
Y-96500D01*
X7500Y-124500D02*
Y-91500D01*
X-12500Y-113500D02*
X-7000Y-108000D01*
X-26500Y-106250D02*
Y-89250D01*
X0Y-18250D02*
X7722D01*
X62024Y36051D01*
X-32750Y-10000D02*
X9750D01*
X60201Y40451D01*
X-24000Y-2500D02*
X10750D01*
X58250Y45000D01*
X-53250Y51500D02*
X13972D01*
X-62000Y44500D02*
X13250D01*
X-70500Y40000D02*
X14972D01*
X-80250Y35500D02*
X17000D01*
X13972Y51500D02*
X32500Y70028D01*
X-79000Y61500D02*
X-62000Y44500D01*
X13250D02*
X47000Y78250D01*
X-72750Y42250D02*
X-70500Y40000D01*
X14972D02*
X48822Y73850D01*
X17000Y35500D02*
X50950Y69450D01*
X-55000Y5750D02*
X12750D01*
X57000Y50000D01*
X14500Y13750D02*
X55750Y55000D01*
X-41000Y13750D02*
X14500D01*
X-47000Y21750D02*
X16000D01*
X54250Y60000D01*
X-66250Y28750D02*
X16473D01*
X52723Y65000D01*
X-89250Y61500D02*
X-79000D01*
X-87500Y-108250D02*
X-87000Y-107750D01*
X-87500Y-124500D02*
Y-108250D01*
X-102000Y-105000D02*
X-100500D01*
X-107000D02*
X-102000D01*
X-95750Y-111250D01*
X68750Y22250D02*
X73000D01*
X79500Y15750D01*
X63846Y31651D02*
X91905D01*
X62024Y36051D02*
X93728D01*
X60201Y40451D02*
X95550D01*
X58250Y45000D02*
X107000D01*
X57000Y50000D02*
X107000D01*
X55750Y55000D02*
X107000D01*
X54250Y60000D02*
X107000D01*
X52723Y65000D02*
X107000D01*
X80450Y69450D02*
X87500Y76500D01*
X50950Y69450D02*
X80450D01*
X78350Y73850D02*
X82500Y78000D01*
X48822Y73850D02*
X78350D01*
X77500Y79250D02*
Y89500D01*
X76500Y78250D02*
X77500Y79250D01*
X47000Y78250D02*
X76500D01*
X32500Y70028D02*
Y89500D01*
X21000Y74500D02*
X22500Y76000D01*
X17500Y80250D02*
Y89500D01*
X11750Y74500D02*
X17500Y80250D01*
X27500Y71250D02*
Y89500D01*
X15250Y59000D02*
X27500Y71250D01*
X-62000Y59000D02*
X15250D01*
X51000Y-1750D02*
X55750Y-6500D01*
X73445D01*
X39750Y-2000D02*
X46750Y5000D01*
X54500D01*
X61600Y-2100D01*
X46089Y-11161D02*
X71883D01*
X42250Y-15000D02*
X46089Y-11161D01*
X54250Y12000D02*
X63950Y2300D01*
X61600Y-2100D02*
X75268D01*
X79500Y15750D02*
X83000D01*
X79973Y25000D02*
X86222Y18750D01*
X98000Y101949D02*
Y103000D01*
X92980Y96929D02*
X98000Y101949D01*
X72100Y105600D02*
X80600D01*
X67500Y101000D02*
X72100Y105600D01*
X67500Y89500D02*
Y101000D01*
X62500Y102973D02*
X69528Y110000D01*
X62500Y89500D02*
Y102973D01*
X69528Y110000D02*
X78750D01*
X88200Y101200D02*
X89500Y102500D01*
X74200Y101200D02*
X88200D01*
X72500Y99500D02*
X74200Y101200D01*
X72500Y89500D02*
Y99500D01*
X86000Y111000D02*
X89750D01*
X80600Y105600D02*
X86000Y111000D01*
X91250Y122500D02*
X98900D01*
X78750Y110000D02*
X91250Y122500D01*
X57500Y106500D02*
X73500Y122500D01*
X57500Y89500D02*
Y106500D01*
X48100Y122500D02*
X52500Y118100D01*
Y89500D02*
Y118100D01*
X22700Y122500D02*
X34150Y111050D01*
X39200D01*
X47500Y102750D01*
Y89500D02*
Y102750D01*
X42500Y89500D02*
Y101527D01*
X37377Y106650D02*
X42500Y101527D01*
X-7850Y102250D02*
X35555D01*
X37500Y100305D01*
Y89500D02*
Y100305D01*
X-2700Y122500D02*
X13150Y106650D01*
X-28100Y122500D02*
X-7850Y102250D01*
X-87500Y89500D02*
Y105700D01*
X-104300Y122500D02*
X-87500Y105700D01*
X-104300Y122500D02*
Y149700D01*
X92980Y77020D02*
Y96929D01*
X122550Y-15950D02*
Y72245D01*
X118500Y-20000D02*
X122550Y-15950D01*
X107000Y-20000D02*
X118500D01*
X118100Y-13650D02*
Y74018D01*
X116750Y-15000D02*
X118100Y-13650D01*
X107000Y-15000D02*
X116750D01*
X146000Y114000D02*
X165399D01*
X137500Y105500D02*
X146000Y114000D01*
X137500Y92923D02*
Y105500D01*
X140500Y115500D02*
Y133750D01*
X133000Y108000D02*
X140500Y115500D01*
X129850Y85273D02*
X137500Y92923D01*
X134250Y83450D02*
X152400Y101600D01*
X134250Y71500D02*
Y83450D01*
X147000Y88750D02*
X165250D01*
X138750Y80500D02*
X147000Y88750D01*
X138750Y69250D02*
Y80500D01*
X121050Y89300D02*
X126000Y94250D01*
X121050Y76967D02*
Y89300D01*
X129850Y73323D02*
Y85273D01*
X126950Y70422D02*
X129850Y73323D01*
X126950Y-82050D02*
Y70422D01*
X131350Y68600D02*
X134250Y71500D01*
X131350Y-83927D02*
Y68600D01*
X135750Y66250D02*
X138750Y69250D01*
X135750Y-85750D02*
Y66250D01*
X140250Y64050D02*
X152400Y76200D01*
X140250Y-87750D02*
Y64050D01*
X125450Y75145D02*
Y87095D01*
X118100Y74018D02*
X121050Y76967D01*
X122550Y72245D02*
X125450Y75145D01*
X124000Y-85000D02*
X126950Y-82050D01*
X125278Y-90000D02*
X131350Y-83927D01*
X126500Y-95000D02*
X135750Y-85750D01*
X165150Y139750D02*
X177800Y152400D01*
X146500Y139750D02*
X165150D01*
X140500Y133750D02*
X146500Y139750D01*
X80250Y-36500D02*
X86000Y-42250D01*
X95000D01*
X97250Y-40000D01*
X107000D01*
X72500Y-124500D02*
Y-107000D01*
X71250Y-105750D02*
X72500Y-107000D01*
X60650Y-104350D02*
Y-93650D01*
X52500Y-112500D02*
X60650Y-104350D01*
X52250Y-93000D02*
Y-80500D01*
X42500Y-102750D02*
X52250Y-93000D01*
X71250Y-98000D02*
X72750Y-96500D01*
X71250Y-105750D02*
Y-98000D01*
X78250Y-101000D02*
Y-87250D01*
X95500Y-70000D01*
X84750Y-94000D02*
Y-86972D01*
X92000Y-89000D02*
Y-85945D01*
X84750Y-86972D02*
X96723Y-75000D01*
X92000Y-85945D02*
X97945Y-80000D01*
X107000D01*
X96723Y-75000D02*
X107000D01*
X95500Y-70000D02*
X107000D01*
X165399Y114000D02*
X177800Y101600D01*
X128000Y-100000D02*
X140250Y-87750D01*
X145500Y-89000D02*
X159750D01*
X129500Y-105000D02*
X145500Y-89000D01*
X107000Y-85000D02*
X124000D01*
X107000Y-90000D02*
X125278D01*
X165250Y88750D02*
X177800Y76200D01*
X107000Y-95000D02*
X126500D01*
X107000Y-100000D02*
X128000D01*
X165000Y38000D02*
X177800Y50800D01*
X165000Y-83750D02*
Y38000D01*
X159750Y-89000D02*
X165000Y-83750D01*
X107000Y-105000D02*
X129500D01*
X116500Y-60000D02*
X120500Y-64000D01*
X107000Y-60000D02*
X116500D01*
X91250Y-26500D02*
X92751Y-25000D01*
X107000D01*
Y-35000D02*
Y-30000D01*
X91000Y-35250D02*
X91250Y-35000D01*
X107000D01*
X-130000Y-98250D02*
Y-50750D01*
X-146000Y-114250D02*
X-130000Y-98250D01*
X-125250Y-99850D02*
Y-53750D01*
X-152400Y-127000D02*
X-125250Y-99850D01*
X-134750Y-47750D02*
X-117000Y-30000D01*
X-134750Y-58250D02*
Y-47750D01*
X-139500Y-63000D02*
X-134750Y-58250D01*
X-130000Y-50750D02*
X-124250Y-45000D01*
X-125250Y-53750D02*
X-121500Y-50000D01*
X-107000D01*
X-124250Y-45000D02*
X-107000D01*
X-117000Y-30000D02*
X-107000D01*
X-139500Y-88700D02*
Y-63000D01*
X-152400Y-101600D02*
X-139500Y-88700D01*
Y-55750D02*
Y-45000D01*
X-147250Y-63500D02*
X-139500Y-55750D01*
X-165100Y-63500D02*
X-147250D01*
X-177800Y-101600D02*
X-165150Y-114250D01*
X-146000D01*
X-139500Y-45000D02*
X-119500Y-25000D01*
X-177800Y-76200D02*
X-165100Y-63500D01*
X-119500Y-25000D02*
X-107000D01*
X-124000Y-15000D02*
X-107000D01*
X-146750Y-37750D02*
X-124000Y-15000D01*
X-165450Y-37750D02*
X-146750D01*
X-152400Y-50800D02*
X-121600Y-20000D01*
X-107000D01*
X-177800Y-25400D02*
X-165450Y-37750D01*
X-139000Y-5000D02*
X-107000D01*
X-146500Y-12500D02*
X-139000Y-5000D01*
X-165300Y-12500D02*
X-146500D01*
X-152400Y-25400D02*
X-137000Y-10000D01*
X-107000D01*
X-177800Y-0D02*
X-165300Y-12500D01*
X-143500Y15000D02*
X-107000D01*
X-145750Y12750D02*
X-143500Y15000D01*
X-165150Y12750D02*
X-145750D01*
X-152400Y-0D02*
X-151278D01*
X-141278Y10000D01*
X-107000D01*
X-177800Y25400D02*
X-165150Y12750D01*
X-152400Y25400D02*
X-147000Y20000D01*
X-107000D01*
X-177800Y50800D02*
X-165000Y38000D01*
X-146500D01*
X-133500Y25000D01*
X-107000D01*
X-152400Y50800D02*
X-131600Y30000D01*
X-107000D01*
X-177800Y101600D02*
X-164950Y88750D01*
X-146750D01*
X-139750Y81750D01*
Y57250D02*
Y81750D01*
Y57250D02*
X-117500Y35000D01*
X-107000D01*
X-152400Y101600D02*
X-134750Y83950D01*
Y60750D02*
Y83950D01*
Y60750D02*
X-124000Y50000D01*
X-107000D01*
X-177800Y127000D02*
X-165050Y114250D01*
X-146500D01*
X-129750Y97500D01*
Y62750D02*
Y97500D01*
X-107000Y70000D02*
Y96250D01*
X-121000Y110250D02*
X-107000Y96250D01*
X-121000Y110250D02*
Y121000D01*
X-119750Y67250D02*
Y101500D01*
X-126250Y108000D02*
X-119750Y101500D01*
X-126250Y108000D02*
Y119000D01*
X-124750Y65000D02*
Y99350D01*
X-152400Y127000D02*
X-124750Y99350D01*
X-129750Y62750D02*
X-122000Y55000D01*
X-107000D01*
X-124750Y65000D02*
X-119750Y60000D01*
X-107000D01*
X-177800Y152400D02*
X-164900Y139500D01*
X-146750D01*
X-126250Y119000D01*
X-119750Y67250D02*
X-117500Y65000D01*
X-107000D01*
X-152400Y152400D02*
X-121000Y121000D01*
X-104300Y149700D02*
X-101600Y152400D01*
X-107000Y-55000D02*
X-94000D01*
X-90000Y-51000D01*
X-107000Y-60000D02*
X-89250D01*
X-107000Y-65000D02*
X-84250D01*
X-80253Y-61003D01*
X-117500Y-75000D02*
X-107000D01*
X-120250Y-77750D02*
X-117500Y-75000D01*
X-120250Y-102000D02*
Y-77750D01*
X-127000Y-108750D02*
X-120250Y-102000D01*
X-127000Y-152400D02*
Y-108750D01*
X-89250Y-60000D02*
X-82250Y-53000D01*
X-72500D01*
X-107000Y-70000D02*
X-69250D01*
X-82750Y-85250D02*
X-75000D01*
X-87500Y-90000D02*
X-82750Y-85250D01*
X-107000Y-90000D02*
X-87500D01*
X-107000Y-95000D02*
X-82500D01*
X-80250Y-92750D01*
X-107000Y-100000D02*
X-76000D01*
X-69500Y-93500D01*
X-89000Y-159500D02*
X-83500Y-165000D01*
X-63600D01*
X-50800Y-177800D01*
X-63250Y-158500D02*
X-56750Y-165000D01*
X-38000D01*
X-25400Y-152400D01*
X-13000Y-165400D02*
Y-146750D01*
X-25400Y-177800D02*
X-13000Y-165400D01*
X-19250Y-140500D02*
X-13000Y-146750D01*
X-62500Y-135000D02*
Y-124500D01*
Y-135000D02*
X-61400Y-136100D01*
X-16300D01*
X-0Y-152400D01*
X-67500Y-136500D02*
Y-124500D01*
Y-136500D02*
X-63500Y-140500D01*
X-19250D01*
X-72500Y-138250D02*
Y-124500D01*
Y-138250D02*
X-63250Y-147500D01*
Y-158500D02*
Y-147500D01*
X-57500Y-124500D02*
Y-114250D01*
X-64250Y-107500D02*
X-57500Y-114250D01*
X-56250Y-109000D02*
Y-102000D01*
Y-109000D02*
X-52500Y-112750D01*
Y-124500D02*
Y-112750D01*
X-47500Y-124500D02*
Y-110500D01*
X-49850Y-108150D02*
X-47500Y-110500D01*
X-49850Y-108150D02*
Y-97900D01*
X-56000Y-91750D02*
X-49850Y-97900D01*
X-45250Y-106250D02*
Y-91500D01*
Y-106250D02*
X-42500Y-109000D01*
Y-124500D02*
Y-109000D01*
X-37500Y-124500D02*
Y-103750D01*
X-32500Y-105500D02*
X-31750Y-104750D01*
X-107000Y-80000D02*
X-95750D01*
X-92250Y-76500D01*
X-107000Y-85000D02*
X-90500D01*
X-83500Y-78000D01*
X-65500D01*
X-107000Y-35000D02*
X-96000D01*
X-90500Y-29500D01*
X-107000Y-40000D02*
X-92000D01*
X-90500Y-41500D01*
X-107000Y5000D02*
X-97500D01*
X-92000Y10500D01*
X-121000Y-0D02*
X-107000D01*
X-123750Y2750D02*
X-121000Y-0D01*
X-95500Y45000D02*
X-90250Y50250D01*
X-107000Y40000D02*
X-96000D01*
X-91250Y35250D01*
X-37500Y79001D02*
Y89500D01*
X-42500Y74000D02*
X-37500Y79001D01*
X-32500Y73000D02*
Y89500D01*
X-33000Y72500D02*
X-32500Y73000D01*
X12500Y-160250D02*
X17500Y-165250D01*
X114450D02*
X127000Y-177800D01*
X-2500Y-135500D02*
Y-124500D01*
Y-135500D02*
X-1750Y-136250D01*
X-7500Y-137000D02*
Y-124500D01*
Y-137000D02*
X-3755Y-140745D01*
X140500Y-140500D02*
X152400Y-152400D01*
X17500Y-135250D02*
Y-124500D01*
Y-135250D02*
X18350Y-136100D01*
X-1750Y-136250D02*
X9250D01*
X13500Y-140500D01*
X-3755Y-140745D02*
X6995D01*
X12500Y-146250D01*
Y-160250D02*
Y-146250D01*
X142600Y-136100D02*
X146250Y-139750D01*
X165050D01*
X177800Y-127000D01*
X-27500Y-124500D02*
Y-107250D01*
X-26500Y-106250D01*
X-22500Y-124500D02*
Y-108500D01*
X-21500Y-107500D01*
Y-97500D01*
X-17250Y-93250D01*
X-17500Y-124500D02*
Y-110500D01*
X-14750Y-107750D01*
Y-102250D01*
X-12500Y-124500D02*
Y-113500D01*
X-2250Y-91750D02*
X2500Y-96500D01*
X7500Y-91500D02*
X9500Y-89500D01*
X22500Y-124500D02*
Y-107250D01*
X12500Y-124500D02*
Y-100750D01*
X27500Y-124500D02*
Y-100500D01*
X12500Y-100750D02*
X16250Y-97000D01*
X20250Y-105000D02*
X22500Y-107250D01*
X25250Y-98250D02*
X27500Y-100500D01*
X17500Y-165250D02*
X114450D01*
X13500Y-140500D02*
X140500D01*
X18350Y-136100D02*
X142600D01*
X32500Y-124500D02*
Y-90250D01*
X38000Y-84750D01*
X37500Y-124500D02*
Y-98500D01*
X45250Y-90750D01*
X42500Y-124500D02*
Y-102750D01*
X47500Y-124500D02*
Y-107750D01*
X54250Y-101000D01*
X52500Y-124500D02*
Y-112500D01*
X89000Y-123000D02*
X97000D01*
X87500Y-124500D02*
X89000Y-123000D01*
X92250Y-65000D02*
X107000D01*
X91000Y-63750D02*
X92250Y-65000D01*
X95500Y-55000D02*
X107000D01*
X94250Y-56250D02*
X95500Y-55000D01*
X88250Y-56250D02*
X94250D01*
X80250Y-64250D02*
X88250Y-56250D01*
X92250Y-50000D02*
X107000D01*
X91500Y-49250D02*
X92250Y-50000D01*
X13150Y106650D02*
X37377D01*
X22500Y76000D02*
Y89500D01*
X9500Y74500D02*
X11750D01*
X-38750Y-102500D02*
X-37500Y-103750D01*
X-107000Y45000D02*
X-95500D01*
X-32500Y-124500D02*
Y-105500D01*
X-35000Y-94250D02*
X-31750Y-97500D01*
Y-104750D02*
Y-97500D01*
X80250Y-36500D02*
Y-19528D01*
X92980Y77020D02*
X100000Y70000D01*
X107000D01*
X82500Y78000D02*
Y89500D01*
X87500Y76500D02*
Y89500D01*
X61000Y12250D02*
Y18500D01*
X65750Y-22000D02*
X66500Y-22750D01*
X62500Y-124500D02*
Y-109750D01*
X66500Y-105750D01*
X59750Y-92750D02*
X60650Y-93650D01*
X66500Y-105750D02*
Y-22750D01*
X72750Y-96500D02*
Y-18250D01*
X70061Y-15561D02*
X72750Y-18250D01*
X56189Y-15561D02*
X70061D01*
X53500Y-18250D02*
X56189Y-15561D01*
X71883Y-11161D02*
X80250Y-19528D01*
X73445Y-6500D02*
X76945Y-10000D01*
X75268Y-2100D02*
X78167Y-5000D01*
X63950Y2300D02*
X77090D01*
X79390Y-0D01*
X61000Y12250D02*
X66550Y6700D01*
X78913D01*
X80612Y5000D01*
X71750Y11250D02*
X80750D01*
X69750Y13250D02*
X71750Y11250D01*
X91905Y31651D02*
X93557Y30000D01*
X107000D01*
X93728Y36051D02*
X94779Y35000D01*
X107000D01*
X95550Y40451D02*
X96001Y40000D01*
X107000D01*
X86222Y18750D02*
X92250D01*
X89506Y25000D02*
X107000D01*
X89254Y25251D02*
X89506Y25000D01*
X92250Y18750D02*
X93500Y20000D01*
X107000D01*
X83000Y15750D02*
X84400Y14350D01*
X94073D01*
X94723Y15000D01*
X107000D01*
X80750Y11250D02*
X82050Y9950D01*
X106950D01*
X107000Y10000D01*
X80612Y5000D02*
X107000D01*
X79390Y-0D02*
X107000D01*
X78167Y-5000D02*
X107000D01*
X76945Y-10000D02*
X107000D01*
D14*
X-193040Y181610D02*
X-181610Y193040D01*
X193040D01*
Y-193040D02*
Y193040D01*
X-193040Y-193040D02*
X193040D01*
X-193040D02*
Y181610D01*
D15*
X177800Y-177800D02*
D03*
Y-152400D02*
D03*
Y-127000D02*
D03*
Y-101600D02*
D03*
Y-76200D02*
D03*
Y-50800D02*
D03*
Y-25400D02*
D03*
Y-0D02*
D03*
Y25400D02*
D03*
Y50800D02*
D03*
Y76200D02*
D03*
Y101600D02*
D03*
Y127000D02*
D03*
Y152400D02*
D03*
Y177800D02*
D03*
X152400Y-177800D02*
D03*
Y-127000D02*
D03*
Y-101600D02*
D03*
Y-76200D02*
D03*
Y-50800D02*
D03*
Y-25400D02*
D03*
Y-0D02*
D03*
Y25400D02*
D03*
Y50800D02*
D03*
Y76200D02*
D03*
Y101600D02*
D03*
Y127000D02*
D03*
Y177800D02*
D03*
X127000Y-177800D02*
D03*
Y-152400D02*
D03*
Y152400D02*
D03*
Y177800D02*
D03*
X101600Y-177800D02*
D03*
Y-152400D02*
D03*
Y152400D02*
D03*
Y177800D02*
D03*
X76200Y-177800D02*
D03*
Y-152400D02*
D03*
Y152400D02*
D03*
Y177800D02*
D03*
X50800Y-177800D02*
D03*
Y-152400D02*
D03*
Y152400D02*
D03*
Y177800D02*
D03*
X25400Y-177800D02*
D03*
Y-152400D02*
D03*
Y152400D02*
D03*
Y177800D02*
D03*
X-0Y-177800D02*
D03*
Y-152400D02*
D03*
Y152400D02*
D03*
Y177800D02*
D03*
X-25400Y-177800D02*
D03*
Y-152400D02*
D03*
Y152400D02*
D03*
Y177800D02*
D03*
X-50800Y-177800D02*
D03*
Y-152400D02*
D03*
Y152400D02*
D03*
Y177800D02*
D03*
X-76200Y-177800D02*
D03*
Y-152400D02*
D03*
Y152400D02*
D03*
Y177800D02*
D03*
X-101600Y-177800D02*
D03*
Y-152400D02*
D03*
Y152400D02*
D03*
Y177800D02*
D03*
X-127000Y-177800D02*
D03*
Y-152400D02*
D03*
Y152400D02*
D03*
Y177800D02*
D03*
X-152400Y-177800D02*
D03*
Y-127000D02*
D03*
Y-101600D02*
D03*
Y-76200D02*
D03*
Y-50800D02*
D03*
Y-25400D02*
D03*
Y-0D02*
D03*
Y25400D02*
D03*
Y50800D02*
D03*
Y76200D02*
D03*
Y101600D02*
D03*
Y127000D02*
D03*
Y177800D02*
D03*
X-177800Y-177800D02*
D03*
Y-152400D02*
D03*
Y-127000D02*
D03*
Y-101600D02*
D03*
Y-76200D02*
D03*
Y-50800D02*
D03*
Y-25400D02*
D03*
Y-0D02*
D03*
Y25400D02*
D03*
Y50800D02*
D03*
Y76200D02*
D03*
Y101600D02*
D03*
Y127000D02*
D03*
Y152400D02*
D03*
Y177800D02*
D03*
X-152400Y-152400D02*
D03*
X152400D02*
D03*
Y152400D02*
D03*
X-53500Y122500D02*
D03*
X124300D02*
D03*
X98900D02*
D03*
X73500D02*
D03*
X48100D02*
D03*
X22700D02*
D03*
X-2700D02*
D03*
X-28100D02*
D03*
X-78900D02*
D03*
D16*
X-152400Y152400D02*
D03*
X-104300Y122500D02*
D03*
D17*
X-94500Y-135750D02*
D03*
X126000Y99500D02*
D03*
X-8500Y-25750D02*
D03*
X-7000Y-108000D02*
D03*
X0Y-18250D02*
D03*
X-32750Y-10000D02*
D03*
X-24000Y-2500D02*
D03*
X-53250Y51500D02*
D03*
X-55000Y5750D02*
D03*
X-41000Y13750D02*
D03*
X-47000Y21750D02*
D03*
X-66250Y28750D02*
D03*
X-80250Y35500D02*
D03*
X-72750Y42250D02*
D03*
X-89250Y61500D02*
D03*
X-87000Y-107750D02*
D03*
X105000Y108250D02*
D03*
X68750Y22250D02*
D03*
X21000Y74500D02*
D03*
X42250Y-15000D02*
D03*
X54250Y12000D02*
D03*
X79973Y25000D02*
D03*
X98000Y103000D02*
D03*
X89750Y111000D02*
D03*
X89500Y102500D02*
D03*
X52250Y-80500D02*
D03*
X78250Y-101000D02*
D03*
X84750Y-94000D02*
D03*
X92000Y-89000D02*
D03*
X120500Y-64000D02*
D03*
X91250Y-26500D02*
D03*
X91000Y-35250D02*
D03*
X-90000Y-51000D02*
D03*
X-80253Y-61003D02*
D03*
X-72500Y-53000D02*
D03*
X-69250Y-70000D02*
D03*
X-75000Y-85250D02*
D03*
X-80250Y-92750D02*
D03*
X-69500Y-93500D02*
D03*
X-95750Y-111250D02*
D03*
X-64250Y-107500D02*
D03*
X-56250Y-102000D02*
D03*
X-56000Y-91750D02*
D03*
X-45250Y-91500D02*
D03*
X-38750Y-102500D02*
D03*
X-35000Y-94250D02*
D03*
X-92250Y-76500D02*
D03*
X-65500Y-78000D02*
D03*
X-90500Y-29500D02*
D03*
Y-41500D02*
D03*
X-123750Y2750D02*
D03*
X-92000Y10500D02*
D03*
X-90250Y50250D02*
D03*
X-91250Y35250D02*
D03*
X-42500Y74000D02*
D03*
X-33000Y72500D02*
D03*
X-26500Y-89250D02*
D03*
X-17250Y-93250D02*
D03*
X-14750Y-102250D02*
D03*
X-2250Y-91750D02*
D03*
X16250Y-97000D02*
D03*
X9500Y-89500D02*
D03*
X20250Y-105000D02*
D03*
X25250Y-98250D02*
D03*
X45250Y-90750D02*
D03*
X38000Y-84750D02*
D03*
X54250Y-101000D02*
D03*
X97000Y-123000D02*
D03*
X91000Y-63750D02*
D03*
X91500Y-49250D02*
D03*
X80250Y-64250D02*
D03*
X9500Y74500D02*
D03*
X-62000Y59000D02*
D03*
X39750Y-2000D02*
D03*
X53500Y-18250D02*
D03*
X51000Y-1750D02*
D03*
X61000Y18500D02*
D03*
X69750Y13250D02*
D03*
X65750Y-22000D02*
D03*
X59750Y-92750D02*
D03*
X89254Y25251D02*
D03*
M02*
