M48
;Layer_Color=9474304
;FILE_FORMAT=4:4
METRIC,LZ
;TYPE=PLATED
T1F00S00C0.3000
T2F00S00C0.8890
T3F00S00C1.0160
;TYPE=NON_PLATED
%
T01
X-000945Y-0013575
X-0009575Y-0011125
X-00087Y-0010775
X-0008025Y-0009275
X-000695Y-000935
X-00075Y-0008525
X-000655Y-00078
X-0006925Y-0007
X-00080253Y-00061003
X-000725Y-00053
X-0009Y-00051
X-000905Y-000415
Y-000295
X-00092Y000105
X-0009125Y0003525
X-0008025Y000355
X-0007275Y0004225
X-0006625Y0002875
X-00047Y0002175
X-00041Y0001375
X-00055Y0000575
X-0003275Y-0001
X-00024Y-000025
X-000085Y-0002575
X0Y-0001825
X0004225Y-00015
X000535Y-0001825
X0006575Y-00022
X0009125Y-000265
X00091Y-0003525
X000915Y-0004925
X00091Y-0006375
X0008025Y-0006425
X0008475Y-00094
X00092Y-00089
X0007825Y-00101
X0005425
X0005975Y-0009275
X0004525Y-0009075
X00038Y-0008475
X0005225Y-000805
X0002525Y-0009825
X0001625Y-00097
X0002025Y-00105
X000095Y-000895
X-0000225Y-0009175
X-0001725Y-0009325
X-0001475Y-0010225
X-00007Y-00108
X-0003875Y-001025
X-00035Y-0009425
X-0004525Y-000915
X-00056Y-0009175
X-0005625Y-00102
X-0006425Y-001075
X-000265Y-0008925
X-0009225Y-000765
X-0012375Y0000275
X-0009025Y0005025
X-0008925Y000615
X-00062Y00059
X-0005325Y000515
X-000425Y00074
X-00033Y000725
X000095Y000745
X00021
X0003975Y-00002
X00051Y-0000175
X0005425Y00012
X00061Y000185
X0006875Y0002225
X0006975Y0001325
X00079973Y00025
X00089254Y00025251
X000895Y001025
X0008975Y00111
X00098Y00103
X00105Y0010825
X00126Y000995
X001205Y-00064
X00097Y-00123
T02
X-001778Y-001778
X-001524
X-00127
X-001016
X-000762
X-000508
X-000254
X-0
X000254
X000508
X000762
X001016
X00127
X001524
X001778
Y-001524
Y-00127
Y-001016
Y-000762
Y-000508
Y-000254
Y-0
Y000254
Y000508
Y000762
Y001016
Y00127
Y001524
Y001778
X001524
X00127
Y001524
X001016
Y001778
X000762
Y001524
X000508
Y001778
X000254
Y001524
X-0
Y001778
X-000254
Y001524
X-000508
Y001778
X-000762
Y001524
X-001016
Y001778
X-00127
Y001524
X-001524
Y00127
Y001016
Y000762
Y000508
Y000254
Y-0
Y-000254
Y-000508
Y-000762
Y-001016
Y-00127
X-001778
Y-001524
X-001524
X-00127
X-001016
X-000762
X-000508
X-000254
X-0
X000254
X000508
X000762
X001016
X00127
X001524
Y-00127
Y-001016
Y-000762
Y-000508
Y-000254
Y-0
Y000254
Y000508
Y000762
Y001016
Y00127
Y001524
X-001524Y001778
X-001778
Y001524
Y00127
Y001016
Y000762
Y000508
Y000254
Y-0
Y-000254
Y-000508
Y-000762
Y-001016
T03
X-001043Y001225
X-000789
X-000535
X-000281
X-000027
X000227
X000481
X000735
X000989
X001243
M30
