G04 Layer_Color=16711935*
%FSLAX44Y44*%
%MOMM*%
G71*
G01*
G75*
%ADD14C,0.3500*%
%ADD28C,1.8542*%
%ADD29R,1.8542X1.8542*%
%ADD30R,1.2032X1.5032*%
%ADD31R,1.5032X1.2032*%
%ADD32R,1.9532X0.8532*%
D14*
X-193040Y181610D02*
X-181610Y193040D01*
X193040D01*
Y-193040D02*
Y193040D01*
X-193040Y-193040D02*
X193040D01*
X-193040D02*
Y181610D01*
D28*
X177800Y-177800D02*
D03*
Y-152400D02*
D03*
Y-127000D02*
D03*
Y-101600D02*
D03*
Y-76200D02*
D03*
Y-50800D02*
D03*
Y-25400D02*
D03*
Y-0D02*
D03*
Y25400D02*
D03*
Y50800D02*
D03*
Y76200D02*
D03*
Y101600D02*
D03*
Y127000D02*
D03*
Y152400D02*
D03*
Y177800D02*
D03*
X152400Y-177800D02*
D03*
Y-127000D02*
D03*
Y-101600D02*
D03*
Y-76200D02*
D03*
Y-50800D02*
D03*
Y-25400D02*
D03*
Y-0D02*
D03*
Y25400D02*
D03*
Y50800D02*
D03*
Y76200D02*
D03*
Y101600D02*
D03*
Y127000D02*
D03*
Y177800D02*
D03*
X127000Y-177800D02*
D03*
Y-152400D02*
D03*
Y152400D02*
D03*
Y177800D02*
D03*
X101600Y-177800D02*
D03*
Y-152400D02*
D03*
Y152400D02*
D03*
Y177800D02*
D03*
X76200Y-177800D02*
D03*
Y-152400D02*
D03*
Y152400D02*
D03*
Y177800D02*
D03*
X50800Y-177800D02*
D03*
Y-152400D02*
D03*
Y152400D02*
D03*
Y177800D02*
D03*
X25400Y-177800D02*
D03*
Y-152400D02*
D03*
Y152400D02*
D03*
Y177800D02*
D03*
X-0Y-177800D02*
D03*
Y-152400D02*
D03*
Y152400D02*
D03*
Y177800D02*
D03*
X-25400Y-177800D02*
D03*
Y-152400D02*
D03*
Y152400D02*
D03*
Y177800D02*
D03*
X-50800Y-177800D02*
D03*
Y-152400D02*
D03*
Y152400D02*
D03*
Y177800D02*
D03*
X-76200Y-177800D02*
D03*
Y-152400D02*
D03*
Y152400D02*
D03*
Y177800D02*
D03*
X-101600Y-177800D02*
D03*
Y-152400D02*
D03*
Y152400D02*
D03*
Y177800D02*
D03*
X-127000Y-177800D02*
D03*
Y-152400D02*
D03*
Y152400D02*
D03*
Y177800D02*
D03*
X-152400Y-177800D02*
D03*
Y-127000D02*
D03*
Y-101600D02*
D03*
Y-76200D02*
D03*
Y-50800D02*
D03*
Y-25400D02*
D03*
Y-0D02*
D03*
Y25400D02*
D03*
Y50800D02*
D03*
Y76200D02*
D03*
Y101600D02*
D03*
Y127000D02*
D03*
Y177800D02*
D03*
X-177800Y-177800D02*
D03*
Y-152400D02*
D03*
Y-127000D02*
D03*
Y-101600D02*
D03*
Y-76200D02*
D03*
Y-50800D02*
D03*
Y-25400D02*
D03*
Y-0D02*
D03*
Y25400D02*
D03*
Y50800D02*
D03*
Y76200D02*
D03*
Y101600D02*
D03*
Y127000D02*
D03*
Y152400D02*
D03*
Y177800D02*
D03*
X-152400Y-152400D02*
D03*
X152400D02*
D03*
Y152400D02*
D03*
X-53500Y122500D02*
D03*
X124300D02*
D03*
X98900D02*
D03*
X73500D02*
D03*
X48100D02*
D03*
X22700D02*
D03*
X-2700D02*
D03*
X-28100D02*
D03*
X-78900D02*
D03*
D29*
X-152400Y152400D02*
D03*
X-104300Y122500D02*
D03*
D30*
X14750Y62500D02*
D03*
X-4750D02*
D03*
X54750Y-57500D02*
D03*
X35250D02*
D03*
X54750Y-32500D02*
D03*
X35250D02*
D03*
X-44750Y-125000D02*
D03*
X-25250D02*
D03*
X15250D02*
D03*
X34750D02*
D03*
X102250Y10000D02*
D03*
X82750D02*
D03*
X-4750Y90000D02*
D03*
X14750D02*
D03*
X-30250D02*
D03*
X-49750D02*
D03*
D31*
X125000Y60250D02*
D03*
Y79750D02*
D03*
X77500Y-35250D02*
D03*
Y-54750D02*
D03*
X-107500Y12250D02*
D03*
Y-7250D02*
D03*
Y-72750D02*
D03*
Y-92250D02*
D03*
X107500Y-72250D02*
D03*
Y-52750D02*
D03*
D32*
X98000Y76350D02*
D03*
Y63650D02*
D03*
Y50950D02*
D03*
X42000Y89050D02*
D03*
Y76350D02*
D03*
Y63650D02*
D03*
Y50950D02*
D03*
X98000Y89050D02*
D03*
M02*
