G04 Layer_Physical_Order=4*
G04 Layer_Color=16711680*
%FSLAX44Y44*%
%MOMM*%
G71*
G01*
G75*
%ADD13C,0.2000*%
%ADD14C,0.3500*%
%ADD15C,1.6510*%
%ADD16R,1.6510X1.6510*%
%ADD17C,0.6000*%
%ADD18R,1.0000X1.3000*%
%ADD19R,1.3000X1.0000*%
%ADD20R,1.7500X0.6500*%
G36*
X142132Y183728D02*
X140947Y180868D01*
X140543Y177800D01*
X140947Y174731D01*
X141503Y173391D01*
X136506Y168395D01*
X135511Y166906D01*
X135162Y165150D01*
Y160954D01*
X132928Y162668D01*
X130069Y163852D01*
X127000Y164256D01*
X123931Y163852D01*
X121072Y162668D01*
X118616Y160784D01*
X116732Y158328D01*
X115547Y155469D01*
X115143Y152400D01*
X115547Y149331D01*
X116732Y146472D01*
X118616Y144016D01*
X121072Y142132D01*
X123931Y140947D01*
X127000Y140543D01*
X130069Y140947D01*
X132928Y142132D01*
X135162Y143846D01*
Y126994D01*
X134568Y128428D01*
X132684Y130884D01*
X130228Y132768D01*
X127368Y133953D01*
X125550Y134192D01*
Y122500D01*
Y110808D01*
X127368Y111048D01*
X130228Y112232D01*
X132684Y114116D01*
X134568Y116572D01*
X135162Y118006D01*
Y115150D01*
X126060Y106048D01*
X126000Y106056D01*
X124303Y105833D01*
X122722Y105177D01*
X121364Y104136D01*
X120322Y102778D01*
X119667Y101197D01*
X119579Y100523D01*
X119256Y100739D01*
X117500Y101088D01*
X97350D01*
X96042Y102395D01*
X96056Y102500D01*
X95833Y104197D01*
X95178Y105778D01*
X94136Y107136D01*
X92778Y108178D01*
X91197Y108833D01*
X89500Y109056D01*
X87803Y108833D01*
X86222Y108178D01*
X84864Y107136D01*
X83822Y105778D01*
X83167Y104197D01*
X82944Y102500D01*
X83167Y100803D01*
X83822Y99222D01*
X84864Y97864D01*
X86222Y96822D01*
X87803Y96167D01*
X89500Y95944D01*
X89515Y95946D01*
X89660Y95800D01*
X85750D01*
Y93638D01*
X83101D01*
X65338Y111401D01*
Y113946D01*
X67572Y112232D01*
X70431Y111048D01*
X73500Y110644D01*
X76568Y111048D01*
X79428Y112232D01*
X81884Y114116D01*
X83768Y116572D01*
X84952Y119431D01*
X85356Y122500D01*
X84952Y125569D01*
X83768Y128428D01*
X81884Y130884D01*
X79428Y132768D01*
X76568Y133953D01*
X73500Y134357D01*
X70431Y133953D01*
X67572Y132768D01*
X65338Y131054D01*
Y137599D01*
X66994Y139255D01*
X66994Y139256D01*
X66995Y139256D01*
X67467Y139963D01*
X67989Y140744D01*
X67989Y140744D01*
X67989Y140744D01*
X68165Y141626D01*
X68338Y142500D01*
X68338Y142500D01*
X68338Y142500D01*
Y143615D01*
X70272Y142132D01*
X73131Y140947D01*
X76200Y140543D01*
X79268Y140947D01*
X82128Y142132D01*
X84584Y144016D01*
X86468Y146472D01*
X87652Y149331D01*
X88056Y152400D01*
X87652Y155469D01*
X86468Y158328D01*
X84584Y160784D01*
X82128Y162668D01*
X79268Y163852D01*
X76200Y164256D01*
X73131Y163852D01*
X70272Y162668D01*
X68338Y161184D01*
Y164850D01*
Y164850D01*
Y164850D01*
X68223Y165432D01*
X67989Y166606D01*
X67989Y166606D01*
Y166606D01*
X67488Y167355D01*
X66995Y168094D01*
X66995Y168094D01*
X66995Y168094D01*
X61697Y173391D01*
X62252Y174731D01*
X62656Y177800D01*
X62252Y180868D01*
X61068Y183728D01*
X60092Y185000D01*
X66908D01*
X65932Y183728D01*
X64747Y180868D01*
X64343Y177800D01*
X64747Y174731D01*
X65932Y171872D01*
X67816Y169416D01*
X70272Y167532D01*
X73131Y166347D01*
X76200Y165943D01*
X79268Y166347D01*
X82128Y167532D01*
X84584Y169416D01*
X86468Y171872D01*
X87652Y174731D01*
X88056Y177800D01*
X87652Y180868D01*
X86468Y183728D01*
X85492Y185000D01*
X92308D01*
X91332Y183728D01*
X90147Y180868D01*
X89743Y177800D01*
X90147Y174731D01*
X91332Y171872D01*
X93216Y169416D01*
X95672Y167532D01*
X98531Y166347D01*
X101600Y165943D01*
X104669Y166347D01*
X107528Y167532D01*
X109984Y169416D01*
X111868Y171872D01*
X113052Y174731D01*
X113456Y177800D01*
X113052Y180868D01*
X111868Y183728D01*
X110892Y185000D01*
X117708D01*
X116732Y183728D01*
X115547Y180868D01*
X115143Y177800D01*
X115547Y174731D01*
X116732Y171872D01*
X118616Y169416D01*
X121072Y167532D01*
X123931Y166347D01*
X127000Y165943D01*
X130069Y166347D01*
X132928Y167532D01*
X135384Y169416D01*
X137268Y171872D01*
X138452Y174731D01*
X138856Y177800D01*
X138452Y180868D01*
X137268Y183728D01*
X136292Y185000D01*
X143108D01*
X142132Y183728D01*
D02*
G37*
G36*
X40532D02*
X39347Y180868D01*
X38943Y177800D01*
X39347Y174731D01*
X40532Y171872D01*
X42416Y169416D01*
X44872Y167532D01*
X47731Y166347D01*
X50800Y165943D01*
X53868Y166347D01*
X55209Y166903D01*
X59162Y162949D01*
Y160800D01*
X56728Y162668D01*
X53868Y163852D01*
X52050Y164092D01*
Y152400D01*
Y140708D01*
X53868Y140947D01*
X56728Y142132D01*
X57484Y142712D01*
X57033Y142037D01*
X56511Y141256D01*
X56511Y141256D01*
X56511Y141256D01*
X56336Y140374D01*
X56162Y139501D01*
X56162Y139500D01*
X56162Y139500D01*
Y131131D01*
X54028Y132768D01*
X51168Y133953D01*
X48100Y134357D01*
X45031Y133953D01*
X42172Y132768D01*
X40088Y131169D01*
Y142300D01*
X39739Y144056D01*
X38744Y145544D01*
X36297Y147991D01*
X36852Y149331D01*
X37256Y152400D01*
X36852Y155469D01*
X35668Y158328D01*
X33784Y160784D01*
X31328Y162668D01*
X28468Y163852D01*
X25400Y164256D01*
X22331Y163852D01*
X19472Y162668D01*
X17588Y161223D01*
Y163500D01*
X20991Y166903D01*
X22331Y166347D01*
X25400Y165943D01*
X28468Y166347D01*
X31328Y167532D01*
X33784Y169416D01*
X35668Y171872D01*
X36852Y174731D01*
X37256Y177800D01*
X36852Y180868D01*
X35668Y183728D01*
X34692Y185000D01*
X41508D01*
X40532Y183728D01*
D02*
G37*
G36*
X-10268Y158328D02*
X-11453Y155469D01*
X-11857Y152400D01*
X-11453Y149331D01*
X-10268Y146472D01*
X-8384Y144016D01*
X-5928Y142132D01*
X-3069Y140947D01*
X-0Y140543D01*
X3068Y140947D01*
X5928Y142132D01*
X8384Y144016D01*
X8412Y144053D01*
Y135150D01*
X6756Y133495D01*
X6756Y133494D01*
X6755Y133494D01*
X6283Y132787D01*
X5761Y132006D01*
X5761Y132006D01*
X5761Y132006D01*
X5585Y131124D01*
X5557Y130981D01*
X3228Y132768D01*
X369Y133953D01*
X-2700Y134357D01*
X-5769Y133953D01*
X-8628Y132768D01*
X-11084Y130884D01*
X-12968Y128428D01*
X-14153Y125569D01*
X-14557Y122500D01*
X-14153Y119431D01*
X-12968Y116572D01*
X-11084Y114116D01*
X-8628Y112232D01*
X-5769Y111048D01*
X-2700Y110644D01*
X369Y111048D01*
X3228Y112232D01*
X5412Y113908D01*
Y94750D01*
X5412Y94750D01*
X5412Y94750D01*
X5585Y93877D01*
X5761Y92994D01*
X5761Y92994D01*
X5761Y92994D01*
X6250Y92262D01*
Y87489D01*
X3750Y84989D01*
Y88750D01*
X-4750D01*
X-13250D01*
Y81588D01*
X-15349D01*
X-21750Y87989D01*
Y100000D01*
X-38750D01*
Y80000D01*
X-37588D01*
Y77172D01*
X-37636Y77136D01*
X-38678Y75778D01*
X-39332Y74197D01*
X-39556Y72500D01*
X-39332Y70803D01*
X-38678Y69222D01*
X-37636Y67864D01*
X-36278Y66822D01*
X-34697Y66167D01*
X-33000Y65944D01*
X-31303Y66167D01*
X-29722Y66822D01*
X-28364Y67864D01*
X-27322Y69222D01*
X-26667Y70803D01*
X-26444Y72500D01*
X-26667Y74197D01*
X-27322Y75778D01*
X-28364Y77136D01*
X-28412Y77172D01*
Y80000D01*
X-26739D01*
X-20494Y73756D01*
X-19006Y72761D01*
X-17250Y72412D01*
X-13250D01*
Y63749D01*
X-4750D01*
X3750D01*
Y72500D01*
X2694D01*
X4006Y72761D01*
X5494Y73756D01*
X11739Y80000D01*
X14162D01*
Y76750D01*
X14510Y75001D01*
X14444Y74500D01*
X14667Y72803D01*
X14793Y72500D01*
X6250D01*
Y52500D01*
X23250D01*
Y59062D01*
X29750D01*
Y56900D01*
Y50489D01*
X29506Y50244D01*
X28511Y48756D01*
X28162Y47000D01*
Y-5500D01*
X28511Y-7256D01*
X29506Y-8744D01*
X35702Y-14940D01*
X35694Y-15000D01*
X35917Y-16697D01*
X36572Y-18278D01*
X37614Y-19636D01*
X38972Y-20678D01*
X40553Y-21333D01*
X42250Y-21556D01*
X43947Y-21333D01*
X45528Y-20678D01*
X46886Y-19636D01*
X47091Y-19368D01*
X47167Y-19947D01*
X47822Y-21528D01*
X48568Y-22500D01*
X46251D01*
Y-42500D01*
X63250D01*
Y-39838D01*
X67500D01*
Y-43750D01*
X87500D01*
Y-40757D01*
X87722Y-40928D01*
X89303Y-41582D01*
X91000Y-41806D01*
X92697Y-41582D01*
X94278Y-40928D01*
X95636Y-39886D01*
X96678Y-38528D01*
X97333Y-36947D01*
X97556Y-35250D01*
X97333Y-33553D01*
X96678Y-31972D01*
X95636Y-30614D01*
X94278Y-29572D01*
X92697Y-28917D01*
X91000Y-28694D01*
X89303Y-28917D01*
X87722Y-29572D01*
X87500Y-29742D01*
Y-26750D01*
X70237D01*
X70386Y-26636D01*
X71428Y-25278D01*
X72083Y-23697D01*
X72306Y-22000D01*
X72083Y-20303D01*
X71428Y-18722D01*
X70386Y-17364D01*
X69028Y-16322D01*
X67447Y-15667D01*
X65750Y-15444D01*
X64053Y-15667D01*
X62472Y-16322D01*
X61114Y-17364D01*
X60072Y-18722D01*
X59957Y-19000D01*
X60056Y-18250D01*
X59833Y-16553D01*
X59178Y-14972D01*
X58136Y-13614D01*
X56778Y-12572D01*
X55197Y-11917D01*
X53500Y-11694D01*
X51803Y-11917D01*
X50222Y-12572D01*
X48864Y-13614D01*
X48659Y-13882D01*
X48583Y-13303D01*
X47928Y-11722D01*
X46886Y-10364D01*
X45528Y-9322D01*
X43947Y-8667D01*
X42250Y-8444D01*
X42190Y-8452D01*
X41888Y-8150D01*
X43028Y-7678D01*
X44386Y-6636D01*
X45428Y-5278D01*
X45458Y-5205D01*
X46364Y-6386D01*
X47722Y-7428D01*
X49303Y-8083D01*
X51000Y-8306D01*
X52697Y-8083D01*
X54278Y-7428D01*
X55636Y-6386D01*
X56678Y-5028D01*
X57333Y-3447D01*
X57556Y-1750D01*
X57333Y-53D01*
X56678Y1528D01*
X55636Y2886D01*
X54278Y3928D01*
X52697Y4583D01*
X51000Y4806D01*
X49303Y4583D01*
X47722Y3928D01*
X46364Y2886D01*
X45322Y1528D01*
X45292Y1455D01*
X44386Y2636D01*
X43028Y3678D01*
X41447Y4333D01*
X39750Y4556D01*
X38053Y4333D01*
X37338Y4036D01*
Y44200D01*
X54250D01*
Y56900D01*
Y69600D01*
Y82300D01*
Y95800D01*
X41739D01*
X40088Y97451D01*
Y113831D01*
X42172Y112232D01*
X45031Y111048D01*
X48100Y110644D01*
X51168Y111048D01*
X54028Y112232D01*
X56162Y113869D01*
Y109500D01*
X56511Y107744D01*
X57506Y106256D01*
X77956Y85806D01*
X79444Y84811D01*
X81200Y84462D01*
X85750D01*
Y82300D01*
Y69600D01*
Y64901D01*
X98000D01*
X110250D01*
Y69600D01*
Y71762D01*
X115000D01*
Y71250D01*
X127011D01*
X129511Y68750D01*
X126250D01*
Y61500D01*
X135000D01*
Y63262D01*
X141957Y56305D01*
X140947Y53868D01*
X140543Y50800D01*
X140947Y47731D01*
X141503Y46391D01*
X121950Y26838D01*
X96250D01*
X94494Y26489D01*
X93006Y25494D01*
X87512Y20000D01*
X84561D01*
Y20328D01*
X84608Y20364D01*
X85650Y21722D01*
X86305Y23303D01*
X86529Y25000D01*
X86305Y26697D01*
X85650Y28278D01*
X84608Y29636D01*
X83251Y30678D01*
X81669Y31333D01*
X79973Y31556D01*
X78276Y31333D01*
X76694Y30678D01*
X75337Y29636D01*
X74295Y28278D01*
X73640Y26697D01*
X73624Y26576D01*
X73386Y26886D01*
X72028Y27928D01*
X70447Y28583D01*
X68750Y28806D01*
X67053Y28583D01*
X65472Y27928D01*
X64114Y26886D01*
X63072Y25528D01*
X62772Y24802D01*
X62697Y24833D01*
X61000Y25056D01*
X59303Y24833D01*
X57722Y24178D01*
X56364Y23136D01*
X55322Y21778D01*
X54667Y20197D01*
X54448Y18530D01*
X54250Y18556D01*
X52553Y18333D01*
X50972Y17678D01*
X49614Y16636D01*
X48572Y15278D01*
X47917Y13697D01*
X47694Y12000D01*
X47917Y10303D01*
X48572Y8722D01*
X49614Y7364D01*
X50972Y6322D01*
X52553Y5667D01*
X54250Y5444D01*
X55947Y5667D01*
X57528Y6322D01*
X58886Y7364D01*
X59928Y8722D01*
X60583Y10303D01*
X60802Y11970D01*
X61000Y11944D01*
X62697Y12167D01*
X63303Y12419D01*
X63417Y11553D01*
X64072Y9972D01*
X65114Y8614D01*
X66472Y7572D01*
X68053Y6917D01*
X69750Y6694D01*
X71447Y6917D01*
X73028Y7572D01*
X74250Y8510D01*
Y0D01*
X91250D01*
Y10761D01*
X93750Y13261D01*
Y11251D01*
X102251D01*
X110750D01*
Y17662D01*
X123850D01*
X125606Y18011D01*
X127094Y19006D01*
X147991Y39903D01*
X149331Y39347D01*
X152400Y38943D01*
X155469Y39347D01*
X156809Y39903D01*
X160612Y36099D01*
Y33916D01*
X158328Y35668D01*
X155469Y36852D01*
X152400Y37256D01*
X149331Y36852D01*
X146472Y35668D01*
X144016Y33784D01*
X142132Y31328D01*
X140947Y28468D01*
X140543Y25400D01*
X140947Y22331D01*
X142132Y19472D01*
X144016Y17016D01*
X146472Y15132D01*
X149331Y13947D01*
X152400Y13543D01*
X155469Y13947D01*
X158328Y15132D01*
X160612Y16884D01*
Y8515D01*
X158328Y10268D01*
X155469Y11452D01*
X152400Y11856D01*
X149331Y11452D01*
X146472Y10268D01*
X144016Y8384D01*
X142132Y5928D01*
X140947Y3068D01*
X140543Y-0D01*
X140947Y-3069D01*
X142132Y-5928D01*
X144016Y-8384D01*
X146472Y-10268D01*
X149331Y-11453D01*
X152400Y-11857D01*
X155469Y-11453D01*
X158328Y-10268D01*
X160612Y-8516D01*
Y-16884D01*
X158328Y-15132D01*
X155469Y-13948D01*
X153650Y-13708D01*
Y-25400D01*
Y-37092D01*
X155469Y-36853D01*
X158328Y-35668D01*
X160612Y-33916D01*
Y-42284D01*
X158328Y-40532D01*
X155469Y-39348D01*
X152400Y-38944D01*
X149331Y-39348D01*
X146472Y-40532D01*
X144016Y-42416D01*
X142132Y-44872D01*
X140947Y-47731D01*
X140543Y-50800D01*
X140947Y-53869D01*
X142132Y-56728D01*
X144016Y-59184D01*
X146472Y-61068D01*
X149331Y-62253D01*
X152400Y-62657D01*
X155469Y-62253D01*
X158328Y-61068D01*
X160612Y-59316D01*
Y-67684D01*
X158328Y-65932D01*
X155469Y-64748D01*
X153650Y-64508D01*
Y-76200D01*
X151150D01*
Y-64508D01*
X149331Y-64748D01*
X146472Y-65932D01*
X144016Y-67816D01*
X142132Y-70272D01*
X140947Y-73131D01*
X140543Y-76200D01*
X140597Y-76609D01*
X132995Y-69006D01*
D01*
D01*
X132995Y-69006D01*
X131507Y-68012D01*
X130100Y-67732D01*
X129751Y-67662D01*
X117500Y-67662D01*
Y-63750D01*
X97556D01*
X97333Y-62053D01*
X96678Y-60472D01*
X95636Y-59114D01*
X94278Y-58072D01*
X92697Y-57417D01*
X91000Y-57194D01*
X89303Y-57417D01*
X87722Y-58072D01*
X87500Y-58242D01*
Y-46250D01*
X67500D01*
Y-50162D01*
X63250D01*
Y-47500D01*
X46251D01*
Y-67500D01*
X63250D01*
Y-59338D01*
X67500D01*
Y-63250D01*
X73826D01*
X73694Y-64250D01*
X73917Y-65947D01*
X74572Y-67528D01*
X75614Y-68886D01*
X76972Y-69928D01*
X78553Y-70583D01*
X80250Y-70806D01*
X81947Y-70583D01*
X83528Y-69928D01*
X84886Y-68886D01*
X85817Y-67673D01*
X86364Y-68386D01*
X87722Y-69428D01*
X89303Y-70083D01*
X91000Y-70306D01*
X91060Y-70298D01*
X92506Y-71744D01*
X93247Y-72239D01*
X93994Y-72739D01*
X93995Y-72739D01*
X93995Y-72739D01*
X94723Y-72884D01*
X95750Y-73088D01*
X97500D01*
Y-80750D01*
X117500D01*
Y-76838D01*
X127850Y-76839D01*
X143256Y-92245D01*
X143256Y-92245D01*
X143256Y-92245D01*
X143848Y-92640D01*
X144339Y-92969D01*
X144016Y-93216D01*
X142132Y-95672D01*
X140947Y-98532D01*
X140543Y-101600D01*
X140947Y-104669D01*
X142132Y-107528D01*
X144016Y-109984D01*
X146472Y-111868D01*
X149331Y-113053D01*
X152400Y-113457D01*
X155469Y-113053D01*
X158328Y-111868D01*
X160784Y-109984D01*
X162668Y-107528D01*
X163852Y-104669D01*
X164256Y-101600D01*
X163852Y-98532D01*
X162668Y-95672D01*
X161069Y-93588D01*
X163299D01*
X166903Y-97191D01*
X166347Y-98532D01*
X165943Y-101600D01*
X166347Y-104669D01*
X166903Y-106009D01*
X162006Y-110906D01*
X161011Y-112394D01*
X160662Y-114150D01*
Y-118523D01*
X158328Y-116732D01*
X155469Y-115548D01*
X152400Y-115144D01*
X149331Y-115548D01*
X146472Y-116732D01*
X144016Y-118616D01*
X142132Y-121072D01*
X140947Y-123932D01*
X140543Y-127000D01*
X140947Y-130069D01*
X142132Y-132928D01*
X144016Y-135384D01*
X146472Y-137268D01*
X149331Y-138453D01*
X152400Y-138857D01*
X155469Y-138453D01*
X158328Y-137268D01*
X160662Y-135477D01*
Y-143923D01*
X158328Y-142132D01*
X155469Y-140948D01*
X152400Y-140544D01*
X149331Y-140948D01*
X146472Y-142132D01*
X144016Y-144016D01*
X142132Y-146472D01*
X140947Y-149332D01*
X140543Y-152400D01*
X140947Y-155469D01*
X142132Y-158328D01*
X143922Y-160662D01*
X135477D01*
X137268Y-158328D01*
X138452Y-155469D01*
X138856Y-152400D01*
X138452Y-149332D01*
X137268Y-146472D01*
X135384Y-144016D01*
X132928Y-142132D01*
X130069Y-140948D01*
X127000Y-140544D01*
X123931Y-140948D01*
X121072Y-142132D01*
X118616Y-144016D01*
X116732Y-146472D01*
X115547Y-149332D01*
X115143Y-152400D01*
X115547Y-155469D01*
X116732Y-158328D01*
X118522Y-160662D01*
X110077D01*
X111868Y-158328D01*
X113052Y-155469D01*
X113456Y-152400D01*
X113052Y-149332D01*
X111868Y-146472D01*
X109984Y-144016D01*
X107528Y-142132D01*
X104669Y-140948D01*
X101600Y-140544D01*
X98531Y-140948D01*
X95672Y-142132D01*
X93216Y-144016D01*
X91332Y-146472D01*
X90147Y-149332D01*
X89743Y-152400D01*
X90147Y-155469D01*
X91332Y-158328D01*
X93122Y-160662D01*
X84677D01*
X86468Y-158328D01*
X87652Y-155469D01*
X87892Y-153650D01*
X64508D01*
X64747Y-155469D01*
X65932Y-158328D01*
X67722Y-160662D01*
X63350D01*
X61594Y-161011D01*
X60106Y-162006D01*
X55209Y-166903D01*
X53868Y-166348D01*
X50800Y-165944D01*
X47731Y-166348D01*
X46391Y-166903D01*
X42838Y-163350D01*
Y-161108D01*
X44872Y-162668D01*
X47731Y-163853D01*
X50800Y-164257D01*
X53868Y-163853D01*
X56728Y-162668D01*
X59184Y-160784D01*
X61068Y-158328D01*
X62252Y-155469D01*
X62656Y-152400D01*
X62252Y-149332D01*
X61068Y-146472D01*
X59184Y-144016D01*
X56728Y-142132D01*
X53868Y-140948D01*
X50800Y-140544D01*
X47731Y-140948D01*
X44872Y-142132D01*
X42699Y-143799D01*
X42489Y-142744D01*
X41494Y-141256D01*
X35994Y-135756D01*
X34864Y-135000D01*
X43250D01*
Y-126250D01*
X34750D01*
X26250D01*
Y-131762D01*
X23750Y-129261D01*
Y-115000D01*
X19838D01*
Y-111900D01*
X20190Y-111548D01*
X20250Y-111556D01*
X21947Y-111333D01*
X23528Y-110678D01*
X24885Y-109636D01*
X25927Y-108278D01*
X26582Y-106697D01*
X26806Y-105000D01*
X26582Y-103303D01*
X25927Y-101722D01*
X24885Y-100364D01*
X23528Y-99323D01*
X22500Y-98897D01*
X22583Y-98697D01*
X22806Y-97000D01*
X22583Y-95303D01*
X21928Y-93722D01*
X20886Y-92364D01*
X19528Y-91322D01*
X17947Y-90667D01*
X16250Y-90444D01*
X15926Y-90487D01*
X16056Y-89500D01*
X15833Y-87803D01*
X15178Y-86222D01*
X14136Y-84864D01*
X12778Y-83822D01*
X11197Y-83167D01*
X9500Y-82944D01*
X7803Y-83167D01*
X6222Y-83822D01*
X4864Y-84864D01*
X3822Y-86222D01*
X3167Y-87803D01*
X3130Y-88084D01*
X2386Y-87114D01*
X1028Y-86072D01*
X-553Y-85417D01*
X-2250Y-85194D01*
X-3947Y-85417D01*
X-5528Y-86072D01*
X-6886Y-87114D01*
X-7928Y-88472D01*
X-8583Y-90053D01*
X-8806Y-91750D01*
X-8583Y-93447D01*
X-7928Y-95028D01*
X-6886Y-96386D01*
X-5528Y-97428D01*
X-3947Y-98083D01*
X-2250Y-98306D01*
X-553Y-98083D01*
X1028Y-97428D01*
X2386Y-96386D01*
X3428Y-95028D01*
X4083Y-93447D01*
X4120Y-93166D01*
X4864Y-94136D01*
X6222Y-95178D01*
X7803Y-95833D01*
X9500Y-96056D01*
X9824Y-96013D01*
X9694Y-97000D01*
X9918Y-98697D01*
X10573Y-100278D01*
X11614Y-101636D01*
X12972Y-102678D01*
X14000Y-103104D01*
X13917Y-103303D01*
X13694Y-105000D01*
X13701Y-105060D01*
X12006Y-106756D01*
X11011Y-108244D01*
X10662Y-110000D01*
Y-115000D01*
X6750D01*
Y-135000D01*
X16511D01*
X22444Y-140933D01*
X22331Y-140948D01*
X19472Y-142132D01*
X17016Y-144016D01*
X15132Y-146472D01*
X13947Y-149332D01*
X13543Y-152400D01*
X13947Y-155469D01*
X15132Y-158328D01*
X16922Y-160662D01*
X8477D01*
X10268Y-158328D01*
X11452Y-155469D01*
X11856Y-152400D01*
X11452Y-149332D01*
X10268Y-146472D01*
X8384Y-144016D01*
X5928Y-142132D01*
X3068Y-140948D01*
X-0Y-140544D01*
X-3069Y-140948D01*
X-5928Y-142132D01*
X-8384Y-144016D01*
X-10268Y-146472D01*
X-11453Y-149332D01*
X-11857Y-152400D01*
X-11453Y-155469D01*
X-10268Y-158328D01*
X-8478Y-160662D01*
X-16923D01*
X-15132Y-158328D01*
X-13948Y-155469D01*
X-13544Y-152400D01*
X-13948Y-149332D01*
X-15132Y-146472D01*
X-17016Y-144016D01*
X-19472Y-142132D01*
X-22332Y-140948D01*
X-25400Y-140544D01*
X-28469Y-140948D01*
X-31328Y-142132D01*
X-33784Y-144016D01*
X-35668Y-146472D01*
X-36853Y-149332D01*
X-37257Y-152400D01*
X-36853Y-155469D01*
X-35668Y-158328D01*
X-33878Y-160662D01*
X-42323D01*
X-40532Y-158328D01*
X-39348Y-155469D01*
X-39108Y-153650D01*
X-50800D01*
Y-152400D01*
X-52050D01*
Y-140708D01*
X-53869Y-140948D01*
X-54449Y-141188D01*
X-48261Y-135000D01*
X-36250D01*
Y-115000D01*
X-40162D01*
Y-110400D01*
X-38809Y-109048D01*
X-38750Y-109056D01*
X-37053Y-108833D01*
X-35472Y-108177D01*
X-34114Y-107136D01*
X-33072Y-105778D01*
X-32417Y-104197D01*
X-32194Y-102500D01*
X-32417Y-100803D01*
X-33072Y-99222D01*
X-34114Y-97864D01*
X-35472Y-96822D01*
X-37053Y-96167D01*
X-38750Y-95944D01*
X-40447Y-96167D01*
X-40898Y-96354D01*
X-40614Y-96136D01*
X-39572Y-94778D01*
X-38917Y-93197D01*
X-38694Y-91500D01*
X-38917Y-89803D01*
X-39572Y-88222D01*
X-40614Y-86864D01*
X-41972Y-85822D01*
X-43553Y-85167D01*
X-45250Y-84944D01*
X-46947Y-85167D01*
X-48528Y-85822D01*
X-49886Y-86864D01*
X-50721Y-87953D01*
X-51364Y-87114D01*
X-52722Y-86072D01*
X-54303Y-85417D01*
X-56000Y-85194D01*
X-57697Y-85417D01*
X-59278Y-86072D01*
X-60636Y-87114D01*
X-61678Y-88472D01*
X-62333Y-90053D01*
X-62556Y-91750D01*
X-62333Y-93447D01*
X-61678Y-95028D01*
X-60636Y-96386D01*
X-60123Y-96779D01*
X-60886Y-97364D01*
X-61928Y-98722D01*
X-62583Y-100303D01*
X-62694Y-101149D01*
X-64250Y-100944D01*
X-65947Y-101167D01*
X-67528Y-101822D01*
X-68886Y-102864D01*
X-69928Y-104222D01*
X-70583Y-105803D01*
X-70806Y-107500D01*
X-70583Y-109197D01*
X-69928Y-110778D01*
X-68886Y-112136D01*
X-67528Y-113178D01*
X-65947Y-113833D01*
X-64250Y-114056D01*
X-62553Y-113833D01*
X-60972Y-113178D01*
X-59614Y-112136D01*
X-58572Y-110778D01*
X-57917Y-109197D01*
X-57806Y-108351D01*
X-56250Y-108556D01*
X-54553Y-108333D01*
X-52972Y-107678D01*
X-51614Y-106636D01*
X-50572Y-105278D01*
X-49917Y-103697D01*
X-49694Y-102000D01*
X-49917Y-100303D01*
X-50572Y-98722D01*
X-51614Y-97364D01*
X-52127Y-96971D01*
X-51364Y-96386D01*
X-50529Y-95297D01*
X-49886Y-96136D01*
X-48528Y-97178D01*
X-46947Y-97833D01*
X-45250Y-98056D01*
X-43553Y-97833D01*
X-43101Y-97646D01*
X-43386Y-97864D01*
X-44428Y-99222D01*
X-45083Y-100803D01*
X-45306Y-102500D01*
X-45298Y-102559D01*
X-47994Y-105255D01*
X-48989Y-106744D01*
X-49338Y-108500D01*
Y-115000D01*
X-53250D01*
Y-115412D01*
X-72849D01*
X-80452Y-107810D01*
X-80444Y-107750D01*
X-80667Y-106053D01*
X-81322Y-104472D01*
X-82364Y-103114D01*
X-83722Y-102072D01*
X-85303Y-101417D01*
X-87000Y-101194D01*
X-88697Y-101417D01*
X-90278Y-102072D01*
X-91636Y-103114D01*
X-92678Y-104472D01*
X-93037Y-105338D01*
X-94053Y-104917D01*
X-95750Y-104694D01*
X-97447Y-104917D01*
X-99028Y-105572D01*
X-100386Y-106614D01*
X-101428Y-107972D01*
X-102083Y-109553D01*
X-102306Y-111250D01*
X-102083Y-112947D01*
X-101428Y-114528D01*
X-100386Y-115886D01*
X-99028Y-116928D01*
X-97447Y-117583D01*
X-95750Y-117806D01*
X-94053Y-117583D01*
X-92472Y-116928D01*
X-91114Y-115886D01*
X-90072Y-114528D01*
X-89713Y-113662D01*
X-88697Y-114083D01*
X-87000Y-114306D01*
X-86940Y-114298D01*
X-77994Y-123244D01*
X-76506Y-124239D01*
X-74750Y-124588D01*
X-53250D01*
Y-127011D01*
X-66494Y-140256D01*
X-67489Y-141744D01*
X-67838Y-143500D01*
Y-144000D01*
X-70272Y-142132D01*
X-73131Y-140948D01*
X-76200Y-140544D01*
X-79269Y-140948D01*
X-82128Y-142132D01*
X-84584Y-144016D01*
X-86468Y-146472D01*
X-87653Y-149332D01*
X-88057Y-152400D01*
X-87653Y-155469D01*
X-86468Y-158328D01*
X-84584Y-160784D01*
X-82128Y-162668D01*
X-79269Y-163853D01*
X-76200Y-164257D01*
X-73131Y-163853D01*
X-70272Y-162668D01*
X-67838Y-160800D01*
Y-162950D01*
X-71791Y-166903D01*
X-73131Y-166348D01*
X-76200Y-165944D01*
X-79269Y-166348D01*
X-80609Y-166903D01*
X-85506Y-162006D01*
X-86994Y-161011D01*
X-88750Y-160662D01*
X-93123D01*
X-91332Y-158328D01*
X-90148Y-155469D01*
X-89744Y-152400D01*
X-90148Y-149332D01*
X-91332Y-146472D01*
X-93216Y-144016D01*
X-95672Y-142132D01*
X-98532Y-140948D01*
X-101600Y-140544D01*
X-104669Y-140948D01*
X-107528Y-142132D01*
X-109984Y-144016D01*
X-111868Y-146472D01*
X-113053Y-149332D01*
X-113457Y-152400D01*
X-113053Y-155469D01*
X-111868Y-158328D01*
X-110078Y-160662D01*
X-118523D01*
X-116732Y-158328D01*
X-115548Y-155469D01*
X-115144Y-152400D01*
X-115548Y-149332D01*
X-116732Y-146472D01*
X-118616Y-144016D01*
X-121072Y-142132D01*
X-123932Y-140948D01*
X-127000Y-140544D01*
X-130069Y-140948D01*
X-132928Y-142132D01*
X-135384Y-144016D01*
X-137268Y-146472D01*
X-138453Y-149332D01*
X-138857Y-152400D01*
X-138453Y-155469D01*
X-137268Y-158328D01*
X-135478Y-160662D01*
X-143923D01*
X-142132Y-158328D01*
X-140948Y-155469D01*
X-140544Y-152400D01*
X-140948Y-149332D01*
X-142132Y-146472D01*
X-144016Y-144016D01*
X-146472Y-142132D01*
X-149332Y-140948D01*
X-152400Y-140544D01*
X-155469Y-140948D01*
X-158328Y-142132D01*
X-160662Y-143923D01*
Y-135477D01*
X-158328Y-137268D01*
X-155469Y-138453D01*
X-152400Y-138857D01*
X-149332Y-138453D01*
X-146472Y-137268D01*
X-144016Y-135384D01*
X-142132Y-132928D01*
X-140948Y-130069D01*
X-140544Y-127000D01*
X-140948Y-123932D01*
X-142132Y-121072D01*
X-144016Y-118616D01*
X-146472Y-116732D01*
X-149332Y-115548D01*
X-152400Y-115144D01*
X-155469Y-115548D01*
X-158328Y-116732D01*
X-160662Y-118523D01*
Y-110077D01*
X-158328Y-111868D01*
X-155469Y-113053D01*
X-152400Y-113457D01*
X-149332Y-113053D01*
X-146472Y-111868D01*
X-144016Y-109984D01*
X-142132Y-107528D01*
X-140948Y-104669D01*
X-140544Y-101600D01*
X-140948Y-98532D01*
X-142132Y-95672D01*
X-144016Y-93216D01*
X-146472Y-91332D01*
X-149332Y-90148D01*
X-152400Y-89744D01*
X-155469Y-90148D01*
X-158328Y-91332D01*
X-160662Y-93123D01*
Y-84677D01*
X-158328Y-86468D01*
X-155469Y-87653D01*
X-153650Y-87892D01*
Y-76200D01*
X-152400D01*
Y-74950D01*
X-140708D01*
X-140948Y-73131D01*
X-142132Y-70272D01*
X-143808Y-68088D01*
X-143650D01*
X-135745Y-75994D01*
X-134256Y-76989D01*
X-132500Y-77338D01*
X-117500D01*
Y-81250D01*
X-97500D01*
Y-80335D01*
X-96886Y-81136D01*
X-95528Y-82178D01*
X-93947Y-82832D01*
X-92250Y-83056D01*
X-90553Y-82832D01*
X-88972Y-82178D01*
X-87614Y-81136D01*
X-86572Y-79778D01*
X-85917Y-78197D01*
X-85694Y-76500D01*
X-85917Y-74803D01*
X-86572Y-73222D01*
X-87614Y-71864D01*
X-88972Y-70822D01*
X-90553Y-70167D01*
X-92250Y-69944D01*
X-92310Y-69952D01*
X-92756Y-69506D01*
X-94244Y-68511D01*
X-96000Y-68162D01*
X-97500D01*
Y-64250D01*
X-98162D01*
Y-43651D01*
X-90560Y-36048D01*
X-90500Y-36056D01*
X-88803Y-35833D01*
X-87222Y-35178D01*
X-85864Y-34136D01*
X-84822Y-32778D01*
X-84167Y-31197D01*
X-83944Y-29500D01*
X-84167Y-27803D01*
X-84822Y-26222D01*
X-85864Y-24864D01*
X-87222Y-23823D01*
X-88803Y-23168D01*
X-90500Y-22944D01*
X-92197Y-23168D01*
X-93778Y-23823D01*
X-95136Y-24864D01*
X-96178Y-26222D01*
X-96833Y-27803D01*
X-97056Y-29500D01*
X-97048Y-29560D01*
X-105994Y-38506D01*
X-106989Y-39994D01*
X-107338Y-41750D01*
Y-64250D01*
X-117500D01*
Y-68162D01*
X-130600D01*
X-138506Y-60256D01*
X-139994Y-59261D01*
X-141750Y-58912D01*
X-143808D01*
X-142132Y-56728D01*
X-140948Y-53869D01*
X-140544Y-50800D01*
X-140948Y-47731D01*
X-142132Y-44872D01*
X-144016Y-42416D01*
X-146472Y-40532D01*
X-149332Y-39348D01*
X-152400Y-38944D01*
X-155469Y-39348D01*
X-158328Y-40532D01*
X-160784Y-42416D01*
X-162668Y-44872D01*
X-163853Y-47731D01*
X-164257Y-50800D01*
X-163853Y-53869D01*
X-162668Y-56728D01*
X-160993Y-58912D01*
X-163200D01*
X-166903Y-55209D01*
X-166348Y-53869D01*
X-165944Y-50800D01*
X-166348Y-47731D01*
X-166903Y-46391D01*
X-161756Y-41244D01*
X-160761Y-39756D01*
X-160412Y-38000D01*
Y-34069D01*
X-158328Y-35668D01*
X-155469Y-36853D01*
X-152400Y-37257D01*
X-149332Y-36853D01*
X-146472Y-35668D01*
X-144016Y-33784D01*
X-142132Y-31328D01*
X-140948Y-28469D01*
X-140544Y-25400D01*
X-140948Y-22332D01*
X-142132Y-19472D01*
X-144016Y-17016D01*
X-146472Y-15132D01*
X-149332Y-13948D01*
X-152400Y-13544D01*
X-155469Y-13948D01*
X-158328Y-15132D01*
X-160412Y-16731D01*
Y-8669D01*
X-158328Y-10268D01*
X-155469Y-11453D01*
X-152400Y-11857D01*
X-149332Y-11453D01*
X-146472Y-10268D01*
X-144016Y-8384D01*
X-142132Y-5928D01*
X-140948Y-3069D01*
X-140544Y-0D01*
X-140948Y3068D01*
X-142132Y5928D01*
X-144016Y8384D01*
X-146472Y10268D01*
X-149332Y11452D01*
X-152400Y11856D01*
X-155469Y11452D01*
X-158328Y10268D01*
X-160412Y8669D01*
Y16731D01*
X-158328Y15132D01*
X-155469Y13947D01*
X-152400Y13543D01*
X-149332Y13947D01*
X-146472Y15132D01*
X-144016Y17016D01*
X-142132Y19472D01*
X-140948Y22331D01*
X-140544Y25400D01*
X-140948Y28468D01*
X-142132Y31328D01*
X-144016Y33784D01*
X-146472Y35668D01*
X-149332Y36852D01*
X-152400Y37256D01*
X-155469Y36852D01*
X-158328Y35668D01*
X-160412Y34069D01*
Y42131D01*
X-158328Y40532D01*
X-155469Y39347D01*
X-152400Y38943D01*
X-149332Y39347D01*
X-146472Y40532D01*
X-144016Y42416D01*
X-142132Y44872D01*
X-140948Y47731D01*
X-140544Y50800D01*
X-140948Y53868D01*
X-142132Y56728D01*
X-144016Y59184D01*
X-146472Y61068D01*
X-149332Y62252D01*
X-152400Y62656D01*
X-155469Y62252D01*
X-158328Y61068D01*
X-160412Y59469D01*
Y61700D01*
X-156809Y65303D01*
X-155469Y64747D01*
X-152400Y64343D01*
X-149332Y64747D01*
X-147991Y65303D01*
X-136088Y53400D01*
Y34000D01*
X-135739Y32245D01*
X-134744Y30756D01*
X-117500Y13512D01*
Y3750D01*
X-97500D01*
Y5912D01*
X-96672D01*
X-96636Y5864D01*
X-95278Y4823D01*
X-93697Y4168D01*
X-92000Y3944D01*
X-90303Y4168D01*
X-88722Y4823D01*
X-87364Y5864D01*
X-86322Y7222D01*
X-85667Y8803D01*
X-85444Y10500D01*
X-85667Y12197D01*
X-86322Y13778D01*
X-87364Y15136D01*
X-88722Y16178D01*
X-90303Y16833D01*
X-92000Y17056D01*
X-93697Y16833D01*
X-95278Y16178D01*
X-96636Y15136D01*
X-96672Y15088D01*
X-97500D01*
Y15762D01*
X-96506Y16756D01*
X-95511Y18245D01*
X-95162Y20000D01*
Y38850D01*
X-90309Y43702D01*
X-90250Y43694D01*
X-88553Y43917D01*
X-86972Y44573D01*
X-85614Y45614D01*
X-84572Y46972D01*
X-83917Y48553D01*
X-83694Y50250D01*
X-83917Y51947D01*
X-84572Y53528D01*
X-85614Y54886D01*
X-86532Y55590D01*
X-85972Y55822D01*
X-84614Y56864D01*
X-83572Y58222D01*
X-82917Y59803D01*
X-82694Y61500D01*
X-82917Y63197D01*
X-83572Y64778D01*
X-84614Y66136D01*
X-85972Y67178D01*
X-87553Y67833D01*
X-89250Y68056D01*
X-90947Y67833D01*
X-92528Y67178D01*
X-93886Y66136D01*
X-94928Y64778D01*
X-95583Y63197D01*
X-95806Y61500D01*
X-95583Y59803D01*
X-94928Y58222D01*
X-93886Y56864D01*
X-92968Y56160D01*
X-93528Y55928D01*
X-94886Y54886D01*
X-95928Y53528D01*
X-96583Y51947D01*
X-96806Y50250D01*
X-96798Y50191D01*
X-102994Y43994D01*
X-103989Y42506D01*
X-104338Y40750D01*
Y21901D01*
X-105489Y20750D01*
X-111761D01*
X-126912Y35901D01*
Y55300D01*
Y55300D01*
Y55300D01*
X-127085Y56172D01*
X-127261Y57056D01*
X-127261Y57056D01*
Y57056D01*
X-127860Y57952D01*
X-128256Y58545D01*
X-128256Y58545D01*
X-128256Y58545D01*
X-141503Y71791D01*
X-140948Y73131D01*
X-140544Y76200D01*
X-140948Y79268D01*
X-141503Y80609D01*
X-135006Y87106D01*
X-134011Y88594D01*
X-133662Y90350D01*
Y115099D01*
X-130849Y117912D01*
X-116055D01*
Y110745D01*
X-92545D01*
Y134255D01*
X-97012D01*
Y141577D01*
X-95672Y142132D01*
X-93216Y144016D01*
X-91332Y146472D01*
X-90148Y149331D01*
X-89744Y152400D01*
X-90148Y155469D01*
X-90703Y156809D01*
X-86849Y160662D01*
X-84677D01*
X-86468Y158328D01*
X-87653Y155469D01*
X-88057Y152400D01*
X-87653Y149331D01*
X-86468Y146472D01*
X-84584Y144016D01*
X-82128Y142132D01*
X-79269Y140947D01*
X-76200Y140543D01*
X-73131Y140947D01*
X-70272Y142132D01*
X-67816Y144016D01*
X-65932Y146472D01*
X-64748Y149331D01*
X-64344Y152400D01*
X-64748Y155469D01*
X-65932Y158328D01*
X-67723Y160662D01*
X-59277D01*
X-61068Y158328D01*
X-62253Y155469D01*
X-62657Y152400D01*
X-62253Y149331D01*
X-61068Y146472D01*
X-59184Y144016D01*
X-56728Y142132D01*
X-53869Y140947D01*
X-50800Y140543D01*
X-47731Y140947D01*
X-44872Y142132D01*
X-42416Y144016D01*
X-40532Y146472D01*
X-39348Y149331D01*
X-38944Y152400D01*
X-39348Y155469D01*
X-40532Y158328D01*
X-42323Y160662D01*
X-33877D01*
X-35668Y158328D01*
X-36853Y155469D01*
X-37257Y152400D01*
X-36853Y149331D01*
X-35668Y146472D01*
X-33784Y144016D01*
X-31328Y142132D01*
X-28469Y140947D01*
X-25400Y140543D01*
X-22332Y140947D01*
X-19472Y142132D01*
X-17016Y144016D01*
X-15132Y146472D01*
X-13948Y149331D01*
X-13544Y152400D01*
X-13948Y155469D01*
X-15132Y158328D01*
X-16923Y160662D01*
X-8477D01*
X-10268Y158328D01*
D02*
G37*
G36*
X171872Y-162668D02*
X174731Y-163853D01*
X177800Y-164257D01*
X180868Y-163853D01*
X183728Y-162668D01*
X185000Y-161692D01*
Y-168508D01*
X183728Y-167532D01*
X180868Y-166348D01*
X177800Y-165944D01*
X174731Y-166348D01*
X171872Y-167532D01*
X169416Y-169416D01*
X167532Y-171872D01*
X166347Y-174732D01*
X165943Y-177800D01*
X166347Y-180869D01*
X167532Y-183728D01*
X168508Y-185000D01*
X161692D01*
X162668Y-183728D01*
X163852Y-180869D01*
X164092Y-179050D01*
X140708D01*
X140947Y-180869D01*
X142132Y-183728D01*
X143108Y-185000D01*
X136292D01*
X137268Y-183728D01*
X138452Y-180869D01*
X138856Y-177800D01*
X138452Y-174732D01*
X137268Y-171872D01*
X135707Y-169838D01*
X143692D01*
X142132Y-171872D01*
X140947Y-174732D01*
X140708Y-176550D01*
X164092D01*
X163852Y-174732D01*
X162668Y-171872D01*
X161107Y-169838D01*
X161250D01*
X163006Y-169489D01*
X164494Y-168494D01*
X168494Y-164494D01*
X169489Y-163006D01*
X169838Y-161250D01*
Y-161108D01*
X171872Y-162668D01*
D02*
G37*
G36*
X-86468Y183728D02*
X-87653Y180868D01*
X-88057Y177800D01*
X-87653Y174731D01*
X-86468Y171872D01*
X-84908Y169838D01*
X-88750D01*
X-90506Y169489D01*
X-91994Y168494D01*
X-97191Y163297D01*
X-98532Y163852D01*
X-101600Y164256D01*
X-104669Y163852D01*
X-107528Y162668D01*
X-109984Y160784D01*
X-111868Y158328D01*
X-113053Y155469D01*
X-113457Y152400D01*
X-113053Y149331D01*
X-111868Y146472D01*
X-109984Y144016D01*
X-107528Y142132D01*
X-106188Y141577D01*
Y134255D01*
X-116055D01*
Y127088D01*
X-132750D01*
X-134506Y126739D01*
X-135994Y125744D01*
X-141494Y120244D01*
X-142489Y118756D01*
X-142838Y117000D01*
Y108448D01*
X-144016Y109984D01*
X-146472Y111868D01*
X-149332Y113052D01*
X-152400Y113456D01*
X-155469Y113052D01*
X-158328Y111868D01*
X-160784Y109984D01*
X-162668Y107528D01*
X-163853Y104669D01*
X-164257Y101600D01*
X-163853Y98531D01*
X-162668Y95672D01*
X-160784Y93216D01*
X-158328Y91332D01*
X-155469Y90147D01*
X-152400Y89743D01*
X-149332Y90147D01*
X-146472Y91332D01*
X-144016Y93216D01*
X-142838Y94752D01*
Y92250D01*
X-147991Y87097D01*
X-149332Y87652D01*
X-152400Y88056D01*
X-155469Y87652D01*
X-158328Y86468D01*
X-160784Y84584D01*
X-162668Y82128D01*
X-163853Y79268D01*
X-164257Y76200D01*
X-163853Y73131D01*
X-163298Y71791D01*
X-168244Y66844D01*
X-169239Y65356D01*
X-169588Y63600D01*
Y59315D01*
X-171872Y61068D01*
X-174732Y62252D01*
X-177800Y62656D01*
X-180869Y62252D01*
X-183728Y61068D01*
X-185000Y60092D01*
Y66908D01*
X-183728Y65932D01*
X-180869Y64747D01*
X-179050Y64508D01*
Y76200D01*
Y87892D01*
X-180869Y87652D01*
X-183728Y86468D01*
X-185000Y85492D01*
Y92308D01*
X-183728Y91332D01*
X-180869Y90147D01*
X-177800Y89743D01*
X-174732Y90147D01*
X-171872Y91332D01*
X-169416Y93216D01*
X-167532Y95672D01*
X-166348Y98531D01*
X-165944Y101600D01*
X-166348Y104669D01*
X-167532Y107528D01*
X-169416Y109984D01*
X-171872Y111868D01*
X-174732Y113052D01*
X-177800Y113456D01*
X-180869Y113052D01*
X-183728Y111868D01*
X-185000Y110892D01*
Y117708D01*
X-183728Y116732D01*
X-180869Y115547D01*
X-177800Y115143D01*
X-174732Y115547D01*
X-171872Y116732D01*
X-169416Y118616D01*
X-167532Y121072D01*
X-166348Y123931D01*
X-165944Y127000D01*
X-166348Y130069D01*
X-167532Y132928D01*
X-169416Y135384D01*
X-171872Y137268D01*
X-174732Y138452D01*
X-177800Y138856D01*
X-180869Y138452D01*
X-183728Y137268D01*
X-185000Y136292D01*
Y143108D01*
X-183728Y142132D01*
X-180869Y140947D01*
X-177800Y140543D01*
X-174732Y140947D01*
X-171872Y142132D01*
X-169416Y144016D01*
X-167532Y146472D01*
X-166348Y149331D01*
X-165944Y152400D01*
X-166348Y155469D01*
X-167532Y158328D01*
X-169416Y160784D01*
X-171872Y162668D01*
X-174732Y163852D01*
X-177800Y164256D01*
X-180869Y163852D01*
X-183728Y162668D01*
X-185000Y161692D01*
Y168508D01*
X-183728Y167532D01*
X-180869Y166347D01*
X-177800Y165943D01*
X-174732Y166347D01*
X-171872Y167532D01*
X-169416Y169416D01*
X-167532Y171872D01*
X-166348Y174731D01*
X-165944Y177800D01*
X-166348Y180868D01*
X-167532Y183728D01*
X-168508Y185000D01*
X-161692D01*
X-162668Y183728D01*
X-163853Y180868D01*
X-164257Y177800D01*
X-163853Y174731D01*
X-162668Y171872D01*
X-160784Y169416D01*
X-158328Y167532D01*
X-155469Y166347D01*
X-152400Y165943D01*
X-149332Y166347D01*
X-146472Y167532D01*
X-144016Y169416D01*
X-142132Y171872D01*
X-140948Y174731D01*
X-140544Y177800D01*
X-140948Y180868D01*
X-142132Y183728D01*
X-143108Y185000D01*
X-136292D01*
X-137268Y183728D01*
X-138453Y180868D01*
X-138857Y177800D01*
X-138453Y174731D01*
X-137268Y171872D01*
X-135384Y169416D01*
X-132928Y167532D01*
X-130069Y166347D01*
X-127000Y165943D01*
X-123932Y166347D01*
X-121072Y167532D01*
X-118616Y169416D01*
X-116732Y171872D01*
X-115548Y174731D01*
X-115144Y177800D01*
X-115548Y180868D01*
X-116732Y183728D01*
X-117708Y185000D01*
X-110892D01*
X-111868Y183728D01*
X-113053Y180868D01*
X-113292Y179050D01*
X-89908D01*
X-90148Y180868D01*
X-91332Y183728D01*
X-92308Y185000D01*
X-85492D01*
X-86468Y183728D01*
D02*
G37*
%LPC*%
G36*
X98900Y134357D02*
X95831Y133953D01*
X92972Y132768D01*
X90516Y130884D01*
X88632Y128428D01*
X87447Y125569D01*
X87043Y122500D01*
X87447Y119431D01*
X88632Y116572D01*
X90516Y114116D01*
X92972Y112232D01*
X95831Y111048D01*
X98900Y110644D01*
X98959Y110652D01*
X98667Y109947D01*
X98444Y108250D01*
X98667Y106553D01*
X99322Y104972D01*
X100364Y103614D01*
X101722Y102572D01*
X103303Y101917D01*
X105000Y101694D01*
X106697Y101917D01*
X108278Y102572D01*
X109636Y103614D01*
X110678Y104972D01*
X111333Y106553D01*
X111556Y108250D01*
X111333Y109947D01*
X110678Y111528D01*
X109636Y112886D01*
X108278Y113928D01*
X107414Y114286D01*
X109168Y116572D01*
X110352Y119431D01*
X110756Y122500D01*
X110352Y125569D01*
X109168Y128428D01*
X107284Y130884D01*
X104828Y132768D01*
X101968Y133953D01*
X98900Y134357D01*
D02*
G37*
G36*
X123050Y121250D02*
X112608D01*
X112847Y119431D01*
X114032Y116572D01*
X115916Y114116D01*
X118372Y112232D01*
X121231Y111048D01*
X123050Y110808D01*
Y121250D01*
D02*
G37*
G36*
Y134192D02*
X121231Y133953D01*
X118372Y132768D01*
X115916Y130884D01*
X114032Y128428D01*
X112847Y125569D01*
X112608Y123750D01*
X123050D01*
Y134192D01*
D02*
G37*
G36*
X101600Y164256D02*
X98531Y163852D01*
X95672Y162668D01*
X93216Y160784D01*
X91332Y158328D01*
X90147Y155469D01*
X89743Y152400D01*
X90147Y149331D01*
X91332Y146472D01*
X93216Y144016D01*
X95672Y142132D01*
X98531Y140947D01*
X101600Y140543D01*
X104669Y140947D01*
X107528Y142132D01*
X109984Y144016D01*
X111868Y146472D01*
X113052Y149331D01*
X113456Y152400D01*
X113052Y155469D01*
X111868Y158328D01*
X109984Y160784D01*
X107528Y162668D01*
X104669Y163852D01*
X101600Y164256D01*
D02*
G37*
G36*
X49550Y164092D02*
X47731Y163852D01*
X44872Y162668D01*
X42416Y160784D01*
X40532Y158328D01*
X39347Y155469D01*
X39108Y153650D01*
X49550D01*
Y164092D01*
D02*
G37*
G36*
Y151150D02*
X39108D01*
X39347Y149331D01*
X40532Y146472D01*
X42416Y144016D01*
X44872Y142132D01*
X47731Y140947D01*
X49550Y140708D01*
Y151150D01*
D02*
G37*
G36*
X117500Y-54000D02*
X108750D01*
Y-61250D01*
X117500D01*
Y-54000D01*
D02*
G37*
G36*
X-90000Y-44444D02*
X-91697Y-44667D01*
X-93278Y-45322D01*
X-94636Y-46364D01*
X-95678Y-47722D01*
X-96333Y-49303D01*
X-96556Y-51000D01*
X-96333Y-52697D01*
X-95678Y-54278D01*
X-94636Y-55636D01*
X-93278Y-56677D01*
X-91697Y-57333D01*
X-90000Y-57556D01*
X-88303Y-57333D01*
X-86722Y-56677D01*
X-85364Y-55636D01*
X-84322Y-54278D01*
X-83667Y-52697D01*
X-83444Y-51000D01*
X-83667Y-49303D01*
X-84322Y-47722D01*
X-85364Y-46364D01*
X-86722Y-45322D01*
X-88303Y-44667D01*
X-90000Y-44444D01*
D02*
G37*
G36*
X43750Y-47500D02*
X36500D01*
Y-56250D01*
X43750D01*
Y-47500D01*
D02*
G37*
G36*
X34000D02*
X26751D01*
Y-56250D01*
X34000D01*
Y-47500D01*
D02*
G37*
G36*
X-69250Y-63444D02*
X-70947Y-63667D01*
X-72528Y-64322D01*
X-73886Y-65364D01*
X-74928Y-66722D01*
X-75583Y-68303D01*
X-75806Y-70000D01*
X-75583Y-71697D01*
X-74928Y-73278D01*
X-73886Y-74636D01*
X-72528Y-75678D01*
X-70947Y-76333D01*
X-69250Y-76556D01*
X-67553Y-76333D01*
X-65972Y-75678D01*
X-64614Y-74636D01*
X-63573Y-73278D01*
X-62918Y-71697D01*
X-62694Y-70000D01*
X-62918Y-68303D01*
X-63573Y-66722D01*
X-64614Y-65364D01*
X-65972Y-64322D01*
X-67553Y-63667D01*
X-69250Y-63444D01*
D02*
G37*
G36*
X52250Y-73944D02*
X50553Y-74167D01*
X48972Y-74822D01*
X47614Y-75864D01*
X46572Y-77222D01*
X45918Y-78803D01*
X45694Y-80500D01*
X45918Y-82197D01*
X46572Y-83778D01*
X47117Y-84488D01*
X46947Y-84417D01*
X45250Y-84194D01*
X44496Y-84293D01*
X44333Y-83053D01*
X43678Y-81472D01*
X42636Y-80114D01*
X41278Y-79072D01*
X39697Y-78417D01*
X38000Y-78194D01*
X36303Y-78417D01*
X34722Y-79072D01*
X33364Y-80114D01*
X32322Y-81472D01*
X31668Y-83053D01*
X31444Y-84750D01*
X31668Y-86447D01*
X32322Y-88028D01*
X33364Y-89386D01*
X34722Y-90428D01*
X36303Y-91082D01*
X38000Y-91306D01*
X38754Y-91207D01*
X38917Y-92447D01*
X39572Y-94028D01*
X40614Y-95386D01*
X41972Y-96427D01*
X43553Y-97083D01*
X45250Y-97306D01*
X46947Y-97083D01*
X48528Y-96427D01*
X49886Y-95386D01*
X50928Y-94028D01*
X51583Y-92447D01*
X51806Y-90750D01*
X51583Y-89053D01*
X50928Y-87472D01*
X50383Y-86762D01*
X50553Y-86833D01*
X52250Y-87056D01*
X53947Y-86833D01*
X55528Y-86178D01*
X56886Y-85136D01*
X57928Y-83778D01*
X58583Y-82197D01*
X58806Y-80500D01*
X58583Y-78803D01*
X57928Y-77222D01*
X56886Y-75864D01*
X55528Y-74822D01*
X53947Y-74167D01*
X52250Y-73944D01*
D02*
G37*
G36*
X34000Y-58750D02*
X26751D01*
Y-67500D01*
X34000D01*
Y-58750D01*
D02*
G37*
G36*
X106250Y-54000D02*
X97500D01*
Y-61250D01*
X106250D01*
Y-54000D01*
D02*
G37*
G36*
X43750Y-58750D02*
X36500D01*
Y-67500D01*
X43750D01*
Y-58750D01*
D02*
G37*
G36*
X34000Y-22500D02*
X26751D01*
Y-31250D01*
X34000D01*
Y-22500D01*
D02*
G37*
G36*
X151150Y-26650D02*
X140708D01*
X140947Y-28469D01*
X142132Y-31328D01*
X144016Y-33784D01*
X146472Y-35668D01*
X149331Y-36853D01*
X151150Y-37092D01*
Y-26650D01*
D02*
G37*
G36*
Y-13708D02*
X149331Y-13948D01*
X146472Y-15132D01*
X144016Y-17016D01*
X142132Y-19472D01*
X140947Y-22332D01*
X140708Y-24150D01*
X151150D01*
Y-13708D01*
D02*
G37*
G36*
X43750Y-22500D02*
X36500D01*
Y-31250D01*
X43750D01*
Y-22500D01*
D02*
G37*
G36*
Y-33750D02*
X36500D01*
Y-42500D01*
X43750D01*
Y-33750D01*
D02*
G37*
G36*
X106250Y-44250D02*
X97500D01*
Y-51500D01*
X106250D01*
Y-44250D01*
D02*
G37*
G36*
X-72500Y-46444D02*
X-74197Y-46667D01*
X-75778Y-47322D01*
X-77136Y-48364D01*
X-78178Y-49722D01*
X-78833Y-51303D01*
X-79056Y-53000D01*
X-78841Y-54633D01*
X-80253Y-54447D01*
X-81950Y-54670D01*
X-83531Y-55325D01*
X-84889Y-56367D01*
X-85931Y-57725D01*
X-86586Y-59306D01*
X-86809Y-61003D01*
X-86586Y-62700D01*
X-85931Y-64281D01*
X-84889Y-65639D01*
X-83531Y-66680D01*
X-81950Y-67336D01*
X-80253Y-67559D01*
X-78556Y-67336D01*
X-76975Y-66680D01*
X-75617Y-65639D01*
X-74575Y-64281D01*
X-73920Y-62700D01*
X-73697Y-61003D01*
X-73912Y-59370D01*
X-72500Y-59556D01*
X-70803Y-59332D01*
X-69222Y-58678D01*
X-67864Y-57636D01*
X-66822Y-56278D01*
X-66167Y-54697D01*
X-65944Y-53000D01*
X-66167Y-51303D01*
X-66822Y-49722D01*
X-67864Y-48364D01*
X-69222Y-47322D01*
X-70803Y-46667D01*
X-72500Y-46444D01*
D02*
G37*
G36*
X34000Y-33750D02*
X26751D01*
Y-42500D01*
X34000D01*
Y-33750D01*
D02*
G37*
G36*
X117500Y-44250D02*
X108750D01*
Y-51500D01*
X117500D01*
Y-44250D01*
D02*
G37*
G36*
X-16750Y-115000D02*
X-24000D01*
Y-123750D01*
X-16750D01*
Y-115000D01*
D02*
G37*
G36*
X-26500D02*
X-33750D01*
Y-123750D01*
X-26500D01*
Y-115000D01*
D02*
G37*
G36*
X43250D02*
X36000D01*
Y-123750D01*
X43250D01*
Y-115000D01*
D02*
G37*
G36*
X33500D02*
X26250D01*
Y-123750D01*
X33500D01*
Y-115000D01*
D02*
G37*
G36*
X-16750Y-126250D02*
X-24000D01*
Y-135000D01*
X-16750D01*
Y-126250D01*
D02*
G37*
G36*
X74950Y-140708D02*
X73131Y-140948D01*
X70272Y-142132D01*
X67816Y-144016D01*
X65932Y-146472D01*
X64747Y-149332D01*
X64508Y-151150D01*
X74950D01*
Y-140708D01*
D02*
G37*
G36*
X-49550D02*
Y-151150D01*
X-39108D01*
X-39348Y-149332D01*
X-40532Y-146472D01*
X-42416Y-144016D01*
X-44872Y-142132D01*
X-47731Y-140948D01*
X-49550Y-140708D01*
D02*
G37*
G36*
X-26500Y-126250D02*
X-33750D01*
Y-135000D01*
X-26500D01*
Y-126250D01*
D02*
G37*
G36*
X77450Y-140708D02*
Y-151150D01*
X87892D01*
X87652Y-149332D01*
X86468Y-146472D01*
X84584Y-144016D01*
X82128Y-142132D01*
X79268Y-140948D01*
X77450Y-140708D01*
D02*
G37*
G36*
X-97500Y-83750D02*
X-106250D01*
Y-90999D01*
X-97500D01*
Y-83750D01*
D02*
G37*
G36*
X-108750D02*
X-117500D01*
Y-90999D01*
X-108750D01*
Y-83750D01*
D02*
G37*
G36*
X92000Y-82444D02*
X90303Y-82668D01*
X88722Y-83322D01*
X87364Y-84364D01*
X86322Y-85722D01*
X85667Y-87303D01*
X85634Y-87560D01*
X84750Y-87444D01*
X83053Y-87667D01*
X81472Y-88322D01*
X80114Y-89364D01*
X79072Y-90722D01*
X78417Y-92303D01*
X78194Y-94000D01*
X78252Y-94444D01*
X78250Y-94444D01*
X76553Y-94668D01*
X74972Y-95323D01*
X73614Y-96364D01*
X72572Y-97722D01*
X71917Y-99303D01*
X71694Y-101000D01*
X71917Y-102697D01*
X72572Y-104278D01*
X73614Y-105636D01*
X74972Y-106678D01*
X76553Y-107333D01*
X78250Y-107556D01*
X79947Y-107333D01*
X81528Y-106678D01*
X82886Y-105636D01*
X83928Y-104278D01*
X84583Y-102697D01*
X84806Y-101000D01*
X84748Y-100556D01*
X84750Y-100556D01*
X86447Y-100333D01*
X88028Y-99678D01*
X89386Y-98636D01*
X90428Y-97278D01*
X91083Y-95697D01*
X91117Y-95440D01*
X92000Y-95556D01*
X93697Y-95333D01*
X95278Y-94678D01*
X96636Y-93636D01*
X97678Y-92278D01*
X98333Y-90697D01*
X98556Y-89000D01*
X98333Y-87303D01*
X97678Y-85722D01*
X96636Y-84364D01*
X95278Y-83322D01*
X93697Y-82668D01*
X92000Y-82444D01*
D02*
G37*
G36*
X-140708Y-77450D02*
X-151150D01*
Y-87892D01*
X-149332Y-87653D01*
X-146472Y-86468D01*
X-144016Y-84584D01*
X-142132Y-82128D01*
X-140948Y-79269D01*
X-140708Y-77450D01*
D02*
G37*
G36*
X59750Y-86194D02*
X58053Y-86417D01*
X56472Y-87072D01*
X55114Y-88114D01*
X54072Y-89472D01*
X53417Y-91053D01*
X53194Y-92750D01*
X53417Y-94447D01*
X54072Y-96028D01*
X55114Y-97386D01*
X56472Y-98427D01*
X58053Y-99082D01*
X59750Y-99306D01*
X61447Y-99082D01*
X63028Y-98427D01*
X64386Y-97386D01*
X65427Y-96028D01*
X66082Y-94447D01*
X66306Y-92750D01*
X66082Y-91053D01*
X65427Y-89472D01*
X64386Y-88114D01*
X63028Y-87072D01*
X61447Y-86417D01*
X59750Y-86194D01*
D02*
G37*
G36*
X-108750Y-93499D02*
X-117500D01*
Y-100750D01*
X-108750D01*
Y-93499D01*
D02*
G37*
G36*
X-26500Y-82694D02*
X-28197Y-82917D01*
X-29778Y-83573D01*
X-31136Y-84614D01*
X-32178Y-85972D01*
X-32833Y-87553D01*
X-33056Y-89250D01*
X-32833Y-90947D01*
X-32178Y-92528D01*
X-31136Y-93886D01*
X-29778Y-94928D01*
X-28197Y-95583D01*
X-26500Y-95806D01*
X-24803Y-95583D01*
X-23537Y-95058D01*
X-22927Y-96528D01*
X-21886Y-97886D01*
X-20528Y-98928D01*
X-20426Y-98970D01*
X-20428Y-98972D01*
X-21083Y-100553D01*
X-21306Y-102250D01*
X-21083Y-103947D01*
X-20428Y-105528D01*
X-19386Y-106886D01*
X-18028Y-107928D01*
X-16447Y-108583D01*
X-14750Y-108806D01*
X-13472Y-108638D01*
X-13333Y-109697D01*
X-12678Y-111278D01*
X-11636Y-112636D01*
X-10278Y-113678D01*
X-8697Y-114333D01*
X-7000Y-114556D01*
X-5303Y-114333D01*
X-3722Y-113678D01*
X-2364Y-112636D01*
X-1322Y-111278D01*
X-667Y-109697D01*
X-444Y-108000D01*
X-667Y-106303D01*
X-1322Y-104722D01*
X-2364Y-103364D01*
X-3722Y-102322D01*
X-5303Y-101667D01*
X-7000Y-101444D01*
X-8278Y-101612D01*
X-8417Y-100553D01*
X-9072Y-98972D01*
X-10114Y-97614D01*
X-11472Y-96572D01*
X-11574Y-96530D01*
X-11572Y-96528D01*
X-10917Y-94947D01*
X-10694Y-93250D01*
X-10917Y-91553D01*
X-11572Y-89972D01*
X-12614Y-88614D01*
X-13972Y-87572D01*
X-15553Y-86917D01*
X-17250Y-86694D01*
X-18947Y-86917D01*
X-20213Y-87442D01*
X-20822Y-85972D01*
X-21864Y-84614D01*
X-23222Y-83573D01*
X-24803Y-82917D01*
X-26500Y-82694D01*
D02*
G37*
G36*
X-75000Y-78694D02*
X-76697Y-78917D01*
X-78278Y-79573D01*
X-79636Y-80614D01*
X-80677Y-81972D01*
X-81333Y-83553D01*
X-81556Y-85250D01*
X-81412Y-86347D01*
X-81947Y-86417D01*
X-83528Y-87072D01*
X-84886Y-88114D01*
X-85928Y-89472D01*
X-86583Y-91053D01*
X-86806Y-92750D01*
X-86583Y-94447D01*
X-85928Y-96028D01*
X-84886Y-97386D01*
X-83528Y-98427D01*
X-81947Y-99082D01*
X-80250Y-99306D01*
X-78553Y-99082D01*
X-76972Y-98427D01*
X-75614Y-97386D01*
X-75163Y-96798D01*
X-74136Y-98136D01*
X-72778Y-99178D01*
X-71197Y-99833D01*
X-69500Y-100056D01*
X-67803Y-99833D01*
X-66222Y-99178D01*
X-64864Y-98136D01*
X-63822Y-96778D01*
X-63168Y-95197D01*
X-62944Y-93500D01*
X-63168Y-91803D01*
X-63822Y-90222D01*
X-64864Y-88864D01*
X-66222Y-87822D01*
X-67803Y-87167D01*
X-68709Y-87048D01*
X-68667Y-86947D01*
X-68444Y-85250D01*
X-68667Y-83553D01*
X-69322Y-81972D01*
X-70364Y-80614D01*
X-71722Y-79573D01*
X-73303Y-78917D01*
X-75000Y-78694D01*
D02*
G37*
G36*
X-97500Y-93499D02*
X-106250D01*
Y-100750D01*
X-97500D01*
Y-93499D01*
D02*
G37*
G36*
X-28100Y134357D02*
X-31169Y133953D01*
X-34028Y132768D01*
X-36484Y130884D01*
X-38368Y128428D01*
X-39553Y125569D01*
X-39957Y122500D01*
X-39553Y119431D01*
X-38368Y116572D01*
X-36484Y114116D01*
X-34028Y112232D01*
X-31169Y111048D01*
X-28100Y110644D01*
X-25031Y111048D01*
X-22172Y112232D01*
X-19716Y114116D01*
X-17832Y116572D01*
X-16648Y119431D01*
X-16244Y122500D01*
X-16648Y125569D01*
X-17832Y128428D01*
X-19716Y130884D01*
X-22172Y132768D01*
X-25031Y133953D01*
X-28100Y134357D01*
D02*
G37*
G36*
X-41250Y100000D02*
X-48500D01*
Y91250D01*
X-41250D01*
Y100000D01*
D02*
G37*
G36*
Y88750D02*
X-48500D01*
Y80000D01*
X-41250D01*
Y88750D01*
D02*
G37*
G36*
X3750Y100000D02*
X-3500D01*
Y91250D01*
X3750D01*
Y100000D01*
D02*
G37*
G36*
X-6000D02*
X-13250D01*
Y91250D01*
X-6000D01*
Y100000D01*
D02*
G37*
G36*
X-53500Y134357D02*
X-56569Y133953D01*
X-59428Y132768D01*
X-61884Y130884D01*
X-63768Y128428D01*
X-64953Y125569D01*
X-65357Y122500D01*
X-64953Y119431D01*
X-64398Y118091D01*
X-64745Y117745D01*
X-65739Y116256D01*
X-65810Y115899D01*
X-68003Y118091D01*
X-67448Y119431D01*
X-67044Y122500D01*
X-67448Y125569D01*
X-68632Y128428D01*
X-70516Y130884D01*
X-72972Y132768D01*
X-75831Y133953D01*
X-78900Y134357D01*
X-81969Y133953D01*
X-84828Y132768D01*
X-87284Y130884D01*
X-89168Y128428D01*
X-90353Y125569D01*
X-90757Y122500D01*
X-90353Y119431D01*
X-89168Y116572D01*
X-87284Y114116D01*
X-84828Y112232D01*
X-81969Y111048D01*
X-78900Y110644D01*
X-75831Y111048D01*
X-74492Y111603D01*
X-71088Y108199D01*
Y71000D01*
X-70739Y69244D01*
X-69744Y67756D01*
X-66588Y64600D01*
Y63672D01*
X-66636Y63636D01*
X-67678Y62278D01*
X-68333Y60697D01*
X-68556Y59000D01*
X-68333Y57303D01*
X-67678Y55722D01*
X-66636Y54364D01*
X-65278Y53322D01*
X-63697Y52667D01*
X-62000Y52444D01*
X-60303Y52667D01*
X-59615Y52952D01*
X-59806Y51500D01*
X-59582Y49803D01*
X-58927Y48222D01*
X-57886Y46864D01*
X-56528Y45822D01*
X-54947Y45167D01*
X-53250Y44944D01*
X-51553Y45167D01*
X-49972Y45822D01*
X-48614Y46864D01*
X-47572Y48222D01*
X-46917Y49803D01*
X-46694Y51500D01*
X-46917Y53197D01*
X-47572Y54778D01*
X-48614Y56136D01*
X-48662Y56172D01*
Y66500D01*
Y66500D01*
Y66500D01*
X-48854Y67470D01*
X-49011Y68256D01*
X-49011Y68256D01*
X-49011Y68256D01*
X-49610Y69152D01*
X-50005Y69744D01*
X-50005Y69745D01*
X-50005Y69745D01*
X-56912Y76651D01*
Y80000D01*
X-51000D01*
Y90000D01*
Y100000D01*
X-56912D01*
Y111190D01*
X-56569Y111048D01*
X-53500Y110644D01*
X-50431Y111048D01*
X-47572Y112232D01*
X-45116Y114116D01*
X-43232Y116572D01*
X-42048Y119431D01*
X-41644Y122500D01*
X-42048Y125569D01*
X-43232Y128428D01*
X-45116Y130884D01*
X-47572Y132768D01*
X-50431Y133953D01*
X-53500Y134357D01*
D02*
G37*
G36*
X-55000Y12306D02*
X-56697Y12083D01*
X-58278Y11428D01*
X-59636Y10386D01*
X-60678Y9028D01*
X-61333Y7447D01*
X-61556Y5750D01*
X-61333Y4053D01*
X-60678Y2472D01*
X-59636Y1114D01*
X-58278Y72D01*
X-56697Y-583D01*
X-55000Y-806D01*
X-53303Y-583D01*
X-51722Y72D01*
X-50364Y1114D01*
X-49322Y2472D01*
X-48667Y4053D01*
X-48444Y5750D01*
X-48667Y7447D01*
X-49322Y9028D01*
X-50364Y10386D01*
X-51722Y11428D01*
X-53303Y12083D01*
X-55000Y12306D01*
D02*
G37*
G36*
X-24000Y4056D02*
X-25697Y3833D01*
X-27278Y3178D01*
X-28636Y2136D01*
X-29678Y778D01*
X-30333Y-803D01*
X-30556Y-2500D01*
X-30365Y-3952D01*
X-31053Y-3667D01*
X-32750Y-3444D01*
X-34447Y-3667D01*
X-36028Y-4322D01*
X-37386Y-5364D01*
X-38428Y-6722D01*
X-39083Y-8303D01*
X-39306Y-10000D01*
X-39083Y-11697D01*
X-38428Y-13278D01*
X-37386Y-14636D01*
X-36028Y-15678D01*
X-34447Y-16333D01*
X-32750Y-16556D01*
X-31053Y-16333D01*
X-29472Y-15678D01*
X-28114Y-14636D01*
X-27072Y-13278D01*
X-26417Y-11697D01*
X-26194Y-10000D01*
X-26385Y-8548D01*
X-25697Y-8833D01*
X-24000Y-9056D01*
X-22303Y-8833D01*
X-20722Y-8178D01*
X-19364Y-7136D01*
X-18322Y-5778D01*
X-17667Y-4197D01*
X-17444Y-2500D01*
X-17667Y-803D01*
X-18322Y778D01*
X-19364Y2136D01*
X-20722Y3178D01*
X-22303Y3833D01*
X-24000Y4056D01*
D02*
G37*
G36*
X110750Y8751D02*
X103501D01*
Y0D01*
X110750D01*
Y8751D01*
D02*
G37*
G36*
X101001D02*
X93750D01*
Y0D01*
X101001D01*
Y8751D01*
D02*
G37*
G36*
X-97500Y1250D02*
X-106250D01*
Y-6000D01*
X-97500D01*
Y1250D01*
D02*
G37*
G36*
X-108750Y-8500D02*
X-117500D01*
Y-15750D01*
X-108750D01*
Y-8500D01*
D02*
G37*
G36*
X0Y-11694D02*
X-1697Y-11917D01*
X-3278Y-12572D01*
X-4636Y-13614D01*
X-5678Y-14972D01*
X-6333Y-16553D01*
X-6556Y-18250D01*
X-6379Y-19593D01*
X-6803Y-19417D01*
X-8500Y-19194D01*
X-10197Y-19417D01*
X-11778Y-20072D01*
X-13136Y-21114D01*
X-14178Y-22472D01*
X-14833Y-24053D01*
X-15056Y-25750D01*
X-14833Y-27447D01*
X-14178Y-29028D01*
X-13136Y-30386D01*
X-11778Y-31428D01*
X-10197Y-32083D01*
X-8500Y-32306D01*
X-6803Y-32083D01*
X-5222Y-31428D01*
X-3864Y-30386D01*
X-2822Y-29028D01*
X-2167Y-27447D01*
X-1944Y-25750D01*
X-2121Y-24407D01*
X-1697Y-24583D01*
X0Y-24806D01*
X1697Y-24583D01*
X3278Y-23928D01*
X4636Y-22886D01*
X5678Y-21528D01*
X6333Y-19947D01*
X6556Y-18250D01*
X6333Y-16553D01*
X5678Y-14972D01*
X4636Y-13614D01*
X3278Y-12572D01*
X1697Y-11917D01*
X0Y-11694D01*
D02*
G37*
G36*
X-108750Y1250D02*
X-117500D01*
Y-6000D01*
X-108750D01*
Y1250D01*
D02*
G37*
G36*
X-97500Y-8500D02*
X-106250D01*
Y-15750D01*
X-97500D01*
Y-8500D01*
D02*
G37*
G36*
X-6000Y61249D02*
X-13250D01*
Y52500D01*
X-6000D01*
Y61249D01*
D02*
G37*
G36*
X135000Y59000D02*
X126250D01*
Y51750D01*
X135000D01*
Y59000D01*
D02*
G37*
G36*
X123750Y68750D02*
X115000D01*
Y61500D01*
X123750D01*
Y68750D01*
D02*
G37*
G36*
X3750Y61249D02*
X-3500D01*
Y52500D01*
X3750D01*
Y61249D01*
D02*
G37*
G36*
X123750Y59000D02*
X115000D01*
Y51750D01*
X123750D01*
Y59000D01*
D02*
G37*
G36*
X-66250Y35306D02*
X-67947Y35083D01*
X-69528Y34428D01*
X-70886Y33386D01*
X-71928Y32028D01*
X-72583Y30447D01*
X-72806Y28750D01*
X-72583Y27053D01*
X-71928Y25472D01*
X-70886Y24114D01*
X-69528Y23072D01*
X-67947Y22417D01*
X-66250Y22194D01*
X-64553Y22417D01*
X-62972Y23072D01*
X-61614Y24114D01*
X-60572Y25472D01*
X-59917Y27053D01*
X-59694Y28750D01*
X-59917Y30447D01*
X-60572Y32028D01*
X-61614Y33386D01*
X-62972Y34428D01*
X-64553Y35083D01*
X-66250Y35306D01*
D02*
G37*
G36*
X-47000Y28306D02*
X-48697Y28083D01*
X-50278Y27428D01*
X-51636Y26386D01*
X-52678Y25028D01*
X-53333Y23447D01*
X-53556Y21750D01*
X-53333Y20053D01*
X-52678Y18472D01*
X-51636Y17114D01*
X-50278Y16072D01*
X-48697Y15417D01*
X-47360Y15241D01*
X-47556Y13750D01*
X-47333Y12053D01*
X-46678Y10472D01*
X-45636Y9114D01*
X-44278Y8072D01*
X-42697Y7417D01*
X-41000Y7194D01*
X-39303Y7417D01*
X-37722Y8072D01*
X-36364Y9114D01*
X-35322Y10472D01*
X-34667Y12053D01*
X-34444Y13750D01*
X-34667Y15447D01*
X-35322Y17028D01*
X-36364Y18386D01*
X-37722Y19428D01*
X-39303Y20083D01*
X-40640Y20259D01*
X-40444Y21750D01*
X-40667Y23447D01*
X-41322Y25028D01*
X-42364Y26386D01*
X-43722Y27428D01*
X-45303Y28083D01*
X-47000Y28306D01*
D02*
G37*
G36*
X110250Y62401D02*
X98000D01*
X85750D01*
Y56900D01*
Y44200D01*
X110250D01*
Y56900D01*
Y62401D01*
D02*
G37*
G36*
X-72750Y48806D02*
X-74447Y48583D01*
X-76028Y47928D01*
X-77386Y46886D01*
X-78428Y45528D01*
X-79083Y43947D01*
X-79306Y42250D01*
X-79263Y41926D01*
X-80250Y42056D01*
X-81947Y41833D01*
X-83528Y41178D01*
X-84886Y40136D01*
X-85928Y38778D01*
X-86583Y37197D01*
X-86806Y35500D01*
X-86583Y33803D01*
X-85928Y32222D01*
X-84886Y30864D01*
X-83528Y29822D01*
X-81947Y29167D01*
X-80250Y28944D01*
X-78553Y29167D01*
X-76972Y29822D01*
X-75614Y30864D01*
X-74572Y32222D01*
X-73917Y33803D01*
X-73694Y35500D01*
X-73737Y35824D01*
X-72750Y35694D01*
X-71053Y35917D01*
X-69472Y36572D01*
X-68114Y37614D01*
X-67072Y38972D01*
X-66417Y40553D01*
X-66194Y42250D01*
X-66417Y43947D01*
X-67072Y45528D01*
X-68114Y46886D01*
X-69472Y47928D01*
X-71053Y48583D01*
X-72750Y48806D01*
D02*
G37*
G36*
X-152400Y138856D02*
X-155469Y138452D01*
X-158328Y137268D01*
X-160784Y135384D01*
X-162668Y132928D01*
X-163853Y130069D01*
X-164257Y127000D01*
X-163853Y123931D01*
X-162668Y121072D01*
X-160784Y118616D01*
X-158328Y116732D01*
X-155469Y115547D01*
X-152400Y115143D01*
X-149332Y115547D01*
X-146472Y116732D01*
X-144016Y118616D01*
X-142132Y121072D01*
X-140948Y123931D01*
X-140544Y127000D01*
X-140948Y130069D01*
X-142132Y132928D01*
X-144016Y135384D01*
X-146472Y137268D01*
X-149332Y138452D01*
X-152400Y138856D01*
D02*
G37*
G36*
X-176550Y87892D02*
Y77450D01*
X-166108D01*
X-166348Y79268D01*
X-167532Y82128D01*
X-169416Y84584D01*
X-171872Y86468D01*
X-174732Y87652D01*
X-176550Y87892D01*
D02*
G37*
G36*
X-89908Y176550D02*
X-100350D01*
Y166108D01*
X-98532Y166347D01*
X-95672Y167532D01*
X-93216Y169416D01*
X-91332Y171872D01*
X-90148Y174731D01*
X-89908Y176550D01*
D02*
G37*
G36*
X-102850D02*
X-113292D01*
X-113053Y174731D01*
X-111868Y171872D01*
X-109984Y169416D01*
X-107528Y167532D01*
X-104669Y166347D01*
X-102850Y166108D01*
Y176550D01*
D02*
G37*
G36*
X-140645Y164155D02*
X-164155D01*
Y140645D01*
X-140645D01*
Y164155D01*
D02*
G37*
G36*
X-127000Y164256D02*
X-130069Y163852D01*
X-132928Y162668D01*
X-135384Y160784D01*
X-137268Y158328D01*
X-138453Y155469D01*
X-138857Y152400D01*
X-138453Y149331D01*
X-137268Y146472D01*
X-135384Y144016D01*
X-132928Y142132D01*
X-130069Y140947D01*
X-127000Y140543D01*
X-123932Y140947D01*
X-121072Y142132D01*
X-118616Y144016D01*
X-116732Y146472D01*
X-115548Y149331D01*
X-115144Y152400D01*
X-115548Y155469D01*
X-116732Y158328D01*
X-118616Y160784D01*
X-121072Y162668D01*
X-123932Y163852D01*
X-127000Y164256D01*
D02*
G37*
G36*
X-166108Y74950D02*
X-176550D01*
Y64508D01*
X-174732Y64747D01*
X-171872Y65932D01*
X-169416Y67816D01*
X-167532Y70272D01*
X-166348Y73131D01*
X-166108Y74950D01*
D02*
G37*
%LPD*%
D13*
X126000Y99500D02*
X139750Y113250D01*
X-53250Y51500D02*
Y66500D01*
X-49750Y-120000D02*
X-44750Y-125000D01*
X-74750Y-120000D02*
X-49750D01*
X-87000Y-107750D02*
X-74750Y-120000D01*
X14750Y89500D02*
Y90000D01*
X2250Y77000D02*
X14750Y89500D01*
X-17250Y77000D02*
X2250D01*
X-30250Y90000D02*
X-17250Y77000D01*
X12850Y165250D02*
X13000Y165400D01*
X-88750Y165250D02*
X12850D01*
X-101600Y152400D02*
X-88750Y165250D01*
X-138250Y117000D02*
X-132750Y122500D01*
X-138250Y90350D02*
Y117000D01*
X-152400Y76200D02*
X-138250Y90350D01*
X-132750Y122500D02*
X-104300D01*
X-101600Y125200D02*
Y152400D01*
X-104300Y122500D02*
X-101600Y125200D01*
X-165000Y63600D02*
X-152400Y76200D01*
X-165000Y-38000D02*
Y63600D01*
X-177800Y-50800D02*
X-165000Y-38000D01*
X-165250Y-63650D02*
X-165100Y-63500D01*
X-165250Y-161250D02*
Y-63650D01*
X-88750Y-165250D02*
X-76200Y-177800D01*
X-161250Y-165250D02*
X-88750D01*
X-165250Y-161250D02*
X-161250Y-165250D01*
X-63250Y-164850D02*
X-62850Y-165250D01*
X38250D01*
X165250Y-114150D02*
X177800Y-101600D01*
X165250Y-161250D02*
Y-114150D01*
X161250Y-165250D02*
X165250Y-161250D01*
X63350Y-165250D02*
X161250D01*
X50800Y-177800D02*
X63350Y-165250D01*
X152400Y50800D02*
X165200Y38000D01*
Y-89000D02*
Y38000D01*
X123850Y22250D02*
X152400Y50800D01*
X96250Y22250D02*
X123850D01*
X84000Y10000D02*
X96250Y22250D01*
X82750Y10000D02*
X84000D01*
X125000Y79750D02*
Y89000D01*
X117500Y96500D02*
X125000Y89000D01*
X95449Y96500D02*
X117500D01*
X89500Y102449D02*
X95449Y96500D01*
X89500Y102449D02*
Y102500D01*
X79973Y12778D02*
X82750Y10000D01*
X79973Y12778D02*
Y25000D01*
X21000Y74500D02*
X22850Y76350D01*
X18750Y76750D02*
X21000Y74500D01*
X36700Y50950D02*
X42000D01*
X32750Y47000D02*
X36700Y50950D01*
X32750Y-5500D02*
Y47000D01*
Y-5500D02*
X42250Y-15000D01*
X-61500Y114500D02*
X-53500Y122500D01*
X-78900D02*
X-66500Y110100D01*
X104001Y-49250D02*
X107500Y-52750D01*
X91500Y-49250D02*
X104001D01*
X91000Y-63750D02*
X95750Y-68500D01*
X103750D01*
X107500Y-72250D01*
X139750Y165150D02*
X152400Y177800D01*
X139750Y113250D02*
Y165150D01*
X-152400Y76200D02*
X-131500Y55300D01*
X-177800Y-50800D02*
X-165100Y-63500D01*
X-63250Y-143500D02*
X-44750Y-125000D01*
X-63250Y-164850D02*
Y-143500D01*
X-76200Y-177800D02*
X-63250Y-164850D01*
X15250Y-127250D02*
Y-125000D01*
Y-127250D02*
X27000Y-139000D01*
X32750D01*
X38250Y-144500D01*
Y-165250D02*
Y-144500D01*
Y-165250D02*
X50800Y-177800D01*
X165200Y-89000D02*
X177800Y-101600D01*
X125000Y79750D02*
X152400Y52350D01*
Y50800D02*
Y52350D01*
X13000Y165400D02*
X25400Y177800D01*
X13000Y133250D02*
Y165400D01*
X10000Y130250D02*
X13000Y133250D01*
X10000Y94750D02*
Y130250D01*
Y94750D02*
X14750Y90000D01*
X54750Y-57500D02*
X57500Y-54750D01*
X54750Y-32500D02*
X57500Y-35250D01*
X77500D01*
X14750Y62500D02*
X15900Y63650D01*
X42000D01*
X121600D02*
X125000Y60250D01*
X98000Y63650D02*
X121600D01*
Y76350D02*
X125000Y79750D01*
X98000Y76350D02*
X121600D01*
X25400Y152400D02*
X35500Y142300D01*
Y95550D02*
Y142300D01*
Y95550D02*
X42000Y89050D01*
X50800Y177800D02*
X63750Y164850D01*
Y142500D02*
Y164850D01*
X60750Y139500D02*
X63750Y142500D01*
X60750Y109500D02*
Y139500D01*
Y109500D02*
X81200Y89050D01*
X98000D01*
X57500Y-54750D02*
X77500D01*
X-44750Y-125000D02*
Y-108500D01*
X-38750Y-102500D01*
X-107500Y-72750D02*
X-96000D01*
X-92250Y-76500D01*
X-107500Y-72750D02*
X-102750Y-68000D01*
Y-41750D01*
X-90500Y-29500D01*
X-165100Y-63500D02*
X-141750D01*
X-132500Y-72750D01*
X-107500D01*
Y12250D02*
X-105750Y10500D01*
X-92000D01*
X-107500Y12250D02*
X-99750Y20000D01*
Y40750D01*
X-90250Y50250D01*
X-131500Y34000D02*
Y55300D01*
Y34000D02*
X-109750Y12250D01*
X-107500D01*
X-33000Y72500D02*
Y87250D01*
X-30250Y90000D01*
X15250Y-125000D02*
Y-110000D01*
X20250Y-105000D01*
X107500Y-72250D02*
X129751Y-72250D01*
X146500Y-89000D01*
X165200D01*
X80250Y-64250D02*
Y-57500D01*
X77500Y-54750D02*
X80250Y-57500D01*
X-4750Y62500D02*
X7250Y74500D01*
X9500D01*
X18750Y76750D02*
Y86000D01*
X14750Y90000D02*
X18750Y86000D01*
X22850Y76350D02*
X42000D01*
X-61500Y74750D02*
X-53250Y66500D01*
X-61500Y74750D02*
Y114500D01*
X-62000Y59000D02*
Y66500D01*
X-66500Y71000D02*
X-62000Y66500D01*
X-66500Y71000D02*
Y110100D01*
X42000Y76350D02*
X42150Y76500D01*
D14*
X-193040Y181610D02*
X-181610Y193040D01*
X193040D01*
Y-193040D02*
Y193040D01*
X-193040Y-193040D02*
X193040D01*
X-193040D02*
Y181610D01*
D15*
X177800Y-177800D02*
D03*
Y-152400D02*
D03*
Y-127000D02*
D03*
Y-101600D02*
D03*
Y-76200D02*
D03*
Y-50800D02*
D03*
Y-25400D02*
D03*
Y-0D02*
D03*
Y25400D02*
D03*
Y50800D02*
D03*
Y76200D02*
D03*
Y101600D02*
D03*
Y127000D02*
D03*
Y152400D02*
D03*
Y177800D02*
D03*
X152400Y-177800D02*
D03*
Y-127000D02*
D03*
Y-101600D02*
D03*
Y-76200D02*
D03*
Y-50800D02*
D03*
Y-25400D02*
D03*
Y-0D02*
D03*
Y25400D02*
D03*
Y50800D02*
D03*
Y76200D02*
D03*
Y101600D02*
D03*
Y127000D02*
D03*
Y177800D02*
D03*
X127000Y-177800D02*
D03*
Y-152400D02*
D03*
Y152400D02*
D03*
Y177800D02*
D03*
X101600Y-177800D02*
D03*
Y-152400D02*
D03*
Y152400D02*
D03*
Y177800D02*
D03*
X76200Y-177800D02*
D03*
Y-152400D02*
D03*
Y152400D02*
D03*
Y177800D02*
D03*
X50800Y-177800D02*
D03*
Y-152400D02*
D03*
Y152400D02*
D03*
Y177800D02*
D03*
X25400Y-177800D02*
D03*
Y-152400D02*
D03*
Y152400D02*
D03*
Y177800D02*
D03*
X-0Y-177800D02*
D03*
Y-152400D02*
D03*
Y152400D02*
D03*
Y177800D02*
D03*
X-25400Y-177800D02*
D03*
Y-152400D02*
D03*
Y152400D02*
D03*
Y177800D02*
D03*
X-50800Y-177800D02*
D03*
Y-152400D02*
D03*
Y152400D02*
D03*
Y177800D02*
D03*
X-76200Y-177800D02*
D03*
Y-152400D02*
D03*
Y152400D02*
D03*
Y177800D02*
D03*
X-101600Y-177800D02*
D03*
Y-152400D02*
D03*
Y152400D02*
D03*
Y177800D02*
D03*
X-127000Y-177800D02*
D03*
Y-152400D02*
D03*
Y152400D02*
D03*
Y177800D02*
D03*
X-152400Y-177800D02*
D03*
Y-127000D02*
D03*
Y-101600D02*
D03*
Y-76200D02*
D03*
Y-50800D02*
D03*
Y-25400D02*
D03*
Y-0D02*
D03*
Y25400D02*
D03*
Y50800D02*
D03*
Y76200D02*
D03*
Y101600D02*
D03*
Y127000D02*
D03*
Y177800D02*
D03*
X-177800Y-177800D02*
D03*
Y-152400D02*
D03*
Y-127000D02*
D03*
Y-101600D02*
D03*
Y-76200D02*
D03*
Y-50800D02*
D03*
Y-25400D02*
D03*
Y-0D02*
D03*
Y25400D02*
D03*
Y50800D02*
D03*
Y76200D02*
D03*
Y101600D02*
D03*
Y127000D02*
D03*
Y152400D02*
D03*
Y177800D02*
D03*
X-152400Y-152400D02*
D03*
X152400D02*
D03*
Y152400D02*
D03*
X-53500Y122500D02*
D03*
X124300D02*
D03*
X98900D02*
D03*
X73500D02*
D03*
X48100D02*
D03*
X22700D02*
D03*
X-2700D02*
D03*
X-28100D02*
D03*
X-78900D02*
D03*
D16*
X-152400Y152400D02*
D03*
X-104300Y122500D02*
D03*
D17*
X-94500Y-135750D02*
D03*
X126000Y99500D02*
D03*
X-8500Y-25750D02*
D03*
X-7000Y-108000D02*
D03*
X0Y-18250D02*
D03*
X-32750Y-10000D02*
D03*
X-24000Y-2500D02*
D03*
X-53250Y51500D02*
D03*
X-55000Y5750D02*
D03*
X-41000Y13750D02*
D03*
X-47000Y21750D02*
D03*
X-66250Y28750D02*
D03*
X-80250Y35500D02*
D03*
X-72750Y42250D02*
D03*
X-89250Y61500D02*
D03*
X-87000Y-107750D02*
D03*
X105000Y108250D02*
D03*
X68750Y22250D02*
D03*
X21000Y74500D02*
D03*
X42250Y-15000D02*
D03*
X54250Y12000D02*
D03*
X79973Y25000D02*
D03*
X98000Y103000D02*
D03*
X89750Y111000D02*
D03*
X89500Y102500D02*
D03*
X52250Y-80500D02*
D03*
X78250Y-101000D02*
D03*
X84750Y-94000D02*
D03*
X92000Y-89000D02*
D03*
X120500Y-64000D02*
D03*
X91250Y-26500D02*
D03*
X91000Y-35250D02*
D03*
X-90000Y-51000D02*
D03*
X-80253Y-61003D02*
D03*
X-72500Y-53000D02*
D03*
X-69250Y-70000D02*
D03*
X-75000Y-85250D02*
D03*
X-80250Y-92750D02*
D03*
X-69500Y-93500D02*
D03*
X-95750Y-111250D02*
D03*
X-64250Y-107500D02*
D03*
X-56250Y-102000D02*
D03*
X-56000Y-91750D02*
D03*
X-45250Y-91500D02*
D03*
X-38750Y-102500D02*
D03*
X-35000Y-94250D02*
D03*
X-92250Y-76500D02*
D03*
X-65500Y-78000D02*
D03*
X-90500Y-29500D02*
D03*
Y-41500D02*
D03*
X-123750Y2750D02*
D03*
X-92000Y10500D02*
D03*
X-90250Y50250D02*
D03*
X-91250Y35250D02*
D03*
X-42500Y74000D02*
D03*
X-33000Y72500D02*
D03*
X-26500Y-89250D02*
D03*
X-17250Y-93250D02*
D03*
X-14750Y-102250D02*
D03*
X-2250Y-91750D02*
D03*
X16250Y-97000D02*
D03*
X9500Y-89500D02*
D03*
X20250Y-105000D02*
D03*
X25250Y-98250D02*
D03*
X45250Y-90750D02*
D03*
X38000Y-84750D02*
D03*
X54250Y-101000D02*
D03*
X97000Y-123000D02*
D03*
X91000Y-63750D02*
D03*
X91500Y-49250D02*
D03*
X80250Y-64250D02*
D03*
X9500Y74500D02*
D03*
X-62000Y59000D02*
D03*
X39750Y-2000D02*
D03*
X53500Y-18250D02*
D03*
X51000Y-1750D02*
D03*
X61000Y18500D02*
D03*
X69750Y13250D02*
D03*
X65750Y-22000D02*
D03*
X59750Y-92750D02*
D03*
X89254Y25251D02*
D03*
D18*
X14750Y62500D02*
D03*
X-4750D02*
D03*
X54750Y-57500D02*
D03*
X35250D02*
D03*
X54750Y-32500D02*
D03*
X35250D02*
D03*
X-44750Y-125000D02*
D03*
X-25250D02*
D03*
X15250D02*
D03*
X34750D02*
D03*
X102250Y10000D02*
D03*
X82750D02*
D03*
X-4750Y90000D02*
D03*
X14750D02*
D03*
X-30250D02*
D03*
X-49750D02*
D03*
D19*
X125000Y60250D02*
D03*
Y79750D02*
D03*
X77500Y-35250D02*
D03*
Y-54750D02*
D03*
X-107500Y12250D02*
D03*
Y-7250D02*
D03*
Y-72750D02*
D03*
Y-92250D02*
D03*
X107500Y-72250D02*
D03*
Y-52750D02*
D03*
D20*
X98000Y76350D02*
D03*
Y63650D02*
D03*
Y50950D02*
D03*
X42000Y89050D02*
D03*
Y76350D02*
D03*
Y63650D02*
D03*
Y50950D02*
D03*
X98000Y89050D02*
D03*
M02*
