M48
;Layer_Color=9474304
;FILE_FORMAT=4:4
METRIC,LZ
T4F00S00C0.3500
%
G90
G05
T04
G00X00685116Y-01081424
M15
G01X00689969Y-01080237
G01X00694576Y-01078305
G01X00698825Y-01075676
G01X0070261Y-01072415
G01X00705838Y-01068602
G01X0070843Y-01064332
G01X00710322Y-01059708
G01X00711467Y-01054845
G01X00711837Y-01050137
G01X0071175Y-01049859
G01X0071175Y-00030093
G01X00711837Y-00029863
G01X00711424Y-00024884
G01X00710237Y-00020031
G01X00708305Y-00015424
G01X00705676Y-00011175
G01X00702415Y-0000739
G01X00698602Y-00004162
G01X00694332Y-0000157
G01X00689708Y00000322
G01X00684845Y00001467
G01X00680137Y00001837
G01X00679859Y0000175
G01X0Y0000175
G01X-00001214Y0000126
G01X-0000175Y0
G01X-0000175Y-0108
G01X-0000126Y-01081214
G01X0Y-0108175
G01X00679907Y-0108175
G01X00680137Y-01081837
G01X00685116Y-01081424
M16
M17
M30
