G04 Layer_Physical_Order=1*
G04 Layer_Color=255*
%FSLAX44Y44*%
%MOMM*%
G71*
G01*
G75*
%ADD10C,0.2500*%
%ADD11C,2.0000*%
%ADD12C,1.0000*%
%ADD13C,0.3500*%
%ADD14C,5.0000*%
%ADD15C,1.5000*%
%ADD16C,1.6510*%
%ADD17R,1.6510X1.6510*%
D10*
X38100Y-146300D02*
X50799Y-158999D01*
X38100Y-171700D02*
X50799Y-184399D01*
X38100Y-197100D02*
X50799Y-209799D01*
X38100Y-222500D02*
X50799Y-235199D01*
X38100Y-247900D02*
X50799Y-260599D01*
X38100Y-273300D02*
X50799Y-285999D01*
X38100Y-298700D02*
X50799Y-311399D01*
X38100Y-324100D02*
X50799Y-336799D01*
X38100Y-349500D02*
X50799Y-362199D01*
X38100Y-374900D02*
X50799Y-387599D01*
X38100Y-400300D02*
X50799Y-412999D01*
X38100Y-425700D02*
X50799Y-438399D01*
X38100Y-451100D02*
X50799Y-463799D01*
X38100Y-476500D02*
X50799Y-489199D01*
X38100Y-501900D02*
X50799Y-514599D01*
X38100Y-527300D02*
X50799Y-539999D01*
X38100Y-552700D02*
X50799Y-565399D01*
X38100Y-578100D02*
X50799Y-590799D01*
X38100Y-603500D02*
X50799Y-616199D01*
X38100Y-628900D02*
X50799Y-641599D01*
X38100Y-654300D02*
X50799Y-666999D01*
X38100Y-679700D02*
X50799Y-692399D01*
X38100Y-705100D02*
X50799Y-717799D01*
X38100Y-730500D02*
X50799Y-743199D01*
X38100Y-755900D02*
X50799Y-768599D01*
X38100Y-781300D02*
X50799Y-793999D01*
X38100Y-806700D02*
X50799Y-819399D01*
X38100Y-832100D02*
X50799Y-844799D01*
X38100Y-857500D02*
X50799Y-870199D01*
X200000D01*
X212700Y-857500D01*
X38100Y-882900D02*
X50799Y-895599D01*
X38100Y-908300D02*
X50799Y-920999D01*
X38100Y-933700D02*
X50799Y-946399D01*
X638100Y-832100D02*
X638500Y-832500D01*
X638100Y-679700D02*
X641050D01*
X638100Y-654300D02*
X638800Y-655000D01*
X50799Y-158999D02*
X200000D01*
X212700Y-146300D01*
X225400Y-158999D01*
X400000D01*
X412700Y-146300D01*
X425400Y-158999D01*
X600000D01*
X612700Y-146300D01*
X50799Y-184399D02*
X200000D01*
X212700Y-171700D01*
X225400Y-184399D01*
X400000D01*
X412700Y-171700D01*
X425400Y-184399D01*
X600000D01*
X612700Y-171700D01*
X50799Y-209799D02*
X200000D01*
X212700Y-197100D01*
X225400Y-209799D01*
X400000D01*
X412700Y-197100D01*
X425400Y-209799D01*
X600000D01*
X612700Y-197100D01*
X50799Y-235199D02*
X200000D01*
X212700Y-222500D01*
X225400Y-235199D01*
X400000D01*
X412700Y-222500D01*
X425400Y-235199D01*
X600000D01*
X612700Y-222500D01*
X50799Y-260599D02*
X200000D01*
X212700Y-247900D01*
X225400Y-260599D01*
X400000D01*
X412700Y-247900D01*
X425400Y-260599D01*
X600000D01*
X612700Y-247900D01*
X50799Y-285999D02*
X200000D01*
X212700Y-273300D01*
X225400Y-285999D01*
X400000D01*
X412700Y-273300D01*
X425400Y-285999D01*
X600000D01*
X612700Y-273300D01*
X50799Y-311399D02*
X200000D01*
X212700Y-298700D01*
X225400Y-311399D01*
X400000D01*
X412700Y-298700D01*
X425400Y-311399D01*
X600000D01*
X612700Y-298700D01*
X50799Y-336799D02*
X200000D01*
X212700Y-324100D01*
X225400Y-336799D01*
X400000D01*
X412700Y-324100D01*
X425400Y-336799D01*
X600000D01*
X612700Y-324100D01*
X50799Y-362199D02*
X200000D01*
X212700Y-349500D01*
X225400Y-362199D01*
X400000D01*
X412700Y-349500D01*
X425400Y-362199D01*
X600000D01*
X612700Y-349500D01*
X50799Y-387599D02*
X200000D01*
X212700Y-374900D01*
X225400Y-387599D01*
X400000D01*
X412700Y-374900D01*
X425400Y-387599D01*
X600000D01*
X612700Y-374900D01*
X50799Y-412999D02*
X200000D01*
X212700Y-400300D01*
X225400Y-412999D01*
X400000D01*
X412700Y-400300D01*
X425400Y-412999D01*
X600000D01*
X612700Y-400300D01*
X50799Y-438399D02*
X200000D01*
X212700Y-425700D01*
X225400Y-438399D01*
X400000D01*
X412700Y-425700D01*
X425400Y-438399D01*
X600000D01*
X612700Y-425700D01*
X50799Y-463799D02*
X200000D01*
X212700Y-451100D01*
X225400Y-463799D01*
X400000D01*
X412700Y-451100D01*
X425400Y-463799D01*
X600000D01*
X612700Y-451100D01*
X50799Y-489199D02*
X200000D01*
X212700Y-476500D01*
X225400Y-489199D01*
X400000D01*
X412700Y-476500D01*
X425400Y-489199D01*
X600000D01*
X612700Y-476500D01*
X50799Y-514599D02*
X200000D01*
X212700Y-501900D01*
X225400Y-514599D01*
X400000D01*
X412700Y-501900D01*
X425400Y-514599D01*
X600000D01*
X612700Y-501900D01*
X50799Y-539999D02*
X200000D01*
X212700Y-527300D01*
X225400Y-539999D01*
X400000D01*
X412700Y-527300D01*
X425400Y-539999D01*
X600000D01*
X612700Y-527300D01*
X50799Y-565399D02*
X200000D01*
X212700Y-552700D01*
X225400Y-565399D01*
X400000D01*
X412700Y-552700D01*
X425400Y-565399D01*
X600000D01*
X612700Y-552700D01*
X50799Y-590799D02*
X200000D01*
X212700Y-578100D01*
X225400Y-590799D01*
X400000D01*
X412700Y-578100D01*
X425400Y-590799D01*
X600000D01*
X612700Y-578100D01*
X50799Y-616199D02*
X200000D01*
X212700Y-603500D01*
X225400Y-616199D01*
X400000D01*
X412700Y-603500D01*
X425400Y-616199D01*
X600000D01*
X612700Y-603500D01*
X50799Y-641599D02*
X200000D01*
X212700Y-628900D01*
X225400Y-641599D01*
X400000D01*
X412700Y-628900D01*
X425400Y-641599D01*
X600000D01*
X612700Y-628900D01*
X50799Y-666999D02*
X200000D01*
X212700Y-654300D01*
X225400Y-666999D01*
X400000D01*
X412700Y-654300D01*
X425400Y-666999D01*
X600000D01*
X612700Y-654300D01*
X50799Y-692399D02*
X200000D01*
X212700Y-679700D01*
X225400Y-692399D01*
X400000D01*
X412700Y-679700D01*
X425400Y-692399D01*
X600000D01*
X612700Y-679700D01*
X50799Y-717799D02*
X200000D01*
X212700Y-705100D01*
X225400Y-717799D01*
X400000D01*
X412700Y-705100D01*
X425400Y-717799D01*
X600000D01*
X612700Y-705100D01*
X50799Y-743199D02*
X200000D01*
X212700Y-730500D01*
X225400Y-743199D01*
X400000D01*
X412700Y-730500D01*
X425400Y-743199D01*
X600000D01*
X612700Y-730500D01*
X50799Y-768599D02*
X200000D01*
X212700Y-755900D01*
X225400Y-768599D01*
X400000D01*
X412700Y-755900D01*
X425400Y-768599D01*
X600000D01*
X612700Y-755900D01*
X50799Y-793999D02*
X200000D01*
X212700Y-781300D01*
X225400Y-793999D01*
X400000D01*
X412700Y-781300D01*
X425400Y-793999D01*
X600000D01*
X612700Y-781300D01*
X50799Y-819399D02*
X200000D01*
X212700Y-806700D01*
X225400Y-819399D01*
X400000D01*
X412700Y-806700D01*
X425400Y-819399D01*
X600000D01*
X612700Y-806700D01*
X50799Y-844799D02*
X200000D01*
X212700Y-832100D01*
X225400Y-844799D01*
X400000D01*
X412700Y-832100D01*
X425400Y-844799D01*
X600000D01*
X612700Y-832100D01*
X212700Y-857500D02*
X225400Y-870199D01*
X400000D01*
X412700Y-857500D01*
X425400Y-870199D01*
X600000D01*
X612700Y-857500D01*
X50799Y-895599D02*
X200000D01*
X212700Y-882900D01*
X225400Y-895599D01*
X400000D01*
X412700Y-882900D01*
X425400Y-895599D01*
X600000D01*
X612700Y-882900D01*
X50799Y-920999D02*
X200000D01*
X212700Y-908300D01*
X225400Y-920999D01*
X400000D01*
X412700Y-908300D01*
X425400Y-920999D01*
X600000D01*
X612700Y-908300D01*
X600000Y-946399D02*
X612700Y-933700D01*
X425400Y-946399D02*
X600000D01*
X412700Y-933700D02*
X425400Y-946399D01*
X400000D02*
X412700Y-933700D01*
X225400Y-946399D02*
X400000D01*
X212700Y-933700D02*
X225400Y-946399D01*
X200000D02*
X212700Y-933700D01*
X50799Y-946399D02*
X200000D01*
D11*
X638100Y-95500D02*
X651750D01*
X663250Y-107000D01*
Y-973000D02*
Y-107000D01*
X651750Y-984500D02*
X663250Y-973000D01*
X638100Y-984500D02*
X651750D01*
X612700D02*
X638100D01*
X412700D02*
X438100D01*
X212700D02*
X238100D01*
X12700D02*
X38100D01*
X612700Y-95500D02*
X638100D01*
X438100D02*
X612700D01*
X412700D02*
X438100D01*
X238100D02*
X412700D01*
X212700D02*
X238100D01*
X38100D02*
X212700D01*
X12700D02*
X38100D01*
Y-984500D02*
X52100D01*
X77500Y-1009900D01*
X172500D02*
X197900Y-984500D01*
X212700D01*
X238100D02*
X347100D01*
X372500Y-1009900D01*
X397900Y-984500D01*
X412700D01*
X438100D02*
X547100D01*
X572500Y-1009900D01*
X597900Y-984500D01*
X612700D01*
X147100D02*
X172500Y-1009900D01*
X77500D02*
X102900Y-984500D01*
X147100D01*
D12*
X612700Y-959100D02*
X638100D01*
X412700D02*
X438100D01*
X212700D02*
X238100D01*
X12700D02*
X38100D01*
X77500D01*
X172500D02*
X212700D01*
X77500D02*
X172500D01*
X238100D02*
X372500D01*
X412700D01*
X438100D02*
X572500D01*
X612700D01*
D13*
X710000Y-30000D02*
G03*
X680000Y0I-30000J0D01*
G01*
Y-1080000D02*
G03*
X710000Y-1050000I0J30000D01*
G01*
X0Y0D02*
X680000D01*
X710000Y-1050000D02*
Y-30000D01*
X0Y-1080000D02*
X680000D01*
X0D02*
Y0D01*
D14*
X672500Y-37500D02*
D03*
X672500Y-1042500D02*
D03*
X340000Y-37500D02*
D03*
Y-1042500D02*
D03*
X40000D02*
D03*
Y-37500D02*
D03*
D15*
X572500Y-959100D02*
D03*
Y-1009900D02*
D03*
X372500Y-959100D02*
D03*
Y-1009900D02*
D03*
X172500Y-959100D02*
D03*
Y-1009900D02*
D03*
X77500Y-959100D02*
D03*
Y-1009900D02*
D03*
D16*
X638100Y-95500D02*
D03*
X612700D02*
D03*
X638100Y-197100D02*
D03*
X612700D02*
D03*
X638100Y-171700D02*
D03*
X612700D02*
D03*
X638100Y-146300D02*
D03*
X612700D02*
D03*
X638100Y-120900D02*
D03*
X612700D02*
D03*
X638100Y-222500D02*
D03*
X612700D02*
D03*
X638100Y-349500D02*
D03*
X612700D02*
D03*
X638100Y-324100D02*
D03*
X612700D02*
D03*
X638100Y-298700D02*
D03*
X612700D02*
D03*
X638100Y-273300D02*
D03*
X612700D02*
D03*
X638100Y-247900D02*
D03*
X612700D02*
D03*
Y-984500D02*
D03*
X638100Y-959100D02*
D03*
X612700D02*
D03*
X638100Y-933700D02*
D03*
X612700D02*
D03*
X638100Y-908300D02*
D03*
X612700D02*
D03*
X638100Y-882900D02*
D03*
X612700D02*
D03*
X638100Y-857500D02*
D03*
X612700D02*
D03*
X638100Y-832100D02*
D03*
X612700D02*
D03*
X638100Y-806700D02*
D03*
X612700D02*
D03*
X638100Y-781300D02*
D03*
X612700D02*
D03*
X638100Y-755900D02*
D03*
X612700D02*
D03*
X638100Y-730500D02*
D03*
X612700D02*
D03*
X638100Y-705100D02*
D03*
X612700D02*
D03*
X638100Y-679700D02*
D03*
X612700D02*
D03*
X638100Y-654300D02*
D03*
X612700D02*
D03*
X638100Y-628900D02*
D03*
X612700D02*
D03*
X638100Y-603500D02*
D03*
X612700D02*
D03*
X638100Y-578100D02*
D03*
X612700D02*
D03*
X638100Y-552700D02*
D03*
X612700D02*
D03*
X638100Y-527300D02*
D03*
X612700D02*
D03*
X638100Y-501900D02*
D03*
X612700D02*
D03*
X638100Y-476500D02*
D03*
X612700D02*
D03*
X638100Y-451100D02*
D03*
X612700D02*
D03*
X638100Y-425700D02*
D03*
X612700D02*
D03*
X638100Y-400300D02*
D03*
X612700D02*
D03*
X638100Y-374900D02*
D03*
X612700D02*
D03*
X438100Y-95500D02*
D03*
X412700D02*
D03*
X438100Y-197100D02*
D03*
X412700D02*
D03*
X438100Y-171700D02*
D03*
X412700D02*
D03*
X438100Y-146300D02*
D03*
X412700D02*
D03*
X438100Y-120900D02*
D03*
X412700D02*
D03*
X438100Y-222500D02*
D03*
X412700D02*
D03*
X438100Y-349500D02*
D03*
X412700D02*
D03*
X438100Y-324100D02*
D03*
X412700D02*
D03*
X438100Y-298700D02*
D03*
X412700D02*
D03*
X438100Y-273300D02*
D03*
X412700D02*
D03*
X438100Y-247900D02*
D03*
X412700D02*
D03*
Y-984500D02*
D03*
X438100Y-959100D02*
D03*
X412700D02*
D03*
X438100Y-933700D02*
D03*
X412700D02*
D03*
X438100Y-908300D02*
D03*
X412700D02*
D03*
X438100Y-882900D02*
D03*
X412700D02*
D03*
X438100Y-857500D02*
D03*
X412700D02*
D03*
X438100Y-832100D02*
D03*
X412700D02*
D03*
X438100Y-806700D02*
D03*
X412700D02*
D03*
X438100Y-781300D02*
D03*
X412700D02*
D03*
X438100Y-755900D02*
D03*
X412700D02*
D03*
X438100Y-730500D02*
D03*
X412700D02*
D03*
X438100Y-705100D02*
D03*
X412700D02*
D03*
X438100Y-679700D02*
D03*
X412700D02*
D03*
X438100Y-654300D02*
D03*
X412700D02*
D03*
X438100Y-628900D02*
D03*
X412700D02*
D03*
X438100Y-603500D02*
D03*
X412700D02*
D03*
X438100Y-578100D02*
D03*
X412700D02*
D03*
X438100Y-552700D02*
D03*
X412700D02*
D03*
X438100Y-527300D02*
D03*
X412700D02*
D03*
X438100Y-501900D02*
D03*
X412700D02*
D03*
X438100Y-476500D02*
D03*
X412700D02*
D03*
X438100Y-451100D02*
D03*
X412700D02*
D03*
X438100Y-425700D02*
D03*
X412700D02*
D03*
X438100Y-400300D02*
D03*
X412700D02*
D03*
X438100Y-374900D02*
D03*
X412700D02*
D03*
X238100Y-95500D02*
D03*
X212700D02*
D03*
X238100Y-197100D02*
D03*
X212700D02*
D03*
X238100Y-171700D02*
D03*
X212700D02*
D03*
X238100Y-146300D02*
D03*
X212700D02*
D03*
X238100Y-120900D02*
D03*
X212700D02*
D03*
X238100Y-222500D02*
D03*
X212700D02*
D03*
X238100Y-349500D02*
D03*
X212700D02*
D03*
X238100Y-324100D02*
D03*
X212700D02*
D03*
X238100Y-298700D02*
D03*
X212700D02*
D03*
X238100Y-273300D02*
D03*
X212700D02*
D03*
X238100Y-247900D02*
D03*
X212700D02*
D03*
Y-984500D02*
D03*
X238100Y-959100D02*
D03*
X212700D02*
D03*
X238100Y-933700D02*
D03*
X212700D02*
D03*
X238100Y-908300D02*
D03*
X212700D02*
D03*
X238100Y-882900D02*
D03*
X212700D02*
D03*
X238100Y-857500D02*
D03*
X212700D02*
D03*
X238100Y-832100D02*
D03*
X212700D02*
D03*
X238100Y-806700D02*
D03*
X212700D02*
D03*
X238100Y-781300D02*
D03*
X212700D02*
D03*
X238100Y-755900D02*
D03*
X212700D02*
D03*
X238100Y-730500D02*
D03*
X212700D02*
D03*
X238100Y-705100D02*
D03*
X212700D02*
D03*
X238100Y-679700D02*
D03*
X212700D02*
D03*
X238100Y-654300D02*
D03*
X212700D02*
D03*
X238100Y-628900D02*
D03*
X212700D02*
D03*
X238100Y-603500D02*
D03*
X212700D02*
D03*
X238100Y-578100D02*
D03*
X212700D02*
D03*
X238100Y-552700D02*
D03*
X212700D02*
D03*
X238100Y-527300D02*
D03*
X212700D02*
D03*
X238100Y-501900D02*
D03*
X212700D02*
D03*
X238100Y-476500D02*
D03*
X212700D02*
D03*
X238100Y-451100D02*
D03*
X212700D02*
D03*
X238100Y-425700D02*
D03*
X212700D02*
D03*
X238100Y-400300D02*
D03*
X212700D02*
D03*
X238100Y-374900D02*
D03*
X212700D02*
D03*
X12700Y-95500D02*
D03*
X38100D02*
D03*
X12700Y-197100D02*
D03*
X38100D02*
D03*
X12700Y-171700D02*
D03*
X38100D02*
D03*
X12700Y-146300D02*
D03*
X38100D02*
D03*
X12700Y-120900D02*
D03*
X38100D02*
D03*
X12700Y-222500D02*
D03*
X38100D02*
D03*
X12700Y-349500D02*
D03*
X38100D02*
D03*
X12700Y-324100D02*
D03*
X38100D02*
D03*
X12700Y-298700D02*
D03*
X38100D02*
D03*
X12700Y-273300D02*
D03*
X38100D02*
D03*
X12700Y-247900D02*
D03*
X38100D02*
D03*
Y-984500D02*
D03*
X12700Y-959100D02*
D03*
X38100D02*
D03*
X12700Y-933700D02*
D03*
X38100D02*
D03*
X12700Y-908300D02*
D03*
X38100D02*
D03*
X12700Y-882900D02*
D03*
X38100D02*
D03*
X12700Y-857500D02*
D03*
X38100D02*
D03*
X12700Y-832100D02*
D03*
X38100D02*
D03*
X12700Y-806700D02*
D03*
X38100D02*
D03*
X12700Y-781300D02*
D03*
X38100D02*
D03*
X12700Y-755900D02*
D03*
X38100D02*
D03*
X12700Y-730500D02*
D03*
X38100D02*
D03*
X12700Y-705100D02*
D03*
X38100D02*
D03*
X12700Y-679700D02*
D03*
X38100D02*
D03*
X12700Y-654300D02*
D03*
X38100D02*
D03*
X12700Y-628900D02*
D03*
X38100D02*
D03*
X12700Y-603500D02*
D03*
X38100D02*
D03*
X12700Y-578100D02*
D03*
X38100D02*
D03*
X12700Y-552700D02*
D03*
X38100D02*
D03*
X12700Y-527300D02*
D03*
X38100D02*
D03*
X12700Y-501900D02*
D03*
X38100D02*
D03*
X12700Y-476500D02*
D03*
X38100D02*
D03*
X12700Y-451100D02*
D03*
X38100D02*
D03*
X12700Y-425700D02*
D03*
X38100D02*
D03*
X12700Y-400300D02*
D03*
X38100D02*
D03*
X12700Y-374900D02*
D03*
X38100D02*
D03*
D17*
X638100Y-984500D02*
D03*
X438100D02*
D03*
X238100D02*
D03*
X12700D02*
D03*
M02*
