G04 Layer_Color=2752767*
%FSLAX44Y44*%
%MOMM*%
G71*
G01*
G75*
%ADD13C,0.3500*%
%ADD25C,0.0508*%
%ADD26C,0.0677*%
D13*
X710000Y-30000D02*
G03*
X680000Y0I-30000J0D01*
G01*
Y-1080000D02*
G03*
X710000Y-1050000I0J30000D01*
G01*
X0Y0D02*
X680000D01*
X710000Y-1050000D02*
Y-30000D01*
X0Y-1080000D02*
X680000D01*
X0D02*
Y0D01*
D25*
X670468Y-39532D02*
Y-35468D01*
X674532D01*
Y-39532D01*
X670468D01*
X670468Y-1044532D02*
Y-1040468D01*
X674532D01*
Y-1044532D01*
X670468D01*
X638100Y-97532D02*
X636068Y-93468D01*
X640132D01*
X638100Y-97532D01*
X612700D02*
X610668Y-93468D01*
X614732D01*
X612700Y-97532D01*
X638100Y-199132D02*
X636068Y-195068D01*
X640132D01*
X638100Y-199132D01*
X612700D02*
X610668Y-195068D01*
X614732D01*
X612700Y-199132D01*
X638100Y-173732D02*
X636068Y-169668D01*
X640132D01*
X638100Y-173732D01*
X612700D02*
X610668Y-169668D01*
X614732D01*
X612700Y-173732D01*
X638100Y-148332D02*
X636068Y-144268D01*
X640132D01*
X638100Y-148332D01*
X612700D02*
X610668Y-144268D01*
X614732D01*
X612700Y-148332D01*
X638100Y-122932D02*
X636068Y-118868D01*
X640132D01*
X638100Y-122932D01*
X612700D02*
X610668Y-118868D01*
X614732D01*
X612700Y-122932D01*
X638100Y-224532D02*
X636068Y-220468D01*
X640132D01*
X638100Y-224532D01*
X612700D02*
X610668Y-220468D01*
X614732D01*
X612700Y-224532D01*
X638100Y-351532D02*
X636068Y-347468D01*
X640132D01*
X638100Y-351532D01*
X612700D02*
X610668Y-347468D01*
X614732D01*
X612700Y-351532D01*
X638100Y-326132D02*
X636068Y-322068D01*
X640132D01*
X638100Y-326132D01*
X612700D02*
X610668Y-322068D01*
X614732D01*
X612700Y-326132D01*
X638100Y-300732D02*
X636068Y-296668D01*
X640132D01*
X638100Y-300732D01*
X612700D02*
X610668Y-296668D01*
X614732D01*
X612700Y-300732D01*
X638100Y-275332D02*
X636068Y-271268D01*
X640132D01*
X638100Y-275332D01*
X612700D02*
X610668Y-271268D01*
X614732D01*
X612700Y-275332D01*
X638100Y-249932D02*
X636068Y-245868D01*
X640132D01*
X638100Y-249932D01*
X612700D02*
X610668Y-245868D01*
X614732D01*
X612700Y-249932D01*
X638100Y-986532D02*
X636068Y-982468D01*
X640132D01*
X638100Y-986532D01*
X612700D02*
X610668Y-982468D01*
X614732D01*
X612700Y-986532D01*
X638100Y-961132D02*
X636068Y-957068D01*
X640132D01*
X638100Y-961132D01*
X612700D02*
X610668Y-957068D01*
X614732D01*
X612700Y-961132D01*
X638100Y-935732D02*
X636068Y-931668D01*
X640132D01*
X638100Y-935732D01*
X612700D02*
X610668Y-931668D01*
X614732D01*
X612700Y-935732D01*
X638100Y-910332D02*
X636068Y-906268D01*
X640132D01*
X638100Y-910332D01*
X612700D02*
X610668Y-906268D01*
X614732D01*
X612700Y-910332D01*
X638100Y-884932D02*
X636068Y-880868D01*
X640132D01*
X638100Y-884932D01*
X612700D02*
X610668Y-880868D01*
X614732D01*
X612700Y-884932D01*
X638100Y-859532D02*
X636068Y-855468D01*
X640132D01*
X638100Y-859532D01*
X612700D02*
X610668Y-855468D01*
X614732D01*
X612700Y-859532D01*
X638100Y-834132D02*
X636068Y-830068D01*
X640132D01*
X638100Y-834132D01*
X612700D02*
X610668Y-830068D01*
X614732D01*
X612700Y-834132D01*
X638100Y-808732D02*
X636068Y-804668D01*
X640132D01*
X638100Y-808732D01*
X612700D02*
X610668Y-804668D01*
X614732D01*
X612700Y-808732D01*
X638100Y-783332D02*
X636068Y-779268D01*
X640132D01*
X638100Y-783332D01*
X612700D02*
X610668Y-779268D01*
X614732D01*
X612700Y-783332D01*
X638100Y-757932D02*
X636068Y-753868D01*
X640132D01*
X638100Y-757932D01*
X612700D02*
X610668Y-753868D01*
X614732D01*
X612700Y-757932D01*
X638100Y-732532D02*
X636068Y-728468D01*
X640132D01*
X638100Y-732532D01*
X612700D02*
X610668Y-728468D01*
X614732D01*
X612700Y-732532D01*
X638100Y-707132D02*
X636068Y-703068D01*
X640132D01*
X638100Y-707132D01*
X612700D02*
X610668Y-703068D01*
X614732D01*
X612700Y-707132D01*
X638100Y-681732D02*
X636068Y-677668D01*
X640132D01*
X638100Y-681732D01*
X612700D02*
X610668Y-677668D01*
X614732D01*
X612700Y-681732D01*
X638100Y-656332D02*
X636068Y-652268D01*
X640132D01*
X638100Y-656332D01*
X612700D02*
X610668Y-652268D01*
X614732D01*
X612700Y-656332D01*
X638100Y-630932D02*
X636068Y-626868D01*
X640132D01*
X638100Y-630932D01*
X612700D02*
X610668Y-626868D01*
X614732D01*
X612700Y-630932D01*
X638100Y-605532D02*
X636068Y-601468D01*
X640132D01*
X638100Y-605532D01*
X612700D02*
X610668Y-601468D01*
X614732D01*
X612700Y-605532D01*
X638100Y-580132D02*
X636068Y-576068D01*
X640132D01*
X638100Y-580132D01*
X612700D02*
X610668Y-576068D01*
X614732D01*
X612700Y-580132D01*
X638100Y-554732D02*
X636068Y-550668D01*
X640132D01*
X638100Y-554732D01*
X612700D02*
X610668Y-550668D01*
X614732D01*
X612700Y-554732D01*
X638100Y-529332D02*
X636068Y-525268D01*
X640132D01*
X638100Y-529332D01*
X612700D02*
X610668Y-525268D01*
X614732D01*
X612700Y-529332D01*
X638100Y-503932D02*
X636068Y-499868D01*
X640132D01*
X638100Y-503932D01*
X612700D02*
X610668Y-499868D01*
X614732D01*
X612700Y-503932D01*
X638100Y-478532D02*
X636068Y-474468D01*
X640132D01*
X638100Y-478532D01*
X612700D02*
X610668Y-474468D01*
X614732D01*
X612700Y-478532D01*
X638100Y-453132D02*
X636068Y-449068D01*
X640132D01*
X638100Y-453132D01*
X612700D02*
X610668Y-449068D01*
X614732D01*
X612700Y-453132D01*
X638100Y-427732D02*
X636068Y-423668D01*
X640132D01*
X638100Y-427732D01*
X612700D02*
X610668Y-423668D01*
X614732D01*
X612700Y-427732D01*
X638100Y-402332D02*
X636068Y-398268D01*
X640132D01*
X638100Y-402332D01*
X612700D02*
X610668Y-398268D01*
X614732D01*
X612700Y-402332D01*
X638100Y-376932D02*
X636068Y-372868D01*
X640132D01*
X638100Y-376932D01*
X612700D02*
X610668Y-372868D01*
X614732D01*
X612700Y-376932D01*
X438100Y-97532D02*
X436068Y-93468D01*
X440132D01*
X438100Y-97532D01*
X412700D02*
X410668Y-93468D01*
X414732D01*
X412700Y-97532D01*
X438100Y-199132D02*
X436068Y-195068D01*
X440132D01*
X438100Y-199132D01*
X412700D02*
X410668Y-195068D01*
X414732D01*
X412700Y-199132D01*
X438100Y-173732D02*
X436068Y-169668D01*
X440132D01*
X438100Y-173732D01*
X412700D02*
X410668Y-169668D01*
X414732D01*
X412700Y-173732D01*
X438100Y-148332D02*
X436068Y-144268D01*
X440132D01*
X438100Y-148332D01*
X412700D02*
X410668Y-144268D01*
X414732D01*
X412700Y-148332D01*
X438100Y-122932D02*
X436068Y-118868D01*
X440132D01*
X438100Y-122932D01*
X412700D02*
X410668Y-118868D01*
X414732D01*
X412700Y-122932D01*
X438100Y-224532D02*
X436068Y-220468D01*
X440132D01*
X438100Y-224532D01*
X412700D02*
X410668Y-220468D01*
X414732D01*
X412700Y-224532D01*
X438100Y-351532D02*
X436068Y-347468D01*
X440132D01*
X438100Y-351532D01*
X412700D02*
X410668Y-347468D01*
X414732D01*
X412700Y-351532D01*
X438100Y-326132D02*
X436068Y-322068D01*
X440132D01*
X438100Y-326132D01*
X412700D02*
X410668Y-322068D01*
X414732D01*
X412700Y-326132D01*
X438100Y-300732D02*
X436068Y-296668D01*
X440132D01*
X438100Y-300732D01*
X412700D02*
X410668Y-296668D01*
X414732D01*
X412700Y-300732D01*
X438100Y-275332D02*
X436068Y-271268D01*
X440132D01*
X438100Y-275332D01*
X412700D02*
X410668Y-271268D01*
X414732D01*
X412700Y-275332D01*
X438100Y-249932D02*
X436068Y-245868D01*
X440132D01*
X438100Y-249932D01*
X412700D02*
X410668Y-245868D01*
X414732D01*
X412700Y-249932D01*
X438100Y-986532D02*
X436068Y-982468D01*
X440132D01*
X438100Y-986532D01*
X412700D02*
X410668Y-982468D01*
X414732D01*
X412700Y-986532D01*
X438100Y-961132D02*
X436068Y-957068D01*
X440132D01*
X438100Y-961132D01*
X412700D02*
X410668Y-957068D01*
X414732D01*
X412700Y-961132D01*
X438100Y-935732D02*
X436068Y-931668D01*
X440132D01*
X438100Y-935732D01*
X412700D02*
X410668Y-931668D01*
X414732D01*
X412700Y-935732D01*
X438100Y-910332D02*
X436068Y-906268D01*
X440132D01*
X438100Y-910332D01*
X412700D02*
X410668Y-906268D01*
X414732D01*
X412700Y-910332D01*
X438100Y-884932D02*
X436068Y-880868D01*
X440132D01*
X438100Y-884932D01*
X412700D02*
X410668Y-880868D01*
X414732D01*
X412700Y-884932D01*
X438100Y-859532D02*
X436068Y-855468D01*
X440132D01*
X438100Y-859532D01*
X412700D02*
X410668Y-855468D01*
X414732D01*
X412700Y-859532D01*
X438100Y-834132D02*
X436068Y-830068D01*
X440132D01*
X438100Y-834132D01*
X412700D02*
X410668Y-830068D01*
X414732D01*
X412700Y-834132D01*
X438100Y-808732D02*
X436068Y-804668D01*
X440132D01*
X438100Y-808732D01*
X412700D02*
X410668Y-804668D01*
X414732D01*
X412700Y-808732D01*
X438100Y-783332D02*
X436068Y-779268D01*
X440132D01*
X438100Y-783332D01*
X412700D02*
X410668Y-779268D01*
X414732D01*
X412700Y-783332D01*
X438100Y-757932D02*
X436068Y-753868D01*
X440132D01*
X438100Y-757932D01*
X412700D02*
X410668Y-753868D01*
X414732D01*
X412700Y-757932D01*
X438100Y-732532D02*
X436068Y-728468D01*
X440132D01*
X438100Y-732532D01*
X412700D02*
X410668Y-728468D01*
X414732D01*
X412700Y-732532D01*
X438100Y-707132D02*
X436068Y-703068D01*
X440132D01*
X438100Y-707132D01*
X412700D02*
X410668Y-703068D01*
X414732D01*
X412700Y-707132D01*
X438100Y-681732D02*
X436068Y-677668D01*
X440132D01*
X438100Y-681732D01*
X412700D02*
X410668Y-677668D01*
X414732D01*
X412700Y-681732D01*
X438100Y-656332D02*
X436068Y-652268D01*
X440132D01*
X438100Y-656332D01*
X412700D02*
X410668Y-652268D01*
X414732D01*
X412700Y-656332D01*
X438100Y-630932D02*
X436068Y-626868D01*
X440132D01*
X438100Y-630932D01*
X412700D02*
X410668Y-626868D01*
X414732D01*
X412700Y-630932D01*
X438100Y-605532D02*
X436068Y-601468D01*
X440132D01*
X438100Y-605532D01*
X412700D02*
X410668Y-601468D01*
X414732D01*
X412700Y-605532D01*
X438100Y-580132D02*
X436068Y-576068D01*
X440132D01*
X438100Y-580132D01*
X412700D02*
X410668Y-576068D01*
X414732D01*
X412700Y-580132D01*
X438100Y-554732D02*
X436068Y-550668D01*
X440132D01*
X438100Y-554732D01*
X412700D02*
X410668Y-550668D01*
X414732D01*
X412700Y-554732D01*
X438100Y-529332D02*
X436068Y-525268D01*
X440132D01*
X438100Y-529332D01*
X412700D02*
X410668Y-525268D01*
X414732D01*
X412700Y-529332D01*
X438100Y-503932D02*
X436068Y-499868D01*
X440132D01*
X438100Y-503932D01*
X412700D02*
X410668Y-499868D01*
X414732D01*
X412700Y-503932D01*
X438100Y-478532D02*
X436068Y-474468D01*
X440132D01*
X438100Y-478532D01*
X412700D02*
X410668Y-474468D01*
X414732D01*
X412700Y-478532D01*
X438100Y-453132D02*
X436068Y-449068D01*
X440132D01*
X438100Y-453132D01*
X412700D02*
X410668Y-449068D01*
X414732D01*
X412700Y-453132D01*
X438100Y-427732D02*
X436068Y-423668D01*
X440132D01*
X438100Y-427732D01*
X412700D02*
X410668Y-423668D01*
X414732D01*
X412700Y-427732D01*
X438100Y-402332D02*
X436068Y-398268D01*
X440132D01*
X438100Y-402332D01*
X412700D02*
X410668Y-398268D01*
X414732D01*
X412700Y-402332D01*
X438100Y-376932D02*
X436068Y-372868D01*
X440132D01*
X438100Y-376932D01*
X412700D02*
X410668Y-372868D01*
X414732D01*
X412700Y-376932D01*
X238100Y-97532D02*
X236068Y-93468D01*
X240132D01*
X238100Y-97532D01*
X212700D02*
X210668Y-93468D01*
X214732D01*
X212700Y-97532D01*
X238100Y-199132D02*
X236068Y-195068D01*
X240132D01*
X238100Y-199132D01*
X212700D02*
X210668Y-195068D01*
X214732D01*
X212700Y-199132D01*
X238100Y-173732D02*
X236068Y-169668D01*
X240132D01*
X238100Y-173732D01*
X212700D02*
X210668Y-169668D01*
X214732D01*
X212700Y-173732D01*
X238100Y-148332D02*
X236068Y-144268D01*
X240132D01*
X238100Y-148332D01*
X212700D02*
X210668Y-144268D01*
X214732D01*
X212700Y-148332D01*
X238100Y-122932D02*
X236068Y-118868D01*
X240132D01*
X238100Y-122932D01*
X212700D02*
X210668Y-118868D01*
X214732D01*
X212700Y-122932D01*
X238100Y-224532D02*
X236068Y-220468D01*
X240132D01*
X238100Y-224532D01*
X212700D02*
X210668Y-220468D01*
X214732D01*
X212700Y-224532D01*
X238100Y-351532D02*
X236068Y-347468D01*
X240132D01*
X238100Y-351532D01*
X212700D02*
X210668Y-347468D01*
X214732D01*
X212700Y-351532D01*
X238100Y-326132D02*
X236068Y-322068D01*
X240132D01*
X238100Y-326132D01*
X212700D02*
X210668Y-322068D01*
X214732D01*
X212700Y-326132D01*
X238100Y-300732D02*
X236068Y-296668D01*
X240132D01*
X238100Y-300732D01*
X212700D02*
X210668Y-296668D01*
X214732D01*
X212700Y-300732D01*
X238100Y-275332D02*
X236068Y-271268D01*
X240132D01*
X238100Y-275332D01*
X212700D02*
X210668Y-271268D01*
X214732D01*
X212700Y-275332D01*
X238100Y-249932D02*
X236068Y-245868D01*
X240132D01*
X238100Y-249932D01*
X212700D02*
X210668Y-245868D01*
X214732D01*
X212700Y-249932D01*
X238100Y-986532D02*
X236068Y-982468D01*
X240132D01*
X238100Y-986532D01*
X212700D02*
X210668Y-982468D01*
X214732D01*
X212700Y-986532D01*
X238100Y-961132D02*
X236068Y-957068D01*
X240132D01*
X238100Y-961132D01*
X212700D02*
X210668Y-957068D01*
X214732D01*
X212700Y-961132D01*
X238100Y-935732D02*
X236068Y-931668D01*
X240132D01*
X238100Y-935732D01*
X212700D02*
X210668Y-931668D01*
X214732D01*
X212700Y-935732D01*
X238100Y-910332D02*
X236068Y-906268D01*
X240132D01*
X238100Y-910332D01*
X212700D02*
X210668Y-906268D01*
X214732D01*
X212700Y-910332D01*
X238100Y-884932D02*
X236068Y-880868D01*
X240132D01*
X238100Y-884932D01*
X212700D02*
X210668Y-880868D01*
X214732D01*
X212700Y-884932D01*
X238100Y-859532D02*
X236068Y-855468D01*
X240132D01*
X238100Y-859532D01*
X212700D02*
X210668Y-855468D01*
X214732D01*
X212700Y-859532D01*
X238100Y-834132D02*
X236068Y-830068D01*
X240132D01*
X238100Y-834132D01*
X212700D02*
X210668Y-830068D01*
X214732D01*
X212700Y-834132D01*
X238100Y-808732D02*
X236068Y-804668D01*
X240132D01*
X238100Y-808732D01*
X212700D02*
X210668Y-804668D01*
X214732D01*
X212700Y-808732D01*
X238100Y-783332D02*
X236068Y-779268D01*
X240132D01*
X238100Y-783332D01*
X212700D02*
X210668Y-779268D01*
X214732D01*
X212700Y-783332D01*
X238100Y-757932D02*
X236068Y-753868D01*
X240132D01*
X238100Y-757932D01*
X212700D02*
X210668Y-753868D01*
X214732D01*
X212700Y-757932D01*
X238100Y-732532D02*
X236068Y-728468D01*
X240132D01*
X238100Y-732532D01*
X212700D02*
X210668Y-728468D01*
X214732D01*
X212700Y-732532D01*
X238100Y-707132D02*
X236068Y-703068D01*
X240132D01*
X238100Y-707132D01*
X212700D02*
X210668Y-703068D01*
X214732D01*
X212700Y-707132D01*
X238100Y-681732D02*
X236068Y-677668D01*
X240132D01*
X238100Y-681732D01*
X212700D02*
X210668Y-677668D01*
X214732D01*
X212700Y-681732D01*
X238100Y-656332D02*
X236068Y-652268D01*
X240132D01*
X238100Y-656332D01*
X212700D02*
X210668Y-652268D01*
X214732D01*
X212700Y-656332D01*
X238100Y-630932D02*
X236068Y-626868D01*
X240132D01*
X238100Y-630932D01*
X212700D02*
X210668Y-626868D01*
X214732D01*
X212700Y-630932D01*
X238100Y-605532D02*
X236068Y-601468D01*
X240132D01*
X238100Y-605532D01*
X212700D02*
X210668Y-601468D01*
X214732D01*
X212700Y-605532D01*
X238100Y-580132D02*
X236068Y-576068D01*
X240132D01*
X238100Y-580132D01*
X212700D02*
X210668Y-576068D01*
X214732D01*
X212700Y-580132D01*
X238100Y-554732D02*
X236068Y-550668D01*
X240132D01*
X238100Y-554732D01*
X212700D02*
X210668Y-550668D01*
X214732D01*
X212700Y-554732D01*
X238100Y-529332D02*
X236068Y-525268D01*
X240132D01*
X238100Y-529332D01*
X212700D02*
X210668Y-525268D01*
X214732D01*
X212700Y-529332D01*
X238100Y-503932D02*
X236068Y-499868D01*
X240132D01*
X238100Y-503932D01*
X212700D02*
X210668Y-499868D01*
X214732D01*
X212700Y-503932D01*
X238100Y-478532D02*
X236068Y-474468D01*
X240132D01*
X238100Y-478532D01*
X212700D02*
X210668Y-474468D01*
X214732D01*
X212700Y-478532D01*
X238100Y-453132D02*
X236068Y-449068D01*
X240132D01*
X238100Y-453132D01*
X212700D02*
X210668Y-449068D01*
X214732D01*
X212700Y-453132D01*
X238100Y-427732D02*
X236068Y-423668D01*
X240132D01*
X238100Y-427732D01*
X212700D02*
X210668Y-423668D01*
X214732D01*
X212700Y-427732D01*
X238100Y-402332D02*
X236068Y-398268D01*
X240132D01*
X238100Y-402332D01*
X212700D02*
X210668Y-398268D01*
X214732D01*
X212700Y-402332D01*
X238100Y-376932D02*
X236068Y-372868D01*
X240132D01*
X238100Y-376932D01*
X212700D02*
X210668Y-372868D01*
X214732D01*
X212700Y-376932D01*
X12700Y-97532D02*
X10668Y-93468D01*
X14732D01*
X12700Y-97532D01*
X38100D02*
X36068Y-93468D01*
X40132D01*
X38100Y-97532D01*
X12700Y-199132D02*
X10668Y-195068D01*
X14732D01*
X12700Y-199132D01*
X38100D02*
X36068Y-195068D01*
X40132D01*
X38100Y-199132D01*
X12700Y-173732D02*
X10668Y-169668D01*
X14732D01*
X12700Y-173732D01*
X38100D02*
X36068Y-169668D01*
X40132D01*
X38100Y-173732D01*
X12700Y-148332D02*
X10668Y-144268D01*
X14732D01*
X12700Y-148332D01*
X38100D02*
X36068Y-144268D01*
X40132D01*
X38100Y-148332D01*
X12700Y-122932D02*
X10668Y-118868D01*
X14732D01*
X12700Y-122932D01*
X38100D02*
X36068Y-118868D01*
X40132D01*
X38100Y-122932D01*
X12700Y-224532D02*
X10668Y-220468D01*
X14732D01*
X12700Y-224532D01*
X38100D02*
X36068Y-220468D01*
X40132D01*
X38100Y-224532D01*
X12700Y-351532D02*
X10668Y-347468D01*
X14732D01*
X12700Y-351532D01*
X38100D02*
X36068Y-347468D01*
X40132D01*
X38100Y-351532D01*
X12700Y-326132D02*
X10668Y-322068D01*
X14732D01*
X12700Y-326132D01*
X38100D02*
X36068Y-322068D01*
X40132D01*
X38100Y-326132D01*
X12700Y-300732D02*
X10668Y-296668D01*
X14732D01*
X12700Y-300732D01*
X38100D02*
X36068Y-296668D01*
X40132D01*
X38100Y-300732D01*
X12700Y-275332D02*
X10668Y-271268D01*
X14732D01*
X12700Y-275332D01*
X38100D02*
X36068Y-271268D01*
X40132D01*
X38100Y-275332D01*
X12700Y-249932D02*
X10668Y-245868D01*
X14732D01*
X12700Y-249932D01*
X38100D02*
X36068Y-245868D01*
X40132D01*
X38100Y-249932D01*
X12700Y-986532D02*
X10668Y-982468D01*
X14732D01*
X12700Y-986532D01*
X38100D02*
X36068Y-982468D01*
X40132D01*
X38100Y-986532D01*
X12700Y-961132D02*
X10668Y-957068D01*
X14732D01*
X12700Y-961132D01*
X38100D02*
X36068Y-957068D01*
X40132D01*
X38100Y-961132D01*
X12700Y-935732D02*
X10668Y-931668D01*
X14732D01*
X12700Y-935732D01*
X38100D02*
X36068Y-931668D01*
X40132D01*
X38100Y-935732D01*
X12700Y-910332D02*
X10668Y-906268D01*
X14732D01*
X12700Y-910332D01*
X38100D02*
X36068Y-906268D01*
X40132D01*
X38100Y-910332D01*
X12700Y-884932D02*
X10668Y-880868D01*
X14732D01*
X12700Y-884932D01*
X38100D02*
X36068Y-880868D01*
X40132D01*
X38100Y-884932D01*
X12700Y-859532D02*
X10668Y-855468D01*
X14732D01*
X12700Y-859532D01*
X38100D02*
X36068Y-855468D01*
X40132D01*
X38100Y-859532D01*
X12700Y-834132D02*
X10668Y-830068D01*
X14732D01*
X12700Y-834132D01*
X38100D02*
X36068Y-830068D01*
X40132D01*
X38100Y-834132D01*
X12700Y-808732D02*
X10668Y-804668D01*
X14732D01*
X12700Y-808732D01*
X38100D02*
X36068Y-804668D01*
X40132D01*
X38100Y-808732D01*
X12700Y-783332D02*
X10668Y-779268D01*
X14732D01*
X12700Y-783332D01*
X38100D02*
X36068Y-779268D01*
X40132D01*
X38100Y-783332D01*
X12700Y-757932D02*
X10668Y-753868D01*
X14732D01*
X12700Y-757932D01*
X38100D02*
X36068Y-753868D01*
X40132D01*
X38100Y-757932D01*
X12700Y-732532D02*
X10668Y-728468D01*
X14732D01*
X12700Y-732532D01*
X38100D02*
X36068Y-728468D01*
X40132D01*
X38100Y-732532D01*
X12700Y-707132D02*
X10668Y-703068D01*
X14732D01*
X12700Y-707132D01*
X38100D02*
X36068Y-703068D01*
X40132D01*
X38100Y-707132D01*
X12700Y-681732D02*
X10668Y-677668D01*
X14732D01*
X12700Y-681732D01*
X38100D02*
X36068Y-677668D01*
X40132D01*
X38100Y-681732D01*
X12700Y-656332D02*
X10668Y-652268D01*
X14732D01*
X12700Y-656332D01*
X38100D02*
X36068Y-652268D01*
X40132D01*
X38100Y-656332D01*
X12700Y-630932D02*
X10668Y-626868D01*
X14732D01*
X12700Y-630932D01*
X38100D02*
X36068Y-626868D01*
X40132D01*
X38100Y-630932D01*
X12700Y-605532D02*
X10668Y-601468D01*
X14732D01*
X12700Y-605532D01*
X38100D02*
X36068Y-601468D01*
X40132D01*
X38100Y-605532D01*
X12700Y-580132D02*
X10668Y-576068D01*
X14732D01*
X12700Y-580132D01*
X38100D02*
X36068Y-576068D01*
X40132D01*
X38100Y-580132D01*
X12700Y-554732D02*
X10668Y-550668D01*
X14732D01*
X12700Y-554732D01*
X38100D02*
X36068Y-550668D01*
X40132D01*
X38100Y-554732D01*
X12700Y-529332D02*
X10668Y-525268D01*
X14732D01*
X12700Y-529332D01*
X38100D02*
X36068Y-525268D01*
X40132D01*
X38100Y-529332D01*
X12700Y-503932D02*
X10668Y-499868D01*
X14732D01*
X12700Y-503932D01*
X38100D02*
X36068Y-499868D01*
X40132D01*
X38100Y-503932D01*
X12700Y-478532D02*
X10668Y-474468D01*
X14732D01*
X12700Y-478532D01*
X38100D02*
X36068Y-474468D01*
X40132D01*
X38100Y-478532D01*
X12700Y-453132D02*
X10668Y-449068D01*
X14732D01*
X12700Y-453132D01*
X38100D02*
X36068Y-449068D01*
X40132D01*
X38100Y-453132D01*
X12700Y-427732D02*
X10668Y-423668D01*
X14732D01*
X12700Y-427732D01*
X38100D02*
X36068Y-423668D01*
X40132D01*
X38100Y-427732D01*
X12700Y-402332D02*
X10668Y-398268D01*
X14732D01*
X12700Y-402332D01*
X38100D02*
X36068Y-398268D01*
X40132D01*
X38100Y-402332D01*
X12700Y-376932D02*
X10668Y-372868D01*
X14732D01*
X12700Y-376932D01*
X38100D02*
X36068Y-372868D01*
X40132D01*
X38100Y-376932D01*
X337968Y-39532D02*
Y-35468D01*
X342032D01*
Y-39532D01*
X337968D01*
Y-1044532D02*
Y-1040468D01*
X342032D01*
Y-1044532D01*
X337968D01*
X37968D02*
Y-1040468D01*
X42032D01*
Y-1044532D01*
X37968D01*
Y-39532D02*
Y-35468D01*
X42032D01*
Y-39532D01*
X37968D01*
D26*
X574532Y-959100D02*
G03*
X574532Y-959100I-2032J0D01*
G01*
Y-1009900D02*
G03*
X574532Y-1009900I-2032J0D01*
G01*
X374532Y-959100D02*
G03*
X374532Y-959100I-2032J0D01*
G01*
Y-1009900D02*
G03*
X374532Y-1009900I-2032J0D01*
G01*
X174532Y-959100D02*
G03*
X174532Y-959100I-2032J0D01*
G01*
Y-1009900D02*
G03*
X174532Y-1009900I-2032J0D01*
G01*
X79532Y-959100D02*
G03*
X79532Y-959100I-2032J0D01*
G01*
Y-1009900D02*
G03*
X79532Y-1009900I-2032J0D01*
G01*
M02*
