G04 Layer_Color=255*
%FSLAX44Y44*%
%MOMM*%
G71*
G01*
G75*
%ADD13C,0.3500*%
%ADD14C,5.0000*%
%ADD15C,1.5000*%
%ADD16C,1.6510*%
%ADD17R,1.6510X1.6510*%
D13*
X710000Y-30000D02*
G03*
X680000Y0I-30000J0D01*
G01*
Y-1080000D02*
G03*
X710000Y-1050000I0J30000D01*
G01*
X0Y0D02*
X680000D01*
X710000Y-1050000D02*
Y-30000D01*
X0Y-1080000D02*
X680000D01*
X0D02*
Y0D01*
D14*
X672500Y-37500D02*
D03*
X672500Y-1042500D02*
D03*
X340000Y-37500D02*
D03*
Y-1042500D02*
D03*
X40000D02*
D03*
Y-37500D02*
D03*
D15*
X572500Y-959100D02*
D03*
Y-1009900D02*
D03*
X372500Y-959100D02*
D03*
Y-1009900D02*
D03*
X172500Y-959100D02*
D03*
Y-1009900D02*
D03*
X77500Y-959100D02*
D03*
Y-1009900D02*
D03*
D16*
X638100Y-95500D02*
D03*
X612700D02*
D03*
X638100Y-197100D02*
D03*
X612700D02*
D03*
X638100Y-171700D02*
D03*
X612700D02*
D03*
X638100Y-146300D02*
D03*
X612700D02*
D03*
X638100Y-120900D02*
D03*
X612700D02*
D03*
X638100Y-222500D02*
D03*
X612700D02*
D03*
X638100Y-349500D02*
D03*
X612700D02*
D03*
X638100Y-324100D02*
D03*
X612700D02*
D03*
X638100Y-298700D02*
D03*
X612700D02*
D03*
X638100Y-273300D02*
D03*
X612700D02*
D03*
X638100Y-247900D02*
D03*
X612700D02*
D03*
Y-984500D02*
D03*
X638100Y-959100D02*
D03*
X612700D02*
D03*
X638100Y-933700D02*
D03*
X612700D02*
D03*
X638100Y-908300D02*
D03*
X612700D02*
D03*
X638100Y-882900D02*
D03*
X612700D02*
D03*
X638100Y-857500D02*
D03*
X612700D02*
D03*
X638100Y-832100D02*
D03*
X612700D02*
D03*
X638100Y-806700D02*
D03*
X612700D02*
D03*
X638100Y-781300D02*
D03*
X612700D02*
D03*
X638100Y-755900D02*
D03*
X612700D02*
D03*
X638100Y-730500D02*
D03*
X612700D02*
D03*
X638100Y-705100D02*
D03*
X612700D02*
D03*
X638100Y-679700D02*
D03*
X612700D02*
D03*
X638100Y-654300D02*
D03*
X612700D02*
D03*
X638100Y-628900D02*
D03*
X612700D02*
D03*
X638100Y-603500D02*
D03*
X612700D02*
D03*
X638100Y-578100D02*
D03*
X612700D02*
D03*
X638100Y-552700D02*
D03*
X612700D02*
D03*
X638100Y-527300D02*
D03*
X612700D02*
D03*
X638100Y-501900D02*
D03*
X612700D02*
D03*
X638100Y-476500D02*
D03*
X612700D02*
D03*
X638100Y-451100D02*
D03*
X612700D02*
D03*
X638100Y-425700D02*
D03*
X612700D02*
D03*
X638100Y-400300D02*
D03*
X612700D02*
D03*
X638100Y-374900D02*
D03*
X612700D02*
D03*
X438100Y-95500D02*
D03*
X412700D02*
D03*
X438100Y-197100D02*
D03*
X412700D02*
D03*
X438100Y-171700D02*
D03*
X412700D02*
D03*
X438100Y-146300D02*
D03*
X412700D02*
D03*
X438100Y-120900D02*
D03*
X412700D02*
D03*
X438100Y-222500D02*
D03*
X412700D02*
D03*
X438100Y-349500D02*
D03*
X412700D02*
D03*
X438100Y-324100D02*
D03*
X412700D02*
D03*
X438100Y-298700D02*
D03*
X412700D02*
D03*
X438100Y-273300D02*
D03*
X412700D02*
D03*
X438100Y-247900D02*
D03*
X412700D02*
D03*
Y-984500D02*
D03*
X438100Y-959100D02*
D03*
X412700D02*
D03*
X438100Y-933700D02*
D03*
X412700D02*
D03*
X438100Y-908300D02*
D03*
X412700D02*
D03*
X438100Y-882900D02*
D03*
X412700D02*
D03*
X438100Y-857500D02*
D03*
X412700D02*
D03*
X438100Y-832100D02*
D03*
X412700D02*
D03*
X438100Y-806700D02*
D03*
X412700D02*
D03*
X438100Y-781300D02*
D03*
X412700D02*
D03*
X438100Y-755900D02*
D03*
X412700D02*
D03*
X438100Y-730500D02*
D03*
X412700D02*
D03*
X438100Y-705100D02*
D03*
X412700D02*
D03*
X438100Y-679700D02*
D03*
X412700D02*
D03*
X438100Y-654300D02*
D03*
X412700D02*
D03*
X438100Y-628900D02*
D03*
X412700D02*
D03*
X438100Y-603500D02*
D03*
X412700D02*
D03*
X438100Y-578100D02*
D03*
X412700D02*
D03*
X438100Y-552700D02*
D03*
X412700D02*
D03*
X438100Y-527300D02*
D03*
X412700D02*
D03*
X438100Y-501900D02*
D03*
X412700D02*
D03*
X438100Y-476500D02*
D03*
X412700D02*
D03*
X438100Y-451100D02*
D03*
X412700D02*
D03*
X438100Y-425700D02*
D03*
X412700D02*
D03*
X438100Y-400300D02*
D03*
X412700D02*
D03*
X438100Y-374900D02*
D03*
X412700D02*
D03*
X238100Y-95500D02*
D03*
X212700D02*
D03*
X238100Y-197100D02*
D03*
X212700D02*
D03*
X238100Y-171700D02*
D03*
X212700D02*
D03*
X238100Y-146300D02*
D03*
X212700D02*
D03*
X238100Y-120900D02*
D03*
X212700D02*
D03*
X238100Y-222500D02*
D03*
X212700D02*
D03*
X238100Y-349500D02*
D03*
X212700D02*
D03*
X238100Y-324100D02*
D03*
X212700D02*
D03*
X238100Y-298700D02*
D03*
X212700D02*
D03*
X238100Y-273300D02*
D03*
X212700D02*
D03*
X238100Y-247900D02*
D03*
X212700D02*
D03*
Y-984500D02*
D03*
X238100Y-959100D02*
D03*
X212700D02*
D03*
X238100Y-933700D02*
D03*
X212700D02*
D03*
X238100Y-908300D02*
D03*
X212700D02*
D03*
X238100Y-882900D02*
D03*
X212700D02*
D03*
X238100Y-857500D02*
D03*
X212700D02*
D03*
X238100Y-832100D02*
D03*
X212700D02*
D03*
X238100Y-806700D02*
D03*
X212700D02*
D03*
X238100Y-781300D02*
D03*
X212700D02*
D03*
X238100Y-755900D02*
D03*
X212700D02*
D03*
X238100Y-730500D02*
D03*
X212700D02*
D03*
X238100Y-705100D02*
D03*
X212700D02*
D03*
X238100Y-679700D02*
D03*
X212700D02*
D03*
X238100Y-654300D02*
D03*
X212700D02*
D03*
X238100Y-628900D02*
D03*
X212700D02*
D03*
X238100Y-603500D02*
D03*
X212700D02*
D03*
X238100Y-578100D02*
D03*
X212700D02*
D03*
X238100Y-552700D02*
D03*
X212700D02*
D03*
X238100Y-527300D02*
D03*
X212700D02*
D03*
X238100Y-501900D02*
D03*
X212700D02*
D03*
X238100Y-476500D02*
D03*
X212700D02*
D03*
X238100Y-451100D02*
D03*
X212700D02*
D03*
X238100Y-425700D02*
D03*
X212700D02*
D03*
X238100Y-400300D02*
D03*
X212700D02*
D03*
X238100Y-374900D02*
D03*
X212700D02*
D03*
X12700Y-95500D02*
D03*
X38100D02*
D03*
X12700Y-197100D02*
D03*
X38100D02*
D03*
X12700Y-171700D02*
D03*
X38100D02*
D03*
X12700Y-146300D02*
D03*
X38100D02*
D03*
X12700Y-120900D02*
D03*
X38100D02*
D03*
X12700Y-222500D02*
D03*
X38100D02*
D03*
X12700Y-349500D02*
D03*
X38100D02*
D03*
X12700Y-324100D02*
D03*
X38100D02*
D03*
X12700Y-298700D02*
D03*
X38100D02*
D03*
X12700Y-273300D02*
D03*
X38100D02*
D03*
X12700Y-247900D02*
D03*
X38100D02*
D03*
Y-984500D02*
D03*
X12700Y-959100D02*
D03*
X38100D02*
D03*
X12700Y-933700D02*
D03*
X38100D02*
D03*
X12700Y-908300D02*
D03*
X38100D02*
D03*
X12700Y-882900D02*
D03*
X38100D02*
D03*
X12700Y-857500D02*
D03*
X38100D02*
D03*
X12700Y-832100D02*
D03*
X38100D02*
D03*
X12700Y-806700D02*
D03*
X38100D02*
D03*
X12700Y-781300D02*
D03*
X38100D02*
D03*
X12700Y-755900D02*
D03*
X38100D02*
D03*
X12700Y-730500D02*
D03*
X38100D02*
D03*
X12700Y-705100D02*
D03*
X38100D02*
D03*
X12700Y-679700D02*
D03*
X38100D02*
D03*
X12700Y-654300D02*
D03*
X38100D02*
D03*
X12700Y-628900D02*
D03*
X38100D02*
D03*
X12700Y-603500D02*
D03*
X38100D02*
D03*
X12700Y-578100D02*
D03*
X38100D02*
D03*
X12700Y-552700D02*
D03*
X38100D02*
D03*
X12700Y-527300D02*
D03*
X38100D02*
D03*
X12700Y-501900D02*
D03*
X38100D02*
D03*
X12700Y-476500D02*
D03*
X38100D02*
D03*
X12700Y-451100D02*
D03*
X38100D02*
D03*
X12700Y-425700D02*
D03*
X38100D02*
D03*
X12700Y-400300D02*
D03*
X38100D02*
D03*
X12700Y-374900D02*
D03*
X38100D02*
D03*
D17*
X638100Y-984500D02*
D03*
X438100D02*
D03*
X238100D02*
D03*
X12700D02*
D03*
M02*
