M48
;Layer_Color=9474304
;FILE_FORMAT=4:4
METRIC,LZ
;TYPE=PLATED
T1F00S00C0.7000
T2F00S00C0.9000
T3F00S00C3.2000
;TYPE=NON_PLATED
%
T01
X000775Y-010099
Y-009591
X001725
Y-010099
X003725
Y-009591
X005725
Y-010099
T02
X000127Y-009845
X000381
Y-009591
X000127
Y-009337
X000381
Y-009083
X000127
Y-008829
X000381
Y-008575
X000127
Y-008321
X000381
Y-008067
X000127
Y-007813
X000381
Y-007559
X000127
Y-007305
X000381
Y-007051
X000127
X002127
Y-007305
Y-007559
Y-007813
Y-008067
Y-008321
Y-008575
Y-008829
Y-009083
Y-009337
Y-009591
Y-009845
X002381
Y-009591
Y-009337
Y-009083
Y-008829
Y-008575
Y-008321
Y-008067
Y-007813
Y-007559
Y-007305
Y-007051
X004127
Y-007305
Y-007559
Y-007813
Y-008067
Y-008321
Y-008575
Y-008829
Y-009083
Y-009337
Y-009591
Y-009845
X004381
Y-009591
Y-009337
Y-009083
Y-008829
Y-008575
Y-008321
Y-008067
Y-007813
Y-007559
Y-007305
Y-007051
X006127
Y-007305
Y-007559
Y-007813
Y-008067
Y-008321
Y-008575
Y-008829
Y-009083
Y-009337
Y-009591
Y-009845
X006381
Y-009591
Y-009337
Y-009083
Y-008829
Y-008575
Y-008321
Y-008067
Y-007813
Y-007559
Y-007305
Y-007051
Y-006797
X006127
Y-006543
X006381
Y-006289
X006127
Y-006035
X006381
Y-005781
X006127
Y-005527
X006381
Y-005273
X006127
Y-005019
X006381
Y-004765
X006127
Y-004511
X006381
Y-004257
X006127
Y-004003
X006381
Y-003749
Y-003495
X006127
Y-003241
X006381
Y-002987
X006127
Y-003749
X004381
Y-003495
X004127
Y-003241
X004381
Y-002987
X004127
Y-003749
Y-004003
Y-004257
Y-004511
Y-004765
Y-005019
Y-005273
Y-005527
Y-005781
Y-006035
Y-006289
Y-006543
Y-006797
X004381
Y-006543
Y-006289
Y-006035
Y-005781
Y-005527
Y-005273
Y-005019
Y-004765
Y-004511
Y-004257
Y-004003
X002381
Y-004257
Y-004511
Y-004765
Y-005019
Y-005273
Y-005527
Y-005781
Y-006035
Y-006289
Y-006543
Y-006797
X002127
Y-006543
Y-006289
Y-006035
Y-005781
Y-005527
Y-005273
Y-005019
Y-004765
Y-004511
Y-004257
Y-004003
Y-003749
Y-003495
X002381
Y-003241
X002127
Y-002987
X002381
Y-003749
X000381
Y-003495
X000127
Y-003241
X000381
Y-002987
X000127
Y-003749
Y-004003
Y-004257
Y-004511
Y-004765
Y-005019
Y-005273
Y-005527
Y-005781
Y-006035
Y-006289
Y-006543
Y-006797
X000381
Y-006543
Y-006289
Y-006035
Y-005781
Y-005527
Y-005273
Y-005019
Y-004765
Y-004511
Y-004257
Y-004003
Y-002733
X000127
Y-002479
Y-002225
Y-001971
X000381
Y-001717
X000127
Y-001463
X000381
Y-001209
Y-000955
X000127
Y-001209
X000381Y-002225
Y-002479
X002127
Y-002225
Y-001971
X002381
Y-001717
X002127
Y-001463
X002381
Y-001209
Y-000955
X002127
Y-001209
X002381Y-002225
Y-002479
Y-002733
X002127
X004127
X004381
Y-002479
Y-002225
Y-001971
X004127
Y-001717
X004381
Y-001463
X004127
Y-001209
Y-000955
X004381
Y-001209
X004127Y-002225
Y-002479
X006127
Y-002225
Y-001971
X006381
Y-001717
X006127
Y-001463
X006381
Y-001209
Y-000955
X006127
Y-001209
X006381Y-002225
Y-002479
Y-002733
X006127
T03
X0004Y-010425
X0034
X006725
X0004Y-000375
X0034
X006725
M30
