M48
;Layer_Color=9474304
;FILE_FORMAT=4:4
METRIC,LZ
;TYPE=PLATED
T1F00S00C0.3000
T2F00S00C0.4000
T3F00S00C0.5000
T4F00S00C0.6000
T5F00S00C0.7000
T7F00S00C0.8000
T8F00S00C0.8500
T9F00S00C0.9000
T11F00S00C1.0000
T13F00S00C1.1000
T14F00S00C1.5000
T15F00S00C3.2000
T16F00S00C4.2000
;TYPE=NON_PLATED
%
T01
X00009999Y-01015001
X0025Y-01070001
X00295
X0034
X01465
X0151
X01555
X016
X01645Y-01070002
X0169
X01735Y-01070001
X018Y-01015001
X018Y-00970001
Y-00925001
X018Y-00880001
Y-00835001
Y-00700001
X018Y-00655001
X018Y-00610001
X016931Y-00685
X01667Y-006925
X01517Y-0067875
X015245Y-005975
X0153525Y-005825
X0154475Y-0060975
X01445Y-00835
X01415
X01385
X012895Y-00792
X01225Y-007925
X012695Y-0073725
X0125025Y-0070175
X0121125Y-0070075
X011835Y-00708
X01129Y-00761
X01096Y-0073575
X0106375Y-007355
X012885Y-00687
X0129225Y-0064825
X012535Y-006485
X0130775Y-006225
X0134225Y-006265
X0134125Y-006395
X0138825Y-00644
X01334Y-0074175
X0132825Y-0074975
X0102725Y-00736
X009935Y-0073375
X009755Y-0072575
X009585Y-00725
X00943Y-00717
X00956Y-0075525
X0099375Y-0078425
X0103Y-0078075
X0099975Y-0064825
X00909Y-00592
X0085075Y-0059875
X007915Y-0058275
X00845Y-007285
X0089025Y-00708
X00876Y-007935
X0079975Y-008
X007965Y-007845
X00425Y-00835
X00395
X00365
X0049025Y-00612
X002435Y-0058875
X00009999Y-0061
X00009999Y-00655
X00009999Y-007
Y-00745
Y-0079
Y-00835
Y-0088
X00009999Y-0097
X0015175Y-00833
X00009999Y-00565
Y-0052
Y-00475
Y-0043
Y-00385
X00009999Y-0034
X00009999Y-00295
Y-0025
Y-00205
X0049675Y-0027875
X0049025Y-0033475
X005425Y-003885
X0056175Y-0036925
X006665Y-0046925
X0069125Y-0046875
X0071675Y-004685
X0074175Y-00468
X0081775Y-005475
X0081875Y-005665
X0080075Y-0056825
X00904Y-0054525
X009915Y-005205
X0101425Y-005195
X0102375Y-0051475
X01017Y-0049725
X0102025Y-0054675
X0101325Y-0055325
X0101825Y-0031075
X0087625Y-0026075
X00797Y-002195
X006615Y-002135
X00822Y-0038775
X008515Y-004025
X0111Y-0041
Y-0039
X0113
Y-0041
Y-0043
Y-0045
X0111
Y-0043
X0106Y-0047
X0109575Y-005455
X0119325Y-0051725
X0121725Y-0051975
X0121475Y-003225
X01233875Y-00284875
X0115025Y-0028875
X0125175Y-0019425
X013175Y-0019125
X01431Y-0024425
X013975Y-00344
X0142325Y-0049575
X01423Y-005195
X0142275Y-0054425
X014825Y-0047125
X01565Y-004055
X0155525Y-003875
X0166775Y-00318
X01706Y-003185
X0169875Y-003015
X01745Y-0028225
X0170475Y-0024025
X01674Y-0021175
X0168075Y-002045
X0165525Y-0019675
X016285Y-0019625
X018Y-00205001
Y-00250001
Y-00340001
Y-00385001
Y-00430001
Y-00475001
Y-00520001
Y-00565001
X01736Y-0051925
X01738Y-004345
X0171275Y-004345
X0166825Y-0046745
X0163175Y-0050525
X0144825Y-0028125
X01439Y-0025
X01445Y-00241
X01592Y-0015925
X016955Y-00159
X018Y-00160001
Y-00115001
X018Y-00070001
X01735Y-0001
X0169
X01645
X016
X01555
X0151
X01465
X0142
X01375
X0133
X01285
X0124
X01195
X0115
X01105
X0106
X010825Y-0015125
X01088Y-0016075
X01128Y-0014975
X01227Y-001145
X0123925Y-00124
X01015Y-0001
X0097
X00925
X0088
X00835
X0079
X00745
X007
X00655
X00846Y-0015225
X0061Y-0001
X00565
X0052
X00475
X0043
X00385
X0034
X00295
X0025
X00205
X0016
X00115
X0007
T02
X01419499Y-00406501
X01433499
T03
X0091325Y-00687
X0151375Y-0022425
T04
X00078Y-00976
Y-0096
Y-00944
X00066Y-00952
Y-00968
T05
X001996Y-01035
X0018Y-010108
X002319Y-009981
X002573
X002827
X003081
X002504Y-01035
X014792Y-0103
X015808
X0153Y-008481
X015
X014704Y-00805
Y-0076
X01445
X015Y-007719
X0153
X0155Y-007154
Y-0069
Y-006646
X015
X015083Y-0063
X014981Y-005975
X016042Y-0061
X017058
Y-00725
Y-0076
X016042
Y-00725
X015Y-007154
X0138Y-007196
Y-007704
X014196Y-0076
Y-00805
X0133Y-007658
X01295
X0126
Y-006642
X01295
X0133
X014067Y-0063
X014219Y-005975
X01161899Y-00635001
X01111099
X010904Y-00635
X01075Y-006642
X0111
Y-007658
X01075
X0104
X01005
X0097
X00935
X009
X00835
X008
Y-006642
X00835
X009
X00935
X0097
X01005
X0104
X010396Y-00635
X00780199Y-00595501
X00627799
X003858Y-00665
Y-007
X002842
X00285Y-007296
X002481Y-00725
Y-007504
Y-007758
Y-008012
X00285Y-007804
X003079Y-008725
X003081Y-009219
X002827
X002573
X002571Y-008725
X002481Y-006996
Y-006742
Y-006488
X002842Y-00665
X001719Y-006742
Y-006996
Y-00725
Y-007504
Y-007758
Y-008012
X001821Y-008725
X0018Y-009092
X002319Y-009219
X002329Y-008725
X001719Y-006488
X00165Y-006004
X0021
Y-005496
X002104Y-00515
X001596
X00165Y-005496
X002146Y-00365
Y-00315
X002019Y-002681
Y-002427
Y-002173
Y-001919
X002781
Y-002173
Y-002427
Y-002681
X002654Y-00315
Y-00365
X002996Y-0034
Y-0039
X003504
Y-0034
X003919Y-0035
Y-003754
Y-004008
Y-004262
Y-004516
X003508Y-00445
Y-0048
Y-00515
Y-0055
X002492
Y-00515
Y-0048
Y-00445
X00325Y-002958
X003919Y-002992
Y-003246
Y-002738
Y-002484
X004681
Y-002738
Y-002992
Y-003246
Y-0035
Y-003754
Y-004008
Y-004262
Y-004516
X00627799Y-00443101
Y-00417701
Y-00392301
Y-00366901
Y-00341501
Y-00316101
Y-00290701
Y-00265301
Y-00239901
Y-00214501
X004894Y-00185
X004406
X00325Y-001942
X00627799Y-00468501
Y-00493901
Y-00519301
Y-00544701
Y-00570101
X00780199
Y-00544701
Y-00519301
Y-00493901
Y-00468501
Y-00443101
Y-00417701
Y-00392301
Y-00366901
Y-00341501
Y-00316101
Y-00290701
Y-00265301
Y-00239901
Y-00214501
X00881499Y-00332101
Y-00382901
Y-00419601
Y-00470401
X009746Y-0019
X010254
X01106099Y-00190001
X01156899
X01190699
X01292299
X01391499Y-00224201
X01426499
Y-00325801
X01391499
X01346499Y-00330401
X01345699Y-00375001
X01346499Y-00404601
X01386499Y-00404601
Y-00455401
X01346499Y-00455401
X01346499Y-00279601
X01447299Y-00375001
X01466499Y-00404601
Y-00455401
X016042Y-0047
Y-00505
Y-0054
Y-00575
X017058
Y-0054
Y-00505
Y-0047
X017081Y-001731
X016827
X016573
X016319
Y-000969
X016573
X016827
X017081
X017208Y-000625
X017475Y-001096
Y-001604
X016192Y-000625
X01306899Y-00060001
X01256099
X01226899
X01176099
X01190699Y-00100001
X01217099Y-00145001
X01265899
X01292299Y-00100001
X00774399Y-00170001
X00723599
X005354Y-00125
X004846
X004454
X003946
X00325Y-001146
Y-001654
X002908Y-0014
X001892
X000235
Y-0012
Y-001
T07
X00045Y-003377
Y-003123
X0013Y-003025
Y-003375
T08
X010617Y-005953
X010871
X011125
X011379
X011633
X011887
X012141
X012395
X012649
X012903
X010363
X010109
X009855
X009601
X009347
Y-005699
Y-005445
X009601
Y-005191
Y-004937
Y-004683
Y-004429
Y-004175
Y-003921
Y-003667
Y-003413
Y-003159
Y-002905
X009347
Y-003159
Y-003413
Y-003667
Y-003921
Y-004175
Y-004429
Y-004683
Y-004937
Y-005191
X009601Y-005699
X009855
X010109
X010363
Y-002651
Y-002397
X010109
Y-002651
X009855
Y-002397
X009601
X009347
Y-002651
X009601
X010617
X010871
X011125
X011379
X011633
X011887
X012141
X012395
Y-002397
X012649
X012903
Y-002651
Y-002905
Y-003159
Y-003413
Y-003667
Y-003921
Y-004175
Y-004429
Y-004683
Y-004937
Y-005191
Y-005445
Y-005699
X012649
Y-005445
Y-005191
Y-004937
Y-004683
Y-004429
Y-004175
Y-003921
Y-003667
Y-003413
Y-003159
Y-002905
Y-002651
X012141Y-002397
X011887
X011633
X011379
X011125
X010871
X010617
Y-005699
X010871
X011125
X011379
X011633
X011887
X012141
X012395
T09
X01757599Y-00781301
Y-00755901
X01782999
Y-00730501
Y-00705101
Y-00679701
Y-00654301
Y-00628901
Y-00603501
Y-00578101
X01757599
Y-00603501
Y-00628901
Y-00654301
Y-00679701
Y-00705101
X01757599Y-00730501
X01782999Y-00781301
X013495Y-008173
Y-008427
X013241
X012987
X012733
X012479
Y-008173
X012733
X012987
X013241
X012225
Y-008427
X011971
X011717
X011463
X011209
X010955
Y-008173
X011209
X011463
X011717
X011971
X010701
X010447
Y-008427
X010701
X010193
X009939
X009685
X009431
X009177
X008923
X008669
X008415
X008161
X007907
X007653
X007399
X007145
X006891
X006637
Y-008173
X006891
X007145
X007399
X007653
X007907
X008161
X008415
X008669
X008923
X009177
X009431
X009685
X009939
X010193
X006383
X006129
X005875
X005621
X005367
X005113
X004859
X004605
Y-008427
X004859
X005113
X005367
X005621
X005875
X006129
X006383
X00103Y-00814
X00078
Y-00793
Y-00767
Y-00746
X00103Y-00746
Y-00634
X00078
Y-00613
Y-00587
Y-00566
X00103
X01468799Y-00300401
X01494199
Y-00275001
Y-00249601
X01468799
Y-00275001
X01757599Y-00298701
X01782999
Y-00324101
X01757599
Y-00349501
X01782999
Y-00374901
Y-00400301
X01757599
Y-00374901
Y-00425701
X01782999
Y-00451101
X01757599
Y-00476501
Y-00501901
X01782999Y-00501901
Y-00476501
Y-00527301
X01757599
Y-00552701
X01782999
X014608Y-001175
Y-000825
X013592
X013592Y-001175
X011258
X011258Y-000825
X010242
X010242Y-001175
X002908Y-001025
X001892
T11
X0178025Y-0081175
X015654Y-000752
Y-000498
X0154
Y-000752
X015146
Y-000498
T13
X0014Y-009828
Y-0096
Y-009372
X0012Y-002529
Y-002275
Y-002021
T14
X015Y-00915311
X01705
X000235Y-00161
Y-00079
T15
X00029999Y-01050001
X01779999
Y-00030001
X00029999Y-00030001
T16
X0045Y-0053
M30
