M48
;Layer_Color=9474304
;FILE_FORMAT=4:4
METRIC,LZ
T17F00S00C0.3500
%
G90
G05
T17
G00X00360001Y-01081749
M15
G01X00361215Y-01081259
G01X0036175Y-01079999
G01X0036175Y-0085715
G01X0144825Y-0085715
G01X0144825Y-0108
G01X0144874Y-01081214
G01X0145Y-0108175
G01X01779905Y-01081751
G01X01780136Y-01081838
G01X01785114Y-01081425
G01X01789967Y-01080238
G01X01794575Y-01078306
G01X01798823Y-01075677
G01X01802608Y-01072416
G01X01805836Y-01068603
G01X01808428Y-01064332
G01X0181032Y-01059708
G01X01811465Y-01054846
G01X01811836Y-01050138
G01X0181175Y-01049865
G01X0181175Y-00030095
G01X01811837Y-00029864
G01X01811424Y-00024886
G01X01810237Y-00020033
G01X01808305Y-00015425
G01X01805676Y-00011177
G01X01802415Y-00007392
G01X01798602Y-00004164
G01X01794332Y-00001572
G01X01789708Y0000032
G01X01784845Y00001465
G01X01780137Y00001836
G01X01779866Y0000175
G01X00030093Y0000175
G01X00029864Y00001837
G01X00024886Y00001424
G01X00020033Y00000237
G01X00015425Y-00001695
G01X00011177Y-00004324
G01X00007392Y-00007585
G01X00004164Y-00011398
G01X00001572Y-00015668
G01X-0000032Y-00020292
G01X-00001465Y-00025155
G01X-00001836Y-00029863
G01X-0000175Y-00030135
G01X-0000175Y-01049907
G01X-00001837Y-01050137
G01X-00001424Y-01055115
G01X-00000237Y-01059968
G01X00001695Y-01064575
G01X00004324Y-01068824
G01X00007585Y-01072609
G01X00011398Y-01075837
G01X00015668Y-01078429
G01X00020292Y-01080321
G01X00025155Y-01081466
G01X0003Y-01081842
G01X00360001Y-01081749
M16
M17
M30
