M48
;Layer_Color=9474304
;FILE_FORMAT=4:4
METRIC,LZ
;TYPE=PLATED
T6F00S00C0.7000
T10F00S00C0.9000
T12F00S00C1.0000
;TYPE=NON_PLATED
%
G90
G05
T06
G00X000555Y-008475
M15
G01X000405
M16
G00X0004Y-007875
M15
G01Y-007725
M16
G00X000555Y-007125
M15
G01X000405
M16
G00X000555Y-006675
M15
G01X000405
M16
G00X0004Y-006075
M15
G01Y-005925
M16
G00X000555Y-005325
M15
G01X000405
M16
T10
G00X00026Y-009965
M15
G01X00019
M16
G00X000725Y-009965
M15
G01X000655
M16
G00X000725Y-009235
M15
G01X000655
M16
G00X00026Y-009235
M15
G01X00019
M16
T12
G00X00039Y-00434
M15
G01Y-00424
M16
G00X00063Y-00414
M15
G01Y-00404
M16
G00X00118Y-00414
M15
G01Y-00404
M16
G00X001Y-00434
M15
G01Y-00424
M16
G00X00155Y-00434
M15
G01Y-00424
M16
M17
M30
