G04 Layer_Color=8388736*
%FSLAX44Y44*%
%MOMM*%
G71*
G01*
G75*
%ADD21C,0.3500*%
%ADD56R,2.7032X6.4032*%
%ADD57R,1.7032X0.5032*%
%ADD58R,0.5032X1.7032*%
%ADD59C,2.0000*%
%ADD60C,1.8032*%
%ADD61C,5.2032*%
%ADD62C,2.0032*%
%ADD63C,1.7032*%
%ADD64R,1.7032X1.7032*%
%ADD65C,1.7032*%
%ADD66C,2.4032*%
%ADD67C,1.2032*%
%ADD68C,1.9032*%
%ADD69C,1.6032*%
%ADD70R,1.4732X1.4732*%
%ADD71C,1.4732*%
%ADD72O,2.7032X2.3032*%
%ADD73C,1.4032*%
%ADD74O,2.5032X1.8032*%
%ADD75O,1.6032X3.2032*%
%ADD76O,3.2032X1.6032*%
%ADD77R,1.7032X1.7032*%
%ADD78R,1.8542X1.8542*%
%ADD79C,1.8542*%
%ADD80R,1.8542X1.8542*%
%ADD81O,2.0032X2.6032*%
%ADD82R,1.8032X1.8032*%
D21*
X30002Y-0D02*
G03*
X2Y-30000I0J-30000D01*
G01*
X1810000Y-30002D02*
G03*
X1780000Y-2I-30000J0D01*
G01*
X1779998Y-1080001D02*
G03*
X1809998Y-1050001I0J30000D01*
G01*
X0Y-1049999D02*
G03*
X30000Y-1079999I30000J0D01*
G01*
X30001Y0D02*
X1780000D01*
X1810000Y-1050001D02*
Y-30002D01*
X-0Y-1049999D02*
Y-30000D01*
X360000Y-1079999D02*
Y-855400D01*
X1450000D01*
Y-1080000D02*
Y-855400D01*
X30000Y-1079999D02*
X360000D01*
X1450001Y-1080001D02*
X1779998D01*
D56*
X1426499Y-450001D02*
D03*
D57*
X1035500Y-357500D02*
D03*
Y-362500D02*
D03*
Y-367500D02*
D03*
Y-372500D02*
D03*
Y-377500D02*
D03*
Y-382500D02*
D03*
Y-387500D02*
D03*
Y-392500D02*
D03*
Y-397500D02*
D03*
Y-402500D02*
D03*
Y-407500D02*
D03*
Y-412500D02*
D03*
Y-417500D02*
D03*
Y-422500D02*
D03*
Y-427500D02*
D03*
Y-432500D02*
D03*
Y-437500D02*
D03*
Y-442500D02*
D03*
Y-447500D02*
D03*
Y-452500D02*
D03*
Y-457500D02*
D03*
Y-462500D02*
D03*
Y-467500D02*
D03*
Y-472500D02*
D03*
Y-477500D02*
D03*
X1189500D02*
D03*
Y-472500D02*
D03*
Y-467500D02*
D03*
Y-462500D02*
D03*
Y-457500D02*
D03*
Y-452500D02*
D03*
Y-447500D02*
D03*
Y-442500D02*
D03*
Y-437500D02*
D03*
Y-432500D02*
D03*
Y-427500D02*
D03*
Y-422500D02*
D03*
Y-417500D02*
D03*
Y-412500D02*
D03*
Y-407500D02*
D03*
Y-402500D02*
D03*
Y-397500D02*
D03*
Y-392500D02*
D03*
Y-387500D02*
D03*
Y-382500D02*
D03*
Y-377500D02*
D03*
Y-372500D02*
D03*
Y-367500D02*
D03*
Y-362500D02*
D03*
Y-357500D02*
D03*
D58*
X1052500Y-494500D02*
D03*
X1057500D02*
D03*
X1062500D02*
D03*
X1067500D02*
D03*
X1072500D02*
D03*
X1077500D02*
D03*
X1082500D02*
D03*
X1087500D02*
D03*
X1092500D02*
D03*
X1097500D02*
D03*
X1102500D02*
D03*
X1107500D02*
D03*
X1112500D02*
D03*
X1117500D02*
D03*
X1122500D02*
D03*
X1127500D02*
D03*
X1132500D02*
D03*
X1137500D02*
D03*
X1142500D02*
D03*
X1147500D02*
D03*
X1152500D02*
D03*
X1157500D02*
D03*
X1162500D02*
D03*
X1167500D02*
D03*
X1172500D02*
D03*
Y-340500D02*
D03*
X1167500D02*
D03*
X1162500D02*
D03*
X1157500D02*
D03*
X1152500D02*
D03*
X1147500D02*
D03*
X1142500D02*
D03*
X1137500D02*
D03*
X1132500D02*
D03*
X1127500D02*
D03*
X1122500D02*
D03*
X1117500D02*
D03*
X1112500D02*
D03*
X1107500D02*
D03*
X1102500D02*
D03*
X1097500D02*
D03*
X1092500D02*
D03*
X1087500D02*
D03*
X1082500D02*
D03*
X1077500D02*
D03*
X1072500D02*
D03*
X1067500D02*
D03*
X1062500D02*
D03*
X1057500D02*
D03*
X1052500D02*
D03*
D59*
X1189500D02*
D03*
X1035500Y-494500D02*
D03*
D60*
X1024200Y-82500D02*
D03*
X1125800D02*
D03*
X1024200Y-117500D02*
D03*
X1125800D02*
D03*
X1460800D02*
D03*
X1359200D02*
D03*
X1460800Y-82500D02*
D03*
X1359200D02*
D03*
X290800Y-102500D02*
D03*
X189200D02*
D03*
X1720800Y-62500D02*
D03*
X1619200D02*
D03*
X1705800Y-610000D02*
D03*
X1604200D02*
D03*
Y-575000D02*
D03*
X1705800D02*
D03*
X1604200Y-540000D02*
D03*
X1705800D02*
D03*
X1604200Y-505000D02*
D03*
X1705800D02*
D03*
X1604200Y-470000D02*
D03*
X1705800D02*
D03*
X1604200Y-725000D02*
D03*
X1705800D02*
D03*
Y-760000D02*
D03*
X1604200D02*
D03*
X1550000Y-664600D02*
D03*
Y-690000D02*
D03*
Y-715400D02*
D03*
X1580800Y-1030000D02*
D03*
X1479200D02*
D03*
X1419600Y-760000D02*
D03*
X1445000D02*
D03*
X1470400D02*
D03*
X1330000Y-664200D02*
D03*
Y-765800D02*
D03*
X1295000D02*
D03*
Y-664200D02*
D03*
X1260000Y-765800D02*
D03*
Y-664200D02*
D03*
X1110000Y-765800D02*
D03*
Y-664200D02*
D03*
X1075000Y-765800D02*
D03*
Y-664200D02*
D03*
X1040000Y-765800D02*
D03*
Y-664200D02*
D03*
X1005000Y-765800D02*
D03*
Y-664200D02*
D03*
X970000D02*
D03*
Y-765800D02*
D03*
X935000Y-664200D02*
D03*
Y-765800D02*
D03*
X900000Y-664200D02*
D03*
Y-765800D02*
D03*
X835000Y-664200D02*
D03*
Y-765800D02*
D03*
X800000Y-664200D02*
D03*
Y-765800D02*
D03*
X1447299Y-375001D02*
D03*
X1345699D02*
D03*
X1426499Y-325801D02*
D03*
Y-224201D02*
D03*
X1391499Y-325801D02*
D03*
Y-224201D02*
D03*
X1292299Y-100001D02*
D03*
X1190699D02*
D03*
X1292299Y-190001D02*
D03*
X1190699D02*
D03*
X249200Y-445000D02*
D03*
X350800D02*
D03*
X249200Y-480000D02*
D03*
X350800D02*
D03*
X249200Y-515000D02*
D03*
X350800D02*
D03*
X249200Y-550000D02*
D03*
X350800D02*
D03*
X284200Y-665000D02*
D03*
X385800D02*
D03*
X284200Y-700000D02*
D03*
X385800D02*
D03*
X180000Y-1010800D02*
D03*
Y-909200D02*
D03*
X325000Y-194200D02*
D03*
Y-295800D02*
D03*
X290800Y-140000D02*
D03*
X189200D02*
D03*
X130000Y-302500D02*
D03*
X1406700Y-630000D02*
D03*
X1508300D02*
D03*
D61*
X450000Y-530000D02*
D03*
X1779999Y-1050001D02*
D03*
Y-30001D02*
D03*
X29999Y-1050001D02*
D03*
Y-30001D02*
D03*
D62*
X120000Y-227500D02*
D03*
Y-252900D02*
D03*
Y-202100D02*
D03*
X140000Y-982800D02*
D03*
Y-960000D02*
D03*
Y-937200D02*
D03*
D63*
X1346499Y-455401D02*
D03*
Y-404601D02*
D03*
X1747500Y-109600D02*
D03*
Y-160400D02*
D03*
X1631900Y-173100D02*
D03*
X1500000Y-715400D02*
D03*
Y-664600D02*
D03*
X1530000Y-771900D02*
D03*
Y-848100D02*
D03*
X1500000Y-771900D02*
D03*
Y-848100D02*
D03*
X1470400Y-805000D02*
D03*
X1419600D02*
D03*
X1380000Y-719600D02*
D03*
Y-770400D02*
D03*
X1466499Y-404601D02*
D03*
Y-455401D02*
D03*
X1386499Y-404601D02*
D03*
Y-455401D02*
D03*
X1346499Y-279601D02*
D03*
Y-330401D02*
D03*
X1090400Y-635000D02*
D03*
X1039600D02*
D03*
X1111099Y-635001D02*
D03*
X1161899D02*
D03*
X881499Y-332101D02*
D03*
Y-382901D02*
D03*
Y-419601D02*
D03*
Y-470401D02*
D03*
X1306899Y-60001D02*
D03*
X1256099D02*
D03*
X1176099D02*
D03*
X1226899D02*
D03*
X1106099Y-190001D02*
D03*
X1156899D02*
D03*
X1025400Y-190000D02*
D03*
X974600D02*
D03*
X774399Y-170001D02*
D03*
X723599D02*
D03*
X23500Y-100000D02*
D03*
Y-120000D02*
D03*
Y-140000D02*
D03*
X285000Y-780400D02*
D03*
Y-729600D02*
D03*
X199600Y-1035000D02*
D03*
X250400D02*
D03*
X308100Y-921900D02*
D03*
X257100Y-872500D02*
D03*
X307900D02*
D03*
X232900Y-872500D02*
D03*
X182100D02*
D03*
X210000Y-549600D02*
D03*
Y-600400D02*
D03*
X165000Y-549600D02*
D03*
Y-600400D02*
D03*
X159600Y-515000D02*
D03*
X210400D02*
D03*
X214600Y-315000D02*
D03*
X265400D02*
D03*
X214600Y-365000D02*
D03*
X265400D02*
D03*
X299600Y-390000D02*
D03*
X350400D02*
D03*
X299600Y-340000D02*
D03*
X350400D02*
D03*
X535400Y-125000D02*
D03*
X484600D02*
D03*
X394600D02*
D03*
X445400D02*
D03*
X325000Y-114600D02*
D03*
Y-165400D02*
D03*
X278100Y-268100D02*
D03*
X1421900Y-597500D02*
D03*
X1498100D02*
D03*
D64*
X1708100Y-96900D02*
D03*
X231900Y-998100D02*
D03*
D65*
X1682700Y-96900D02*
D03*
X1657300D02*
D03*
X1631900D02*
D03*
X1708100Y-173100D02*
D03*
X1682700D02*
D03*
X1657300D02*
D03*
X257300Y-998100D02*
D03*
X282700D02*
D03*
X308100D02*
D03*
X231900Y-921900D02*
D03*
X257300D02*
D03*
X282700D02*
D03*
X248100Y-775800D02*
D03*
Y-750400D02*
D03*
Y-725000D02*
D03*
Y-699600D02*
D03*
Y-674200D02*
D03*
Y-648800D02*
D03*
X171900Y-801200D02*
D03*
Y-775800D02*
D03*
Y-750400D02*
D03*
Y-725000D02*
D03*
Y-699600D02*
D03*
Y-674200D02*
D03*
Y-648800D02*
D03*
X468100Y-426200D02*
D03*
Y-400800D02*
D03*
Y-375400D02*
D03*
Y-350000D02*
D03*
Y-324600D02*
D03*
Y-299200D02*
D03*
Y-273800D02*
D03*
X391900Y-400800D02*
D03*
Y-375400D02*
D03*
Y-350000D02*
D03*
Y-324600D02*
D03*
Y-299200D02*
D03*
Y-273800D02*
D03*
Y-248400D02*
D03*
X468100D02*
D03*
X391900Y-426200D02*
D03*
Y-451600D02*
D03*
X201900Y-217300D02*
D03*
Y-242700D02*
D03*
Y-268100D02*
D03*
X278100Y-191900D02*
D03*
Y-217300D02*
D03*
Y-242700D02*
D03*
D66*
X1705000Y-915311D02*
D03*
X1500000D02*
D03*
D67*
X1419499Y-406501D02*
D03*
X1433499D02*
D03*
D68*
X1468799Y-249601D02*
D03*
Y-300401D02*
D03*
X1494199Y-249601D02*
D03*
Y-300401D02*
D03*
Y-275001D02*
D03*
X1468799D02*
D03*
X78000Y-613000D02*
D03*
Y-587000D02*
D03*
Y-634000D02*
D03*
Y-566000D02*
D03*
X103000Y-634000D02*
D03*
Y-566000D02*
D03*
X78000Y-793000D02*
D03*
Y-767000D02*
D03*
Y-814000D02*
D03*
Y-746000D02*
D03*
X103000Y-814000D02*
D03*
Y-746000D02*
D03*
X1540000Y-75200D02*
D03*
Y-49800D02*
D03*
X1565400D02*
D03*
X1514600D02*
D03*
X1565400Y-75200D02*
D03*
X1514600D02*
D03*
D69*
X1265899Y-145001D02*
D03*
X1217099D02*
D03*
X440600Y-185000D02*
D03*
X489400D02*
D03*
D70*
X627799Y-214501D02*
D03*
D71*
Y-239901D02*
D03*
Y-265301D02*
D03*
Y-290701D02*
D03*
Y-316101D02*
D03*
Y-341501D02*
D03*
Y-366901D02*
D03*
Y-392301D02*
D03*
Y-417701D02*
D03*
Y-443101D02*
D03*
Y-468501D02*
D03*
Y-493901D02*
D03*
Y-519301D02*
D03*
Y-544701D02*
D03*
Y-570101D02*
D03*
Y-595501D02*
D03*
X780199Y-214501D02*
D03*
Y-239901D02*
D03*
Y-265301D02*
D03*
Y-290701D02*
D03*
Y-316101D02*
D03*
Y-341501D02*
D03*
Y-366901D02*
D03*
Y-392301D02*
D03*
Y-417701D02*
D03*
Y-443101D02*
D03*
Y-468501D02*
D03*
Y-493901D02*
D03*
Y-519301D02*
D03*
Y-544701D02*
D03*
Y-570101D02*
D03*
Y-595501D02*
D03*
D72*
X23500Y-161000D02*
D03*
Y-79000D02*
D03*
D73*
X78000Y-976000D02*
D03*
X66000Y-968000D02*
D03*
X78000Y-960000D02*
D03*
X66000Y-952000D02*
D03*
X78000Y-944000D02*
D03*
D74*
X69000Y-996500D02*
D03*
Y-923500D02*
D03*
X22500Y-996500D02*
D03*
X22500Y-923500D02*
D03*
D75*
X40000Y-600000D02*
D03*
Y-780000D02*
D03*
D76*
X48000Y-667500D02*
D03*
Y-532500D02*
D03*
Y-847500D02*
D03*
Y-712500D02*
D03*
D77*
X248100Y-801200D02*
D03*
X468100Y-451600D02*
D03*
X201900Y-191900D02*
D03*
D78*
X45000Y-312300D02*
D03*
X1782999Y-298701D02*
D03*
D79*
X45000Y-337700D02*
D03*
X1349500Y-842700D02*
D03*
Y-817300D02*
D03*
X1247900Y-842700D02*
D03*
Y-817300D02*
D03*
X1273300Y-842700D02*
D03*
Y-817300D02*
D03*
X1298700Y-842700D02*
D03*
Y-817300D02*
D03*
X1324100Y-842700D02*
D03*
Y-817300D02*
D03*
X1222500Y-842700D02*
D03*
Y-817300D02*
D03*
X1095500Y-842700D02*
D03*
Y-817300D02*
D03*
X1120900Y-842700D02*
D03*
Y-817300D02*
D03*
X1146300Y-842700D02*
D03*
Y-817300D02*
D03*
X1171700Y-842700D02*
D03*
Y-817300D02*
D03*
X1197100Y-842700D02*
D03*
Y-817300D02*
D03*
X460500D02*
D03*
X485900Y-842700D02*
D03*
Y-817300D02*
D03*
X511300Y-842700D02*
D03*
Y-817300D02*
D03*
X536700Y-842700D02*
D03*
Y-817300D02*
D03*
X562100Y-842700D02*
D03*
Y-817300D02*
D03*
X587500Y-842700D02*
D03*
Y-817300D02*
D03*
X612900Y-842700D02*
D03*
Y-817300D02*
D03*
X638300Y-842700D02*
D03*
Y-817300D02*
D03*
X663700Y-842700D02*
D03*
Y-817300D02*
D03*
X689100Y-842700D02*
D03*
Y-817300D02*
D03*
X714500Y-842700D02*
D03*
Y-817300D02*
D03*
X739900Y-842700D02*
D03*
Y-817300D02*
D03*
X765300Y-842700D02*
D03*
Y-817300D02*
D03*
X790700Y-842700D02*
D03*
Y-817300D02*
D03*
X816100Y-842700D02*
D03*
Y-817300D02*
D03*
X841500Y-842700D02*
D03*
Y-817300D02*
D03*
X866900Y-842700D02*
D03*
Y-817300D02*
D03*
X892300Y-842700D02*
D03*
Y-817300D02*
D03*
X917700Y-842700D02*
D03*
Y-817300D02*
D03*
X943100Y-842700D02*
D03*
Y-817300D02*
D03*
X968500Y-842700D02*
D03*
Y-817300D02*
D03*
X993900Y-842700D02*
D03*
Y-817300D02*
D03*
X1019300Y-842700D02*
D03*
Y-817300D02*
D03*
X1044700Y-842700D02*
D03*
Y-817300D02*
D03*
X1070100Y-842700D02*
D03*
Y-817300D02*
D03*
X1290300Y-595300D02*
D03*
Y-569900D02*
D03*
Y-544500D02*
D03*
Y-519100D02*
D03*
Y-493700D02*
D03*
Y-468300D02*
D03*
Y-442900D02*
D03*
Y-417500D02*
D03*
Y-392100D02*
D03*
Y-366700D02*
D03*
Y-341300D02*
D03*
Y-315900D02*
D03*
Y-290500D02*
D03*
Y-265100D02*
D03*
Y-239700D02*
D03*
X1264900Y-595300D02*
D03*
Y-544500D02*
D03*
Y-519100D02*
D03*
Y-493700D02*
D03*
Y-468300D02*
D03*
Y-442900D02*
D03*
Y-417500D02*
D03*
Y-392100D02*
D03*
Y-366700D02*
D03*
Y-341300D02*
D03*
Y-315900D02*
D03*
Y-290500D02*
D03*
Y-239700D02*
D03*
X1239500Y-595300D02*
D03*
Y-569900D02*
D03*
Y-265100D02*
D03*
Y-239700D02*
D03*
X1214100Y-595300D02*
D03*
Y-569900D02*
D03*
Y-265100D02*
D03*
Y-239700D02*
D03*
X1188700Y-595300D02*
D03*
Y-569900D02*
D03*
Y-265100D02*
D03*
Y-239700D02*
D03*
X1163300Y-595300D02*
D03*
Y-569900D02*
D03*
Y-265100D02*
D03*
Y-239700D02*
D03*
X1137900Y-595300D02*
D03*
Y-569900D02*
D03*
Y-265100D02*
D03*
Y-239700D02*
D03*
X1112500Y-595300D02*
D03*
Y-569900D02*
D03*
Y-265100D02*
D03*
Y-239700D02*
D03*
X1087100Y-595300D02*
D03*
Y-569900D02*
D03*
Y-265100D02*
D03*
Y-239700D02*
D03*
X1061700Y-595300D02*
D03*
Y-569900D02*
D03*
Y-265100D02*
D03*
Y-239700D02*
D03*
X1036300Y-595300D02*
D03*
Y-569900D02*
D03*
Y-265100D02*
D03*
Y-239700D02*
D03*
X1010900Y-595300D02*
D03*
Y-569900D02*
D03*
Y-265100D02*
D03*
Y-239700D02*
D03*
X985500Y-595300D02*
D03*
Y-569900D02*
D03*
Y-265100D02*
D03*
Y-239700D02*
D03*
X960100Y-595300D02*
D03*
Y-544500D02*
D03*
Y-519100D02*
D03*
Y-493700D02*
D03*
Y-468300D02*
D03*
Y-442900D02*
D03*
Y-417500D02*
D03*
Y-392100D02*
D03*
Y-366700D02*
D03*
Y-341300D02*
D03*
Y-315900D02*
D03*
Y-290500D02*
D03*
Y-239700D02*
D03*
X934700Y-595300D02*
D03*
Y-569900D02*
D03*
Y-544500D02*
D03*
Y-519100D02*
D03*
Y-493700D02*
D03*
Y-468300D02*
D03*
Y-442900D02*
D03*
Y-417500D02*
D03*
Y-392100D02*
D03*
Y-366700D02*
D03*
Y-341300D02*
D03*
Y-315900D02*
D03*
Y-290500D02*
D03*
Y-265100D02*
D03*
Y-239700D02*
D03*
X960100Y-569900D02*
D03*
X1264900D02*
D03*
Y-265100D02*
D03*
X1757599Y-298701D02*
D03*
X1782999Y-324101D02*
D03*
X1757599D02*
D03*
X1782999Y-349501D02*
D03*
X1757599D02*
D03*
X1782999Y-374901D02*
D03*
X1757599Y-374901D02*
D03*
X1782999Y-400301D02*
D03*
X1757599D02*
D03*
X1782999Y-425701D02*
D03*
X1757599D02*
D03*
X1782999Y-451101D02*
D03*
X1757599D02*
D03*
X1782999Y-476501D02*
D03*
X1757599D02*
D03*
X1782999Y-501901D02*
D03*
X1757599Y-501901D02*
D03*
X1782999Y-527301D02*
D03*
X1757599D02*
D03*
X1782999Y-552701D02*
D03*
X1757599D02*
D03*
X1782999Y-578101D02*
D03*
X1757599D02*
D03*
X1782999Y-603501D02*
D03*
X1757599Y-603501D02*
D03*
X1782999Y-628901D02*
D03*
X1757599Y-628901D02*
D03*
X1782999Y-654301D02*
D03*
X1757599D02*
D03*
X1782999Y-679701D02*
D03*
X1757599D02*
D03*
X1782999Y-705101D02*
D03*
X1757599D02*
D03*
X1782999Y-730501D02*
D03*
X1757599D02*
D03*
X1782999Y-755901D02*
D03*
X1757599D02*
D03*
X1782999Y-781301D02*
D03*
X1757599D02*
D03*
D80*
X460500Y-842700D02*
D03*
X960100Y-265100D02*
D03*
D81*
X39000Y-429000D02*
D03*
X63000Y-409000D02*
D03*
X100000Y-429000D02*
D03*
X118000Y-409000D02*
D03*
X155000Y-429000D02*
D03*
D82*
X130000Y-337500D02*
D03*
M02*
