G04 Layer_Color=7597287*
%FSLAX44Y44*%
%MOMM*%
G71*
G01*
G75*
%ADD16C,0.3500*%
%ADD22R,1.2500X1.2750*%
%ADD30C,0.1500*%
G36*
X115743Y135304D02*
X115557Y134823D01*
X115372Y134378D01*
X115206Y133953D01*
X115058Y133564D01*
X114928Y133193D01*
X114817Y132842D01*
X114706Y132527D01*
X114613Y132249D01*
X114539Y131990D01*
X114465Y131786D01*
X114428Y131601D01*
X114391Y131453D01*
X114354Y131360D01*
X114335Y131286D01*
Y131268D01*
X114187Y130564D01*
X114076Y129879D01*
X113984Y129212D01*
X113947Y128897D01*
X113928Y128601D01*
X113910Y128323D01*
X113891Y128083D01*
Y127861D01*
X113872Y127675D01*
Y127527D01*
Y127416D01*
Y127342D01*
Y127324D01*
Y126953D01*
X113891Y126583D01*
X113910Y126250D01*
X113928Y125935D01*
X113965Y125694D01*
X113984Y125491D01*
Y125416D01*
X114002Y125361D01*
Y125342D01*
Y125324D01*
X114113Y124602D01*
X114187Y124250D01*
X114243Y123935D01*
X114298Y123657D01*
X114354Y123454D01*
X114373Y123380D01*
Y123324D01*
X114391Y123287D01*
Y123268D01*
X114484Y122880D01*
X114576Y122528D01*
X114669Y122194D01*
X114743Y121917D01*
X114817Y121694D01*
X114872Y121528D01*
X114909Y121417D01*
X114928Y121398D01*
Y121380D01*
X115058Y121046D01*
X115206Y120658D01*
X115372Y120250D01*
X115539Y119861D01*
X115706Y119510D01*
X115761Y119361D01*
X115835Y119232D01*
X115872Y119121D01*
X115909Y119047D01*
X115946Y118991D01*
Y118973D01*
X114243D01*
X113965Y119398D01*
X113724Y119824D01*
X113502Y120250D01*
X113280Y120658D01*
X113095Y121065D01*
X112910Y121435D01*
X112761Y121806D01*
X112613Y122139D01*
X112484Y122454D01*
X112391Y122732D01*
X112299Y122972D01*
X112225Y123194D01*
X112169Y123361D01*
X112132Y123472D01*
X112095Y123565D01*
Y123583D01*
X111910Y124361D01*
X111762Y125083D01*
X111706Y125416D01*
X111669Y125750D01*
X111614Y126046D01*
X111595Y126324D01*
X111576Y126583D01*
X111558Y126824D01*
X111539Y127027D01*
X111521Y127194D01*
Y127324D01*
Y127435D01*
Y127490D01*
Y127509D01*
X111558Y128323D01*
X111632Y129083D01*
X111688Y129453D01*
X111762Y129823D01*
X111817Y130157D01*
X111891Y130453D01*
X111965Y130749D01*
X112021Y131008D01*
X112095Y131231D01*
X112150Y131416D01*
X112188Y131582D01*
X112225Y131693D01*
X112262Y131768D01*
Y131786D01*
X112558Y132564D01*
X112891Y133305D01*
X113058Y133656D01*
X113224Y133971D01*
X113391Y134286D01*
X113558Y134582D01*
X113706Y134841D01*
X113835Y135082D01*
X113965Y135286D01*
X114076Y135452D01*
X114169Y135601D01*
X114243Y135693D01*
X114280Y135767D01*
X114298Y135786D01*
X115965D01*
X115743Y135304D01*
D02*
G37*
G36*
X74893Y105166D02*
X79318Y98500D01*
X76207D01*
X73356Y102833D01*
X70523Y98500D01*
X67412D01*
X71819Y105166D01*
X67801Y111313D01*
X70819D01*
X73356Y107481D01*
X75892Y111313D01*
X78911D01*
X74893Y105166D01*
D02*
G37*
G36*
X94576Y111369D02*
X94872Y111350D01*
X95446Y111258D01*
X95927Y111110D01*
X96150Y111036D01*
X96353Y110943D01*
X96538Y110869D01*
X96687Y110777D01*
X96835Y110702D01*
X96946Y110647D01*
X97038Y110573D01*
X97094Y110536D01*
X97131Y110517D01*
X97149Y110499D01*
X97353Y110314D01*
X97538Y110128D01*
X97705Y109906D01*
X97853Y109665D01*
X98075Y109184D01*
X98260Y108721D01*
X98316Y108481D01*
X98372Y108277D01*
X98427Y108092D01*
X98446Y107925D01*
X98483Y107777D01*
Y107684D01*
X98501Y107610D01*
Y107592D01*
X96057Y107351D01*
X96020Y107721D01*
X95946Y108036D01*
X95872Y108314D01*
X95779Y108518D01*
X95705Y108684D01*
X95631Y108795D01*
X95576Y108869D01*
X95557Y108888D01*
X95372Y109036D01*
X95168Y109147D01*
X94965Y109240D01*
X94761Y109295D01*
X94594Y109332D01*
X94446Y109351D01*
X94316D01*
X94039Y109332D01*
X93798Y109277D01*
X93594Y109203D01*
X93409Y109129D01*
X93279Y109054D01*
X93168Y108980D01*
X93113Y108925D01*
X93094Y108906D01*
X92946Y108721D01*
X92835Y108518D01*
X92761Y108314D01*
X92705Y108110D01*
X92669Y107925D01*
X92650Y107758D01*
Y107666D01*
Y107647D01*
Y107629D01*
X92669Y107351D01*
X92724Y107092D01*
X92817Y106833D01*
X92909Y106610D01*
X93002Y106407D01*
X93094Y106258D01*
X93150Y106166D01*
X93168Y106129D01*
X93243Y106018D01*
X93354Y105888D01*
X93502Y105722D01*
X93650Y105573D01*
X93983Y105222D01*
X94316Y104870D01*
X94650Y104536D01*
X94798Y104388D01*
X94946Y104277D01*
X95057Y104166D01*
X95131Y104092D01*
X95187Y104037D01*
X95205Y104018D01*
X95576Y103666D01*
X95909Y103333D01*
X96224Y103018D01*
X96501Y102740D01*
X96761Y102463D01*
X96983Y102203D01*
X97186Y101981D01*
X97353Y101759D01*
X97501Y101574D01*
X97631Y101407D01*
X97742Y101278D01*
X97816Y101148D01*
X97890Y101074D01*
X97927Y101000D01*
X97964Y100963D01*
Y100944D01*
X98205Y100518D01*
X98390Y100074D01*
X98538Y99667D01*
X98649Y99296D01*
X98723Y98963D01*
X98742Y98833D01*
X98760Y98722D01*
X98779Y98630D01*
X98798Y98556D01*
Y98518D01*
Y98500D01*
X90187D01*
Y100778D01*
X95076D01*
X94928Y101018D01*
X94761Y101222D01*
X94687Y101314D01*
X94631Y101389D01*
X94594Y101426D01*
X94576Y101444D01*
X94502Y101518D01*
X94427Y101611D01*
X94205Y101814D01*
X93965Y102055D01*
X93724Y102296D01*
X93483Y102518D01*
X93279Y102703D01*
X93205Y102777D01*
X93150Y102833D01*
X93113Y102851D01*
X93094Y102870D01*
X92687Y103259D01*
X92354Y103574D01*
X92076Y103870D01*
X91854Y104092D01*
X91687Y104277D01*
X91576Y104407D01*
X91502Y104499D01*
X91483Y104518D01*
X91243Y104833D01*
X91039Y105129D01*
X90872Y105407D01*
X90743Y105647D01*
X90632Y105851D01*
X90558Y106018D01*
X90520Y106110D01*
X90502Y106147D01*
X90391Y106444D01*
X90317Y106740D01*
X90261Y107018D01*
X90224Y107277D01*
X90206Y107481D01*
X90187Y107647D01*
Y107758D01*
Y107795D01*
X90206Y108073D01*
X90243Y108351D01*
X90280Y108610D01*
X90354Y108851D01*
X90539Y109277D01*
X90724Y109647D01*
X90835Y109814D01*
X90928Y109943D01*
X91020Y110073D01*
X91113Y110166D01*
X91187Y110239D01*
X91224Y110314D01*
X91261Y110332D01*
X91280Y110351D01*
X91483Y110536D01*
X91724Y110702D01*
X91946Y110832D01*
X92206Y110943D01*
X92687Y111128D01*
X93168Y111258D01*
X93391Y111295D01*
X93594Y111332D01*
X93779Y111350D01*
X93946Y111369D01*
X94076Y111388D01*
X94261D01*
X94576Y111369D01*
D02*
G37*
G36*
X9457Y135619D02*
X9772Y135582D01*
X10087Y135508D01*
X10365Y135434D01*
X10624Y135323D01*
X10865Y135212D01*
X11068Y135101D01*
X11272Y134971D01*
X11439Y134841D01*
X11605Y134730D01*
X11735Y134619D01*
X11827Y134508D01*
X11920Y134434D01*
X11976Y134360D01*
X12013Y134323D01*
X12031Y134304D01*
X12253Y133990D01*
X12439Y133619D01*
X12605Y133230D01*
X12753Y132823D01*
X12865Y132397D01*
X12976Y131953D01*
X13050Y131527D01*
X13124Y131101D01*
X13161Y130694D01*
X13198Y130323D01*
X13235Y129972D01*
X13253Y129675D01*
X13272Y129434D01*
Y129249D01*
Y129175D01*
Y129120D01*
Y129101D01*
Y129083D01*
X13253Y128416D01*
X13216Y127805D01*
X13161Y127231D01*
X13087Y126713D01*
X13013Y126250D01*
X12920Y125824D01*
X12809Y125453D01*
X12698Y125120D01*
X12605Y124842D01*
X12494Y124583D01*
X12401Y124380D01*
X12309Y124213D01*
X12253Y124102D01*
X12198Y124009D01*
X12161Y123954D01*
X12142Y123935D01*
X11920Y123676D01*
X11679Y123472D01*
X11439Y123268D01*
X11179Y123120D01*
X10939Y122972D01*
X10680Y122861D01*
X10439Y122768D01*
X10198Y122694D01*
X9976Y122620D01*
X9772Y122583D01*
X9587Y122546D01*
X9439Y122528D01*
X9309D01*
X9198Y122509D01*
X9124D01*
X8791Y122528D01*
X8476Y122565D01*
X8161Y122639D01*
X7883Y122713D01*
X7624Y122806D01*
X7384Y122917D01*
X7180Y123046D01*
X6976Y123176D01*
X6809Y123287D01*
X6643Y123417D01*
X6513Y123528D01*
X6402Y123620D01*
X6328Y123694D01*
X6273Y123768D01*
X6235Y123805D01*
X6217Y123824D01*
X5995Y124139D01*
X5810Y124509D01*
X5624Y124898D01*
X5495Y125324D01*
X5365Y125750D01*
X5273Y126176D01*
X5180Y126620D01*
X5106Y127046D01*
X5069Y127453D01*
X5032Y127823D01*
X4995Y128175D01*
X4976Y128472D01*
X4958Y128712D01*
Y128897D01*
Y128972D01*
Y129027D01*
Y129046D01*
Y129064D01*
X4976Y129731D01*
X5013Y130342D01*
X5069Y130897D01*
X5162Y131416D01*
X5254Y131897D01*
X5347Y132323D01*
X5476Y132712D01*
X5587Y133045D01*
X5699Y133360D01*
X5810Y133601D01*
X5921Y133823D01*
X6013Y134008D01*
X6106Y134138D01*
X6162Y134230D01*
X6198Y134286D01*
X6217Y134304D01*
X6421Y134545D01*
X6643Y134749D01*
X6884Y134915D01*
X7124Y135082D01*
X7365Y135212D01*
X7606Y135304D01*
X7828Y135397D01*
X8069Y135471D01*
X8291Y135526D01*
X8476Y135563D01*
X8661Y135601D01*
X8809Y135619D01*
X8939Y135638D01*
X9124D01*
X9457Y135619D01*
D02*
G37*
G36*
X52657Y122750D02*
X51453D01*
X51472Y122491D01*
X51509Y122269D01*
X51564Y122065D01*
X51638Y121898D01*
X51694Y121769D01*
X51749Y121676D01*
X51786Y121621D01*
X51805Y121602D01*
X51934Y121454D01*
X52101Y121324D01*
X52268Y121195D01*
X52453Y121102D01*
X52601Y121028D01*
X52731Y120972D01*
X52823Y120935D01*
X52860Y120917D01*
X52379Y119898D01*
X52101Y120009D01*
X51842Y120139D01*
X51620Y120269D01*
X51434Y120398D01*
X51286Y120510D01*
X51175Y120602D01*
X51101Y120658D01*
X51083Y120676D01*
X50898Y120861D01*
X50749Y121046D01*
X50638Y121232D01*
X50527Y121417D01*
X50472Y121565D01*
X50416Y121676D01*
X50379Y121769D01*
Y121787D01*
X50324Y122028D01*
X50268Y122306D01*
X50231Y122583D01*
X50212Y122843D01*
X50194Y123083D01*
Y123287D01*
Y123361D01*
Y123417D01*
Y123435D01*
Y123454D01*
Y125213D01*
X52657D01*
Y122750D01*
D02*
G37*
G36*
X132148Y135156D02*
X132537Y134508D01*
X132852Y133897D01*
X133000Y133619D01*
X133130Y133342D01*
X133241Y133101D01*
X133352Y132860D01*
X133445Y132656D01*
X133519Y132490D01*
X133574Y132342D01*
X133611Y132249D01*
X133648Y132175D01*
Y132156D01*
X133796Y131730D01*
X133926Y131305D01*
X134148Y130471D01*
X134296Y129657D01*
X134352Y129286D01*
X134389Y128934D01*
X134426Y128601D01*
X134463Y128305D01*
X134481Y128027D01*
Y127805D01*
X134500Y127620D01*
Y127490D01*
Y127416D01*
Y127379D01*
X134463Y126620D01*
X134389Y125861D01*
X134278Y125157D01*
X134222Y124824D01*
X134148Y124509D01*
X134093Y124231D01*
X134037Y123972D01*
X133982Y123750D01*
X133926Y123546D01*
X133870Y123398D01*
X133852Y123268D01*
X133815Y123194D01*
Y123176D01*
X133519Y122380D01*
X133204Y121602D01*
X133019Y121250D01*
X132852Y120898D01*
X132685Y120565D01*
X132519Y120269D01*
X132371Y119991D01*
X132222Y119732D01*
X132093Y119510D01*
X131982Y119324D01*
X131889Y119176D01*
X131815Y119065D01*
X131778Y118991D01*
X131760Y118973D01*
X130075D01*
X130223Y119287D01*
X130352Y119565D01*
X130463Y119843D01*
X130575Y120084D01*
X130667Y120324D01*
X130760Y120528D01*
X130834Y120713D01*
X130908Y120898D01*
X130982Y121046D01*
X131019Y121176D01*
X131074Y121287D01*
X131111Y121380D01*
X131130Y121454D01*
X131149Y121509D01*
X131167Y121528D01*
Y121546D01*
X131334Y122046D01*
X131482Y122546D01*
X131593Y123028D01*
X131704Y123472D01*
X131741Y123657D01*
X131778Y123842D01*
X131815Y123991D01*
X131834Y124120D01*
X131871Y124231D01*
Y124305D01*
X131889Y124361D01*
Y124380D01*
X131982Y124935D01*
X132037Y125472D01*
X132093Y125972D01*
X132111Y126416D01*
X132130Y126620D01*
Y126787D01*
X132148Y126953D01*
Y127083D01*
Y127176D01*
Y127268D01*
Y127305D01*
Y127324D01*
X132130Y128101D01*
X132074Y128823D01*
X132037Y129175D01*
X132000Y129490D01*
X131963Y129805D01*
X131926Y130083D01*
X131889Y130342D01*
X131852Y130564D01*
X131815Y130768D01*
X131778Y130953D01*
X131741Y131082D01*
X131722Y131194D01*
X131704Y131249D01*
Y131268D01*
X131611Y131619D01*
X131500Y131990D01*
X131260Y132749D01*
X130982Y133508D01*
X130852Y133878D01*
X130704Y134230D01*
X130575Y134545D01*
X130463Y134841D01*
X130352Y135119D01*
X130241Y135341D01*
X130167Y135526D01*
X130112Y135675D01*
X130075Y135749D01*
X130056Y135786D01*
X131741D01*
X132148Y135156D01*
D02*
G37*
G36*
X48155Y98500D02*
X45562D01*
Y103333D01*
X43266D01*
X42988Y103351D01*
X42729D01*
X42488Y103370D01*
X42266Y103388D01*
X42063Y103407D01*
X41896Y103425D01*
X41729D01*
X41600Y103444D01*
X41470Y103462D01*
X41378Y103481D01*
X41303D01*
X41248Y103499D01*
X41211D01*
X40952Y103574D01*
X40711Y103666D01*
X40489Y103759D01*
X40285Y103870D01*
X40118Y103962D01*
X39989Y104037D01*
X39915Y104092D01*
X39878Y104110D01*
X39637Y104296D01*
X39433Y104499D01*
X39230Y104722D01*
X39081Y104907D01*
X38952Y105092D01*
X38859Y105240D01*
X38804Y105333D01*
X38785Y105370D01*
X38637Y105684D01*
X38526Y106018D01*
X38452Y106370D01*
X38396Y106684D01*
X38359Y106944D01*
Y107073D01*
X38341Y107166D01*
Y107258D01*
Y107314D01*
Y107351D01*
Y107369D01*
X38378Y107906D01*
X38452Y108406D01*
X38582Y108814D01*
X38711Y109184D01*
X38785Y109332D01*
X38859Y109462D01*
X38915Y109573D01*
X38989Y109684D01*
X39026Y109758D01*
X39063Y109814D01*
X39100Y109832D01*
Y109851D01*
X39396Y110184D01*
X39692Y110462D01*
X40007Y110684D01*
X40285Y110851D01*
X40544Y110962D01*
X40748Y111054D01*
X40822Y111073D01*
X40877Y111091D01*
X40915Y111110D01*
X40933D01*
X41081Y111147D01*
X41266Y111184D01*
X41489Y111202D01*
X41711Y111221D01*
X42229Y111258D01*
X42748Y111295D01*
X43229D01*
X43433Y111313D01*
X48155D01*
Y98500D01*
D02*
G37*
G36*
X84706Y111369D02*
X85021Y111332D01*
X85336Y111258D01*
X85614Y111184D01*
X85873Y111073D01*
X86114Y110962D01*
X86317Y110851D01*
X86521Y110721D01*
X86688Y110591D01*
X86854Y110480D01*
X86984Y110369D01*
X87077Y110258D01*
X87169Y110184D01*
X87225Y110110D01*
X87262Y110073D01*
X87280Y110054D01*
X87502Y109740D01*
X87688Y109369D01*
X87854Y108980D01*
X88002Y108573D01*
X88113Y108147D01*
X88224Y107703D01*
X88299Y107277D01*
X88373Y106851D01*
X88410Y106444D01*
X88447Y106073D01*
X88484Y105722D01*
X88502Y105425D01*
X88521Y105184D01*
Y104999D01*
Y104925D01*
Y104870D01*
Y104851D01*
Y104833D01*
X88502Y104166D01*
X88465Y103555D01*
X88410Y102981D01*
X88336Y102463D01*
X88261Y102000D01*
X88169Y101574D01*
X88058Y101203D01*
X87947Y100870D01*
X87854Y100592D01*
X87743Y100333D01*
X87650Y100129D01*
X87558Y99963D01*
X87502Y99852D01*
X87447Y99759D01*
X87410Y99704D01*
X87391Y99685D01*
X87169Y99426D01*
X86928Y99222D01*
X86688Y99018D01*
X86428Y98870D01*
X86188Y98722D01*
X85928Y98611D01*
X85688Y98518D01*
X85447Y98444D01*
X85225Y98370D01*
X85021Y98333D01*
X84836Y98296D01*
X84688Y98278D01*
X84558D01*
X84447Y98259D01*
X84373D01*
X84040Y98278D01*
X83725Y98315D01*
X83410Y98389D01*
X83132Y98463D01*
X82873Y98556D01*
X82633Y98667D01*
X82429Y98796D01*
X82225Y98926D01*
X82058Y99037D01*
X81892Y99167D01*
X81762Y99278D01*
X81651Y99370D01*
X81577Y99444D01*
X81522Y99518D01*
X81484Y99556D01*
X81466Y99574D01*
X81244Y99889D01*
X81059Y100259D01*
X80873Y100648D01*
X80744Y101074D01*
X80614Y101500D01*
X80522Y101926D01*
X80429Y102370D01*
X80355Y102796D01*
X80318Y103203D01*
X80281Y103574D01*
X80244Y103925D01*
X80225Y104222D01*
X80207Y104462D01*
Y104648D01*
Y104722D01*
Y104777D01*
Y104796D01*
Y104814D01*
X80225Y105481D01*
X80262Y106092D01*
X80318Y106647D01*
X80410Y107166D01*
X80503Y107647D01*
X80596Y108073D01*
X80725Y108462D01*
X80836Y108795D01*
X80948Y109110D01*
X81059Y109351D01*
X81170Y109573D01*
X81262Y109758D01*
X81355Y109888D01*
X81410Y109980D01*
X81447Y110036D01*
X81466Y110054D01*
X81670Y110295D01*
X81892Y110499D01*
X82133Y110665D01*
X82373Y110832D01*
X82614Y110962D01*
X82855Y111054D01*
X83077Y111147D01*
X83318Y111221D01*
X83540Y111277D01*
X83725Y111313D01*
X83910Y111350D01*
X84058Y111369D01*
X84188Y111388D01*
X84373D01*
X84706Y111369D01*
D02*
G37*
G36*
X116000Y-16741D02*
X-113701D01*
Y16554D01*
X116000D01*
Y-16741D01*
D02*
G37*
G36*
X56043Y111536D02*
X56524Y111480D01*
X56950Y111388D01*
X57376Y111277D01*
X57746Y111147D01*
X58116Y110999D01*
X58431Y110832D01*
X58727Y110665D01*
X59005Y110499D01*
X59227Y110332D01*
X59431Y110184D01*
X59598Y110054D01*
X59727Y109943D01*
X59820Y109851D01*
X59876Y109795D01*
X59894Y109777D01*
X60190Y109425D01*
X60431Y109054D01*
X60653Y108666D01*
X60838Y108258D01*
X61005Y107832D01*
X61135Y107425D01*
X61246Y107018D01*
X61338Y106629D01*
X61413Y106240D01*
X61449Y105907D01*
X61487Y105592D01*
X61523Y105333D01*
Y105110D01*
X61542Y104944D01*
Y104833D01*
Y104814D01*
Y104796D01*
X61523Y104240D01*
X61468Y103722D01*
X61394Y103222D01*
X61283Y102777D01*
X61172Y102352D01*
X61024Y101944D01*
X60876Y101592D01*
X60727Y101278D01*
X60579Y100981D01*
X60431Y100722D01*
X60283Y100518D01*
X60172Y100333D01*
X60061Y100204D01*
X59987Y100092D01*
X59931Y100037D01*
X59913Y100018D01*
X59598Y99704D01*
X59264Y99444D01*
X58913Y99204D01*
X58561Y99018D01*
X58209Y98852D01*
X57857Y98704D01*
X57524Y98593D01*
X57209Y98500D01*
X56894Y98426D01*
X56617Y98370D01*
X56357Y98333D01*
X56154Y98315D01*
X55969Y98296D01*
X55839Y98278D01*
X55728D01*
X55339Y98296D01*
X54987Y98315D01*
X54635Y98370D01*
X54321Y98444D01*
X54024Y98518D01*
X53747Y98593D01*
X53487Y98685D01*
X53247Y98796D01*
X53043Y98889D01*
X52858Y98981D01*
X52691Y99056D01*
X52561Y99130D01*
X52450Y99204D01*
X52376Y99259D01*
X52339Y99278D01*
X52321Y99296D01*
X52080Y99500D01*
X51858Y99722D01*
X51451Y100222D01*
X51117Y100740D01*
X50858Y101241D01*
X50747Y101481D01*
X50654Y101703D01*
X50580Y101907D01*
X50506Y102074D01*
X50451Y102222D01*
X50414Y102333D01*
X50395Y102407D01*
Y102425D01*
X52913Y103203D01*
X53061Y102703D01*
X53228Y102277D01*
X53395Y101926D01*
X53580Y101629D01*
X53728Y101407D01*
X53858Y101259D01*
X53950Y101166D01*
X53987Y101129D01*
X54284Y100907D01*
X54580Y100759D01*
X54876Y100648D01*
X55135Y100555D01*
X55376Y100518D01*
X55580Y100500D01*
X55654Y100481D01*
X55746D01*
X56006Y100500D01*
X56246Y100518D01*
X56691Y100648D01*
X57080Y100796D01*
X57394Y101000D01*
X57654Y101185D01*
X57839Y101333D01*
X57913Y101407D01*
X57968Y101463D01*
X57987Y101481D01*
X58005Y101500D01*
X58154Y101703D01*
X58283Y101944D01*
X58413Y102203D01*
X58505Y102481D01*
X58653Y103055D01*
X58765Y103629D01*
X58802Y103907D01*
X58820Y104148D01*
X58857Y104388D01*
Y104592D01*
X58876Y104740D01*
Y104870D01*
Y104962D01*
Y104981D01*
X58857Y105407D01*
X58839Y105795D01*
X58802Y106147D01*
X58746Y106481D01*
X58672Y106777D01*
X58598Y107055D01*
X58524Y107295D01*
X58431Y107518D01*
X58357Y107703D01*
X58283Y107869D01*
X58209Y107999D01*
X58135Y108110D01*
X58080Y108203D01*
X58042Y108258D01*
X58005Y108295D01*
Y108314D01*
X57839Y108499D01*
X57654Y108666D01*
X57468Y108795D01*
X57265Y108906D01*
X56876Y109092D01*
X56506Y109221D01*
X56191Y109295D01*
X56043Y109314D01*
X55932Y109332D01*
X55820Y109351D01*
X55691D01*
X55321Y109332D01*
X54987Y109258D01*
X54691Y109166D01*
X54432Y109054D01*
X54228Y108943D01*
X54080Y108851D01*
X53987Y108777D01*
X53950Y108758D01*
X53710Y108536D01*
X53487Y108277D01*
X53321Y108018D01*
X53191Y107758D01*
X53099Y107536D01*
X53043Y107369D01*
X53006Y107295D01*
Y107240D01*
X52987Y107221D01*
Y107203D01*
X50432Y107814D01*
X50617Y108351D01*
X50821Y108814D01*
X51043Y109221D01*
X51247Y109554D01*
X51451Y109814D01*
X51525Y109925D01*
X51599Y110017D01*
X51654Y110073D01*
X51710Y110128D01*
X51728Y110166D01*
X51747D01*
X52024Y110406D01*
X52339Y110628D01*
X52636Y110814D01*
X52950Y110962D01*
X53284Y111110D01*
X53598Y111221D01*
X53913Y111313D01*
X54209Y111388D01*
X54487Y111443D01*
X54746Y111480D01*
X54969Y111517D01*
X55172Y111536D01*
X55339Y111554D01*
X55561D01*
X56043Y111536D01*
D02*
G37*
G36*
X36248Y104462D02*
Y104073D01*
X36230Y103703D01*
Y103351D01*
X36211Y103037D01*
X36193Y102740D01*
X36174Y102481D01*
X36156Y102240D01*
X36119Y102018D01*
X36100Y101833D01*
X36082Y101666D01*
X36063Y101518D01*
X36045Y101407D01*
X36026Y101314D01*
Y101259D01*
X36008Y101222D01*
Y101203D01*
X35915Y100926D01*
X35823Y100666D01*
X35693Y100426D01*
X35582Y100222D01*
X35471Y100037D01*
X35378Y99889D01*
X35304Y99815D01*
X35285Y99778D01*
X35063Y99537D01*
X34823Y99315D01*
X34563Y99130D01*
X34323Y98963D01*
X34119Y98833D01*
X33934Y98741D01*
X33823Y98685D01*
X33804Y98667D01*
X33786D01*
X33600Y98593D01*
X33397Y98537D01*
X32934Y98426D01*
X32471Y98352D01*
X32027Y98315D01*
X31823Y98296D01*
X31619Y98278D01*
X31453D01*
X31286Y98259D01*
X30990D01*
X30453Y98278D01*
X29971Y98315D01*
X29545Y98389D01*
X29194Y98463D01*
X29045Y98482D01*
X28897Y98518D01*
X28786Y98556D01*
X28694Y98593D01*
X28620Y98611D01*
X28564Y98630D01*
X28545Y98648D01*
X28527D01*
X28194Y98796D01*
X27897Y98981D01*
X27638Y99148D01*
X27416Y99315D01*
X27249Y99463D01*
X27120Y99574D01*
X27046Y99648D01*
X27027Y99685D01*
X26823Y99944D01*
X26657Y100222D01*
X26527Y100481D01*
X26416Y100740D01*
X26342Y100963D01*
X26286Y101148D01*
X26268Y101203D01*
Y101259D01*
X26249Y101278D01*
Y101296D01*
X26212Y101500D01*
X26175Y101722D01*
X26138Y101963D01*
X26120Y102203D01*
X26083Y102759D01*
X26046Y103296D01*
Y103537D01*
Y103777D01*
X26027Y103999D01*
Y104185D01*
Y104333D01*
Y104462D01*
Y104536D01*
Y104555D01*
Y111313D01*
X28620D01*
Y104203D01*
Y103925D01*
Y103666D01*
X28638Y103425D01*
Y103203D01*
X28657Y103018D01*
Y102833D01*
X28675Y102666D01*
Y102518D01*
X28712Y102296D01*
X28731Y102129D01*
X28749Y102037D01*
Y102000D01*
X28805Y101759D01*
X28897Y101555D01*
X29008Y101370D01*
X29120Y101203D01*
X29231Y101074D01*
X29323Y100981D01*
X29397Y100926D01*
X29416Y100907D01*
X29638Y100759D01*
X29916Y100648D01*
X30175Y100574D01*
X30453Y100518D01*
X30693Y100481D01*
X30879Y100463D01*
X31064D01*
X31453Y100481D01*
X31786Y100537D01*
X32082Y100611D01*
X32341Y100703D01*
X32527Y100778D01*
X32675Y100852D01*
X32749Y100907D01*
X32786Y100926D01*
X32989Y101111D01*
X33156Y101333D01*
X33304Y101537D01*
X33397Y101740D01*
X33471Y101926D01*
X33526Y102074D01*
X33563Y102166D01*
Y102203D01*
X33582Y102314D01*
X33600Y102425D01*
Y102574D01*
X33619Y102740D01*
X33638Y103092D01*
Y103462D01*
X33656Y103796D01*
Y103944D01*
Y104092D01*
Y104203D01*
Y104277D01*
Y104333D01*
Y104351D01*
Y111313D01*
X36248D01*
Y104462D01*
D02*
G37*
G36*
X109222Y109147D02*
X103241D01*
X110000Y100833D01*
Y98500D01*
X99575D01*
Y100666D01*
X106871D01*
X99853Y109295D01*
Y111313D01*
X109222D01*
Y109147D01*
D02*
G37*
G36*
X29381Y135619D02*
X29696Y135582D01*
X30011Y135508D01*
X30289Y135434D01*
X30548Y135323D01*
X30789Y135212D01*
X30992Y135101D01*
X31196Y134971D01*
X31363Y134841D01*
X31529Y134730D01*
X31659Y134619D01*
X31751Y134508D01*
X31844Y134434D01*
X31899Y134360D01*
X31937Y134323D01*
X31955Y134304D01*
X32177Y133990D01*
X32362Y133619D01*
X32529Y133230D01*
X32677Y132823D01*
X32788Y132397D01*
X32899Y131953D01*
X32973Y131527D01*
X33048Y131101D01*
X33085Y130694D01*
X33122Y130323D01*
X33159Y129972D01*
X33177Y129675D01*
X33196Y129434D01*
Y129249D01*
Y129175D01*
Y129120D01*
Y129101D01*
Y129083D01*
X33177Y128416D01*
X33140Y127805D01*
X33085Y127231D01*
X33010Y126713D01*
X32936Y126250D01*
X32844Y125824D01*
X32733Y125453D01*
X32622Y125120D01*
X32529Y124842D01*
X32418Y124583D01*
X32325Y124380D01*
X32233Y124213D01*
X32177Y124102D01*
X32122Y124009D01*
X32085Y123954D01*
X32066Y123935D01*
X31844Y123676D01*
X31603Y123472D01*
X31363Y123268D01*
X31103Y123120D01*
X30863Y122972D01*
X30603Y122861D01*
X30363Y122768D01*
X30122Y122694D01*
X29900Y122620D01*
X29696Y122583D01*
X29511Y122546D01*
X29363Y122528D01*
X29233D01*
X29122Y122509D01*
X29048D01*
X28715Y122528D01*
X28400Y122565D01*
X28085Y122639D01*
X27807Y122713D01*
X27548Y122806D01*
X27307Y122917D01*
X27104Y123046D01*
X26900Y123176D01*
X26733Y123287D01*
X26567Y123417D01*
X26437Y123528D01*
X26326Y123620D01*
X26252Y123694D01*
X26196Y123768D01*
X26159Y123805D01*
X26141Y123824D01*
X25919Y124139D01*
X25733Y124509D01*
X25548Y124898D01*
X25419Y125324D01*
X25289Y125750D01*
X25196Y126176D01*
X25104Y126620D01*
X25030Y127046D01*
X24993Y127453D01*
X24956Y127823D01*
X24919Y128175D01*
X24900Y128472D01*
X24882Y128712D01*
Y128897D01*
Y128972D01*
Y129027D01*
Y129046D01*
Y129064D01*
X24900Y129731D01*
X24937Y130342D01*
X24993Y130897D01*
X25085Y131416D01*
X25178Y131897D01*
X25271Y132323D01*
X25400Y132712D01*
X25511Y133045D01*
X25622Y133360D01*
X25733Y133601D01*
X25845Y133823D01*
X25937Y134008D01*
X26030Y134138D01*
X26085Y134230D01*
X26122Y134286D01*
X26141Y134304D01*
X26344Y134545D01*
X26567Y134749D01*
X26807Y134915D01*
X27048Y135082D01*
X27289Y135212D01*
X27530Y135304D01*
X27752Y135397D01*
X27992Y135471D01*
X28215Y135526D01*
X28400Y135563D01*
X28585Y135601D01*
X28733Y135619D01*
X28863Y135638D01*
X29048D01*
X29381Y135619D01*
D02*
G37*
G36*
X72951Y122750D02*
X70729D01*
X67044Y132045D01*
X69562D01*
X71340Y127287D01*
X71451Y127009D01*
X71525Y126750D01*
X71562Y126657D01*
X71581Y126583D01*
X71599Y126527D01*
Y126509D01*
X71618Y126416D01*
X71655Y126305D01*
X71747Y126027D01*
X71784Y125916D01*
X71821Y125805D01*
X71840Y125731D01*
X71858Y125713D01*
X72358Y127287D01*
X74117Y132045D01*
X76691D01*
X72951Y122750D01*
D02*
G37*
G36*
X123131Y135786D02*
X123612Y135730D01*
X124038Y135638D01*
X124464Y135526D01*
X124834Y135397D01*
X125205Y135249D01*
X125520Y135082D01*
X125816Y134915D01*
X126094Y134749D01*
X126316Y134582D01*
X126519Y134434D01*
X126686Y134304D01*
X126816Y134193D01*
X126908Y134101D01*
X126964Y134045D01*
X126982Y134027D01*
X127278Y133675D01*
X127519Y133305D01*
X127741Y132916D01*
X127927Y132508D01*
X128093Y132082D01*
X128223Y131675D01*
X128334Y131268D01*
X128427Y130879D01*
X128501Y130490D01*
X128538Y130157D01*
X128575Y129842D01*
X128612Y129583D01*
Y129360D01*
X128630Y129194D01*
Y129083D01*
Y129064D01*
Y129046D01*
X128612Y128490D01*
X128556Y127972D01*
X128482Y127472D01*
X128371Y127027D01*
X128260Y126601D01*
X128112Y126194D01*
X127964Y125842D01*
X127816Y125527D01*
X127667Y125231D01*
X127519Y124972D01*
X127371Y124768D01*
X127260Y124583D01*
X127149Y124453D01*
X127075Y124342D01*
X127019Y124287D01*
X127001Y124268D01*
X126686Y123954D01*
X126353Y123694D01*
X126001Y123454D01*
X125649Y123268D01*
X125297Y123102D01*
X124945Y122954D01*
X124612Y122843D01*
X124297Y122750D01*
X123983Y122676D01*
X123705Y122620D01*
X123446Y122583D01*
X123242Y122565D01*
X123057Y122546D01*
X122927Y122528D01*
X122816D01*
X122427Y122546D01*
X122075Y122565D01*
X121724Y122620D01*
X121409Y122694D01*
X121112Y122768D01*
X120835Y122843D01*
X120576Y122935D01*
X120335Y123046D01*
X120131Y123139D01*
X119946Y123231D01*
X119779Y123306D01*
X119650Y123380D01*
X119539Y123454D01*
X119465Y123509D01*
X119427Y123528D01*
X119409Y123546D01*
X119168Y123750D01*
X118946Y123972D01*
X118539Y124472D01*
X118205Y124991D01*
X117946Y125491D01*
X117835Y125731D01*
X117743Y125953D01*
X117668Y126157D01*
X117594Y126324D01*
X117539Y126472D01*
X117502Y126583D01*
X117483Y126657D01*
Y126676D01*
X120001Y127453D01*
X120150Y126953D01*
X120316Y126527D01*
X120483Y126176D01*
X120668Y125879D01*
X120816Y125657D01*
X120946Y125509D01*
X121038Y125416D01*
X121075Y125379D01*
X121372Y125157D01*
X121668Y125009D01*
X121964Y124898D01*
X122224Y124805D01*
X122464Y124768D01*
X122668Y124750D01*
X122742Y124731D01*
X122835D01*
X123094Y124750D01*
X123335Y124768D01*
X123779Y124898D01*
X124168Y125046D01*
X124482Y125250D01*
X124742Y125435D01*
X124927Y125583D01*
X125001Y125657D01*
X125056Y125713D01*
X125075Y125731D01*
X125094Y125750D01*
X125242Y125953D01*
X125371Y126194D01*
X125501Y126453D01*
X125594Y126731D01*
X125742Y127305D01*
X125853Y127879D01*
X125890Y128157D01*
X125908Y128398D01*
X125945Y128638D01*
Y128842D01*
X125964Y128990D01*
Y129120D01*
Y129212D01*
Y129231D01*
X125945Y129657D01*
X125927Y130045D01*
X125890Y130397D01*
X125834Y130731D01*
X125760Y131027D01*
X125686Y131305D01*
X125612Y131545D01*
X125520Y131768D01*
X125445Y131953D01*
X125371Y132119D01*
X125297Y132249D01*
X125223Y132360D01*
X125168Y132453D01*
X125131Y132508D01*
X125094Y132545D01*
Y132564D01*
X124927Y132749D01*
X124742Y132916D01*
X124557Y133045D01*
X124353Y133156D01*
X123964Y133342D01*
X123594Y133471D01*
X123279Y133545D01*
X123131Y133564D01*
X123020Y133582D01*
X122909Y133601D01*
X122779D01*
X122409Y133582D01*
X122075Y133508D01*
X121779Y133416D01*
X121520Y133305D01*
X121316Y133193D01*
X121168Y133101D01*
X121075Y133027D01*
X121038Y133008D01*
X120798Y132786D01*
X120576Y132527D01*
X120409Y132268D01*
X120279Y132008D01*
X120187Y131786D01*
X120131Y131619D01*
X120094Y131545D01*
Y131490D01*
X120076Y131471D01*
Y131453D01*
X117520Y132064D01*
X117705Y132601D01*
X117909Y133064D01*
X118131Y133471D01*
X118335Y133804D01*
X118539Y134064D01*
X118613Y134175D01*
X118687Y134267D01*
X118742Y134323D01*
X118798Y134378D01*
X118816Y134416D01*
X118835D01*
X119113Y134656D01*
X119427Y134878D01*
X119724Y135063D01*
X120038Y135212D01*
X120372Y135360D01*
X120687Y135471D01*
X121001Y135563D01*
X121298Y135638D01*
X121575Y135693D01*
X121835Y135730D01*
X122057Y135767D01*
X122261Y135786D01*
X122427Y135804D01*
X122649D01*
X123131Y135786D01*
D02*
G37*
G36*
X104299Y122750D02*
X101707D01*
Y126620D01*
X99615Y128768D01*
X96078Y122750D01*
X92727D01*
X97819Y130564D01*
X92967Y135563D01*
X96448D01*
X101707Y129860D01*
Y135563D01*
X104299D01*
Y122750D01*
D02*
G37*
G36*
X39251Y135619D02*
X39547Y135601D01*
X40121Y135508D01*
X40602Y135360D01*
X40824Y135286D01*
X41028Y135193D01*
X41213Y135119D01*
X41361Y135027D01*
X41510Y134952D01*
X41621Y134897D01*
X41713Y134823D01*
X41769Y134786D01*
X41806Y134767D01*
X41824Y134749D01*
X42028Y134564D01*
X42213Y134378D01*
X42380Y134156D01*
X42528Y133916D01*
X42750Y133434D01*
X42935Y132971D01*
X42991Y132730D01*
X43046Y132527D01*
X43102Y132342D01*
X43121Y132175D01*
X43158Y132027D01*
Y131934D01*
X43176Y131860D01*
Y131842D01*
X40732Y131601D01*
X40695Y131971D01*
X40621Y132286D01*
X40547Y132564D01*
X40454Y132767D01*
X40380Y132934D01*
X40306Y133045D01*
X40251Y133119D01*
X40232Y133138D01*
X40047Y133286D01*
X39843Y133397D01*
X39639Y133490D01*
X39436Y133545D01*
X39269Y133582D01*
X39121Y133601D01*
X38991D01*
X38714Y133582D01*
X38473Y133527D01*
X38269Y133453D01*
X38084Y133378D01*
X37954Y133305D01*
X37843Y133230D01*
X37788Y133175D01*
X37769Y133156D01*
X37621Y132971D01*
X37510Y132767D01*
X37436Y132564D01*
X37380Y132360D01*
X37343Y132175D01*
X37325Y132008D01*
Y131916D01*
Y131897D01*
Y131879D01*
X37343Y131601D01*
X37399Y131342D01*
X37492Y131082D01*
X37584Y130860D01*
X37677Y130657D01*
X37769Y130508D01*
X37825Y130416D01*
X37843Y130379D01*
X37917Y130268D01*
X38029Y130138D01*
X38177Y129972D01*
X38325Y129823D01*
X38658Y129472D01*
X38991Y129120D01*
X39325Y128786D01*
X39473Y128638D01*
X39621Y128527D01*
X39732Y128416D01*
X39806Y128342D01*
X39862Y128287D01*
X39880Y128268D01*
X40251Y127916D01*
X40584Y127583D01*
X40899Y127268D01*
X41176Y126990D01*
X41436Y126713D01*
X41658Y126453D01*
X41862Y126231D01*
X42028Y126009D01*
X42176Y125824D01*
X42306Y125657D01*
X42417Y125527D01*
X42491Y125398D01*
X42565Y125324D01*
X42602Y125250D01*
X42639Y125213D01*
Y125194D01*
X42880Y124768D01*
X43065Y124324D01*
X43213Y123917D01*
X43324Y123546D01*
X43398Y123213D01*
X43417Y123083D01*
X43435Y122972D01*
X43454Y122880D01*
X43472Y122806D01*
Y122768D01*
Y122750D01*
X34862D01*
Y125028D01*
X39751D01*
X39602Y125268D01*
X39436Y125472D01*
X39362Y125564D01*
X39306Y125639D01*
X39269Y125676D01*
X39251Y125694D01*
X39177Y125768D01*
X39102Y125861D01*
X38880Y126065D01*
X38640Y126305D01*
X38399Y126546D01*
X38158Y126768D01*
X37954Y126953D01*
X37880Y127027D01*
X37825Y127083D01*
X37788Y127101D01*
X37769Y127120D01*
X37362Y127509D01*
X37029Y127823D01*
X36751Y128120D01*
X36529Y128342D01*
X36362Y128527D01*
X36251Y128657D01*
X36177Y128749D01*
X36158Y128768D01*
X35918Y129083D01*
X35714Y129379D01*
X35547Y129657D01*
X35418Y129897D01*
X35307Y130101D01*
X35233Y130268D01*
X35196Y130360D01*
X35177Y130397D01*
X35066Y130694D01*
X34992Y130990D01*
X34936Y131268D01*
X34899Y131527D01*
X34881Y131730D01*
X34862Y131897D01*
Y132008D01*
Y132045D01*
X34881Y132323D01*
X34918Y132601D01*
X34955Y132860D01*
X35029Y133101D01*
X35214Y133527D01*
X35399Y133897D01*
X35510Y134064D01*
X35603Y134193D01*
X35695Y134323D01*
X35788Y134416D01*
X35862Y134489D01*
X35899Y134564D01*
X35936Y134582D01*
X35955Y134601D01*
X36158Y134786D01*
X36399Y134952D01*
X36621Y135082D01*
X36881Y135193D01*
X37362Y135378D01*
X37843Y135508D01*
X38066Y135545D01*
X38269Y135582D01*
X38454Y135601D01*
X38621Y135619D01*
X38751Y135638D01*
X38936D01*
X39251Y135619D01*
D02*
G37*
G36*
X19327D02*
X19623Y135601D01*
X20197Y135508D01*
X20679Y135360D01*
X20901Y135286D01*
X21104Y135193D01*
X21290Y135119D01*
X21438Y135027D01*
X21586Y134952D01*
X21697Y134897D01*
X21790Y134823D01*
X21845Y134786D01*
X21882Y134767D01*
X21901Y134749D01*
X22104Y134564D01*
X22289Y134378D01*
X22456Y134156D01*
X22604Y133916D01*
X22826Y133434D01*
X23012Y132971D01*
X23067Y132730D01*
X23123Y132527D01*
X23178Y132342D01*
X23197Y132175D01*
X23234Y132027D01*
Y131934D01*
X23252Y131860D01*
Y131842D01*
X20808Y131601D01*
X20771Y131971D01*
X20697Y132286D01*
X20623Y132564D01*
X20530Y132767D01*
X20456Y132934D01*
X20382Y133045D01*
X20327Y133119D01*
X20308Y133138D01*
X20123Y133286D01*
X19919Y133397D01*
X19716Y133490D01*
X19512Y133545D01*
X19345Y133582D01*
X19197Y133601D01*
X19067D01*
X18790Y133582D01*
X18549Y133527D01*
X18345Y133453D01*
X18160Y133378D01*
X18031Y133305D01*
X17919Y133230D01*
X17864Y133175D01*
X17845Y133156D01*
X17697Y132971D01*
X17586Y132767D01*
X17512Y132564D01*
X17457Y132360D01*
X17420Y132175D01*
X17401Y132008D01*
Y131916D01*
Y131897D01*
Y131879D01*
X17420Y131601D01*
X17475Y131342D01*
X17568Y131082D01*
X17660Y130860D01*
X17753Y130657D01*
X17845Y130508D01*
X17901Y130416D01*
X17919Y130379D01*
X17994Y130268D01*
X18105Y130138D01*
X18253Y129972D01*
X18401Y129823D01*
X18734Y129472D01*
X19067Y129120D01*
X19401Y128786D01*
X19549Y128638D01*
X19697Y128527D01*
X19808Y128416D01*
X19882Y128342D01*
X19938Y128287D01*
X19956Y128268D01*
X20327Y127916D01*
X20660Y127583D01*
X20975Y127268D01*
X21253Y126990D01*
X21512Y126713D01*
X21734Y126453D01*
X21938Y126231D01*
X22104Y126009D01*
X22252Y125824D01*
X22382Y125657D01*
X22493Y125527D01*
X22567Y125398D01*
X22641Y125324D01*
X22678Y125250D01*
X22715Y125213D01*
Y125194D01*
X22956Y124768D01*
X23141Y124324D01*
X23289Y123917D01*
X23400Y123546D01*
X23475Y123213D01*
X23493Y123083D01*
X23512Y122972D01*
X23530Y122880D01*
X23549Y122806D01*
Y122768D01*
Y122750D01*
X14938D01*
Y125028D01*
X19827D01*
X19679Y125268D01*
X19512Y125472D01*
X19438Y125564D01*
X19382Y125639D01*
X19345Y125676D01*
X19327Y125694D01*
X19253Y125768D01*
X19179Y125861D01*
X18956Y126065D01*
X18716Y126305D01*
X18475Y126546D01*
X18234Y126768D01*
X18031Y126953D01*
X17957Y127027D01*
X17901Y127083D01*
X17864Y127101D01*
X17845Y127120D01*
X17438Y127509D01*
X17105Y127823D01*
X16827Y128120D01*
X16605Y128342D01*
X16438Y128527D01*
X16327Y128657D01*
X16253Y128749D01*
X16235Y128768D01*
X15994Y129083D01*
X15790Y129379D01*
X15623Y129657D01*
X15494Y129897D01*
X15383Y130101D01*
X15309Y130268D01*
X15272Y130360D01*
X15253Y130397D01*
X15142Y130694D01*
X15068Y130990D01*
X15012Y131268D01*
X14975Y131527D01*
X14957Y131730D01*
X14938Y131897D01*
Y132008D01*
Y132045D01*
X14957Y132323D01*
X14994Y132601D01*
X15031Y132860D01*
X15105Y133101D01*
X15290Y133527D01*
X15475Y133897D01*
X15586Y134064D01*
X15679Y134193D01*
X15772Y134323D01*
X15864Y134416D01*
X15938Y134489D01*
X15975Y134564D01*
X16012Y134582D01*
X16031Y134601D01*
X16235Y134786D01*
X16475Y134952D01*
X16697Y135082D01*
X16957Y135193D01*
X17438Y135378D01*
X17919Y135508D01*
X18142Y135545D01*
X18345Y135582D01*
X18530Y135601D01*
X18697Y135619D01*
X18827Y135638D01*
X19012D01*
X19327Y135619D01*
D02*
G37*
G36*
X80469Y133286D02*
X78006D01*
Y135563D01*
X80469D01*
Y133286D01*
D02*
G37*
G36*
Y122750D02*
X78006D01*
Y132045D01*
X80469D01*
Y122750D01*
D02*
G37*
G36*
X86431Y132231D02*
X86764Y132175D01*
X87060Y132101D01*
X87357Y132008D01*
X87634Y131879D01*
X87875Y131749D01*
X88116Y131601D01*
X88320Y131471D01*
X88505Y131323D01*
X88671Y131175D01*
X88820Y131045D01*
X88931Y130916D01*
X89023Y130823D01*
X89097Y130749D01*
X89134Y130694D01*
X89153Y130675D01*
Y132045D01*
X91430D01*
Y122750D01*
X88968D01*
Y126935D01*
Y127212D01*
Y127472D01*
X88949Y127712D01*
X88931Y127916D01*
Y128120D01*
X88912Y128287D01*
X88894Y128453D01*
X88875Y128583D01*
X88838Y128805D01*
X88820Y128953D01*
X88783Y129046D01*
Y129064D01*
X88708Y129268D01*
X88597Y129472D01*
X88486Y129620D01*
X88375Y129768D01*
X88264Y129860D01*
X88172Y129953D01*
X88116Y129990D01*
X88097Y130008D01*
X87894Y130120D01*
X87690Y130212D01*
X87505Y130268D01*
X87320Y130323D01*
X87172Y130342D01*
X87060Y130360D01*
X86949D01*
X86764Y130342D01*
X86598Y130323D01*
X86468Y130286D01*
X86338Y130231D01*
X86227Y130175D01*
X86153Y130138D01*
X86116Y130120D01*
X86098Y130101D01*
X85968Y130008D01*
X85875Y129897D01*
X85709Y129675D01*
X85653Y129564D01*
X85616Y129490D01*
X85579Y129434D01*
Y129416D01*
X85542Y129323D01*
X85524Y129212D01*
X85487Y128934D01*
X85449Y128601D01*
X85431Y128287D01*
X85413Y127972D01*
Y127842D01*
Y127712D01*
Y127620D01*
Y127546D01*
Y127490D01*
Y127472D01*
Y122750D01*
X82950D01*
Y128509D01*
Y128897D01*
X82968Y129212D01*
X82987Y129509D01*
X83024Y129731D01*
X83042Y129916D01*
X83079Y130045D01*
X83098Y130138D01*
Y130157D01*
X83153Y130379D01*
X83228Y130564D01*
X83302Y130749D01*
X83394Y130897D01*
X83468Y131027D01*
X83524Y131119D01*
X83561Y131175D01*
X83579Y131194D01*
X83728Y131360D01*
X83894Y131508D01*
X84061Y131638D01*
X84227Y131749D01*
X84376Y131842D01*
X84505Y131897D01*
X84579Y131934D01*
X84616Y131953D01*
X84875Y132045D01*
X85135Y132119D01*
X85375Y132175D01*
X85598Y132212D01*
X85801Y132231D01*
X85968Y132249D01*
X86098D01*
X86431Y132231D01*
D02*
G37*
G36*
X65489Y122750D02*
X60637D01*
X60137Y122768D01*
X59674Y122787D01*
X59286Y122824D01*
X58971Y122880D01*
X58712Y122935D01*
X58508Y122972D01*
X58452Y122991D01*
X58397D01*
X58378Y123009D01*
X58360D01*
X57952Y123157D01*
X57582Y123324D01*
X57286Y123491D01*
X57027Y123657D01*
X56823Y123805D01*
X56675Y123917D01*
X56582Y123991D01*
X56545Y124028D01*
X56230Y124380D01*
X55953Y124750D01*
X55712Y125139D01*
X55527Y125491D01*
X55379Y125824D01*
X55304Y125953D01*
X55268Y126065D01*
X55230Y126176D01*
X55193Y126250D01*
X55175Y126287D01*
Y126305D01*
X55045Y126750D01*
X54934Y127212D01*
X54860Y127657D01*
X54823Y128083D01*
X54805Y128287D01*
X54786Y128472D01*
Y128620D01*
X54767Y128768D01*
Y128879D01*
Y128953D01*
Y129009D01*
Y129027D01*
X54786Y129675D01*
X54842Y130249D01*
X54860Y130527D01*
X54897Y130768D01*
X54934Y131008D01*
X54971Y131212D01*
X55027Y131397D01*
X55064Y131564D01*
X55101Y131712D01*
X55119Y131823D01*
X55156Y131916D01*
X55175Y131990D01*
X55193Y132027D01*
Y132045D01*
X55360Y132490D01*
X55564Y132897D01*
X55767Y133249D01*
X55971Y133545D01*
X56138Y133786D01*
X56286Y133971D01*
X56378Y134082D01*
X56397Y134119D01*
X56416D01*
X56730Y134416D01*
X57045Y134656D01*
X57378Y134860D01*
X57675Y135027D01*
X57934Y135156D01*
X58156Y135249D01*
X58230Y135267D01*
X58286Y135286D01*
X58323Y135304D01*
X58341D01*
X58693Y135397D01*
X59082Y135452D01*
X59489Y135508D01*
X59878Y135526D01*
X60230Y135545D01*
X60378Y135563D01*
X65489D01*
Y122750D01*
D02*
G37*
%LPC*%
G36*
X9198Y133601D02*
X9124D01*
X8957Y133582D01*
X8809Y133564D01*
X8680Y133508D01*
X8569Y133453D01*
X8476Y133397D01*
X8402Y133360D01*
X8365Y133323D01*
X8346Y133305D01*
X8235Y133175D01*
X8124Y133008D01*
X8032Y132823D01*
X7939Y132638D01*
X7883Y132453D01*
X7828Y132305D01*
X7809Y132212D01*
X7791Y132193D01*
Y132175D01*
X7754Y132008D01*
X7717Y131805D01*
X7680Y131564D01*
X7643Y131323D01*
X7606Y130823D01*
X7587Y130305D01*
X7569Y130064D01*
Y129823D01*
X7550Y129620D01*
Y129434D01*
Y129286D01*
Y129157D01*
Y129083D01*
Y129064D01*
Y128657D01*
X7569Y128268D01*
Y127916D01*
X7587Y127601D01*
X7606Y127305D01*
X7624Y127046D01*
X7661Y126805D01*
X7680Y126601D01*
X7698Y126416D01*
X7735Y126268D01*
X7754Y126138D01*
X7772Y126027D01*
X7791Y125953D01*
Y125879D01*
X7809Y125861D01*
Y125842D01*
X7883Y125583D01*
X7976Y125379D01*
X8069Y125194D01*
X8143Y125065D01*
X8217Y124953D01*
X8291Y124879D01*
X8328Y124842D01*
X8346Y124824D01*
X8476Y124731D01*
X8606Y124657D01*
X8735Y124620D01*
X8865Y124583D01*
X8957Y124565D01*
X9050Y124546D01*
X9124D01*
X9291Y124565D01*
X9439Y124583D01*
X9568Y124639D01*
X9680Y124694D01*
X9772Y124731D01*
X9846Y124787D01*
X9883Y124805D01*
X9902Y124824D01*
X10013Y124953D01*
X10124Y125120D01*
X10217Y125305D01*
X10309Y125491D01*
X10365Y125657D01*
X10420Y125805D01*
X10439Y125898D01*
X10457Y125935D01*
X10494Y126120D01*
X10531Y126324D01*
X10568Y126546D01*
X10587Y126787D01*
X10624Y127305D01*
X10642Y127823D01*
X10661Y128064D01*
Y128305D01*
X10680Y128509D01*
Y128694D01*
Y128842D01*
Y128972D01*
Y129046D01*
Y129064D01*
Y129472D01*
X10661Y129860D01*
Y130194D01*
X10642Y130527D01*
X10624Y130805D01*
X10605Y131082D01*
X10587Y131305D01*
X10550Y131527D01*
X10531Y131712D01*
X10513Y131860D01*
X10494Y131990D01*
X10476Y132101D01*
X10457Y132175D01*
Y132249D01*
X10439Y132268D01*
Y132286D01*
X10365Y132545D01*
X10272Y132767D01*
X10198Y132934D01*
X10106Y133082D01*
X10031Y133175D01*
X9976Y133249D01*
X9939Y133286D01*
X9920Y133305D01*
X9791Y133397D01*
X9643Y133471D01*
X9513Y133527D01*
X9383Y133564D01*
X9291Y133582D01*
X9198Y133601D01*
D02*
G37*
G36*
X45562Y109147D02*
X43636D01*
X43451Y109129D01*
X43285D01*
X43118Y109110D01*
X42877D01*
X42692Y109092D01*
X42563Y109073D01*
X42488Y109054D01*
X42470D01*
X42248Y108999D01*
X42044Y108925D01*
X41859Y108832D01*
X41711Y108721D01*
X41600Y108629D01*
X41507Y108554D01*
X41452Y108499D01*
X41433Y108481D01*
X41285Y108295D01*
X41192Y108110D01*
X41118Y107906D01*
X41063Y107721D01*
X41026Y107555D01*
X41007Y107425D01*
Y107351D01*
Y107314D01*
X41026Y107110D01*
X41044Y106925D01*
X41100Y106758D01*
X41155Y106610D01*
X41211Y106481D01*
X41248Y106388D01*
X41285Y106333D01*
X41303Y106314D01*
X41414Y106166D01*
X41563Y106036D01*
X41692Y105925D01*
X41822Y105833D01*
X41933Y105777D01*
X42026Y105722D01*
X42100Y105703D01*
X42118Y105684D01*
X42229Y105647D01*
X42359Y105629D01*
X42655Y105573D01*
X42988Y105536D01*
X43322Y105518D01*
X43655D01*
X43785Y105499D01*
X45562D01*
Y109147D01*
D02*
G37*
G36*
X84447Y109351D02*
X84373D01*
X84206Y109332D01*
X84058Y109314D01*
X83929Y109258D01*
X83818Y109203D01*
X83725Y109147D01*
X83651Y109110D01*
X83614Y109073D01*
X83595Y109054D01*
X83484Y108925D01*
X83373Y108758D01*
X83281Y108573D01*
X83188Y108388D01*
X83132Y108203D01*
X83077Y108055D01*
X83058Y107962D01*
X83040Y107943D01*
Y107925D01*
X83003Y107758D01*
X82966Y107555D01*
X82929Y107314D01*
X82892Y107073D01*
X82855Y106573D01*
X82836Y106055D01*
X82818Y105814D01*
Y105573D01*
X82799Y105370D01*
Y105184D01*
Y105036D01*
Y104907D01*
Y104833D01*
Y104814D01*
Y104407D01*
X82818Y104018D01*
Y103666D01*
X82836Y103351D01*
X82855Y103055D01*
X82873Y102796D01*
X82910Y102555D01*
X82929Y102352D01*
X82947Y102166D01*
X82984Y102018D01*
X83003Y101889D01*
X83021Y101777D01*
X83040Y101703D01*
Y101629D01*
X83058Y101611D01*
Y101592D01*
X83132Y101333D01*
X83225Y101129D01*
X83318Y100944D01*
X83392Y100815D01*
X83466Y100703D01*
X83540Y100629D01*
X83577Y100592D01*
X83595Y100574D01*
X83725Y100481D01*
X83855Y100407D01*
X83984Y100370D01*
X84114Y100333D01*
X84206Y100315D01*
X84299Y100296D01*
X84373D01*
X84540Y100315D01*
X84688Y100333D01*
X84817Y100389D01*
X84929Y100444D01*
X85021Y100481D01*
X85095Y100537D01*
X85132Y100555D01*
X85151Y100574D01*
X85262Y100703D01*
X85373Y100870D01*
X85465Y101055D01*
X85558Y101241D01*
X85614Y101407D01*
X85669Y101555D01*
X85688Y101648D01*
X85706Y101685D01*
X85743Y101870D01*
X85780Y102074D01*
X85817Y102296D01*
X85836Y102537D01*
X85873Y103055D01*
X85891Y103574D01*
X85910Y103814D01*
Y104055D01*
X85928Y104259D01*
Y104444D01*
Y104592D01*
Y104722D01*
Y104796D01*
Y104814D01*
Y105222D01*
X85910Y105610D01*
Y105944D01*
X85891Y106277D01*
X85873Y106555D01*
X85854Y106833D01*
X85836Y107055D01*
X85799Y107277D01*
X85780Y107462D01*
X85762Y107610D01*
X85743Y107740D01*
X85725Y107851D01*
X85706Y107925D01*
Y107999D01*
X85688Y108018D01*
Y108036D01*
X85614Y108295D01*
X85521Y108518D01*
X85447Y108684D01*
X85354Y108832D01*
X85280Y108925D01*
X85225Y108999D01*
X85188Y109036D01*
X85169Y109054D01*
X85040Y109147D01*
X84892Y109221D01*
X84762Y109277D01*
X84632Y109314D01*
X84540Y109332D01*
X84447Y109351D01*
D02*
G37*
G36*
X-42114Y6313D02*
X-44707D01*
Y-6500D01*
X-42114D01*
Y6313D01*
D02*
G37*
G36*
X-17432D02*
X-27597D01*
Y4147D01*
X-23820D01*
Y-6500D01*
X-21228D01*
Y4147D01*
X-17432D01*
Y6313D01*
D02*
G37*
G36*
X68208D02*
X63097D01*
X62949Y6295D01*
X62597Y6276D01*
X62208Y6258D01*
X61801Y6202D01*
X61412Y6147D01*
X61060Y6054D01*
X61042D01*
X61005Y6036D01*
X60949Y6017D01*
X60875Y5999D01*
X60653Y5906D01*
X60394Y5777D01*
X60097Y5610D01*
X59764Y5406D01*
X59449Y5165D01*
X59134Y4869D01*
X59116D01*
X59097Y4832D01*
X59005Y4721D01*
X58857Y4536D01*
X58690Y4295D01*
X58486Y3999D01*
X58283Y3647D01*
X58079Y3240D01*
X57912Y2795D01*
Y2777D01*
X57894Y2740D01*
X57875Y2666D01*
X57838Y2573D01*
X57820Y2462D01*
X57783Y2314D01*
X57746Y2147D01*
X57690Y1962D01*
X57653Y1758D01*
X57616Y1518D01*
X57579Y1277D01*
X57561Y999D01*
X57505Y425D01*
X57487Y-223D01*
Y-241D01*
Y-297D01*
Y-371D01*
Y-482D01*
X57505Y-630D01*
Y-778D01*
X57523Y-963D01*
X57542Y-1167D01*
X57579Y-1593D01*
X57653Y-2037D01*
X57764Y-2500D01*
X57894Y-2945D01*
Y-2963D01*
X57912Y-3000D01*
X57949Y-3074D01*
X57986Y-3185D01*
X58024Y-3297D01*
X58098Y-3426D01*
X58246Y-3760D01*
X58431Y-4111D01*
X58672Y-4500D01*
X58949Y-4871D01*
X59264Y-5222D01*
X59301Y-5259D01*
X59394Y-5333D01*
X59542Y-5445D01*
X59745Y-5593D01*
X60005Y-5759D01*
X60301Y-5926D01*
X60671Y-6093D01*
X61079Y-6241D01*
X61097D01*
X61116Y-6259D01*
X61171D01*
X61227Y-6278D01*
X61431Y-6315D01*
X61690Y-6370D01*
X62004Y-6426D01*
X62393Y-6463D01*
X62856Y-6482D01*
X63356Y-6500D01*
X68208D01*
Y6313D01*
D02*
G37*
G36*
X77484D02*
X74744D01*
X69596Y-6500D01*
X72392D01*
X73503Y-3593D01*
X78651D01*
X79706Y-6500D01*
X82447D01*
X77484Y6313D01*
D02*
G37*
G36*
X43340D02*
X37563D01*
X37396Y6295D01*
X37192D01*
X36989Y6276D01*
X36748D01*
X36267Y6221D01*
X35766Y6165D01*
X35304Y6073D01*
X35100Y6017D01*
X34915Y5962D01*
X34896D01*
X34878Y5943D01*
X34767Y5888D01*
X34600Y5795D01*
X34378Y5684D01*
X34137Y5499D01*
X33896Y5295D01*
X33656Y5036D01*
X33433Y4721D01*
Y4703D01*
X33415Y4684D01*
X33378Y4629D01*
X33341Y4573D01*
X33248Y4388D01*
X33137Y4147D01*
X33045Y3851D01*
X32952Y3517D01*
X32878Y3129D01*
X32859Y2721D01*
Y2703D01*
Y2666D01*
Y2573D01*
X32878Y2481D01*
Y2351D01*
X32896Y2221D01*
X32970Y1888D01*
X33063Y1499D01*
X33211Y1110D01*
X33433Y703D01*
X33563Y518D01*
X33711Y333D01*
X33730Y314D01*
X33748Y296D01*
X33804Y240D01*
X33878Y184D01*
X33952Y110D01*
X34063Y18D01*
X34193Y-75D01*
X34341Y-167D01*
X34507Y-278D01*
X34711Y-371D01*
X34915Y-464D01*
X35137Y-556D01*
X35396Y-649D01*
X35655Y-723D01*
X35933Y-797D01*
X36248Y-852D01*
X36229D01*
X36211Y-871D01*
X36100Y-945D01*
X35952Y-1038D01*
X35766Y-1167D01*
X35544Y-1334D01*
X35322Y-1500D01*
X35081Y-1704D01*
X34878Y-1926D01*
X34859Y-1945D01*
X34767Y-2037D01*
X34655Y-2186D01*
X34489Y-2408D01*
X34267Y-2686D01*
X34156Y-2871D01*
X34026Y-3056D01*
X33878Y-3260D01*
X33730Y-3482D01*
X33563Y-3741D01*
X33396Y-4000D01*
X31823Y-6500D01*
X34933D01*
X36785Y-3722D01*
X36804Y-3704D01*
X36822Y-3649D01*
X36878Y-3574D01*
X36952Y-3482D01*
X37026Y-3371D01*
X37118Y-3223D01*
X37322Y-2926D01*
X37563Y-2593D01*
X37785Y-2297D01*
X37989Y-2019D01*
X38081Y-1926D01*
X38155Y-1834D01*
X38174Y-1815D01*
X38211Y-1778D01*
X38285Y-1704D01*
X38377Y-1612D01*
X38507Y-1538D01*
X38637Y-1445D01*
X38785Y-1371D01*
X38933Y-1297D01*
X38951D01*
X39007Y-1278D01*
X39100Y-1241D01*
X39248Y-1223D01*
X39433Y-1186D01*
X39655Y-1167D01*
X39914Y-1149D01*
X40747D01*
Y-6500D01*
X43340D01*
Y6313D01*
D02*
G37*
G36*
X55283D02*
X45784D01*
Y4147D01*
X52691D01*
Y1314D01*
X46265D01*
Y-852D01*
X52691D01*
Y-4334D01*
X45543D01*
Y-6500D01*
X55283D01*
Y6313D01*
D02*
G37*
G36*
X-75963D02*
X-78555D01*
Y-6500D01*
X-75963D01*
Y6313D01*
D02*
G37*
G36*
X7843Y6554D02*
X7714D01*
X7566Y6536D01*
X7381D01*
X7140Y6499D01*
X6862Y6462D01*
X6547Y6406D01*
X6214Y6332D01*
X5862Y6239D01*
X5492Y6128D01*
X5122Y5980D01*
X4733Y5814D01*
X4362Y5610D01*
X3992Y5369D01*
X3640Y5091D01*
X3307Y4777D01*
X3288Y4758D01*
X3233Y4703D01*
X3140Y4591D01*
X3048Y4462D01*
X2918Y4277D01*
X2770Y4054D01*
X2622Y3795D01*
X2455Y3499D01*
X2289Y3184D01*
X2140Y2814D01*
X1992Y2406D01*
X1863Y1981D01*
X1752Y1499D01*
X1678Y999D01*
X1622Y462D01*
X1603Y-112D01*
Y-149D01*
Y-241D01*
X1622Y-408D01*
Y-630D01*
X1659Y-890D01*
X1696Y-1186D01*
X1752Y-1538D01*
X1807Y-1889D01*
X1900Y-2278D01*
X2011Y-2686D01*
X2159Y-3093D01*
X2325Y-3500D01*
X2511Y-3889D01*
X2751Y-4278D01*
X3011Y-4648D01*
X3307Y-5000D01*
X3325Y-5019D01*
X3381Y-5074D01*
X3474Y-5167D01*
X3622Y-5278D01*
X3788Y-5408D01*
X3992Y-5556D01*
X4233Y-5704D01*
X4492Y-5870D01*
X4807Y-6037D01*
X5140Y-6185D01*
X5510Y-6333D01*
X5918Y-6463D01*
X6344Y-6574D01*
X6807Y-6667D01*
X7288Y-6722D01*
X7807Y-6741D01*
X7936D01*
X8084Y-6722D01*
X8269Y-6704D01*
X8510Y-6685D01*
X8788Y-6648D01*
X9103Y-6593D01*
X9436Y-6518D01*
X9806Y-6426D01*
X10158Y-6315D01*
X10547Y-6167D01*
X10917Y-6000D01*
X11306Y-5815D01*
X11658Y-5574D01*
X12010Y-5315D01*
X12343Y-5000D01*
X12362Y-4982D01*
X12417Y-4926D01*
X12491Y-4815D01*
X12602Y-4685D01*
X12732Y-4500D01*
X12880Y-4278D01*
X13028Y-4037D01*
X13176Y-3741D01*
X13343Y-3426D01*
X13491Y-3056D01*
X13639Y-2667D01*
X13769Y-2241D01*
X13880Y-1778D01*
X13954Y-1278D01*
X14009Y-741D01*
X14028Y-186D01*
Y-167D01*
Y-93D01*
Y-1D01*
X14009Y147D01*
Y314D01*
X13991Y499D01*
X13973Y721D01*
X13954Y962D01*
X13880Y1481D01*
X13787Y2036D01*
X13639Y2592D01*
X13454Y3110D01*
Y3129D01*
X13435Y3147D01*
X13398Y3203D01*
X13380Y3277D01*
X13269Y3462D01*
X13139Y3703D01*
X12973Y3980D01*
X12769Y4258D01*
X12528Y4573D01*
X12269Y4869D01*
X12250Y4888D01*
X12232Y4906D01*
X12139Y4999D01*
X11973Y5147D01*
X11769Y5314D01*
X11528Y5499D01*
X11250Y5702D01*
X10936Y5888D01*
X10603Y6036D01*
X10584D01*
X10547Y6054D01*
X10473Y6091D01*
X10380Y6110D01*
X10269Y6165D01*
X10140Y6202D01*
X9973Y6239D01*
X9806Y6295D01*
X9399Y6388D01*
X8936Y6480D01*
X8399Y6536D01*
X7843Y6554D01*
D02*
G37*
G36*
X-51650D02*
X-51873D01*
X-52039Y6536D01*
X-52243Y6517D01*
X-52484Y6499D01*
X-52724Y6462D01*
X-53002Y6425D01*
X-53595Y6295D01*
X-53891Y6202D01*
X-54187Y6110D01*
X-54483Y5980D01*
X-54761Y5832D01*
X-55020Y5665D01*
X-55261Y5480D01*
X-55280Y5462D01*
X-55317Y5425D01*
X-55372Y5369D01*
X-55446Y5295D01*
X-55539Y5184D01*
X-55650Y5054D01*
X-55761Y4906D01*
X-55891Y4740D01*
X-56002Y4536D01*
X-56113Y4332D01*
X-56224Y4092D01*
X-56316Y3832D01*
X-56409Y3573D01*
X-56483Y3277D01*
X-56539Y2980D01*
X-56557Y2647D01*
X-53965Y2555D01*
Y2573D01*
Y2592D01*
X-53928Y2721D01*
X-53891Y2888D01*
X-53817Y3092D01*
X-53724Y3332D01*
X-53595Y3555D01*
X-53428Y3777D01*
X-53243Y3962D01*
X-53224Y3980D01*
X-53150Y4036D01*
X-53021Y4110D01*
X-52835Y4184D01*
X-52613Y4258D01*
X-52336Y4332D01*
X-52002Y4388D01*
X-51613Y4406D01*
X-51428D01*
X-51224Y4388D01*
X-50984Y4351D01*
X-50706Y4295D01*
X-50410Y4203D01*
X-50132Y4092D01*
X-49873Y3925D01*
X-49854Y3906D01*
X-49817Y3869D01*
X-49743Y3814D01*
X-49669Y3721D01*
X-49595Y3610D01*
X-49521Y3462D01*
X-49484Y3314D01*
X-49465Y3129D01*
Y3110D01*
Y3055D01*
X-49484Y2962D01*
X-49521Y2869D01*
X-49558Y2740D01*
X-49613Y2610D01*
X-49706Y2481D01*
X-49836Y2351D01*
X-49854Y2332D01*
X-49947Y2277D01*
X-50002Y2240D01*
X-50095Y2203D01*
X-50188Y2147D01*
X-50317Y2092D01*
X-50465Y2036D01*
X-50632Y1962D01*
X-50836Y1888D01*
X-51039Y1814D01*
X-51298Y1740D01*
X-51576Y1666D01*
X-51873Y1592D01*
X-52206Y1499D01*
X-52224D01*
X-52298Y1481D01*
X-52391Y1462D01*
X-52521Y1425D01*
X-52669Y1388D01*
X-52854Y1332D01*
X-53058Y1277D01*
X-53261Y1221D01*
X-53706Y1073D01*
X-54169Y925D01*
X-54613Y759D01*
X-54798Y666D01*
X-54983Y573D01*
X-55002D01*
X-55020Y555D01*
X-55132Y481D01*
X-55298Y370D01*
X-55502Y222D01*
X-55724Y36D01*
X-55965Y-186D01*
X-56205Y-445D01*
X-56409Y-741D01*
X-56428Y-778D01*
X-56483Y-890D01*
X-56576Y-1056D01*
X-56668Y-1297D01*
X-56761Y-1593D01*
X-56853Y-1945D01*
X-56909Y-2334D01*
X-56928Y-2778D01*
Y-2797D01*
Y-2834D01*
Y-2889D01*
Y-2963D01*
X-56909Y-3056D01*
X-56891Y-3185D01*
X-56853Y-3445D01*
X-56779Y-3778D01*
X-56668Y-4130D01*
X-56502Y-4482D01*
X-56298Y-4852D01*
Y-4871D01*
X-56261Y-4889D01*
X-56187Y-5000D01*
X-56039Y-5185D01*
X-55854Y-5389D01*
X-55613Y-5630D01*
X-55298Y-5852D01*
X-54965Y-6074D01*
X-54557Y-6278D01*
X-54539D01*
X-54502Y-6296D01*
X-54446Y-6315D01*
X-54354Y-6352D01*
X-54243Y-6389D01*
X-54113Y-6426D01*
X-53965Y-6463D01*
X-53798Y-6500D01*
X-53595Y-6556D01*
X-53391Y-6593D01*
X-52909Y-6667D01*
X-52372Y-6722D01*
X-51780Y-6741D01*
X-51539D01*
X-51373Y-6722D01*
X-51169Y-6704D01*
X-50947Y-6685D01*
X-50687Y-6648D01*
X-50410Y-6593D01*
X-49799Y-6463D01*
X-49484Y-6370D01*
X-49188Y-6278D01*
X-48873Y-6148D01*
X-48577Y-6000D01*
X-48299Y-5833D01*
X-48040Y-5630D01*
X-48021Y-5611D01*
X-47984Y-5574D01*
X-47910Y-5519D01*
X-47836Y-5426D01*
X-47725Y-5296D01*
X-47614Y-5148D01*
X-47484Y-4982D01*
X-47354Y-4796D01*
X-47225Y-4574D01*
X-47095Y-4334D01*
X-46966Y-4056D01*
X-46836Y-3760D01*
X-46743Y-3445D01*
X-46632Y-3093D01*
X-46558Y-2723D01*
X-46503Y-2334D01*
X-49021Y-2093D01*
Y-2112D01*
X-49040Y-2149D01*
Y-2223D01*
X-49058Y-2297D01*
X-49132Y-2519D01*
X-49225Y-2797D01*
X-49336Y-3112D01*
X-49502Y-3426D01*
X-49688Y-3704D01*
X-49928Y-3963D01*
X-49965Y-3982D01*
X-50058Y-4056D01*
X-50206Y-4148D01*
X-50428Y-4259D01*
X-50706Y-4371D01*
X-51021Y-4463D01*
X-51391Y-4537D01*
X-51817Y-4556D01*
X-52021D01*
X-52243Y-4519D01*
X-52521Y-4482D01*
X-52817Y-4426D01*
X-53132Y-4334D01*
X-53428Y-4204D01*
X-53687Y-4037D01*
X-53724Y-4019D01*
X-53798Y-3945D01*
X-53891Y-3834D01*
X-54021Y-3686D01*
X-54132Y-3500D01*
X-54243Y-3278D01*
X-54317Y-3056D01*
X-54335Y-2797D01*
Y-2778D01*
Y-2723D01*
X-54317Y-2630D01*
X-54298Y-2519D01*
X-54261Y-2408D01*
X-54224Y-2278D01*
X-54150Y-2149D01*
X-54057Y-2019D01*
X-54039Y-2000D01*
X-54002Y-1963D01*
X-53946Y-1908D01*
X-53854Y-1834D01*
X-53724Y-1741D01*
X-53558Y-1649D01*
X-53372Y-1556D01*
X-53132Y-1463D01*
X-53113D01*
X-53039Y-1426D01*
X-52909Y-1389D01*
X-52817Y-1352D01*
X-52706Y-1334D01*
X-52576Y-1297D01*
X-52428Y-1241D01*
X-52261Y-1204D01*
X-52076Y-1149D01*
X-51854Y-1093D01*
X-51613Y-1038D01*
X-51354Y-963D01*
X-51058Y-890D01*
X-51039D01*
X-50965Y-871D01*
X-50854Y-834D01*
X-50725Y-797D01*
X-50558Y-741D01*
X-50354Y-686D01*
X-50150Y-612D01*
X-49910Y-538D01*
X-49428Y-353D01*
X-48965Y-130D01*
X-48725Y-19D01*
X-48521Y110D01*
X-48317Y240D01*
X-48151Y370D01*
X-48132Y388D01*
X-48095Y425D01*
X-48040Y481D01*
X-47965Y555D01*
X-47873Y666D01*
X-47780Y795D01*
X-47669Y925D01*
X-47577Y1092D01*
X-47354Y1481D01*
X-47169Y1925D01*
X-47095Y2166D01*
X-47040Y2406D01*
X-47003Y2684D01*
X-46984Y2962D01*
Y2980D01*
Y2999D01*
Y3055D01*
Y3129D01*
X-47021Y3314D01*
X-47058Y3555D01*
X-47114Y3832D01*
X-47206Y4147D01*
X-47336Y4480D01*
X-47521Y4795D01*
Y4814D01*
X-47540Y4832D01*
X-47632Y4943D01*
X-47743Y5091D01*
X-47929Y5276D01*
X-48151Y5480D01*
X-48429Y5702D01*
X-48743Y5906D01*
X-49114Y6091D01*
X-49132D01*
X-49169Y6110D01*
X-49225Y6128D01*
X-49299Y6165D01*
X-49410Y6202D01*
X-49521Y6239D01*
X-49669Y6276D01*
X-49836Y6332D01*
X-50206Y6406D01*
X-50632Y6480D01*
X-51113Y6536D01*
X-51650Y6554D01*
D02*
G37*
G36*
X-68575D02*
X-68797D01*
X-68963Y6536D01*
X-69167Y6517D01*
X-69408Y6499D01*
X-69648Y6462D01*
X-69926Y6425D01*
X-70519Y6295D01*
X-70815Y6202D01*
X-71111Y6110D01*
X-71408Y5980D01*
X-71685Y5832D01*
X-71944Y5665D01*
X-72185Y5480D01*
X-72204Y5462D01*
X-72241Y5425D01*
X-72296Y5369D01*
X-72370Y5295D01*
X-72463Y5184D01*
X-72574Y5054D01*
X-72685Y4906D01*
X-72815Y4740D01*
X-72926Y4536D01*
X-73037Y4332D01*
X-73148Y4092D01*
X-73241Y3832D01*
X-73333Y3573D01*
X-73407Y3277D01*
X-73463Y2980D01*
X-73481Y2647D01*
X-70889Y2555D01*
Y2573D01*
Y2592D01*
X-70852Y2721D01*
X-70815Y2888D01*
X-70741Y3092D01*
X-70648Y3332D01*
X-70519Y3555D01*
X-70352Y3777D01*
X-70167Y3962D01*
X-70148Y3980D01*
X-70074Y4036D01*
X-69945Y4110D01*
X-69760Y4184D01*
X-69537Y4258D01*
X-69260Y4332D01*
X-68926Y4388D01*
X-68538Y4406D01*
X-68352D01*
X-68149Y4388D01*
X-67908Y4351D01*
X-67630Y4295D01*
X-67334Y4203D01*
X-67056Y4092D01*
X-66797Y3925D01*
X-66778Y3906D01*
X-66741Y3869D01*
X-66667Y3814D01*
X-66593Y3721D01*
X-66519Y3610D01*
X-66445Y3462D01*
X-66408Y3314D01*
X-66390Y3129D01*
Y3110D01*
Y3055D01*
X-66408Y2962D01*
X-66445Y2869D01*
X-66482Y2740D01*
X-66538Y2610D01*
X-66630Y2481D01*
X-66760Y2351D01*
X-66778Y2332D01*
X-66871Y2277D01*
X-66926Y2240D01*
X-67019Y2203D01*
X-67112Y2147D01*
X-67241Y2092D01*
X-67389Y2036D01*
X-67556Y1962D01*
X-67760Y1888D01*
X-67964Y1814D01*
X-68223Y1740D01*
X-68500Y1666D01*
X-68797Y1592D01*
X-69130Y1499D01*
X-69149D01*
X-69223Y1481D01*
X-69315Y1462D01*
X-69445Y1425D01*
X-69593Y1388D01*
X-69778Y1332D01*
X-69982Y1277D01*
X-70185Y1221D01*
X-70630Y1073D01*
X-71093Y925D01*
X-71537Y759D01*
X-71722Y666D01*
X-71908Y573D01*
X-71926D01*
X-71944Y555D01*
X-72056Y481D01*
X-72222Y370D01*
X-72426Y222D01*
X-72648Y36D01*
X-72889Y-186D01*
X-73130Y-445D01*
X-73333Y-741D01*
X-73352Y-778D01*
X-73407Y-890D01*
X-73500Y-1056D01*
X-73593Y-1297D01*
X-73685Y-1593D01*
X-73778Y-1945D01*
X-73833Y-2334D01*
X-73852Y-2778D01*
Y-2797D01*
Y-2834D01*
Y-2889D01*
Y-2963D01*
X-73833Y-3056D01*
X-73815Y-3185D01*
X-73778Y-3445D01*
X-73704Y-3778D01*
X-73593Y-4130D01*
X-73426Y-4482D01*
X-73222Y-4852D01*
Y-4871D01*
X-73185Y-4889D01*
X-73111Y-5000D01*
X-72963Y-5185D01*
X-72778Y-5389D01*
X-72537Y-5630D01*
X-72222Y-5852D01*
X-71889Y-6074D01*
X-71482Y-6278D01*
X-71463D01*
X-71426Y-6296D01*
X-71371Y-6315D01*
X-71278Y-6352D01*
X-71167Y-6389D01*
X-71037Y-6426D01*
X-70889Y-6463D01*
X-70722Y-6500D01*
X-70519Y-6556D01*
X-70315Y-6593D01*
X-69834Y-6667D01*
X-69297Y-6722D01*
X-68704Y-6741D01*
X-68463D01*
X-68297Y-6722D01*
X-68093Y-6704D01*
X-67871Y-6685D01*
X-67612Y-6648D01*
X-67334Y-6593D01*
X-66723Y-6463D01*
X-66408Y-6370D01*
X-66112Y-6278D01*
X-65797Y-6148D01*
X-65501Y-6000D01*
X-65223Y-5833D01*
X-64964Y-5630D01*
X-64945Y-5611D01*
X-64908Y-5574D01*
X-64834Y-5519D01*
X-64760Y-5426D01*
X-64649Y-5296D01*
X-64538Y-5148D01*
X-64408Y-4982D01*
X-64279Y-4796D01*
X-64149Y-4574D01*
X-64019Y-4334D01*
X-63890Y-4056D01*
X-63760Y-3760D01*
X-63668Y-3445D01*
X-63556Y-3093D01*
X-63482Y-2723D01*
X-63427Y-2334D01*
X-65945Y-2093D01*
Y-2112D01*
X-65964Y-2149D01*
Y-2223D01*
X-65982Y-2297D01*
X-66056Y-2519D01*
X-66149Y-2797D01*
X-66260Y-3112D01*
X-66427Y-3426D01*
X-66612Y-3704D01*
X-66852Y-3963D01*
X-66890Y-3982D01*
X-66982Y-4056D01*
X-67130Y-4148D01*
X-67352Y-4259D01*
X-67630Y-4371D01*
X-67945Y-4463D01*
X-68315Y-4537D01*
X-68741Y-4556D01*
X-68945D01*
X-69167Y-4519D01*
X-69445Y-4482D01*
X-69741Y-4426D01*
X-70056Y-4334D01*
X-70352Y-4204D01*
X-70611Y-4037D01*
X-70648Y-4019D01*
X-70722Y-3945D01*
X-70815Y-3834D01*
X-70945Y-3686D01*
X-71056Y-3500D01*
X-71167Y-3278D01*
X-71241Y-3056D01*
X-71259Y-2797D01*
Y-2778D01*
Y-2723D01*
X-71241Y-2630D01*
X-71222Y-2519D01*
X-71185Y-2408D01*
X-71148Y-2278D01*
X-71074Y-2149D01*
X-70982Y-2019D01*
X-70963Y-2000D01*
X-70926Y-1963D01*
X-70871Y-1908D01*
X-70778Y-1834D01*
X-70648Y-1741D01*
X-70482Y-1649D01*
X-70297Y-1556D01*
X-70056Y-1463D01*
X-70037D01*
X-69963Y-1426D01*
X-69834Y-1389D01*
X-69741Y-1352D01*
X-69630Y-1334D01*
X-69500Y-1297D01*
X-69352Y-1241D01*
X-69186Y-1204D01*
X-69000Y-1149D01*
X-68778Y-1093D01*
X-68538Y-1038D01*
X-68278Y-963D01*
X-67982Y-890D01*
X-67964D01*
X-67889Y-871D01*
X-67778Y-834D01*
X-67649Y-797D01*
X-67482Y-741D01*
X-67278Y-686D01*
X-67075Y-612D01*
X-66834Y-538D01*
X-66353Y-353D01*
X-65890Y-130D01*
X-65649Y-19D01*
X-65445Y110D01*
X-65241Y240D01*
X-65075Y370D01*
X-65056Y388D01*
X-65019Y425D01*
X-64964Y481D01*
X-64890Y555D01*
X-64797Y666D01*
X-64704Y795D01*
X-64593Y925D01*
X-64501Y1092D01*
X-64279Y1481D01*
X-64093Y1925D01*
X-64019Y2166D01*
X-63964Y2406D01*
X-63927Y2684D01*
X-63908Y2962D01*
Y2980D01*
Y2999D01*
Y3055D01*
Y3129D01*
X-63945Y3314D01*
X-63982Y3555D01*
X-64038Y3832D01*
X-64131Y4147D01*
X-64260Y4480D01*
X-64445Y4795D01*
Y4814D01*
X-64464Y4832D01*
X-64556Y4943D01*
X-64668Y5091D01*
X-64853Y5276D01*
X-65075Y5480D01*
X-65353Y5702D01*
X-65667Y5906D01*
X-66038Y6091D01*
X-66056D01*
X-66093Y6110D01*
X-66149Y6128D01*
X-66223Y6165D01*
X-66334Y6202D01*
X-66445Y6239D01*
X-66593Y6276D01*
X-66760Y6332D01*
X-67130Y6406D01*
X-67556Y6480D01*
X-68038Y6536D01*
X-68575Y6554D01*
D02*
G37*
G36*
X-81036Y6313D02*
X-86147D01*
X-86295Y6295D01*
X-86647Y6276D01*
X-87036Y6258D01*
X-87443Y6202D01*
X-87832Y6147D01*
X-88184Y6054D01*
X-88202D01*
X-88239Y6036D01*
X-88295Y6017D01*
X-88369Y5999D01*
X-88591Y5906D01*
X-88850Y5777D01*
X-89146Y5610D01*
X-89480Y5406D01*
X-89795Y5165D01*
X-90109Y4869D01*
X-90128D01*
X-90146Y4832D01*
X-90239Y4721D01*
X-90387Y4536D01*
X-90554Y4295D01*
X-90757Y3999D01*
X-90961Y3647D01*
X-91165Y3240D01*
X-91331Y2795D01*
Y2777D01*
X-91350Y2740D01*
X-91368Y2666D01*
X-91405Y2573D01*
X-91424Y2462D01*
X-91461Y2314D01*
X-91498Y2147D01*
X-91554Y1962D01*
X-91591Y1758D01*
X-91628Y1518D01*
X-91665Y1277D01*
X-91683Y999D01*
X-91739Y425D01*
X-91757Y-223D01*
Y-241D01*
Y-297D01*
Y-371D01*
Y-482D01*
X-91739Y-630D01*
Y-778D01*
X-91720Y-963D01*
X-91702Y-1167D01*
X-91665Y-1593D01*
X-91591Y-2037D01*
X-91480Y-2500D01*
X-91350Y-2945D01*
Y-2963D01*
X-91331Y-3000D01*
X-91294Y-3074D01*
X-91257Y-3185D01*
X-91220Y-3297D01*
X-91146Y-3426D01*
X-90998Y-3760D01*
X-90813Y-4111D01*
X-90572Y-4500D01*
X-90295Y-4871D01*
X-89980Y-5222D01*
X-89943Y-5259D01*
X-89850Y-5333D01*
X-89702Y-5445D01*
X-89498Y-5593D01*
X-89239Y-5759D01*
X-88943Y-5926D01*
X-88572Y-6093D01*
X-88165Y-6241D01*
X-88147D01*
X-88128Y-6259D01*
X-88073D01*
X-88017Y-6278D01*
X-87813Y-6315D01*
X-87554Y-6370D01*
X-87239Y-6426D01*
X-86850Y-6463D01*
X-86388Y-6482D01*
X-85887Y-6500D01*
X-81036D01*
Y6313D01*
D02*
G37*
G36*
X-93961D02*
X-103460D01*
Y4147D01*
X-96553D01*
Y1314D01*
X-102978D01*
Y-852D01*
X-96553D01*
Y-4334D01*
X-103701D01*
Y-6500D01*
X-93961D01*
Y6313D01*
D02*
G37*
G36*
X25953Y6554D02*
X25731D01*
X25564Y6536D01*
X25360Y6517D01*
X25120Y6499D01*
X24879Y6462D01*
X24601Y6425D01*
X24009Y6295D01*
X23712Y6202D01*
X23416Y6110D01*
X23120Y5980D01*
X22842Y5832D01*
X22583Y5665D01*
X22342Y5480D01*
X22324Y5462D01*
X22286Y5425D01*
X22231Y5369D01*
X22157Y5295D01*
X22064Y5184D01*
X21953Y5054D01*
X21842Y4906D01*
X21712Y4740D01*
X21601Y4536D01*
X21490Y4332D01*
X21379Y4092D01*
X21286Y3832D01*
X21194Y3573D01*
X21120Y3277D01*
X21064Y2980D01*
X21046Y2647D01*
X23638Y2555D01*
Y2573D01*
Y2592D01*
X23675Y2721D01*
X23712Y2888D01*
X23786Y3092D01*
X23879Y3332D01*
X24009Y3555D01*
X24175Y3777D01*
X24360Y3962D01*
X24379Y3980D01*
X24453Y4036D01*
X24583Y4110D01*
X24768Y4184D01*
X24990Y4258D01*
X25268Y4332D01*
X25601Y4388D01*
X25990Y4406D01*
X26175D01*
X26379Y4388D01*
X26619Y4351D01*
X26897Y4295D01*
X27193Y4203D01*
X27471Y4092D01*
X27730Y3925D01*
X27749Y3906D01*
X27786Y3869D01*
X27860Y3814D01*
X27934Y3721D01*
X28008Y3610D01*
X28082Y3462D01*
X28119Y3314D01*
X28138Y3129D01*
Y3110D01*
Y3055D01*
X28119Y2962D01*
X28082Y2869D01*
X28045Y2740D01*
X27990Y2610D01*
X27897Y2481D01*
X27767Y2351D01*
X27749Y2332D01*
X27656Y2277D01*
X27601Y2240D01*
X27508Y2203D01*
X27415Y2147D01*
X27286Y2092D01*
X27138Y2036D01*
X26971Y1962D01*
X26767Y1888D01*
X26564Y1814D01*
X26305Y1740D01*
X26027Y1666D01*
X25731Y1592D01*
X25397Y1499D01*
X25379D01*
X25305Y1481D01*
X25212Y1462D01*
X25082Y1425D01*
X24934Y1388D01*
X24749Y1332D01*
X24546Y1277D01*
X24342Y1221D01*
X23897Y1073D01*
X23435Y925D01*
X22990Y759D01*
X22805Y666D01*
X22620Y573D01*
X22601D01*
X22583Y555D01*
X22472Y481D01*
X22305Y370D01*
X22101Y222D01*
X21879Y36D01*
X21638Y-186D01*
X21398Y-445D01*
X21194Y-741D01*
X21175Y-778D01*
X21120Y-890D01*
X21027Y-1056D01*
X20935Y-1297D01*
X20842Y-1593D01*
X20750Y-1945D01*
X20694Y-2334D01*
X20675Y-2778D01*
Y-2797D01*
Y-2834D01*
Y-2889D01*
Y-2963D01*
X20694Y-3056D01*
X20712Y-3185D01*
X20750Y-3445D01*
X20824Y-3778D01*
X20935Y-4130D01*
X21101Y-4482D01*
X21305Y-4852D01*
Y-4871D01*
X21342Y-4889D01*
X21416Y-5000D01*
X21564Y-5185D01*
X21749Y-5389D01*
X21990Y-5630D01*
X22305Y-5852D01*
X22638Y-6074D01*
X23046Y-6278D01*
X23064D01*
X23101Y-6296D01*
X23157Y-6315D01*
X23249Y-6352D01*
X23360Y-6389D01*
X23490Y-6426D01*
X23638Y-6463D01*
X23805Y-6500D01*
X24009Y-6556D01*
X24212Y-6593D01*
X24694Y-6667D01*
X25231Y-6722D01*
X25823Y-6741D01*
X26064D01*
X26230Y-6722D01*
X26434Y-6704D01*
X26656Y-6685D01*
X26916Y-6648D01*
X27193Y-6593D01*
X27804Y-6463D01*
X28119Y-6370D01*
X28415Y-6278D01*
X28730Y-6148D01*
X29027Y-6000D01*
X29304Y-5833D01*
X29564Y-5630D01*
X29582Y-5611D01*
X29619Y-5574D01*
X29693Y-5519D01*
X29767Y-5426D01*
X29878Y-5296D01*
X29989Y-5148D01*
X30119Y-4982D01*
X30249Y-4796D01*
X30378Y-4574D01*
X30508Y-4334D01*
X30637Y-4056D01*
X30767Y-3760D01*
X30860Y-3445D01*
X30971Y-3093D01*
X31045Y-2723D01*
X31100Y-2334D01*
X28582Y-2093D01*
Y-2112D01*
X28564Y-2149D01*
Y-2223D01*
X28545Y-2297D01*
X28471Y-2519D01*
X28378Y-2797D01*
X28267Y-3112D01*
X28101Y-3426D01*
X27915Y-3704D01*
X27675Y-3963D01*
X27638Y-3982D01*
X27545Y-4056D01*
X27397Y-4148D01*
X27175Y-4259D01*
X26897Y-4371D01*
X26582Y-4463D01*
X26212Y-4537D01*
X25786Y-4556D01*
X25582D01*
X25360Y-4519D01*
X25082Y-4482D01*
X24786Y-4426D01*
X24471Y-4334D01*
X24175Y-4204D01*
X23916Y-4037D01*
X23879Y-4019D01*
X23805Y-3945D01*
X23712Y-3834D01*
X23583Y-3686D01*
X23472Y-3500D01*
X23360Y-3278D01*
X23286Y-3056D01*
X23268Y-2797D01*
Y-2778D01*
Y-2723D01*
X23286Y-2630D01*
X23305Y-2519D01*
X23342Y-2408D01*
X23379Y-2278D01*
X23453Y-2149D01*
X23546Y-2019D01*
X23564Y-2000D01*
X23601Y-1963D01*
X23657Y-1908D01*
X23749Y-1834D01*
X23879Y-1741D01*
X24046Y-1649D01*
X24231Y-1556D01*
X24471Y-1463D01*
X24490D01*
X24564Y-1426D01*
X24694Y-1389D01*
X24786Y-1352D01*
X24897Y-1334D01*
X25027Y-1297D01*
X25175Y-1241D01*
X25342Y-1204D01*
X25527Y-1149D01*
X25749Y-1093D01*
X25990Y-1038D01*
X26249Y-963D01*
X26545Y-890D01*
X26564D01*
X26638Y-871D01*
X26749Y-834D01*
X26879Y-797D01*
X27045Y-741D01*
X27249Y-686D01*
X27453Y-612D01*
X27693Y-538D01*
X28175Y-353D01*
X28638Y-130D01*
X28878Y-19D01*
X29082Y110D01*
X29286Y240D01*
X29452Y370D01*
X29471Y388D01*
X29508Y425D01*
X29564Y481D01*
X29637Y555D01*
X29730Y666D01*
X29823Y795D01*
X29934Y925D01*
X30026Y1092D01*
X30249Y1481D01*
X30434Y1925D01*
X30508Y2166D01*
X30563Y2406D01*
X30600Y2684D01*
X30619Y2962D01*
Y2980D01*
Y2999D01*
Y3055D01*
Y3129D01*
X30582Y3314D01*
X30545Y3555D01*
X30489Y3832D01*
X30397Y4147D01*
X30267Y4480D01*
X30082Y4795D01*
Y4814D01*
X30063Y4832D01*
X29971Y4943D01*
X29860Y5091D01*
X29675Y5276D01*
X29452Y5480D01*
X29175Y5702D01*
X28860Y5906D01*
X28489Y6091D01*
X28471D01*
X28434Y6110D01*
X28378Y6128D01*
X28304Y6165D01*
X28193Y6202D01*
X28082Y6239D01*
X27934Y6276D01*
X27767Y6332D01*
X27397Y6406D01*
X26971Y6480D01*
X26490Y6536D01*
X25953Y6554D01*
D02*
G37*
G36*
X106000Y6313D02*
X103408D01*
Y1277D01*
X98353D01*
Y6313D01*
X95760D01*
Y-6500D01*
X98353D01*
Y-890D01*
X103408D01*
Y-6500D01*
X106000D01*
Y6313D01*
D02*
G37*
G36*
X-29282D02*
X-31875D01*
Y1277D01*
X-36930D01*
Y6313D01*
X-39522D01*
Y-6500D01*
X-36930D01*
Y-890D01*
X-31875D01*
Y-6500D01*
X-29282D01*
Y6313D01*
D02*
G37*
G36*
X-433D02*
X-2933D01*
X-8229Y-2315D01*
Y6313D01*
X-10618D01*
Y-6500D01*
X-8025D01*
X-2822Y1944D01*
Y-6500D01*
X-433D01*
Y6313D01*
D02*
G37*
G36*
X93075D02*
X83576D01*
Y4147D01*
X90483D01*
Y1314D01*
X84058D01*
Y-852D01*
X90483D01*
Y-4334D01*
X83336D01*
Y-6500D01*
X93075D01*
Y6313D01*
D02*
G37*
%LPD*%
G36*
X65615Y-4334D02*
X63338D01*
X63097Y-4315D01*
X62838D01*
X62579Y-4278D01*
X62338Y-4259D01*
X62134Y-4223D01*
X62097D01*
X62023Y-4185D01*
X61912Y-4148D01*
X61764Y-4093D01*
X61597Y-4019D01*
X61431Y-3926D01*
X61264Y-3815D01*
X61097Y-3686D01*
X61079Y-3667D01*
X61023Y-3611D01*
X60949Y-3519D01*
X60856Y-3389D01*
X60764Y-3223D01*
X60634Y-3019D01*
X60542Y-2760D01*
X60431Y-2463D01*
Y-2445D01*
X60412Y-2426D01*
Y-2371D01*
X60394Y-2297D01*
X60357Y-2223D01*
X60338Y-2112D01*
X60283Y-1834D01*
X60245Y-1500D01*
X60190Y-1112D01*
X60171Y-630D01*
X60153Y-112D01*
Y-93D01*
Y-38D01*
Y36D01*
Y129D01*
Y258D01*
X60171Y407D01*
X60190Y721D01*
X60227Y1092D01*
X60264Y1481D01*
X60338Y1832D01*
X60431Y2166D01*
Y2184D01*
X60449Y2203D01*
X60486Y2295D01*
X60542Y2444D01*
X60616Y2629D01*
X60727Y2814D01*
X60856Y3018D01*
X61005Y3221D01*
X61171Y3406D01*
X61190Y3425D01*
X61245Y3480D01*
X61357Y3555D01*
X61486Y3647D01*
X61671Y3758D01*
X61875Y3851D01*
X62097Y3943D01*
X62356Y4017D01*
X62375D01*
X62467Y4036D01*
X62616Y4054D01*
X62819Y4092D01*
X62949D01*
X63116Y4110D01*
X63282D01*
X63467Y4128D01*
X63690D01*
X63930Y4147D01*
X65615D01*
Y-4334D01*
D02*
G37*
G36*
X77873Y-1426D02*
X74337D01*
X76133Y3332D01*
X77873Y-1426D01*
D02*
G37*
G36*
X40747Y888D02*
X38229D01*
X37859Y907D01*
X37470Y925D01*
X37081Y944D01*
X36915Y962D01*
X36766Y981D01*
X36618Y1018D01*
X36526Y1036D01*
X36507D01*
X36452Y1073D01*
X36359Y1110D01*
X36267Y1166D01*
X36026Y1332D01*
X35915Y1444D01*
X35804Y1573D01*
X35785Y1592D01*
X35766Y1647D01*
X35711Y1721D01*
X35655Y1832D01*
X35618Y1981D01*
X35563Y2147D01*
X35544Y2332D01*
X35526Y2536D01*
Y2573D01*
Y2647D01*
X35544Y2758D01*
X35563Y2906D01*
X35618Y3073D01*
X35674Y3240D01*
X35766Y3425D01*
X35878Y3573D01*
X35896Y3591D01*
X35933Y3647D01*
X36026Y3703D01*
X36137Y3795D01*
X36267Y3888D01*
X36433Y3962D01*
X36637Y4036D01*
X36859Y4092D01*
X36878D01*
X36933Y4110D01*
X37044D01*
X37211Y4128D01*
X37618D01*
X37785Y4147D01*
X40747D01*
Y888D01*
D02*
G37*
G36*
X8066Y4332D02*
X8214Y4314D01*
X8362Y4295D01*
X8732Y4221D01*
X9140Y4073D01*
X9362Y3999D01*
X9584Y3888D01*
X9788Y3758D01*
X10010Y3610D01*
X10214Y3443D01*
X10399Y3240D01*
X10417Y3221D01*
X10436Y3184D01*
X10491Y3129D01*
X10547Y3036D01*
X10621Y2906D01*
X10695Y2777D01*
X10788Y2610D01*
X10880Y2406D01*
X10973Y2184D01*
X11065Y1944D01*
X11139Y1666D01*
X11214Y1370D01*
X11269Y1036D01*
X11325Y684D01*
X11343Y314D01*
X11362Y-93D01*
Y-112D01*
Y-186D01*
Y-297D01*
X11343Y-445D01*
X11325Y-630D01*
X11306Y-852D01*
X11269Y-1075D01*
X11232Y-1334D01*
X11121Y-1871D01*
X10936Y-2408D01*
X10825Y-2686D01*
X10695Y-2945D01*
X10528Y-3185D01*
X10362Y-3408D01*
X10343Y-3426D01*
X10306Y-3463D01*
X10251Y-3519D01*
X10177Y-3574D01*
X10084Y-3667D01*
X9954Y-3760D01*
X9825Y-3871D01*
X9658Y-3963D01*
X9306Y-4185D01*
X8862Y-4352D01*
X8621Y-4426D01*
X8362Y-4482D01*
X8084Y-4519D01*
X7807Y-4537D01*
X7658D01*
X7547Y-4519D01*
X7418Y-4500D01*
X7269Y-4482D01*
X6918Y-4389D01*
X6510Y-4259D01*
X6307Y-4167D01*
X6084Y-4074D01*
X5881Y-3945D01*
X5659Y-3797D01*
X5455Y-3630D01*
X5270Y-3426D01*
X5251Y-3408D01*
X5233Y-3371D01*
X5177Y-3315D01*
X5122Y-3223D01*
X5029Y-3093D01*
X4955Y-2945D01*
X4862Y-2778D01*
X4770Y-2575D01*
X4677Y-2352D01*
X4585Y-2112D01*
X4492Y-1834D01*
X4418Y-1519D01*
X4362Y-1204D01*
X4307Y-852D01*
X4288Y-464D01*
X4270Y-56D01*
Y-38D01*
Y36D01*
Y147D01*
X4288Y314D01*
X4307Y499D01*
X4325Y703D01*
X4344Y944D01*
X4399Y1184D01*
X4511Y1721D01*
X4677Y2277D01*
X4788Y2555D01*
X4918Y2795D01*
X5084Y3036D01*
X5251Y3258D01*
X5270Y3277D01*
X5288Y3314D01*
X5344Y3351D01*
X5418Y3425D01*
X5529Y3517D01*
X5640Y3610D01*
X5770Y3703D01*
X5936Y3814D01*
X6103Y3906D01*
X6307Y3999D01*
X6733Y4184D01*
X6973Y4258D01*
X7232Y4295D01*
X7510Y4332D01*
X7807Y4351D01*
X7955D01*
X8066Y4332D01*
D02*
G37*
G36*
X-83629Y-4334D02*
X-85906D01*
X-86147Y-4315D01*
X-86406D01*
X-86665Y-4278D01*
X-86906Y-4259D01*
X-87110Y-4223D01*
X-87147D01*
X-87221Y-4185D01*
X-87332Y-4148D01*
X-87480Y-4093D01*
X-87647Y-4019D01*
X-87813Y-3926D01*
X-87980Y-3815D01*
X-88147Y-3686D01*
X-88165Y-3667D01*
X-88221Y-3611D01*
X-88295Y-3519D01*
X-88387Y-3389D01*
X-88480Y-3223D01*
X-88610Y-3019D01*
X-88702Y-2760D01*
X-88813Y-2463D01*
Y-2445D01*
X-88832Y-2426D01*
Y-2371D01*
X-88850Y-2297D01*
X-88887Y-2223D01*
X-88906Y-2112D01*
X-88961Y-1834D01*
X-88998Y-1500D01*
X-89054Y-1112D01*
X-89072Y-630D01*
X-89091Y-112D01*
Y-93D01*
Y-38D01*
Y36D01*
Y129D01*
Y258D01*
X-89072Y407D01*
X-89054Y721D01*
X-89017Y1092D01*
X-88980Y1481D01*
X-88906Y1832D01*
X-88813Y2166D01*
Y2184D01*
X-88795Y2203D01*
X-88758Y2295D01*
X-88702Y2444D01*
X-88628Y2629D01*
X-88517Y2814D01*
X-88387Y3018D01*
X-88239Y3221D01*
X-88073Y3406D01*
X-88054Y3425D01*
X-87998Y3480D01*
X-87887Y3555D01*
X-87758Y3647D01*
X-87572Y3758D01*
X-87369Y3851D01*
X-87147Y3943D01*
X-86887Y4017D01*
X-86869D01*
X-86776Y4036D01*
X-86628Y4054D01*
X-86425Y4092D01*
X-86295D01*
X-86128Y4110D01*
X-85962D01*
X-85776Y4128D01*
X-85554D01*
X-85314Y4147D01*
X-83629D01*
Y-4334D01*
D02*
G37*
%LPC*%
G36*
X29122Y133601D02*
X29048D01*
X28881Y133582D01*
X28733Y133564D01*
X28604Y133508D01*
X28493Y133453D01*
X28400Y133397D01*
X28326Y133360D01*
X28289Y133323D01*
X28270Y133305D01*
X28159Y133175D01*
X28048Y133008D01*
X27956Y132823D01*
X27863Y132638D01*
X27807Y132453D01*
X27752Y132305D01*
X27733Y132212D01*
X27715Y132193D01*
Y132175D01*
X27678Y132008D01*
X27641Y131805D01*
X27604Y131564D01*
X27567Y131323D01*
X27530Y130823D01*
X27511Y130305D01*
X27493Y130064D01*
Y129823D01*
X27474Y129620D01*
Y129434D01*
Y129286D01*
Y129157D01*
Y129083D01*
Y129064D01*
Y128657D01*
X27493Y128268D01*
Y127916D01*
X27511Y127601D01*
X27530Y127305D01*
X27548Y127046D01*
X27585Y126805D01*
X27604Y126601D01*
X27622Y126416D01*
X27659Y126268D01*
X27678Y126138D01*
X27696Y126027D01*
X27715Y125953D01*
Y125879D01*
X27733Y125861D01*
Y125842D01*
X27807Y125583D01*
X27900Y125379D01*
X27992Y125194D01*
X28067Y125065D01*
X28141Y124953D01*
X28215Y124879D01*
X28252Y124842D01*
X28270Y124824D01*
X28400Y124731D01*
X28530Y124657D01*
X28659Y124620D01*
X28789Y124583D01*
X28881Y124565D01*
X28974Y124546D01*
X29048D01*
X29215Y124565D01*
X29363Y124583D01*
X29492Y124639D01*
X29604Y124694D01*
X29696Y124731D01*
X29770Y124787D01*
X29807Y124805D01*
X29826Y124824D01*
X29937Y124953D01*
X30048Y125120D01*
X30141Y125305D01*
X30233Y125491D01*
X30289Y125657D01*
X30344Y125805D01*
X30363Y125898D01*
X30381Y125935D01*
X30418Y126120D01*
X30455Y126324D01*
X30492Y126546D01*
X30511Y126787D01*
X30548Y127305D01*
X30566Y127823D01*
X30585Y128064D01*
Y128305D01*
X30603Y128509D01*
Y128694D01*
Y128842D01*
Y128972D01*
Y129046D01*
Y129064D01*
Y129472D01*
X30585Y129860D01*
Y130194D01*
X30566Y130527D01*
X30548Y130805D01*
X30529Y131082D01*
X30511Y131305D01*
X30474Y131527D01*
X30455Y131712D01*
X30437Y131860D01*
X30418Y131990D01*
X30400Y132101D01*
X30381Y132175D01*
Y132249D01*
X30363Y132268D01*
Y132286D01*
X30289Y132545D01*
X30196Y132767D01*
X30122Y132934D01*
X30029Y133082D01*
X29955Y133175D01*
X29900Y133249D01*
X29863Y133286D01*
X29844Y133305D01*
X29715Y133397D01*
X29566Y133471D01*
X29437Y133527D01*
X29307Y133564D01*
X29215Y133582D01*
X29122Y133601D01*
D02*
G37*
G36*
X62896Y133397D02*
X61211D01*
X60971Y133378D01*
X60748D01*
X60563Y133360D01*
X60397D01*
X60230Y133342D01*
X60100D01*
X59897Y133305D01*
X59749Y133286D01*
X59656Y133267D01*
X59637D01*
X59378Y133193D01*
X59156Y133101D01*
X58952Y133008D01*
X58767Y132897D01*
X58637Y132804D01*
X58526Y132730D01*
X58471Y132675D01*
X58452Y132656D01*
X58286Y132471D01*
X58138Y132268D01*
X58008Y132064D01*
X57897Y131879D01*
X57823Y131693D01*
X57767Y131545D01*
X57730Y131453D01*
X57712Y131434D01*
Y131416D01*
X57619Y131082D01*
X57545Y130731D01*
X57508Y130342D01*
X57471Y129972D01*
X57452Y129657D01*
X57434Y129509D01*
Y129379D01*
Y129286D01*
Y129212D01*
Y129157D01*
Y129138D01*
X57452Y128620D01*
X57471Y128138D01*
X57526Y127750D01*
X57564Y127416D01*
X57619Y127138D01*
X57638Y127027D01*
X57675Y126953D01*
X57693Y126879D01*
Y126824D01*
X57712Y126805D01*
Y126787D01*
X57823Y126490D01*
X57915Y126231D01*
X58045Y126027D01*
X58138Y125861D01*
X58230Y125731D01*
X58304Y125639D01*
X58360Y125583D01*
X58378Y125564D01*
X58545Y125435D01*
X58712Y125324D01*
X58878Y125231D01*
X59045Y125157D01*
X59193Y125102D01*
X59304Y125065D01*
X59378Y125028D01*
X59415D01*
X59619Y124991D01*
X59860Y124972D01*
X60119Y124935D01*
X60378D01*
X60619Y124916D01*
X62896D01*
Y133397D01*
D02*
G37*
%LPD*%
D16*
X-181610Y193040D02*
X193040D01*
X-193040Y181610D02*
X-181610Y193040D01*
X-193040Y-193040D02*
Y181610D01*
X193040Y-193040D02*
Y193040D01*
X-193040Y-193040D02*
X193040D01*
D22*
X-129640Y129515D02*
D03*
D30*
X139699Y-190502D02*
Y139698D01*
Y-190502D02*
X190498D01*
Y139698D01*
X139699D02*
X190498D01*
X-190498Y-190501D02*
Y-139702D01*
X139702D01*
Y-190501D02*
Y-139702D01*
X-190498Y-190501D02*
X139702D01*
X190498Y139702D02*
Y190500D01*
X-139702Y139702D02*
X190498D01*
X-139702D02*
Y190500D01*
X190498D01*
X-190498Y-139698D02*
X-139700D01*
Y190502D01*
X-181248D02*
X-139700D01*
X-190498Y-139698D02*
Y181252D01*
M02*
