M48
;Layer_Color=9474304
;FILE_FORMAT=4:4
METRIC,LZ
;TYPE=PLATED
T1F00S00C0.3000
T2F00S00C0.8890
;TYPE=NON_PLATED
%
T01
X-00062Y-0006
X-0005375Y-000505
X-0007375Y000845
X00008Y0006125
X000185Y0006125
X0005Y0002325
X0005975Y0001975
X00061Y-0001
X0011325Y0001275
X0011225Y001085
X0008075Y-000745
T02
X-001778Y-001778
X-001524
X-00127
X-001016
X-000762
X-000508
X-000254
X-0
X000254
X000508
X000762
X001016
X00127
X001524
X001778
Y-001524
Y-00127
Y-001016
Y-000762
Y-000508
Y-000254
Y-0
Y000254
Y000508
Y000762
Y001016
Y00127
Y001524
Y001778
X001524
X00127
Y001524
X001016
Y001778
X000762
Y001524
X000508
Y001778
X000254
Y001524
X-0
Y001778
X-000254
Y001524
X-000508
Y001778
X-000762
Y001524
X-001016
Y001778
X-00127
Y001524
X-001524
Y00127
Y001016
Y000762
Y000508
Y000254
Y-0
Y-000254
Y-000508
Y-000762
Y-001016
Y-00127
X-001778
Y-001524
X-001524
X-00127
X-001016
X-000762
X-000508
X-000254
X-0
X000254
X000508
X000762
X001016
X00127
X001524
Y-00127
Y-001016
Y-000762
Y-000508
Y-000254
Y-0
Y000254
Y000508
Y000762
Y001016
Y00127
Y001524
X-001524Y001778
X-001778
Y001524
Y00127
Y001016
Y000762
Y000508
Y000254
Y-0
Y-000254
Y-000508
Y-000762
Y-001016
M30
