G04 Layer_Color=8421504*
%FSLAX44Y44*%
%MOMM*%
G71*
G01*
G75*
%ADD10R,1.5000X0.3000*%
%ADD11R,0.3000X1.5000*%
%ADD13R,1.3000X1.0000*%
%ADD14R,1.0000X1.3000*%
%ADD16C,0.3500*%
D10*
X-77000Y60000D02*
D03*
Y55000D02*
D03*
Y50000D02*
D03*
Y45000D02*
D03*
Y40000D02*
D03*
Y35000D02*
D03*
Y30000D02*
D03*
Y25000D02*
D03*
Y20000D02*
D03*
Y15000D02*
D03*
Y10000D02*
D03*
Y5000D02*
D03*
Y-0D02*
D03*
Y-5000D02*
D03*
Y-10000D02*
D03*
Y-15000D02*
D03*
Y-20000D02*
D03*
Y-25000D02*
D03*
Y-30000D02*
D03*
Y-35000D02*
D03*
Y-40000D02*
D03*
Y-45000D02*
D03*
Y-50000D02*
D03*
Y-55000D02*
D03*
Y-60000D02*
D03*
X77000D02*
D03*
Y-55000D02*
D03*
Y-50000D02*
D03*
Y-45000D02*
D03*
Y-40000D02*
D03*
Y-35000D02*
D03*
Y-30000D02*
D03*
Y-25000D02*
D03*
Y-20000D02*
D03*
Y-15000D02*
D03*
Y-10000D02*
D03*
Y-5000D02*
D03*
Y-0D02*
D03*
Y5000D02*
D03*
Y10000D02*
D03*
Y15000D02*
D03*
Y20000D02*
D03*
Y25000D02*
D03*
Y30000D02*
D03*
Y35000D02*
D03*
Y40000D02*
D03*
Y45000D02*
D03*
Y50000D02*
D03*
Y55000D02*
D03*
Y60000D02*
D03*
D11*
X-60000Y-77000D02*
D03*
X-55000D02*
D03*
X-50000D02*
D03*
X-45000D02*
D03*
X-40000D02*
D03*
X-35000D02*
D03*
X-30000D02*
D03*
X-25000D02*
D03*
X-20000D02*
D03*
X-15000D02*
D03*
X-10000D02*
D03*
X-5000D02*
D03*
X-0D02*
D03*
X5000D02*
D03*
X10000D02*
D03*
X15000D02*
D03*
X20000D02*
D03*
X25000D02*
D03*
X30000D02*
D03*
X35000D02*
D03*
X40000D02*
D03*
X45000D02*
D03*
X50000D02*
D03*
X55000D02*
D03*
X60000D02*
D03*
Y77000D02*
D03*
X55000D02*
D03*
X50000D02*
D03*
X45000D02*
D03*
X40000D02*
D03*
X35000D02*
D03*
X30000D02*
D03*
X25000D02*
D03*
X20000D02*
D03*
X15000D02*
D03*
X10000D02*
D03*
X5000D02*
D03*
X-0D02*
D03*
X-5000D02*
D03*
X-10000D02*
D03*
X-15000D02*
D03*
X-20000D02*
D03*
X-25000D02*
D03*
X-30000D02*
D03*
X-35000D02*
D03*
X-40000D02*
D03*
X-45000D02*
D03*
X-50000D02*
D03*
X-55000D02*
D03*
X-60000D02*
D03*
D13*
X-120000Y52250D02*
D03*
Y32750D02*
D03*
Y-30250D02*
D03*
Y-49750D02*
D03*
X120000Y-62250D02*
D03*
Y-42750D02*
D03*
X125000Y15250D02*
D03*
Y34750D02*
D03*
D14*
X-42250Y-125000D02*
D03*
X-22750D02*
D03*
X42750D02*
D03*
X62250D02*
D03*
X29750Y117500D02*
D03*
X10250D02*
D03*
X-60250D02*
D03*
X-79750D02*
D03*
D16*
X-181610Y193040D02*
X193040D01*
X-193040Y181610D02*
X-181610Y193040D01*
X-193040Y-193040D02*
Y181610D01*
X193040Y-193040D02*
Y193040D01*
X-193040Y-193040D02*
X193040D01*
M02*
