G04 Layer_Color=128*
%FSLAX44Y44*%
%MOMM*%
G71*
G01*
G75*
%ADD16C,0.3500*%
%ADD31C,0.0508*%
D16*
X-181610Y193040D02*
X193040D01*
X-193040Y181610D02*
X-181610Y193040D01*
X-193040Y-193040D02*
Y181610D01*
X193040Y-193040D02*
Y193040D01*
X-193040Y-193040D02*
X193040D01*
D31*
X173355Y-177800D02*
X182245D01*
X177800Y-182245D02*
Y-173355D01*
X173355Y-152400D02*
X182245D01*
X177800Y-156845D02*
Y-147955D01*
X173355Y-127000D02*
X182245D01*
X177800Y-131445D02*
Y-122555D01*
X173355Y-101600D02*
X182245D01*
X177800Y-106045D02*
Y-97155D01*
X173355Y-76200D02*
X182245D01*
X177800Y-80645D02*
Y-71755D01*
X173355Y-50800D02*
X182245D01*
X177800Y-55245D02*
Y-46355D01*
X173355Y-25400D02*
X182245D01*
X177800Y-29845D02*
Y-20955D01*
X173355Y-0D02*
X182245D01*
X177800Y-4445D02*
Y4445D01*
X173355Y25400D02*
X182245D01*
X177800Y20955D02*
Y29845D01*
X173355Y50800D02*
X182245D01*
X177800Y46355D02*
Y55245D01*
X173355Y76200D02*
X182245D01*
X177800Y71755D02*
Y80645D01*
X173355Y101600D02*
X182245D01*
X177800Y97155D02*
Y106045D01*
X173355Y127000D02*
X182245D01*
X177800Y122555D02*
Y131445D01*
X173355Y152400D02*
X182245D01*
X177800Y147955D02*
Y156845D01*
X173355Y177800D02*
X182245D01*
X177800Y173355D02*
Y182245D01*
X147955Y-177800D02*
X156845D01*
X152400Y-182245D02*
Y-173355D01*
X147955Y-127000D02*
X156845D01*
X152400Y-131445D02*
Y-122555D01*
X147955Y-101600D02*
X156845D01*
X152400Y-106045D02*
Y-97155D01*
X147955Y-76200D02*
X156845D01*
X152400Y-80645D02*
Y-71755D01*
X147955Y-50800D02*
X156845D01*
X152400Y-55245D02*
Y-46355D01*
X147955Y-25400D02*
X156845D01*
X152400Y-29845D02*
Y-20955D01*
X147955Y-0D02*
X156845D01*
X152400Y-4445D02*
Y4445D01*
X147955Y25400D02*
X156845D01*
X152400Y20955D02*
Y29845D01*
X147955Y50800D02*
X156845D01*
X152400Y46355D02*
Y55245D01*
X147955Y76200D02*
X156845D01*
X152400Y71755D02*
Y80645D01*
X147955Y101600D02*
X156845D01*
X152400Y97155D02*
Y106045D01*
X147955Y127000D02*
X156845D01*
X152400Y122555D02*
Y131445D01*
X147955Y177800D02*
X156845D01*
X152400Y173355D02*
Y182245D01*
X122555Y-177800D02*
X131445D01*
X127000Y-182245D02*
Y-173355D01*
X122555Y-152400D02*
X131445D01*
X127000Y-156845D02*
Y-147955D01*
X122555Y152400D02*
X131445D01*
X127000Y147955D02*
Y156845D01*
X122555Y177800D02*
X131445D01*
X127000Y173355D02*
Y182245D01*
X97155Y-177800D02*
X106045D01*
X101600Y-182245D02*
Y-173355D01*
X97155Y-152400D02*
X106045D01*
X101600Y-156845D02*
Y-147955D01*
X97155Y152400D02*
X106045D01*
X101600Y147955D02*
Y156845D01*
X97155Y177800D02*
X106045D01*
X101600Y173355D02*
Y182245D01*
X71755Y-177800D02*
X80645D01*
X76200Y-182245D02*
Y-173355D01*
X71755Y-152400D02*
X80645D01*
X76200Y-156845D02*
Y-147955D01*
X71755Y152400D02*
X80645D01*
X76200Y147955D02*
Y156845D01*
X71755Y177800D02*
X80645D01*
X76200Y173355D02*
Y182245D01*
X46355Y-177800D02*
X55245D01*
X50800Y-182245D02*
Y-173355D01*
X46355Y-152400D02*
X55245D01*
X50800Y-156845D02*
Y-147955D01*
X46355Y152400D02*
X55245D01*
X50800Y147955D02*
Y156845D01*
X46355Y177800D02*
X55245D01*
X50800Y173355D02*
Y182245D01*
X20955Y-177800D02*
X29845D01*
X25400Y-182245D02*
Y-173355D01*
X20955Y-152400D02*
X29845D01*
X25400Y-156845D02*
Y-147955D01*
X20955Y152400D02*
X29845D01*
X25400Y147955D02*
Y156845D01*
X20955Y177800D02*
X29845D01*
X25400Y173355D02*
Y182245D01*
X-4445Y-177800D02*
X4445D01*
X-0Y-182245D02*
Y-173355D01*
X-4445Y-152400D02*
X4445D01*
X-0Y-156845D02*
Y-147955D01*
X-4445Y152400D02*
X4445D01*
X-0Y147955D02*
Y156845D01*
X-4445Y177800D02*
X4445D01*
X-0Y173355D02*
Y182245D01*
X-29845Y-177800D02*
X-20955D01*
X-25400Y-182245D02*
Y-173355D01*
X-29845Y-152400D02*
X-20955D01*
X-25400Y-156845D02*
Y-147955D01*
X-29845Y152400D02*
X-20955D01*
X-25400Y147955D02*
Y156845D01*
X-29845Y177800D02*
X-20955D01*
X-25400Y173355D02*
Y182245D01*
X-55245Y-177800D02*
X-46355D01*
X-50800Y-182245D02*
Y-173355D01*
X-55245Y-152400D02*
X-46355D01*
X-50800Y-156845D02*
Y-147955D01*
X-55245Y152400D02*
X-46355D01*
X-50800Y147955D02*
Y156845D01*
X-55245Y177800D02*
X-46355D01*
X-50800Y173355D02*
Y182245D01*
X-80645Y-177800D02*
X-71755D01*
X-76200Y-182245D02*
Y-173355D01*
X-80645Y-152400D02*
X-71755D01*
X-76200Y-156845D02*
Y-147955D01*
X-80645Y152400D02*
X-71755D01*
X-76200Y147955D02*
Y156845D01*
X-80645Y177800D02*
X-71755D01*
X-76200Y173355D02*
Y182245D01*
X-106045Y-177800D02*
X-97155D01*
X-101600Y-182245D02*
Y-173355D01*
X-106045Y-152400D02*
X-97155D01*
X-101600Y-156845D02*
Y-147955D01*
X-106045Y152400D02*
X-97155D01*
X-101600Y147955D02*
Y156845D01*
X-106045Y177800D02*
X-97155D01*
X-101600Y173355D02*
Y182245D01*
X-131445Y-177800D02*
X-122555D01*
X-127000Y-182245D02*
Y-173355D01*
X-131445Y-152400D02*
X-122555D01*
X-127000Y-156845D02*
Y-147955D01*
X-131445Y152400D02*
X-122555D01*
X-127000Y147955D02*
Y156845D01*
X-131445Y177800D02*
X-122555D01*
X-127000Y173355D02*
Y182245D01*
X-156845Y-177800D02*
X-147955D01*
X-152400Y-182245D02*
Y-173355D01*
X-156845Y-127000D02*
X-147955D01*
X-152400Y-131445D02*
Y-122555D01*
X-156845Y-101600D02*
X-147955D01*
X-152400Y-106045D02*
Y-97155D01*
X-156845Y-76200D02*
X-147955D01*
X-152400Y-80645D02*
Y-71755D01*
X-156845Y-50800D02*
X-147955D01*
X-152400Y-55245D02*
Y-46355D01*
X-156845Y-25400D02*
X-147955D01*
X-152400Y-29845D02*
Y-20955D01*
X-156845Y-0D02*
X-147955D01*
X-152400Y-4445D02*
Y4445D01*
X-156845Y25400D02*
X-147955D01*
X-152400Y20955D02*
Y29845D01*
X-156845Y50800D02*
X-147955D01*
X-152400Y46355D02*
Y55245D01*
X-156845Y76200D02*
X-147955D01*
X-152400Y71755D02*
Y80645D01*
X-156845Y101600D02*
X-147955D01*
X-152400Y97155D02*
Y106045D01*
X-156845Y127000D02*
X-147955D01*
X-152400Y122555D02*
Y131445D01*
X-156845Y177800D02*
X-147955D01*
X-152400Y173355D02*
Y182245D01*
X-182245Y-177800D02*
X-173355D01*
X-177800Y-182245D02*
Y-173355D01*
X-182245Y-152400D02*
X-173355D01*
X-177800Y-156845D02*
Y-147955D01*
X-182245Y-127000D02*
X-173355D01*
X-177800Y-131445D02*
Y-122555D01*
X-182245Y-101600D02*
X-173355D01*
X-177800Y-106045D02*
Y-97155D01*
X-182245Y-76200D02*
X-173355D01*
X-177800Y-80645D02*
Y-71755D01*
X-182245Y-50800D02*
X-173355D01*
X-177800Y-55245D02*
Y-46355D01*
X-182245Y-25400D02*
X-173355D01*
X-177800Y-29845D02*
Y-20955D01*
X-182245Y-0D02*
X-173355D01*
X-177800Y-4445D02*
Y4445D01*
X-182245Y25400D02*
X-173355D01*
X-177800Y20955D02*
Y29845D01*
X-182245Y50800D02*
X-173355D01*
X-177800Y46355D02*
Y55245D01*
X-182245Y76200D02*
X-173355D01*
X-177800Y71755D02*
Y80645D01*
X-182245Y101600D02*
X-173355D01*
X-177800Y97155D02*
Y106045D01*
X-182245Y127000D02*
X-173355D01*
X-177800Y122555D02*
Y131445D01*
X-182245Y152400D02*
X-173355D01*
X-177800Y147955D02*
Y156845D01*
X-182245Y177800D02*
X-173355D01*
X-177800Y173355D02*
Y182245D01*
X-156845Y152400D02*
X-147955D01*
X-152400Y147955D02*
Y156845D01*
X-156845Y-152400D02*
X-147955D01*
X-152400Y-156845D02*
Y-147955D01*
X147955Y-152400D02*
X156845D01*
X152400Y-156845D02*
Y-147955D01*
X147955Y152400D02*
X156845D01*
X152400Y147955D02*
Y156845D01*
X-55250Y-50500D02*
X-52250D01*
X-53750Y-52000D02*
Y-49000D01*
X-63500Y-60000D02*
X-60500D01*
X-62000Y-61500D02*
Y-58500D01*
X59500Y-10000D02*
X62500D01*
X61000Y-11500D02*
Y-8500D01*
X111750Y12750D02*
X114750D01*
X113250Y11250D02*
Y14250D01*
X58250Y19750D02*
X61250D01*
X59750Y18250D02*
Y21250D01*
X48500Y23250D02*
X51500D01*
X50000Y21750D02*
Y24750D01*
X110750Y108500D02*
X113750D01*
X112250Y107000D02*
Y110000D01*
X17000Y61250D02*
X20000D01*
X18500Y59750D02*
Y62750D01*
X6500Y61250D02*
X9500D01*
X8000Y59750D02*
Y62750D01*
X-75250Y84500D02*
X-72250D01*
X-73750Y83000D02*
Y86000D01*
X79250Y-74500D02*
X82250D01*
X80750Y-76000D02*
Y-73000D01*
M02*
