G04 Layer_Color=2752767*
%FSLAX44Y44*%
%MOMM*%
G71*
G01*
G75*
%ADD16C,0.3500*%
%ADD31C,0.0508*%
%ADD32C,0.0677*%
D16*
X-181610Y193040D02*
X193040D01*
X-193040Y181610D02*
X-181610Y193040D01*
X-193040Y-193040D02*
Y181610D01*
X193040Y-193040D02*
Y193040D01*
X-193040Y-193040D02*
X193040D01*
D31*
X175768Y-179832D02*
Y-175768D01*
X179832D01*
Y-179832D01*
X175768D01*
Y-154432D02*
Y-150368D01*
X179832D01*
Y-154432D01*
X175768D01*
Y-129032D02*
Y-124968D01*
X179832D01*
Y-129032D01*
X175768D01*
Y-103632D02*
Y-99568D01*
X179832D01*
Y-103632D01*
X175768D01*
Y-78232D02*
Y-74168D01*
X179832D01*
Y-78232D01*
X175768D01*
Y-52832D02*
Y-48768D01*
X179832D01*
Y-52832D01*
X175768D01*
Y-27432D02*
Y-23368D01*
X179832D01*
Y-27432D01*
X175768D01*
Y-2032D02*
Y2032D01*
X179832D01*
Y-2032D01*
X175768D01*
Y23368D02*
Y27432D01*
X179832D01*
Y23368D01*
X175768D01*
Y48768D02*
Y52832D01*
X179832D01*
Y48768D01*
X175768D01*
Y74168D02*
Y78232D01*
X179832D01*
Y74168D01*
X175768D01*
Y99568D02*
Y103632D01*
X179832D01*
Y99568D01*
X175768D01*
Y124968D02*
Y129032D01*
X179832D01*
Y124968D01*
X175768D01*
Y150368D02*
Y154432D01*
X179832D01*
Y150368D01*
X175768D01*
Y175768D02*
Y179832D01*
X179832D01*
Y175768D01*
X175768D01*
X150368Y-179832D02*
Y-175768D01*
X154432D01*
Y-179832D01*
X150368D01*
Y-129032D02*
Y-124968D01*
X154432D01*
Y-129032D01*
X150368D01*
Y-103632D02*
Y-99568D01*
X154432D01*
Y-103632D01*
X150368D01*
Y-78232D02*
Y-74168D01*
X154432D01*
Y-78232D01*
X150368D01*
Y-52832D02*
Y-48768D01*
X154432D01*
Y-52832D01*
X150368D01*
Y-27432D02*
Y-23368D01*
X154432D01*
Y-27432D01*
X150368D01*
Y-2032D02*
Y2032D01*
X154432D01*
Y-2032D01*
X150368D01*
Y23368D02*
Y27432D01*
X154432D01*
Y23368D01*
X150368D01*
Y48768D02*
Y52832D01*
X154432D01*
Y48768D01*
X150368D01*
Y74168D02*
Y78232D01*
X154432D01*
Y74168D01*
X150368D01*
Y99568D02*
Y103632D01*
X154432D01*
Y99568D01*
X150368D01*
Y124968D02*
Y129032D01*
X154432D01*
Y124968D01*
X150368D01*
Y175768D02*
Y179832D01*
X154432D01*
Y175768D01*
X150368D01*
X124968Y-179832D02*
Y-175768D01*
X129032D01*
Y-179832D01*
X124968D01*
Y-154432D02*
Y-150368D01*
X129032D01*
Y-154432D01*
X124968D01*
Y150368D02*
Y154432D01*
X129032D01*
Y150368D01*
X124968D01*
Y175768D02*
Y179832D01*
X129032D01*
Y175768D01*
X124968D01*
X99568Y-179832D02*
Y-175768D01*
X103632D01*
Y-179832D01*
X99568D01*
Y-154432D02*
Y-150368D01*
X103632D01*
Y-154432D01*
X99568D01*
Y150368D02*
Y154432D01*
X103632D01*
Y150368D01*
X99568D01*
Y175768D02*
Y179832D01*
X103632D01*
Y175768D01*
X99568D01*
X74168Y-179832D02*
Y-175768D01*
X78232D01*
Y-179832D01*
X74168D01*
Y-154432D02*
Y-150368D01*
X78232D01*
Y-154432D01*
X74168D01*
Y150368D02*
Y154432D01*
X78232D01*
Y150368D01*
X74168D01*
Y175768D02*
Y179832D01*
X78232D01*
Y175768D01*
X74168D01*
X48768Y-179832D02*
Y-175768D01*
X52832D01*
Y-179832D01*
X48768D01*
Y-154432D02*
Y-150368D01*
X52832D01*
Y-154432D01*
X48768D01*
Y150368D02*
Y154432D01*
X52832D01*
Y150368D01*
X48768D01*
Y175768D02*
Y179832D01*
X52832D01*
Y175768D01*
X48768D01*
X23368Y-179832D02*
Y-175768D01*
X27432D01*
Y-179832D01*
X23368D01*
Y-154432D02*
Y-150368D01*
X27432D01*
Y-154432D01*
X23368D01*
Y150368D02*
Y154432D01*
X27432D01*
Y150368D01*
X23368D01*
Y175768D02*
Y179832D01*
X27432D01*
Y175768D01*
X23368D01*
X-2032Y-179832D02*
Y-175768D01*
X2032D01*
Y-179832D01*
X-2032D01*
Y-154432D02*
Y-150368D01*
X2032D01*
Y-154432D01*
X-2032D01*
Y150368D02*
Y154432D01*
X2032D01*
Y150368D01*
X-2032D01*
Y175768D02*
Y179832D01*
X2032D01*
Y175768D01*
X-2032D01*
X-27432Y-179832D02*
Y-175768D01*
X-23368D01*
Y-179832D01*
X-27432D01*
Y-154432D02*
Y-150368D01*
X-23368D01*
Y-154432D01*
X-27432D01*
Y150368D02*
Y154432D01*
X-23368D01*
Y150368D01*
X-27432D01*
Y175768D02*
Y179832D01*
X-23368D01*
Y175768D01*
X-27432D01*
X-52832Y-179832D02*
Y-175768D01*
X-48768D01*
Y-179832D01*
X-52832D01*
Y-154432D02*
Y-150368D01*
X-48768D01*
Y-154432D01*
X-52832D01*
Y150368D02*
Y154432D01*
X-48768D01*
Y150368D01*
X-52832D01*
Y175768D02*
Y179832D01*
X-48768D01*
Y175768D01*
X-52832D01*
X-78232Y-179832D02*
Y-175768D01*
X-74168D01*
Y-179832D01*
X-78232D01*
Y-154432D02*
Y-150368D01*
X-74168D01*
Y-154432D01*
X-78232D01*
Y150368D02*
Y154432D01*
X-74168D01*
Y150368D01*
X-78232D01*
Y175768D02*
Y179832D01*
X-74168D01*
Y175768D01*
X-78232D01*
X-103632Y-179832D02*
Y-175768D01*
X-99568D01*
Y-179832D01*
X-103632D01*
Y-154432D02*
Y-150368D01*
X-99568D01*
Y-154432D01*
X-103632D01*
Y150368D02*
Y154432D01*
X-99568D01*
Y150368D01*
X-103632D01*
Y175768D02*
Y179832D01*
X-99568D01*
Y175768D01*
X-103632D01*
X-129032Y-179832D02*
Y-175768D01*
X-124968D01*
Y-179832D01*
X-129032D01*
Y-154432D02*
Y-150368D01*
X-124968D01*
Y-154432D01*
X-129032D01*
Y150368D02*
Y154432D01*
X-124968D01*
Y150368D01*
X-129032D01*
Y175768D02*
Y179832D01*
X-124968D01*
Y175768D01*
X-129032D01*
X-154432Y-179832D02*
Y-175768D01*
X-150368D01*
Y-179832D01*
X-154432D01*
Y-129032D02*
Y-124968D01*
X-150368D01*
Y-129032D01*
X-154432D01*
Y-103632D02*
Y-99568D01*
X-150368D01*
Y-103632D01*
X-154432D01*
Y-78232D02*
Y-74168D01*
X-150368D01*
Y-78232D01*
X-154432D01*
Y-52832D02*
Y-48768D01*
X-150368D01*
Y-52832D01*
X-154432D01*
Y-27432D02*
Y-23368D01*
X-150368D01*
Y-27432D01*
X-154432D01*
Y-2032D02*
Y2032D01*
X-150368D01*
Y-2032D01*
X-154432D01*
Y23368D02*
Y27432D01*
X-150368D01*
Y23368D01*
X-154432D01*
Y48768D02*
Y52832D01*
X-150368D01*
Y48768D01*
X-154432D01*
Y74168D02*
Y78232D01*
X-150368D01*
Y74168D01*
X-154432D01*
Y99568D02*
Y103632D01*
X-150368D01*
Y99568D01*
X-154432D01*
Y124968D02*
Y129032D01*
X-150368D01*
Y124968D01*
X-154432D01*
Y175768D02*
Y179832D01*
X-150368D01*
Y175768D01*
X-154432D01*
X-179832Y-179832D02*
Y-175768D01*
X-175768D01*
Y-179832D01*
X-179832D01*
Y-154432D02*
Y-150368D01*
X-175768D01*
Y-154432D01*
X-179832D01*
Y-129032D02*
Y-124968D01*
X-175768D01*
Y-129032D01*
X-179832D01*
Y-103632D02*
Y-99568D01*
X-175768D01*
Y-103632D01*
X-179832D01*
Y-78232D02*
Y-74168D01*
X-175768D01*
Y-78232D01*
X-179832D01*
Y-52832D02*
Y-48768D01*
X-175768D01*
Y-52832D01*
X-179832D01*
Y-27432D02*
Y-23368D01*
X-175768D01*
Y-27432D01*
X-179832D01*
Y-2032D02*
Y2032D01*
X-175768D01*
Y-2032D01*
X-179832D01*
Y23368D02*
Y27432D01*
X-175768D01*
Y23368D01*
X-179832D01*
Y48768D02*
Y52832D01*
X-175768D01*
Y48768D01*
X-179832D01*
Y74168D02*
Y78232D01*
X-175768D01*
Y74168D01*
X-179832D01*
Y99568D02*
Y103632D01*
X-175768D01*
Y99568D01*
X-179832D01*
Y124968D02*
Y129032D01*
X-175768D01*
Y124968D01*
X-179832D01*
Y150368D02*
Y154432D01*
X-175768D01*
Y150368D01*
X-179832D01*
Y175768D02*
Y179832D01*
X-175768D01*
Y175768D01*
X-179832D01*
X-154432Y150368D02*
Y154432D01*
X-150368D01*
Y150368D01*
X-154432D01*
Y-154432D02*
Y-150368D01*
X-150368D01*
Y-154432D01*
X-154432D01*
X150368D02*
Y-150368D01*
X154432D01*
Y-154432D01*
X150368D01*
Y150368D02*
Y154432D01*
X154432D01*
Y150368D01*
X150368D01*
D32*
X-51718Y-50500D02*
G03*
X-51718Y-50500I-2032J0D01*
G01*
X-59968Y-60000D02*
G03*
X-59968Y-60000I-2032J0D01*
G01*
X63032Y-10000D02*
G03*
X63032Y-10000I-2032J0D01*
G01*
X115282Y12750D02*
G03*
X115282Y12750I-2032J0D01*
G01*
X61782Y19750D02*
G03*
X61782Y19750I-2032J0D01*
G01*
X52032Y23250D02*
G03*
X52032Y23250I-2032J0D01*
G01*
X114282Y108500D02*
G03*
X114282Y108500I-2032J0D01*
G01*
X20532Y61250D02*
G03*
X20532Y61250I-2032J0D01*
G01*
X10032Y61250D02*
G03*
X10032Y61250I-2032J0D01*
G01*
X-71718Y84500D02*
G03*
X-71718Y84500I-2032J0D01*
G01*
X82782Y-74500D02*
G03*
X82782Y-74500I-2032J0D01*
G01*
M02*
