G04 Layer_Color=2752767*
%FSLAX44Y44*%
%MOMM*%
G71*
G01*
G75*
%ADD34C,0.0508*%
%ADD35C,0.0677*%
D34*
X175768Y-179832D02*
Y-175768D01*
X179832D01*
Y-179832D01*
X175768D01*
Y-154432D02*
Y-150368D01*
X179832D01*
Y-154432D01*
X175768D01*
Y-129032D02*
Y-124968D01*
X179832D01*
Y-129032D01*
X175768D01*
Y-103632D02*
Y-99568D01*
X179832D01*
Y-103632D01*
X175768D01*
Y-78232D02*
Y-74168D01*
X179832D01*
Y-78232D01*
X175768D01*
Y-52832D02*
Y-48768D01*
X179832D01*
Y-52832D01*
X175768D01*
Y-27432D02*
Y-23368D01*
X179832D01*
Y-27432D01*
X175768D01*
Y-2032D02*
Y2032D01*
X179832D01*
Y-2032D01*
X175768D01*
Y23368D02*
Y27432D01*
X179832D01*
Y23368D01*
X175768D01*
Y48768D02*
Y52832D01*
X179832D01*
Y48768D01*
X175768D01*
Y74168D02*
Y78232D01*
X179832D01*
Y74168D01*
X175768D01*
Y99568D02*
Y103632D01*
X179832D01*
Y99568D01*
X175768D01*
Y124968D02*
Y129032D01*
X179832D01*
Y124968D01*
X175768D01*
Y150368D02*
Y154432D01*
X179832D01*
Y150368D01*
X175768D01*
Y175768D02*
Y179832D01*
X179832D01*
Y175768D01*
X175768D01*
X150368Y-179832D02*
Y-175768D01*
X154432D01*
Y-179832D01*
X150368D01*
Y-129032D02*
Y-124968D01*
X154432D01*
Y-129032D01*
X150368D01*
Y-103632D02*
Y-99568D01*
X154432D01*
Y-103632D01*
X150368D01*
Y-78232D02*
Y-74168D01*
X154432D01*
Y-78232D01*
X150368D01*
Y-52832D02*
Y-48768D01*
X154432D01*
Y-52832D01*
X150368D01*
Y-27432D02*
Y-23368D01*
X154432D01*
Y-27432D01*
X150368D01*
Y-2032D02*
Y2032D01*
X154432D01*
Y-2032D01*
X150368D01*
Y23368D02*
Y27432D01*
X154432D01*
Y23368D01*
X150368D01*
Y48768D02*
Y52832D01*
X154432D01*
Y48768D01*
X150368D01*
Y74168D02*
Y78232D01*
X154432D01*
Y74168D01*
X150368D01*
Y99568D02*
Y103632D01*
X154432D01*
Y99568D01*
X150368D01*
Y124968D02*
Y129032D01*
X154432D01*
Y124968D01*
X150368D01*
Y175768D02*
Y179832D01*
X154432D01*
Y175768D01*
X150368D01*
X124968Y-179832D02*
Y-175768D01*
X129032D01*
Y-179832D01*
X124968D01*
Y-154432D02*
Y-150368D01*
X129032D01*
Y-154432D01*
X124968D01*
Y150368D02*
Y154432D01*
X129032D01*
Y150368D01*
X124968D01*
Y175768D02*
Y179832D01*
X129032D01*
Y175768D01*
X124968D01*
X99568Y-179832D02*
Y-175768D01*
X103632D01*
Y-179832D01*
X99568D01*
Y-154432D02*
Y-150368D01*
X103632D01*
Y-154432D01*
X99568D01*
Y150368D02*
Y154432D01*
X103632D01*
Y150368D01*
X99568D01*
Y175768D02*
Y179832D01*
X103632D01*
Y175768D01*
X99568D01*
X74168Y-179832D02*
Y-175768D01*
X78232D01*
Y-179832D01*
X74168D01*
Y-154432D02*
Y-150368D01*
X78232D01*
Y-154432D01*
X74168D01*
Y150368D02*
Y154432D01*
X78232D01*
Y150368D01*
X74168D01*
Y175768D02*
Y179832D01*
X78232D01*
Y175768D01*
X74168D01*
X48768Y-179832D02*
Y-175768D01*
X52832D01*
Y-179832D01*
X48768D01*
Y-154432D02*
Y-150368D01*
X52832D01*
Y-154432D01*
X48768D01*
Y150368D02*
Y154432D01*
X52832D01*
Y150368D01*
X48768D01*
Y175768D02*
Y179832D01*
X52832D01*
Y175768D01*
X48768D01*
X23368Y-179832D02*
Y-175768D01*
X27432D01*
Y-179832D01*
X23368D01*
Y-154432D02*
Y-150368D01*
X27432D01*
Y-154432D01*
X23368D01*
Y150368D02*
Y154432D01*
X27432D01*
Y150368D01*
X23368D01*
Y175768D02*
Y179832D01*
X27432D01*
Y175768D01*
X23368D01*
X-2032Y-179832D02*
Y-175768D01*
X2032D01*
Y-179832D01*
X-2032D01*
Y-154432D02*
Y-150368D01*
X2032D01*
Y-154432D01*
X-2032D01*
Y150368D02*
Y154432D01*
X2032D01*
Y150368D01*
X-2032D01*
Y175768D02*
Y179832D01*
X2032D01*
Y175768D01*
X-2032D01*
X-27432Y-179832D02*
Y-175768D01*
X-23368D01*
Y-179832D01*
X-27432D01*
Y-154432D02*
Y-150368D01*
X-23368D01*
Y-154432D01*
X-27432D01*
Y150368D02*
Y154432D01*
X-23368D01*
Y150368D01*
X-27432D01*
Y175768D02*
Y179832D01*
X-23368D01*
Y175768D01*
X-27432D01*
X-52832Y-179832D02*
Y-175768D01*
X-48768D01*
Y-179832D01*
X-52832D01*
Y-154432D02*
Y-150368D01*
X-48768D01*
Y-154432D01*
X-52832D01*
Y150368D02*
Y154432D01*
X-48768D01*
Y150368D01*
X-52832D01*
Y175768D02*
Y179832D01*
X-48768D01*
Y175768D01*
X-52832D01*
X-78232Y-179832D02*
Y-175768D01*
X-74168D01*
Y-179832D01*
X-78232D01*
Y-154432D02*
Y-150368D01*
X-74168D01*
Y-154432D01*
X-78232D01*
Y150368D02*
Y154432D01*
X-74168D01*
Y150368D01*
X-78232D01*
Y175768D02*
Y179832D01*
X-74168D01*
Y175768D01*
X-78232D01*
X-103632Y-179832D02*
Y-175768D01*
X-99568D01*
Y-179832D01*
X-103632D01*
Y-154432D02*
Y-150368D01*
X-99568D01*
Y-154432D01*
X-103632D01*
Y150368D02*
Y154432D01*
X-99568D01*
Y150368D01*
X-103632D01*
Y175768D02*
Y179832D01*
X-99568D01*
Y175768D01*
X-103632D01*
X-129032Y-179832D02*
Y-175768D01*
X-124968D01*
Y-179832D01*
X-129032D01*
Y-154432D02*
Y-150368D01*
X-124968D01*
Y-154432D01*
X-129032D01*
Y150368D02*
Y154432D01*
X-124968D01*
Y150368D01*
X-129032D01*
Y175768D02*
Y179832D01*
X-124968D01*
Y175768D01*
X-129032D01*
X-154432Y-179832D02*
Y-175768D01*
X-150368D01*
Y-179832D01*
X-154432D01*
Y-129032D02*
Y-124968D01*
X-150368D01*
Y-129032D01*
X-154432D01*
Y-103632D02*
Y-99568D01*
X-150368D01*
Y-103632D01*
X-154432D01*
Y-78232D02*
Y-74168D01*
X-150368D01*
Y-78232D01*
X-154432D01*
Y-52832D02*
Y-48768D01*
X-150368D01*
Y-52832D01*
X-154432D01*
Y-27432D02*
Y-23368D01*
X-150368D01*
Y-27432D01*
X-154432D01*
Y-2032D02*
Y2032D01*
X-150368D01*
Y-2032D01*
X-154432D01*
Y23368D02*
Y27432D01*
X-150368D01*
Y23368D01*
X-154432D01*
Y48768D02*
Y52832D01*
X-150368D01*
Y48768D01*
X-154432D01*
Y74168D02*
Y78232D01*
X-150368D01*
Y74168D01*
X-154432D01*
Y99568D02*
Y103632D01*
X-150368D01*
Y99568D01*
X-154432D01*
Y124968D02*
Y129032D01*
X-150368D01*
Y124968D01*
X-154432D01*
Y175768D02*
Y179832D01*
X-150368D01*
Y175768D01*
X-154432D01*
X-179832Y-179832D02*
Y-175768D01*
X-175768D01*
Y-179832D01*
X-179832D01*
Y-154432D02*
Y-150368D01*
X-175768D01*
Y-154432D01*
X-179832D01*
Y-129032D02*
Y-124968D01*
X-175768D01*
Y-129032D01*
X-179832D01*
Y-103632D02*
Y-99568D01*
X-175768D01*
Y-103632D01*
X-179832D01*
Y-78232D02*
Y-74168D01*
X-175768D01*
Y-78232D01*
X-179832D01*
Y-52832D02*
Y-48768D01*
X-175768D01*
Y-52832D01*
X-179832D01*
Y-27432D02*
Y-23368D01*
X-175768D01*
Y-27432D01*
X-179832D01*
Y-2032D02*
Y2032D01*
X-175768D01*
Y-2032D01*
X-179832D01*
Y23368D02*
Y27432D01*
X-175768D01*
Y23368D01*
X-179832D01*
Y48768D02*
Y52832D01*
X-175768D01*
Y48768D01*
X-179832D01*
Y74168D02*
Y78232D01*
X-175768D01*
Y74168D01*
X-179832D01*
Y99568D02*
Y103632D01*
X-175768D01*
Y99568D01*
X-179832D01*
Y124968D02*
Y129032D01*
X-175768D01*
Y124968D01*
X-179832D01*
Y150368D02*
Y154432D01*
X-175768D01*
Y150368D01*
X-179832D01*
Y175768D02*
Y179832D01*
X-175768D01*
Y175768D01*
X-179832D01*
X-154432Y150368D02*
Y154432D01*
X-150368D01*
Y150368D01*
X-154432D01*
Y-154432D02*
Y-150368D01*
X-150368D01*
Y-154432D01*
X-154432D01*
X150368D02*
Y-150368D01*
X154432D01*
Y-154432D01*
X150368D01*
Y150368D02*
Y154432D01*
X154432D01*
Y150368D01*
X150368D01*
D35*
X-5218Y-73750D02*
G03*
X-5218Y-73750I-2032J0D01*
G01*
X94532Y-21000D02*
G03*
X94532Y-21000I-2032J0D01*
G01*
X122282Y-109250D02*
G03*
X122282Y-109250I-2032J0D01*
G01*
X120032Y-56250D02*
G03*
X120032Y-56250I-2032J0D01*
G01*
X79782Y-100500D02*
G03*
X79782Y-100500I-2032J0D01*
G01*
X126532Y-25250D02*
G03*
X126532Y-25250I-2032J0D01*
G01*
X71532Y-63500D02*
G03*
X71532Y-63500I-2032J0D01*
G01*
X127032Y36500D02*
G03*
X127032Y36500I-2032J0D01*
G01*
X-78218Y-87750D02*
G03*
X-78218Y-87750I-2032J0D01*
G01*
X-84968Y-82000D02*
G03*
X-84968Y-82000I-2032J0D01*
G01*
X-93468Y11250D02*
G03*
X-93468Y11250I-2032J0D01*
G01*
X-37718Y22250D02*
G03*
X-37718Y22250I-2032J0D01*
G01*
X-97468Y-53750D02*
G03*
X-97468Y-53750I-2032J0D01*
G01*
X-105718Y-57750D02*
G03*
X-105718Y-57750I-2032J0D01*
G01*
X-114218Y-55000D02*
G03*
X-114218Y-55000I-2032J0D01*
G01*
X-70718Y-92250D02*
G03*
X-70718Y-92250I-2032J0D01*
G01*
X-126468Y118000D02*
G03*
X-126468Y118000I-2032J0D01*
G01*
X-106718Y-79500D02*
G03*
X-106718Y-79500I-2032J0D01*
G01*
X61282Y136000D02*
G03*
X61282Y136000I-2032J0D01*
G01*
X73532Y137000D02*
G03*
X73532Y137000I-2032J0D01*
G01*
X77282Y76000D02*
G03*
X77282Y76000I-2032J0D01*
G01*
X70282Y83500D02*
G03*
X70282Y83500I-2032J0D01*
G01*
X86282Y58250D02*
G03*
X86282Y58250I-2032J0D01*
G01*
X-25968Y62750D02*
G03*
X-25968Y62750I-2032J0D01*
G01*
X-21218Y15000D02*
G03*
X-21218Y15000I-2032J0D01*
G01*
X-39468Y37250D02*
G03*
X-39468Y37250I-2032J0D01*
G01*
X27032Y-1250D02*
G03*
X27032Y-1250I-2032J0D01*
G01*
X12032Y31250D02*
G03*
X12032Y31250I-2032J0D01*
G01*
X-22468Y6000D02*
G03*
X-22468Y6000I-2032J0D01*
G01*
X-3718Y74750D02*
G03*
X-3718Y74750I-2032J0D01*
G01*
X11532Y103000D02*
G03*
X11532Y103000I-2032J0D01*
G01*
X107032Y-114500D02*
G03*
X107032Y-114500I-2032J0D01*
G01*
X4782Y-115500D02*
G03*
X4782Y-115500I-2032J0D01*
G01*
X29532Y-114000D02*
G03*
X29532Y-114000I-2032J0D01*
G01*
X95532Y-115500D02*
G03*
X95532Y-115500I-2032J0D01*
G01*
X49782Y-113750D02*
G03*
X49782Y-113750I-2032J0D01*
G01*
X782Y-130000D02*
G03*
X782Y-130000I-2032J0D01*
G01*
X-6468Y-124750D02*
G03*
X-6468Y-124750I-2032J0D01*
G01*
X-29468Y18250D02*
G03*
X-29468Y18250I-2032J0D01*
G01*
X-36218Y12750D02*
G03*
X-36218Y12750I-2032J0D01*
G01*
X-81468Y70250D02*
G03*
X-81468Y70250I-2032J0D01*
G01*
X-77468Y78000D02*
G03*
X-77468Y78000I-2032J0D01*
G01*
X-91218Y69250D02*
G03*
X-91218Y69250I-2032J0D01*
G01*
X-47218Y32250D02*
G03*
X-47218Y32250I-2032J0D01*
G01*
X-93468Y80250D02*
G03*
X-93468Y80250I-2032J0D01*
G01*
X-86968Y88000D02*
G03*
X-86968Y88000I-2032J0D01*
G01*
X-97218Y95000D02*
G03*
X-97218Y95000I-2032J0D01*
G01*
X30282Y-9500D02*
G03*
X30282Y-9500I-2032J0D01*
G01*
X16782Y22250D02*
G03*
X16782Y22250I-2032J0D01*
G01*
X44532Y26250D02*
G03*
X44532Y26250I-2032J0D01*
G01*
X22033Y15001D02*
G03*
X22033Y15001I-2032J0D01*
G01*
X27032Y7250D02*
G03*
X27032Y7250I-2032J0D01*
G01*
X-18218Y-27750D02*
G03*
X-18218Y-27750I-2032J0D01*
G01*
X-27218Y71250D02*
G03*
X-27218Y71250I-2032J0D01*
G01*
X-34468Y65000D02*
G03*
X-34468Y65000I-2032J0D01*
G01*
X-11718Y-4750D02*
G03*
X-11718Y-4750I-2032J0D01*
G01*
X-125468Y106250D02*
G03*
X-125468Y106250I-2032J0D01*
G01*
X-53718Y108750D02*
G03*
X-53718Y108750I-2032J0D01*
G01*
X24782Y85000D02*
G03*
X24782Y85000I-2032J0D01*
G01*
X67782Y96250D02*
G03*
X67782Y96250I-2032J0D01*
G01*
X83532Y7500D02*
G03*
X83532Y7500I-2032J0D01*
G01*
X-123718Y11500D02*
G03*
X-123718Y11500I-2032J0D01*
G01*
X-101468Y4000D02*
G03*
X-101468Y4000I-2032J0D01*
G01*
X-60468Y9250D02*
G03*
X-60468Y9250I-2032J0D01*
G01*
X94032Y9000D02*
G03*
X94032Y9000I-2032J0D01*
G01*
X88532Y-10250D02*
G03*
X88532Y-10250I-2032J0D01*
G01*
X115532Y9000D02*
G03*
X115532Y9000I-2032J0D01*
G01*
X60032Y6750D02*
G03*
X60032Y6750I-2032J0D01*
G01*
X115282Y52000D02*
G03*
X115282Y52000I-2032J0D01*
G01*
X94032Y52750D02*
G03*
X94032Y52750I-2032J0D01*
G01*
X-116468Y52500D02*
G03*
X-116468Y52500I-2032J0D01*
G01*
X-107218Y50750D02*
G03*
X-107218Y50750I-2032J0D01*
G01*
X-114468Y65500D02*
G03*
X-114468Y65500I-2032J0D01*
G01*
X103632Y89350D02*
G03*
X103632Y89350I-2032J0D01*
G01*
X-3218Y116500D02*
G03*
X-3218Y116500I-2032J0D01*
G01*
X4782Y111250D02*
G03*
X4782Y111250I-2032J0D01*
G01*
X120532Y115250D02*
G03*
X120532Y115250I-2032J0D01*
G01*
X-20468Y44250D02*
G03*
X-20468Y44250I-2032J0D01*
G01*
X84453Y31711D02*
G03*
X84453Y31711I-2032J0D01*
G01*
X-12968Y38250D02*
G03*
X-12968Y38250I-2032J0D01*
G01*
X-4468Y-42000D02*
G03*
X-4468Y-42000I-2032J0D01*
G01*
X41032Y-84000D02*
G03*
X41032Y-84000I-2032J0D01*
G01*
X-125718Y-37250D02*
G03*
X-125718Y-37250I-2032J0D01*
G01*
X-118974Y-31502D02*
G03*
X-118974Y-31502I-2032J0D01*
G01*
X-91468Y-4500D02*
G03*
X-91468Y-4500I-2032J0D01*
G01*
X-24718D02*
G03*
X-24718Y-4500I-2032J0D01*
G01*
X34532Y-33750D02*
G03*
X34532Y-33750I-2032J0D01*
G01*
X136532Y-30500D02*
G03*
X136532Y-30500I-2032J0D01*
G01*
X29532Y-41000D02*
G03*
X29532Y-41000I-2032J0D01*
G01*
X-28968Y-44250D02*
G03*
X-28968Y-44250I-2032J0D01*
G01*
X-37968Y-50500D02*
G03*
X-37968Y-50500I-2032J0D01*
G01*
X-38718Y-63500D02*
G03*
X-38718Y-63500I-2032J0D01*
G01*
X-29218Y-58750D02*
G03*
X-29218Y-58750I-2032J0D01*
G01*
X-38218Y-36500D02*
G03*
X-38218Y-36500I-2032J0D01*
G01*
X-34970Y-72003D02*
G03*
X-34970Y-72003I-2032J0D01*
G01*
X-6343Y-51500D02*
G03*
X-6343Y-51500I-2032J0D01*
G01*
X-5718Y-62250D02*
G03*
X-5718Y-62250I-2032J0D01*
G01*
X16782Y-137000D02*
G03*
X16782Y-137000I-2032J0D01*
G01*
X-50218Y-108500D02*
G03*
X-50218Y-108500I-2032J0D01*
G01*
X89282Y-48000D02*
G03*
X89282Y-48000I-2032J0D01*
G01*
X97282Y-54250D02*
G03*
X97282Y-54250I-2032J0D01*
G01*
X110782Y-41000D02*
G03*
X110782Y-41000I-2032J0D01*
G01*
X103282Y-61000D02*
G03*
X103282Y-61000I-2032J0D01*
G01*
X-117968Y-109500D02*
G03*
X-117968Y-109500I-2032J0D01*
G01*
X-112218Y-117000D02*
G03*
X-112218Y-117000I-2032J0D01*
G01*
X-83468Y-95250D02*
G03*
X-83468Y-95250I-2032J0D01*
G01*
X75282Y-71750D02*
G03*
X75282Y-71750I-2032J0D01*
G01*
X62782Y-64250D02*
G03*
X62782Y-64250I-2032J0D01*
G01*
X66032Y-73000D02*
G03*
X66032Y-73000I-2032J0D01*
G01*
X58282Y-79750D02*
G03*
X58282Y-79750I-2032J0D01*
G01*
X50032Y-84750D02*
G03*
X50032Y-84750I-2032J0D01*
G01*
X48282Y18000D02*
G03*
X48282Y18000I-2032J0D01*
G01*
X117532Y106750D02*
G03*
X117532Y106750I-2032J0D01*
G01*
Y91500D02*
G03*
X117532Y91500I-2032J0D01*
G01*
X137032Y87500D02*
G03*
X137032Y87500I-2032J0D01*
G01*
X34532Y-77000D02*
G03*
X34532Y-77000I-2032J0D01*
G01*
M02*
