G04 Layer_Color=8388736*
%FSLAX44Y44*%
%MOMM*%
G71*
G01*
G75*
%ADD24R,1.5032X1.2032*%
%ADD25R,1.2032X1.5032*%
%ADD26R,0.8532X1.9532*%
G04:AMPARAMS|DCode=27|XSize=1.7032mm|YSize=0.5032mm|CornerRadius=0mm|HoleSize=0mm|Usage=FLASHONLY|Rotation=45.000|XOffset=0mm|YOffset=0mm|HoleType=Round|Shape=Rectangle|*
%AMROTATEDRECTD27*
4,1,4,-0.4243,-0.7801,-0.7801,-0.4243,0.4243,0.7801,0.7801,0.4243,-0.4243,-0.7801,0.0*
%
%ADD27ROTATEDRECTD27*%

G04:AMPARAMS|DCode=28|XSize=1.7032mm|YSize=0.5032mm|CornerRadius=0mm|HoleSize=0mm|Usage=FLASHONLY|Rotation=135.000|XOffset=0mm|YOffset=0mm|HoleType=Round|Shape=Rectangle|*
%AMROTATEDRECTD28*
4,1,4,0.7801,-0.4243,0.4243,-0.7801,-0.7801,0.4243,-0.4243,0.7801,0.7801,-0.4243,0.0*
%
%ADD28ROTATEDRECTD28*%

%ADD29C,2.0000*%
%ADD30C,1.8542*%
%ADD31R,1.8542X1.8542*%
D24*
X-130000Y-67250D02*
D03*
Y-47750D02*
D03*
X125000Y-94750D02*
D03*
Y-75250D02*
D03*
X102500D02*
D03*
Y-94750D02*
D03*
X125000Y-9750D02*
D03*
Y9750D02*
D03*
X75000Y124750D02*
D03*
Y105250D02*
D03*
X52500Y124750D02*
D03*
Y105250D02*
D03*
X-127500Y97250D02*
D03*
Y77750D02*
D03*
D25*
X-72250Y-127500D02*
D03*
X-52750D02*
D03*
X57250D02*
D03*
X37750D02*
D03*
X-109750Y122500D02*
D03*
X-90250D02*
D03*
D26*
X93450Y72000D02*
D03*
X131550Y128000D02*
D03*
X118850D02*
D03*
X106150D02*
D03*
X93450D02*
D03*
X131550Y72000D02*
D03*
X118850D02*
D03*
X106150D02*
D03*
D27*
X-116874Y-12020D02*
D03*
X-113338Y-15556D02*
D03*
X-109802Y-19091D02*
D03*
X-106267Y-22627D02*
D03*
X-102731Y-26163D02*
D03*
X-99196Y-29698D02*
D03*
X-95660Y-33234D02*
D03*
X-92125Y-36769D02*
D03*
X-88589Y-40305D02*
D03*
X-85054Y-43841D02*
D03*
X-81518Y-47376D02*
D03*
X-77983Y-50911D02*
D03*
X-74447Y-54447D02*
D03*
X-70911Y-57982D02*
D03*
X-67376Y-61518D02*
D03*
X-63840Y-65054D02*
D03*
X-60305Y-68589D02*
D03*
X-56770Y-72125D02*
D03*
X-53234Y-75660D02*
D03*
X-49698Y-79196D02*
D03*
X-46163Y-82732D02*
D03*
X-42628Y-86267D02*
D03*
X-39092Y-89802D02*
D03*
X-35556Y-93338D02*
D03*
X-32020Y-96874D02*
D03*
X76873Y12021D02*
D03*
X73338Y15556D02*
D03*
X69803Y19092D02*
D03*
X66267Y22628D02*
D03*
X62732Y26163D02*
D03*
X59195Y29699D02*
D03*
X55660Y33234D02*
D03*
X52125Y36769D02*
D03*
X48590Y40305D02*
D03*
X45054Y43841D02*
D03*
X41518Y47376D02*
D03*
X37982Y50912D02*
D03*
X34447Y54447D02*
D03*
X30912Y57983D02*
D03*
X27376Y61518D02*
D03*
X23841Y65054D02*
D03*
X20305Y68589D02*
D03*
X16769Y72125D02*
D03*
X13234Y75660D02*
D03*
X9699Y79196D02*
D03*
X6163Y82731D02*
D03*
X2627Y86267D02*
D03*
X-909Y89803D02*
D03*
X-4444Y93338D02*
D03*
X-7979Y96874D02*
D03*
D28*
Y-96874D02*
D03*
X-4444Y-93337D02*
D03*
X-909Y-89802D02*
D03*
X2627Y-86267D02*
D03*
X6163Y-82732D02*
D03*
X9699Y-79196D02*
D03*
X13234Y-75660D02*
D03*
X16769Y-72125D02*
D03*
X20305Y-68589D02*
D03*
X23841Y-65054D02*
D03*
X27376Y-61518D02*
D03*
X30912Y-57982D02*
D03*
X34447Y-54447D02*
D03*
X37982Y-50911D02*
D03*
X41518Y-47376D02*
D03*
X45054Y-43841D02*
D03*
X48589Y-40305D02*
D03*
X52125Y-36769D02*
D03*
X55660Y-33234D02*
D03*
X59195Y-29698D02*
D03*
X62732Y-26163D02*
D03*
X66267Y-22627D02*
D03*
X69803Y-19091D02*
D03*
X73338Y-15556D02*
D03*
X76873Y-12020D02*
D03*
X-32020Y96874D02*
D03*
X-35556Y93338D02*
D03*
X-39092Y89803D02*
D03*
X-42628Y86267D02*
D03*
X-46163Y82732D02*
D03*
X-49698Y79196D02*
D03*
X-53234Y75660D02*
D03*
X-56770Y72125D02*
D03*
X-60305Y68589D02*
D03*
X-63840Y65054D02*
D03*
X-67376Y61518D02*
D03*
X-70911Y57983D02*
D03*
X-74447Y54447D02*
D03*
X-77983Y50912D02*
D03*
X-81518Y47376D02*
D03*
X-85054Y43841D02*
D03*
X-88589Y40305D02*
D03*
X-92125Y36769D02*
D03*
X-95661Y33234D02*
D03*
X-99196Y29699D02*
D03*
X-102732Y26163D02*
D03*
X-106267Y22628D02*
D03*
X-109802Y19092D02*
D03*
X-113338Y15556D02*
D03*
X-116874Y12021D02*
D03*
D29*
X-20000Y108894D02*
D03*
Y-108894D02*
D03*
D30*
X177800Y-177800D02*
D03*
Y-152400D02*
D03*
Y-127000D02*
D03*
Y-101600D02*
D03*
Y-76200D02*
D03*
Y-50800D02*
D03*
Y-25400D02*
D03*
Y0D02*
D03*
Y25400D02*
D03*
Y50800D02*
D03*
Y76200D02*
D03*
Y101600D02*
D03*
Y127000D02*
D03*
Y152400D02*
D03*
Y177800D02*
D03*
X152400Y-177800D02*
D03*
Y-127000D02*
D03*
Y-101600D02*
D03*
Y-76200D02*
D03*
Y-50800D02*
D03*
Y-25400D02*
D03*
Y0D02*
D03*
Y25400D02*
D03*
Y50800D02*
D03*
Y76200D02*
D03*
Y101600D02*
D03*
Y127000D02*
D03*
Y177800D02*
D03*
X127000Y-177800D02*
D03*
Y-152400D02*
D03*
Y152400D02*
D03*
Y177800D02*
D03*
X101600Y-177800D02*
D03*
Y-152400D02*
D03*
Y152400D02*
D03*
Y177800D02*
D03*
X76200Y-177800D02*
D03*
Y-152400D02*
D03*
Y152400D02*
D03*
Y177800D02*
D03*
X50800Y-177800D02*
D03*
Y-152400D02*
D03*
Y152400D02*
D03*
Y177800D02*
D03*
X25400Y-177800D02*
D03*
Y-152400D02*
D03*
Y152400D02*
D03*
Y177800D02*
D03*
X0Y-177800D02*
D03*
Y-152400D02*
D03*
Y152400D02*
D03*
Y177800D02*
D03*
X-25400Y-177800D02*
D03*
Y-152400D02*
D03*
Y152400D02*
D03*
Y177800D02*
D03*
X-50800Y-177800D02*
D03*
Y-152400D02*
D03*
Y152400D02*
D03*
Y177800D02*
D03*
X-76200Y-177800D02*
D03*
Y-152400D02*
D03*
Y152400D02*
D03*
Y177800D02*
D03*
X-101600Y-177800D02*
D03*
Y-152400D02*
D03*
Y152400D02*
D03*
Y177800D02*
D03*
X-127000Y-177800D02*
D03*
Y-152400D02*
D03*
Y152400D02*
D03*
Y177800D02*
D03*
X-152400Y-177800D02*
D03*
Y-127000D02*
D03*
Y-101600D02*
D03*
Y-76200D02*
D03*
Y-50800D02*
D03*
Y-25400D02*
D03*
Y0D02*
D03*
Y25400D02*
D03*
Y50800D02*
D03*
Y76200D02*
D03*
Y101600D02*
D03*
Y127000D02*
D03*
Y177800D02*
D03*
X-177800Y-177800D02*
D03*
Y-152400D02*
D03*
Y-127000D02*
D03*
Y-101600D02*
D03*
Y-76200D02*
D03*
Y-50800D02*
D03*
Y-25400D02*
D03*
Y0D02*
D03*
Y25400D02*
D03*
Y50800D02*
D03*
Y76200D02*
D03*
Y101600D02*
D03*
Y127000D02*
D03*
Y152400D02*
D03*
Y177800D02*
D03*
X-152400Y-152400D02*
D03*
X152400D02*
D03*
Y152400D02*
D03*
D31*
X-152400D02*
D03*
M02*
