M48
;Layer_Color=9474304
;FILE_FORMAT=4:4
METRIC,LZ
;TYPE=PLATED
T1F00S00C0.3000
T2F00S00C0.8890
;TYPE=NON_PLATED
%
T01
X-0011425Y-00117
X-0012Y-001095
X-0010875Y-000795
X-0010775Y-0005775
X-0011625Y-00055
X-000995Y-0005375
X-00087Y-00082
X-0008025Y-0008775
X-0007275Y-0009225
X-000855Y-0009525
X-0005225Y-001085
X-00037002Y-00072003
X-0004075Y-000635
X-0004Y-000505
X-0004025Y-000365
X-00031Y-0004425
X-0003125Y-0005875
X-0000775Y-0006225
X-00008375Y-000515
X-000065Y-00042
X-0002025Y-0002775
X-0001375Y-0000475
X-0002675Y-000045
X-000245Y00006
X-0002325Y00015
X-000315Y0001825
X-0003825Y0001275
X-0003975Y0002225
X-000415Y0003725
X-0004925Y0003225
X-000625Y0000925
X-000955Y0001125
X-001035Y00004
X-000935Y-000045
X-0012575Y000115
X-00121006Y-00031502
X-0012775Y-0003725
X-001185Y000525
X-0010925Y0005075
X-001165Y000655
X-0009325Y0006925
X-000835Y0007025
X-000795Y00078
X-000955Y0008025
X-00089Y00088
X-0009925Y00095
X-001275Y0010625
X-001285Y00118
X-0005575Y0010875
X-0000525Y001165
X0000275Y0011125
X000095Y00103
X0002275Y00085
X-0000575Y0007475
X-0002925Y0007125
X-00028Y0006275
X-000365Y00065
X-000225Y0004425
X-00015Y0003825
X0001Y0003125
X0001475Y0002225
X00020001Y00015001
X00025Y0000725
X00025Y-0000125
X0002825Y-000095
X000325Y-0003375
X000275Y-00041
X000325Y-00077
X00039Y-00084
X00048Y-0008475
X0005625Y-0007975
X00064Y-00073
X0007325Y-0007175
X000695Y-000635
X0006075Y-0006425
X0008725Y-00048
X0009525Y-0005425
X0010125Y-00061
X00118Y-0005625
X0010875Y-00041
X001245Y-0002525
X001345Y-000305
X000925Y-00021
X000865Y-0001025
X000815Y000075
X00092Y00009
X001135
X00125Y000365
X0011325Y00052
X00092Y0005275
X0008425Y0005825
X0007525Y00076
X0006825Y000835
X0006575Y0009625
X001016Y0008935
X001155Y000915
Y0010675
X001185Y0011525
X00135Y000875
X00082421Y00031711
X000425Y0002625
X0004625Y00018
X00058Y0000675
X0007775Y-001005
X000935Y-001155
X00105Y-001145
X0012025Y-0010925
X0004775Y-0011375
X000275Y-00114
X0000275Y-001155
X-0000125Y-0013
X-000085Y-0012475
X0001475Y-00137
X-0000725Y-0007375
X0005925Y00136
X000715Y00137
T02
X-001778Y-001778
X-001524
X-00127
X-001016
X-000762
X-000508
X-000254
X0
X000254
X000508
X000762
X001016
X00127
X001524
X001778
Y-001524
Y-00127
Y-001016
Y-000762
Y-000508
Y-000254
Y0
Y000254
Y000508
Y000762
Y001016
Y00127
Y001524
Y001778
X001524
X00127
Y001524
X001016
Y001778
X000762
Y001524
X000508
Y001778
X000254
Y001524
X0
Y001778
X-000254
Y001524
X-000508
Y001778
X-000762
Y001524
X-001016
Y001778
X-00127
Y001524
X-001524
Y00127
Y001016
Y000762
Y000508
Y000254
Y0
Y-000254
Y-000508
Y-000762
Y-001016
Y-00127
X-001778
Y-001524
X-001524
X-00127
X-001016
X-000762
X-000508
X-000254
X0
X000254
X000508
X000762
X001016
X00127
X001524
Y-00127
Y-001016
Y-000762
Y-000508
Y-000254
Y0
Y000254
Y000508
Y000762
Y001016
Y00127
Y001524
X-001524Y001778
X-001778
Y001524
Y00127
Y001016
Y000762
Y000508
Y000254
Y0
Y-000254
Y-000508
Y-000762
Y-001016
M30
