G04 Layer_Physical_Order=4*
G04 Layer_Color=16711680*
%FSLAX44Y44*%
%MOMM*%
G71*
G01*
G75*
%ADD10R,1.3000X1.0000*%
%ADD16C,0.5000*%
%ADD17C,0.2000*%
%ADD18C,0.3000*%
%ADD19C,1.6510*%
%ADD20R,1.6510X1.6510*%
%ADD21C,0.6000*%
G36*
X-170098Y88800D02*
X-169710Y86849D01*
X-168605Y85195D01*
X-163509Y80099D01*
X-163852Y79269D01*
X-164256Y76200D01*
X-163852Y73131D01*
X-163508Y72301D01*
X-168605Y67205D01*
X-169710Y65551D01*
X-170098Y63600D01*
Y59707D01*
X-171872Y61068D01*
X-174731Y62252D01*
X-177800Y62656D01*
X-180869Y62252D01*
X-183728Y61068D01*
X-185000Y60092D01*
Y66908D01*
X-183728Y65932D01*
X-180869Y64748D01*
X-179050Y64508D01*
Y76200D01*
Y87892D01*
X-180869Y87652D01*
X-183728Y86468D01*
X-185000Y85492D01*
Y92308D01*
X-183728Y91332D01*
X-180869Y90148D01*
X-177800Y89744D01*
X-174731Y90148D01*
X-171872Y91332D01*
X-170098Y92693D01*
Y88800D01*
D02*
G37*
G36*
X22331Y166348D02*
X25400Y165944D01*
X28469Y166348D01*
X29299Y166691D01*
X34595Y161395D01*
X36249Y160290D01*
X38200Y159902D01*
X41740D01*
X40532Y158328D01*
X39348Y155469D01*
X39108Y153650D01*
X62492D01*
X62252Y155469D01*
X61068Y158328D01*
X59861Y159902D01*
X67140D01*
X65932Y158328D01*
X64748Y155469D01*
X64344Y152400D01*
X64748Y149331D01*
X65932Y146472D01*
X67816Y144016D01*
X69091Y143038D01*
X68222Y142678D01*
X66864Y141636D01*
X65822Y140278D01*
X65168Y138698D01*
X64928Y139278D01*
X63886Y140636D01*
X62528Y141678D01*
X60947Y142333D01*
X59250Y142556D01*
X57553Y142333D01*
X55972Y141678D01*
X54614Y140636D01*
X53572Y139278D01*
X52917Y137697D01*
X52694Y136000D01*
X52702Y135940D01*
X52600Y135838D01*
X-13250D01*
X-15006Y135489D01*
X-16494Y134494D01*
X-72244Y78744D01*
X-72993Y77623D01*
X-72944Y78000D01*
X-73167Y79697D01*
X-73822Y81278D01*
X-74864Y82636D01*
X-76222Y83678D01*
X-77803Y84333D01*
X-79500Y84556D01*
X-81197Y84333D01*
X-82778Y83678D01*
X-84136Y82636D01*
X-85178Y81278D01*
X-85833Y79697D01*
X-86056Y78000D01*
X-85835Y76318D01*
X-86778Y75928D01*
X-88136Y74886D01*
X-88796Y74025D01*
X-89972Y74928D01*
X-91132Y75408D01*
X-90864Y75614D01*
X-89822Y76972D01*
X-89167Y78553D01*
X-88944Y80250D01*
X-89103Y81458D01*
X-89000Y81444D01*
X-87303Y81667D01*
X-85722Y82322D01*
X-84364Y83364D01*
X-83322Y84722D01*
X-82667Y86303D01*
X-82444Y88000D01*
X-82667Y89697D01*
X-83322Y91278D01*
X-84364Y92636D01*
X-85722Y93678D01*
X-87303Y94333D01*
X-89000Y94556D01*
X-90697Y94333D01*
X-92278Y93678D01*
X-92988Y93133D01*
X-92917Y93303D01*
X-92694Y95000D01*
X-92917Y96697D01*
X-93572Y98278D01*
X-94614Y99636D01*
X-95972Y100678D01*
X-97553Y101333D01*
X-99250Y101556D01*
X-100947Y101333D01*
X-102528Y100678D01*
X-103886Y99636D01*
X-104928Y98278D01*
X-105583Y96697D01*
X-105806Y95000D01*
X-105583Y93303D01*
X-104928Y91722D01*
X-103886Y90364D01*
X-102528Y89322D01*
X-100947Y88667D01*
X-99250Y88444D01*
X-97553Y88667D01*
X-95972Y89322D01*
X-95262Y89867D01*
X-95333Y89697D01*
X-95556Y88000D01*
X-95397Y86792D01*
X-95500Y86806D01*
X-97197Y86583D01*
X-98778Y85928D01*
X-100136Y84886D01*
X-101178Y83528D01*
X-101833Y81947D01*
X-102056Y80250D01*
X-101833Y78553D01*
X-101178Y76972D01*
X-100136Y75614D01*
X-98778Y74572D01*
X-97618Y74092D01*
X-97886Y73886D01*
X-98928Y72528D01*
X-99583Y70947D01*
X-99806Y69250D01*
X-99583Y67553D01*
X-98928Y65972D01*
X-97886Y64614D01*
X-96528Y63572D01*
X-94947Y62917D01*
X-93250Y62694D01*
X-91553Y62917D01*
X-89972Y63572D01*
X-88614Y64614D01*
X-87954Y65475D01*
X-86778Y64572D01*
X-85197Y63917D01*
X-83500Y63694D01*
X-81803Y63917D01*
X-80222Y64572D01*
X-78864Y65614D01*
X-77822Y66972D01*
X-77167Y68553D01*
X-76944Y70250D01*
X-77165Y71932D01*
X-76222Y72322D01*
X-74864Y73364D01*
X-73822Y74722D01*
X-73588Y75287D01*
Y57651D01*
X-80489Y50750D01*
X-102694D01*
X-102917Y52447D01*
X-103572Y54028D01*
X-104614Y55386D01*
X-105972Y56428D01*
X-107553Y57083D01*
X-109250Y57306D01*
X-110947Y57083D01*
X-112528Y56428D01*
X-113027Y56045D01*
X-113864Y57136D01*
X-115222Y58178D01*
X-116803Y58833D01*
X-118500Y59056D01*
X-120197Y58833D01*
X-121778Y58178D01*
X-123136Y57136D01*
X-124178Y55778D01*
X-124832Y54197D01*
X-125056Y52500D01*
X-124832Y50803D01*
X-124810Y50750D01*
X-132500D01*
Y33750D01*
X-55609D01*
X-55806Y32250D01*
X-55674Y31250D01*
X-132500D01*
Y14250D01*
X-131646D01*
X-132083Y13197D01*
X-132306Y11500D01*
X-132083Y9803D01*
X-131428Y8222D01*
X-130386Y6864D01*
X-129028Y5822D01*
X-127447Y5167D01*
X-125750Y4944D01*
X-124053Y5167D01*
X-122472Y5822D01*
X-121114Y6864D01*
X-120072Y8222D01*
X-119417Y9803D01*
X-119194Y11500D01*
X-119417Y13197D01*
X-119854Y14250D01*
X-108088D01*
Y8672D01*
X-108136Y8636D01*
X-109178Y7278D01*
X-109833Y5697D01*
X-110056Y4000D01*
X-109833Y2303D01*
X-109178Y722D01*
X-108136Y-636D01*
X-106778Y-1678D01*
X-105197Y-2333D01*
X-103500Y-2556D01*
X-101803Y-2333D01*
X-100222Y-1678D01*
X-98864Y-636D01*
X-97822Y722D01*
X-97167Y2303D01*
X-96944Y4000D01*
X-97063Y4900D01*
X-95500Y4694D01*
X-93803Y4917D01*
X-92222Y5572D01*
X-90864Y6614D01*
X-89822Y7972D01*
X-89167Y9553D01*
X-88944Y11250D01*
X-88952Y11310D01*
X-86011Y14250D01*
X-67088D01*
Y13922D01*
X-67136Y13886D01*
X-68178Y12528D01*
X-68833Y10947D01*
X-69056Y9250D01*
X-68833Y7553D01*
X-68178Y5972D01*
X-67136Y4614D01*
X-65778Y3572D01*
X-64197Y2917D01*
X-62500Y2694D01*
X-60803Y2917D01*
X-59222Y3572D01*
X-57864Y4614D01*
X-56822Y5972D01*
X-56167Y7553D01*
X-55944Y9250D01*
X-56167Y10947D01*
X-56822Y12528D01*
X-57864Y13886D01*
X-57912Y13922D01*
Y14250D01*
X-52500D01*
Y26561D01*
X-50947Y25917D01*
X-49250Y25694D01*
X-47553Y25917D01*
X-45972Y26572D01*
X-44614Y27614D01*
X-43572Y28972D01*
X-42917Y30553D01*
X-42875Y30875D01*
X-41500Y30694D01*
X-39803Y30917D01*
X-38222Y31572D01*
X-36864Y32614D01*
X-35822Y33972D01*
X-35167Y35553D01*
X-35088Y36154D01*
Y33400D01*
X-39690Y28798D01*
X-39750Y28806D01*
X-41447Y28583D01*
X-43028Y27928D01*
X-44386Y26886D01*
X-45428Y25528D01*
X-46083Y23947D01*
X-46306Y22250D01*
X-46083Y20553D01*
X-45428Y18972D01*
X-44386Y17614D01*
X-43331Y16805D01*
X-43928Y16028D01*
X-44583Y14447D01*
X-44806Y12750D01*
X-44583Y11053D01*
X-43928Y9472D01*
X-42886Y8114D01*
X-41528Y7072D01*
X-39947Y6417D01*
X-38250Y6194D01*
X-36553Y6417D01*
X-34972Y7072D01*
X-33614Y8114D01*
X-32572Y9472D01*
X-31917Y11053D01*
X-31827Y11737D01*
X-31500Y11694D01*
X-29803Y11917D01*
X-29125Y12198D01*
X-28928Y11722D01*
X-28480Y11139D01*
X-29136Y10636D01*
X-30178Y9278D01*
X-30833Y7697D01*
X-31056Y6000D01*
X-30833Y4303D01*
X-30178Y2722D01*
X-29242Y1503D01*
X-30028Y1178D01*
X-31386Y136D01*
X-32428Y-1222D01*
X-33083Y-2803D01*
X-33306Y-4500D01*
X-33083Y-6197D01*
X-32428Y-7778D01*
X-31386Y-9136D01*
X-30028Y-10178D01*
X-28447Y-10833D01*
X-26750Y-11056D01*
X-25053Y-10833D01*
X-23472Y-10178D01*
X-22114Y-9136D01*
X-21072Y-7778D01*
X-20417Y-6197D01*
X-20266Y-5051D01*
X-20083Y-6447D01*
X-19428Y-8028D01*
X-18386Y-9386D01*
X-17028Y-10428D01*
X-15447Y-11083D01*
X-13750Y-11306D01*
X-12053Y-11083D01*
X-10472Y-10428D01*
X-9114Y-9386D01*
X-8072Y-8028D01*
X-7417Y-6447D01*
X-7194Y-4750D01*
X-7417Y-3053D01*
X-8072Y-1472D01*
X-9114Y-114D01*
X-10472Y928D01*
X-12053Y1583D01*
X-13750Y1806D01*
X-15447Y1583D01*
X-17028Y928D01*
X-18386Y-114D01*
X-19428Y-1472D01*
X-20083Y-3053D01*
X-20234Y-4199D01*
X-20417Y-2803D01*
X-21072Y-1222D01*
X-22008Y-3D01*
X-21222Y322D01*
X-19864Y1364D01*
X-18822Y2722D01*
X-18167Y4303D01*
X-17944Y6000D01*
X-18167Y7697D01*
X-18822Y9278D01*
X-19270Y9861D01*
X-18614Y10364D01*
X-17572Y11722D01*
X-16917Y13303D01*
X-16694Y15000D01*
X-16917Y16697D01*
X-17572Y18278D01*
X-18614Y19636D01*
X-19972Y20678D01*
X-21553Y21333D01*
X-23250Y21556D01*
X-24947Y21333D01*
X-25625Y21052D01*
X-25822Y21528D01*
X-26864Y22886D01*
X-28222Y23928D01*
X-29803Y24583D01*
X-30798Y24714D01*
X-27256Y28256D01*
X-26261Y29744D01*
X-25912Y31500D01*
Y38675D01*
X-25778Y38572D01*
X-24197Y37917D01*
X-22500Y37694D01*
X-21500Y37826D01*
X-21333Y36553D01*
X-20678Y34972D01*
X-19636Y33614D01*
X-18278Y32572D01*
X-16697Y31917D01*
X-15000Y31694D01*
X-13303Y31917D01*
X-11722Y32572D01*
X-10364Y33614D01*
X-9322Y34972D01*
X-8667Y36553D01*
X-8444Y38250D01*
X-8667Y39947D01*
X-9322Y41528D01*
X-10364Y42886D01*
X-11722Y43928D01*
X-13303Y44583D01*
X-15000Y44806D01*
X-16000Y44675D01*
X-16167Y45947D01*
X-16822Y47528D01*
X-17864Y48886D01*
X-19222Y49928D01*
X-20803Y50583D01*
X-22500Y50806D01*
X-24197Y50583D01*
X-25778Y49928D01*
X-25912Y49825D01*
Y56579D01*
X-24722Y57072D01*
X-23364Y58114D01*
X-22322Y59472D01*
X-21667Y61053D01*
X-21444Y62750D01*
X-21667Y64447D01*
X-22322Y66028D01*
X-23364Y67386D01*
X-23778Y67704D01*
X-23572Y67972D01*
X-22917Y69553D01*
X-22694Y71250D01*
X-22917Y72947D01*
X-23572Y74528D01*
X-24614Y75886D01*
X-25972Y76928D01*
X-27553Y77583D01*
X-29250Y77806D01*
X-30947Y77583D01*
X-32528Y76928D01*
X-33886Y75886D01*
X-34928Y74528D01*
X-35583Y72947D01*
X-35778Y71461D01*
X-36500Y71556D01*
X-38197Y71333D01*
X-39778Y70678D01*
X-41136Y69636D01*
X-42178Y68278D01*
X-42833Y66697D01*
X-43056Y65000D01*
X-42833Y63303D01*
X-42178Y61722D01*
X-41136Y60364D01*
X-39778Y59322D01*
X-38197Y58667D01*
X-36500Y58444D01*
X-35088Y58630D01*
Y38345D01*
X-35167Y38947D01*
X-35822Y40528D01*
X-36864Y41886D01*
X-38222Y42928D01*
X-39803Y43583D01*
X-41500Y43806D01*
X-43197Y43583D01*
X-44778Y42928D01*
X-46136Y41886D01*
X-47178Y40528D01*
X-47833Y38947D01*
X-47875Y38625D01*
X-49250Y38806D01*
X-50947Y38583D01*
X-52500Y37939D01*
Y50750D01*
X-57912D01*
Y70600D01*
X-11775Y116736D01*
X-11806Y116500D01*
X-11583Y114803D01*
X-10928Y113222D01*
X-9886Y111864D01*
X-8528Y110822D01*
X-6947Y110167D01*
X-5250Y109944D01*
X-3662Y110153D01*
X-3583Y109553D01*
X-2928Y107972D01*
X-1886Y106614D01*
X-528Y105572D01*
X1053Y104917D01*
X2750Y104694D01*
X3190Y104752D01*
X3167Y104697D01*
X2944Y103000D01*
X3167Y101303D01*
X3822Y99722D01*
X4864Y98364D01*
X6222Y97322D01*
X7803Y96667D01*
X9500Y96444D01*
X11197Y96667D01*
X12778Y97322D01*
X14136Y98364D01*
X15178Y99722D01*
X15833Y101303D01*
X16056Y103000D01*
X15833Y104697D01*
X15178Y106278D01*
X14136Y107636D01*
X12778Y108678D01*
X11197Y109333D01*
X9500Y109556D01*
X9060Y109498D01*
X9083Y109553D01*
X9306Y111250D01*
X9083Y112947D01*
X8428Y114528D01*
X7386Y115886D01*
X6028Y116928D01*
X4447Y117583D01*
X2750Y117806D01*
X1162Y117597D01*
X1083Y118197D01*
X428Y119778D01*
X325Y119912D01*
X59000D01*
X60756Y120261D01*
X62244Y121256D01*
X71440Y130452D01*
X71500Y130444D01*
X73197Y130667D01*
X74778Y131322D01*
X76136Y132364D01*
X77178Y133722D01*
X77833Y135303D01*
X78056Y137000D01*
X77833Y138697D01*
X77178Y140278D01*
X76903Y140636D01*
X79269Y140948D01*
X82128Y142132D01*
X84584Y144016D01*
X86468Y146472D01*
X87652Y149331D01*
X88056Y152400D01*
X87652Y155469D01*
X86468Y158328D01*
X85260Y159902D01*
X92540D01*
X91332Y158328D01*
X90148Y155469D01*
X89744Y152400D01*
X90148Y149331D01*
X91332Y146472D01*
X93216Y144016D01*
X95672Y142132D01*
X98531Y140948D01*
X101600Y140544D01*
X104669Y140948D01*
X107528Y142132D01*
X109984Y144016D01*
X111868Y146472D01*
X113052Y149331D01*
X113456Y152400D01*
X113052Y155469D01*
X111868Y158328D01*
X110660Y159902D01*
X117940D01*
X116732Y158328D01*
X115548Y155469D01*
X115144Y152400D01*
X115548Y149331D01*
X116103Y147991D01*
X68906Y100795D01*
X67911Y99306D01*
X67562Y97550D01*
Y89965D01*
X66553Y89833D01*
X64972Y89178D01*
X63614Y88136D01*
X62572Y86778D01*
X61917Y85197D01*
X61694Y83500D01*
X61917Y81803D01*
X62572Y80222D01*
X63614Y78864D01*
X64972Y77822D01*
X66553Y77167D01*
X68250Y76944D01*
X68828Y77020D01*
X68694Y76000D01*
X68917Y74303D01*
X69572Y72722D01*
X70614Y71364D01*
X71972Y70322D01*
X73553Y69667D01*
X75250Y69444D01*
X76947Y69667D01*
X78528Y70322D01*
X79886Y71364D01*
X80928Y72722D01*
X81583Y74303D01*
X81806Y76000D01*
X81583Y77697D01*
X80928Y79278D01*
X79886Y80636D01*
X78528Y81678D01*
X76947Y82333D01*
X75250Y82556D01*
X74672Y82480D01*
X74806Y83500D01*
X74798Y83560D01*
X75395Y84156D01*
X76389Y85644D01*
X76738Y87400D01*
Y95650D01*
X122591Y141503D01*
X123931Y140948D01*
X127000Y140544D01*
X130069Y140948D01*
X132928Y142132D01*
X135384Y144016D01*
X137268Y146472D01*
X138452Y149331D01*
X138856Y152400D01*
X138452Y155469D01*
X137268Y158328D01*
X136060Y159902D01*
X143340D01*
X142132Y158328D01*
X140948Y155469D01*
X140544Y152400D01*
X140948Y149331D01*
X142132Y146472D01*
X144016Y144016D01*
X146472Y142132D01*
X149331Y140948D01*
X152400Y140544D01*
X155469Y140948D01*
X158328Y142132D01*
X160152Y143532D01*
Y135868D01*
X158328Y137268D01*
X155469Y138452D01*
X152400Y138856D01*
X149331Y138452D01*
X146472Y137268D01*
X144016Y135384D01*
X142132Y132928D01*
X140948Y130069D01*
X140544Y127000D01*
X140948Y123931D01*
X142132Y121072D01*
X144016Y118616D01*
X146472Y116732D01*
X149331Y115548D01*
X152400Y115144D01*
X155469Y115548D01*
X158328Y116732D01*
X160152Y118132D01*
Y110468D01*
X158328Y111868D01*
X155469Y113052D01*
X152400Y113456D01*
X149331Y113052D01*
X146472Y111868D01*
X144016Y109984D01*
X142132Y107528D01*
X140948Y104669D01*
X140544Y101600D01*
X140948Y98531D01*
X142132Y95672D01*
X144016Y93216D01*
X146472Y91332D01*
X149331Y90148D01*
X152400Y89744D01*
X155469Y90148D01*
X158328Y91332D01*
X160152Y92732D01*
Y85068D01*
X158328Y86468D01*
X155469Y87652D01*
X152400Y88056D01*
X149331Y87652D01*
X146472Y86468D01*
X144016Y84584D01*
X142132Y82128D01*
X140948Y79269D01*
X140544Y76200D01*
X140948Y73131D01*
X142132Y70272D01*
X144016Y67816D01*
X146472Y65932D01*
X149331Y64748D01*
X152400Y64344D01*
X155469Y64748D01*
X158328Y65932D01*
X160152Y67332D01*
Y65762D01*
X156299Y61908D01*
X155469Y62252D01*
X152400Y62656D01*
X149331Y62252D01*
X146472Y61068D01*
X144016Y59184D01*
X142132Y56728D01*
X140948Y53869D01*
X140544Y50800D01*
X140948Y47731D01*
X142132Y44872D01*
X144016Y42416D01*
X146472Y40532D01*
X149331Y39348D01*
X152400Y38944D01*
X155469Y39348D01*
X156299Y39691D01*
X160152Y35838D01*
Y34268D01*
X158328Y35668D01*
X155469Y36852D01*
X152400Y37256D01*
X149331Y36852D01*
X146472Y35668D01*
X144016Y33784D01*
X142132Y31328D01*
X140948Y28469D01*
X140544Y25400D01*
X140948Y22331D01*
X142132Y19472D01*
X144016Y17016D01*
X146472Y15132D01*
X149331Y13948D01*
X152400Y13544D01*
X155469Y13948D01*
X158328Y15132D01*
X160152Y16532D01*
Y8868D01*
X158328Y10268D01*
X155469Y11452D01*
X152400Y11856D01*
X149331Y11452D01*
X146472Y10268D01*
X144016Y8384D01*
X142132Y5928D01*
X140948Y3069D01*
X140544Y0D01*
X140948Y-3069D01*
X142132Y-5928D01*
X144016Y-8384D01*
X146472Y-10268D01*
X149331Y-11452D01*
X152400Y-11856D01*
X155469Y-11452D01*
X158328Y-10268D01*
X160152Y-8868D01*
Y-16532D01*
X158328Y-15132D01*
X155469Y-13948D01*
X153650Y-13708D01*
Y-25400D01*
Y-37092D01*
X155469Y-36852D01*
X158328Y-35668D01*
X160152Y-34268D01*
Y-41932D01*
X158328Y-40532D01*
X155469Y-39348D01*
X152400Y-38944D01*
X149331Y-39348D01*
X146472Y-40532D01*
X144016Y-42416D01*
X142132Y-44872D01*
X140948Y-47731D01*
X140544Y-50800D01*
X140948Y-53869D01*
X142132Y-56728D01*
X144016Y-59184D01*
X146472Y-61068D01*
X149331Y-62252D01*
X152400Y-62656D01*
X155469Y-62252D01*
X158328Y-61068D01*
X160152Y-59668D01*
Y-67332D01*
X158328Y-65932D01*
X155469Y-64748D01*
X153650Y-64508D01*
Y-76200D01*
Y-87892D01*
X155469Y-87652D01*
X158328Y-86468D01*
X160152Y-85068D01*
Y-89051D01*
X160540Y-91001D01*
X161645Y-92655D01*
X166691Y-97701D01*
X166348Y-98531D01*
X165944Y-101600D01*
X166348Y-104669D01*
X166691Y-105499D01*
X161395Y-110795D01*
X160290Y-112449D01*
X159902Y-114400D01*
Y-117940D01*
X158328Y-116732D01*
X155469Y-115548D01*
X152400Y-115144D01*
X149331Y-115548D01*
X146472Y-116732D01*
X144016Y-118616D01*
X142132Y-121072D01*
X140948Y-123931D01*
X140544Y-127000D01*
X140948Y-130069D01*
X142132Y-132928D01*
X144016Y-135384D01*
X146472Y-137268D01*
X149331Y-138452D01*
X152400Y-138856D01*
X155469Y-138452D01*
X158328Y-137268D01*
X159902Y-136060D01*
Y-143340D01*
X158328Y-142132D01*
X155469Y-140948D01*
X152400Y-140544D01*
X149331Y-140948D01*
X146472Y-142132D01*
X144016Y-144016D01*
X142132Y-146472D01*
X140948Y-149331D01*
X140544Y-152400D01*
X140948Y-155469D01*
X142132Y-158328D01*
X143340Y-159902D01*
X136060D01*
X137268Y-158328D01*
X138452Y-155469D01*
X138856Y-152400D01*
X138452Y-149331D01*
X137268Y-146472D01*
X135384Y-144016D01*
X132928Y-142132D01*
X130069Y-140948D01*
X127000Y-140544D01*
X123931Y-140948D01*
X121072Y-142132D01*
X118616Y-144016D01*
X116732Y-146472D01*
X115548Y-149331D01*
X115144Y-152400D01*
X115548Y-155469D01*
X116732Y-158328D01*
X117940Y-159902D01*
X110660D01*
X111868Y-158328D01*
X113052Y-155469D01*
X113456Y-152400D01*
X113052Y-149331D01*
X111868Y-146472D01*
X109984Y-144016D01*
X107528Y-142132D01*
X104669Y-140948D01*
X101600Y-140544D01*
X98531Y-140948D01*
X95672Y-142132D01*
X93216Y-144016D01*
X91332Y-146472D01*
X90148Y-149331D01*
X89744Y-152400D01*
X90148Y-155469D01*
X91332Y-158328D01*
X92540Y-159902D01*
X85260D01*
X86468Y-158328D01*
X87652Y-155469D01*
X87892Y-153650D01*
X64508D01*
X64748Y-155469D01*
X65932Y-158328D01*
X67140Y-159902D01*
X63600D01*
X61649Y-160290D01*
X59995Y-161395D01*
X54699Y-166691D01*
X53869Y-166348D01*
X50800Y-165944D01*
X47731Y-166348D01*
X44872Y-167532D01*
X42416Y-169416D01*
X40532Y-171872D01*
X39348Y-174731D01*
X38944Y-177800D01*
X39348Y-180869D01*
X40532Y-183728D01*
X41508Y-185000D01*
X34692D01*
X35668Y-183728D01*
X36852Y-180869D01*
X37256Y-177800D01*
X36852Y-174731D01*
X35668Y-171872D01*
X33784Y-169416D01*
X31328Y-167532D01*
X28469Y-166348D01*
X25400Y-165944D01*
X22331Y-166348D01*
X19472Y-167532D01*
X17016Y-169416D01*
X15132Y-171872D01*
X13948Y-174731D01*
X13544Y-177800D01*
X13948Y-180869D01*
X15132Y-183728D01*
X16108Y-185000D01*
X9292D01*
X10268Y-183728D01*
X11452Y-180869D01*
X11856Y-177800D01*
X11452Y-174731D01*
X10897Y-173391D01*
X15744Y-168544D01*
X16739Y-167056D01*
X17088Y-165300D01*
Y-160839D01*
X19472Y-162668D01*
X22331Y-163852D01*
X25400Y-164256D01*
X28469Y-163852D01*
X31328Y-162668D01*
X33784Y-160784D01*
X35668Y-158328D01*
X36852Y-155469D01*
X37256Y-152400D01*
X36852Y-149331D01*
X35668Y-146472D01*
X33784Y-144016D01*
X31328Y-142132D01*
X28469Y-140948D01*
X25400Y-140544D01*
X22331Y-140948D01*
X19472Y-142132D01*
X17016Y-144016D01*
X16799Y-144299D01*
X16739Y-143994D01*
X16309Y-143351D01*
X16447Y-143333D01*
X18028Y-142678D01*
X19386Y-141636D01*
X20428Y-140278D01*
X21083Y-138697D01*
X21306Y-137000D01*
X21083Y-135303D01*
X20428Y-133722D01*
X19386Y-132364D01*
X18028Y-131322D01*
X16447Y-130667D01*
X14750Y-130444D01*
X13053Y-130667D01*
X11472Y-131322D01*
X10114Y-132364D01*
X9072Y-133722D01*
X8454Y-135215D01*
X6994Y-133756D01*
X5506Y-132761D01*
X4708Y-132602D01*
X5083Y-131697D01*
X5306Y-130000D01*
X5083Y-128303D01*
X4428Y-126722D01*
X3386Y-125364D01*
X2028Y-124322D01*
X447Y-123667D01*
X-1250Y-123444D01*
X-2101Y-123556D01*
X-2167Y-123053D01*
X-2822Y-121472D01*
X-3864Y-120114D01*
X-5222Y-119072D01*
X-6803Y-118417D01*
X-8500Y-118194D01*
X-10197Y-118417D01*
X-10412Y-118506D01*
Y-68183D01*
X-9447Y-68583D01*
X-7750Y-68806D01*
X-6053Y-68583D01*
X-4472Y-67928D01*
X-3114Y-66886D01*
X-2072Y-65528D01*
X-1417Y-63947D01*
X-1194Y-62250D01*
X-1417Y-60553D01*
X-2072Y-58972D01*
X-3114Y-57614D01*
X-4390Y-56635D01*
X-3739Y-56136D01*
X-2697Y-54778D01*
X-2042Y-53197D01*
X-1819Y-51500D01*
X-2042Y-49803D01*
X-2697Y-48222D01*
X-3155Y-47626D01*
X-1864Y-46636D01*
X-822Y-45278D01*
X-167Y-43697D01*
X56Y-42000D01*
X-167Y-40303D01*
X-822Y-38722D01*
X-1864Y-37364D01*
X-3222Y-36322D01*
X-4803Y-35667D01*
X-6500Y-35444D01*
X-8197Y-35667D01*
X-9778Y-36322D01*
X-11136Y-37364D01*
X-12178Y-38722D01*
X-12833Y-40303D01*
X-13056Y-42000D01*
X-12833Y-43697D01*
X-12178Y-45278D01*
X-11720Y-45874D01*
X-12381Y-46381D01*
X-25506Y-33256D01*
X-26994Y-32261D01*
X-28750Y-31912D01*
X-35578D01*
X-35614Y-31864D01*
X-36972Y-30822D01*
X-38553Y-30167D01*
X-40250Y-29944D01*
X-41947Y-30167D01*
X-43528Y-30822D01*
X-44886Y-31864D01*
X-45928Y-33222D01*
X-46583Y-34803D01*
X-46806Y-36500D01*
X-46583Y-38197D01*
X-45928Y-39778D01*
X-44886Y-41136D01*
X-43528Y-42178D01*
X-41947Y-42833D01*
X-40250Y-43056D01*
X-38553Y-42833D01*
X-37220Y-42280D01*
X-37333Y-42553D01*
X-37556Y-44250D01*
X-37524Y-44490D01*
X-38303Y-44167D01*
X-40000Y-43944D01*
X-41697Y-44167D01*
X-43278Y-44822D01*
X-44636Y-45864D01*
X-45678Y-47222D01*
X-46333Y-48803D01*
X-46556Y-50500D01*
X-46333Y-52197D01*
X-45678Y-53778D01*
X-44636Y-55136D01*
X-43278Y-56178D01*
X-41697Y-56833D01*
X-40801Y-56951D01*
X-42447Y-57167D01*
X-44028Y-57822D01*
X-45386Y-58864D01*
X-46428Y-60222D01*
X-47083Y-61803D01*
X-47306Y-63500D01*
X-47295Y-63582D01*
X-48239Y-64994D01*
X-48588Y-66750D01*
Y-75000D01*
X-48239Y-76756D01*
X-47244Y-78244D01*
X-42588Y-82900D01*
Y-143884D01*
X-44872Y-142132D01*
X-47731Y-140948D01*
X-49550Y-140708D01*
Y-152400D01*
Y-164092D01*
X-47731Y-163852D01*
X-44872Y-162668D01*
X-42588Y-160916D01*
Y-163099D01*
X-46391Y-166903D01*
X-47731Y-166348D01*
X-50800Y-165944D01*
X-53869Y-166348D01*
X-56728Y-167532D01*
X-59184Y-169416D01*
X-61068Y-171872D01*
X-62252Y-174731D01*
X-62656Y-177800D01*
X-62252Y-180869D01*
X-61068Y-183728D01*
X-60092Y-185000D01*
X-66908D01*
X-65932Y-183728D01*
X-64748Y-180869D01*
X-64344Y-177800D01*
X-64748Y-174731D01*
X-65932Y-171872D01*
X-67816Y-169416D01*
X-70272Y-167532D01*
X-73131Y-166348D01*
X-76200Y-165944D01*
X-79269Y-166348D01*
X-80099Y-166692D01*
X-85146Y-161645D01*
X-86799Y-160540D01*
X-88750Y-160152D01*
X-92732D01*
X-91332Y-158328D01*
X-90148Y-155469D01*
X-89744Y-152400D01*
X-90148Y-149331D01*
X-91332Y-146472D01*
X-93216Y-144016D01*
X-95672Y-142132D01*
X-98531Y-140948D01*
X-101600Y-140544D01*
X-104669Y-140948D01*
X-107528Y-142132D01*
X-109984Y-144016D01*
X-111868Y-146472D01*
X-113052Y-149331D01*
X-113456Y-152400D01*
X-113052Y-155469D01*
X-111868Y-158328D01*
X-110469Y-160152D01*
X-118132D01*
X-116732Y-158328D01*
X-115548Y-155469D01*
X-115144Y-152400D01*
X-115548Y-149331D01*
X-116732Y-146472D01*
X-118616Y-144016D01*
X-121072Y-142132D01*
X-123931Y-140948D01*
X-127000Y-140544D01*
X-130069Y-140948D01*
X-132928Y-142132D01*
X-135384Y-144016D01*
X-137268Y-146472D01*
X-138452Y-149331D01*
X-138856Y-152400D01*
X-138452Y-155469D01*
X-137268Y-158328D01*
X-135869Y-160152D01*
X-143532D01*
X-142132Y-158328D01*
X-140948Y-155469D01*
X-140544Y-152400D01*
X-140948Y-149331D01*
X-142132Y-146472D01*
X-144016Y-144016D01*
X-146472Y-142132D01*
X-149331Y-140948D01*
X-152400Y-140544D01*
X-155469Y-140948D01*
X-158328Y-142132D01*
X-159902Y-143340D01*
Y-136060D01*
X-158328Y-137268D01*
X-155469Y-138452D01*
X-152400Y-138856D01*
X-149331Y-138452D01*
X-146472Y-137268D01*
X-144016Y-135384D01*
X-142132Y-132928D01*
X-140948Y-130069D01*
X-140544Y-127000D01*
X-140948Y-123931D01*
X-142132Y-121072D01*
X-144016Y-118616D01*
X-146472Y-116732D01*
X-149331Y-115548D01*
X-152400Y-115144D01*
X-155469Y-115548D01*
X-158328Y-116732D01*
X-159902Y-117940D01*
Y-110660D01*
X-158328Y-111868D01*
X-155469Y-113052D01*
X-152400Y-113456D01*
X-149331Y-113052D01*
X-146472Y-111868D01*
X-144016Y-109984D01*
X-142132Y-107528D01*
X-140948Y-104669D01*
X-140544Y-101600D01*
X-140948Y-98531D01*
X-142132Y-95672D01*
X-144016Y-93216D01*
X-146472Y-91332D01*
X-149331Y-90148D01*
X-152400Y-89744D01*
X-155469Y-90148D01*
X-158328Y-91332D01*
X-159902Y-92540D01*
Y-85260D01*
X-158328Y-86468D01*
X-155469Y-87652D01*
X-153650Y-87892D01*
Y-76200D01*
Y-64508D01*
X-155469Y-64748D01*
X-158328Y-65932D01*
X-159902Y-67140D01*
Y-63600D01*
X-160290Y-61649D01*
X-161395Y-59995D01*
X-166692Y-54699D01*
X-166348Y-53869D01*
X-165944Y-50800D01*
X-166348Y-47731D01*
X-166691Y-46901D01*
X-161395Y-41605D01*
X-160290Y-39951D01*
X-159902Y-38000D01*
Y-34460D01*
X-158328Y-35668D01*
X-155469Y-36852D01*
X-152400Y-37256D01*
X-149331Y-36852D01*
X-146472Y-35668D01*
X-144016Y-33784D01*
X-142132Y-31328D01*
X-140948Y-28469D01*
X-140544Y-25400D01*
X-140948Y-22331D01*
X-142132Y-19472D01*
X-144016Y-17016D01*
X-146472Y-15132D01*
X-149331Y-13948D01*
X-152400Y-13544D01*
X-155469Y-13948D01*
X-158328Y-15132D01*
X-159902Y-16340D01*
Y-9060D01*
X-158328Y-10268D01*
X-155469Y-11452D01*
X-152400Y-11856D01*
X-149331Y-11452D01*
X-146472Y-10268D01*
X-144016Y-8384D01*
X-142132Y-5928D01*
X-140948Y-3069D01*
X-140544Y0D01*
X-140948Y3069D01*
X-142132Y5928D01*
X-144016Y8384D01*
X-146472Y10268D01*
X-149331Y11452D01*
X-152400Y11856D01*
X-155469Y11452D01*
X-158328Y10268D01*
X-159902Y9060D01*
Y16340D01*
X-158328Y15132D01*
X-155469Y13948D01*
X-152400Y13544D01*
X-149331Y13948D01*
X-146472Y15132D01*
X-144016Y17016D01*
X-142132Y19472D01*
X-140948Y22331D01*
X-140544Y25400D01*
X-140948Y28469D01*
X-142132Y31328D01*
X-144016Y33784D01*
X-146472Y35668D01*
X-149331Y36852D01*
X-152400Y37256D01*
X-155469Y36852D01*
X-158328Y35668D01*
X-159902Y34460D01*
Y41740D01*
X-158328Y40532D01*
X-155469Y39348D01*
X-152400Y38944D01*
X-149331Y39348D01*
X-146472Y40532D01*
X-144016Y42416D01*
X-142132Y44872D01*
X-140948Y47731D01*
X-140544Y50800D01*
X-140948Y53869D01*
X-142132Y56728D01*
X-144016Y59184D01*
X-146472Y61068D01*
X-149331Y62252D01*
X-152400Y62656D01*
X-155469Y62252D01*
X-158328Y61068D01*
X-159902Y59860D01*
Y61488D01*
X-156299Y65092D01*
X-155469Y64748D01*
X-152400Y64344D01*
X-149331Y64748D01*
X-146472Y65932D01*
X-144016Y67816D01*
X-142132Y70272D01*
X-140948Y73131D01*
X-140544Y76200D01*
X-140948Y79269D01*
X-142132Y82128D01*
X-144016Y84584D01*
X-146472Y86468D01*
X-149331Y87652D01*
X-152400Y88056D01*
X-155469Y87652D01*
X-156299Y87308D01*
X-159902Y90911D01*
Y92540D01*
X-158328Y91332D01*
X-155469Y90148D01*
X-152400Y89744D01*
X-149331Y90148D01*
X-146472Y91332D01*
X-144016Y93216D01*
X-142132Y95672D01*
X-140948Y98531D01*
X-140544Y101600D01*
X-140948Y104669D01*
X-142132Y107528D01*
X-144016Y109984D01*
X-146472Y111868D01*
X-149331Y113052D01*
X-152400Y113456D01*
X-155469Y113052D01*
X-158328Y111868D01*
X-159902Y110660D01*
Y117940D01*
X-158328Y116732D01*
X-155469Y115548D01*
X-152400Y115144D01*
X-149331Y115548D01*
X-146472Y116732D01*
X-144016Y118616D01*
X-142132Y121072D01*
X-140948Y123931D01*
X-140544Y127000D01*
X-140948Y130069D01*
X-142132Y132928D01*
X-144016Y135384D01*
X-146472Y137268D01*
X-149331Y138452D01*
X-152400Y138856D01*
X-155469Y138452D01*
X-158328Y137268D01*
X-159902Y136060D01*
Y140645D01*
X-140645D01*
Y159902D01*
X-136060D01*
X-137268Y158328D01*
X-138452Y155469D01*
X-138856Y152400D01*
X-138452Y149331D01*
X-137268Y146472D01*
X-135384Y144016D01*
X-132928Y142132D01*
X-130069Y140948D01*
X-127000Y140544D01*
X-123931Y140948D01*
X-121072Y142132D01*
X-118616Y144016D01*
X-116732Y146472D01*
X-115548Y149331D01*
X-115144Y152400D01*
X-115548Y155469D01*
X-116732Y158328D01*
X-117940Y159902D01*
X-116312D01*
X-112709Y156299D01*
X-113052Y155469D01*
X-113456Y152400D01*
X-113052Y149331D01*
X-111868Y146472D01*
X-109984Y144016D01*
X-107528Y142132D01*
X-104669Y140948D01*
X-101600Y140544D01*
X-98531Y140948D01*
X-95672Y142132D01*
X-93216Y144016D01*
X-91332Y146472D01*
X-90148Y149331D01*
X-89744Y152400D01*
X-90148Y155469D01*
X-90492Y156299D01*
X-86889Y159902D01*
X-85260D01*
X-86468Y158328D01*
X-87652Y155469D01*
X-88056Y152400D01*
X-87652Y149331D01*
X-86468Y146472D01*
X-84584Y144016D01*
X-82128Y142132D01*
X-79269Y140948D01*
X-76200Y140544D01*
X-73131Y140948D01*
X-70272Y142132D01*
X-67816Y144016D01*
X-65932Y146472D01*
X-64748Y149331D01*
X-64344Y152400D01*
X-64748Y155469D01*
X-65932Y158328D01*
X-67140Y159902D01*
X-59861D01*
X-61068Y158328D01*
X-62252Y155469D01*
X-62656Y152400D01*
X-62252Y149331D01*
X-61068Y146472D01*
X-59184Y144016D01*
X-56728Y142132D01*
X-53869Y140948D01*
X-50800Y140544D01*
X-47731Y140948D01*
X-44872Y142132D01*
X-42416Y144016D01*
X-40532Y146472D01*
X-39348Y149331D01*
X-38944Y152400D01*
X-39348Y155469D01*
X-40532Y158328D01*
X-41740Y159902D01*
X-34460D01*
X-35668Y158328D01*
X-36852Y155469D01*
X-37256Y152400D01*
X-36852Y149331D01*
X-35668Y146472D01*
X-33784Y144016D01*
X-31328Y142132D01*
X-28469Y140948D01*
X-25400Y140544D01*
X-22331Y140948D01*
X-19472Y142132D01*
X-17016Y144016D01*
X-15132Y146472D01*
X-13948Y149331D01*
X-13544Y152400D01*
X-13948Y155469D01*
X-15132Y158328D01*
X-16339Y159902D01*
X-9061D01*
X-10268Y158328D01*
X-11452Y155469D01*
X-11856Y152400D01*
X-11452Y149331D01*
X-10268Y146472D01*
X-8384Y144016D01*
X-5928Y142132D01*
X-3069Y140948D01*
X0Y140544D01*
X3069Y140948D01*
X5928Y142132D01*
X8384Y144016D01*
X10268Y146472D01*
X11452Y149331D01*
X11856Y152400D01*
X11452Y155469D01*
X10268Y158328D01*
X9061Y159902D01*
X12600D01*
X14551Y160290D01*
X16205Y161395D01*
X21501Y166691D01*
X22331Y166348D01*
D02*
G37*
G36*
X-86468Y183728D02*
X-87652Y180869D01*
X-88056Y177800D01*
X-87652Y174731D01*
X-86468Y171872D01*
X-85107Y170098D01*
X-89000D01*
X-90951Y169710D01*
X-92605Y168605D01*
X-97701Y163508D01*
X-98531Y163852D01*
X-101600Y164256D01*
X-104669Y163852D01*
X-105499Y163508D01*
X-110595Y168605D01*
X-112249Y169710D01*
X-114200Y170098D01*
X-118093D01*
X-116732Y171872D01*
X-115548Y174731D01*
X-115144Y177800D01*
X-115548Y180869D01*
X-116732Y183728D01*
X-117708Y185000D01*
X-110892D01*
X-111868Y183728D01*
X-113052Y180869D01*
X-113292Y179050D01*
X-89908D01*
X-90148Y180869D01*
X-91332Y183728D01*
X-92308Y185000D01*
X-85492D01*
X-86468Y183728D01*
D02*
G37*
G36*
X171872Y-162668D02*
X174731Y-163852D01*
X177800Y-164256D01*
X180869Y-163852D01*
X183728Y-162668D01*
X185000Y-161692D01*
Y-168508D01*
X183728Y-167532D01*
X180869Y-166348D01*
X177800Y-165944D01*
X174731Y-166348D01*
X171872Y-167532D01*
X169416Y-169416D01*
X167532Y-171872D01*
X166348Y-174731D01*
X165944Y-177800D01*
X166348Y-180869D01*
X167532Y-183728D01*
X168508Y-185000D01*
X161692D01*
X162668Y-183728D01*
X163852Y-180869D01*
X164092Y-179050D01*
X140708D01*
X140948Y-180869D01*
X142132Y-183728D01*
X143108Y-185000D01*
X136292D01*
X137268Y-183728D01*
X138452Y-180869D01*
X138856Y-177800D01*
X138452Y-174731D01*
X137268Y-171872D01*
X135907Y-170098D01*
X143493D01*
X142132Y-171872D01*
X140948Y-174731D01*
X140708Y-176550D01*
X164092D01*
X163852Y-174731D01*
X162668Y-171872D01*
X161266Y-170045D01*
X162951Y-169710D01*
X164605Y-168605D01*
X168605Y-164605D01*
X169710Y-162951D01*
X169774Y-162627D01*
X170045Y-161266D01*
X171872Y-162668D01*
D02*
G37*
%LPC*%
G36*
X-176550Y87892D02*
Y77450D01*
X-166108D01*
X-166348Y79269D01*
X-167532Y82128D01*
X-169416Y84584D01*
X-171872Y86468D01*
X-174731Y87652D01*
X-176550Y87892D01*
D02*
G37*
G36*
X-166108Y74950D02*
X-176550D01*
Y64508D01*
X-174731Y64748D01*
X-171872Y65932D01*
X-169416Y67816D01*
X-167532Y70272D01*
X-166348Y73131D01*
X-166108Y74950D01*
D02*
G37*
G36*
X151150Y-77450D02*
X140708D01*
X140948Y-79269D01*
X142132Y-82128D01*
X144016Y-84584D01*
X146472Y-86468D01*
X149331Y-87652D01*
X151150Y-87892D01*
Y-77450D01*
D02*
G37*
G36*
X-140708D02*
X-151150D01*
Y-87892D01*
X-149331Y-87652D01*
X-146472Y-86468D01*
X-144016Y-84584D01*
X-142132Y-82128D01*
X-140948Y-79269D01*
X-140708Y-77450D01*
D02*
G37*
G36*
X152400Y-89744D02*
X149331Y-90148D01*
X146472Y-91332D01*
X144016Y-93216D01*
X142132Y-95672D01*
X140948Y-98531D01*
X140544Y-101600D01*
X140948Y-104669D01*
X142132Y-107528D01*
X144016Y-109984D01*
X146472Y-111868D01*
X149331Y-113052D01*
X152400Y-113456D01*
X155469Y-113052D01*
X158328Y-111868D01*
X160784Y-109984D01*
X162668Y-107528D01*
X163852Y-104669D01*
X164256Y-101600D01*
X163852Y-98531D01*
X162668Y-95672D01*
X160784Y-93216D01*
X158328Y-91332D01*
X155469Y-90148D01*
X152400Y-89744D01*
D02*
G37*
G36*
X105000Y-107944D02*
X103303Y-108167D01*
X101722Y-108822D01*
X100364Y-109864D01*
X99322Y-111222D01*
X99003Y-111994D01*
X98136Y-110864D01*
X96778Y-109822D01*
X95197Y-109167D01*
X93500Y-108944D01*
X91803Y-109167D01*
X90222Y-109822D01*
X88864Y-110864D01*
X87822Y-112222D01*
X87167Y-113803D01*
X86944Y-115500D01*
X87167Y-117197D01*
X87822Y-118778D01*
X88864Y-120136D01*
X90222Y-121178D01*
X91803Y-121833D01*
X93500Y-122056D01*
X95197Y-121833D01*
X96778Y-121178D01*
X98136Y-120136D01*
X99178Y-118778D01*
X99497Y-118006D01*
X100364Y-119136D01*
X101722Y-120178D01*
X103303Y-120833D01*
X105000Y-121056D01*
X106697Y-120833D01*
X108278Y-120178D01*
X109636Y-119136D01*
X110678Y-117778D01*
X111333Y-116197D01*
X111556Y-114500D01*
X111333Y-112803D01*
X110678Y-111222D01*
X109636Y-109864D01*
X108278Y-108822D01*
X106697Y-108167D01*
X105000Y-107944D01*
D02*
G37*
G36*
X-87000Y-75444D02*
X-88697Y-75667D01*
X-90278Y-76322D01*
X-91636Y-77364D01*
X-92678Y-78722D01*
X-93333Y-80303D01*
X-93556Y-82000D01*
X-93333Y-83697D01*
X-92678Y-85278D01*
X-91636Y-86636D01*
X-90278Y-87678D01*
X-88697Y-88333D01*
X-87000Y-88556D01*
X-86705Y-88517D01*
X-86662Y-88847D01*
X-87197Y-88917D01*
X-88778Y-89572D01*
X-90136Y-90614D01*
X-91178Y-91972D01*
X-91833Y-93553D01*
X-92056Y-95250D01*
X-91833Y-96947D01*
X-91178Y-98528D01*
X-90136Y-99886D01*
X-88778Y-100928D01*
X-87197Y-101583D01*
X-85500Y-101806D01*
X-83803Y-101583D01*
X-82222Y-100928D01*
X-80864Y-99886D01*
X-79822Y-98528D01*
X-79167Y-96947D01*
X-78944Y-95250D01*
X-79088Y-94153D01*
X-79002Y-94142D01*
X-78428Y-95528D01*
X-77386Y-96886D01*
X-76028Y-97928D01*
X-74447Y-98583D01*
X-72750Y-98806D01*
X-71053Y-98583D01*
X-69472Y-97928D01*
X-68114Y-96886D01*
X-67072Y-95528D01*
X-66417Y-93947D01*
X-66194Y-92250D01*
X-66417Y-90553D01*
X-67072Y-88972D01*
X-68114Y-87614D01*
X-69472Y-86572D01*
X-71053Y-85917D01*
X-72750Y-85694D01*
X-73998Y-85858D01*
X-74572Y-84472D01*
X-75614Y-83114D01*
X-76972Y-82072D01*
X-78553Y-81417D01*
X-80250Y-81194D01*
X-80545Y-81233D01*
X-80667Y-80303D01*
X-81322Y-78722D01*
X-82364Y-77364D01*
X-83722Y-76322D01*
X-85303Y-75667D01*
X-87000Y-75444D01*
D02*
G37*
G36*
X-152400Y-38944D02*
X-155469Y-39348D01*
X-158328Y-40532D01*
X-160784Y-42416D01*
X-162668Y-44872D01*
X-163852Y-47731D01*
X-164256Y-50800D01*
X-163852Y-53869D01*
X-162668Y-56728D01*
X-160784Y-59184D01*
X-158328Y-61068D01*
X-155469Y-62252D01*
X-152400Y-62656D01*
X-149331Y-62252D01*
X-146472Y-61068D01*
X-144016Y-59184D01*
X-142132Y-56728D01*
X-140948Y-53869D01*
X-140544Y-50800D01*
X-140948Y-47731D01*
X-142132Y-44872D01*
X-144016Y-42416D01*
X-146472Y-40532D01*
X-149331Y-39348D01*
X-152400Y-38944D01*
D02*
G37*
G36*
X-99500Y-47194D02*
X-101197Y-47417D01*
X-102778Y-48072D01*
X-104136Y-49114D01*
X-105178Y-50472D01*
X-105640Y-51588D01*
X-106053Y-51417D01*
X-107750Y-51194D01*
X-109447Y-51417D01*
X-110515Y-51860D01*
X-110572Y-51722D01*
X-111614Y-50364D01*
X-112972Y-49322D01*
X-114553Y-48667D01*
X-116250Y-48444D01*
X-117947Y-48667D01*
X-119528Y-49322D01*
X-120886Y-50364D01*
X-121928Y-51722D01*
X-122583Y-53303D01*
X-122806Y-55000D01*
X-122583Y-56697D01*
X-121928Y-58278D01*
X-120886Y-59636D01*
X-119528Y-60678D01*
X-117947Y-61333D01*
X-116250Y-61556D01*
X-114553Y-61333D01*
X-113485Y-60890D01*
X-113428Y-61028D01*
X-112386Y-62386D01*
X-111028Y-63428D01*
X-109447Y-64083D01*
X-107750Y-64306D01*
X-106053Y-64083D01*
X-104472Y-63428D01*
X-103114Y-62386D01*
X-102072Y-61028D01*
X-101610Y-59912D01*
X-101197Y-60083D01*
X-99500Y-60306D01*
X-97803Y-60083D01*
X-96222Y-59428D01*
X-94864Y-58386D01*
X-93822Y-57028D01*
X-93167Y-55447D01*
X-92944Y-53750D01*
X-93167Y-52053D01*
X-93822Y-50472D01*
X-94864Y-49114D01*
X-96222Y-48072D01*
X-97803Y-47417D01*
X-99500Y-47194D01*
D02*
G37*
G36*
X32500Y-27194D02*
X30803Y-27417D01*
X29222Y-28072D01*
X27864Y-29114D01*
X26822Y-30472D01*
X26167Y-32053D01*
X25944Y-33750D01*
X26060Y-34634D01*
X25803Y-34667D01*
X24222Y-35322D01*
X22864Y-36364D01*
X21822Y-37722D01*
X21167Y-39303D01*
X20944Y-41000D01*
X21167Y-42697D01*
X21822Y-44278D01*
X22864Y-45636D01*
X24222Y-46678D01*
X25803Y-47333D01*
X27500Y-47556D01*
X29197Y-47333D01*
X30778Y-46678D01*
X32136Y-45636D01*
X33178Y-44278D01*
X33833Y-42697D01*
X34056Y-41000D01*
X33940Y-40117D01*
X34197Y-40083D01*
X35778Y-39428D01*
X37136Y-38386D01*
X38178Y-37028D01*
X38833Y-35447D01*
X39056Y-33750D01*
X38833Y-32053D01*
X38178Y-30472D01*
X37136Y-29114D01*
X35778Y-28072D01*
X34197Y-27417D01*
X32500Y-27194D01*
D02*
G37*
G36*
X-108750Y-72944D02*
X-110447Y-73167D01*
X-112028Y-73822D01*
X-113386Y-74864D01*
X-114428Y-76222D01*
X-115083Y-77803D01*
X-115306Y-79500D01*
X-115083Y-81197D01*
X-114428Y-82778D01*
X-113386Y-84136D01*
X-112028Y-85178D01*
X-110447Y-85833D01*
X-108750Y-86056D01*
X-107053Y-85833D01*
X-105472Y-85178D01*
X-104114Y-84136D01*
X-103072Y-82778D01*
X-102417Y-81197D01*
X-102194Y-79500D01*
X-102417Y-77803D01*
X-103072Y-76222D01*
X-104114Y-74864D01*
X-105472Y-73822D01*
X-107053Y-73167D01*
X-108750Y-72944D01*
D02*
G37*
G36*
X-151150Y-64508D02*
Y-74950D01*
X-140708D01*
X-140948Y-73131D01*
X-142132Y-70272D01*
X-144016Y-67816D01*
X-146472Y-65932D01*
X-149331Y-64748D01*
X-151150Y-64508D01*
D02*
G37*
G36*
X151150D02*
X149331Y-64748D01*
X146472Y-65932D01*
X144016Y-67816D01*
X142132Y-70272D01*
X140948Y-73131D01*
X140708Y-74950D01*
X151150D01*
Y-64508D01*
D02*
G37*
G36*
X-52050Y-140708D02*
X-53869Y-140948D01*
X-56728Y-142132D01*
X-59184Y-144016D01*
X-61068Y-146472D01*
X-62252Y-149331D01*
X-62492Y-151150D01*
X-52050D01*
Y-140708D01*
D02*
G37*
G36*
X74950D02*
X73131Y-140948D01*
X70272Y-142132D01*
X67816Y-144016D01*
X65932Y-146472D01*
X64748Y-149331D01*
X64508Y-151150D01*
X74950D01*
Y-140708D01*
D02*
G37*
G36*
X-52050Y-153650D02*
X-62492D01*
X-62252Y-155469D01*
X-61068Y-158328D01*
X-59184Y-160784D01*
X-56728Y-162668D01*
X-53869Y-163852D01*
X-52050Y-164092D01*
Y-153650D01*
D02*
G37*
G36*
X-76200Y-140544D02*
X-79269Y-140948D01*
X-82128Y-142132D01*
X-84584Y-144016D01*
X-86468Y-146472D01*
X-87652Y-149331D01*
X-88056Y-152400D01*
X-87652Y-155469D01*
X-86468Y-158328D01*
X-84584Y-160784D01*
X-82128Y-162668D01*
X-79269Y-163852D01*
X-76200Y-164256D01*
X-73131Y-163852D01*
X-70272Y-162668D01*
X-67816Y-160784D01*
X-65932Y-158328D01*
X-64748Y-155469D01*
X-64344Y-152400D01*
X-64748Y-149331D01*
X-65932Y-146472D01*
X-67816Y-144016D01*
X-70272Y-142132D01*
X-73131Y-140948D01*
X-76200Y-140544D01*
D02*
G37*
G36*
X50800D02*
X47731Y-140948D01*
X44872Y-142132D01*
X42416Y-144016D01*
X40532Y-146472D01*
X39348Y-149331D01*
X38944Y-152400D01*
X39348Y-155469D01*
X40532Y-158328D01*
X42416Y-160784D01*
X44872Y-162668D01*
X47731Y-163852D01*
X50800Y-164256D01*
X53869Y-163852D01*
X56728Y-162668D01*
X59184Y-160784D01*
X61068Y-158328D01*
X62252Y-155469D01*
X62656Y-152400D01*
X62252Y-149331D01*
X61068Y-146472D01*
X59184Y-144016D01*
X56728Y-142132D01*
X53869Y-140948D01*
X50800Y-140544D01*
D02*
G37*
G36*
X77450Y-140708D02*
Y-151150D01*
X87892D01*
X87652Y-149331D01*
X86468Y-146472D01*
X84584Y-144016D01*
X82128Y-142132D01*
X79269Y-140948D01*
X77450Y-140708D01*
D02*
G37*
G36*
X47750Y-107194D02*
X46053Y-107417D01*
X44472Y-108072D01*
X43114Y-109114D01*
X42072Y-110472D01*
X41417Y-112053D01*
X41194Y-113750D01*
X41417Y-115447D01*
X42072Y-117028D01*
X43114Y-118386D01*
X44472Y-119428D01*
X46053Y-120083D01*
X47750Y-120306D01*
X49447Y-120083D01*
X51028Y-119428D01*
X52386Y-118386D01*
X53428Y-117028D01*
X54083Y-115447D01*
X54306Y-113750D01*
X54083Y-112053D01*
X53428Y-110472D01*
X52386Y-109114D01*
X51028Y-108072D01*
X49447Y-107417D01*
X47750Y-107194D01*
D02*
G37*
G36*
X-52250Y-101944D02*
X-53947Y-102167D01*
X-55528Y-102822D01*
X-56886Y-103864D01*
X-57928Y-105222D01*
X-58583Y-106803D01*
X-58806Y-108500D01*
X-58583Y-110197D01*
X-57928Y-111778D01*
X-56886Y-113136D01*
X-55528Y-114178D01*
X-53947Y-114833D01*
X-52250Y-115056D01*
X-50553Y-114833D01*
X-48972Y-114178D01*
X-47614Y-113136D01*
X-46572Y-111778D01*
X-45917Y-110197D01*
X-45694Y-108500D01*
X-45917Y-106803D01*
X-46572Y-105222D01*
X-47614Y-103864D01*
X-48972Y-102822D01*
X-50553Y-102167D01*
X-52250Y-101944D01*
D02*
G37*
G36*
X27500Y-107444D02*
X25803Y-107667D01*
X24222Y-108322D01*
X22864Y-109364D01*
X21822Y-110722D01*
X21167Y-112303D01*
X20944Y-114000D01*
X21167Y-115697D01*
X21822Y-117278D01*
X22864Y-118636D01*
X24222Y-119678D01*
X25803Y-120333D01*
X27500Y-120556D01*
X29197Y-120333D01*
X30778Y-119678D01*
X32136Y-118636D01*
X33178Y-117278D01*
X33833Y-115697D01*
X34056Y-114000D01*
X33833Y-112303D01*
X33178Y-110722D01*
X32136Y-109364D01*
X30778Y-108322D01*
X29197Y-107667D01*
X27500Y-107444D01*
D02*
G37*
G36*
X-120000Y-102944D02*
X-121697Y-103167D01*
X-123278Y-103822D01*
X-124636Y-104864D01*
X-125678Y-106222D01*
X-126333Y-107803D01*
X-126556Y-109500D01*
X-126333Y-111197D01*
X-125678Y-112778D01*
X-124636Y-114136D01*
X-123278Y-115178D01*
X-121697Y-115833D01*
X-120670Y-115968D01*
X-120806Y-117000D01*
X-120583Y-118697D01*
X-119928Y-120278D01*
X-118886Y-121636D01*
X-117528Y-122678D01*
X-115947Y-123333D01*
X-114250Y-123556D01*
X-112553Y-123333D01*
X-110972Y-122678D01*
X-109614Y-121636D01*
X-108572Y-120278D01*
X-107917Y-118697D01*
X-107694Y-117000D01*
X-107917Y-115303D01*
X-108572Y-113722D01*
X-109614Y-112364D01*
X-110972Y-111322D01*
X-112553Y-110667D01*
X-113580Y-110532D01*
X-113444Y-109500D01*
X-113667Y-107803D01*
X-114322Y-106222D01*
X-115364Y-104864D01*
X-116722Y-103822D01*
X-118303Y-103167D01*
X-120000Y-102944D01*
D02*
G37*
G36*
X2750Y-108944D02*
X1053Y-109167D01*
X-528Y-109822D01*
X-1886Y-110864D01*
X-2928Y-112222D01*
X-3583Y-113803D01*
X-3806Y-115500D01*
X-3583Y-117197D01*
X-2928Y-118778D01*
X-1886Y-120136D01*
X-528Y-121178D01*
X1053Y-121833D01*
X2750Y-122056D01*
X4447Y-121833D01*
X6028Y-121178D01*
X7386Y-120136D01*
X8428Y-118778D01*
X9083Y-117197D01*
X9306Y-115500D01*
X9083Y-113803D01*
X8428Y-112222D01*
X7386Y-110864D01*
X6028Y-109822D01*
X4447Y-109167D01*
X2750Y-108944D01*
D02*
G37*
G36*
X108750Y-34444D02*
X107053Y-34667D01*
X105472Y-35322D01*
X104114Y-36364D01*
X103072Y-37722D01*
X102417Y-39303D01*
X102194Y-41000D01*
X102417Y-42697D01*
X103072Y-44278D01*
X104114Y-45636D01*
X105472Y-46678D01*
X107053Y-47333D01*
X108750Y-47556D01*
X110447Y-47333D01*
X112028Y-46678D01*
X113386Y-45636D01*
X114428Y-44278D01*
X115083Y-42697D01*
X115306Y-41000D01*
X115083Y-39303D01*
X114428Y-37722D01*
X113386Y-36364D01*
X112028Y-35322D01*
X110447Y-34667D01*
X108750Y-34444D01*
D02*
G37*
G36*
X115500Y98056D02*
X113803Y97833D01*
X112222Y97178D01*
X110864Y96136D01*
X109822Y94778D01*
X109167Y93197D01*
X108944Y91500D01*
X109167Y89803D01*
X109822Y88222D01*
X110864Y86864D01*
X112222Y85822D01*
X113803Y85167D01*
X115500Y84944D01*
X117197Y85167D01*
X118778Y85822D01*
X120136Y86864D01*
X121178Y88222D01*
X121833Y89803D01*
X122056Y91500D01*
X121833Y93197D01*
X121178Y94778D01*
X120136Y96136D01*
X118778Y97178D01*
X117197Y97833D01*
X115500Y98056D01*
D02*
G37*
G36*
X118500Y121806D02*
X116803Y121583D01*
X115222Y120928D01*
X113864Y119886D01*
X112822Y118528D01*
X112167Y116947D01*
X111944Y115250D01*
X112167Y113553D01*
X112573Y112573D01*
X112222Y112428D01*
X110864Y111386D01*
X109822Y110028D01*
X109167Y108447D01*
X108944Y106750D01*
X109167Y105053D01*
X109822Y103472D01*
X110864Y102114D01*
X112222Y101072D01*
X113803Y100417D01*
X115500Y100194D01*
X117197Y100417D01*
X118778Y101072D01*
X120136Y102114D01*
X121178Y103472D01*
X121833Y105053D01*
X122056Y106750D01*
X121833Y108447D01*
X121427Y109427D01*
X121778Y109572D01*
X123136Y110614D01*
X124178Y111972D01*
X124833Y113553D01*
X125056Y115250D01*
X124833Y116947D01*
X124178Y118528D01*
X123136Y119886D01*
X121778Y120928D01*
X120197Y121583D01*
X118500Y121806D01*
D02*
G37*
G36*
X101600Y95906D02*
X99903Y95683D01*
X98322Y95028D01*
X96964Y93986D01*
X95922Y92628D01*
X95267Y91047D01*
X95044Y89350D01*
X95267Y87653D01*
X95922Y86072D01*
X96964Y84714D01*
X98322Y83672D01*
X99903Y83017D01*
X101600Y82794D01*
X103297Y83017D01*
X104878Y83672D01*
X106236Y84714D01*
X107277Y86072D01*
X107933Y87653D01*
X108156Y89350D01*
X107933Y91047D01*
X107277Y92628D01*
X106236Y93986D01*
X104878Y95028D01*
X103297Y95683D01*
X101600Y95906D01*
D02*
G37*
G36*
X-5750Y81306D02*
X-7447Y81083D01*
X-9028Y80428D01*
X-10386Y79386D01*
X-11428Y78028D01*
X-12083Y76447D01*
X-12306Y74750D01*
X-12083Y73053D01*
X-11428Y71472D01*
X-10386Y70114D01*
X-9028Y69072D01*
X-7447Y68417D01*
X-5750Y68194D01*
X-4053Y68417D01*
X-2472Y69072D01*
X-1114Y70114D01*
X-72Y71472D01*
X583Y73053D01*
X806Y74750D01*
X583Y76447D01*
X-72Y78028D01*
X-1114Y79386D01*
X-2472Y80428D01*
X-4053Y81083D01*
X-5750Y81306D01*
D02*
G37*
G36*
X-128500Y124556D02*
X-130197Y124333D01*
X-131778Y123678D01*
X-133136Y122636D01*
X-134178Y121278D01*
X-134833Y119697D01*
X-135056Y118000D01*
X-134833Y116303D01*
X-134178Y114722D01*
X-133136Y113364D01*
X-131778Y112322D01*
X-130197Y111667D01*
X-128500Y111444D01*
X-126803Y111667D01*
X-125222Y112322D01*
X-123864Y113364D01*
X-122822Y114722D01*
X-122167Y116303D01*
X-121944Y118000D01*
X-122167Y119697D01*
X-122822Y121278D01*
X-123864Y122636D01*
X-125222Y123678D01*
X-126803Y124333D01*
X-128500Y124556D01*
D02*
G37*
G36*
X62492Y151150D02*
X52050D01*
Y140708D01*
X53869Y140948D01*
X56728Y142132D01*
X59184Y144016D01*
X61068Y146472D01*
X62252Y149331D01*
X62492Y151150D01*
D02*
G37*
G36*
X25400Y164256D02*
X22331Y163852D01*
X19472Y162668D01*
X17016Y160784D01*
X15132Y158328D01*
X13948Y155469D01*
X13544Y152400D01*
X13948Y149331D01*
X15132Y146472D01*
X17016Y144016D01*
X19472Y142132D01*
X22331Y140948D01*
X25400Y140544D01*
X28469Y140948D01*
X31328Y142132D01*
X33784Y144016D01*
X35668Y146472D01*
X36852Y149331D01*
X37256Y152400D01*
X36852Y155469D01*
X35668Y158328D01*
X33784Y160784D01*
X31328Y162668D01*
X28469Y163852D01*
X25400Y164256D01*
D02*
G37*
G36*
X49550Y151150D02*
X39108D01*
X39348Y149331D01*
X40532Y146472D01*
X42416Y144016D01*
X44872Y142132D01*
X47731Y140948D01*
X49550Y140708D01*
Y151150D01*
D02*
G37*
G36*
X-121006Y-24945D02*
X-122703Y-25169D01*
X-124284Y-25824D01*
X-125642Y-26866D01*
X-126684Y-28224D01*
X-127339Y-29805D01*
X-127461Y-30732D01*
X-127750Y-30694D01*
X-129447Y-30917D01*
X-131028Y-31572D01*
X-132386Y-32614D01*
X-133428Y-33972D01*
X-134083Y-35553D01*
X-134306Y-37250D01*
X-134083Y-38947D01*
X-133428Y-40528D01*
X-132386Y-41886D01*
X-131028Y-42928D01*
X-129447Y-43583D01*
X-127750Y-43806D01*
X-126053Y-43583D01*
X-124472Y-42928D01*
X-123114Y-41886D01*
X-122072Y-40528D01*
X-121417Y-38947D01*
X-121295Y-38019D01*
X-121006Y-38058D01*
X-119309Y-37834D01*
X-117728Y-37179D01*
X-116370Y-36137D01*
X-115328Y-34780D01*
X-114673Y-33198D01*
X-114450Y-31502D01*
X-114673Y-29805D01*
X-115328Y-28224D01*
X-116370Y-26866D01*
X-117728Y-25824D01*
X-119309Y-25169D01*
X-121006Y-24945D01*
D02*
G37*
G36*
X151150Y-13708D02*
X149331Y-13948D01*
X146472Y-15132D01*
X144016Y-17016D01*
X142132Y-19472D01*
X140948Y-22331D01*
X140708Y-24150D01*
X151150D01*
Y-13708D01*
D02*
G37*
G36*
X-20250Y-21194D02*
X-21947Y-21417D01*
X-23528Y-22072D01*
X-24886Y-23114D01*
X-25928Y-24472D01*
X-26583Y-26053D01*
X-26806Y-27750D01*
X-26583Y-29447D01*
X-25928Y-31028D01*
X-24886Y-32386D01*
X-23528Y-33428D01*
X-21947Y-34083D01*
X-20250Y-34306D01*
X-18553Y-34083D01*
X-16972Y-33428D01*
X-15614Y-32386D01*
X-14572Y-31028D01*
X-13917Y-29447D01*
X-13694Y-27750D01*
X-13917Y-26053D01*
X-14572Y-24472D01*
X-15614Y-23114D01*
X-16972Y-22072D01*
X-18553Y-21417D01*
X-20250Y-21194D01*
D02*
G37*
G36*
X151150Y-26650D02*
X140708D01*
X140948Y-28469D01*
X142132Y-31328D01*
X144016Y-33784D01*
X146472Y-35668D01*
X149331Y-36852D01*
X151150Y-37092D01*
Y-26650D01*
D02*
G37*
G36*
X124500Y-18694D02*
X122803Y-18917D01*
X121222Y-19572D01*
X119864Y-20614D01*
X119828Y-20662D01*
X97610D01*
X95854Y-21011D01*
X94366Y-22006D01*
X66256Y-50116D01*
X65261Y-51604D01*
X64912Y-53360D01*
Y-58828D01*
X64864Y-58864D01*
X64695Y-59084D01*
X64028Y-58572D01*
X62447Y-57917D01*
X60750Y-57694D01*
X59053Y-57917D01*
X57472Y-58572D01*
X56114Y-59614D01*
X55072Y-60972D01*
X54417Y-62553D01*
X54194Y-64250D01*
X54417Y-65947D01*
X55072Y-67528D01*
X56114Y-68886D01*
X57472Y-69928D01*
X58125Y-70198D01*
X57667Y-71303D01*
X57444Y-73000D01*
X57491Y-73357D01*
X56250Y-73194D01*
X54553Y-73417D01*
X52972Y-74072D01*
X51614Y-75114D01*
X50572Y-76472D01*
X49917Y-78053D01*
X49861Y-78485D01*
X49697Y-78417D01*
X48000Y-78194D01*
X46303Y-78417D01*
X44722Y-79072D01*
X43897Y-79705D01*
X43636Y-79364D01*
X42278Y-78322D01*
X40697Y-77667D01*
X39000Y-77444D01*
X38998Y-77444D01*
X39056Y-77000D01*
X38833Y-75303D01*
X38178Y-73722D01*
X37136Y-72364D01*
X35778Y-71322D01*
X34197Y-70667D01*
X32500Y-70444D01*
X30803Y-70667D01*
X29222Y-71322D01*
X27864Y-72364D01*
X26822Y-73722D01*
X26167Y-75303D01*
X25944Y-77000D01*
X26167Y-78697D01*
X26822Y-80278D01*
X27864Y-81636D01*
X27912Y-81672D01*
Y-87500D01*
X28261Y-89256D01*
X29256Y-90744D01*
X33256Y-94744D01*
X34744Y-95739D01*
X36500Y-96088D01*
X56000D01*
X57756Y-95739D01*
X59244Y-94744D01*
X76494Y-77494D01*
X76550Y-77411D01*
X77886Y-76386D01*
X78928Y-75028D01*
X79583Y-73447D01*
X79806Y-71750D01*
X79583Y-70053D01*
X78928Y-68472D01*
X77886Y-67114D01*
X76528Y-66072D01*
X75625Y-65698D01*
X75833Y-65197D01*
X76056Y-63500D01*
X75833Y-61803D01*
X75178Y-60222D01*
X74136Y-58864D01*
X74088Y-58828D01*
Y-55261D01*
X80770Y-48579D01*
X80917Y-49697D01*
X81572Y-51278D01*
X82614Y-52636D01*
X83972Y-53678D01*
X85553Y-54333D01*
X87250Y-54556D01*
X88709Y-54364D01*
X88917Y-55947D01*
X89572Y-57528D01*
X90614Y-58886D01*
X91972Y-59928D01*
X93553Y-60583D01*
X94728Y-60737D01*
X94694Y-61000D01*
X94917Y-62697D01*
X95572Y-64278D01*
X96614Y-65636D01*
X97972Y-66678D01*
X99553Y-67333D01*
X101250Y-67556D01*
X102947Y-67333D01*
X104528Y-66678D01*
X105886Y-65636D01*
X106928Y-64278D01*
X107583Y-62697D01*
X107806Y-61000D01*
X107583Y-59303D01*
X106928Y-57722D01*
X105886Y-56364D01*
X104528Y-55322D01*
X102947Y-54667D01*
X101771Y-54513D01*
X101806Y-54250D01*
X101583Y-52553D01*
X100928Y-50972D01*
X99886Y-49614D01*
X98528Y-48572D01*
X96947Y-47917D01*
X95250Y-47694D01*
X93791Y-47886D01*
X93583Y-46303D01*
X92928Y-44722D01*
X91886Y-43364D01*
X90528Y-42322D01*
X88947Y-41667D01*
X87829Y-41520D01*
X99511Y-29838D01*
X119828D01*
X119864Y-29886D01*
X121222Y-30928D01*
X122803Y-31583D01*
X124500Y-31806D01*
X126197Y-31583D01*
X127778Y-30928D01*
X127980Y-30773D01*
X128167Y-32197D01*
X128822Y-33778D01*
X129864Y-35136D01*
X131222Y-36178D01*
X132803Y-36833D01*
X134500Y-37056D01*
X136197Y-36833D01*
X137778Y-36178D01*
X139136Y-35136D01*
X140178Y-33778D01*
X140833Y-32197D01*
X141056Y-30500D01*
X140833Y-28803D01*
X140178Y-27222D01*
X139136Y-25864D01*
X137778Y-24822D01*
X136197Y-24167D01*
X134500Y-23944D01*
X132803Y-24167D01*
X131222Y-24822D01*
X131020Y-24977D01*
X130833Y-23553D01*
X130178Y-21972D01*
X129136Y-20614D01*
X127778Y-19572D01*
X126197Y-18917D01*
X124500Y-18694D01*
D02*
G37*
G36*
X10000Y37806D02*
X8303Y37583D01*
X6722Y36928D01*
X5364Y35886D01*
X4322Y34528D01*
X3667Y32947D01*
X3444Y31250D01*
X3667Y29553D01*
X4322Y27972D01*
X5364Y26614D01*
X6722Y25572D01*
X8303Y24917D01*
X8793Y24853D01*
X8417Y23947D01*
X8194Y22250D01*
X8417Y20553D01*
X9072Y18972D01*
X10114Y17614D01*
X11472Y16572D01*
X13053Y15917D01*
X13557Y15851D01*
X13445Y15001D01*
X13668Y13304D01*
X14323Y11723D01*
X15365Y10365D01*
X16723Y9323D01*
X18304Y8668D01*
X18625Y8626D01*
X18444Y7250D01*
X18667Y5553D01*
X19322Y3972D01*
X20068Y3000D01*
X19322Y2028D01*
X18667Y447D01*
X18444Y-1250D01*
X18667Y-2947D01*
X19322Y-4528D01*
X20364Y-5886D01*
X21722Y-6928D01*
X22198Y-7125D01*
X21917Y-7803D01*
X21694Y-9500D01*
X21917Y-11197D01*
X22572Y-12778D01*
X23614Y-14136D01*
X24972Y-15178D01*
X26553Y-15833D01*
X28250Y-16056D01*
X29947Y-15833D01*
X31528Y-15178D01*
X32886Y-14136D01*
X33928Y-12778D01*
X34583Y-11197D01*
X34806Y-9500D01*
X34583Y-7803D01*
X33928Y-6222D01*
X32886Y-4864D01*
X31528Y-3822D01*
X31052Y-3625D01*
X31333Y-2947D01*
X31556Y-1250D01*
X31333Y447D01*
X30678Y2028D01*
X29932Y3000D01*
X30678Y3972D01*
X31333Y5553D01*
X31556Y7250D01*
X31333Y8947D01*
X30678Y10528D01*
X29636Y11886D01*
X28278Y12928D01*
X26697Y13583D01*
X26376Y13625D01*
X26557Y15001D01*
X26334Y16698D01*
X25679Y18279D01*
X24637Y19637D01*
X23279Y20678D01*
X21698Y21333D01*
X21194Y21400D01*
X21306Y22250D01*
X21083Y23947D01*
X20428Y25528D01*
X19386Y26886D01*
X18028Y27928D01*
X16447Y28583D01*
X15957Y28647D01*
X16333Y29553D01*
X16556Y31250D01*
X16333Y32947D01*
X15678Y34528D01*
X14636Y35886D01*
X13278Y36928D01*
X11697Y37583D01*
X10000Y37806D01*
D02*
G37*
G36*
X125000Y43056D02*
X123303Y42833D01*
X121722Y42178D01*
X120364Y41136D01*
X119322Y39778D01*
X118667Y38197D01*
X118444Y36500D01*
X118667Y34803D01*
X119322Y33222D01*
X120364Y31864D01*
X121722Y30822D01*
X123303Y30167D01*
X125000Y29944D01*
X126697Y30167D01*
X128278Y30822D01*
X129636Y31864D01*
X130678Y33222D01*
X131333Y34803D01*
X131556Y36500D01*
X131333Y38197D01*
X130678Y39778D01*
X129636Y41136D01*
X128278Y42178D01*
X126697Y42833D01*
X125000Y43056D01*
D02*
G37*
G36*
X84250Y64806D02*
X82553Y64583D01*
X80972Y63928D01*
X79614Y62886D01*
X78572Y61528D01*
X77917Y59947D01*
X77694Y58250D01*
X77917Y56553D01*
X78572Y54972D01*
X79614Y53614D01*
X80972Y52572D01*
X82553Y51918D01*
X84250Y51694D01*
X85560Y51867D01*
X85667Y51053D01*
X85793Y50750D01*
X77500D01*
Y35974D01*
X76744Y34989D01*
X76089Y33408D01*
X75865Y31711D01*
X76089Y30014D01*
X76744Y28433D01*
X77500Y27447D01*
Y14250D01*
X88165D01*
X87364Y13636D01*
X86322Y12278D01*
X85667Y10697D01*
X85444Y9000D01*
X85667Y7303D01*
X86322Y5722D01*
X87364Y4364D01*
X88722Y3322D01*
X90303Y2667D01*
X90712Y2614D01*
X83741Y-4357D01*
X83222Y-4572D01*
X81864Y-5614D01*
X80822Y-6972D01*
X80167Y-8553D01*
X79944Y-10250D01*
X80167Y-11947D01*
X80822Y-13528D01*
X81864Y-14886D01*
X83222Y-15928D01*
X84803Y-16583D01*
X86500Y-16806D01*
X88197Y-16583D01*
X89778Y-15928D01*
X91136Y-14886D01*
X92178Y-13528D01*
X92393Y-13009D01*
X108284Y2882D01*
X111284D01*
X111803Y2667D01*
X113500Y2444D01*
X115197Y2667D01*
X116778Y3322D01*
X118136Y4364D01*
X119178Y5722D01*
X119833Y7303D01*
X120056Y9000D01*
X119833Y10697D01*
X119178Y12278D01*
X118136Y13636D01*
X117336Y14250D01*
X117500D01*
Y31250D01*
X97500D01*
Y20989D01*
X97500Y20988D01*
Y31250D01*
X88917D01*
X88977Y31711D01*
X88754Y33408D01*
X88612Y33750D01*
X97500D01*
Y49240D01*
X97500Y49241D01*
Y33750D01*
X117500D01*
Y46302D01*
X117680Y47207D01*
X117886Y47364D01*
X118927Y48722D01*
X119583Y50303D01*
X119806Y52000D01*
X119583Y53697D01*
X118927Y55278D01*
X117886Y56636D01*
X116528Y57678D01*
X114947Y58333D01*
X113250Y58556D01*
X111553Y58333D01*
X109972Y57678D01*
X108614Y56636D01*
X107572Y55278D01*
X106917Y53697D01*
X106694Y52000D01*
X106858Y50750D01*
X98207D01*
X98333Y51053D01*
X98556Y52750D01*
X98333Y54447D01*
X97678Y56028D01*
X96636Y57386D01*
X95278Y58428D01*
X93697Y59083D01*
X92000Y59306D01*
X90690Y59134D01*
X90583Y59947D01*
X89928Y61528D01*
X88886Y62886D01*
X87528Y63928D01*
X85947Y64583D01*
X84250Y64806D01*
D02*
G37*
G36*
X42500Y32806D02*
X40803Y32583D01*
X39222Y31928D01*
X37864Y30886D01*
X36822Y29528D01*
X36167Y27947D01*
X35944Y26250D01*
X36167Y24553D01*
X36822Y22972D01*
X37864Y21614D01*
X39222Y20572D01*
X40125Y20198D01*
X39917Y19697D01*
X39694Y18000D01*
X39917Y16303D01*
X40572Y14722D01*
X41614Y13364D01*
X42972Y12322D01*
X44553Y11667D01*
X46250Y11444D01*
X47947Y11667D01*
X49528Y12322D01*
X50886Y13364D01*
X51928Y14722D01*
X52583Y16303D01*
X52806Y18000D01*
X52583Y19697D01*
X51928Y21278D01*
X50886Y22636D01*
X49528Y23678D01*
X48625Y24052D01*
X48833Y24553D01*
X49056Y26250D01*
X48833Y27947D01*
X48178Y29528D01*
X47136Y30886D01*
X45778Y31928D01*
X44197Y32583D01*
X42500Y32806D01*
D02*
G37*
G36*
X-93500Y2056D02*
X-95197Y1833D01*
X-96778Y1178D01*
X-98136Y136D01*
X-99178Y-1222D01*
X-99833Y-2803D01*
X-100056Y-4500D01*
X-99833Y-6197D01*
X-99178Y-7778D01*
X-98136Y-9136D01*
X-96778Y-10178D01*
X-95197Y-10833D01*
X-93500Y-11056D01*
X-91803Y-10833D01*
X-90222Y-10178D01*
X-88864Y-9136D01*
X-87822Y-7778D01*
X-87167Y-6197D01*
X-86944Y-4500D01*
X-87167Y-2803D01*
X-87822Y-1222D01*
X-88864Y136D01*
X-90222Y1178D01*
X-91803Y1833D01*
X-93500Y2056D01*
D02*
G37*
G36*
X58000Y13306D02*
X56303Y13083D01*
X54722Y12428D01*
X53364Y11386D01*
X52323Y10028D01*
X51667Y8447D01*
X51444Y6750D01*
X51667Y5053D01*
X52323Y3472D01*
X53364Y2114D01*
X54722Y1072D01*
X56303Y417D01*
X58000Y194D01*
X59697Y417D01*
X61278Y1072D01*
X62636Y2114D01*
X63678Y3472D01*
X64333Y5053D01*
X64556Y6750D01*
X64333Y8447D01*
X63678Y10028D01*
X62636Y11386D01*
X61278Y12428D01*
X59697Y13083D01*
X58000Y13306D01*
D02*
G37*
G36*
X-102850Y176550D02*
X-113292D01*
X-113052Y174731D01*
X-111868Y171872D01*
X-109984Y169416D01*
X-107528Y167532D01*
X-104669Y166348D01*
X-102850Y166108D01*
Y176550D01*
D02*
G37*
G36*
X-89908D02*
X-100350D01*
Y166108D01*
X-98531Y166348D01*
X-95672Y167532D01*
X-93216Y169416D01*
X-91332Y171872D01*
X-90148Y174731D01*
X-89908Y176550D01*
D02*
G37*
%LPD*%
D10*
X-122500Y42250D02*
D03*
Y22750D02*
D03*
X-102500Y42250D02*
D03*
Y22750D02*
D03*
X-82500Y42250D02*
D03*
Y22750D02*
D03*
X-62500D02*
D03*
Y42250D02*
D03*
X107500Y22750D02*
D03*
Y42250D02*
D03*
X87500Y22750D02*
D03*
Y42250D02*
D03*
D16*
X86500Y-10250D02*
X105750Y9000D01*
X113500D01*
D17*
X97610Y-25250D02*
X124500D01*
X69500Y-53360D02*
X97610Y-25250D01*
X69500Y-63500D02*
Y-53360D01*
X73250Y-74250D02*
Y-71750D01*
X56000Y-91500D02*
X73250Y-74250D01*
X36500Y-91500D02*
X56000D01*
X32500Y-87500D02*
X36500Y-91500D01*
X32500Y-87500D02*
Y-77000D01*
X-95500Y11250D02*
X-84000Y22750D01*
X-39750Y22250D02*
X-30500Y31500D01*
X-103500Y4000D02*
Y21750D01*
X54500Y131250D02*
X59250Y136000D01*
X59000Y124500D02*
X71500Y137000D01*
X-13250Y131250D02*
X54500D01*
X-69000Y75500D02*
X-13250Y131250D01*
X-69000Y55750D02*
Y75500D01*
X-82500Y42250D02*
X-69000Y55750D01*
X-10500Y124500D02*
X59000D01*
X-62500Y72500D02*
X-10500Y124500D01*
X-62500Y42250D02*
Y72500D01*
X72150Y87400D02*
Y97550D01*
X68250Y83500D02*
X72150Y87400D01*
Y97550D02*
X127000Y152400D01*
X-30500Y60250D02*
X-28000Y62750D01*
X-30500Y31500D02*
Y60250D01*
X-125750Y11500D02*
Y19500D01*
X-122500Y22750D01*
X-103500Y21750D02*
X-102500Y22750D01*
X-84000D02*
X-82500D01*
X-62500Y9250D02*
Y22750D01*
X82421Y27829D02*
X87500Y22750D01*
X92000Y9000D02*
Y10800D01*
X105750Y22750D02*
X107500D01*
X92000Y9000D02*
X105750Y22750D01*
X92000Y46751D02*
Y52750D01*
X87500Y42250D02*
X92000Y46751D01*
X107500Y42250D02*
X113250Y48000D01*
Y52000D01*
X-109250Y49001D02*
Y50750D01*
Y49001D02*
X-102500Y42250D01*
X-118500Y46250D02*
Y52500D01*
X-122500Y42250D02*
X-118500Y46250D01*
X82421Y27829D02*
Y31711D01*
X-50800Y-177800D02*
X-38000Y-165000D01*
X-25400Y-152400D02*
Y-148850D01*
X-44000Y-66750D02*
X-40750Y-63500D01*
X-29750Y-144500D02*
Y-60250D01*
X-31250Y-58750D02*
X-29750Y-60250D01*
X-40000Y-50500D02*
X-39000Y-51500D01*
X-28000D01*
X-24500Y-55000D01*
Y-132250D02*
Y-55000D01*
Y-132250D02*
X-12750Y-144000D01*
Y-165150D02*
Y-144000D01*
X-25400Y-177800D02*
X-12750Y-165150D01*
X-29750Y-144500D02*
X-25400Y-148850D01*
X-44000Y-75000D02*
Y-66750D01*
Y-75000D02*
X-38000Y-81000D01*
Y-165000D02*
Y-81000D01*
X-31000Y-44250D02*
X-28250D01*
X-19750Y-52750D01*
Y-129750D02*
Y-52750D01*
Y-129750D02*
X-0Y-149500D01*
Y-152400D02*
Y-149500D01*
X-40250Y-36500D02*
X-28750D01*
X-15000Y-50250D01*
Y-128000D02*
Y-50250D01*
Y-128000D02*
X-6000Y-137000D01*
X3750D01*
X12500Y-145750D01*
Y-165300D02*
Y-145750D01*
X-0Y-177800D02*
X12500Y-165300D01*
D18*
X-101600Y152400D02*
X-89000Y165000D01*
X12600D01*
X25400Y177800D01*
X50800Y-177800D02*
X63600Y-165000D01*
X161000D01*
X165000Y-161000D01*
Y-114400D01*
X177800Y-101600D01*
X165250Y-89051D02*
X177800Y-101600D01*
X165250Y-89051D02*
Y37950D01*
X152400Y50800D02*
X165250Y37950D01*
X152400Y50800D02*
X165250Y63650D01*
Y160500D01*
X25400Y177800D02*
X38200Y165000D01*
X-165000Y88800D02*
X-152400Y76200D01*
X-165000Y88800D02*
Y164000D01*
X-114200Y165000D02*
X-101600Y152400D01*
X-164000Y165000D02*
X-114200D01*
X-165000Y164000D02*
X-164000Y165000D01*
X-165000Y63600D02*
X-152400Y76200D01*
X-177800Y-50800D02*
X-165000Y-38000D01*
Y63600D01*
X-88750Y-165250D02*
X-76200Y-177800D01*
X-161250Y-165250D02*
X-88750D01*
X-165000Y-161500D02*
X-161250Y-165250D01*
X-165000Y-161500D02*
Y-63600D01*
X-177800Y-50800D02*
X-165000Y-63600D01*
X160750Y165000D02*
X165250Y160500D01*
X38200Y165000D02*
X160750D01*
D19*
X177800Y-177800D02*
D03*
Y-152400D02*
D03*
Y-127000D02*
D03*
Y-101600D02*
D03*
Y-76200D02*
D03*
Y-50800D02*
D03*
Y-25400D02*
D03*
Y0D02*
D03*
Y25400D02*
D03*
Y50800D02*
D03*
Y76200D02*
D03*
Y101600D02*
D03*
Y127000D02*
D03*
Y152400D02*
D03*
Y177800D02*
D03*
X152400Y-177800D02*
D03*
Y-127000D02*
D03*
Y-101600D02*
D03*
Y-76200D02*
D03*
Y-50800D02*
D03*
Y-25400D02*
D03*
Y0D02*
D03*
Y25400D02*
D03*
Y50800D02*
D03*
Y76200D02*
D03*
Y101600D02*
D03*
Y127000D02*
D03*
Y177800D02*
D03*
X127000Y-177800D02*
D03*
Y-152400D02*
D03*
Y152400D02*
D03*
Y177800D02*
D03*
X101600Y-177800D02*
D03*
Y-152400D02*
D03*
Y152400D02*
D03*
Y177800D02*
D03*
X76200Y-177800D02*
D03*
Y-152400D02*
D03*
Y152400D02*
D03*
Y177800D02*
D03*
X50800Y-177800D02*
D03*
Y-152400D02*
D03*
Y152400D02*
D03*
Y177800D02*
D03*
X25400Y-177800D02*
D03*
Y-152400D02*
D03*
Y152400D02*
D03*
Y177800D02*
D03*
X0Y-177800D02*
D03*
Y-152400D02*
D03*
Y152400D02*
D03*
Y177800D02*
D03*
X-25400Y-177800D02*
D03*
Y-152400D02*
D03*
Y152400D02*
D03*
Y177800D02*
D03*
X-50800Y-177800D02*
D03*
Y-152400D02*
D03*
Y152400D02*
D03*
Y177800D02*
D03*
X-76200Y-177800D02*
D03*
Y-152400D02*
D03*
Y152400D02*
D03*
Y177800D02*
D03*
X-101600Y-177800D02*
D03*
Y-152400D02*
D03*
Y152400D02*
D03*
Y177800D02*
D03*
X-127000Y-177800D02*
D03*
Y-152400D02*
D03*
Y152400D02*
D03*
Y177800D02*
D03*
X-152400Y-177800D02*
D03*
Y-127000D02*
D03*
Y-101600D02*
D03*
Y-76200D02*
D03*
Y-50800D02*
D03*
Y-25400D02*
D03*
Y0D02*
D03*
Y25400D02*
D03*
Y50800D02*
D03*
Y76200D02*
D03*
Y101600D02*
D03*
Y127000D02*
D03*
Y177800D02*
D03*
X-177800Y-177800D02*
D03*
Y-152400D02*
D03*
Y-127000D02*
D03*
Y-101600D02*
D03*
Y-76200D02*
D03*
Y-50800D02*
D03*
Y-25400D02*
D03*
Y0D02*
D03*
Y25400D02*
D03*
Y50800D02*
D03*
Y76200D02*
D03*
Y101600D02*
D03*
Y127000D02*
D03*
Y152400D02*
D03*
Y177800D02*
D03*
X-152400Y-152400D02*
D03*
X152400D02*
D03*
Y152400D02*
D03*
D20*
X-152400D02*
D03*
D21*
X-7250Y-73750D02*
D03*
X92500Y-21000D02*
D03*
X120250Y-109250D02*
D03*
X118000Y-56250D02*
D03*
X77750Y-100500D02*
D03*
X124500Y-25250D02*
D03*
X69500Y-63500D02*
D03*
X125000Y36500D02*
D03*
X-80250Y-87750D02*
D03*
X-87000Y-82000D02*
D03*
X-95500Y11250D02*
D03*
X-39750Y22250D02*
D03*
X-99500Y-53750D02*
D03*
X-107750Y-57750D02*
D03*
X-116250Y-55000D02*
D03*
X-72750Y-92250D02*
D03*
X-128500Y118000D02*
D03*
X-108750Y-79500D02*
D03*
X59250Y136000D02*
D03*
X71500Y137000D02*
D03*
X75250Y76000D02*
D03*
X68250Y83500D02*
D03*
X84250Y58250D02*
D03*
X-28000Y62750D02*
D03*
X-23250Y15000D02*
D03*
X-41500Y37250D02*
D03*
X25000Y-1250D02*
D03*
X10000Y31250D02*
D03*
X-24500Y6000D02*
D03*
X-5750Y74750D02*
D03*
X9500Y103000D02*
D03*
X105000Y-114500D02*
D03*
X2750Y-115500D02*
D03*
X27500Y-114000D02*
D03*
X93500Y-115500D02*
D03*
X47750Y-113750D02*
D03*
X-1250Y-130000D02*
D03*
X-8500Y-124750D02*
D03*
X-31500Y18250D02*
D03*
X-38250Y12750D02*
D03*
X-83500Y70250D02*
D03*
X-79500Y78000D02*
D03*
X-93250Y69250D02*
D03*
X-49250Y32250D02*
D03*
X-95500Y80250D02*
D03*
X-89000Y88000D02*
D03*
X-99250Y95000D02*
D03*
X28250Y-9500D02*
D03*
X14750Y22250D02*
D03*
X42500Y26250D02*
D03*
X20001Y15001D02*
D03*
X25000Y7250D02*
D03*
X-20250Y-27750D02*
D03*
X-29250Y71250D02*
D03*
X-36500Y65000D02*
D03*
X-13750Y-4750D02*
D03*
X-127500Y106250D02*
D03*
X-55750Y108750D02*
D03*
X22750Y85000D02*
D03*
X65750Y96250D02*
D03*
X81500Y7500D02*
D03*
X-125750Y11500D02*
D03*
X-103500Y4000D02*
D03*
X-62500Y9250D02*
D03*
X92000Y9000D02*
D03*
X86500Y-10250D02*
D03*
X113500Y9000D02*
D03*
X58000Y6750D02*
D03*
X113250Y52000D02*
D03*
X92000Y52750D02*
D03*
X-118500Y52500D02*
D03*
X-109250Y50750D02*
D03*
X-116500Y65500D02*
D03*
X101600Y89350D02*
D03*
X-5250Y116500D02*
D03*
X2750Y111250D02*
D03*
X118500Y115250D02*
D03*
X-22500Y44250D02*
D03*
X82421Y31711D02*
D03*
X-15000Y38250D02*
D03*
X-6500Y-42000D02*
D03*
X39000Y-84000D02*
D03*
X-127750Y-37250D02*
D03*
X-121006Y-31502D02*
D03*
X-93500Y-4500D02*
D03*
X-26750D02*
D03*
X32500Y-33750D02*
D03*
X134500Y-30500D02*
D03*
X27500Y-41000D02*
D03*
X-31000Y-44250D02*
D03*
X-40000Y-50500D02*
D03*
X-40750Y-63500D02*
D03*
X-31250Y-58750D02*
D03*
X-40250Y-36500D02*
D03*
X-37002Y-72003D02*
D03*
X-8375Y-51500D02*
D03*
X-7750Y-62250D02*
D03*
X14750Y-137000D02*
D03*
X-52250Y-108500D02*
D03*
X87250Y-48000D02*
D03*
X95250Y-54250D02*
D03*
X108750Y-41000D02*
D03*
X101250Y-61000D02*
D03*
X-120000Y-109500D02*
D03*
X-114250Y-117000D02*
D03*
X-85500Y-95250D02*
D03*
X73250Y-71750D02*
D03*
X60750Y-64250D02*
D03*
X64000Y-73000D02*
D03*
X56250Y-79750D02*
D03*
X48000Y-84750D02*
D03*
X46250Y18000D02*
D03*
X115500Y106750D02*
D03*
Y91500D02*
D03*
X135000Y87500D02*
D03*
X32500Y-77000D02*
D03*
M02*
