G04 Layer_Physical_Order=3*
G04 Layer_Color=16440176*
%FSLAX44Y44*%
%MOMM*%
G71*
G01*
G75*
%ADD17C,0.2000*%
%ADD19C,1.6510*%
%ADD20R,1.6510X1.6510*%
%ADD21C,0.6000*%
G36*
X-120088Y76000D02*
X-119739Y74244D01*
X-118744Y72756D01*
X-114338Y68349D01*
Y60301D01*
X-113989Y58545D01*
X-112994Y57056D01*
X-112413Y56475D01*
X-112528Y56428D01*
X-113027Y56045D01*
X-113864Y57136D01*
X-115222Y58178D01*
X-116803Y58833D01*
X-118500Y59056D01*
X-120197Y58833D01*
X-120712Y58619D01*
Y86550D01*
X-120088Y87173D01*
Y76000D01*
D02*
G37*
G36*
X171872Y15132D02*
X174731Y13948D01*
X177800Y13544D01*
X180869Y13948D01*
X183728Y15132D01*
X185000Y16108D01*
Y9292D01*
X183728Y10268D01*
X180869Y11452D01*
X177800Y11856D01*
X174731Y11452D01*
X171872Y10268D01*
X169416Y8384D01*
X167532Y5928D01*
X166348Y3069D01*
X165944Y0D01*
X166348Y-3069D01*
X167532Y-5928D01*
X169416Y-8384D01*
X171872Y-10268D01*
X174731Y-11452D01*
X177800Y-11856D01*
X180869Y-11452D01*
X183728Y-10268D01*
X185000Y-9292D01*
Y-16108D01*
X183728Y-15132D01*
X180869Y-13948D01*
X177800Y-13544D01*
X174731Y-13948D01*
X171872Y-15132D01*
X169416Y-17016D01*
X167532Y-19472D01*
X166348Y-22331D01*
X165944Y-25400D01*
X166348Y-28469D01*
X167532Y-31328D01*
X169416Y-33784D01*
X171872Y-35668D01*
X174731Y-36852D01*
X177800Y-37256D01*
X180869Y-36852D01*
X183728Y-35668D01*
X185000Y-34692D01*
Y-41508D01*
X183728Y-40532D01*
X180869Y-39348D01*
X177800Y-38944D01*
X174731Y-39348D01*
X171872Y-40532D01*
X169416Y-42416D01*
X167532Y-44872D01*
X166348Y-47731D01*
X165944Y-50800D01*
X166348Y-53869D01*
X167532Y-56728D01*
X169416Y-59184D01*
X171872Y-61068D01*
X174731Y-62252D01*
X177800Y-62656D01*
X180869Y-62252D01*
X183728Y-61068D01*
X185000Y-60092D01*
Y-66908D01*
X183728Y-65932D01*
X180869Y-64748D01*
X177800Y-64344D01*
X174731Y-64748D01*
X171872Y-65932D01*
X169416Y-67816D01*
X167532Y-70272D01*
X166348Y-73131D01*
X165944Y-76200D01*
X166348Y-79269D01*
X167532Y-82128D01*
X169416Y-84584D01*
X171872Y-86468D01*
X174731Y-87652D01*
X177800Y-88056D01*
X180869Y-87652D01*
X183728Y-86468D01*
X185000Y-85492D01*
Y-92308D01*
X183728Y-91332D01*
X180869Y-90148D01*
X177800Y-89744D01*
X174731Y-90148D01*
X171872Y-91332D01*
X169416Y-93216D01*
X167532Y-95672D01*
X166348Y-98531D01*
X165944Y-101600D01*
X166348Y-104669D01*
X167532Y-107528D01*
X169416Y-109984D01*
X171872Y-111868D01*
X174731Y-113052D01*
X177800Y-113456D01*
X180869Y-113052D01*
X183728Y-111868D01*
X185000Y-110892D01*
Y-117708D01*
X183728Y-116732D01*
X180869Y-115548D01*
X177800Y-115144D01*
X174731Y-115548D01*
X171872Y-116732D01*
X169416Y-118616D01*
X167532Y-121072D01*
X166348Y-123931D01*
X165944Y-127000D01*
X166348Y-130069D01*
X167532Y-132928D01*
X169416Y-135384D01*
X171872Y-137268D01*
X174731Y-138452D01*
X177800Y-138856D01*
X180869Y-138452D01*
X183728Y-137268D01*
X185000Y-136292D01*
Y-143108D01*
X183728Y-142132D01*
X180869Y-140948D01*
X177800Y-140544D01*
X174731Y-140948D01*
X171872Y-142132D01*
X169588Y-143884D01*
Y-143750D01*
X169239Y-141994D01*
X168244Y-140506D01*
X164244Y-136506D01*
X162756Y-135511D01*
X161000Y-135162D01*
X160954D01*
X162668Y-132928D01*
X163852Y-130069D01*
X164256Y-127000D01*
X163852Y-123931D01*
X162668Y-121072D01*
X160784Y-118616D01*
X158328Y-116732D01*
X155469Y-115548D01*
X152400Y-115144D01*
X149331Y-115548D01*
X147991Y-116103D01*
X139088Y-107200D01*
Y-35172D01*
X139136Y-35136D01*
X140178Y-33778D01*
X140833Y-32197D01*
X141056Y-30500D01*
X140833Y-28803D01*
X140178Y-27222D01*
X139136Y-25864D01*
X137778Y-24822D01*
X136197Y-24167D01*
X134500Y-23944D01*
X132803Y-24167D01*
X131222Y-24822D01*
X131020Y-24977D01*
X130833Y-23553D01*
X130178Y-21972D01*
X129136Y-20614D01*
X129088Y-20578D01*
Y-9401D01*
X140855Y2367D01*
X140544Y0D01*
X140948Y-3069D01*
X142132Y-5928D01*
X144016Y-8384D01*
X146472Y-10268D01*
X149331Y-11452D01*
X152400Y-11856D01*
X155469Y-11452D01*
X158328Y-10268D01*
X160784Y-8384D01*
X162668Y-5928D01*
X163852Y-3069D01*
X164256Y0D01*
X163852Y3069D01*
X162668Y5928D01*
X160861Y8283D01*
X162006Y8511D01*
X163494Y9506D01*
X168494Y14506D01*
X169489Y15994D01*
X169656Y16832D01*
X171872Y15132D01*
D02*
G37*
G36*
X140544Y101600D02*
X140948Y98531D01*
X141503Y97191D01*
X138756Y94444D01*
X137761Y92956D01*
X137412Y91200D01*
Y86650D01*
X129338Y78577D01*
Y79599D01*
X131744Y82006D01*
X132739Y83494D01*
X133088Y85250D01*
Y94627D01*
X140617Y102156D01*
X140544Y101600D01*
D02*
G37*
G36*
X-183728Y91332D02*
X-180869Y90148D01*
X-177800Y89744D01*
X-174731Y90148D01*
X-173391Y90703D01*
X-168195Y85506D01*
X-166706Y84511D01*
X-164950Y84162D01*
X-161108D01*
X-162668Y82128D01*
X-163852Y79269D01*
X-164256Y76200D01*
X-163852Y73131D01*
X-162668Y70272D01*
X-160784Y67816D01*
X-158328Y65932D01*
X-155469Y64748D01*
X-152400Y64344D01*
X-149331Y64748D01*
X-146472Y65932D01*
X-144016Y67816D01*
X-143088Y69026D01*
Y57974D01*
X-144016Y59184D01*
X-146472Y61068D01*
X-149331Y62252D01*
X-152400Y62656D01*
X-155469Y62252D01*
X-158328Y61068D01*
X-160784Y59184D01*
X-162668Y56728D01*
X-163852Y53869D01*
X-164256Y50800D01*
X-163852Y47731D01*
X-162668Y44872D01*
X-160784Y42416D01*
X-158328Y40532D01*
X-155469Y39348D01*
X-152400Y38944D01*
X-151545Y39056D01*
X-149342Y36854D01*
X-152400Y37256D01*
X-155469Y36852D01*
X-158328Y35668D01*
X-160784Y33784D01*
X-162668Y31328D01*
X-163852Y28469D01*
X-164256Y25400D01*
X-163852Y22331D01*
X-162668Y19472D01*
X-160784Y17016D01*
X-158328Y15132D01*
X-155469Y13948D01*
X-152400Y13544D01*
X-149331Y13948D01*
X-146472Y15132D01*
X-144016Y17016D01*
X-142132Y19472D01*
X-142088Y19578D01*
Y5822D01*
X-142132Y5928D01*
X-144016Y8384D01*
X-146472Y10268D01*
X-149331Y11452D01*
X-152400Y11856D01*
X-155469Y11452D01*
X-158328Y10268D01*
X-160784Y8384D01*
X-162668Y5928D01*
X-163852Y3069D01*
X-164256Y0D01*
X-163852Y-3069D01*
X-162668Y-5928D01*
X-160784Y-8384D01*
X-158328Y-10268D01*
X-155469Y-11452D01*
X-152400Y-11856D01*
X-149331Y-11452D01*
X-146472Y-10268D01*
X-144016Y-8384D01*
X-142132Y-5928D01*
X-142088Y-5822D01*
Y-15007D01*
X-141739Y-16763D01*
X-140744Y-18252D01*
X-128238Y-30758D01*
X-129447Y-30917D01*
X-131028Y-31572D01*
X-132386Y-32614D01*
X-133428Y-33972D01*
X-134083Y-35553D01*
X-134306Y-37250D01*
X-134083Y-38947D01*
X-133428Y-40528D01*
X-132386Y-41886D01*
X-132338Y-41922D01*
Y-129100D01*
X-142994Y-139756D01*
X-143989Y-141244D01*
X-144338Y-143000D01*
Y-143769D01*
X-146472Y-142132D01*
X-149331Y-140948D01*
X-152400Y-140544D01*
X-155469Y-140948D01*
X-158328Y-142132D01*
X-160784Y-144016D01*
X-162668Y-146472D01*
X-163852Y-149331D01*
X-164256Y-152400D01*
X-163852Y-155469D01*
X-162668Y-158328D01*
X-160784Y-160784D01*
X-158328Y-162668D01*
X-155469Y-163852D01*
X-152400Y-164256D01*
X-149331Y-163852D01*
X-146472Y-162668D01*
X-144338Y-161031D01*
Y-163249D01*
X-147991Y-166903D01*
X-149331Y-166348D01*
X-152400Y-165944D01*
X-155469Y-166348D01*
X-158328Y-167532D01*
X-160784Y-169416D01*
X-162668Y-171872D01*
X-163852Y-174731D01*
X-164256Y-177800D01*
X-163852Y-180869D01*
X-162668Y-183728D01*
X-161692Y-185000D01*
X-168508D01*
X-167532Y-183728D01*
X-166348Y-180869D01*
X-165944Y-177800D01*
X-166348Y-174731D01*
X-167532Y-171872D01*
X-169416Y-169416D01*
X-171872Y-167532D01*
X-174731Y-166348D01*
X-177800Y-165944D01*
X-180869Y-166348D01*
X-183728Y-167532D01*
X-185000Y-168508D01*
Y-161692D01*
X-183728Y-162668D01*
X-180869Y-163852D01*
X-177800Y-164256D01*
X-174731Y-163852D01*
X-171872Y-162668D01*
X-169416Y-160784D01*
X-167532Y-158328D01*
X-166348Y-155469D01*
X-165944Y-152400D01*
X-166348Y-149331D01*
X-167532Y-146472D01*
X-169416Y-144016D01*
X-171872Y-142132D01*
X-174731Y-140948D01*
X-177800Y-140544D01*
X-180869Y-140948D01*
X-183728Y-142132D01*
X-185000Y-143108D01*
Y-136292D01*
X-183728Y-137268D01*
X-180869Y-138452D01*
X-177800Y-138856D01*
X-174731Y-138452D01*
X-171872Y-137268D01*
X-169416Y-135384D01*
X-167532Y-132928D01*
X-166348Y-130069D01*
X-165944Y-127000D01*
X-166348Y-123931D01*
X-167532Y-121072D01*
X-169416Y-118616D01*
X-171872Y-116732D01*
X-174731Y-115548D01*
X-177800Y-115144D01*
X-180869Y-115548D01*
X-183728Y-116732D01*
X-185000Y-117708D01*
Y-110892D01*
X-183728Y-111868D01*
X-180869Y-113052D01*
X-177800Y-113456D01*
X-174731Y-113052D01*
X-171872Y-111868D01*
X-169416Y-109984D01*
X-167532Y-107528D01*
X-166348Y-104669D01*
X-165944Y-101600D01*
X-166348Y-98531D01*
X-167532Y-95672D01*
X-169416Y-93216D01*
X-171872Y-91332D01*
X-174731Y-90148D01*
X-177800Y-89744D01*
X-180869Y-90148D01*
X-183728Y-91332D01*
X-185000Y-92308D01*
Y-85492D01*
X-183728Y-86468D01*
X-180869Y-87652D01*
X-177800Y-88056D01*
X-174731Y-87652D01*
X-171872Y-86468D01*
X-169416Y-84584D01*
X-167532Y-82128D01*
X-166348Y-79269D01*
X-165944Y-76200D01*
X-166348Y-73131D01*
X-167532Y-70272D01*
X-169416Y-67816D01*
X-171872Y-65932D01*
X-174731Y-64748D01*
X-177800Y-64344D01*
X-180869Y-64748D01*
X-183728Y-65932D01*
X-185000Y-66908D01*
Y-60092D01*
X-183728Y-61068D01*
X-180869Y-62252D01*
X-177800Y-62656D01*
X-174731Y-62252D01*
X-171872Y-61068D01*
X-169416Y-59184D01*
X-167532Y-56728D01*
X-166348Y-53869D01*
X-165944Y-50800D01*
X-166348Y-47731D01*
X-167532Y-44872D01*
X-169416Y-42416D01*
X-171872Y-40532D01*
X-174731Y-39348D01*
X-177800Y-38944D01*
X-180869Y-39348D01*
X-183728Y-40532D01*
X-185000Y-41508D01*
Y-34692D01*
X-183728Y-35668D01*
X-180869Y-36852D01*
X-177800Y-37256D01*
X-174731Y-36852D01*
X-171872Y-35668D01*
X-169416Y-33784D01*
X-167532Y-31328D01*
X-166348Y-28469D01*
X-165944Y-25400D01*
X-166348Y-22331D01*
X-167532Y-19472D01*
X-169416Y-17016D01*
X-171872Y-15132D01*
X-174731Y-13948D01*
X-177800Y-13544D01*
X-180869Y-13948D01*
X-183728Y-15132D01*
X-185000Y-16108D01*
Y-9292D01*
X-183728Y-10268D01*
X-180869Y-11452D01*
X-177800Y-11856D01*
X-174731Y-11452D01*
X-171872Y-10268D01*
X-169416Y-8384D01*
X-167532Y-5928D01*
X-166348Y-3069D01*
X-165944Y0D01*
X-166348Y3069D01*
X-167532Y5928D01*
X-169416Y8384D01*
X-171872Y10268D01*
X-174731Y11452D01*
X-177800Y11856D01*
X-180869Y11452D01*
X-183728Y10268D01*
X-185000Y9292D01*
Y16108D01*
X-183728Y15132D01*
X-180869Y13948D01*
X-177800Y13544D01*
X-174731Y13948D01*
X-171872Y15132D01*
X-169416Y17016D01*
X-167532Y19472D01*
X-166348Y22331D01*
X-165944Y25400D01*
X-166348Y28469D01*
X-167532Y31328D01*
X-169416Y33784D01*
X-171872Y35668D01*
X-174731Y36852D01*
X-177800Y37256D01*
X-180869Y36852D01*
X-183728Y35668D01*
X-185000Y34692D01*
Y41508D01*
X-183728Y40532D01*
X-180869Y39348D01*
X-177800Y38944D01*
X-174731Y39348D01*
X-171872Y40532D01*
X-169416Y42416D01*
X-167532Y44872D01*
X-166348Y47731D01*
X-165944Y50800D01*
X-166348Y53869D01*
X-167532Y56728D01*
X-169416Y59184D01*
X-171872Y61068D01*
X-174731Y62252D01*
X-177800Y62656D01*
X-180869Y62252D01*
X-183728Y61068D01*
X-185000Y60092D01*
Y66908D01*
X-183728Y65932D01*
X-180869Y64748D01*
X-179050Y64508D01*
Y76200D01*
Y87892D01*
X-180869Y87652D01*
X-183728Y86468D01*
X-185000Y85492D01*
Y92308D01*
X-183728Y91332D01*
D02*
G37*
G36*
X-32428Y-7778D02*
X-31386Y-9136D01*
X-30028Y-10178D01*
X-28447Y-10833D01*
X-26750Y-11056D01*
X-25053Y-10833D01*
X-24838Y-10744D01*
Y-23078D01*
X-24886Y-23114D01*
X-25928Y-24472D01*
X-26583Y-26053D01*
X-26806Y-27750D01*
X-26583Y-29447D01*
X-25928Y-31028D01*
X-24886Y-32386D01*
X-23528Y-33428D01*
X-21947Y-34083D01*
X-20250Y-34306D01*
X-18553Y-34083D01*
X-16972Y-33428D01*
X-15614Y-32386D01*
X-14572Y-31028D01*
X-13917Y-29447D01*
X-13694Y-27750D01*
X-13917Y-26053D01*
X-14572Y-24472D01*
X-15614Y-23114D01*
X-15662Y-23078D01*
Y-10994D01*
X-15447Y-11083D01*
X-13750Y-11306D01*
X-12053Y-11083D01*
X-11088Y-10683D01*
Y-37328D01*
X-11136Y-37364D01*
X-12178Y-38722D01*
X-12833Y-40303D01*
X-13056Y-42000D01*
X-12833Y-43697D01*
X-12178Y-45278D01*
X-11720Y-45874D01*
X-13011Y-46864D01*
X-14053Y-48222D01*
X-14708Y-49803D01*
X-14931Y-51500D01*
X-14708Y-53197D01*
X-14053Y-54778D01*
X-13011Y-56136D01*
X-11735Y-57115D01*
X-12386Y-57614D01*
X-13428Y-58972D01*
X-14083Y-60553D01*
X-14306Y-62250D01*
X-14083Y-63947D01*
X-13428Y-65528D01*
X-12386Y-66886D01*
X-11028Y-67928D01*
X-9447Y-68583D01*
X-7750Y-68806D01*
X-6053Y-68583D01*
X-4472Y-67928D01*
X-3114Y-66886D01*
X-2072Y-65528D01*
X-1417Y-63947D01*
X-1194Y-62250D01*
X-1202Y-62190D01*
X5662Y-55327D01*
Y-109671D01*
X4447Y-109167D01*
X2750Y-108944D01*
X1053Y-109167D01*
X-528Y-109822D01*
X-1886Y-110864D01*
X-2928Y-112222D01*
X-3583Y-113803D01*
X-3594Y-113892D01*
X-4750Y-113662D01*
X-5599D01*
X-43112Y-76150D01*
Y-74238D01*
X-42680Y-75282D01*
X-41638Y-76639D01*
X-40280Y-77681D01*
X-38699Y-78336D01*
X-37002Y-78560D01*
X-35305Y-78336D01*
X-33724Y-77681D01*
X-32366Y-76639D01*
X-31324Y-75282D01*
X-30669Y-73700D01*
X-30446Y-72003D01*
X-30669Y-70307D01*
X-31324Y-68726D01*
X-32366Y-67368D01*
X-33724Y-66326D01*
X-34715Y-65915D01*
X-34417Y-65197D01*
X-34327Y-64511D01*
X-32947Y-65083D01*
X-31250Y-65306D01*
X-29553Y-65083D01*
X-27972Y-64428D01*
X-26614Y-63386D01*
X-25572Y-62028D01*
X-24917Y-60447D01*
X-24694Y-58750D01*
X-24917Y-57053D01*
X-25572Y-55472D01*
X-26614Y-54114D01*
X-27972Y-53072D01*
X-29553Y-52417D01*
X-31250Y-52194D01*
X-32947Y-52417D01*
X-33927Y-52823D01*
X-33667Y-52197D01*
X-33444Y-50500D01*
X-33475Y-50260D01*
X-32697Y-50583D01*
X-31000Y-50806D01*
X-29303Y-50583D01*
X-27722Y-49928D01*
X-26364Y-48886D01*
X-25322Y-47528D01*
X-24667Y-45947D01*
X-24444Y-44250D01*
X-24667Y-42553D01*
X-25322Y-40972D01*
X-26364Y-39614D01*
X-27722Y-38572D01*
X-29303Y-37917D01*
X-31000Y-37694D01*
X-32697Y-37917D01*
X-34030Y-38470D01*
X-33917Y-38197D01*
X-33694Y-36500D01*
X-33917Y-34803D01*
X-34572Y-33222D01*
X-35614Y-31864D01*
X-36972Y-30822D01*
X-38553Y-30167D01*
X-40250Y-29944D01*
X-41947Y-30167D01*
X-43112Y-30650D01*
Y-17851D01*
X-32607Y-7345D01*
X-32428Y-7778D01*
D02*
G37*
G36*
X-15048Y-124690D02*
X-15056Y-124750D01*
X-14833Y-126447D01*
X-14178Y-128028D01*
X-13136Y-129386D01*
X-11778Y-130428D01*
X-10197Y-131083D01*
X-8500Y-131306D01*
X-7649Y-131194D01*
X-7583Y-131697D01*
X-6928Y-133278D01*
X-5886Y-134636D01*
X-4528Y-135678D01*
X-2947Y-136333D01*
X-1250Y-136556D01*
X447Y-136333D01*
X2028Y-135678D01*
X3386Y-134636D01*
X4428Y-133278D01*
X5083Y-131697D01*
X5306Y-130000D01*
X5083Y-128303D01*
X4428Y-126722D01*
X3386Y-125364D01*
X3338Y-125328D01*
Y-121979D01*
X4447Y-121833D01*
X5662Y-121329D01*
Y-121750D01*
X6011Y-123506D01*
X7006Y-124994D01*
X12788Y-130777D01*
X11472Y-131322D01*
X10114Y-132364D01*
X9072Y-133722D01*
X8417Y-135303D01*
X8194Y-137000D01*
X8417Y-138697D01*
X9072Y-140278D01*
X10114Y-141636D01*
X11472Y-142678D01*
X13053Y-143333D01*
X14750Y-143556D01*
X16447Y-143333D01*
X18028Y-142678D01*
X19386Y-141636D01*
X20428Y-140278D01*
X20812Y-139351D01*
Y-141577D01*
X19472Y-142132D01*
X17016Y-144016D01*
X15132Y-146472D01*
X13948Y-149331D01*
X13544Y-152400D01*
X13948Y-155469D01*
X15132Y-158328D01*
X17016Y-160784D01*
X19472Y-162668D01*
X22331Y-163852D01*
X25400Y-164256D01*
X28469Y-163852D01*
X31328Y-162668D01*
X33662Y-160877D01*
Y-163050D01*
X29809Y-166903D01*
X28469Y-166348D01*
X25400Y-165944D01*
X22331Y-166348D01*
X19472Y-167532D01*
X17016Y-169416D01*
X15132Y-171872D01*
X13948Y-174731D01*
X13544Y-177800D01*
X13948Y-180869D01*
X15132Y-183728D01*
X16108Y-185000D01*
X9292D01*
X10268Y-183728D01*
X11452Y-180869D01*
X11856Y-177800D01*
X11452Y-174731D01*
X10268Y-171872D01*
X8384Y-169416D01*
X5928Y-167532D01*
X3069Y-166348D01*
X0Y-165944D01*
X-3069Y-166348D01*
X-5928Y-167532D01*
X-8384Y-169416D01*
X-10268Y-171872D01*
X-11452Y-174731D01*
X-11856Y-177800D01*
X-11452Y-180869D01*
X-10268Y-183728D01*
X-9292Y-185000D01*
X-16108D01*
X-15132Y-183728D01*
X-13948Y-180869D01*
X-13544Y-177800D01*
X-13948Y-174731D01*
X-15132Y-171872D01*
X-17016Y-169416D01*
X-19472Y-167532D01*
X-22331Y-166348D01*
X-25400Y-165944D01*
X-28469Y-166348D01*
X-31328Y-167532D01*
X-33784Y-169416D01*
X-35668Y-171872D01*
X-36852Y-174731D01*
X-37256Y-177800D01*
X-36852Y-180869D01*
X-35668Y-183728D01*
X-34692Y-185000D01*
X-41508D01*
X-40532Y-183728D01*
X-39348Y-180869D01*
X-38944Y-177800D01*
X-39348Y-174731D01*
X-40532Y-171872D01*
X-42416Y-169416D01*
X-44872Y-167532D01*
X-47731Y-166348D01*
X-50800Y-165944D01*
X-53869Y-166348D01*
X-56728Y-167532D01*
X-59184Y-169416D01*
X-61068Y-171872D01*
X-62252Y-174731D01*
X-62656Y-177800D01*
X-62252Y-180869D01*
X-61068Y-183728D01*
X-60092Y-185000D01*
X-66908D01*
X-65932Y-183728D01*
X-64748Y-180869D01*
X-64344Y-177800D01*
X-64748Y-174731D01*
X-65932Y-171872D01*
X-67816Y-169416D01*
X-70272Y-167532D01*
X-73131Y-166348D01*
X-76200Y-165944D01*
X-79269Y-166348D01*
X-82128Y-167532D01*
X-84584Y-169416D01*
X-86468Y-171872D01*
X-87652Y-174731D01*
X-88056Y-177800D01*
X-87652Y-180869D01*
X-86468Y-183728D01*
X-85492Y-185000D01*
X-92308D01*
X-91332Y-183728D01*
X-90148Y-180869D01*
X-89744Y-177800D01*
X-90148Y-174731D01*
X-91332Y-171872D01*
X-93216Y-169416D01*
X-95672Y-167532D01*
X-98531Y-166348D01*
X-101600Y-165944D01*
X-104669Y-166348D01*
X-107528Y-167532D01*
X-109984Y-169416D01*
X-111868Y-171872D01*
X-113052Y-174731D01*
X-113456Y-177800D01*
X-113052Y-180869D01*
X-111868Y-183728D01*
X-110892Y-185000D01*
X-117708D01*
X-116732Y-183728D01*
X-115548Y-180869D01*
X-115144Y-177800D01*
X-115548Y-174731D01*
X-116732Y-171872D01*
X-118616Y-169416D01*
X-121072Y-167532D01*
X-123931Y-166348D01*
X-127000Y-165944D01*
X-130069Y-166348D01*
X-132928Y-167532D01*
X-135384Y-169416D01*
X-137268Y-171872D01*
X-138452Y-174731D01*
X-138856Y-177800D01*
X-138452Y-180869D01*
X-137268Y-183728D01*
X-136292Y-185000D01*
X-143108D01*
X-142132Y-183728D01*
X-140948Y-180869D01*
X-140544Y-177800D01*
X-140948Y-174731D01*
X-141503Y-173391D01*
X-136506Y-168394D01*
X-135511Y-166906D01*
X-135162Y-165150D01*
Y-160954D01*
X-132928Y-162668D01*
X-130069Y-163852D01*
X-127000Y-164256D01*
X-123931Y-163852D01*
X-121072Y-162668D01*
X-118616Y-160784D01*
X-116732Y-158328D01*
X-115548Y-155469D01*
X-115144Y-152400D01*
X-115548Y-149331D01*
X-116732Y-146472D01*
X-118616Y-144016D01*
X-121072Y-142132D01*
X-123931Y-140948D01*
X-127000Y-140544D01*
X-130069Y-140948D01*
X-132015Y-141754D01*
X-124506Y-134244D01*
X-123511Y-132756D01*
X-123162Y-131000D01*
Y-115226D01*
X-121697Y-115833D01*
X-120670Y-115968D01*
X-120806Y-117000D01*
X-120583Y-118697D01*
X-119928Y-120278D01*
X-118886Y-121636D01*
X-117528Y-122678D01*
X-115947Y-123333D01*
X-114250Y-123556D01*
X-112553Y-123333D01*
X-110972Y-122678D01*
X-109614Y-121636D01*
X-108572Y-120278D01*
X-107917Y-118697D01*
X-107694Y-117000D01*
X-107702Y-116940D01*
X-105599Y-114838D01*
X-65250D01*
X-63494Y-114489D01*
X-62006Y-113494D01*
X-58597Y-110086D01*
X-58583Y-110197D01*
X-57928Y-111778D01*
X-56886Y-113136D01*
X-55528Y-114178D01*
X-53947Y-114833D01*
X-52250Y-115056D01*
X-50553Y-114833D01*
X-48972Y-114178D01*
X-47614Y-113136D01*
X-46572Y-111778D01*
X-45917Y-110197D01*
X-45694Y-108500D01*
X-45917Y-106803D01*
X-46572Y-105222D01*
X-47614Y-103864D01*
X-48972Y-102822D01*
X-50553Y-102167D01*
X-52007Y-101976D01*
X-51912Y-101500D01*
Y-87827D01*
X-15048Y-124690D01*
D02*
G37*
G36*
X87364Y13636D02*
X86322Y12278D01*
X85667Y10697D01*
X85444Y9000D01*
X85667Y7303D01*
X86322Y5722D01*
X86617Y5338D01*
X78338D01*
Y8099D01*
X84901Y14662D01*
X88701D01*
X87364Y13636D01*
D02*
G37*
G36*
X119912Y-20578D02*
X119864Y-20614D01*
X118822Y-21972D01*
X118167Y-23553D01*
X117944Y-25250D01*
X118167Y-26947D01*
X118822Y-28528D01*
X119864Y-29886D01*
X121222Y-30928D01*
X122803Y-31583D01*
X124500Y-31806D01*
X126197Y-31583D01*
X127778Y-30928D01*
X127980Y-30773D01*
X128167Y-32197D01*
X128822Y-33778D01*
X129864Y-35136D01*
X129912Y-35172D01*
Y-48423D01*
X119244Y-37756D01*
X117756Y-36761D01*
X116000Y-36412D01*
X113422D01*
X113386Y-36364D01*
X112028Y-35322D01*
X110447Y-34667D01*
X108750Y-34444D01*
X107053Y-34667D01*
X105472Y-35322D01*
X104114Y-36364D01*
X103072Y-37722D01*
X102417Y-39303D01*
X102194Y-41000D01*
X102417Y-42697D01*
X103072Y-44278D01*
X104114Y-45636D01*
X105472Y-46678D01*
X107053Y-47333D01*
X108750Y-47556D01*
X110447Y-47333D01*
X112028Y-46678D01*
X113386Y-45636D01*
X113422Y-45588D01*
X114100D01*
X122912Y-54401D01*
Y-122250D01*
X123261Y-124006D01*
X124256Y-125494D01*
X141756Y-142994D01*
X143244Y-143989D01*
X143932Y-144126D01*
X142132Y-146472D01*
X140948Y-149331D01*
X140544Y-152400D01*
X140948Y-155469D01*
X142132Y-158328D01*
X144016Y-160784D01*
X146472Y-162668D01*
X149331Y-163852D01*
X152400Y-164256D01*
X155469Y-163852D01*
X158328Y-162668D01*
X160412Y-161069D01*
Y-165000D01*
X160761Y-166756D01*
X161756Y-168244D01*
X166903Y-173391D01*
X166348Y-174731D01*
X165944Y-177800D01*
X166348Y-180869D01*
X167532Y-183728D01*
X168508Y-185000D01*
X161692D01*
X162668Y-183728D01*
X163852Y-180869D01*
X164092Y-179050D01*
X140708D01*
X140948Y-180869D01*
X142132Y-183728D01*
X143108Y-185000D01*
X136292D01*
X137268Y-183728D01*
X138452Y-180869D01*
X138856Y-177800D01*
X138452Y-174731D01*
X137268Y-171872D01*
X135384Y-169416D01*
X132928Y-167532D01*
X130069Y-166348D01*
X127000Y-165944D01*
X123931Y-166348D01*
X122591Y-166903D01*
X119088Y-163400D01*
Y-161146D01*
X121072Y-162668D01*
X123931Y-163852D01*
X127000Y-164256D01*
X130069Y-163852D01*
X132928Y-162668D01*
X135384Y-160784D01*
X137268Y-158328D01*
X138452Y-155469D01*
X138856Y-152400D01*
X138452Y-149331D01*
X137268Y-146472D01*
X135384Y-144016D01*
X132928Y-142132D01*
X130069Y-140948D01*
X127000Y-140544D01*
X123931Y-140948D01*
X121072Y-142132D01*
X119088Y-143654D01*
Y-124000D01*
X118739Y-122244D01*
X117744Y-120756D01*
X111548Y-114560D01*
X111556Y-114500D01*
X111333Y-112803D01*
X110678Y-111222D01*
X109636Y-109864D01*
X108278Y-108822D01*
X106697Y-108167D01*
X105000Y-107944D01*
X103303Y-108167D01*
X101722Y-108822D01*
X100364Y-109864D01*
X99322Y-111222D01*
X99003Y-111994D01*
X98136Y-110864D01*
X96778Y-109822D01*
X95197Y-109167D01*
X93500Y-108944D01*
X91803Y-109167D01*
X90222Y-109822D01*
X88864Y-110864D01*
X87822Y-112222D01*
X87167Y-113803D01*
X86944Y-115500D01*
X87167Y-117197D01*
X87822Y-118778D01*
X88864Y-120136D01*
X90222Y-121178D01*
X91803Y-121833D01*
X93500Y-122056D01*
X95197Y-121833D01*
X96778Y-121178D01*
X98136Y-120136D01*
X99178Y-118778D01*
X99497Y-118006D01*
X100364Y-119136D01*
X101722Y-120178D01*
X103303Y-120833D01*
X105000Y-121056D01*
X105060Y-121048D01*
X109912Y-125900D01*
Y-143961D01*
X107528Y-142132D01*
X104669Y-140948D01*
X101600Y-140544D01*
X98531Y-140948D01*
X95672Y-142132D01*
X93216Y-144016D01*
X91332Y-146472D01*
X90148Y-149331D01*
X89744Y-152400D01*
X90148Y-155469D01*
X91332Y-158328D01*
X93216Y-160784D01*
X95672Y-162668D01*
X98531Y-163852D01*
X101600Y-164256D01*
X104669Y-163852D01*
X107528Y-162668D01*
X109912Y-160839D01*
Y-165300D01*
X110261Y-167056D01*
X111256Y-168545D01*
X116103Y-173391D01*
X115548Y-174731D01*
X115144Y-177800D01*
X115548Y-180869D01*
X116732Y-183728D01*
X117708Y-185000D01*
X110892D01*
X111868Y-183728D01*
X113052Y-180869D01*
X113456Y-177800D01*
X113052Y-174731D01*
X111868Y-171872D01*
X109984Y-169416D01*
X107528Y-167532D01*
X104669Y-166348D01*
X101600Y-165944D01*
X98531Y-166348D01*
X95672Y-167532D01*
X93216Y-169416D01*
X91332Y-171872D01*
X90148Y-174731D01*
X89744Y-177800D01*
X90148Y-180869D01*
X91332Y-183728D01*
X92308Y-185000D01*
X85492D01*
X86468Y-183728D01*
X87652Y-180869D01*
X88056Y-177800D01*
X87652Y-174731D01*
X86468Y-171872D01*
X84584Y-169416D01*
X82128Y-167532D01*
X79269Y-166348D01*
X76200Y-165944D01*
X73131Y-166348D01*
X71791Y-166903D01*
X68088Y-163200D01*
Y-160992D01*
X70272Y-162668D01*
X73131Y-163852D01*
X74950Y-164092D01*
Y-152400D01*
Y-140708D01*
X73131Y-140948D01*
X70272Y-142132D01*
X67816Y-144016D01*
X67798Y-144040D01*
X67739Y-143744D01*
X66744Y-142256D01*
X58244Y-133756D01*
X56756Y-132761D01*
X55000Y-132412D01*
X52401D01*
X34048Y-114060D01*
X34056Y-114000D01*
X33833Y-112303D01*
X33178Y-110722D01*
X32136Y-109364D01*
X30778Y-108322D01*
X29197Y-107667D01*
X27500Y-107444D01*
X25803Y-107667D01*
X25088Y-107963D01*
Y-47036D01*
X25803Y-47333D01*
X27500Y-47556D01*
X29197Y-47333D01*
X30778Y-46678D01*
X32136Y-45636D01*
X33178Y-44278D01*
X33833Y-42697D01*
X34056Y-41000D01*
X33940Y-40117D01*
X34197Y-40083D01*
X34412Y-39994D01*
Y-70756D01*
X34197Y-70667D01*
X32500Y-70444D01*
X30803Y-70667D01*
X29222Y-71322D01*
X27864Y-72364D01*
X26822Y-73722D01*
X26167Y-75303D01*
X25944Y-77000D01*
X26167Y-78697D01*
X26822Y-80278D01*
X27864Y-81636D01*
X29222Y-82678D01*
X30803Y-83333D01*
X32500Y-83556D01*
X32502Y-83556D01*
X32444Y-84000D01*
X32667Y-85697D01*
X33322Y-87278D01*
X34364Y-88636D01*
X35722Y-89678D01*
X37303Y-90333D01*
X39000Y-90556D01*
X40697Y-90333D01*
X42278Y-89678D01*
X43103Y-89045D01*
X43364Y-89386D01*
X44722Y-90428D01*
X46303Y-91083D01*
X48000Y-91306D01*
X49697Y-91083D01*
X51278Y-90428D01*
X52636Y-89386D01*
X53678Y-88028D01*
X54333Y-86447D01*
X54390Y-86015D01*
X54553Y-86083D01*
X56250Y-86306D01*
X57947Y-86083D01*
X59528Y-85428D01*
X60886Y-84386D01*
X61928Y-83028D01*
X62583Y-81447D01*
X62806Y-79750D01*
X62759Y-79393D01*
X64000Y-79556D01*
X65697Y-79333D01*
X67278Y-78678D01*
X68636Y-77636D01*
X69232Y-76859D01*
X69972Y-77428D01*
X71553Y-78083D01*
X73250Y-78306D01*
X74947Y-78083D01*
X76528Y-77428D01*
X77886Y-76386D01*
X78928Y-75028D01*
X79583Y-73447D01*
X79806Y-71750D01*
X79795Y-71668D01*
X80739Y-70256D01*
X81088Y-68500D01*
Y-50109D01*
X81572Y-51278D01*
X82614Y-52636D01*
X83972Y-53678D01*
X85553Y-54333D01*
X87250Y-54556D01*
X88709Y-54364D01*
X88917Y-55947D01*
X89572Y-57528D01*
X90614Y-58886D01*
X91972Y-59928D01*
X93553Y-60583D01*
X94728Y-60737D01*
X94694Y-61000D01*
X94917Y-62697D01*
X95572Y-64278D01*
X96614Y-65636D01*
X97972Y-66678D01*
X99553Y-67333D01*
X101250Y-67556D01*
X102947Y-67333D01*
X104528Y-66678D01*
X105886Y-65636D01*
X106928Y-64278D01*
X107583Y-62697D01*
X107806Y-61000D01*
X107583Y-59303D01*
X106928Y-57722D01*
X105886Y-56364D01*
X104528Y-55322D01*
X102947Y-54667D01*
X101771Y-54513D01*
X101806Y-54250D01*
X101583Y-52553D01*
X100928Y-50972D01*
X99886Y-49614D01*
X98528Y-48572D01*
X96947Y-47917D01*
X95250Y-47694D01*
X93791Y-47886D01*
X93583Y-46303D01*
X92928Y-44722D01*
X91886Y-43364D01*
X90528Y-42322D01*
X88947Y-41667D01*
X87250Y-41444D01*
X85553Y-41667D01*
X83972Y-42322D01*
X82614Y-43364D01*
X81572Y-44722D01*
X81088Y-45891D01*
Y-13874D01*
X81864Y-14886D01*
X83222Y-15928D01*
X84803Y-16583D01*
X86500Y-16806D01*
X88197Y-16583D01*
X89778Y-15928D01*
X91136Y-14886D01*
X92178Y-13528D01*
X92833Y-11947D01*
X93056Y-10250D01*
X92833Y-8553D01*
X92744Y-8338D01*
X119912D01*
Y-20578D01*
D02*
G37*
G36*
X-86468Y183728D02*
X-87652Y180869D01*
X-88056Y177800D01*
X-87652Y174731D01*
X-87097Y173391D01*
X-92244Y168244D01*
X-93239Y166756D01*
X-93588Y165000D01*
Y161069D01*
X-95672Y162668D01*
X-98531Y163852D01*
X-101600Y164256D01*
X-104669Y163852D01*
X-107528Y162668D01*
X-109840Y160894D01*
X-110011Y161756D01*
X-111006Y163244D01*
X-116006Y168244D01*
X-117494Y169239D01*
X-118586Y169456D01*
X-116732Y171872D01*
X-115548Y174731D01*
X-115144Y177800D01*
X-115548Y180869D01*
X-116732Y183728D01*
X-117708Y185000D01*
X-110892D01*
X-111868Y183728D01*
X-113052Y180869D01*
X-113292Y179050D01*
X-89908D01*
X-90148Y180869D01*
X-91332Y183728D01*
X-92308Y185000D01*
X-85492D01*
X-86468Y183728D01*
D02*
G37*
G36*
X-61068D02*
X-62252Y180869D01*
X-62656Y177800D01*
X-62252Y174731D01*
X-61068Y171872D01*
X-59184Y169416D01*
X-56728Y167532D01*
X-53869Y166348D01*
X-50800Y165944D01*
X-47731Y166348D01*
X-46392Y166903D01*
X-42588Y163099D01*
Y160916D01*
X-44872Y162668D01*
X-47731Y163852D01*
X-50800Y164256D01*
X-53869Y163852D01*
X-56728Y162668D01*
X-59184Y160784D01*
X-61068Y158328D01*
X-62252Y155469D01*
X-62656Y152400D01*
X-62252Y149331D01*
X-61068Y146472D01*
X-59184Y144016D01*
X-56728Y142132D01*
X-53869Y140948D01*
X-53338Y140878D01*
Y58244D01*
X-53506Y58494D01*
X-72952Y77940D01*
X-72944Y78000D01*
X-73167Y79697D01*
X-73822Y81278D01*
X-74864Y82636D01*
X-76222Y83678D01*
X-77425Y84176D01*
X-77162Y85500D01*
Y140670D01*
X-76200Y140544D01*
X-73131Y140948D01*
X-70272Y142132D01*
X-67816Y144016D01*
X-65932Y146472D01*
X-64748Y149331D01*
X-64344Y152400D01*
X-64748Y155469D01*
X-65932Y158328D01*
X-67816Y160784D01*
X-70272Y162668D01*
X-73131Y163852D01*
X-76200Y164256D01*
X-79269Y163852D01*
X-82128Y162668D01*
X-84412Y160916D01*
Y163099D01*
X-80609Y166903D01*
X-79269Y166348D01*
X-76200Y165944D01*
X-73131Y166348D01*
X-70272Y167532D01*
X-67816Y169416D01*
X-65932Y171872D01*
X-64748Y174731D01*
X-64344Y177800D01*
X-64748Y180869D01*
X-65932Y183728D01*
X-66908Y185000D01*
X-60092D01*
X-61068Y183728D01*
D02*
G37*
G36*
X65932D02*
X64748Y180869D01*
X64344Y177800D01*
X64748Y174731D01*
X65932Y171872D01*
X67816Y169416D01*
X70272Y167532D01*
X73131Y166348D01*
X76200Y165944D01*
X79269Y166348D01*
X80609Y166903D01*
X84662Y162849D01*
Y160682D01*
X84584Y160784D01*
X82128Y162668D01*
X79269Y163852D01*
X76200Y164256D01*
X73131Y163852D01*
X70272Y162668D01*
X67816Y160784D01*
X65932Y158328D01*
X64748Y155469D01*
X64344Y152400D01*
X64748Y149331D01*
X65932Y146472D01*
X67816Y144016D01*
X69091Y143038D01*
X68222Y142678D01*
X66864Y141636D01*
X65822Y140278D01*
X65168Y138698D01*
X64928Y139278D01*
X63886Y140636D01*
X62528Y141678D01*
X60947Y142333D01*
X59250Y142556D01*
X57553Y142333D01*
X55972Y141678D01*
X54614Y140636D01*
X53572Y139278D01*
X52917Y137697D01*
X52694Y136000D01*
X52917Y134303D01*
X53572Y132722D01*
X54614Y131364D01*
X55972Y130322D01*
X57553Y129667D01*
X59250Y129444D01*
X60947Y129667D01*
X62528Y130322D01*
X63886Y131364D01*
X64928Y132722D01*
X65582Y134302D01*
X65822Y133722D01*
X66864Y132364D01*
X68222Y131322D01*
X69803Y130667D01*
X71500Y130444D01*
X73197Y130667D01*
X74778Y131322D01*
X76136Y132364D01*
X77178Y133722D01*
X77833Y135303D01*
X78056Y137000D01*
X77833Y138697D01*
X77178Y140278D01*
X76903Y140636D01*
X77541Y140720D01*
X81912Y136349D01*
Y64317D01*
X80972Y63928D01*
X79614Y62886D01*
X78572Y61528D01*
X77917Y59947D01*
X77694Y58250D01*
X77917Y56553D01*
X78572Y54972D01*
X79614Y53614D01*
X80972Y52572D01*
X82553Y51918D01*
X84250Y51694D01*
X85560Y51867D01*
X85667Y51053D01*
X86322Y49472D01*
X87364Y48114D01*
X88722Y47072D01*
X90303Y46417D01*
X92000Y46194D01*
X93697Y46417D01*
X95278Y47072D01*
X96636Y48114D01*
X97678Y49472D01*
X98333Y51053D01*
X98556Y52750D01*
X98333Y54447D01*
X97678Y56028D01*
X96636Y57386D01*
X96588Y57422D01*
Y85204D01*
X96964Y84714D01*
X98322Y83672D01*
X99903Y83017D01*
X101600Y82794D01*
X103297Y83017D01*
X104162Y83376D01*
Y56500D01*
X104511Y54744D01*
X105506Y53256D01*
X106702Y52060D01*
X106694Y52000D01*
X106917Y50303D01*
X107572Y48722D01*
X108614Y47364D01*
X109972Y46322D01*
X110758Y45997D01*
X108849Y44088D01*
X79500D01*
X77744Y43739D01*
X76256Y42744D01*
X52655Y19144D01*
X52583Y19697D01*
X51928Y21278D01*
X50886Y22636D01*
X49528Y23678D01*
X48625Y24052D01*
X48833Y24553D01*
X49056Y26250D01*
X48833Y27947D01*
X48178Y29528D01*
X47136Y30886D01*
X45778Y31928D01*
X44197Y32583D01*
X42500Y32806D01*
X40803Y32583D01*
X39222Y31928D01*
X37864Y30886D01*
X36822Y29528D01*
X36167Y27947D01*
X35944Y26250D01*
X36167Y24553D01*
X36822Y22972D01*
X37864Y21614D01*
X39222Y20572D01*
X40125Y20198D01*
X39917Y19697D01*
X39694Y18000D01*
X39917Y16303D01*
X40572Y14722D01*
X41614Y13364D01*
X42972Y12322D01*
X44553Y11667D01*
X45106Y11595D01*
X43285Y9774D01*
X43239Y10006D01*
X42244Y11494D01*
X21838Y31900D01*
Y36000D01*
X21489Y37756D01*
X20494Y39244D01*
X-1162Y60901D01*
Y70078D01*
X-1114Y70114D01*
X-72Y71472D01*
X583Y73053D01*
X806Y74750D01*
X583Y76447D01*
X-72Y78028D01*
X-1114Y79386D01*
X-2472Y80428D01*
X-4053Y81083D01*
X-5750Y81306D01*
X-7447Y81083D01*
X-7562Y81035D01*
Y110422D01*
X-6947Y110167D01*
X-5250Y109944D01*
X-3662Y110153D01*
X-3583Y109553D01*
X-2928Y107972D01*
X-1886Y106614D01*
X-528Y105572D01*
X1053Y104917D01*
X2750Y104694D01*
X3190Y104752D01*
X3167Y104697D01*
X2944Y103000D01*
X3167Y101303D01*
X3822Y99722D01*
X4864Y98364D01*
X6222Y97322D01*
X7803Y96667D01*
X9500Y96444D01*
X11197Y96667D01*
X12778Y97322D01*
X14136Y98364D01*
X15178Y99722D01*
X15833Y101303D01*
X16056Y103000D01*
X15833Y104697D01*
X15178Y106278D01*
X14136Y107636D01*
X12778Y108678D01*
X11197Y109333D01*
X9500Y109556D01*
X9060Y109498D01*
X9083Y109553D01*
X9306Y111250D01*
X9083Y112947D01*
X8428Y114528D01*
X7386Y115886D01*
X6028Y116928D01*
X4447Y117583D01*
X2750Y117806D01*
X1162Y117597D01*
X1083Y118197D01*
X428Y119778D01*
X-614Y121136D01*
X-1972Y122178D01*
X-2581Y122430D01*
X2900Y127912D01*
X26250D01*
X28006Y128261D01*
X29494Y129256D01*
X41494Y141256D01*
X42489Y142744D01*
X42699Y143799D01*
X44872Y142132D01*
X47731Y140948D01*
X49550Y140708D01*
Y152400D01*
Y164092D01*
X47731Y163852D01*
X44872Y162668D01*
X42838Y161108D01*
Y163350D01*
X46391Y166903D01*
X47731Y166348D01*
X50800Y165944D01*
X53869Y166348D01*
X56728Y167532D01*
X59184Y169416D01*
X61068Y171872D01*
X62252Y174731D01*
X62656Y177800D01*
X62252Y180869D01*
X61068Y183728D01*
X60092Y185000D01*
X66908D01*
X65932Y183728D01*
D02*
G37*
G36*
X-134178Y121278D02*
X-134833Y119697D01*
X-135056Y118000D01*
X-134833Y116303D01*
X-134178Y114722D01*
X-133136Y113364D01*
X-131778Y112322D01*
X-130197Y111667D01*
X-128500Y111444D01*
X-128440Y111452D01*
X-124838Y107850D01*
Y95400D01*
X-127162Y93077D01*
Y99750D01*
X-127511Y101506D01*
X-128506Y102994D01*
X-142756Y117244D01*
X-144244Y118239D01*
X-144454Y118281D01*
X-144016Y118616D01*
X-142132Y121072D01*
X-141577Y122412D01*
X-133308D01*
X-134178Y121278D01*
D02*
G37*
%LPC*%
G36*
X152400Y-89744D02*
X149331Y-90148D01*
X146472Y-91332D01*
X144016Y-93216D01*
X142132Y-95672D01*
X140948Y-98531D01*
X140544Y-101600D01*
X140948Y-104669D01*
X142132Y-107528D01*
X144016Y-109984D01*
X146472Y-111868D01*
X149331Y-113052D01*
X152400Y-113456D01*
X155469Y-113052D01*
X158328Y-111868D01*
X160784Y-109984D01*
X162668Y-107528D01*
X163852Y-104669D01*
X164256Y-101600D01*
X163852Y-98531D01*
X162668Y-95672D01*
X160784Y-93216D01*
X158328Y-91332D01*
X155469Y-90148D01*
X152400Y-89744D01*
D02*
G37*
G36*
X151150Y-77450D02*
X140708D01*
X140948Y-79269D01*
X142132Y-82128D01*
X144016Y-84584D01*
X146472Y-86468D01*
X149331Y-87652D01*
X151150Y-87892D01*
Y-77450D01*
D02*
G37*
G36*
Y-13708D02*
X149331Y-13948D01*
X146472Y-15132D01*
X144016Y-17016D01*
X142132Y-19472D01*
X140948Y-22331D01*
X140708Y-24150D01*
X151150D01*
Y-13708D01*
D02*
G37*
G36*
X153650D02*
Y-24150D01*
X164092D01*
X163852Y-22331D01*
X162668Y-19472D01*
X160784Y-17016D01*
X158328Y-15132D01*
X155469Y-13948D01*
X153650Y-13708D01*
D02*
G37*
G36*
X164092Y-26650D02*
X153650D01*
Y-37092D01*
X155469Y-36852D01*
X158328Y-35668D01*
X160784Y-33784D01*
X162668Y-31328D01*
X163852Y-28469D01*
X164092Y-26650D01*
D02*
G37*
G36*
X151150Y-64508D02*
X149331Y-64748D01*
X146472Y-65932D01*
X144016Y-67816D01*
X142132Y-70272D01*
X140948Y-73131D01*
X140708Y-74950D01*
X151150D01*
Y-64508D01*
D02*
G37*
G36*
X164092Y-77450D02*
X153650D01*
Y-87892D01*
X155469Y-87652D01*
X158328Y-86468D01*
X160784Y-84584D01*
X162668Y-82128D01*
X163852Y-79269D01*
X164092Y-77450D01*
D02*
G37*
G36*
X153650Y-64508D02*
Y-74950D01*
X164092D01*
X163852Y-73131D01*
X162668Y-70272D01*
X160784Y-67816D01*
X158328Y-65932D01*
X155469Y-64748D01*
X153650Y-64508D01*
D02*
G37*
G36*
X151150Y-26650D02*
X140708D01*
X140948Y-28469D01*
X142132Y-31328D01*
X144016Y-33784D01*
X146472Y-35668D01*
X149331Y-36852D01*
X151150Y-37092D01*
Y-26650D01*
D02*
G37*
G36*
X152400Y-38944D02*
X149331Y-39348D01*
X146472Y-40532D01*
X144016Y-42416D01*
X142132Y-44872D01*
X140948Y-47731D01*
X140544Y-50800D01*
X140948Y-53869D01*
X142132Y-56728D01*
X144016Y-59184D01*
X146472Y-61068D01*
X149331Y-62252D01*
X152400Y-62656D01*
X155469Y-62252D01*
X158328Y-61068D01*
X160784Y-59184D01*
X162668Y-56728D01*
X163852Y-53869D01*
X164256Y-50800D01*
X163852Y-47731D01*
X162668Y-44872D01*
X160784Y-42416D01*
X158328Y-40532D01*
X155469Y-39348D01*
X152400Y-38944D01*
D02*
G37*
G36*
X-152400Y-115144D02*
X-155469Y-115548D01*
X-158328Y-116732D01*
X-160784Y-118616D01*
X-162668Y-121072D01*
X-163852Y-123931D01*
X-164256Y-127000D01*
X-163852Y-130069D01*
X-162668Y-132928D01*
X-160784Y-135384D01*
X-158328Y-137268D01*
X-155469Y-138452D01*
X-152400Y-138856D01*
X-149331Y-138452D01*
X-146472Y-137268D01*
X-144016Y-135384D01*
X-142132Y-132928D01*
X-140948Y-130069D01*
X-140544Y-127000D01*
X-140948Y-123931D01*
X-142132Y-121072D01*
X-144016Y-118616D01*
X-146472Y-116732D01*
X-149331Y-115548D01*
X-152400Y-115144D01*
D02*
G37*
G36*
X-153650Y-77450D02*
X-164092D01*
X-163852Y-79269D01*
X-162668Y-82128D01*
X-160784Y-84584D01*
X-158328Y-86468D01*
X-155469Y-87652D01*
X-153650Y-87892D01*
Y-77450D01*
D02*
G37*
G36*
X-152400Y-89744D02*
X-155469Y-90148D01*
X-158328Y-91332D01*
X-160784Y-93216D01*
X-162668Y-95672D01*
X-163852Y-98531D01*
X-164256Y-101600D01*
X-163852Y-104669D01*
X-162668Y-107528D01*
X-160784Y-109984D01*
X-158328Y-111868D01*
X-155469Y-113052D01*
X-152400Y-113456D01*
X-149331Y-113052D01*
X-146472Y-111868D01*
X-144016Y-109984D01*
X-142132Y-107528D01*
X-140948Y-104669D01*
X-140544Y-101600D01*
X-140948Y-98531D01*
X-142132Y-95672D01*
X-144016Y-93216D01*
X-146472Y-91332D01*
X-149331Y-90148D01*
X-152400Y-89744D01*
D02*
G37*
G36*
X-140708Y-77450D02*
X-151150D01*
Y-87892D01*
X-149331Y-87652D01*
X-146472Y-86468D01*
X-144016Y-84584D01*
X-142132Y-82128D01*
X-140948Y-79269D01*
X-140708Y-77450D01*
D02*
G37*
G36*
X-166108Y74950D02*
X-176550D01*
Y64508D01*
X-174731Y64748D01*
X-171872Y65932D01*
X-169416Y67816D01*
X-167532Y70272D01*
X-166348Y73131D01*
X-166108Y74950D01*
D02*
G37*
G36*
X-176550Y87892D02*
Y77450D01*
X-166108D01*
X-166348Y79269D01*
X-167532Y82128D01*
X-169416Y84584D01*
X-171872Y86468D01*
X-174731Y87652D01*
X-176550Y87892D01*
D02*
G37*
G36*
X-151150Y-64508D02*
Y-74950D01*
X-140708D01*
X-140948Y-73131D01*
X-142132Y-70272D01*
X-144016Y-67816D01*
X-146472Y-65932D01*
X-149331Y-64748D01*
X-151150Y-64508D01*
D02*
G37*
G36*
X-153650D02*
X-155469Y-64748D01*
X-158328Y-65932D01*
X-160784Y-67816D01*
X-162668Y-70272D01*
X-163852Y-73131D01*
X-164092Y-74950D01*
X-153650D01*
Y-64508D01*
D02*
G37*
G36*
X-152400Y-13544D02*
X-155469Y-13948D01*
X-158328Y-15132D01*
X-160784Y-17016D01*
X-162668Y-19472D01*
X-163852Y-22331D01*
X-164256Y-25400D01*
X-163852Y-28469D01*
X-162668Y-31328D01*
X-160784Y-33784D01*
X-158328Y-35668D01*
X-155469Y-36852D01*
X-152400Y-37256D01*
X-149331Y-36852D01*
X-146472Y-35668D01*
X-144016Y-33784D01*
X-142132Y-31328D01*
X-140948Y-28469D01*
X-140544Y-25400D01*
X-140948Y-22331D01*
X-142132Y-19472D01*
X-144016Y-17016D01*
X-146472Y-15132D01*
X-149331Y-13948D01*
X-152400Y-13544D01*
D02*
G37*
G36*
Y-38944D02*
X-155469Y-39348D01*
X-158328Y-40532D01*
X-160784Y-42416D01*
X-162668Y-44872D01*
X-163852Y-47731D01*
X-164256Y-50800D01*
X-163852Y-53869D01*
X-162668Y-56728D01*
X-160784Y-59184D01*
X-158328Y-61068D01*
X-155469Y-62252D01*
X-152400Y-62656D01*
X-149331Y-62252D01*
X-146472Y-61068D01*
X-144016Y-59184D01*
X-142132Y-56728D01*
X-140948Y-53869D01*
X-140544Y-50800D01*
X-140948Y-47731D01*
X-142132Y-44872D01*
X-144016Y-42416D01*
X-146472Y-40532D01*
X-149331Y-39348D01*
X-152400Y-38944D01*
D02*
G37*
G36*
X-49550Y-140708D02*
Y-151150D01*
X-39108D01*
X-39348Y-149331D01*
X-40532Y-146472D01*
X-42416Y-144016D01*
X-44872Y-142132D01*
X-47731Y-140948D01*
X-49550Y-140708D01*
D02*
G37*
G36*
X-52050Y-153650D02*
X-62492D01*
X-62252Y-155469D01*
X-61068Y-158328D01*
X-59184Y-160784D01*
X-56728Y-162668D01*
X-53869Y-163852D01*
X-52050Y-164092D01*
Y-153650D01*
D02*
G37*
G36*
X-76200Y-140544D02*
X-79269Y-140948D01*
X-82128Y-142132D01*
X-84584Y-144016D01*
X-86468Y-146472D01*
X-87652Y-149331D01*
X-88056Y-152400D01*
X-87652Y-155469D01*
X-86468Y-158328D01*
X-84584Y-160784D01*
X-82128Y-162668D01*
X-79269Y-163852D01*
X-76200Y-164256D01*
X-73131Y-163852D01*
X-70272Y-162668D01*
X-67816Y-160784D01*
X-65932Y-158328D01*
X-64748Y-155469D01*
X-64344Y-152400D01*
X-64748Y-149331D01*
X-65932Y-146472D01*
X-67816Y-144016D01*
X-70272Y-142132D01*
X-73131Y-140948D01*
X-76200Y-140544D01*
D02*
G37*
G36*
X-25400D02*
X-28469Y-140948D01*
X-31328Y-142132D01*
X-33784Y-144016D01*
X-35668Y-146472D01*
X-36852Y-149331D01*
X-37256Y-152400D01*
X-36852Y-155469D01*
X-35668Y-158328D01*
X-33784Y-160784D01*
X-31328Y-162668D01*
X-28469Y-163852D01*
X-25400Y-164256D01*
X-22331Y-163852D01*
X-19472Y-162668D01*
X-17016Y-160784D01*
X-15132Y-158328D01*
X-13948Y-155469D01*
X-13544Y-152400D01*
X-13948Y-149331D01*
X-15132Y-146472D01*
X-17016Y-144016D01*
X-19472Y-142132D01*
X-22331Y-140948D01*
X-25400Y-140544D01*
D02*
G37*
G36*
X0D02*
X-3069Y-140948D01*
X-5928Y-142132D01*
X-8384Y-144016D01*
X-10268Y-146472D01*
X-11452Y-149331D01*
X-11856Y-152400D01*
X-11452Y-155469D01*
X-10268Y-158328D01*
X-8384Y-160784D01*
X-5928Y-162668D01*
X-3069Y-163852D01*
X0Y-164256D01*
X3069Y-163852D01*
X5928Y-162668D01*
X8384Y-160784D01*
X10268Y-158328D01*
X11452Y-155469D01*
X11856Y-152400D01*
X11452Y-149331D01*
X10268Y-146472D01*
X8384Y-144016D01*
X5928Y-142132D01*
X3069Y-140948D01*
X0Y-140544D01*
D02*
G37*
G36*
X-101600D02*
X-104669Y-140948D01*
X-107528Y-142132D01*
X-109984Y-144016D01*
X-111868Y-146472D01*
X-113052Y-149331D01*
X-113456Y-152400D01*
X-113052Y-155469D01*
X-111868Y-158328D01*
X-109984Y-160784D01*
X-107528Y-162668D01*
X-104669Y-163852D01*
X-101600Y-164256D01*
X-98531Y-163852D01*
X-95672Y-162668D01*
X-93216Y-160784D01*
X-91332Y-158328D01*
X-90148Y-155469D01*
X-89744Y-152400D01*
X-90148Y-149331D01*
X-91332Y-146472D01*
X-93216Y-144016D01*
X-95672Y-142132D01*
X-98531Y-140948D01*
X-101600Y-140544D01*
D02*
G37*
G36*
X-52050Y-140708D02*
X-53869Y-140948D01*
X-56728Y-142132D01*
X-59184Y-144016D01*
X-61068Y-146472D01*
X-62252Y-149331D01*
X-62492Y-151150D01*
X-52050D01*
Y-140708D01*
D02*
G37*
G36*
X-39108Y-153650D02*
X-49550D01*
Y-164092D01*
X-47731Y-163852D01*
X-44872Y-162668D01*
X-42416Y-160784D01*
X-40532Y-158328D01*
X-39348Y-155469D01*
X-39108Y-153650D01*
D02*
G37*
G36*
X47750Y-107194D02*
X46053Y-107417D01*
X44472Y-108072D01*
X43114Y-109114D01*
X42072Y-110472D01*
X41417Y-112053D01*
X41194Y-113750D01*
X41417Y-115447D01*
X42072Y-117028D01*
X43114Y-118386D01*
X44472Y-119428D01*
X46053Y-120083D01*
X47750Y-120306D01*
X49447Y-120083D01*
X51028Y-119428D01*
X52386Y-118386D01*
X53428Y-117028D01*
X54083Y-115447D01*
X54306Y-113750D01*
X54083Y-112053D01*
X53428Y-110472D01*
X52386Y-109114D01*
X51028Y-108072D01*
X49447Y-107417D01*
X47750Y-107194D01*
D02*
G37*
G36*
X77450Y-140708D02*
Y-151150D01*
X87892D01*
X87652Y-149331D01*
X86468Y-146472D01*
X84584Y-144016D01*
X82128Y-142132D01*
X79269Y-140948D01*
X77450Y-140708D01*
D02*
G37*
G36*
X151150Y-166108D02*
X149331Y-166348D01*
X146472Y-167532D01*
X144016Y-169416D01*
X142132Y-171872D01*
X140948Y-174731D01*
X140708Y-176550D01*
X151150D01*
Y-166108D01*
D02*
G37*
G36*
X87892Y-153650D02*
X77450D01*
Y-164092D01*
X79269Y-163852D01*
X82128Y-162668D01*
X84584Y-160784D01*
X86468Y-158328D01*
X87652Y-155469D01*
X87892Y-153650D01*
D02*
G37*
G36*
X153650Y-166108D02*
Y-176550D01*
X164092D01*
X163852Y-174731D01*
X162668Y-171872D01*
X160784Y-169416D01*
X158328Y-167532D01*
X155469Y-166348D01*
X153650Y-166108D01*
D02*
G37*
G36*
X-102850Y176550D02*
X-113292D01*
X-113052Y174731D01*
X-111868Y171872D01*
X-109984Y169416D01*
X-107528Y167532D01*
X-104669Y166348D01*
X-102850Y166108D01*
Y176550D01*
D02*
G37*
G36*
X-89908D02*
X-100350D01*
Y166108D01*
X-98531Y166348D01*
X-95672Y167532D01*
X-93216Y169416D01*
X-91332Y171872D01*
X-90148Y174731D01*
X-89908Y176550D01*
D02*
G37*
G36*
X68250Y90056D02*
X66553Y89833D01*
X64972Y89178D01*
X63614Y88136D01*
X62572Y86778D01*
X61917Y85197D01*
X61694Y83500D01*
X61917Y81803D01*
X62572Y80222D01*
X63614Y78864D01*
X64972Y77822D01*
X66553Y77167D01*
X68250Y76944D01*
X68828Y77020D01*
X68694Y76000D01*
X68917Y74303D01*
X69572Y72722D01*
X70614Y71364D01*
X71972Y70322D01*
X73553Y69667D01*
X75250Y69444D01*
X76947Y69667D01*
X78528Y70322D01*
X79886Y71364D01*
X80928Y72722D01*
X81583Y74303D01*
X81806Y76000D01*
X81583Y77697D01*
X80928Y79278D01*
X79886Y80636D01*
X78528Y81678D01*
X76947Y82333D01*
X75250Y82556D01*
X74672Y82480D01*
X74806Y83500D01*
X74583Y85197D01*
X73928Y86778D01*
X72886Y88136D01*
X71528Y89178D01*
X69947Y89833D01*
X68250Y90056D01*
D02*
G37*
G36*
X62492Y151150D02*
X52050D01*
Y140708D01*
X53869Y140948D01*
X56728Y142132D01*
X59184Y144016D01*
X61068Y146472D01*
X62252Y149331D01*
X62492Y151150D01*
D02*
G37*
G36*
X52050Y164092D02*
Y153650D01*
X62492D01*
X62252Y155469D01*
X61068Y158328D01*
X59184Y160784D01*
X56728Y162668D01*
X53869Y163852D01*
X52050Y164092D01*
D02*
G37*
%LPD*%
D17*
X177800Y72300D02*
Y76200D01*
X165250Y59750D02*
X177800Y72300D01*
X165250Y17750D02*
Y59750D01*
X160250Y12750D02*
X165250Y17750D01*
X144750Y12750D02*
X160250D01*
X124500Y-7500D02*
X144750Y12750D01*
X124500Y-25250D02*
Y-7500D01*
X137500Y55750D02*
X145250Y63500D01*
X137500Y13750D02*
Y55750D01*
X120000Y-3750D02*
X137500Y13750D01*
X132000Y74750D02*
X142000Y84750D01*
X132000Y15000D02*
Y74750D01*
X117750Y750D02*
X132000Y15000D01*
X165250Y89050D02*
X177800Y101600D01*
X165250Y69000D02*
Y89050D01*
X159750Y63500D02*
X165250Y69000D01*
X76500Y-8750D02*
X81500Y-3750D01*
X76500Y-68500D02*
Y-8750D01*
X73250Y-71750D02*
X76500Y-68500D01*
X145250Y63500D02*
X159750D01*
X81500Y-3750D02*
X120000D01*
X77750Y750D02*
X117750D01*
X60750Y-16250D02*
X77750Y750D01*
X142000Y91200D02*
X152400Y101600D01*
X142000Y84750D02*
Y91200D01*
X107750Y19250D02*
X125000Y36500D01*
X124750Y46250D02*
Y81500D01*
X103000Y24500D02*
X124750Y46250D01*
X80750Y24500D02*
X103000D01*
X119750Y48500D02*
Y84750D01*
X110750Y39500D02*
X119750Y48500D01*
X79500Y39500D02*
X110750D01*
X60750Y-64250D02*
Y-16250D01*
X60071Y-73000D02*
X64000D01*
X53250Y-66179D02*
X60071Y-73000D01*
X53250Y-66179D02*
Y-16250D01*
X-72750Y-92250D02*
Y36750D01*
X-80250Y-87750D02*
Y37250D01*
X-87000Y-82000D02*
Y37551D01*
X-108750Y-79500D02*
X-92250Y-63000D01*
Y-29500D01*
X-110450Y-11300D02*
X-92250Y-29500D01*
X-110450Y-11300D02*
Y35399D01*
X-99500Y-53750D02*
Y-29394D01*
X-107750Y-57750D02*
Y-28250D01*
X-116250Y-55000D02*
Y-38500D01*
X-132750Y-10250D02*
X-113500Y-29500D01*
Y-35750D02*
Y-29500D01*
X-116250Y-38500D02*
X-113500Y-35750D01*
X-128500Y118000D02*
X-120250Y109750D01*
Y93500D02*
Y109750D01*
X-125300Y88450D02*
X-120250Y93500D01*
X-125300Y50249D02*
Y88450D01*
X-115500Y76000D02*
Y115500D01*
X-127000Y127000D02*
X-115500Y115500D01*
X-152400Y127000D02*
X-127000D01*
X-110750Y78250D02*
Y118000D01*
X-125000Y132250D02*
X-110750Y118000D01*
X-137500Y132250D02*
X-125000D01*
X-106000Y80250D02*
Y120000D01*
X-124250Y138250D02*
X-106000Y120000D01*
X-135750Y138250D02*
X-124250D01*
X-145500Y145500D02*
X-143000D01*
X-135750Y138250D01*
X-164900Y139500D02*
X-144750D01*
X-137500Y132250D01*
X-146000Y114000D02*
X-131750Y99750D01*
Y90472D02*
Y99750D01*
Y90472D02*
X-129700Y88423D01*
Y44450D02*
Y88423D01*
Y44450D02*
X-114850Y29600D01*
X-149100Y101600D02*
X-134100Y86600D01*
Y41850D02*
Y86600D01*
Y41850D02*
X-119250Y27000D01*
X-143750Y88750D02*
X-138500Y83500D01*
Y39500D02*
Y83500D01*
Y39500D02*
X-132750Y33750D01*
X-125300Y50249D02*
X-110450Y35399D01*
X-114850Y-14044D02*
Y29600D01*
X-119250Y-16750D02*
Y27000D01*
X-132750Y-10250D02*
Y33750D01*
X-137500Y-15007D02*
Y31500D01*
X-152400Y46400D02*
X-137500Y31500D01*
X-152400Y46400D02*
Y50800D01*
X-114850Y-14044D02*
X-99500Y-29394D01*
X-119250Y-16750D02*
X-107750Y-28250D01*
X-115500Y76000D02*
X-109750Y70250D01*
X-110750Y78250D02*
X-105000Y72500D01*
X-106000Y80250D02*
X-100250Y74500D01*
X127000Y177800D02*
X139750Y165050D01*
X84250Y58250D02*
X86500Y60500D01*
X-21000Y125500D02*
X-0Y146500D01*
X-21000Y53750D02*
Y125500D01*
Y53750D02*
X-6500Y39250D01*
X-16550Y122200D02*
X-500Y138250D01*
X-16550Y56050D02*
Y122200D01*
Y56050D02*
X-1500Y41000D01*
X-12150Y119350D02*
X1000Y132500D01*
X-12150Y58400D02*
X3250Y43000D01*
X-12150Y58400D02*
Y119350D01*
X-31500Y250D02*
Y18250D01*
X-16500Y3000D02*
Y21750D01*
X-20250Y-750D02*
X-16500Y3000D01*
X-48750Y54000D02*
X-16500Y21750D01*
X-43500Y56058D02*
X-11500Y24058D01*
X-5750Y59000D02*
Y74750D01*
Y59000D02*
X17250Y36000D01*
Y30000D02*
Y36000D01*
X8250Y29500D02*
X10000Y31250D01*
X3250Y-32500D02*
Y43000D01*
X-1500Y-35000D02*
Y41000D01*
X8250Y-30000D02*
Y29500D01*
X3250Y-32500D02*
X4750Y-34000D01*
X-1500Y-35000D02*
X-0Y-36500D01*
X-6500Y-42000D02*
Y39250D01*
X105000Y-114500D02*
X114500Y-124000D01*
Y-165300D02*
Y-124000D01*
Y-165300D02*
X127000Y-177800D01*
X27500Y-114000D02*
X50500Y-137000D01*
X55000D01*
X63500Y-145500D01*
Y-165100D02*
Y-145500D01*
Y-165100D02*
X76200Y-177800D01*
X-1250Y-130000D02*
Y-121750D01*
X-4750Y-118250D02*
X-1250Y-121750D01*
X-7500Y-118250D02*
X-4750D01*
X-38250Y1000D02*
Y12750D01*
X-20250Y-27750D02*
Y-750D01*
X-11500Y-2500D02*
Y24058D01*
X-13750Y-4750D02*
X-11500Y-2500D01*
X-45000Y1000D02*
Y16500D01*
X-56750Y28250D02*
X-45000Y16500D01*
X-56750Y28250D02*
Y55250D01*
X-79500Y78000D02*
X-56750Y55250D01*
X-83500Y70250D02*
X-62000Y48750D01*
X-93250Y69250D02*
X-67000Y43000D01*
X-50500Y3500D02*
Y15250D01*
X-62000Y26750D02*
X-50500Y15250D01*
X-62000Y26750D02*
Y48750D01*
X-55750Y6000D02*
Y13250D01*
X-67000Y24500D02*
X-55750Y13250D01*
X-67000Y24500D02*
Y43000D01*
X-87000Y80250D02*
X-81750Y85500D01*
X-95500Y80250D02*
X-87000D01*
X-81750Y85500D02*
Y146850D01*
X-177800Y127000D02*
X-164800Y114000D01*
X-146000D01*
X-164950Y88750D02*
X-143750D01*
X-152400Y101600D02*
X-149100D01*
X-177800D02*
X-164950Y88750D01*
X-152400Y152400D02*
X-145500Y145500D01*
X-100250Y64128D02*
Y74500D01*
Y64128D02*
X-88122Y52000D01*
X-88000D01*
X-72750Y36750D01*
X-177800Y152400D02*
X-164900Y139500D01*
X-105000Y62000D02*
Y72500D01*
Y62000D02*
X-80250Y37250D01*
X-109750Y60301D02*
Y70250D01*
Y60301D02*
X-87000Y37551D01*
X-99250Y95000D02*
Y130250D01*
X-114250Y145250D02*
X-99250Y130250D01*
X-114250Y145250D02*
Y160000D01*
X-81750Y146850D02*
X-76200Y152400D01*
X-89000Y165000D02*
X-76200Y177800D01*
X-89000Y88000D02*
Y165000D01*
X-152400Y177800D02*
X-139600Y165000D01*
X-119250D01*
X-114250Y160000D01*
X18250Y-25750D02*
Y13250D01*
Y-25750D02*
X20500Y-28000D01*
X18250Y13250D02*
X20001Y15001D01*
X13250Y20750D02*
X14750Y22250D01*
X25400Y-177800D02*
X38250Y-164950D01*
X13250Y-28000D02*
X15250Y-30000D01*
X13250Y-28000D02*
Y20750D01*
X8250Y-30000D02*
X10250Y-32000D01*
X-48750Y54000D02*
Y150350D01*
X-50800Y152400D02*
X-48750Y150350D01*
X-50800Y177800D02*
X-38000Y165000D01*
Y136500D02*
Y165000D01*
X-43500Y131000D02*
X-38000Y136500D01*
X-25400Y140600D02*
Y152400D01*
X-36500Y129500D02*
X-25400Y140600D01*
X-36500Y65000D02*
Y129500D01*
X-43500Y56058D02*
Y131000D01*
X-29250Y71250D02*
Y127250D01*
X-12500Y165300D02*
X-0Y177800D01*
X-12500Y144000D02*
Y165300D01*
X-29250Y127250D02*
X-12500Y144000D01*
X92000Y52750D02*
Y142000D01*
X89250Y144750D02*
X92000Y142000D01*
X89250Y144750D02*
Y164750D01*
X76200Y177800D02*
X89250Y164750D01*
X114750Y144250D02*
Y164650D01*
X101600Y177800D02*
X114750Y164650D01*
X86500Y60500D02*
Y138250D01*
X76200Y148550D02*
X86500Y138250D01*
X76200Y148550D02*
Y152400D01*
X101600Y89350D02*
Y152400D01*
X-0Y146500D02*
Y152400D01*
X11250Y138250D02*
X25400Y152400D01*
X26250Y132500D02*
X38250Y144500D01*
Y165250D01*
X50800Y177800D01*
X-500Y138250D02*
X11250D01*
X1000Y132500D02*
X26250D01*
X-137500Y-15007D02*
X-121006Y-31502D01*
X-152400Y-177800D02*
X-139750Y-165150D01*
Y-143000D01*
X-127750Y-131000D01*
Y-37250D01*
X134500Y-109100D02*
X152400Y-127000D01*
X134500Y-109100D02*
Y-30500D01*
X39000Y-84000D02*
Y8250D01*
X17250Y30000D02*
X39000Y8250D01*
X-69750Y-100000D02*
X-66000Y-96250D01*
Y-4250D01*
X-55750Y6000D01*
X-61250Y-98500D02*
Y-7250D01*
X-50500Y3500D01*
X-52100Y-81150D02*
X-8500Y-124750D01*
X-47700Y-78050D02*
X-7500Y-118250D01*
X-56500Y-10500D02*
X-45000Y1000D01*
X-52100Y-12850D02*
X-38250Y1000D01*
X-47700Y-15950D02*
X-31500Y250D01*
X-56500Y-101500D02*
Y-10500D01*
X-52100Y-81150D02*
Y-12850D01*
X-47700Y-78050D02*
Y-15950D01*
X-7750Y-62250D02*
X4750Y-49750D01*
Y-34000D01*
X-8375Y-51500D02*
X-5250D01*
X-0Y-46250D01*
Y-36500D01*
X20500Y-117500D02*
Y-28000D01*
Y-117500D02*
X50800Y-147800D01*
Y-152400D02*
Y-147800D01*
X15250Y-119250D02*
Y-30000D01*
Y-119250D02*
X38250Y-142250D01*
Y-164950D02*
Y-142250D01*
X10250Y-121750D02*
Y-32000D01*
Y-121750D02*
X25400Y-136900D01*
Y-152400D02*
Y-136900D01*
X-68000Y-105250D02*
X-61250Y-98500D01*
X-65250Y-110250D02*
X-56500Y-101500D01*
X-120000Y-109500D02*
X-115750Y-105250D01*
X-68000D01*
X-114250Y-117000D02*
X-107500Y-110250D01*
X-65250D01*
X-85500Y-95250D02*
X-80750Y-100000D01*
X-69750D01*
X127750Y133250D02*
X139750Y145250D01*
Y165050D01*
X150000Y127000D02*
X152400D01*
X144500Y114250D02*
X165050D01*
X177800Y127000D01*
X134000Y111000D02*
X150000Y127000D01*
X108750Y56500D02*
X113250Y52000D01*
X108750Y56500D02*
Y138250D01*
X114750Y144250D01*
X134000Y108250D02*
Y111000D01*
X138400Y106427D02*
Y108150D01*
X144500Y114250D01*
X127750Y109250D02*
Y133250D01*
X115500Y91500D02*
Y97000D01*
X127750Y109250D01*
X123750Y98000D02*
X134000Y108250D01*
X128500Y96528D02*
X138400Y106427D01*
X119750Y84750D02*
X123750Y88750D01*
Y98000D01*
X124750Y81500D02*
X128500Y85250D01*
Y96528D01*
X73750Y4250D02*
Y10000D01*
X83000Y19250D01*
X107750D01*
X67750Y6250D02*
Y11500D01*
X80750Y24500D01*
X43500Y3500D02*
X79500Y39500D01*
X43500Y-76000D02*
Y3500D01*
Y-76000D02*
X48000Y-80500D01*
Y-84750D02*
Y-80500D01*
X48500Y-72000D02*
X56250Y-79750D01*
X48500Y-72000D02*
Y-13000D01*
X67750Y6250D01*
X53250Y-16250D02*
X73750Y4250D01*
X145000Y-139750D02*
X161000D01*
X165000Y-143750D01*
Y-165000D02*
Y-143750D01*
Y-165000D02*
X177800Y-177800D01*
X127500Y-122250D02*
X145000Y-139750D01*
X108750Y-41000D02*
X116000D01*
X127500Y-52500D01*
Y-122250D02*
Y-52500D01*
X120250Y-124000D02*
Y-109250D01*
Y-124000D02*
X139750Y-143500D01*
Y-165150D02*
Y-143500D01*
Y-165150D02*
X152400Y-177800D01*
D19*
X177800D02*
D03*
Y76200D02*
D03*
Y101600D02*
D03*
Y127000D02*
D03*
X152400Y-177800D02*
D03*
Y-127000D02*
D03*
Y-76200D02*
D03*
Y-25400D02*
D03*
Y101600D02*
D03*
Y127000D02*
D03*
X127000Y-177800D02*
D03*
Y177800D02*
D03*
X101600Y152400D02*
D03*
Y177800D02*
D03*
X76200Y-177800D02*
D03*
Y-152400D02*
D03*
Y152400D02*
D03*
Y177800D02*
D03*
X50800Y-152400D02*
D03*
Y152400D02*
D03*
Y177800D02*
D03*
X25400Y-177800D02*
D03*
Y-152400D02*
D03*
Y152400D02*
D03*
X0D02*
D03*
Y177800D02*
D03*
X-25400Y152400D02*
D03*
X-50800Y-152400D02*
D03*
Y152400D02*
D03*
Y177800D02*
D03*
X-76200Y152400D02*
D03*
Y177800D02*
D03*
X-101600D02*
D03*
X-152400Y-177800D02*
D03*
Y-76200D02*
D03*
Y50800D02*
D03*
Y101600D02*
D03*
Y127000D02*
D03*
Y177800D02*
D03*
X-177800Y76200D02*
D03*
Y101600D02*
D03*
Y127000D02*
D03*
Y152400D02*
D03*
D20*
X-152400D02*
D03*
D21*
X-7250Y-73750D02*
D03*
X92500Y-21000D02*
D03*
X120250Y-109250D02*
D03*
X118000Y-56250D02*
D03*
X77750Y-100500D02*
D03*
X124500Y-25250D02*
D03*
X125000Y36500D02*
D03*
X-80250Y-87750D02*
D03*
X-87000Y-82000D02*
D03*
X-99500Y-53750D02*
D03*
X-107750Y-57750D02*
D03*
X-116250Y-55000D02*
D03*
X-72750Y-92250D02*
D03*
X-128500Y118000D02*
D03*
X-108750Y-79500D02*
D03*
X84250Y58250D02*
D03*
X10000Y31250D02*
D03*
X-5750Y74750D02*
D03*
X105000Y-114500D02*
D03*
X27500Y-114000D02*
D03*
X-1250Y-130000D02*
D03*
X-8500Y-124750D02*
D03*
X-31500Y18250D02*
D03*
X-38250Y12750D02*
D03*
X-83500Y70250D02*
D03*
X-79500Y78000D02*
D03*
X-93250Y69250D02*
D03*
X-95500Y80250D02*
D03*
X-89000Y88000D02*
D03*
X-99250Y95000D02*
D03*
X14750Y22250D02*
D03*
X20001Y15001D02*
D03*
X-20250Y-27750D02*
D03*
X-29250Y71250D02*
D03*
X-36500Y65000D02*
D03*
X-13750Y-4750D02*
D03*
X-127500Y106250D02*
D03*
X-55750Y108750D02*
D03*
X22750Y85000D02*
D03*
X65750Y96250D02*
D03*
X81500Y7500D02*
D03*
X113250Y52000D02*
D03*
X92000Y52750D02*
D03*
X-116500Y65500D02*
D03*
X101600Y89350D02*
D03*
X-6500Y-42000D02*
D03*
X39000Y-84000D02*
D03*
X-127750Y-37250D02*
D03*
X-121006Y-31502D02*
D03*
X134500Y-30500D02*
D03*
X-8375Y-51500D02*
D03*
X-7750Y-62250D02*
D03*
X108750Y-41000D02*
D03*
X-120000Y-109500D02*
D03*
X-114250Y-117000D02*
D03*
X-85500Y-95250D02*
D03*
X73250Y-71750D02*
D03*
X60750Y-64250D02*
D03*
X64000Y-73000D02*
D03*
X56250Y-79750D02*
D03*
X48000Y-84750D02*
D03*
X115500Y91500D02*
D03*
X135000Y87500D02*
D03*
M02*
